<?xml version="1.0" encoding="UTF-8" standalone="no"?>
<svg
   xmlns:dc="http://purl.org/dc/elements/1.1/"
   xmlns:cc="http://creativecommons.org/ns#"
   xmlns:rdf="http://www.w3.org/1999/02/22-rdf-syntax-ns#"
   xmlns:svg="http://www.w3.org/2000/svg"
   xmlns="http://www.w3.org/2000/svg"
   xmlns:sodipodi="http://sodipodi.sourceforge.net/DTD/sodipodi-0.dtd"
   xmlns:inkscape="http://www.inkscape.org/namespaces/inkscape"
   inkscape:version="1.0 (4035a4fb49, 2020-05-01)"
   sodipodi:docname="amadeupstory.svg"
   id="svg1732"
   version="1.1"
   viewBox="0 0 69.393471 9.6427946"
   height="9.6427946mm"
   width="69.393471mm">
  <defs
     id="defs1726" />
  <sodipodi:namedview
     fit-margin-bottom="0"
     fit-margin-right="0"
     fit-margin-left="0"
     fit-margin-top="0"
     inkscape:window-maximized="0"
     inkscape:window-y="61"
     inkscape:window-x="2430"
     inkscape:window-height="1032"
     inkscape:window-width="1274"
     showgrid="false"
     inkscape:document-rotation="0"
     inkscape:current-layer="layer1"
     inkscape:document-units="mm"
     inkscape:cy="-189.54529"
     inkscape:cx="94.532758"
     inkscape:zoom="0.35"
     inkscape:pageshadow="2"
     inkscape:pageopacity="0.0"
     borderopacity="1.0"
     bordercolor="#666666"
     pagecolor="#ffffff"
     id="base" />
  <metadata
     id="metadata1729">
    <rdf:RDF>
      <cc:Work
         rdf:about="">
        <dc:format>image/svg+xml</dc:format>
        <dc:type
           rdf:resource="http://purl.org/dc/dcmitype/StillImage" />
        <dc:title></dc:title>
      </cc:Work>
    </rdf:RDF>
  </metadata>
  <g
     transform="translate(-40.320337,-99.158595)"
     id="layer1"
     inkscape:groupmode="layer"
     inkscape:label="Layer 1">
    <g
       style="font-size:10.5833px;line-height:1.25;font-family:lego;-inkscape-font-specification:lego;letter-spacing:0px;opacity:1;stroke-width:0.264583"
       id="text1714"
       aria-label="a made up story">
      <path
         id="path2348"
         style="font-style:normal;font-variant:normal;font-weight:normal;font-stretch:normal;font-family:'Gill Sans MT';-inkscape-font-specification:'Gill Sans MT';stroke-width:0.264583"
         d="m 43.68963,103.52007 v 2.02054 q 0,0.24288 0.165364,0.24288 0.170531,0 0.532265,-0.25321 v 0.57361 q -0.320393,0.2067 -0.516762,0.27905 -0.191203,0.0775 -0.403075,0.0775 -0.604613,0 -0.713133,-0.47542 -0.599444,0.46509 -1.276404,0.46509 -0.496092,0 -0.82682,-0.32556 -0.330728,-0.33073 -0.330728,-0.82682 0,-0.44959 0.320393,-0.80099 0.32556,-0.35656 0.919837,-0.56327 l 1.204057,-0.41341 v -0.25321 q 0,-0.85783 -0.857826,-0.85783 -0.769976,0 -1.498611,0.79582 v -1.02836 q 0.547768,-0.64595 1.576126,-0.64595 0.769976,0 1.235063,0.40307 0.155028,0.12919 0.279051,0.34623 0.124024,0.21187 0.155029,0.42891 0.03617,0.21188 0.03617,0.81132 z m -0.925006,1.91719 v -1.41076 l -0.63045,0.24288 q -0.480589,0.1912 -0.682127,0.38757 -0.19637,0.1912 -0.19637,0.48059 0,0.29455 0.186035,0.48059 0.191202,0.18603 0.490925,0.18603 0.449583,0 0.831987,-0.3669 z" />
      <path
         id="path2350"
         style="font-style:normal;font-variant:normal;font-weight:normal;font-stretch:normal;font-family:'Gill Sans MT';-inkscape-font-specification:'Gill Sans MT';stroke-width:0.264583"
         d="m 52.061185,102.92579 v 3.45198 H 51.11551 v -2.64583 q 0,-0.79064 -0.211873,-1.1007 -0.211873,-0.31523 -0.738971,-0.31523 -0.294554,0 -0.542601,0.13436 -0.242878,0.13436 -0.558103,0.47542 v 3.45198 h -0.940508 v -4.75422 h 0.940508 v 0.62529 q 0.7183,-0.7183 1.405594,-0.7183 0.904335,0 1.400427,0.85782 0.754474,-0.86816 1.576126,-0.86816 0.692462,0 1.136878,0.50643 0.449584,0.50643 0.449584,1.54512 v 2.80602 h -0.940508 v -2.81636 q 0,-0.59427 -0.242879,-0.9095 -0.242878,-0.31522 -0.697629,-0.31522 -0.583942,0 -1.09037,0.5891 z" />
      <path
         id="path2352"
         style="font-style:normal;font-variant:normal;font-weight:normal;font-stretch:normal;font-family:'Gill Sans MT';-inkscape-font-specification:'Gill Sans MT';stroke-width:0.264583"
         d="m 59.316533,103.52007 v 2.02054 q 0,0.24288 0.165364,0.24288 0.170532,0 0.532266,-0.25321 v 0.57361 q -0.320393,0.2067 -0.516763,0.27905 -0.191202,0.0775 -0.403075,0.0775 -0.604612,0 -0.713132,-0.47542 -0.599445,0.46509 -1.276404,0.46509 -0.496092,0 -0.82682,-0.32556 -0.330728,-0.33073 -0.330728,-0.82682 0,-0.44959 0.320392,-0.80099 0.325561,-0.35656 0.919838,-0.56327 l 1.204057,-0.41341 v -0.25321 q 0,-0.85783 -0.857826,-0.85783 -0.769976,0 -1.498612,0.79582 v -1.02836 q 0.547769,-0.64595 1.576126,-0.64595 0.769977,0 1.235063,0.40307 0.155029,0.12919 0.279052,0.34623 0.124023,0.21187 0.155029,0.42891 0.03617,0.21188 0.03617,0.81132 z m -0.925005,1.91719 v -1.41076 l -0.63045,0.24288 q -0.48059,0.1912 -0.682127,0.38757 -0.19637,0.1912 -0.19637,0.48059 0,0.29455 0.186035,0.48059 0.191202,0.18603 0.490924,0.18603 0.449584,0 0.831988,-0.3669 z" />
      <path
         id="path2354"
         style="font-style:normal;font-variant:normal;font-weight:normal;font-stretch:normal;font-family:'Gill Sans MT';-inkscape-font-specification:'Gill Sans MT';stroke-width:0.264583"
         d="m 64.029408,99.158595 h 0.945676 v 7.219175 h -2.010207 q -1.054196,0 -1.684646,-0.66662 -0.625283,-0.66663 -0.625283,-1.788 0,-1.04903 0.656288,-1.72599 0.661457,-0.67696 1.684647,-0.67696 0.475421,0 1.033525,0.20154 z m 0,6.413025 v -3.01273 q -0.439248,-0.2222 -0.888832,-0.2222 -0.702797,0 -1.121375,0.45991 -0.41341,0.45992 -0.41341,1.24023 0,0.73381 0.361734,1.13171 0.21704,0.23772 0.459919,0.3204 0.242878,0.0827 0.873329,0.0827 z" />
      <path
         id="path2356"
         style="font-style:normal;font-variant:normal;font-weight:normal;font-stretch:normal;font-family:'Gill Sans MT';-inkscape-font-specification:'Gill Sans MT';stroke-width:0.264583"
         d="m 70.302907,104.08334 h -3.343455 q 0.03617,0.68213 0.454752,1.0852 0.423745,0.40308 1.090369,0.40308 0.930173,0 1.715652,-0.57877 v 0.91983 q -0.434081,0.28939 -0.862994,0.41341 -0.423745,0.12403 -0.997352,0.12403 -0.785479,0 -1.271236,-0.32556 -0.485757,-0.32556 -0.780312,-0.87333 -0.289387,-0.55294 -0.289387,-1.27641 0,-1.0852 0.614948,-1.76216 0.614947,-0.68212 1.596797,-0.68212 0.945675,0 1.508947,0.66145 0.563271,0.66146 0.563271,1.7725 z m -3.322784,-0.56327 h 2.392611 q -0.03617,-0.56327 -0.335896,-0.86816 -0.299722,-0.30489 -0.806149,-0.30489 -0.506428,0 -0.831988,0.30489 -0.320393,0.30489 -0.418578,0.86816 z" />
      <path
         id="path2358"
         style="font-style:normal;font-variant:normal;font-weight:normal;font-stretch:normal;font-family:'Gill Sans MT';-inkscape-font-specification:'Gill Sans MT';stroke-width:0.264583"
         d="m 77.279204,106.37777 v -0.60461 q -0.299723,0.32556 -0.687295,0.50642 -0.382404,0.18087 -0.764808,0.18087 -0.449584,0 -0.831988,-0.22221 -0.377237,-0.22737 -0.573607,-0.60978 -0.191202,-0.38757 -0.191202,-1.28157 v -2.72334 h 0.940508 v 2.71301 q 0,0.7493 0.211873,1.04903 0.21704,0.29455 0.754473,0.29455 0.671792,0 1.142046,-0.65629 v -3.4003 h 0.940508 v 4.75422 z" />
      <path
         id="path2360"
         style="font-style:normal;font-variant:normal;font-weight:normal;font-stretch:normal;font-family:'Gill Sans MT';-inkscape-font-specification:'Gill Sans MT';stroke-width:0.264583"
         d="m 79.480612,108.80139 v -7.17784 h 1.648473 q 1.266068,0 1.968866,0.63045 0.707964,0.63045 0.707964,1.76216 0,1.0697 -0.666623,1.757 -0.661457,0.68729 -1.689814,0.68729 -0.454752,0 -1.007688,-0.20154 v 2.54248 z m 1.627802,-6.29934 H 80.44179 v 2.92488 q 0.434081,0.2222 0.909503,0.2222 0.661456,0 1.080034,-0.45991 0.423745,-0.45992 0.423745,-1.18339 0,-0.46509 -0.201537,-0.82165 -0.19637,-0.35657 -0.542601,-0.51677 -0.341064,-0.16536 -1.00252,-0.16536 z" />
      <path
         id="path2362"
         style="font-style:normal;font-variant:normal;font-weight:normal;font-stretch:normal;font-family:'Gill Sans MT';-inkscape-font-specification:'Gill Sans MT';stroke-width:0.264583"
         d="m 87.536944,106.03671 v -1.01286 q 0.397907,0.27905 0.811317,0.45475 0.418578,0.17053 0.702798,0.17053 0.294554,0 0.506427,-0.14469 0.211873,-0.14469 0.211873,-0.34623 0,-0.20671 -0.139526,-0.34106 -0.134358,-0.13953 -0.58911,-0.39791 -0.909502,-0.50643 -1.193721,-0.86299 -0.279052,-0.36174 -0.279052,-0.78548 0,-0.54777 0.423745,-0.894 0.428913,-0.34623 1.100705,-0.34623 0.697629,0 1.431432,0.39274 v 0.93017 q -0.837155,-0.50643 -1.369421,-0.50643 -0.273884,0 -0.444416,0.11886 -0.165364,0.11368 -0.165364,0.30489 0,0.16536 0.149861,0.31522 0.155029,0.14986 0.537434,0.36174 l 0.335895,0.1912 q 1.188554,0.67179 1.188554,1.48827 0,0.58395 -0.459918,0.96118 -0.454751,0.37207 -1.173052,0.37207 -0.423745,0 -0.754473,-0.0878 -0.330728,-0.093 -0.831988,-0.33589 z" />
      <path
         id="path2364"
         style="font-style:normal;font-variant:normal;font-weight:normal;font-stretch:normal;font-family:'Gill Sans MT';-inkscape-font-specification:'Gill Sans MT';stroke-width:0.264583"
         d="m 91.174953,102.37803 1.767329,-1.73633 v 0.98185 h 1.503779 v 0.84749 h -1.503779 v 2.3306 q 0,0.81649 0.676959,0.81649 0.506427,0 1.069699,-0.34107 v 0.8785 q -0.542601,0.30489 -1.183387,0.30489 -0.645953,0 -1.074866,-0.37724 -0.134359,-0.11368 -0.222208,-0.25321 -0.08785,-0.14469 -0.149861,-0.37207 -0.05684,-0.23254 -0.05684,-0.87849 v -2.1084 h -0.826821 z" />
      <path
         id="path2366"
         style="font-style:normal;font-variant:normal;font-weight:normal;font-stretch:normal;font-family:'Gill Sans MT';-inkscape-font-specification:'Gill Sans MT';stroke-width:0.264583"
         d="m 97.64999,101.61322 q 1.085201,0 1.803501,0.70279 0.718299,0.69763 0.718299,1.757 0,1.02836 -0.728634,1.71048 -0.728635,0.67696 -1.834507,0.67696 -1.069699,0 -1.787999,-0.68729 -0.7183,-0.69246 -0.7183,-1.72599 0,-1.04386 0.723467,-1.73632 0.728636,-0.69763 1.824173,-0.69763 z m -0.05168,0.84749 q -0.676959,0 -1.111039,0.44441 -0.434081,0.44442 -0.434081,1.13171 0,0.68213 0.444416,1.11621 0.444416,0.42891 1.142045,0.42891 0.692462,0 1.131711,-0.43408 0.444416,-0.43924 0.444416,-1.12137 0,-0.67696 -0.459919,-1.12138 -0.459919,-0.44441 -1.157549,-0.44441 z" />
      <path
         id="path2368"
         style="font-style:normal;font-variant:normal;font-weight:normal;font-stretch:normal;font-family:'Gill Sans MT';-inkscape-font-specification:'Gill Sans MT';stroke-width:0.264583"
         d="m 102.23367,101.62355 v 1.09037 l 0.0517,-0.0827 q 0.68212,-1.1007 1.36425,-1.1007 0.53227,0 1.11104,0.53743 l -0.49609,0.82682 q -0.49093,-0.46509 -0.9095,-0.46509 -0.45475,0 -0.79065,0.43408 -0.33073,0.43408 -0.33073,1.02836 v 2.48563 H 101.288 v -4.75422 z" />
      <path
         id="path2370"
         style="font-style:normal;font-variant:normal;font-weight:normal;font-stretch:normal;font-family:'Gill Sans MT';-inkscape-font-specification:'Gill Sans MT';stroke-width:0.264583"
         d="m 108.65445,101.62355 h 1.05936 l -3.36412,7.17784 h -1.04903 l 1.61747,-3.44164 -1.83968,-3.7362 h 1.0697 l 1.28157,2.682 z" />
    </g>
  </g>
</svg>
