<?xml version="1.0" encoding="UTF-8" standalone="no"?>
<svg
   xmlns:dc="http://purl.org/dc/elements/1.1/"
   xmlns:cc="http://creativecommons.org/ns#"
   xmlns:rdf="http://www.w3.org/1999/02/22-rdf-syntax-ns#"
   xmlns:svg="http://www.w3.org/2000/svg"
   xmlns="http://www.w3.org/2000/svg"
   xmlns:sodipodi="http://sodipodi.sourceforge.net/DTD/sodipodi-0.dtd"
   xmlns:inkscape="http://www.inkscape.org/namespaces/inkscape"
   sodipodi:docname="impotentfury.svg"
   inkscape:version="1.0 (4035a4fb49, 2020-05-01)"
   id="svg1128"
   version="1.1"
   viewBox="0 0 749.92352 79.500717"
   height="79.500717mm"
   width="749.92352mm">
  <defs
     id="defs1122" />
  <sodipodi:namedview
     inkscape:window-maximized="0"
     inkscape:window-y="32"
     inkscape:window-x="1103"
     inkscape:window-height="1032"
     inkscape:window-width="1274"
     fit-margin-bottom="0"
     fit-margin-right="0"
     fit-margin-left="0"
     fit-margin-top="0"
     showgrid="false"
     inkscape:document-rotation="0"
     inkscape:current-layer="layer1"
     inkscape:document-units="mm"
     inkscape:cy="1053.138"
     inkscape:cx="1816.1018"
     inkscape:zoom="0.12374369"
     inkscape:pageshadow="2"
     inkscape:pageopacity="0.0"
     borderopacity="1.0"
     bordercolor="#666666"
     pagecolor="#ffffff"
     id="base" />
  <metadata
     id="metadata1125">
    <rdf:RDF>
      <cc:Work
         rdf:about="">
        <dc:format>image/svg+xml</dc:format>
        <dc:type
           rdf:resource="http://purl.org/dc/dcmitype/StillImage" />
        <dc:title></dc:title>
      </cc:Work>
    </rdf:RDF>
  </metadata>
  <g
     transform="translate(289.53914,-22.993689)"
     id="layer1"
     inkscape:groupmode="layer"
     inkscape:label="Layer 1">
    <g
       style="font-size:71.1639px;line-height:1.25;font-family:lego;-inkscape-font-specification:lego;letter-spacing:0.529167px;word-spacing:0px;opacity:1;stroke-width:1.33433"
       id="text1044"
       aria-label="The Impotent Fury of the Privileged">
      <path
         id="path1699"
         style="font-style:normal;font-variant:normal;font-weight:normal;font-stretch:normal;font-size:71.1639px;font-family:'High Fiber';-inkscape-font-specification:'High Fiber';stroke:#000000;stroke-width:1.33433"
         d="m -268.48185,27.419232 q -0.59071,0.729708 -1.35517,0.451724 -0.7992,-0.208488 -1.56366,-0.451724 -0.8687,0.243236 -3.78753,0.17374 -2.25862,-0.312732 -3.19682,0.833952 0.41698,9.451456 0.41698,42.983275 0.52122,1.702652 0.52122,9.90318 -1.35517,0.764456 -2.50186,0.34748 0.8687,-14.59416 0.8687,-25.400787 -0.31273,-4.760476 -0.31273,-13.308484 -1.04244,-9.242968 -1.04244,-13.655964 -0.20849,-1.424668 -1.94589,-1.424668 -2.39761,0 -2.67559,-0.0695 -0.8687,0.416976 -2.22388,0.416976 -1.91114,0 -2.08488,-0.17374 -0.17374,-0.17374 -0.17374,-1.528912 1.91114,-0.938196 5.83767,-0.938196 4.55199,-0.277984 6.04615,-0.764456 1.70265,0.138992 8.7565,0.138992 0.55596,0.903448 0.55596,1.56366 0,0.34748 -0.13899,0.903448 z" />
      <path
         id="path1701"
         style="font-style:normal;font-variant:normal;font-weight:normal;font-stretch:normal;font-size:71.1639px;font-family:'High Fiber';-inkscape-font-specification:'High Fiber';stroke:#000000;stroke-width:1.33433"
         d="m -248.59805,68.004895 q -0.38222,9.520952 -0.31273,11.46684 -0.41697,0.486472 -1.35517,0.34748 -1.11194,-0.208488 -1.70265,-0.729708 1.07719,-12.717768 1.07719,-21.265775 -0.48648,-1.702652 -0.55597,-1.91114 -0.52122,-1.007692 -1.42467,-1.494164 -4.79522,2.050132 -8.20053,9.034479 -0.20849,3.613792 0.9382,13.516972 -0.13899,0.208488 -0.13899,1.841644 0,1.146684 -0.79921,1.21618 -0.90345,0.34748 -1.32042,-0.451724 -0.38223,-0.764456 -0.72971,-1.459416 -0.7992,-17.512991 -0.7992,-53.372927 -0.62547,-0.590716 0.13899,-0.590716 0.7992,-0.138992 1.21618,0.277984 0.59071,8.131032 0.59071,24.84482 1.04244,1.285676 0.90345,3.99602 0,3.057824 0.20849,4.204508 0.72971,-0.208488 1.45942,-1.285676 0.76445,-1.077188 1.32042,-1.424668 3.99602,-2.849336 5.69867,-2.849336 1.00769,0 1.91114,0.555968 2.15438,2.501856 2.15438,7.053844 0,1.285676 -0.13899,4.169759 -0.139,2.884084 -0.139,4.308752 z" />
      <path
         id="path1703"
         style="font-style:normal;font-variant:normal;font-weight:normal;font-stretch:normal;font-size:71.1639px;font-family:'High Fiber';-inkscape-font-specification:'High Fiber';stroke:#000000;stroke-width:1.33433"
         d="m -225.96915,73.981551 q -2.98833,5.837664 -8.44377,6.741112 -6.11564,0.0695 -9.10397,-9.242968 -1.42467,-4.3435 -1.42467,-8.548007 0,-8.16578 5.17745,-11.81432 2.98833,-1.250928 6.63687,-0.69496 1.56366,1.077188 4.16976,5.490184 0,0.34748 0,4.3435 0.13899,2.6061 -0.62546,3.961271 -1.07719,-0.208488 -2.05014,-0.208488 -2.22387,0 -5.28169,1.007692 -3.4748,0.972944 -5.17745,1.146684 0.83395,9.451456 6.8801,11.953312 3.99602,0 6.63687,-4.135012 -0.38223,-1.007692 1.35517,-1.772148 0.48647,0 0.69496,0.625464 0.41698,1.077188 0.55597,1.146684 z m -5.66393,-12.405035 q 0.55597,-0.972944 0.55597,-2.467108 0,-2.849336 -1.63315,-5.073208 -0.79921,-1.355172 -2.91884,-1.355172 -1.14668,0 -3.19681,0.52122 -3.85703,3.4748 -3.85703,8.026788 0,1.077188 0.20849,2.084879 1.14668,-0.138991 5.35119,-1.146683 3.19682,-0.799204 5.49018,-0.590716 z" />
      <path
         id="path1705"
         style="font-style:normal;font-variant:normal;font-weight:normal;font-stretch:normal;font-size:71.1639px;font-family:'High Fiber';-inkscape-font-specification:'High Fiber';stroke:#000000;stroke-width:1.33433"
         d="m -176.4721,77.317359 q -0.59072,0.34748 -0.59072,1.355172 0,1.007692 -0.41698,1.355172 -2.43236,0.34748 -5.1427,0.34748 -3.33581,0 -8.82599,-0.555968 -6.46313,-0.590716 -8.79125,-0.729708 -1.14668,-0.277984 -0.38222,-1.91114 0.59071,-0.416976 1.21618,-0.416976 0.34748,0 1.6679,0.312732 1.32042,0.312732 2.05013,0.243236 0.62547,-0.34748 1.98064,-0.138992 1.63315,0.208488 2.05013,0 0.7992,-0.34748 0.59072,-1.772148 0.20848,-4.135012 0.20848,-8.825992 0,-5.003711 0,-17.096015 -1.00769,-10.806628 -1.00769,-16.713788 0,-1.772148 -0.20849,-3.613792 -0.20848,-1.876392 -1.14668,-2.710344 -2.98833,0 -8.09628,-0.729708 -0.34748,-0.555968 -0.0695,-1.285676 0.0695,-0.764456 0.76446,-0.625464 13.8992,0.799204 20.8488,-0.486472 0,-0.312732 0,1.841644 0,0.938196 -0.69496,1.355172 -0.72971,-0.416976 -3.19682,0.138992 -2.15438,-0.138992 -6.25464,0.34748 -0.10424,7.47082 -0.10424,20.15384 1.21618,14.07294 1.21618,19.771611 0,5.629176 -0.34748,10.389652 0.48647,0.555968 1.28567,0.416976 1.70265,-0.0695 1.35517,-0.0695 0.55597,0 2.25862,0.17374 1.70266,0.138992 2.64085,0.138992 2.84934,0 4.20451,-1.598408 0.69496,0.243236 0.9382,0.938196 z" />
      <path
         id="path1707"
         style="font-style:normal;font-variant:normal;font-weight:normal;font-stretch:normal;font-size:71.1639px;font-family:'High Fiber';-inkscape-font-specification:'High Fiber';stroke:#000000;stroke-width:1.33433"
         d="m -146.89361,67.726911 q 0.0695,2.25862 -0.38223,5.837664 -0.55597,3.961272 -0.55597,5.524932 -0.93819,0.938196 -1.84164,0.729708 l -0.7992,-1.146684 2.08487,-21.786995 q -0.52122,-1.21618 -1.70265,-2.849336 -4.2045,-0.0695 -6.84535,4.725728 0,0.69496 -1.11194,1.320424 -1.11193,0.590716 -1.32042,1.077188 -0.97295,5.698671 -0.41698,7.262331 -0.20849,3.544296 -0.20849,11.049864 -0.59071,1.04244 -2.29336,0.138992 0,-0.799204 0,-11.327848 0.27798,-6.532623 1.14668,-11.258351 0.27798,-1.841644 -0.9382,-2.988328 -4.48249,3.787532 -6.9496,8.478512 0.139,2.640847 -0.66021,10.598139 0.0695,0 1.14669,5.698672 -0.34748,0.555968 -1.14669,0.277984 -0.90345,-0.208488 -1.11193,-0.0695 l -0.8687,-0.764456 q 0.55596,-13.829704 -0.55597,-26.130495 1.11193,-1.91114 2.39761,-0.555968 0,2.77984 0.7992,6.046152 1.28568,-0.416976 3.96128,-3.857028 2.43236,-3.196816 3.57904,-3.196816 1.35517,0 2.91883,5.2122 4.27401,-3.718036 8.09629,-3.718036 1.14668,0 2.15437,0.208488 2.18912,2.293368 2.18912,5.90716 0,1.355172 -0.45172,4.586736 -0.45172,3.231563 -0.31273,4.968963 z" />
      <path
         id="path1709"
         style="font-style:normal;font-variant:normal;font-weight:normal;font-stretch:normal;font-size:71.1639px;font-family:'High Fiber';-inkscape-font-specification:'High Fiber';stroke:#000000;stroke-width:1.33433"
         d="m -120.33819,61.15954 q 0.48647,1.772148 0,4.760475 -0.31273,3.509548 -0.31273,4.656232 -1.25093,4.239256 -1.49416,4.829972 -1.32043,2.467108 -3.96128,2.710344 -1.14668,0.208488 -2.29336,0.208488 -1.84165,0 -3.96128,-0.660212 -2.08488,-0.69496 -3.99602,-1.424668 -0.48647,0.590716 -0.48647,1.285676 0,0.34748 0.34748,1.494164 0.34748,1.146684 0.13899,1.772148 -0.20848,10.25066 0.90345,20.779301 -0.83395,1.14669 -2.18912,0.8687 l -0.9382,-1.00769 q 0.31273,-5.663923 0.31273,-16.296811 -1.14668,-11.223604 -1.14668,-16.713788 0.62546,-1.841644 0.62546,-4.135012 0,-1.563659 -0.45172,-4.690979 -0.45172,-3.12732 -0.45172,-4.69098 0,-2.293368 0.69496,-4.135012 0.7297,0 1.70265,0.416976 0.45172,0.729708 0.20849,2.43236 -0.20849,1.702652 0.24323,2.501856 2.25862,-1.355172 4.69098,-2.640848 2.84934,-1.424668 4.96897,-1.424668 1.98063,0 3.78753,1.146684 2.74509,1.772148 3.05782,7.957292 z m -3.99602,-5.246948 q -1.56366,-1.355172 -3.4053,-1.355172 -1.94589,0 -4.413,1.56366 -2.08488,1.355172 -4.13501,2.77984 -0.41698,13.516971 -0.41698,13.864451 5.24695,3.266312 8.37427,3.266312 2.01539,0 3.44005,-0.972944 2.25862,-6.0809 2.25862,-11.188856 0,-4.412995 -1.70265,-7.957291 z" />
      <path
         id="path1711"
         style="font-style:normal;font-variant:normal;font-weight:normal;font-stretch:normal;font-size:71.1639px;font-family:'High Fiber';-inkscape-font-specification:'High Fiber';stroke:#000000;stroke-width:1.33433"
         d="m -101.39258,55.669356 q 1.911137,3.99602 1.911137,9.208219 0,6.532624 -2.675597,12.092304 -1.87639,3.82228 -8.7565,3.057824 -4.55198,-3.196816 -5.49018,-7.401324 -0.69496,-8.061536 4.3435,-17.860471 2.29337,-2.501856 4.413,-2.501856 0.55596,0 1.14668,0.208488 3.96127,0.938196 5.10796,3.196816 z m -2.64085,0.938196 q -0.62547,-0.69496 -2.11963,-1.077188 -1.91114,-0.34748 -2.29337,-0.555968 l -2.67559,2.988328 q -2.64085,5.107956 -2.64085,10.598139 0,2.154376 0.41697,4.551988 0.79921,3.64854 4.3435,4.621484 0.55597,0.243236 1.14669,0.243236 1.49416,0 3.4053,-2.154376 2.29337,-4.3435 2.29337,-10.042172 0,-5.107955 -1.87639,-9.173471 z" />
      <path
         id="path1713"
         style="font-style:normal;font-variant:normal;font-weight:normal;font-stretch:normal;font-size:71.1639px;font-family:'High Fiber';-inkscape-font-specification:'High Fiber';stroke:#000000;stroke-width:1.33433"
         d="m -76.800436,77.734335 q -2.293368,1.494164 -6.497876,1.494164 -1.146684,-0.34748 -4.899468,-2.988328 -2.432359,-11.81432 -1.841644,-19.041903 -0.243235,-1.528912 -0.799203,-3.787532 -0.555968,0 -1.980636,0.277984 -1.424668,0.277984 -2.154376,0.277984 -1.424668,0 -2.467108,-1.04244 0.34748,-1.56366 2.189124,-1.806896 1.424668,0 3.057824,0 1.494164,-0.138992 1.91114,-1.250928 0.799203,-11.258352 0.799203,-26.061 1.285676,-1.285676 2.43236,0.208488 0.208488,1.841644 0.208488,3.857028 0,2.849336 -0.416976,8.721748 -0.382228,5.872412 -0.382228,8.86074 0,2.467108 0.0695,4.760476 1.424668,0.972944 4.551988,0.764456 3.787532,-0.34748 4.934216,0.138992 0.69496,1.56366 -0.590716,2.362864 -2.849336,0 -8.548008,0 l -0.34748,0.34748 q -0.416976,11.049863 1.633156,21.057287 2.362864,2.43236 6.845356,1.146684 1.21618,-1.494164 2.119628,-0.903448 0.799204,0.903448 0.17374,2.6061 z" />
      <path
         id="path1715"
         style="font-style:normal;font-variant:normal;font-weight:normal;font-stretch:normal;font-size:71.1639px;font-family:'High Fiber';-inkscape-font-specification:'High Fiber';stroke:#000000;stroke-width:1.33433"
         d="m -55.352968,73.981551 q -2.988328,5.837664 -8.443764,6.741112 -6.115648,0.0695 -9.103976,-9.242968 -1.424668,-4.3435 -1.424668,-8.548007 0,-8.16578 5.177452,-11.81432 2.988328,-1.250928 6.636868,-0.69496 1.56366,1.077188 4.16976,5.490184 0,0.34748 0,4.3435 0.138992,2.6061 -0.625464,3.961271 -1.077188,-0.208488 -2.050132,-0.208488 -2.223872,0 -5.281696,1.007692 -3.4748,0.972944 -5.177452,1.146684 0.833952,9.451456 6.880104,11.953312 3.99602,0 6.636868,-4.135012 -0.382228,-1.007692 1.355172,-1.772148 0.486472,0 0.69496,0.625464 0.416976,1.077188 0.555968,1.146684 z m -5.663924,-12.405035 q 0.555968,-0.972944 0.555968,-2.467108 0,-2.849336 -1.633156,-5.073208 -0.799204,-1.355172 -2.918832,-1.355172 -1.146684,0 -3.196816,0.52122 -3.857028,3.4748 -3.857028,8.026788 0,1.077188 0.208488,2.084879 1.146684,-0.138991 5.351192,-1.146683 3.196816,-0.799204 5.490184,-0.590716 z" />
      <path
         id="path1717"
         style="font-style:normal;font-variant:normal;font-weight:normal;font-stretch:normal;font-size:71.1639px;font-family:'High Fiber';-inkscape-font-specification:'High Fiber';stroke:#000000;stroke-width:1.33433"
         d="m -34.652582,64.008875 q -0.312732,4.829972 -0.312732,14.24668 -0.0695,0.764456 -0.833952,0.764456 -0.729708,0 -1.285676,0 l -0.347479,-1.146684 q -0.208488,-2.745092 0.138992,-7.540316 0.347479,-5.524932 0.347479,-7.470819 0,-4.899468 -1.077187,-8.443764 0,-0.0695 -0.416976,-0.590716 -2.849336,0.938196 -5.629176,4.135012 -2.119628,2.710344 -4.204508,5.490183 0.243236,4.829972 1.876392,14.211932 -0.52122,0.208488 -0.729708,1.250928 -0.208488,1.04244 -1.007692,1.111936 -1.494164,0 -1.702652,-0.208488 0.208488,-4.934216 -0.416976,-13.864452 -0.625464,-8.930235 -0.625464,-13.829703 2.189124,-1.702652 2.849336,0.138992 0,2.154376 -0.451724,6.25464 l 0.34748,0.382228 q 3.64854,-4.274004 4.412996,-4.934216 2.849336,-2.6061 5.629176,-2.6061 0.660212,0 1.424667,0.208488 1.633156,2.189124 1.633156,5.90716 0.382228,3.335808 0.382228,6.532623 z" />
      <path
         id="path1719"
         style="font-style:normal;font-variant:normal;font-weight:normal;font-stretch:normal;font-size:71.1639px;font-family:'High Fiber';-inkscape-font-specification:'High Fiber';stroke:#000000;stroke-width:1.33433"
         d="m -9.8345697,77.734335 q -2.2933683,1.494164 -6.4978763,1.494164 -1.146684,-0.34748 -4.899467,-2.988328 -2.43236,-11.81432 -1.841644,-19.041903 -0.243236,-1.528912 -0.799204,-3.787532 -0.555968,0 -1.980636,0.277984 -1.424668,0.277984 -2.154376,0.277984 -1.424668,0 -2.467108,-1.04244 0.34748,-1.56366 2.189124,-1.806896 1.424668,0 3.057824,0 1.494164,-0.138992 1.91114,-1.250928 0.799204,-11.258352 0.799204,-26.061 1.285676,-1.285676 2.43236,0.208488 0.208488,1.841644 0.208488,3.857028 0,2.849336 -0.416976,8.721748 -0.382228,5.872412 -0.382228,8.86074 0,2.467108 0.0695,4.760476 1.424667,0.972944 4.551987,0.764456 3.787532,-0.34748 4.934216,0.138992 0.69496,1.56366 -0.590716,2.362864 -2.849336,0 -8.548007,0 l -0.34748,0.34748 q -0.416976,11.049863 1.633155,21.057287 2.362864,2.43236 6.845356,1.146684 1.21618,-1.494164 2.119628,-0.903448 0.7992043,0.903448 0.1737403,2.6061 z" />
      <path
         id="path1721"
         style="font-style:normal;font-variant:normal;font-weight:normal;font-stretch:normal;font-size:71.1639px;font-family:'High Fiber';-inkscape-font-specification:'High Fiber';stroke:#000000;stroke-width:1.33433"
         d="m 37.820822,25.299604 q 0,0.625464 -0.34748,2.571352 -1.702652,0.34748 -3.613792,0.34748 -2.501856,0 -7.192836,-0.625464 -5.003712,-0.729708 -7.12334,-0.729708 0.277984,1.702652 -0.277984,4.968964 1.494164,7.192836 1.494164,14.038192 0,0.34748 -0.0695,2.988328 0,1.91114 1.424668,1.91114 2.189124,0.416976 5.837664,0.416976 5.663924,0 6.011404,0.17374 0.382228,0.138992 0.382228,0.555968 0,0.208488 -0.243236,0.8687 -0.243236,0.625464 -0.243236,0.833952 0,0.34748 0.138992,0.416976 -11.744824,-0.764456 -13.099996,-0.625464 0,2.849336 -0.555968,8.443764 -0.52122,5.559679 -0.52122,8.409015 0,2.501856 0.277984,4.795224 -0.34748,0.208488 -0.34748,0.555968 0,0.208488 0.34748,0.764456 0.208488,0.590716 0,0.938196 0.208488,2.362864 -1.04244,3.4748 -0.243236,0 -1.806896,-0.764456 -0.138992,-1.702652 0.138992,-4.586736 0.312732,-2.884084 0.312732,-4.030768 0,-1.424668 -0.243236,-2.640848 1.146684,-6.602119 1.146684,-14.420419 0,-4.482492 -1.702652,-27.346676 -0.208488,-0.833952 -0.555968,-1.633156 -0.208488,-0.938196 0.208488,-1.355172 0.416976,-0.416976 1.007692,-0.416976 0.833952,0 2.571352,0.69496 1.7374,0.660212 2.675596,0.52122 3.544296,-0.208488 7.192836,0.764456 2.640848,-0.277984 7.8183,-0.277984 z" />
      <path
         id="path1723"
         style="font-style:normal;font-variant:normal;font-weight:normal;font-stretch:normal;font-size:71.1639px;font-family:'High Fiber';-inkscape-font-specification:'High Fiber';stroke:#000000;stroke-width:1.33433"
         d="m 54.368839,72.626379 q 0.729708,5.107956 0.729708,4.760476 0,1.702652 -0.799204,2.640848 -1.841644,-0.208488 -2.050132,-2.362864 0,-1.702652 0,-3.544296 -0.138992,-1.285676 -0.69496,-1.841644 -1.424668,2.050132 -2.918832,4.274004 -1.7374,2.467108 -3.99602,2.467108 -0.799204,0 -1.633156,-0.34748 -2.293368,-0.416976 -3.857028,-2.640848 -0.903448,-8.374268 0.729708,-24.462591 0.555968,-0.451724 1.21618,-0.451724 0.903448,0 1.007692,0.8687 0.104244,0.8687 0.104244,1.772148 0,1.702652 -0.69496,5.177452 -0.660212,3.440052 -0.660212,5.281695 0,1.702652 0.451724,3.266312 -0.660212,4.795224 0.555968,7.64456 1.633156,1.424668 3.99602,0.833952 3.752784,-3.752784 4.69098,-10.59814 0.34748,-5.907159 0.34748,-11.953311 0.660212,-1.494164 1.56366,-1.702652 1.146684,0 1.494164,1.21618 0.138992,2.189124 -0.138992,6.289388 -0.277984,4.100263 -0.277984,6.011403 0,4.204508 0.833952,7.401324 z" />
      <path
         id="path1725"
         style="font-style:normal;font-variant:normal;font-weight:normal;font-stretch:normal;font-size:71.1639px;font-family:'High Fiber';-inkscape-font-specification:'High Fiber';stroke:#000000;stroke-width:1.33433"
         d="m 78.422402,55.912592 q -0.138992,0.903448 -0.972944,1.56366 -1.285676,-0.277984 -2.43236,-0.277984 -3.857028,0 -6.845355,3.613792 -0.416976,1.21618 -3.266312,5.177451 0.590716,2.571352 0.277984,6.845356 -0.277984,5.420688 -0.208488,6.984348 -0.764456,1.285676 -2.710344,0.138992 0.590716,-4.482492 0.590716,-9.103976 0,-8.548007 -1.841644,-18.729171 0.486472,-0.625464 1.320424,-0.625464 1.667904,0 1.528912,1.56366 0.486472,4.135012 1.111936,7.748804 1.146684,-1.633156 3.926524,-3.787532 2.849335,-2.849336 7.679307,-2.25862 1.633156,0 1.841644,1.146684 z" />
      <path
         id="path1727"
         style="font-style:normal;font-variant:normal;font-weight:normal;font-stretch:normal;font-size:71.1639px;font-family:'High Fiber';-inkscape-font-specification:'High Fiber';stroke:#000000;stroke-width:1.33433"
         d="m 101.85046,52.055564 q -1.35517,1.980636 -2.640844,5.55968 -1.841644,5.316444 -2.119628,5.907159 -1.494164,4.135012 -5.073208,11.953312 l 0.34748,3.613792 q -1.91114,1.424668 -2.814588,4.3435 -1.494164,4.135012 -1.876392,4.69098 -0.764456,3.231564 -2.328116,5.003712 -0.799204,0.208488 -2.745092,1.04244 -1.945888,0.8687 -2.95358,0.8687 -0.938196,0 -1.633156,-0.277984 -0.277984,-0.590716 0,-1.424668 0.486472,-0.799204 1.146684,-0.799204 2.6061,-0.208488 4.482492,-1.772148 2.814588,-5.246948 5.177452,-13.447476 -1.355172,-4.135012 -2.849336,-8.096284 -1.702652,-4.934216 -1.702652,-8.617503 -0.555968,-1.424668 -0.69496,-4.204508 -0.104244,-2.77984 -0.451724,-3.787532 0.34748,-0.555968 2.223872,-0.555968 0.625464,0.555968 0.555968,1.980636 0,1.876392 0,2.223872 1.56366,11.154107 4.621484,16.505299 H 90.8006 q 1.945888,-4.482492 8.409016,-21.196279 0.555968,-0.451724 1.355174,-0.451724 1.07719,0 1.28567,0.938196 z" />
      <path
         id="path1729"
         style="font-style:normal;font-variant:normal;font-weight:normal;font-stretch:normal;font-size:71.1639px;font-family:'High Fiber';-inkscape-font-specification:'High Fiber';stroke:#000000;stroke-width:1.33433"
         d="m 141.96559,55.669356 q 1.91114,3.99602 1.91114,9.208219 0,6.532624 -2.6756,12.092304 -1.87639,3.82228 -8.7565,3.057824 -4.55198,-3.196816 -5.49018,-7.401324 -0.69496,-8.061536 4.3435,-17.860471 2.29337,-2.501856 4.413,-2.501856 0.55596,0 1.14668,0.208488 3.96127,0.938196 5.10796,3.196816 z m -2.64085,0.938196 q -0.62547,-0.69496 -2.11963,-1.077188 -1.91114,-0.34748 -2.29337,-0.555968 l -2.67559,2.988328 q -2.64085,5.107956 -2.64085,10.598139 0,2.154376 0.41697,4.551988 0.79921,3.64854 4.3435,4.621484 0.55597,0.243236 1.14669,0.243236 1.49416,0 3.4053,-2.154376 2.29337,-4.3435 2.29337,-10.042172 0,-5.107955 -1.87639,-9.173471 z" />
      <path
         id="path1731"
         style="font-style:normal;font-variant:normal;font-weight:normal;font-stretch:normal;font-size:71.1639px;font-family:'High Fiber';-inkscape-font-specification:'High Fiber';stroke:#000000;stroke-width:1.33433"
         d="m 171.00547,36.106232 q 0,0.799204 -0.90345,1.772148 -1.70265,0.243236 -1.77215,-1.56366 -0.31273,-2.814588 -0.38223,-3.057824 -1.11193,-2.189124 -2.18912,-4.3435 -1.56366,-2.467108 -3.99602,-2.467108 -4.55199,0.208488 -5.97665,3.683288 -1.49417,6.185144 -1.49417,15.393364 0.20849,1.702652 0.59072,5.107956 1.56366,0.486472 4.86472,0.243236 3.30106,-0.243236 4.79522,0.243236 l 0.34748,1.146684 q 0.20849,0.799204 -0.55597,0.938196 -7.54031,-0.729708 -9.83368,0.625464 -0.13899,6.845356 -0.13899,19.875855 0.34748,0.416976 0.34748,3.4748 0,2.189124 -0.76446,3.335808 -2.05013,-0.277984 -2.05013,-1.841644 0,-0.69496 0.45172,-2.25862 0.45173,-1.598408 0.45173,-2.501856 0,-0.729708 -0.20849,-1.285676 -0.20849,-2.918832 -0.20849,-9.312464 0,-6.428379 -0.27798,-9.347211 -0.45173,-0.208488 -1.14669,-0.208488 -0.41697,0 -1.49416,0.208488 -1.07719,0.208488 -1.56366,0.208488 -1.14668,0 -1.77215,-0.764456 -0.13899,-1.494164 1.28568,-1.667904 1.42467,-0.17374 2.74509,-0.382228 2.08488,0.34748 2.18912,-1.04244 0.10425,-1.38992 0.10425,-2.95358 0,-1.56366 -0.17374,-4.968964 -0.17374,-3.440052 -0.17374,-5.142704 0,-11.084612 7.88779,-13.37798 0.62547,-0.208488 1.35518,-0.208488 1.49416,0 3.05782,1.146684 2.64085,1.633156 2.98833,1.702652 2.64084,5.316444 3.61379,9.590448 z" />
      <path
         id="path1733"
         style="font-style:normal;font-variant:normal;font-weight:normal;font-stretch:normal;font-size:71.1639px;font-family:'High Fiber';-inkscape-font-specification:'High Fiber';stroke:#000000;stroke-width:1.33433"
         d="m 214.50848,77.734335 q -2.29337,1.494164 -6.49788,1.494164 -1.14668,-0.34748 -4.89947,-2.988328 -2.43236,-11.81432 -1.84164,-19.041903 -0.24324,-1.528912 -0.7992,-3.787532 -0.55597,0 -1.98064,0.277984 -1.42467,0.277984 -2.15438,0.277984 -1.42466,0 -2.4671,-1.04244 0.34748,-1.56366 2.18912,-1.806896 1.42467,0 3.05782,0 1.49417,-0.138992 1.91114,-1.250928 0.79921,-11.258352 0.79921,-26.061 1.28567,-1.285676 2.43236,0.208488 0.20849,1.841644 0.20849,3.857028 0,2.849336 -0.41698,8.721748 -0.38223,5.872412 -0.38223,8.86074 0,2.467108 0.0695,4.760476 1.42467,0.972944 4.55199,0.764456 3.78753,-0.34748 4.93421,0.138992 0.69496,1.56366 -0.59071,2.362864 -2.84934,0 -8.54801,0 l -0.34748,0.34748 q -0.41698,11.049863 1.63315,21.057287 2.36287,2.43236 6.84536,1.146684 1.21618,-1.494164 2.11963,-0.903448 0.7992,0.903448 0.17374,2.6061 z" />
      <path
         id="path1735"
         style="font-style:normal;font-variant:normal;font-weight:normal;font-stretch:normal;font-size:71.1639px;font-family:'High Fiber';-inkscape-font-specification:'High Fiber';stroke:#000000;stroke-width:1.33433"
         d="m 234.80927,68.004895 q -0.38223,9.520952 -0.31273,11.46684 -0.41698,0.486472 -1.35518,0.34748 -1.11193,-0.208488 -1.70265,-0.729708 1.07719,-12.717768 1.07719,-21.265775 -0.48647,-1.702652 -0.55597,-1.91114 -0.52122,-1.007692 -1.42467,-1.494164 -4.79522,2.050132 -8.20052,9.034479 -0.20849,3.613792 0.93819,13.516972 -0.13899,0.208488 -0.13899,1.841644 0,1.146684 -0.7992,1.21618 -0.90345,0.34748 -1.32043,-0.451724 -0.38222,-0.764456 -0.7297,-1.459416 -0.79921,-17.512991 -0.79921,-53.372927 -0.62546,-0.590716 0.13899,-0.590716 0.79921,-0.138992 1.21618,0.277984 0.59072,8.131032 0.59072,24.84482 1.04244,1.285676 0.90345,3.99602 0,3.057824 0.20848,4.204508 0.72971,-0.208488 1.45942,-1.285676 0.76446,-1.077188 1.32042,-1.424668 3.99602,-2.849336 5.69868,-2.849336 1.00769,0 1.91114,0.555968 2.15437,2.501856 2.15437,7.053844 0,1.285676 -0.13899,4.169759 -0.13899,2.884084 -0.13899,4.308752 z" />
      <path
         id="path1737"
         style="font-style:normal;font-variant:normal;font-weight:normal;font-stretch:normal;font-size:71.1639px;font-family:'High Fiber';-inkscape-font-specification:'High Fiber';stroke:#000000;stroke-width:1.33433"
         d="m 257.43814,73.981551 q -2.98833,5.837664 -8.44377,6.741112 -6.11564,0.0695 -9.10397,-9.242968 -1.42467,-4.3435 -1.42467,-8.548007 0,-8.16578 5.17745,-11.81432 2.98833,-1.250928 6.63687,-0.69496 1.56366,1.077188 4.16976,5.490184 0,0.34748 0,4.3435 0.13899,2.6061 -0.62546,3.961271 -1.07719,-0.208488 -2.05014,-0.208488 -2.22387,0 -5.28169,1.007692 -3.4748,0.972944 -5.17745,1.146684 0.83395,9.451456 6.8801,11.953312 3.99602,0 6.63687,-4.135012 -0.38223,-1.007692 1.35517,-1.772148 0.48647,0 0.69496,0.625464 0.41698,1.077188 0.55597,1.146684 z m -5.66393,-12.405035 q 0.55597,-0.972944 0.55597,-2.467108 0,-2.849336 -1.63315,-5.073208 -0.79921,-1.355172 -2.91883,-1.355172 -1.14669,0 -3.19682,0.52122 -3.85703,3.4748 -3.85703,8.026788 0,1.077188 0.20849,2.084879 1.14668,-0.138991 5.35119,-1.146683 3.19682,-0.799204 5.49018,-0.590716 z" />
      <path
         id="path1739"
         style="font-style:normal;font-variant:normal;font-weight:normal;font-stretch:normal;font-size:71.1639px;font-family:'High Fiber';-inkscape-font-specification:'High Fiber';stroke:#000000;stroke-width:1.33433"
         d="m 307.87339,35.61976 q 0.20848,1.355172 0.20848,2.640848 0,6.393632 -4.62148,13.308484 -1.84164,1.04244 -3.57904,2.189124 -2.11963,1.146684 -3.96127,1.146684 l -7.74881,0.8687 -0.7992,0.903448 q 0,0.208488 0,11.883815 0.55597,6.914852 0,11.81432 -0.13899,0 -0.66021,0.17374 -0.48648,0.17374 -0.83396,0.17374 -1.77214,-1.111936 -0.62546,-2.050132 0.55597,-6.845356 0.55597,-18.068959 -0.34748,-13.968696 -0.34748,-17.999464 0.34748,-6.77586 -0.52122,-15.184876 -1.11194,-1.494164 -0.62547,-2.050132 0.55597,-1.007692 1.70266,-1.007692 0.41697,0 1.63315,0.312732 1.21618,0.277984 1.84165,0.138992 2.08488,-0.590716 6.42838,1.04244 6.8106,0.660212 11.95331,9.764188 z m -2.50186,0.486472 q -2.18912,-4.899468 -7.60981,-7.12334 -4.69098,-1.91114 -10.38965,-1.38992 0,4.239256 0,12.787264 0.7992,2.293368 0.55597,6.532624 -0.20849,4.204508 0.13899,6.011404 9.34721,0.555968 13.8992,-3.440052 3.82228,-6.671616 3.82228,-10.528644 0,-1.424668 -0.41698,-2.849336 z" />
      <path
         id="path1741"
         style="font-style:normal;font-variant:normal;font-weight:normal;font-stretch:normal;font-size:71.1639px;font-family:'High Fiber';-inkscape-font-specification:'High Fiber';stroke:#000000;stroke-width:1.33433"
         d="m 326.08933,55.912592 q -0.13899,0.903448 -0.97294,1.56366 -1.28568,-0.277984 -2.43236,-0.277984 -3.85703,0 -6.84536,3.613792 -0.41697,1.21618 -3.26631,5.177451 0.59072,2.571352 0.27799,6.845356 -0.27799,5.420688 -0.20849,6.984348 -0.76446,1.285676 -2.71035,0.138992 0.59072,-4.482492 0.59072,-9.103976 0,-8.548007 -1.84164,-18.729171 0.48647,-0.625464 1.32042,-0.625464 1.6679,0 1.52891,1.56366 0.48647,4.135012 1.11194,7.748804 1.14668,-1.633156 3.92652,-3.787532 2.84934,-2.849336 7.67931,-2.25862 1.63316,0 1.84164,1.146684 z" />
      <path
         id="path1743"
         style="font-style:normal;font-variant:normal;font-weight:normal;font-stretch:normal;font-size:71.1639px;font-family:'High Fiber';-inkscape-font-specification:'High Fiber';stroke:#000000;stroke-width:1.33433"
         d="m 329.98905,44.862728 q 0.31273,1.56366 -0.90345,1.56366 -1.70265,-0.416976 -1.70265,-0.903448 -0.13899,-0.590716 0.31273,-0.799204 0.45172,-0.208488 0.8687,-0.555968 1.07719,0 1.42467,0.69496 z m 0.45172,33.010599 q -0.7992,1.007692 0,1.598408 -0.72971,-0.382228 -1.52891,-0.660212 -0.76446,-0.277984 -0.90345,-1.077188 0.27799,-6.463128 0.27799,-12.717768 0,-6.428379 0,-12.891507 2.01538,-0.938196 2.50185,0.138992 -0.34748,8.756496 -0.34748,25.609275 z" />
      <path
         id="path1745"
         style="font-style:normal;font-variant:normal;font-weight:normal;font-stretch:normal;font-size:71.1639px;font-family:'High Fiber';-inkscape-font-specification:'High Fiber';stroke:#000000;stroke-width:1.33433"
         d="m 351.40174,51.708084 q 0.20849,0.555968 0.20849,1.146684 0,0.764456 -0.8687,2.362864 -0.83396,1.598408 -0.62547,2.6061 -1.35517,3.057824 -3.26631,11.397343 -1.70265,7.540316 -3.85703,11.154108 -1.70265,-0.34748 -8.44376,-28.319619 1.04244,-1.077188 1.63315,-1.077188 0.76446,0 0.97295,1.945888 0.45172,2.25862 0.72971,2.745092 2.32811,7.992039 3.4053,15.462859 l 1.35517,3.335808 q 1.49417,-3.613792 3.26631,-10.806628 1.94589,-7.748803 3.19682,-11.049863 0.45172,-0.903448 2.29337,-0.903448 z" />
      <path
         id="path1747"
         style="font-style:normal;font-variant:normal;font-weight:normal;font-stretch:normal;font-size:71.1639px;font-family:'High Fiber';-inkscape-font-specification:'High Fiber';stroke:#000000;stroke-width:1.33433"
         d="m 356.7609,44.862728 q 0.31273,1.56366 -0.90345,1.56366 -1.70265,-0.416976 -1.70265,-0.903448 -0.13899,-0.590716 0.31273,-0.799204 0.45172,-0.208488 0.8687,-0.555968 1.07719,0 1.42467,0.69496 z m 0.45172,33.010599 q -0.7992,1.007692 0,1.598408 -0.72971,-0.382228 -1.52891,-0.660212 -0.76446,-0.277984 -0.90345,-1.077188 0.27799,-6.463128 0.27799,-12.717768 0,-6.428379 0,-12.891507 2.01538,-0.938196 2.50185,0.138992 -0.34748,8.756496 -0.34748,25.609275 z" />
      <path
         id="path1749"
         style="font-style:normal;font-variant:normal;font-weight:normal;font-stretch:normal;font-size:71.1639px;font-family:'High Fiber';-inkscape-font-specification:'High Fiber';stroke:#000000;stroke-width:1.33433"
         d="m 364.89985,38.260608 q 0.76446,22.342964 -0.24323,35.859935 0,0.764456 0.27798,2.328116 0.31273,1.528912 0.31273,2.08488 0,1.494164 -1.00769,2.25862 -0.69496,0 -1.42467,0 -0.76445,0 -0.83395,-0.764456 1.32043,-37.562587 1.32043,-51.600779 -0.76446,-1.146684 -1.04244,-2.25862 -0.20849,-1.424668 0.55596,-2.154376 2.01539,0 2.08488,0.938196 z" />
      <path
         id="path1751"
         style="font-style:normal;font-variant:normal;font-weight:normal;font-stretch:normal;font-size:71.1639px;font-family:'High Fiber';-inkscape-font-specification:'High Fiber';stroke:#000000;stroke-width:1.33433"
         d="m 389.26614,73.981551 q -2.98833,5.837664 -8.44376,6.741112 -6.11565,0.0695 -9.10398,-9.242968 -1.42467,-4.3435 -1.42467,-8.548007 0,-8.16578 5.17746,-11.81432 2.98832,-1.250928 6.63686,-0.69496 1.56366,1.077188 4.16976,5.490184 0,0.34748 0,4.3435 0.139,2.6061 -0.62546,3.961271 -1.07719,-0.208488 -2.05013,-0.208488 -2.22387,0 -5.2817,1.007692 -3.4748,0.972944 -5.17745,1.146684 0.83395,9.451456 6.8801,11.953312 3.99602,0 6.63687,-4.135012 -0.38223,-1.007692 1.35517,-1.772148 0.48648,0 0.69496,0.625464 0.41698,1.077188 0.55597,1.146684 z m -5.66392,-12.405035 q 0.55597,-0.972944 0.55597,-2.467108 0,-2.849336 -1.63316,-5.073208 -0.7992,-1.355172 -2.91883,-1.355172 -1.14669,0 -3.19682,0.52122 -3.85703,3.4748 -3.85703,8.026788 0,1.077188 0.20849,2.084879 1.14669,-0.138991 5.35119,-1.146683 3.19682,-0.799204 5.49019,-0.590716 z" />
      <path
         id="path1753"
         style="font-style:normal;font-variant:normal;font-weight:normal;font-stretch:normal;font-size:71.1639px;font-family:'High Fiber';-inkscape-font-specification:'High Fiber';stroke:#000000;stroke-width:1.33433"
         d="m 413.7367,65.155559 q 0,22.968428 -0.41697,27.763652 -0.20849,0.764456 -3.57905,6.046152 -2.05013,0.764456 -5.52493,1.494167 -4.76047,0.83395 -5.69867,1.11193 -0.34748,-0.34748 -2.22387,-0.83395 -4.76048,-2.154375 -4.76048,-7.262331 -0.90345,-1.007692 0.9382,-1.494164 1.14668,-0.208488 1.91114,2.050132 0.20849,3.787532 3.64854,4.934216 0.90345,0.0695 1.84164,0.0695 4.20451,0 8.37427,-2.015384 3.37056,-3.544296 3.37056,-10.806628 0,-1.285676 0,-4.829972 -0.34748,-2.918832 -0.20849,-4.551988 -1.28568,0.138992 -3.12732,1.667904 -1.8069,1.528912 -2.74509,1.91114 -0.90345,0.382228 -1.84165,0.382228 -1.11193,0 -2.91883,-0.833952 -2.18912,-0.938196 -3.05782,-1.146684 -2.05014,-1.702652 -2.84934,-4.899468 -0.27798,-0.799204 -0.90345,-5.90716 -0.34748,-2.640848 -0.34748,-4.934215 0,-8.304772 4.96897,-11.362596 2.57135,-0.729708 4.69098,-0.729708 4.69098,0 7.19283,2.988328 0.41698,-0.486472 0,-2.050132 -0.34748,-1.285676 1.00769,-1.494164 0.55597,0.208488 1.11194,0.382228 0.59072,0.17374 0.59072,0.764456 -0.41698,1.633156 -0.41698,3.405304 0,1.702652 0.48647,5.03846 0.48647,3.301059 0.48647,5.142703 z m -2.71034,7.957292 q 0.0695,-3.961272 0.0695,-7.957292 0,-4.829971 -1.35518,-7.679307 -1.91114,-4.274004 -6.8106,-4.274004 -2.08488,0 -3.99602,0.833952 -1.70266,1.633156 -2.22388,4.308752 -0.48647,2.675596 -0.97294,5.177451 1.28568,8.548008 1.28568,8.687 1.35517,4.621484 5.49018,5.524932 0.62546,0.382228 1.18143,0.382228 1.07719,0 2.11963,-0.764456 1.04244,-0.799204 2.01538,-1.528912 0.41698,-0.34748 1.49417,-1.702652 0.7992,-1.007692 1.70265,-1.007692 z" />
      <path
         id="path1755"
         style="font-style:normal;font-variant:normal;font-weight:normal;font-stretch:normal;font-size:71.1639px;font-family:'High Fiber';-inkscape-font-specification:'High Fiber';stroke:#000000;stroke-width:1.33433"
         d="m 438.69369,73.981551 q -2.98832,5.837664 -8.44376,6.741112 -6.11565,0.0695 -9.10398,-9.242968 -1.42466,-4.3435 -1.42466,-8.548007 0,-8.16578 5.17745,-11.81432 2.98833,-1.250928 6.63687,-0.69496 1.56366,1.077188 4.16976,5.490184 0,0.34748 0,4.3435 0.13899,2.6061 -0.62547,3.961271 -1.07719,-0.208488 -2.05013,-0.208488 -2.22387,0 -5.2817,1.007692 -3.4748,0.972944 -5.17745,1.146684 0.83395,9.451456 6.88011,11.953312 3.99602,0 6.63686,-4.135012 -0.38222,-1.007692 1.35517,-1.772148 0.48648,0 0.69496,0.625464 0.41698,1.077188 0.55597,1.146684 z m -5.66392,-12.405035 q 0.55597,-0.972944 0.55597,-2.467108 0,-2.849336 -1.63316,-5.073208 -0.7992,-1.355172 -2.91883,-1.355172 -1.14668,0 -3.19682,0.52122 -3.85702,3.4748 -3.85702,8.026788 0,1.077188 0.20848,2.084879 1.14669,-0.138991 5.3512,-1.146683 3.19681,-0.799204 5.49018,-0.590716 z" />
      <path
         id="path1757"
         style="font-style:normal;font-variant:normal;font-weight:normal;font-stretch:normal;font-size:71.1639px;font-family:'High Fiber';-inkscape-font-specification:'High Fiber';stroke:#000000;stroke-width:1.33433"
         d="m 460.38439,78.811523 q 0,0.0695 -0.69496,0.799204 -0.66021,0.764456 -1.21618,0.416976 -0.55597,-1.21618 -1.35517,-1.21618 -0.55597,0 -1.70265,0.69496 -1.14669,0.729708 -1.70266,0.8687 -2.43236,0.416976 -3.99602,0.416976 -3.19681,0 -5.03846,-1.702652 -3.26631,-3.961272 -3.26631,-11.223604 0,-9.903179 2.25862,-15.740843 1.56366,-2.501856 4.55199,-1.702652 1.91114,0.555968 4.06552,2.43236 1.84164,1.56366 3.68328,3.266312 0.24324,-0.34748 0.24324,-5.490184 0.55597,-4.621484 -0.0347,-13.690712 -0.55597,-9.069228 -0.55597,-13.343232 1.21618,-0.8687 2.36287,-0.486472 0.13899,11.710076 0.13899,23.315908 0.41698,13.8992 1.35517,23.559143 z m -3.26631,-4.3435 q -0.48647,-2.77984 -0.48647,-7.401324 -0.0695,-6.046151 -0.0348,-7.158087 0.0348,-1.146684 -0.97295,-1.38992 -1.35517,-0.138992 -1.63315,-0.555968 -1.77215,-3.405304 -7.26233,-5.490184 -0.76446,0.451724 -1.14669,1.494164 -0.41697,1.56366 -0.55597,1.702652 -1.14668,12.961003 -1.14668,11.814319 0,7.053844 3.57904,10.25066 1.98064,0.729708 5.52494,0.138992 2.84933,-1.320424 2.50185,-2.467108 0.13899,-0.590716 0.8687,-0.764456 0.76446,-0.17374 0.76446,-0.17374 z" />
    </g>
  </g>
</svg>
