<?xml version="1.0" encoding="UTF-8" standalone="no"?>
<svg
   xmlns:dc="http://purl.org/dc/elements/1.1/"
   xmlns:cc="http://creativecommons.org/ns#"
   xmlns:rdf="http://www.w3.org/1999/02/22-rdf-syntax-ns#"
   xmlns:svg="http://www.w3.org/2000/svg"
   xmlns="http://www.w3.org/2000/svg"
   xmlns:sodipodi="http://sodipodi.sourceforge.net/DTD/sodipodi-0.dtd"
   xmlns:inkscape="http://www.inkscape.org/namespaces/inkscape"
   sodipodi:docname="loverthinker.svg"
   inkscape:version="1.0 (4035a4fb49, 2020-05-01)"
   id="svg1070"
   version="1.1"
   viewBox="0 0 180.81303 10.2658"
   height="10.2658mm"
   width="180.81303mm">
  <defs
     id="defs1064" />
  <sodipodi:namedview
     inkscape:window-maximized="0"
     inkscape:window-y="46"
     inkscape:window-x="1893"
     inkscape:window-height="1032"
     inkscape:window-width="1274"
     fit-margin-bottom="0"
     fit-margin-right="0"
     fit-margin-left="0"
     fit-margin-top="0"
     showgrid="false"
     inkscape:document-rotation="0"
     inkscape:current-layer="layer1"
     inkscape:document-units="mm"
     inkscape:cy="153.68562"
     inkscape:cx="327.4082"
     inkscape:zoom="0.35"
     inkscape:pageshadow="2"
     inkscape:pageopacity="0.0"
     borderopacity="1.0"
     bordercolor="#666666"
     pagecolor="#ffffff"
     id="base" />
  <metadata
     id="metadata1067">
    <rdf:RDF>
      <cc:Work
         rdf:about="">
        <dc:format>image/svg+xml</dc:format>
        <dc:type
           rdf:resource="http://purl.org/dc/dcmitype/StillImage" />
        <dc:title></dc:title>
      </cc:Work>
    </rdf:RDF>
  </metadata>
  <g
     transform="translate(-19.206581,-107.50401)"
     id="layer1"
     inkscape:groupmode="layer"
     inkscape:label="Layer 1">
    <g
       style="font-size:10.5833px;line-height:1.25;font-family:lego;-inkscape-font-specification:lego;letter-spacing:0px;opacity:1;stroke-width:0.264583"
       id="text1062"
       aria-label="lover, thinker, artist and prophet">
      <path
         id="path1651"
         style="font-style:normal;font-variant:normal;font-weight:normal;font-stretch:normal;font-family:Typewriter-Serial-Medium;-inkscape-font-specification:Typewriter-Serial-Medium;stroke-width:0.264583"
         d="m 21.60899,115.6214 -0.592665,-0.0317 q -0.15875,0 -0.486832,0.0212 -0.328082,0.0212 -0.539748,0.0423 l -0.243416,0.0318 q -0.539748,0 -0.539748,-0.49741 0,-0.22225 0.116416,-0.34925 0.116416,-0.127 0.328082,-0.127 l 0.15875,0.0212 0.349249,0.0529 q 0.285749,0 0.285749,-0.48683 v -5.17523 q 0,-0.59267 -0.285749,-0.59267 l -0.264583,0.0318 -0.232832,0.0317 q -0.455082,0 -0.455082,-0.49741 0,-0.48683 0.582081,-0.48683 0.169333,0 0.275166,0.0212 l 0.507998,0.0318 0.306916,-0.0212 0.317499,-0.0635 h 0.09525 q 0.328082,0 0.328082,0.35983 v 0.0529 l -0.01058,0.35984 -0.02117,5.94781 q 0,0.48683 0.264583,0.48683 l 0.328082,-0.0529 0.158749,-0.0212 q 0.1905,0 0.317499,0.127 0.127,0.127 0.127,0.33866 0,0.27517 -0.148166,0.39159 -0.137583,0.10583 -0.476249,0.10583 -0.105833,0 -0.148166,-0.0212 z" />
      <path
         id="path1653"
         style="font-style:normal;font-variant:normal;font-weight:normal;font-stretch:normal;font-family:Typewriter-Serial-Medium;-inkscape-font-specification:Typewriter-Serial-Medium;stroke-width:0.264583"
         d="m 23.378881,112.711 q 0,-1.44992 0.740831,-2.27541 0.740831,-0.8255 2.031994,-0.8255 1.280579,0 2.02141,0.83608 0.740831,0.8255 0.740831,2.26483 0,1.43932 -0.740831,2.26482 -0.730248,0.81492 -2.02141,0.81492 -1.301746,0 -2.042577,-0.81492 -0.730248,-0.8255 -0.730248,-2.26482 z m 2.772825,-2.159 q -1.555745,0 -1.555745,2.159 0,1.05833 0.391582,1.60866 0.402165,0.53975 1.164163,0.53975 1.555745,0 1.555745,-2.14841 0,-2.159 -1.555745,-2.159 z" />
      <path
         id="path1655"
         style="font-style:normal;font-variant:normal;font-weight:normal;font-stretch:normal;font-family:Typewriter-Serial-Medium;-inkscape-font-specification:Typewriter-Serial-Medium;stroke-width:0.264583"
         d="m 32.483159,115.67432 h -0.179916 q -0.158749,0 -0.306915,-0.0529 -0.148166,-0.0529 -0.253999,-0.20108 -0.09525,-0.14817 -0.232833,-0.52916 l -1.481662,-3.79941 q -0.105833,-0.27517 -0.190499,-0.381 -0.07408,-0.11641 -0.179917,-0.11641 l -0.359832,0.0529 -0.0635,0.0106 q -0.1905,0 -0.306916,-0.11642 -0.127,-0.127 -0.127,-0.33867 0,-0.22225 0.148166,-0.34925 0.137583,-0.13758 0.359833,-0.13758 0.105833,0 0.222249,0 0.190499,0.0318 0.306916,0.0423 l 0.592664,0.0318 q 0.391582,0 0.730248,-0.0423 0.222249,-0.0423 0.433915,-0.0423 0.539749,0 0.539749,0.43391 0,0.1905 -0.116417,0.32809 -0.116416,0.13758 -0.285749,0.13758 l -0.391582,-0.0423 q -0.190499,-0.0106 -0.190499,0.1905 0,0.0952 0.09525,0.33866 l 0.973664,2.67758 0.137583,0.37041 0.07408,0.24342 q 0.03175,0.13758 0.04233,0.15875 0.01058,0.0106 0.03175,0.0529 l 0.0635,-0.22225 0.09525,-0.22225 0.126999,-0.37041 0.96308,-2.69874 q 0.04233,-0.0953 0.0635,-0.16934 0.02117,-0.0741 0.02117,-0.13758 0,-0.21166 -0.211666,-0.21166 l -0.370416,0.0423 q -0.190499,0 -0.306915,-0.127 -0.116417,-0.127 -0.116417,-0.33867 0,-0.17991 0.148167,-0.30691 0.148166,-0.127 0.391582,-0.127 0.09525,0 0.148166,0 0.0635,0 0.232832,0.0317 0.179917,0.0318 0.349249,0.0423 0.179916,0.0106 0.349249,0.0106 l 0.634998,-0.0318 q 0.137583,-0.0212 0.275166,-0.0317 0.137583,-0.0212 0.253999,-0.0212 0.507999,0 0.507999,0.49741 0,0.1905 -0.116417,0.3175 -0.116416,0.127 -0.296332,0.127 l -0.04233,-0.0106 -0.328083,-0.0635 h -0.05292 q -0.116416,0 -0.169333,0.0741 -0.04233,0.0741 -0.179916,0.43392 l -1.428745,3.75707 q -0.201083,0.508 -0.380999,0.67733 -0.169333,0.15875 -0.486832,0.15875 z" />
      <path
         id="path1657"
         style="font-style:normal;font-variant:normal;font-weight:normal;font-stretch:normal;font-family:Typewriter-Serial-Medium;-inkscape-font-specification:Typewriter-Serial-Medium;stroke-width:0.264583"
         d="m 37.406392,112.92266 q -0.116416,0 -0.148166,0.0318 -0.03175,0.0318 -0.03175,0.17992 0,0.71966 0.476249,1.22766 0.486831,0.49742 1.174746,0.49742 0.910164,0 1.396995,-0.94192 l 0.15875,-0.27516 q 0.127,-0.20109 0.391582,-0.20109 0.222249,0 0.370416,0.13759 0.148166,0.13758 0.148166,0.34924 0,0.16934 -0.09525,0.39159 -0.09525,0.21166 -0.264582,0.4445 -0.730248,1.02658 -2.222493,1.02658 -1.227663,0 -1.979077,-0.83608 -0.751415,-0.83609 -0.751415,-2.19075 0,-1.40758 0.772581,-2.26482 0.783164,-0.86783 2.05316,-0.86783 1.18533,0 1.873244,0.73024 0.687915,0.73025 0.687915,1.98966 0,0.34925 -0.09525,0.46567 -0.08467,0.10583 -0.359832,0.10583 z m -0.08467,-0.87841 h 0.126999 2.635242 0.169333 l 0.01058,-0.0847 q 0,-0.29633 -0.148166,-0.635 -0.148166,-0.33866 -0.370416,-0.52916 -0.349248,-0.29633 -0.920747,-0.29633 -0.624414,0 -1.068913,0.43391 -0.444498,0.43392 -0.444498,1.03716 z" />
      <path
         id="path1659"
         style="font-style:normal;font-variant:normal;font-weight:normal;font-stretch:normal;font-family:Typewriter-Serial-Medium;-inkscape-font-specification:Typewriter-Serial-Medium;stroke-width:0.264583"
         d="m 45.340385,110.60492 q -0.317499,0.13758 -0.465665,0.27516 -0.148167,0.13759 -0.275166,0.39159 -0.232833,0.46566 -0.232833,1.05833 v 1.96849 q 0,0.48683 0.275166,0.48683 l 0.402165,-0.0529 0.15875,-0.0212 q 0.190499,0 0.306916,0.13758 0.126999,0.127 0.126999,0.32808 0,0.27517 -0.137583,0.39159 -0.137583,0.10583 -0.476248,0.10583 -0.105833,0 -0.169333,-0.0212 l -0.380999,-0.0318 -0.634998,-0.0317 q -0.507998,0 -1.068913,0.0635 l -0.243416,0.0318 q -0.539748,0 -0.539748,-0.49741 0,-0.22225 0.116416,-0.34925 0.116416,-0.127 0.328082,-0.127 l 0.15875,0.0212 0.349249,0.0529 q 0.285749,0 0.285749,-0.48683 v -3.03741 q 0,-0.59266 -0.285749,-0.59266 l -0.264583,0.0318 q -0.08467,0.0318 -0.232832,0.0318 -0.455082,0 -0.455082,-0.48683 0,-0.49742 0.571498,-0.49742 l 0.137583,0.0106 0.423332,0.0318 q 0.07408,0 0.179916,-0.0106 0.105833,-0.0106 0.264583,-0.0529 l 0.190499,-0.0106 q 0.127,0 0.211666,0.0529 0.09525,0.0529 0.127,0.14816 0.03175,0.0847 0.03175,0.3175 l 0.01058,0.43392 q 0.222249,-0.34925 0.370415,-0.49742 0.148166,-0.14816 0.391582,-0.27516 0.444499,-0.254 0.973664,-0.254 0.391582,0 0.624415,0.1905 0.232832,0.1905 0.232832,0.51858 0,0.3175 -0.201083,0.51858 -0.201082,0.20108 -0.497415,0.20108 -0.264582,0 -0.402165,-0.0953 -0.137583,-0.0952 -0.285749,-0.37041 z" />
      <path
         id="path1661"
         style="font-style:normal;font-variant:normal;font-weight:normal;font-stretch:normal;font-family:Typewriter-Serial-Medium;-inkscape-font-specification:Typewriter-Serial-Medium;stroke-width:0.264583"
         d="m 46.514971,115.61082 q -0.275165,-0.0529 -0.455081,-0.26458 -0.179917,-0.21167 -0.179917,-0.48683 l 0.01058,-0.0635 q 0,-0.34925 0.275166,-0.59267 0.285749,-0.254 0.666747,-0.254 0.444499,0 0.687915,0.32808 0.243416,0.32809 0.243416,0.89958 0,0.40217 -0.08467,0.75142 -0.08467,0.34925 -0.296332,0.74083 -0.116416,0.22225 -0.264583,0.4445 -0.148166,0.22225 -0.349248,0.43391 -0.1905,0.22225 -0.338666,0.22225 -0.09525,0 -0.190499,-0.0635 -0.137583,-0.0953 -0.137583,-0.26458 0,-0.13758 0.179916,-0.381 l 0.148166,-0.1905 q 0.08467,-0.11641 0.127,-0.1905 0.04233,-0.0741 0.126999,-0.30691 0.05292,-0.15875 0.09525,-0.3175 0.05292,-0.14817 0.05292,-0.21167 0,-0.16933 -0.179916,-0.21166 z" />
      <path
         id="path1663"
         style="font-style:normal;font-variant:normal;font-weight:normal;font-stretch:normal;font-family:Typewriter-Serial-Medium;-inkscape-font-specification:Typewriter-Serial-Medium;stroke-width:0.264583"
         d="m 51.709547,110.64725 q -0.1905,0 -0.317499,-0.127 -0.127,-0.127 -0.127,-0.30691 0,-0.16934 0.127,-0.29634 0.126999,-0.127 0.317499,-0.127 h 0.476248 q 0.09525,0 0.09525,-0.0741 v -1.21708 q 0,-0.20108 0.179916,-0.34925 0.179916,-0.14816 0.433915,-0.14816 0.22225,0 0.370416,0.14816 0.158749,0.13759 0.158749,0.34925 v 1.21708 l 0.04233,0.0635 0.07408,0.0106 h 1.365245 q 0.1905,0 0.317499,0.11642 0.127,0.11642 0.127,0.29633 0,0.1905 -0.127,0.3175 -0.126999,0.127 -0.317499,0.127 h -1.375829 q -0.07408,0 -0.09525,0.0212 -0.01058,0.0106 -0.01058,0.0635 v 2.93157 q 0,0.62442 0.148166,0.84667 0.1905,0.32808 0.592665,0.32808 0.783164,0 0.783164,-1.13241 l -0.01058,-0.127 v -0.22225 q 0,-0.59267 0.465665,-0.59267 0.497415,0 0.497415,0.75142 0,0.77258 -0.137582,1.18533 -0.137583,0.41274 -0.486832,0.69849 -0.476249,0.381 -1.195913,0.381 -0.666748,0 -1.142996,-0.28575 -0.370416,-0.22225 -0.518582,-0.59266 -0.137583,-0.381 -0.137583,-1.15358 v -3.01624 q 0,-0.0635 -0.01058,-0.0741 -0.01058,-0.0106 -0.09525,-0.0106 z" />
      <path
         id="path1665"
         style="font-style:normal;font-variant:normal;font-weight:normal;font-stretch:normal;font-family:Typewriter-Serial-Medium;-inkscape-font-specification:Typewriter-Serial-Medium;stroke-width:0.264583"
         d="m 58.597623,110.3615 q 0.148166,-0.15875 0.264582,-0.254 0.127,-0.10583 0.264583,-0.17991 0.518582,-0.28575 1.238246,-0.28575 0.814914,0 1.407579,0.41275 0.719664,0.49741 0.719664,1.77799 v 2.46591 q 0,0.48683 0.253999,0.48683 l 0.349249,-0.0529 0.148166,-0.0212 q 0.1905,0 0.317499,0.127 0.127,0.127 0.127,0.33866 0,0.27517 -0.148166,0.39159 -0.137583,0.10583 -0.486832,0.10583 -0.09525,0 -0.148166,-0.0212 l -0.391582,-0.0318 -0.550332,-0.0317 q -0.137583,0 -0.465665,0.0212 -0.328082,0.0212 -0.518582,0.0423 l -0.253999,0.0318 q -0.529165,0 -0.529165,-0.49741 0,-0.20109 0.116416,-0.33867 0.116417,-0.13758 0.306916,-0.13758 l 0.127,0.0106 0.285749,0.0529 q 0.317499,0 0.317499,-0.47625 v -2.11666 q 0,-0.73025 -0.15875,-1.02658 -0.317499,-0.58208 -1.09008,-0.58208 -0.455081,0 -0.878413,0.26458 -0.349249,0.23283 -0.486832,0.55033 -0.137583,0.30692 -0.137583,0.89958 v 2.01083 q 0,0.47625 0.275166,0.47625 l 0.349249,-0.0529 0.09525,-0.0106 q 0.1905,0 0.306916,0.13758 0.127,0.127 0.127,0.32808 0,0.27517 -0.148167,0.39159 -0.137583,0.10583 -0.486831,0.10583 -0.09525,0 -0.148167,-0.0212 l -0.391582,-0.0318 -0.560915,-0.0317 q -0.126999,0 -0.465665,0.0212 -0.338665,0.0212 -0.518581,0.0423 l -0.243416,0.0318 q -0.539749,0 -0.539749,-0.49741 0,-0.22225 0.116417,-0.34925 0.116416,-0.127 0.328082,-0.127 l 0.158749,0.0212 0.338666,0.0529 q 0.264582,0 0.264582,-0.48683 v -5.17523 q 0,-0.59267 -0.275165,-0.59267 l -0.243416,0.0318 -0.222249,0.0317 q -0.465666,0 -0.465666,-0.49741 0,-0.48683 0.582082,-0.48683 0.169333,0 0.275166,0.0212 l 0.507998,0.0318 0.306916,-0.0212 0.317499,-0.0635 h 0.08467 q 0.306916,0 0.306916,0.37041 v 0.0423 l -0.01058,0.35984 z" />
      <path
         id="path1667"
         style="font-style:normal;font-variant:normal;font-weight:normal;font-stretch:normal;font-family:Typewriter-Serial-Medium;-inkscape-font-specification:Typewriter-Serial-Medium;stroke-width:0.264583"
         d="m 66.381309,115.6214 -0.592664,-0.0317 q -0.15875,0 -0.486832,0.0212 -0.328082,0.0212 -0.539748,0.0423 l -0.243416,0.0318 q -0.539749,0 -0.539749,-0.49741 0,-0.22225 0.116417,-0.34925 0.116416,-0.127 0.328082,-0.127 l 0.15875,0.0212 0.349248,0.0529 q 0.28575,0 0.28575,-0.48683 v -3.03741 q 0,-0.59266 -0.28575,-0.59266 l -0.264582,0.0318 q -0.08467,0.0318 -0.232833,0.0318 -0.455082,0 -0.455082,-0.49742 0,-0.48683 0.582082,-0.48683 l 0.275166,0.0212 0.507998,0.0212 q 0.201083,0 0.306916,-0.0212 l 0.317499,-0.0529 0.09525,-0.0106 q 0.328083,0 0.328083,0.37041 v 0.0529 l -0.01058,0.34925 -0.02117,3.82057 q 0,0.48683 0.264582,0.48683 l 0.328083,-0.0529 0.158749,-0.0212 q 0.1905,0 0.317499,0.127 0.127,0.127 0.127,0.33866 0,0.27517 -0.148166,0.39159 -0.137583,0.10583 -0.476249,0.10583 -0.105833,0 -0.148166,-0.0212 z m -1.555745,-7.35539 q 0,-0.3175 0.232833,-0.53975 0.232833,-0.22225 0.560915,-0.22225 0.328082,0 0.550331,0.22225 0.232833,0.21167 0.232833,0.53975 0,0.3175 -0.232833,0.55033 -0.222249,0.22225 -0.550331,0.22225 -0.328082,0 -0.560915,-0.22225 -0.232833,-0.22225 -0.232833,-0.55033 z" />
      <path
         id="path1669"
         style="font-style:normal;font-variant:normal;font-weight:normal;font-stretch:normal;font-family:Typewriter-Serial-Medium;-inkscape-font-specification:Typewriter-Serial-Medium;stroke-width:0.264583"
         d="m 70.066777,110.59434 q 0.222249,-0.3175 0.402165,-0.47625 0.190499,-0.16934 0.433915,-0.26459 0.486832,-0.20108 1.079497,-0.20108 0.761997,0 1.375829,0.42333 0.391582,0.27517 0.539748,0.67734 0.148166,0.39158 0.148166,1.15357 l 0.01058,1.83092 q 0,0.29633 0,0.50799 0,0.21167 0.04233,0.37042 0.05292,0.15875 0.232832,0.15875 h 0.04233 l 0.349249,-0.0529 h 0.05292 q 0.179916,0 0.306916,0.13759 0.126999,0.13758 0.126999,0.35983 0,0.26458 -0.137583,0.34925 -0.126999,0.0847 -0.518581,0.0847 h -0.1905 l -0.465665,-0.0423 -0.370415,-0.0106 q -0.148167,0 -0.264583,0 -0.116416,0 -0.444499,0.0318 l -0.476248,0.0212 q -0.571498,0 -0.571498,-0.48683 0,-0.45508 0.423332,-0.45508 l 0.137583,0.0212 0.285749,0.0423 q 0.190499,0 0.264582,-0.29633 0.03175,-0.1905 0.03175,-0.32809 0,-0.14816 0,-0.27516 l -0.01058,-0.43392 V 111.949 q 0,-0.45508 -0.07408,-0.66675 -0.07408,-0.22225 -0.306916,-0.41275 -0.306916,-0.29633 -0.836081,-0.29633 -0.275165,0 -0.465665,0.0635 -0.190499,0.0635 -0.433915,0.254 -0.328082,0.24341 -0.444499,0.508 -0.105833,0.26458 -0.105833,0.81491 l 0.01058,0.59267 v 0.78316 l -0.01058,0.15875 q 0,0.65616 0.04233,0.84666 0.05292,0.17992 0.222249,0.17992 l 0.338665,-0.0529 h 0.07408 q 0.455082,0 0.455082,0.49742 0,0.45508 -0.624414,0.45508 -0.105833,0 -0.148166,-0.0212 l -0.391583,-0.0318 -0.560914,-0.0317 q -0.169333,0 -0.476249,0.0212 -0.306916,0.0212 -0.507998,0.0423 l -0.254,0.0318 q -0.529165,0 -0.529165,-0.49741 0,-0.21167 0.116417,-0.33867 0.126999,-0.13758 0.328082,-0.13758 l 0.15875,0.0212 0.338665,0.0529 q 0.285749,0 0.285749,-0.48683 v -3.03741 q 0,-0.59266 -0.306915,-0.59266 l -0.264583,0.0318 q -0.08467,0.0318 -0.232833,0.0318 -0.455081,0 -0.455081,-0.508 0,-0.47625 0.613831,-0.47625 l 0.09525,0.0106 0.476248,0.0318 q 0.04233,0.0106 0.476249,-0.0847 l 0.169332,-0.0106 q 0.211666,0 0.296333,0.11641 0.09525,0.11642 0.09525,0.39158 z" />
      <path
         id="path1671"
         style="font-style:normal;font-variant:normal;font-weight:normal;font-stretch:normal;font-family:Typewriter-Serial-Medium;-inkscape-font-specification:Typewriter-Serial-Medium;stroke-width:0.264583"
         d="m 77.863029,113.67408 v 0.62441 q 0,0.48683 0.275166,0.48683 l 0.328082,-0.0529 0.15875,-0.0212 q 0.190499,0 0.317499,0.127 0.126999,0.127 0.126999,0.33866 0,0.27517 -0.148166,0.39159 -0.137583,0.10583 -0.476248,0.10583 -0.105833,0 -0.148166,-0.0212 l -0.402166,-0.0318 -0.592665,-0.0317 q -0.158749,0 -0.486831,0.0212 -0.328083,0.0212 -0.539749,0.0423 l -0.243416,0.0318 q -0.539748,0 -0.539748,-0.49741 0,-0.22225 0.116416,-0.34925 0.116417,-0.127 0.328083,-0.127 l 0.158749,0.0212 0.338666,0.0529 q 0.285749,0 0.285749,-0.48683 v -5.17523 q 0,-0.59267 -0.264583,-0.59267 l -0.243415,0.0318 -0.22225,0.0317 q -0.465665,0 -0.465665,-0.49741 0,-0.48683 0.582082,-0.48683 0.179916,0 0.264582,0.0212 l 0.507998,0.0318 0.306916,-0.0212 0.328082,-0.0635 h 0.08467 q 0.306915,0 0.306915,0.37041 l -0.01058,0.0423 -0.01058,0.35984 -0.02117,4.22273 1.714495,-1.72508 q 0.0635,-0.0529 0.08467,-0.0847 0.02117,-0.0423 0.04233,-0.0847 0,-0.127 -0.349248,-0.127 l -0.137583,0.0106 -0.116417,0.0106 q -0.148166,0 -0.253999,-0.11642 -0.09525,-0.127 -0.09525,-0.3175 0,-0.1905 0.148167,-0.3175 0.148166,-0.12699 0.391582,-0.12699 l 0.656164,0.0741 0.582082,0.0212 q 0.222249,0 0.444498,0 0.306916,-0.0318 0.433916,-0.0423 l 0.518581,-0.0423 q 0.243416,0 0.380999,0.127 0.137583,0.127 0.137583,0.34925 0,0.1905 -0.116416,0.3175 -0.116417,0.127 -0.296333,0.127 h -0.116416 l -0.380999,-0.0212 q -0.338665,0 -0.518581,0.17991 l -1.206497,1.18533 q -0.02117,0.0317 -0.05292,0.0741 -0.02117,0.0317 -0.03175,0.0635 0,0.0423 0.116416,0.1905 l 1.650995,2.16957 0.08467,0.0952 0.09525,0.11642 q 0.127,0.14817 0.264583,0.14817 l 0.201082,-0.0423 0.211666,-0.0318 q 0.1905,0 0.306916,0.127 0.127,0.11642 0.127,0.3175 0,0.45508 -0.571499,0.45508 l -0.211666,-0.0106 -0.751414,-0.0529 -0.825497,0.0317 -0.433916,0.0212 q -0.306915,0 -0.433915,-0.10583 -0.126999,-0.10584 -0.126999,-0.35984 0,-0.17991 0.09525,-0.30691 0.09525,-0.127 0.243416,-0.127 l 0.232833,0.0212 q 0.158749,0 0.158749,-0.11642 l -0.05292,-0.16933 -1.047747,-1.4605 -0.09525,-0.13758 q -0.03175,-0.0423 -0.0635,-0.0529 -0.02117,-0.0212 -0.03175,-0.0318 -0.07408,0.0529 -0.116417,0.0953 l -0.116416,0.11642 z" />
      <path
         id="path1673"
         style="font-style:normal;font-variant:normal;font-weight:normal;font-stretch:normal;font-family:Typewriter-Serial-Medium;-inkscape-font-specification:Typewriter-Serial-Medium;stroke-width:0.264583"
         d="m 84.115945,112.92266 q -0.116416,0 -0.148166,0.0318 -0.03175,0.0318 -0.03175,0.17992 0,0.71966 0.476248,1.22766 0.486832,0.49742 1.174747,0.49742 0.910163,0 1.396995,-0.94192 l 0.15875,-0.27516 q 0.126999,-0.20109 0.391582,-0.20109 0.222249,0 0.370415,0.13759 0.148166,0.13758 0.148166,0.34924 0,0.16934 -0.09525,0.39159 -0.09525,0.21166 -0.264583,0.4445 -0.730247,1.02658 -2.222493,1.02658 -1.227662,0 -1.979077,-0.83608 -0.751414,-0.83609 -0.751414,-2.19075 0,-1.40758 0.772581,-2.26482 0.783164,-0.86783 2.05316,-0.86783 1.18533,0 1.873244,0.73024 0.687915,0.73025 0.687915,1.98966 0,0.34925 -0.09525,0.46567 -0.08467,0.10583 -0.359832,0.10583 z m -0.08467,-0.87841 h 0.126999 2.635242 0.169333 l 0.01058,-0.0847 q 0,-0.29633 -0.148166,-0.635 -0.148166,-0.33866 -0.370416,-0.52916 -0.349249,-0.29633 -0.920747,-0.29633 -0.624415,0 -1.068913,0.43391 -0.444499,0.43392 -0.444499,1.03716 z" />
      <path
         id="path1675"
         style="font-style:normal;font-variant:normal;font-weight:normal;font-stretch:normal;font-family:Typewriter-Serial-Medium;-inkscape-font-specification:Typewriter-Serial-Medium;stroke-width:0.264583"
         d="m 92.055734,110.60492 q -0.317499,0.13758 -0.465665,0.27516 -0.148166,0.13759 -0.275166,0.39159 -0.232832,0.46566 -0.232832,1.05833 v 1.96849 q 0,0.48683 0.275165,0.48683 l 0.402166,-0.0529 0.158749,-0.0212 q 0.1905,0 0.306916,0.13758 0.126999,0.127 0.126999,0.32808 0,0.27517 -0.137582,0.39159 -0.137583,0.10583 -0.476249,0.10583 -0.105833,0 -0.169333,-0.0212 l -0.380998,-0.0318 -0.634998,-0.0317 q -0.507999,0 -1.068914,0.0635 l -0.243416,0.0318 q -0.539748,0 -0.539748,-0.49741 0,-0.22225 0.116416,-0.34925 0.116417,-0.127 0.328083,-0.127 l 0.158749,0.0212 0.349249,0.0529 q 0.285749,0 0.285749,-0.48683 v -3.03741 q 0,-0.59266 -0.285749,-0.59266 l -0.264582,0.0318 q -0.08467,0.0318 -0.232833,0.0318 -0.455082,0 -0.455082,-0.48683 0,-0.49742 0.571498,-0.49742 l 0.137583,0.0106 0.423332,0.0318 q 0.07408,0 0.179916,-0.0106 0.105833,-0.0106 0.264583,-0.0529 l 0.190499,-0.0106 q 0.127,0 0.211666,0.0529 0.09525,0.0529 0.127,0.14816 0.03175,0.0847 0.03175,0.3175 l 0.01058,0.43392 q 0.222249,-0.34925 0.370415,-0.49742 0.148167,-0.14816 0.391582,-0.27516 0.444499,-0.254 0.973664,-0.254 0.391582,0 0.624415,0.1905 0.232832,0.1905 0.232832,0.51858 0,0.3175 -0.201082,0.51858 -0.201083,0.20108 -0.497415,0.20108 -0.264583,0 -0.402166,-0.0953 -0.137583,-0.0952 -0.285749,-0.37041 z" />
      <path
         id="path1677"
         style="font-style:normal;font-variant:normal;font-weight:normal;font-stretch:normal;font-family:Typewriter-Serial-Medium;-inkscape-font-specification:Typewriter-Serial-Medium;stroke-width:0.264583"
         d="m 93.230323,115.61082 q -0.275166,-0.0529 -0.455082,-0.26458 -0.179916,-0.21167 -0.179916,-0.48683 l 0.01058,-0.0635 q 0,-0.34925 0.275166,-0.59267 0.285749,-0.254 0.666748,-0.254 0.444498,0 0.687914,0.32808 0.243416,0.32809 0.243416,0.89958 0,0.40217 -0.08467,0.75142 -0.08467,0.34925 -0.296332,0.74083 -0.116416,0.22225 -0.264582,0.4445 -0.148167,0.22225 -0.349249,0.43391 -0.1905,0.22225 -0.338666,0.22225 -0.09525,0 -0.190499,-0.0635 -0.137583,-0.0953 -0.137583,-0.26458 0,-0.13758 0.179916,-0.381 l 0.148166,-0.1905 q 0.08467,-0.11641 0.127,-0.1905 0.04233,-0.0741 0.126999,-0.30691 0.05292,-0.15875 0.09525,-0.3175 0.05292,-0.14817 0.05292,-0.21167 0,-0.16933 -0.179917,-0.21166 z" />
      <path
         id="path1679"
         style="font-style:normal;font-variant:normal;font-weight:normal;font-stretch:normal;font-family:Typewriter-Serial-Medium;-inkscape-font-specification:Typewriter-Serial-Medium;stroke-width:0.264583"
         d="m 99.959469,110.84833 q 0.201081,0.20109 0.201081,0.34925 0,0.71967 -0.719663,0.71967 -0.349249,0 -0.571498,-0.21167 -0.211666,-0.22225 -0.211666,-0.58208 0,-0.62441 0.687914,-1.04775 0.687913,-0.42333 1.703913,-0.42333 0.89958,0 1.43933,0.33867 0.22225,0.14816 0.39158,0.41275 0.17992,0.254 0.254,0.53974 0.0741,0.27517 0.0741,0.71967 v 2.55057 q 0,0.53975 0.32808,0.53975 h 0.28575 q 0.20109,0 0.32809,0.127 0.12699,0.127 0.12699,0.32808 0,0.28575 -0.19049,0.40217 -0.1905,0.11642 -0.66675,0.11642 -0.33867,0 -0.5715,-0.0741 -0.4445,-0.127 -0.5715,-0.79374 -0.20108,0.26458 -0.34925,0.39158 -0.13758,0.11641 -0.42333,0.24341 -0.27517,0.127 -0.59266,0.1905 -0.3175,0.0741 -0.635,0.0741 -0.931333,0 -1.428748,-0.4445 -0.497415,-0.4445 -0.497415,-1.30175 0,-0.77258 0.455082,-1.16416 0.04233,-0.0423 0.137583,-0.10583 0.148166,-0.10584 0.317499,-0.16934 0.179916,-0.0741 0.380999,-0.127 0.211666,-0.0529 0.62441,-0.127 l 0.60325,-0.11641 q 0.70908,-0.127 0.92075,-0.29634 0.11642,-0.0847 0.17992,-0.23283 0.0635,-0.15875 0.0635,-0.33866 0,-0.381 -0.28575,-0.62442 -0.28575,-0.24341 -0.73025,-0.24341 -0.30692,0 -0.62442,0.11641 -0.3175,0.11642 -0.433911,0.26458 z m 2.116661,2.4765 -0.0106,-0.70908 q -0.11642,0.0635 -0.26459,0.13758 -0.14816,0.0741 -0.21166,0.10583 -0.381,0.13758 -1.05833,0.27517 -0.43392,0.0741 -0.603251,0.15875 -0.169333,0.0847 -0.285749,0.27516 -0.116417,0.1905 -0.116417,0.4445 0,0.35983 0.264583,0.5715 0.264584,0.21167 0.730244,0.21167 0.3175,0 0.65617,-0.127 0.34925,-0.127 0.55033,-0.3175 0.34925,-0.33867 0.34925,-1.02658 z" />
      <path
         id="path1681"
         style="font-style:normal;font-variant:normal;font-weight:normal;font-stretch:normal;font-family:Typewriter-Serial-Medium;-inkscape-font-specification:Typewriter-Serial-Medium;stroke-width:0.264583"
         d="m 107.93068,110.60492 q -0.3175,0.13758 -0.46566,0.27516 -0.14817,0.13759 -0.27517,0.39159 -0.23283,0.46566 -0.23283,1.05833 v 1.96849 q 0,0.48683 0.27516,0.48683 l 0.40217,-0.0529 0.15875,-0.0212 q 0.1905,0 0.30691,0.13758 0.127,0.127 0.127,0.32808 0,0.27517 -0.13758,0.39159 -0.13758,0.10583 -0.47625,0.10583 -0.10583,0 -0.16933,-0.0212 l -0.381,-0.0318 -0.635,-0.0317 q -0.508,0 -1.06891,0.0635 l -0.24342,0.0318 q -0.53975,0 -0.53975,-0.49741 0,-0.22225 0.11642,-0.34925 0.11642,-0.127 0.32808,-0.127 l 0.15875,0.0212 0.34925,0.0529 q 0.28575,0 0.28575,-0.48683 v -3.03741 q 0,-0.59266 -0.28575,-0.59266 l -0.26458,0.0318 q -0.0847,0.0318 -0.23283,0.0318 -0.45509,0 -0.45509,-0.48683 0,-0.49742 0.5715,-0.49742 l 0.13759,0.0106 0.42333,0.0318 q 0.0741,0 0.17991,-0.0106 0.10584,-0.0106 0.26459,-0.0529 l 0.1905,-0.0106 q 0.127,0 0.21166,0.0529 0.0952,0.0529 0.127,0.14816 0.0318,0.0847 0.0318,0.3175 l 0.0106,0.43392 q 0.22225,-0.34925 0.37042,-0.49742 0.14817,-0.14816 0.39158,-0.27516 0.4445,-0.254 0.97367,-0.254 0.39158,0 0.62441,0.1905 0.23283,0.1905 0.23283,0.51858 0,0.3175 -0.20108,0.51858 -0.20108,0.20108 -0.49741,0.20108 -0.26459,0 -0.40217,-0.0953 -0.13758,-0.0952 -0.28575,-0.37041 z" />
      <path
         id="path1683"
         style="font-style:normal;font-variant:normal;font-weight:normal;font-stretch:normal;font-family:Typewriter-Serial-Medium;-inkscape-font-specification:Typewriter-Serial-Medium;stroke-width:0.264583"
         d="m 109.60764,110.64725 q -0.1905,0 -0.3175,-0.127 -0.127,-0.127 -0.127,-0.30691 0,-0.16934 0.127,-0.29634 0.127,-0.127 0.3175,-0.127 h 0.47625 q 0.0953,0 0.0953,-0.0741 v -1.21708 q 0,-0.20108 0.17991,-0.34925 0.17992,-0.14816 0.43392,-0.14816 0.22225,0 0.37041,0.14816 0.15875,0.13759 0.15875,0.34925 v 1.21708 l 0.0423,0.0635 0.0741,0.0106 h 1.36524 q 0.1905,0 0.3175,0.11642 0.127,0.11642 0.127,0.29633 0,0.1905 -0.127,0.3175 -0.127,0.127 -0.3175,0.127 h -1.37583 q -0.0741,0 -0.0952,0.0212 -0.0106,0.0106 -0.0106,0.0635 v 2.93157 q 0,0.62442 0.14817,0.84667 0.1905,0.32808 0.59266,0.32808 0.78317,0 0.78317,-1.13241 l -0.0106,-0.127 v -0.22225 q 0,-0.59267 0.46567,-0.59267 0.49741,0 0.49741,0.75142 0,0.77258 -0.13758,1.18533 -0.13758,0.41274 -0.48683,0.69849 -0.47625,0.381 -1.19591,0.381 -0.66675,0 -1.143,-0.28575 -0.37042,-0.22225 -0.51858,-0.59266 -0.13758,-0.381 -0.13758,-1.15358 v -3.01624 q 0,-0.0635 -0.0106,-0.0741 -0.0106,-0.0106 -0.0952,-0.0106 z" />
      <path
         id="path1685"
         style="font-style:normal;font-variant:normal;font-weight:normal;font-stretch:normal;font-family:Typewriter-Serial-Medium;-inkscape-font-specification:Typewriter-Serial-Medium;stroke-width:0.264583"
         d="m 116.54863,115.6214 -0.59267,-0.0317 q -0.15875,0 -0.48683,0.0212 -0.32808,0.0212 -0.53975,0.0423 l -0.24341,0.0318 q -0.53975,0 -0.53975,-0.49741 0,-0.22225 0.11641,-0.34925 0.11642,-0.127 0.32809,-0.127 l 0.15874,0.0212 0.34925,0.0529 q 0.28575,0 0.28575,-0.48683 v -3.03741 q 0,-0.59266 -0.28575,-0.59266 l -0.26458,0.0318 q -0.0847,0.0318 -0.23283,0.0318 -0.45508,0 -0.45508,-0.49742 0,-0.48683 0.58208,-0.48683 l 0.27516,0.0212 0.508,0.0212 q 0.20109,0 0.30692,-0.0212 l 0.3175,-0.0529 0.0952,-0.0106 q 0.32808,0 0.32808,0.37041 v 0.0529 l -0.0106,0.34925 -0.0212,3.82057 q 0,0.48683 0.26458,0.48683 l 0.32808,-0.0529 0.15875,-0.0212 q 0.1905,0 0.3175,0.127 0.127,0.127 0.127,0.33866 0,0.27517 -0.14816,0.39159 -0.13759,0.10583 -0.47625,0.10583 -0.10584,0 -0.14817,-0.0212 z m -1.55575,-7.35539 q 0,-0.3175 0.23283,-0.53975 0.23284,-0.22225 0.56092,-0.22225 0.32808,0 0.55033,0.22225 0.23283,0.21167 0.23283,0.53975 0,0.3175 -0.23283,0.55033 -0.22225,0.22225 -0.55033,0.22225 -0.32808,0 -0.56092,-0.22225 -0.23283,-0.22225 -0.23283,-0.55033 z" />
      <path
         id="path1687"
         style="font-style:normal;font-variant:normal;font-weight:normal;font-stretch:normal;font-family:Typewriter-Serial-Medium;-inkscape-font-specification:Typewriter-Serial-Medium;stroke-width:0.264583"
         d="m 121.98034,110.13925 q 0,-0.32808 0.10583,-0.45508 0.10584,-0.127 0.37042,-0.127 0.42333,0 0.42333,0.47625 l -0.0212,0.11642 -0.0529,0.56091 q -0.0212,0.14817 0.0318,0.52917 l 0.0212,0.254 q 0,0.52916 -0.46567,0.52916 -0.40217,0 -0.46567,-0.47625 l -0.0529,-0.28575 q -0.0318,-0.21166 -0.1905,-0.381 -0.30692,-0.37041 -1.02658,-0.37041 -0.45508,0 -0.73025,0.20108 -0.27516,0.20108 -0.27516,0.53975 0,0.37042 0.26458,0.5715 0.26458,0.20108 0.91016,0.3175 l 0.52917,0.0847 q 0.47625,0.0847 0.77258,0.17992 0.30691,0.0953 0.5715,0.27517 0.27516,0.16933 0.42333,0.48683 0.14816,0.3175 0.14816,0.73025 0,0.81491 -0.65616,1.35466 -0.65617,0.53975 -1.66158,0.53975 -0.51858,0 -0.99483,-0.16934 -0.27516,-0.10583 -0.381,-0.15875 -0.0952,-0.0635 -0.3175,-0.27516 0,0.28575 -0.0635,0.39158 -0.10583,0.1905 -0.40216,0.1905 -0.47625,0 -0.47625,-0.508 l 0.0106,-0.127 0.0847,-0.68791 -0.0952,-0.56092 -0.0106,-0.17991 q 0,-0.52917 0.51858,-0.52917 l 0.14816,0.0106 q 0.10584,0.0423 0.16934,0.11642 0.0212,0.0212 0.0423,0.0635 0.0212,0.0318 0.0423,0.0741 l 0.0529,0.47625 q 0.0423,0.39158 0.508,0.66675 0.46566,0.27517 1.10066,0.27517 0.56092,0 0.87842,-0.23284 0.31749,-0.23283 0.31749,-0.64558 0,-0.17991 -0.0952,-0.33866 -0.0953,-0.16934 -0.25399,-0.23284 -0.0953,-0.0529 -0.32809,-0.11641 -0.23283,-0.0635 -0.46566,-0.0953 l -0.4445,-0.0529 q -0.94191,-0.13758 -1.4605,-0.59266 -0.51858,-0.45509 -0.51858,-1.16417 0,-0.78316 0.55033,-1.25941 0.56092,-0.48683 1.4605,-0.48683 0.42333,0 0.77258,0.13758 0.1905,0.0635 0.381,0.16933 0.0529,0.0318 0.29633,0.1905 z" />
      <path
         id="path1689"
         style="font-style:normal;font-variant:normal;font-weight:normal;font-stretch:normal;font-family:Typewriter-Serial-Medium;-inkscape-font-specification:Typewriter-Serial-Medium;stroke-width:0.264583"
         d="m 124.17984,110.64725 q -0.1905,0 -0.3175,-0.127 -0.127,-0.127 -0.127,-0.30691 0,-0.16934 0.127,-0.29634 0.127,-0.127 0.3175,-0.127 h 0.47625 q 0.0952,0 0.0952,-0.0741 v -1.21708 q 0,-0.20108 0.17992,-0.34925 0.17991,-0.14816 0.43391,-0.14816 0.22225,0 0.37042,0.14816 0.15875,0.13759 0.15875,0.34925 v 1.21708 l 0.0423,0.0635 0.0741,0.0106 h 1.36525 q 0.1905,0 0.3175,0.11642 0.127,0.11642 0.127,0.29633 0,0.1905 -0.127,0.3175 -0.127,0.127 -0.3175,0.127 h -1.37583 q -0.0741,0 -0.0952,0.0212 -0.0106,0.0106 -0.0106,0.0635 v 2.93157 q 0,0.62442 0.14816,0.84667 0.1905,0.32808 0.59267,0.32808 0.78316,0 0.78316,-1.13241 l -0.0106,-0.127 v -0.22225 q 0,-0.59267 0.46566,-0.59267 0.49742,0 0.49742,0.75142 0,0.77258 -0.13758,1.18533 -0.13759,0.41274 -0.48684,0.69849 -0.47624,0.381 -1.19591,0.381 -0.66675,0 -1.143,-0.28575 -0.37041,-0.22225 -0.51858,-0.59266 -0.13758,-0.381 -0.13758,-1.15358 v -3.01624 q 0,-0.0635 -0.0106,-0.0741 -0.0106,-0.0106 -0.0952,-0.0106 z" />
      <path
         id="path1691"
         style="font-style:normal;font-variant:normal;font-weight:normal;font-stretch:normal;font-family:Typewriter-Serial-Medium;-inkscape-font-specification:Typewriter-Serial-Medium;stroke-width:0.264583"
         d="m 133.69374,110.84833 q 0.20108,0.20109 0.20108,0.34925 0,0.71967 -0.71966,0.71967 -0.34925,0 -0.5715,-0.21167 -0.21167,-0.22225 -0.21167,-0.58208 0,-0.62441 0.68792,-1.04775 0.68791,-0.42333 1.70391,-0.42333 0.89958,0 1.43933,0.33867 0.22224,0.14816 0.39158,0.41275 0.17991,0.254 0.254,0.53974 0.0741,0.27517 0.0741,0.71967 v 2.55057 q 0,0.53975 0.32808,0.53975 h 0.28575 q 0.20108,0 0.32808,0.127 0.127,0.127 0.127,0.32808 0,0.28575 -0.1905,0.40217 -0.1905,0.11642 -0.66674,0.11642 -0.33867,0 -0.5715,-0.0741 -0.4445,-0.127 -0.5715,-0.79374 -0.20108,0.26458 -0.34925,0.39158 -0.13758,0.11641 -0.42333,0.24341 -0.27517,0.127 -0.59267,0.1905 -0.3175,0.0741 -0.63499,0.0741 -0.93133,0 -1.42875,-0.4445 -0.49741,-0.4445 -0.49741,-1.30175 0,-0.77258 0.45508,-1.16416 0.0423,-0.0423 0.13758,-0.10583 0.14817,-0.10584 0.3175,-0.16934 0.17992,-0.0741 0.381,-0.127 0.21166,-0.0529 0.62441,-0.127 l 0.60325,-0.11641 q 0.70908,-0.127 0.92075,-0.29634 0.11641,-0.0847 0.17991,-0.23283 0.0635,-0.15875 0.0635,-0.33866 0,-0.381 -0.28575,-0.62442 -0.28574,-0.24341 -0.73024,-0.24341 -0.30692,0 -0.62442,0.11641 -0.3175,0.11642 -0.43391,0.26458 z m 2.11666,2.4765 -0.0106,-0.70908 q -0.11641,0.0635 -0.26458,0.13758 -0.14817,0.0741 -0.21166,0.10583 -0.381,0.13758 -1.05833,0.27517 -0.43392,0.0741 -0.60325,0.15875 -0.16934,0.0847 -0.28575,0.27516 -0.11642,0.1905 -0.11642,0.4445 0,0.35983 0.26458,0.5715 0.26459,0.21167 0.73025,0.21167 0.3175,0 0.65617,-0.127 0.34925,-0.127 0.55033,-0.3175 0.34925,-0.33867 0.34925,-1.02658 z" />
      <path
         id="path1693"
         style="font-style:normal;font-variant:normal;font-weight:normal;font-stretch:normal;font-family:Typewriter-Serial-Medium;-inkscape-font-specification:Typewriter-Serial-Medium;stroke-width:0.264583"
         d="m 140.53254,110.59434 q 0.22225,-0.3175 0.40216,-0.47625 0.1905,-0.16934 0.43392,-0.26459 0.48683,-0.20108 1.07949,-0.20108 0.762,0 1.37583,0.42333 0.39158,0.27517 0.53975,0.67734 0.14817,0.39158 0.14817,1.15357 l 0.0106,1.83092 q 0,0.29633 0,0.50799 0,0.21167 0.0423,0.37042 0.0529,0.15875 0.23284,0.15875 h 0.0423 l 0.34925,-0.0529 h 0.0529 q 0.17992,0 0.30692,0.13759 0.127,0.13758 0.127,0.35983 0,0.26458 -0.13758,0.34925 -0.127,0.0847 -0.51859,0.0847 h -0.19049 l -0.46567,-0.0423 -0.37042,-0.0106 q -0.14816,0 -0.26458,0 -0.11641,0 -0.4445,0.0318 l -0.47624,0.0212 q -0.5715,0 -0.5715,-0.48683 0,-0.45508 0.42333,-0.45508 l 0.13758,0.0212 0.28575,0.0423 q 0.1905,0 0.26458,-0.29633 0.0317,-0.1905 0.0317,-0.32809 0,-0.14816 0,-0.27516 l -0.0106,-0.43392 V 111.949 q 0,-0.45508 -0.0741,-0.66675 -0.0741,-0.22225 -0.30692,-0.41275 -0.30691,-0.29633 -0.83608,-0.29633 -0.27517,0 -0.46566,0.0635 -0.1905,0.0635 -0.43392,0.254 -0.32808,0.24341 -0.4445,0.508 -0.10583,0.26458 -0.10583,0.81491 l 0.0106,0.59267 v 0.78316 l -0.0106,0.15875 q 0,0.65616 0.0423,0.84666 0.0529,0.17992 0.22225,0.17992 l 0.33867,-0.0529 h 0.0741 q 0.45508,0 0.45508,0.49742 0,0.45508 -0.62441,0.45508 -0.10584,0 -0.14817,-0.0212 l -0.39158,-0.0318 -0.56092,-0.0317 q -0.16933,0 -0.47624,0.0212 -0.30692,0.0212 -0.508,0.0423 l -0.254,0.0318 q -0.52917,0 -0.52917,-0.49741 0,-0.21167 0.11642,-0.33867 0.127,-0.13758 0.32808,-0.13758 l 0.15875,0.0212 0.33867,0.0529 q 0.28575,0 0.28575,-0.48683 v -3.03741 q 0,-0.59266 -0.30692,-0.59266 l -0.26458,0.0318 q -0.0847,0.0318 -0.23284,0.0318 -0.45508,0 -0.45508,-0.508 0,-0.47625 0.61383,-0.47625 l 0.0952,0.0106 0.47625,0.0318 q 0.0423,0.0106 0.47625,-0.0847 l 0.16933,-0.0106 q 0.21167,0 0.29634,0.11641 0.0953,0.11642 0.0953,0.39158 z" />
      <path
         id="path1695"
         style="font-style:normal;font-variant:normal;font-weight:normal;font-stretch:normal;font-family:Typewriter-Serial-Medium;-inkscape-font-specification:Typewriter-Serial-Medium;stroke-width:0.264583"
         d="m 150.48778,110.44617 v -1.32291 q 0,-0.59267 -0.29633,-0.59267 l -0.26458,0.0318 -0.22225,0.0317 q -0.46567,0 -0.46567,-0.49741 0,-0.48683 0.58208,-0.48683 0.1905,0 0.27517,0.0212 l 0.508,0.0318 0.30691,-0.0212 0.33867,-0.0635 h 0.0847 q 0.33866,0 0.33866,0.35983 v 0.0529 q -0.0212,0.10584 -0.0212,0.21167 0,0.0952 0,0.14817 l -0.0212,5.83139 q 0,0.508 0.29633,0.508 0.0529,0 0.0952,-0.0106 0.0529,-0.0106 0.26458,-0.0635 l 0.14817,-0.0212 q 0.4445,0 0.4445,0.51858 0,0.4445 -0.52917,0.4445 l -0.24341,-0.0106 -0.39159,-0.0423 -0.41274,-0.0318 -0.34925,0.0635 h -0.0529 q -0.127,0 -0.21167,-0.0847 -0.0847,-0.0847 -0.0847,-0.20108 v -0.0953 -0.30692 q -0.30692,0.37042 -0.45508,0.51858 -0.14817,0.14817 -0.29634,0.23284 -0.40216,0.21166 -1.03716,0.21166 -1.15358,0 -1.85208,-0.86783 -0.69849,-0.86783 -0.69849,-2.29657 0,-1.37583 0.67733,-2.19075 0.68791,-0.82549 1.84149,-0.82549 0.49742,0 0.89958,0.15874 0.254,0.10584 0.41275,0.24342 0.16933,0.127 0.39158,0.41275 z m -1.51341,0.16933 q -0.6985,0 -1.11125,0.55033 -0.40216,0.53975 -0.40216,1.48167 0,1.01599 0.41275,1.60866 0.42333,0.58208 1.14299,0.58208 0.59267,0 0.97367,-0.37042 0.39158,-0.37041 0.47625,-1.00541 0,-0.14817 0.0212,-0.48683 0.0212,-0.34925 0.0212,-0.381 0,-0.56092 -0.0529,-0.8255 -0.0529,-0.27516 -0.23283,-0.52916 -0.41275,-0.62442 -1.24883,-0.62442 z" />
      <path
         id="path1697"
         style="font-style:normal;font-variant:normal;font-weight:normal;font-stretch:normal;font-family:Typewriter-Serial-Medium;-inkscape-font-specification:Typewriter-Serial-Medium;stroke-width:0.264583"
         d="m 157.30276,109.79 0.66675,-0.0847 h 0.0741 q 0.33867,0 0.33867,0.34925 v 0.1905 l -0.0106,0.26458 q 0.0847,-0.10583 0.16934,-0.20108 0.0847,-0.10584 0.127,-0.13759 0.53974,-0.59266 1.53457,-0.59266 1.15358,0 1.80975,0.8255 0.65616,0.81491 0.65616,2.24366 0,1.39699 -0.70908,2.25424 -0.6985,0.84666 -1.85208,0.84666 -0.46566,0 -0.87841,-0.16933 -0.21167,-0.0741 -0.37042,-0.17992 -0.15875,-0.10583 -0.39158,-0.32808 v 1.28058 q 0,0.49742 0.29633,0.49742 l 0.33867,-0.0529 q 0.0635,-0.0318 0.16933,-0.0318 0.21167,0 0.33867,0.127 0.127,0.127 0.127,0.34925 0,0.27516 -0.13758,0.381 -0.13759,0.10583 -0.48684,0.10583 l -0.15875,-0.0106 -0.39158,-0.0318 -0.59266,-0.0317 q -0.16934,0 -0.49742,0.0212 -0.32808,0.0212 -0.52916,0.0423 l -0.26459,0.0212 q -0.51858,0 -0.51858,-0.48683 0,-0.21166 0.127,-0.34925 0.127,-0.13758 0.3175,-0.13758 l 0.15875,0.0318 0.32808,0.0529 q 0.26459,0 0.26459,-0.49742 v -5.09057 q 0,-0.59266 -0.28575,-0.59266 l -0.254,0.0318 q -0.0847,0.0318 -0.23283,0.0318 -0.45509,0 -0.45509,-0.508 0,-0.47625 0.60325,-0.47625 l 0.10583,0.0106 z m 1.44991,1.47108 q -0.14816,0.28575 -0.20108,0.60325 -0.0529,0.30692 -0.0529,0.9525 0,0.5715 0.0529,0.85725 0.0529,0.28574 0.22225,0.51858 0.39158,0.61383 1.15358,0.61383 0.74083,0 1.14299,-0.56092 0.40217,-0.56091 0.40217,-1.59807 0,-2.07433 -1.44991,-2.07433 -0.91017,0 -1.27,0.68791 z" />
      <path
         id="path1699"
         style="font-style:normal;font-variant:normal;font-weight:normal;font-stretch:normal;font-family:Typewriter-Serial-Medium;-inkscape-font-specification:Typewriter-Serial-Medium;stroke-width:0.264583"
         d="m 166.63493,110.60492 q -0.3175,0.13758 -0.46567,0.27516 -0.14816,0.13759 -0.27516,0.39159 -0.23284,0.46566 -0.23284,1.05833 v 1.96849 q 0,0.48683 0.27517,0.48683 l 0.40216,-0.0529 0.15875,-0.0212 q 0.1905,0 0.30692,0.13758 0.127,0.127 0.127,0.32808 0,0.27517 -0.13758,0.39159 -0.13759,0.10583 -0.47625,0.10583 -0.10583,0 -0.16933,-0.0212 l -0.381,-0.0318 -0.635,-0.0317 q -0.508,0 -1.06891,0.0635 l -0.24342,0.0318 q -0.53975,0 -0.53975,-0.49741 0,-0.22225 0.11642,-0.34925 0.11641,-0.127 0.32808,-0.127 l 0.15875,0.0212 0.34925,0.0529 q 0.28575,0 0.28575,-0.48683 v -3.03741 q 0,-0.59266 -0.28575,-0.59266 l -0.26458,0.0318 q -0.0847,0.0318 -0.23284,0.0318 -0.45508,0 -0.45508,-0.48683 0,-0.49742 0.5715,-0.49742 l 0.13758,0.0106 0.42333,0.0318 q 0.0741,0 0.17992,-0.0106 0.10583,-0.0106 0.26458,-0.0529 l 0.1905,-0.0106 q 0.127,0 0.21167,0.0529 0.0953,0.0529 0.127,0.14816 0.0317,0.0847 0.0317,0.3175 l 0.0106,0.43392 q 0.22225,-0.34925 0.37042,-0.49742 0.14816,-0.14816 0.39158,-0.27516 0.4445,-0.254 0.97366,-0.254 0.39158,0 0.62442,0.1905 0.23283,0.1905 0.23283,0.51858 0,0.3175 -0.20108,0.51858 -0.20109,0.20108 -0.49742,0.20108 -0.26458,0 -0.40216,-0.0953 -0.13759,-0.0952 -0.28575,-0.37041 z" />
      <path
         id="path1701"
         style="font-style:normal;font-variant:normal;font-weight:normal;font-stretch:normal;font-family:Typewriter-Serial-Medium;-inkscape-font-specification:Typewriter-Serial-Medium;stroke-width:0.264583"
         d="m 168.2378,112.711 q 0,-1.44992 0.74083,-2.27541 0.74083,-0.8255 2.032,-0.8255 1.28057,0 2.02141,0.83608 0.74083,0.8255 0.74083,2.26483 0,1.43932 -0.74083,2.26482 -0.73025,0.81492 -2.02141,0.81492 -1.30175,0 -2.04258,-0.81492 -0.73025,-0.8255 -0.73025,-2.26482 z m 2.77283,-2.159 q -1.55575,0 -1.55575,2.159 0,1.05833 0.39158,1.60866 0.40217,0.53975 1.16417,0.53975 1.55574,0 1.55574,-2.14841 0,-2.159 -1.55574,-2.159 z" />
      <path
         id="path1703"
         style="font-style:normal;font-variant:normal;font-weight:normal;font-stretch:normal;font-family:Typewriter-Serial-Medium;-inkscape-font-specification:Typewriter-Serial-Medium;stroke-width:0.264583"
         d="m 175.55482,109.79 0.66675,-0.0847 h 0.0741 q 0.33867,0 0.33867,0.34925 v 0.1905 l -0.0106,0.26458 q 0.0847,-0.10583 0.16934,-0.20108 0.0847,-0.10584 0.12699,-0.13759 0.53975,-0.59266 1.53458,-0.59266 1.15358,0 1.80975,0.8255 0.65616,0.81491 0.65616,2.24366 0,1.39699 -0.70908,2.25424 -0.6985,0.84666 -1.85208,0.84666 -0.46566,0 -0.87841,-0.16933 -0.21167,-0.0741 -0.37042,-0.17992 -0.15875,-0.10583 -0.39158,-0.32808 v 1.28058 q 0,0.49742 0.29633,0.49742 l 0.33867,-0.0529 q 0.0635,-0.0318 0.16933,-0.0318 0.21167,0 0.33867,0.127 0.127,0.127 0.127,0.34925 0,0.27516 -0.13758,0.381 -0.13759,0.10583 -0.48684,0.10583 l -0.15875,-0.0106 -0.39158,-0.0318 -0.59266,-0.0317 q -0.16934,0 -0.49742,0.0212 -0.32808,0.0212 -0.52916,0.0423 l -0.26459,0.0212 q -0.51858,0 -0.51858,-0.48683 0,-0.21166 0.127,-0.34925 0.127,-0.13758 0.3175,-0.13758 l 0.15875,0.0318 0.32808,0.0529 q 0.26459,0 0.26459,-0.49742 v -5.09057 q 0,-0.59266 -0.28575,-0.59266 l -0.254,0.0318 q -0.0847,0.0318 -0.23284,0.0318 -0.45508,0 -0.45508,-0.508 0,-0.47625 0.60325,-0.47625 l 0.10583,0.0106 z m 1.44991,1.47108 q -0.14816,0.28575 -0.20108,0.60325 -0.0529,0.30692 -0.0529,0.9525 0,0.5715 0.0529,0.85725 0.0529,0.28574 0.22225,0.51858 0.39158,0.61383 1.15358,0.61383 0.74083,0 1.14299,-0.56092 0.40217,-0.56091 0.40217,-1.59807 0,-2.07433 -1.44991,-2.07433 -0.91017,0 -1.27,0.68791 z" />
      <path
         id="path1705"
         style="font-style:normal;font-variant:normal;font-weight:normal;font-stretch:normal;font-family:Typewriter-Serial-Medium;-inkscape-font-specification:Typewriter-Serial-Medium;stroke-width:0.264583"
         d="m 183.88156,110.3615 q 0.14816,-0.15875 0.26458,-0.254 0.127,-0.10583 0.26458,-0.17991 0.51859,-0.28575 1.23825,-0.28575 0.81491,0 1.40758,0.41275 0.71966,0.49741 0.71966,1.77799 v 2.46591 q 0,0.48683 0.254,0.48683 l 0.34925,-0.0529 0.14817,-0.0212 q 0.1905,0 0.3175,0.127 0.127,0.127 0.127,0.33866 0,0.27517 -0.14817,0.39159 -0.13758,0.10583 -0.48683,0.10583 -0.0952,0 -0.14817,-0.0212 l -0.39158,-0.0318 -0.55033,-0.0317 q -0.13759,0 -0.46567,0.0212 -0.32808,0.0212 -0.51858,0.0423 l -0.254,0.0318 q -0.52916,0 -0.52916,-0.49741 0,-0.20109 0.11641,-0.33867 0.11642,-0.13758 0.30692,-0.13758 l 0.127,0.0106 0.28575,0.0529 q 0.3175,0 0.3175,-0.47625 v -2.11666 q 0,-0.73025 -0.15875,-1.02658 -0.3175,-0.58208 -1.09008,-0.58208 -0.45508,0 -0.87842,0.26458 -0.34925,0.23283 -0.48683,0.55033 -0.13758,0.30692 -0.13758,0.89958 v 2.01083 q 0,0.47625 0.27516,0.47625 l 0.34925,-0.0529 0.0953,-0.0106 q 0.1905,0 0.30692,0.13758 0.127,0.127 0.127,0.32808 0,0.27517 -0.14817,0.39159 -0.13758,0.10583 -0.48683,0.10583 -0.0952,0 -0.14817,-0.0212 l -0.39158,-0.0318 -0.56091,-0.0317 q -0.127,0 -0.46567,0.0212 -0.33866,0.0212 -0.51858,0.0423 l -0.24342,0.0318 q -0.53974,0 -0.53974,-0.49741 0,-0.22225 0.11641,-0.34925 0.11642,-0.127 0.32808,-0.127 l 0.15875,0.0212 0.33867,0.0529 q 0.26458,0 0.26458,-0.48683 v -5.17523 q 0,-0.59267 -0.27516,-0.59267 l -0.24342,0.0318 -0.22225,0.0317 q -0.46566,0 -0.46566,-0.49741 0,-0.48683 0.58208,-0.48683 0.16933,0 0.27516,0.0212 l 0.508,0.0318 0.30692,-0.0212 0.3175,-0.0635 h 0.0847 q 0.30692,0 0.30692,0.37041 v 0.0423 l -0.0106,0.35984 z" />
      <path
         id="path1707"
         style="font-style:normal;font-variant:normal;font-weight:normal;font-stretch:normal;font-family:Typewriter-Serial-Medium;-inkscape-font-specification:Typewriter-Serial-Medium;stroke-width:0.264583"
         d="m 190.94558,112.92266 q -0.11641,0 -0.14816,0.0318 -0.0317,0.0318 -0.0317,0.17992 0,0.71966 0.47625,1.22766 0.48683,0.49742 1.17474,0.49742 0.91017,0 1.397,-0.94192 l 0.15875,-0.27516 q 0.127,-0.20109 0.39158,-0.20109 0.22225,0 0.37042,0.13759 0.14816,0.13758 0.14816,0.34924 0,0.16934 -0.0952,0.39159 -0.0952,0.21166 -0.26458,0.4445 -0.73025,1.02658 -2.22249,1.02658 -1.22767,0 -1.97908,-0.83608 -0.75141,-0.83609 -0.75141,-2.19075 0,-1.40758 0.77258,-2.26482 0.78316,-0.86783 2.05316,-0.86783 1.18533,0 1.87324,0.73024 0.68792,0.73025 0.68792,1.98966 0,0.34925 -0.0952,0.46567 -0.0847,0.10583 -0.35984,0.10583 z m -0.0847,-0.87841 h 0.127 2.63524 0.16933 l 0.0106,-0.0847 q 0,-0.29633 -0.14817,-0.635 -0.14817,-0.33866 -0.37042,-0.52916 -0.34925,-0.29633 -0.92074,-0.29633 -0.62442,0 -1.06892,0.43391 -0.4445,0.43392 -0.4445,1.03716 z" />
      <path
         id="path1709"
         style="font-style:normal;font-variant:normal;font-weight:normal;font-stretch:normal;font-family:Typewriter-Serial-Medium;-inkscape-font-specification:Typewriter-Serial-Medium;stroke-width:0.264583"
         d="m 195.82862,110.64725 q -0.1905,0 -0.3175,-0.127 -0.127,-0.127 -0.127,-0.30691 0,-0.16934 0.127,-0.29634 0.127,-0.127 0.3175,-0.127 h 0.47625 q 0.0952,0 0.0952,-0.0741 v -1.21708 q 0,-0.20108 0.17992,-0.34925 0.17991,-0.14816 0.43391,-0.14816 0.22225,0 0.37042,0.14816 0.15875,0.13759 0.15875,0.34925 v 1.21708 l 0.0423,0.0635 0.0741,0.0106 h 1.36525 q 0.1905,0 0.3175,0.11642 0.127,0.11642 0.127,0.29633 0,0.1905 -0.127,0.3175 -0.127,0.127 -0.3175,0.127 h -1.37583 q -0.0741,0 -0.0953,0.0212 -0.0106,0.0106 -0.0106,0.0635 v 2.93157 q 0,0.62442 0.14816,0.84667 0.1905,0.32808 0.59267,0.32808 0.78316,0 0.78316,-1.13241 l -0.0106,-0.127 v -0.22225 q 0,-0.59267 0.46566,-0.59267 0.49742,0 0.49742,0.75142 0,0.77258 -0.13758,1.18533 -0.13759,0.41274 -0.48684,0.69849 -0.47624,0.381 -1.19591,0.381 -0.66675,0 -1.14299,-0.28575 -0.37042,-0.22225 -0.51859,-0.59266 -0.13758,-0.381 -0.13758,-1.15358 v -3.01624 q 0,-0.0635 -0.0106,-0.0741 -0.0106,-0.0106 -0.0953,-0.0106 z" />
    </g>
  </g>
</svg>
