<?xml version="1.0" encoding="UTF-8" standalone="no"?>
<svg
   xmlns:dc="http://purl.org/dc/elements/1.1/"
   xmlns:cc="http://creativecommons.org/ns#"
   xmlns:rdf="http://www.w3.org/1999/02/22-rdf-syntax-ns#"
   xmlns:svg="http://www.w3.org/2000/svg"
   xmlns="http://www.w3.org/2000/svg"
   xmlns:sodipodi="http://sodipodi.sourceforge.net/DTD/sodipodi-0.dtd"
   xmlns:inkscape="http://www.inkscape.org/namespaces/inkscape"
   sodipodi:docname="66a2.svg"
   inkscape:version="1.0 (4035a4fb49, 2020-05-01)"
   id="svg1718"
   version="1.1"
   viewBox="0 0 86.343674 12.873761"
   height="12.873761mm"
   width="86.343674mm">
  <defs
     id="defs1712" />
  <sodipodi:namedview
     inkscape:window-maximized="0"
     inkscape:window-y="71"
     inkscape:window-x="1292"
     inkscape:window-height="1032"
     inkscape:window-width="1274"
     fit-margin-bottom="0"
     fit-margin-right="0"
     fit-margin-left="0"
     fit-margin-top="0"
     showgrid="false"
     inkscape:document-rotation="0"
     inkscape:current-layer="text849-3-9"
     inkscape:document-units="mm"
     inkscape:cy="231.77603"
     inkscape:cx="173.53517"
     inkscape:zoom="0.98994949"
     inkscape:pageshadow="2"
     inkscape:pageopacity="0.0"
     borderopacity="1.0"
     bordercolor="#666666"
     pagecolor="#ffffff"
     id="base" />
  <metadata
     id="metadata1715">
    <rdf:RDF>
      <cc:Work
         rdf:about="">
        <dc:format>image/svg+xml</dc:format>
        <dc:type
           rdf:resource="http://purl.org/dc/dcmitype/StillImage" />
        <dc:title></dc:title>
      </cc:Work>
    </rdf:RDF>
  </metadata>
  <g
     transform="translate(-61.905549,-85.789309)"
     id="layer1"
     inkscape:groupmode="layer"
     inkscape:label="Layer 1">
    <g
       style="font-size:6.47348px;line-height:0.95;font-family:lego;-inkscape-font-specification:lego;letter-spacing:-0.161838px;opacity:1;stroke-width:0.161838"
       id="text849-3"
       aria-label="66a Church Road">
      <path
         id="path2374"
         style="font-style:normal;font-variant:normal;font-weight:normal;font-stretch:normal;line-height:0.95;font-family:'Playfair Display';-inkscape-font-specification:'Playfair Display';stroke-width:0.161838"
         d="m 102.64804,86.300714 q -0.20068,0 -0.39489,0.110049 -0.18773,0.110049 -0.34309,0.381935 -0.14889,0.271886 -0.23952,0.731503 -0.0906,0.453144 -0.0906,1.139333 v 0.226572 q 0.0712,-0.265413 0.18126,-0.440197 0.11652,-0.181257 0.25247,-0.284833 0.14241,-0.110049 0.29778,-0.155364 0.15536,-0.04531 0.31072,-0.04531 0.25247,0 0.47904,0.09063 0.23305,0.08416 0.40783,0.265412 0.17478,0.181258 0.27836,0.453144 0.10357,0.265413 0.10357,0.627928 0,0.388408 -0.11652,0.679715 -0.11005,0.291307 -0.31072,0.485511 -0.20068,0.194205 -0.47257,0.291307 -0.27189,0.0971 -0.58261,0.0971 -0.69266,0 -1.0746,-0.543772 -0.38194,-0.550246 -0.38194,-1.637791 0,-0.582613 0.11653,-1.061651 0.12299,-0.479037 0.34309,-0.815658 0.2201,-0.336621 0.53083,-0.517879 0.31072,-0.187731 0.68619,-0.187731 0.27188,0 0.44019,0.07768 0.17479,0.07768 0.27836,0.14889 0.12947,0.0971 0.21363,0.213625 0.0906,0.116523 0.0906,0.252466 0,0.14889 -0.0971,0.245992 -0.0971,0.0971 -0.24599,0.0971 -0.14889,0 -0.25246,-0.09063 -0.10358,-0.09063 -0.10358,-0.25894 0,-0.135943 0.0712,-0.220098 0.0777,-0.08416 0.20068,-0.110049 -0.0518,-0.0971 -0.2201,-0.168311 -0.16831,-0.07768 -0.35604,-0.07768 z m -0.12947,1.793154 q -0.10358,0 -0.23952,0.05179 -0.12947,0.04531 -0.26541,0.174783 -0.12947,0.12947 -0.246,0.356042 -0.11005,0.220098 -0.16831,0.57614 0.0324,0.479037 0.11653,0.789764 0.0841,0.304254 0.1942,0.479038 0.11652,0.174784 0.25247,0.239519 0.14241,0.06473 0.27836,0.06473 0.17478,0 0.32367,-0.07121 0.15536,-0.07768 0.26541,-0.245992 0.11005,-0.168311 0.16831,-0.440197 0.0647,-0.271886 0.0647,-0.660295 0,-0.692662 -0.20715,-1.003389 -0.20068,-0.310727 -0.5373,-0.310727 z" />
      <path
         id="path2376"
         style="font-style:normal;font-variant:normal;font-weight:normal;font-stretch:normal;line-height:0.95;font-family:'Playfair Display';-inkscape-font-specification:'Playfair Display';stroke-width:0.161838"
         d="m 106.10224,86.300714 q -0.20067,0 -0.39488,0.110049 -0.18773,0.110049 -0.34309,0.381935 -0.14889,0.271886 -0.23952,0.731503 -0.0906,0.453144 -0.0906,1.139333 v 0.226572 q 0.0712,-0.265413 0.18126,-0.440197 0.11652,-0.181257 0.25246,-0.284833 0.14242,-0.110049 0.29778,-0.155364 0.15537,-0.04531 0.31073,-0.04531 0.25247,0 0.47904,0.09063 0.23304,0.08416 0.40783,0.265412 0.17478,0.181258 0.27836,0.453144 0.10357,0.265413 0.10357,0.627928 0,0.388408 -0.11652,0.679715 -0.11005,0.291307 -0.31073,0.485511 -0.20068,0.194205 -0.47256,0.291307 -0.27189,0.0971 -0.58261,0.0971 -0.69267,0 -1.0746,-0.543772 -0.38194,-0.550246 -0.38194,-1.637791 0,-0.582613 0.11652,-1.061651 0.123,-0.479037 0.3431,-0.815658 0.2201,-0.336621 0.53082,-0.517879 0.31073,-0.187731 0.68619,-0.187731 0.27189,0 0.4402,0.07768 0.17478,0.07768 0.27836,0.14889 0.12947,0.0971 0.21362,0.213625 0.0906,0.116523 0.0906,0.252466 0,0.14889 -0.0971,0.245992 -0.0971,0.0971 -0.24599,0.0971 -0.14889,0 -0.25247,-0.09063 -0.10357,-0.09063 -0.10357,-0.25894 0,-0.135943 0.0712,-0.220098 0.0777,-0.08416 0.20067,-0.110049 -0.0518,-0.0971 -0.22009,-0.168311 -0.16832,-0.07768 -0.35605,-0.07768 z m -0.12947,1.793154 q -0.10357,0 -0.23951,0.05179 -0.12947,0.04531 -0.26542,0.174783 -0.12947,0.12947 -0.24599,0.356042 -0.11005,0.220098 -0.16831,0.57614 0.0324,0.479037 0.11652,0.789764 0.0842,0.304254 0.19421,0.479038 0.11652,0.174784 0.25246,0.239519 0.14242,0.06473 0.27836,0.06473 0.17479,0 0.32368,-0.07121 0.15536,-0.07768 0.26541,-0.245992 0.11005,-0.168311 0.16831,-0.440197 0.0647,-0.271886 0.0647,-0.660295 0,-0.692662 -0.20715,-1.003389 -0.20067,-0.310727 -0.5373,-0.310727 z" />
      <path
         id="path2378"
         style="font-style:normal;font-variant:normal;font-weight:normal;font-stretch:normal;line-height:0.95;font-family:'Playfair Display';-inkscape-font-specification:'Playfair Display';stroke-width:0.161838"
         d="m 109.4723,90.333692 q -0.0777,0.161837 -0.19421,0.271886 -0.11005,0.110049 -0.23952,0.181257 -0.12947,0.06473 -0.26541,0.09063 -0.13594,0.03237 -0.25894,0.03237 -0.15536,0 -0.29131,-0.04531 -0.13594,-0.03884 -0.24599,-0.129469 -0.10357,-0.09063 -0.16831,-0.226572 -0.0583,-0.142417 -0.0583,-0.336621 0,-0.187731 0.0583,-0.330148 0.0647,-0.142416 0.18126,-0.252465 0.123,-0.116523 0.29778,-0.213625 0.18126,-0.0971 0.40783,-0.194205 0.17478,-0.07768 0.3172,-0.135943 0.14242,-0.06473 0.23952,-0.122996 0.10357,-0.06473 0.16183,-0.135943 0.0583,-0.07121 0.0583,-0.161837 v -0.401356 q 0,-0.200678 -0.0453,-0.330147 -0.0388,-0.12947 -0.11652,-0.200678 -0.0777,-0.07121 -0.18126,-0.0971 -0.0971,-0.02589 -0.21362,-0.02589 -0.0712,0 -0.16184,0.01295 -0.0842,0.0065 -0.16831,0.03237 -0.0842,0.02589 -0.16184,0.07121 -0.0712,0.04532 -0.12947,0.116523 0.123,0.02589 0.19421,0.110049 0.0777,0.08415 0.0777,0.220099 0,0.16831 -0.10358,0.258939 -0.10357,0.09063 -0.25246,0.09063 -0.14889,0 -0.24599,-0.0971 -0.0971,-0.0971 -0.0971,-0.245992 0,-0.135943 0.0842,-0.252466 0.0841,-0.122996 0.2201,-0.213625 0.13594,-0.09063 0.34956,-0.161837 0.21363,-0.07121 0.52436,-0.07121 0.28483,0 0.49198,0.07768 0.21363,0.07121 0.3431,0.258939 0.11004,0.14889 0.14241,0.356042 0.0324,0.200677 0.0324,0.537298 v 1.708999 q 0,0.187731 0.0324,0.265413 0.0388,0.07768 0.12947,0.07768 0.0906,0 0.17478,-0.05179 0.0906,-0.05179 0.16184,-0.110049 l 0.0647,0.110049 q -0.13594,0.103575 -0.25894,0.174784 -0.12299,0.06473 -0.33014,0.06473 -0.16832,0 -0.27836,-0.04531 -0.11005,-0.05179 -0.17479,-0.129469 -0.0583,-0.07768 -0.0841,-0.181258 -0.0194,-0.103576 -0.0194,-0.220098 z m -0.67325,0.3172 q 0.18774,0 0.35605,-0.110049 0.16831,-0.110049 0.3172,-0.381935 v -1.268802 q -0.0324,0.03884 -0.0971,0.09063 -0.0647,0.04532 -0.15536,0.0971 -0.0842,0.04531 -0.18126,0.0971 -0.0971,0.05179 -0.18773,0.09063 -0.27836,0.129469 -0.40783,0.330147 -0.12299,0.200678 -0.12299,0.491985 0,0.291306 0.12947,0.427249 0.13594,0.135943 0.34956,0.135943 z" />
      <path
         id="path2380"
         style="font-style:normal;font-variant:normal;font-weight:normal;font-stretch:normal;line-height:0.95;font-family:'Playfair Display';-inkscape-font-specification:'Playfair Display';stroke-width:0.161838"
         d="m 115.79253,87.770194 q -0.0324,-0.207152 -0.0647,-0.349568 -0.0259,-0.142417 -0.0647,-0.245993 -0.0324,-0.110049 -0.0842,-0.18773 -0.0453,-0.08416 -0.11005,-0.174784 -0.20715,-0.265413 -0.5114,-0.381936 -0.29778,-0.122996 -0.63441,-0.122996 -0.3172,0 -0.57614,0.161837 -0.25246,0.155364 -0.44019,0.453144 -0.18126,0.291306 -0.28483,0.718556 -0.0971,0.420776 -0.0971,0.945128 0,0.543773 0.11005,0.964549 0.11005,0.414302 0.30426,0.699136 0.20067,0.284833 0.46609,0.433723 0.27188,0.142416 0.58261,0.142416 0.14242,0 0.29778,-0.02589 0.16184,-0.03237 0.31073,-0.09063 0.14889,-0.05826 0.27836,-0.14889 0.12947,-0.0971 0.22009,-0.226572 0.0712,-0.0971 0.11653,-0.194205 0.0453,-0.0971 0.0777,-0.213624 0.0324,-0.122997 0.0518,-0.271887 0.0259,-0.14889 0.0518,-0.343094 h 0.14889 q 0,0.589087 0.006,0.951602 0.006,0.356041 0.0194,0.602033 h -0.14889 q -0.0259,-0.278359 -0.0906,-0.349568 -0.0583,-0.07121 -0.20068,0.01942 -0.11652,0.08416 -0.24599,0.161837 -0.123,0.07768 -0.26541,0.135943 -0.14242,0.05826 -0.31073,0.09063 -0.16831,0.03237 -0.37546,0.03237 -0.45962,0 -0.84155,-0.155364 -0.37547,-0.161837 -0.64735,-0.459617 -0.26542,-0.304253 -0.41431,-0.737976 -0.14889,-0.433724 -0.14889,-0.990443 0,-0.543772 0.14889,-0.990442 0.15537,-0.446671 0.42725,-0.763871 0.27189,-0.317201 0.64735,-0.491985 0.38194,-0.174784 0.83508,-0.174784 0.42725,0 0.69914,0.12947 0.27836,0.122996 0.49198,0.291307 0.12947,0.0971 0.19421,0.02589 0.0712,-0.07768 0.0971,-0.356042 h 0.14889 q -0.013,0.239519 -0.0194,0.582613 -0.006,0.343095 -0.006,0.906288 z" />
      <path
         id="path2382"
         style="font-style:normal;font-variant:normal;font-weight:normal;font-stretch:normal;line-height:0.95;font-family:'Playfair Display';-inkscape-font-specification:'Playfair Display';stroke-width:0.161838"
         d="m 117.44003,88.216864 q 0.16832,-0.433723 0.4661,-0.602034 0.30425,-0.174784 0.6344,-0.174784 0.24599,0 0.40783,0.06473 0.16831,0.06473 0.27836,0.181257 0.12299,0.12947 0.17478,0.323674 0.0518,0.194205 0.0518,0.524352 v 1.72842 q 0,0.271886 0.11005,0.368988 0.11005,0.0971 0.38193,0.0971 v 0.135943 q -0.11005,-0.0065 -0.33662,-0.01295 -0.22657,-0.01295 -0.4402,-0.01295 -0.21362,0 -0.42077,0.01295 -0.20068,0.0065 -0.30426,0.01295 v -0.135943 q 0.23305,0 0.33015,-0.0971 0.0971,-0.0971 0.0971,-0.368988 v -1.870836 q 0,-0.14889 -0.0194,-0.284833 -0.0129,-0.135943 -0.0712,-0.233046 -0.0518,-0.103575 -0.15537,-0.161837 -0.10357,-0.06473 -0.27836,-0.06473 -0.20068,0 -0.36899,0.09063 -0.16183,0.08416 -0.28483,0.239519 -0.11652,0.155364 -0.18773,0.368988 -0.0647,0.213625 -0.0647,0.472564 v 1.443587 q 0,0.271886 0.0971,0.368988 0.0971,0.0971 0.33014,0.0971 v 0.135943 q -0.10357,-0.0065 -0.31072,-0.01295 -0.20068,-0.01295 -0.41431,-0.01295 -0.21362,0 -0.44019,0.01295 -0.22657,0.0065 -0.33662,0.01295 v -0.135943 q 0.27188,0 0.38193,-0.0971 0.11005,-0.0971 0.11005,-0.368988 V 86.5726 q 0,-0.291307 -0.10357,-0.42725 -0.10358,-0.142416 -0.38841,-0.142416 V 85.86699 q 0.20067,0.01942 0.40135,0.01942 0.18773,0 0.35604,-0.01942 0.17479,-0.01942 0.3172,-0.07121 z" />
      <path
         id="path2384"
         style="font-style:normal;font-variant:normal;font-weight:normal;font-stretch:normal;line-height:0.95;font-family:'Playfair Display';-inkscape-font-specification:'Playfair Display';stroke-width:0.161838"
         d="m 122.41096,90.178328 q -0.16831,0.42725 -0.45962,0.602034 -0.29131,0.174784 -0.60203,0.174784 -0.4402,0 -0.67324,-0.245992 -0.123,-0.12947 -0.16832,-0.330148 -0.0453,-0.207151 -0.0453,-0.517878 v -1.624844 q 0,-0.291306 -0.10358,-0.427249 -0.10357,-0.142417 -0.3884,-0.142417 v -0.135943 q 0.20067,0.01942 0.40135,0.01942 0.18773,0 0.35604,-0.01942 0.17479,-0.01942 0.3172,-0.07121 v 2.544077 q 0,0.14889 0.006,0.284833 0.0129,0.135944 0.0583,0.239519 0.0518,0.103576 0.14889,0.161837 0.10357,0.05826 0.27836,0.05826 0.18773,0 0.34957,-0.09063 0.16183,-0.09063 0.27836,-0.245992 0.11652,-0.161837 0.18125,-0.375462 0.0647,-0.213625 0.0647,-0.459617 v -1.340011 q 0,-0.291306 -0.10358,-0.427249 -0.10357,-0.142417 -0.38841,-0.142417 v -0.135943 q 0.20068,0.01942 0.40136,0.01942 0.18773,0 0.35604,-0.01942 0.17478,-0.01942 0.3172,-0.07121 v 2.705914 q 0,0.291307 0.10358,0.433724 0.10357,0.135943 0.38841,0.135943 v 0.135943 q -0.20716,-0.01942 -0.40136,-0.01942 -0.18773,0 -0.36251,0.01942 -0.16832,0.01942 -0.31073,0.07121 z" />
      <path
         id="path2386"
         style="font-style:normal;font-variant:normal;font-weight:normal;font-stretch:normal;line-height:0.95;font-family:'Playfair Display';-inkscape-font-specification:'Playfair Display';stroke-width:0.161838"
         d="m 125.76473,87.673091 q -0.0453,-0.06473 -0.13595,-0.06473 -0.20715,0 -0.37546,0.122996 -0.16184,0.122996 -0.27836,0.310727 -0.11652,0.181257 -0.18126,0.394882 -0.0647,0.207151 -0.0647,0.388409 v 1.372378 q 0,0.3172 0.18126,0.427249 0.18125,0.103576 0.50493,0.103576 v 0.135943 q -0.14889,-0.0065 -0.42078,-0.01295 -0.27188,-0.01295 -0.57614,-0.01295 -0.22657,0 -0.44019,0.01295 -0.21363,0.0065 -0.32368,0.01295 v -0.135943 q 0.27189,0 0.38194,-0.0971 0.11005,-0.0971 0.11005,-0.368988 v -2.0262 q 0,-0.291306 -0.10358,-0.427249 -0.10358,-0.142417 -0.38841,-0.142417 v -0.135943 q 0.20068,0.01942 0.40136,0.01942 0.18773,0 0.35604,-0.01942 0.17478,-0.01942 0.3172,-0.07121 v 0.809185 q 0.0518,-0.142417 0.13594,-0.284833 0.0906,-0.148891 0.21363,-0.265413 0.12299,-0.122996 0.27188,-0.200678 0.14889,-0.07768 0.3172,-0.07768 0.26542,0 0.42725,0.155364 0.16184,0.14889 0.16184,0.356041 0,0.142417 -0.0971,0.245992 -0.0971,0.0971 -0.25247,0.0971 -0.14241,0 -0.24599,-0.09063 -0.10358,-0.0971 -0.10358,-0.252466 0,-0.110049 0.0518,-0.174784 0.0583,-0.06473 0.15537,-0.103576 z" />
      <path
         id="path2388"
         style="font-style:normal;font-variant:normal;font-weight:normal;font-stretch:normal;line-height:0.95;font-family:'Playfair Display';-inkscape-font-specification:'Playfair Display';stroke-width:0.161838"
         d="m 128.00071,90.676786 q 0.25893,0 0.51787,-0.14889 0.25894,-0.14889 0.42725,-0.517878 l 0.123,0.04531 q -0.0518,0.155364 -0.14889,0.317201 -0.0906,0.161837 -0.23952,0.291306 -0.14242,0.12947 -0.34309,0.207152 -0.19421,0.08415 -0.45315,0.08415 -0.30425,0 -0.56966,-0.116523 -0.25894,-0.116522 -0.45315,-0.336621 -0.1942,-0.226571 -0.30425,-0.543772 -0.11005,-0.317201 -0.11005,-0.718556 0,-0.394883 0.11005,-0.72503 0.11005,-0.336621 0.31073,-0.569666 0.20067,-0.239519 0.47903,-0.368989 0.27836,-0.135943 0.61498,-0.135943 0.20716,0 0.40136,0.05179 0.1942,0.05179 0.34309,0.155364 0.14242,0.09063 0.2201,0.220098 0.0842,0.122996 0.0842,0.27836 0,0.174783 -0.0971,0.271886 -0.0971,0.09063 -0.246,0.09063 -0.14889,0 -0.25246,-0.09063 -0.10358,-0.09063 -0.10358,-0.25894 0,-0.135943 0.0712,-0.220098 0.0777,-0.08415 0.20068,-0.110049 -0.0647,-0.116523 -0.23305,-0.194204 -0.16183,-0.07768 -0.34956,-0.07768 -0.16184,0 -0.33015,0.07768 -0.16184,0.07121 -0.29778,0.258939 -0.12947,0.181257 -0.21363,0.491984 -0.0841,0.310727 -0.0841,0.776818 0,0.420776 0.0712,0.712083 0.0777,0.284833 0.20715,0.46609 0.12947,0.174784 0.2913,0.25894 0.16831,0.07768 0.35605,0.07768 z" />
      <path
         id="path2390"
         style="font-style:normal;font-variant:normal;font-weight:normal;font-stretch:normal;line-height:0.95;font-family:'Playfair Display';-inkscape-font-specification:'Playfair Display';stroke-width:0.161838"
         d="m 130.34653,88.216864 q 0.16831,-0.433723 0.46609,-0.602034 0.30426,-0.174784 0.6344,-0.174784 0.246,0 0.40783,0.06473 0.16831,0.06473 0.27836,0.181257 0.123,0.12947 0.17479,0.323674 0.0518,0.194205 0.0518,0.524352 v 1.72842 q 0,0.271886 0.11004,0.368988 0.11005,0.0971 0.38194,0.0971 v 0.135943 q -0.11005,-0.0065 -0.33662,-0.01295 -0.22657,-0.01295 -0.4402,-0.01295 -0.21362,0 -0.42077,0.01295 -0.20068,0.0065 -0.30426,0.01295 v -0.135943 q 0.23305,0 0.33015,-0.0971 0.0971,-0.0971 0.0971,-0.368988 v -1.870836 q 0,-0.14889 -0.0194,-0.284833 -0.0129,-0.135943 -0.0712,-0.233046 -0.0518,-0.103575 -0.15536,-0.161837 -0.10358,-0.06473 -0.27836,-0.06473 -0.20068,0 -0.36899,0.09063 -0.16184,0.08416 -0.28483,0.239519 -0.11652,0.155364 -0.18773,0.368988 -0.0647,0.213625 -0.0647,0.472564 v 1.443587 q 0,0.271886 0.0971,0.368988 0.0971,0.0971 0.33015,0.0971 v 0.135943 q -0.10357,-0.0065 -0.31072,-0.01295 -0.20068,-0.01295 -0.41431,-0.01295 -0.21362,0 -0.44019,0.01295 -0.22658,0.0065 -0.33662,0.01295 v -0.135943 q 0.27188,0 0.38193,-0.0971 0.11005,-0.0971 0.11005,-0.368988 V 86.5726 q 0,-0.291307 -0.10358,-0.42725 -0.10357,-0.142416 -0.3884,-0.142416 V 85.86699 q 0.20067,0.01942 0.40135,0.01942 0.18773,0 0.35604,-0.01942 0.17479,-0.01942 0.3172,-0.07121 z" />
      <path
         id="path2392"
         style="font-style:normal;font-variant:normal;font-weight:normal;font-stretch:normal;line-height:0.95;font-family:'Playfair Display';-inkscape-font-specification:'Playfair Display';stroke-width:0.161838"
         d="m 138.52122,90.540843 q -0.13594,0.200678 -0.28483,0.310727 -0.14242,0.103576 -0.40783,0.103576 -0.123,0 -0.23305,-0.03237 -0.10357,-0.03237 -0.1942,-0.11005 -0.0842,-0.07768 -0.15537,-0.213624 -0.0647,-0.135944 -0.11005,-0.343095 l -0.14241,-0.647348 q -0.0453,-0.207151 -0.0971,-0.375462 -0.0453,-0.16831 -0.123,-0.291306 -0.0777,-0.122997 -0.20068,-0.187731 -0.11652,-0.06473 -0.31073,-0.06473 h -0.61498 v 1.4889 q 0,0.174784 0.0194,0.284833 0.0194,0.103576 0.0777,0.161837 0.0583,0.05826 0.15536,0.08416 0.10358,0.01942 0.27189,0.02589 v 0.129469 q -0.14889,-0.01295 -0.37547,-0.01295 -0.22009,-0.0065 -0.44667,-0.0065 -0.25246,0 -0.47256,0.0065 -0.2201,0 -0.35604,0.01295 v -0.129469 q 0.16184,-0.0065 0.26541,-0.02589 0.10358,-0.02589 0.16184,-0.08416 0.0583,-0.05826 0.0777,-0.161837 0.0194,-0.110049 0.0194,-0.284833 v -3.210846 q 0,-0.174784 -0.0194,-0.27836 -0.0194,-0.110049 -0.0777,-0.16831 -0.0583,-0.05826 -0.16184,-0.07768 -0.10357,-0.02589 -0.26541,-0.03237 v -0.12947 q 0.13594,0.01295 0.35604,0.01942 0.2201,0 0.43372,0 0.15537,0 0.30426,0 0.14889,-0.0065 0.27836,-0.0065 0.12947,0 0.23304,0 0.10358,-0.0065 0.16184,-0.0065 0.38841,0 0.67971,0.09063 0.29778,0.08416 0.49199,0.239519 0.1942,0.14889 0.2913,0.356042 0.0971,0.200677 0.0971,0.440196 0,0.168311 -0.0583,0.362515 -0.0583,0.194205 -0.20068,0.375462 -0.14242,0.174784 -0.38841,0.310727 -0.23952,0.135943 -0.60203,0.194204 0.0194,0.0065 0.0324,0.01295 0.0194,0 0.0388,0 0.21363,0.03884 0.36899,0.103576 0.15537,0.05826 0.26541,0.161837 0.11005,0.0971 0.18126,0.245992 0.0712,0.142417 0.11652,0.343095 l 0.14889,0.660295 q 0.0647,0.291306 0.123,0.414303 0.0647,0.122996 0.20715,0.116522 0.11005,-0.0065 0.18126,-0.07121 0.0712,-0.06473 0.16184,-0.174784 z m -2.87423,-1.980885 h 0.43373 q 0.34309,0 0.56319,-0.08415 0.2201,-0.08415 0.34309,-0.226572 0.123,-0.14889 0.16831,-0.343094 0.0453,-0.194205 0.0453,-0.420776 0,-0.511405 -0.24599,-0.789765 -0.23952,-0.284833 -0.82861,-0.284833 -0.14889,0 -0.24599,0.02589 -0.0906,0.01942 -0.14242,0.08416 -0.0518,0.06473 -0.0712,0.174784 -0.0194,0.103576 -0.0194,0.271886 z" />
      <path
         id="path2394"
         style="font-style:normal;font-variant:normal;font-weight:normal;font-stretch:normal;line-height:0.95;font-family:'Playfair Display';-inkscape-font-specification:'Playfair Display';stroke-width:0.161838"
         d="m 138.52557,89.200833 q 0,-0.466091 0.11005,-0.796238 0.11652,-0.336621 0.3172,-0.550246 0.20068,-0.213625 0.46609,-0.310727 0.26541,-0.103576 0.57614,-0.103576 0.31073,0 0.57614,0.103576 0.26541,0.0971 0.46609,0.310727 0.20068,0.213625 0.31073,0.550246 0.11652,0.330147 0.11652,0.796238 0,0.46609 -0.11652,0.802711 -0.11005,0.330148 -0.31073,0.543773 -0.20068,0.207151 -0.46609,0.310727 -0.26541,0.0971 -0.57614,0.0971 -0.31073,0 -0.57614,-0.0971 -0.26541,-0.103576 -0.46609,-0.310727 -0.20068,-0.213625 -0.3172,-0.543773 -0.11005,-0.336621 -0.11005,-0.802711 z m 0.62793,0 q 0,0.433723 0.0583,0.74445 0.0647,0.304254 0.17478,0.504931 0.11653,0.194205 0.26542,0.284834 0.15536,0.09063 0.34309,0.09063 0.18126,0 0.33662,-0.09063 0.15537,-0.09063 0.26541,-0.284834 0.11653,-0.200677 0.17479,-0.504931 0.0647,-0.310727 0.0647,-0.74445 0,-0.433723 -0.0647,-0.74445 -0.0583,-0.310727 -0.17479,-0.504932 -0.11004,-0.200678 -0.26541,-0.291306 -0.15536,-0.09063 -0.33662,-0.09063 -0.18773,0 -0.34309,0.09063 -0.14889,0.09063 -0.26542,0.291306 -0.11005,0.194205 -0.17478,0.504932 -0.0583,0.310727 -0.0583,0.74445 z" />
      <path
         id="path2396"
         style="font-style:normal;font-variant:normal;font-weight:normal;font-stretch:normal;line-height:0.95;font-family:'Playfair Display';-inkscape-font-specification:'Playfair Display';stroke-width:0.161838"
         d="m 143.59966,90.333692 q -0.0777,0.161837 -0.1942,0.271886 -0.11005,0.110049 -0.23952,0.181257 -0.12947,0.06473 -0.26541,0.09063 -0.13595,0.03237 -0.25894,0.03237 -0.15537,0 -0.29131,-0.04531 -0.13594,-0.03884 -0.24599,-0.129469 -0.10358,-0.09063 -0.16831,-0.226572 -0.0583,-0.142417 -0.0583,-0.336621 0,-0.187731 0.0583,-0.330148 0.0647,-0.142416 0.18126,-0.252465 0.12299,-0.116523 0.29778,-0.213625 0.18125,-0.0971 0.40783,-0.194205 0.17478,-0.07768 0.3172,-0.135943 0.14241,-0.06473 0.23951,-0.122996 0.10358,-0.06473 0.16184,-0.135943 0.0583,-0.07121 0.0583,-0.161837 v -0.401356 q 0,-0.200678 -0.0453,-0.330147 -0.0388,-0.12947 -0.11652,-0.200678 -0.0777,-0.07121 -0.18126,-0.0971 -0.0971,-0.02589 -0.21363,-0.02589 -0.0712,0 -0.16183,0.01295 -0.0842,0.0065 -0.16831,0.03237 -0.0842,0.02589 -0.16184,0.07121 -0.0712,0.04532 -0.12947,0.116523 0.123,0.02589 0.1942,0.110049 0.0777,0.08415 0.0777,0.220099 0,0.16831 -0.10358,0.258939 -0.10358,0.09063 -0.25247,0.09063 -0.14889,0 -0.24599,-0.0971 -0.0971,-0.0971 -0.0971,-0.245992 0,-0.135943 0.0842,-0.252466 0.0842,-0.122996 0.22009,-0.213625 0.13595,-0.09063 0.34957,-0.161837 0.21363,-0.07121 0.52435,-0.07121 0.28484,0 0.49199,0.07768 0.21362,0.07121 0.34309,0.258939 0.11005,0.14889 0.14242,0.356042 0.0324,0.200677 0.0324,0.537298 v 1.708999 q 0,0.187731 0.0324,0.265413 0.0388,0.07768 0.12947,0.07768 0.0906,0 0.17479,-0.05179 0.0906,-0.05179 0.16183,-0.110049 l 0.0647,0.110049 q -0.13594,0.103575 -0.25894,0.174784 -0.123,0.06473 -0.33015,0.06473 -0.16831,0 -0.27836,-0.04531 -0.11005,-0.05179 -0.17478,-0.129469 -0.0583,-0.07768 -0.0842,-0.181258 -0.0194,-0.103576 -0.0194,-0.220098 z m -0.67324,0.3172 q 0.18773,0 0.35604,-0.110049 0.16831,-0.110049 0.3172,-0.381935 v -1.268802 q -0.0324,0.03884 -0.0971,0.09063 -0.0647,0.04532 -0.15536,0.0971 -0.0842,0.04531 -0.18126,0.0971 -0.0971,0.05179 -0.18773,0.09063 -0.27836,0.129469 -0.40783,0.330147 -0.123,0.200678 -0.123,0.491985 0,0.291306 0.12947,0.427249 0.13595,0.135943 0.34957,0.135943 z" />
      <path
         id="path2398"
         style="font-style:normal;font-variant:normal;font-weight:normal;font-stretch:normal;line-height:0.95;font-family:'Playfair Display';-inkscape-font-specification:'Playfair Display';stroke-width:0.161838"
         d="m 146.24883,90.955146 q -0.27836,0 -0.52435,-0.103576 -0.23952,-0.110049 -0.4143,-0.330147 -0.17479,-0.220099 -0.27836,-0.550246 -0.0971,-0.330148 -0.0971,-0.770344 0,-0.440197 0.10357,-0.770344 0.11005,-0.330148 0.29778,-0.550246 0.19421,-0.220098 0.44667,-0.330148 0.25894,-0.110049 0.55025,-0.110049 0.2913,0 0.49198,0.09063 0.20715,0.08415 0.34957,0.27836 v -1.242909 q 0,-0.291306 -0.10358,-0.427249 -0.10357,-0.142417 -0.3884,-0.142417 v -0.135943 q 0.20067,0.01942 0.40135,0.01942 0.18773,0 0.35604,-0.01942 0.17479,-0.01942 0.3172,-0.07121 v 4.369599 q 0,0.291306 0.10358,0.433723 0.10357,0.135943 0.38841,0.135943 v 0.135943 q -0.20715,-0.01942 -0.40136,-0.01942 -0.18773,0 -0.36251,0.01942 -0.16831,0.01942 -0.31073,0.07121 v -0.640874 q -0.12947,0.323674 -0.37546,0.491984 -0.23952,0.168311 -0.55025,0.168311 z m 0.18773,-0.194204 q 0.23305,0 0.4402,-0.194205 0.20715,-0.200678 0.29778,-0.59556 v -1.961465 q -0.12947,-0.213624 -0.33662,-0.3172 -0.20068,-0.103576 -0.45314,-0.103576 -0.38194,0 -0.60851,0.394883 -0.2201,0.394882 -0.21363,1.217014 -0.006,1.560109 0.87392,1.560109 z" />
    </g>
    <g
       style="font-size:3.98081px;line-height:0.95;font-family:lego;-inkscape-font-specification:lego;letter-spacing:-0.0995209px;opacity:1;stroke-width:0.0995209"
       id="text849-3-9"
       aria-label="A Lament, Made of Memories and Kept in Suitcases">
      <path
         id="path2293"
         style="font-style:normal;font-variant:normal;font-weight:normal;font-stretch:normal;line-height:0.95;font-family:'Playfair Display';-inkscape-font-specification:'Playfair Display';stroke-width:0.0995209"
         d="m 63.505834,96.875686 h -0.951413 l -0.250791,0.652853 q -0.03981,0.103501 -0.04777,0.167194 -0.004,0.05971 0.02388,0.09554 0.02787,0.03583 0.08758,0.05175 0.06369,0.01592 0.167194,0.0199 v 0.07962 q -0.05971,-0.008 -0.159233,-0.008 -0.09554,-0.004 -0.203021,-0.004 -0.06767,0 -0.143309,0.004 -0.07165,0 -0.123405,0.008 v -0.07962 q 0.06369,-0.004 0.139328,-0.05175 0.07564,-0.05175 0.135348,-0.203021 l 0.971317,-2.503929 h 0.06369 l 0.971318,2.503929 q 0.05971,0.151271 0.135347,0.203021 0.07564,0.04777 0.139329,0.05175 v 0.07962 q -0.07962,-0.008 -0.19506,-0.008 -0.115443,-0.004 -0.230887,-0.004 -0.155251,0 -0.290599,0.004 -0.135348,0 -0.218945,0.008 v -0.07962 q 0.09952,-0.004 0.163214,-0.0199 0.06369,-0.01592 0.09156,-0.05175 0.02787,-0.03583 0.0199,-0.09554 -0.004,-0.06369 -0.04379,-0.167194 z m -0.923548,-0.07962 h 0.891702 l -0.44187,-1.158416 z" />
      <path
         id="path2295"
         style="font-style:normal;font-variant:normal;font-weight:normal;font-stretch:normal;line-height:0.95;font-family:'Playfair Display';-inkscape-font-specification:'Playfair Display';stroke-width:0.0995209"
         d="m 67.434892,97.106573 q -0.01194,0.127386 -0.01194,0.326426 0,0.07564 0.004,0.218945 0.008,0.139328 0.02389,0.290599 -0.103501,-0.004 -0.222926,-0.004 -0.115443,-0.004 -0.234868,-0.004 -0.119424,-0.004 -0.238848,-0.004 -0.115444,0 -0.214964,0 -0.09156,0 -0.226906,0 -0.135348,0 -0.29458,0.004 -0.155252,0 -0.322446,0.004 -0.163213,0 -0.310503,0.004 v -0.07962 q 0.09952,-0.004 0.163213,-0.01592 0.06369,-0.01592 0.09952,-0.05175 0.03583,-0.03583 0.04777,-0.09952 0.01194,-0.06767 0.01194,-0.175156 v -1.974482 q 0,-0.107481 -0.01194,-0.171174 -0.01194,-0.06767 -0.04777,-0.103501 -0.03583,-0.03583 -0.09952,-0.04777 -0.06369,-0.01592 -0.163213,-0.0199 v -0.07962 q 0.0836,0.008 0.218945,0.01194 0.135347,0 0.290599,0 0.139328,0 0.274676,0 0.139328,-0.004 0.230887,-0.01194 v 0.07962 q -0.103501,0.004 -0.167194,0.0199 -0.05971,0.01194 -0.09554,0.04777 -0.03583,0.03583 -0.04777,0.103501 -0.01194,0.06369 -0.01194,0.171174 v 1.974482 q 0,0.107482 0.01194,0.175156 0.01194,0.06369 0.04777,0.09952 0.03583,0.03583 0.09554,0.04777 0.06369,0.008 0.167194,0.008 h 0.489639 q 0.09952,0 0.175156,-0.03583 0.07962,-0.03981 0.135348,-0.127386 0.05573,-0.08758 0.09156,-0.230887 0.03583,-0.143309 0.05175,-0.350311 z" />
      <path
         id="path2297"
         style="font-style:normal;font-variant:normal;font-weight:normal;font-stretch:normal;line-height:0.95;font-family:'Playfair Display';-inkscape-font-specification:'Playfair Display';stroke-width:0.0995209"
         d="m 68.672675,97.616117 q -0.04777,0.09952 -0.119424,0.167194 -0.06767,0.06767 -0.14729,0.111462 -0.07962,0.03981 -0.163214,0.05573 -0.0836,0.0199 -0.159232,0.0199 -0.09554,0 -0.179136,-0.02787 -0.0836,-0.02389 -0.151271,-0.07962 -0.06369,-0.05573 -0.103501,-0.139329 -0.03583,-0.08758 -0.03583,-0.207002 0,-0.115443 0.03583,-0.203021 0.03981,-0.08758 0.111462,-0.155252 0.07564,-0.07165 0.183118,-0.131366 0.111462,-0.05971 0.250791,-0.119425 0.107482,-0.04777 0.195059,-0.0836 0.08758,-0.03981 0.14729,-0.07564 0.06369,-0.03981 0.09952,-0.0836 0.03583,-0.04379 0.03583,-0.09952 v -0.24681 q 0,-0.123406 -0.02787,-0.203022 -0.02388,-0.07962 -0.07165,-0.123405 -0.04777,-0.04379 -0.111463,-0.05971 -0.05971,-0.01592 -0.131367,-0.01592 -0.04379,0 -0.09952,0.008 -0.05175,0.004 -0.103501,0.0199 -0.05175,0.01592 -0.09952,0.04379 -0.04379,0.02787 -0.07962,0.07165 0.07564,0.01592 0.119424,0.06767 0.04777,0.05175 0.04777,0.135347 0,0.103501 -0.06369,0.159233 -0.06369,0.05573 -0.155252,0.05573 -0.09156,0 -0.151271,-0.05971 -0.05971,-0.05971 -0.05971,-0.151271 0,-0.0836 0.05175,-0.155252 0.05175,-0.07563 0.135347,-0.131366 0.0836,-0.05573 0.214964,-0.09952 0.131367,-0.04379 0.322445,-0.04379 0.175156,0 0.302542,0.04777 0.131367,0.04379 0.210983,0.159233 0.06767,0.09156 0.08758,0.218944 0.0199,0.123405 0.0199,0.330407 v 1.050934 q 0,0.115444 0.0199,0.163213 0.02388,0.04777 0.07962,0.04777 0.05573,0 0.107482,-0.03185 0.05573,-0.03185 0.09952,-0.06767 l 0.03981,0.06767 q -0.0836,0.06369 -0.159232,0.107482 -0.07564,0.03981 -0.203021,0.03981 -0.103501,0 -0.171175,-0.02787 -0.06767,-0.03185 -0.107482,-0.07962 -0.03583,-0.04777 -0.05175,-0.111463 -0.01194,-0.06369 -0.01194,-0.135347 z m -0.414004,0.195059 q 0.115443,0 0.218944,-0.06767 0.103501,-0.06767 0.19506,-0.234868 v -0.780239 q -0.0199,0.02388 -0.05971,0.05573 -0.03981,0.02787 -0.09554,0.05971 -0.05175,0.02787 -0.111462,0.05971 -0.05971,0.03185 -0.115444,0.05573 -0.171175,0.07962 -0.250791,0.203021 -0.07564,0.123405 -0.07564,0.302542 0,0.179136 0.07962,0.262733 0.0836,0.0836 0.214964,0.0836 z" />
      <path
         id="path2299"
         style="font-style:normal;font-variant:normal;font-weight:normal;font-stretch:normal;line-height:0.95;font-family:'Playfair Display';-inkscape-font-specification:'Playfair Display';stroke-width:0.0995209"
         d="m 70.739647,95.836695 q 0.270696,0 0.414005,0.15127 0.09554,0.107482 0.119424,0.322446 0.05175,-0.135348 0.127386,-0.226906 0.07563,-0.09156 0.163213,-0.143309 0.08758,-0.05573 0.183117,-0.07962 0.09554,-0.02388 0.191079,-0.02388 0.270695,0 0.414005,0.15127 0.07563,0.07962 0.103501,0.207002 0.02787,0.123406 0.02787,0.314484 v 1.062877 q 0,0.167194 0.06767,0.226906 0.06767,0.05971 0.234868,0.05971 v 0.0836 q -0.06767,-0.004 -0.207002,-0.008 -0.139329,-0.008 -0.270695,-0.008 -0.131367,0 -0.258753,0.008 -0.123405,0.004 -0.187098,0.008 v -0.0836 q 0.143309,0 0.203021,-0.05971 0.05971,-0.05971 0.05971,-0.226906 v -1.150454 q 0,-0.09156 -0.008,-0.175156 -0.008,-0.0836 -0.03981,-0.143309 -0.02787,-0.06369 -0.08758,-0.09952 -0.05971,-0.03981 -0.167194,-0.03981 -0.115444,0 -0.214964,0.05573 -0.09952,0.05573 -0.171175,0.155251 -0.07165,0.09554 -0.111462,0.226907 -0.03981,0.131366 -0.03981,0.282637 v 0.887721 q 0,0.167194 0.06767,0.226906 0.06767,0.05971 0.234868,0.05971 v 0.0836 q -0.06767,-0.004 -0.207002,-0.008 -0.139328,-0.008 -0.270695,-0.008 -0.131367,0 -0.258753,0.008 -0.123405,0.004 -0.187098,0.008 v -0.0836 q 0.143309,0 0.203021,-0.05971 0.05971,-0.05971 0.05971,-0.226906 v -1.150454 q 0,-0.09156 -0.008,-0.175156 -0.008,-0.0836 -0.03981,-0.143309 -0.02787,-0.06369 -0.08758,-0.09952 -0.05971,-0.03981 -0.167194,-0.03981 -0.115443,0 -0.214964,0.05573 -0.09952,0.05573 -0.171175,0.155251 -0.07165,0.09554 -0.111462,0.230887 -0.03981,0.131367 -0.03981,0.282638 v 0.88374 q 0,0.167194 0.05971,0.226906 0.05971,0.05971 0.203021,0.05971 v 0.0836 q -0.06369,-0.004 -0.191079,-0.008 -0.123405,-0.008 -0.254772,-0.008 -0.131366,0 -0.270695,0.008 -0.139328,0.004 -0.207002,0.008 v -0.0836 q 0.167194,0 0.234868,-0.05971 0.06767,-0.05971 0.06767,-0.226906 v -1.245994 q 0,-0.179136 -0.06369,-0.262733 -0.06369,-0.08758 -0.238849,-0.08758 v -0.0836 q 0.123405,0.01194 0.24681,0.01194 0.115444,0 0.218945,-0.01194 0.107482,-0.01194 0.19506,-0.04379 v 0.469736 q 0.103501,-0.262734 0.282637,-0.370216 0.179137,-0.111462 0.370215,-0.111462 z" />
      <path
         id="path2301"
         style="font-style:normal;font-variant:normal;font-weight:normal;font-stretch:normal;line-height:0.95;font-family:'Playfair Display';-inkscape-font-specification:'Playfair Display';stroke-width:0.0995209"
         d="m 73.847166,97.998274 q -0.214964,0 -0.386138,-0.07563 -0.171175,-0.07564 -0.290599,-0.210983 -0.115444,-0.135347 -0.179137,-0.326426 -0.05971,-0.191079 -0.05971,-0.417985 0,-0.262734 0.06369,-0.469736 0.06369,-0.210983 0.179136,-0.358273 0.119425,-0.14729 0.286619,-0.222925 0.167194,-0.07962 0.370215,-0.07962 0.350311,0 0.545371,0.210983 0.19904,0.210982 0.19904,0.664795 h -1.245993 q -0.008,0.05573 -0.01194,0.123405 0,0.06369 0,0.131367 0,0.203021 0.05175,0.366234 0.05175,0.159233 0.135348,0.270695 0.08758,0.111463 0.195059,0.171175 0.111463,0.05573 0.226906,0.05573 0.179137,0 0.330408,-0.08758 0.15127,-0.08758 0.254771,-0.310504 l 0.07962,0.03185 q -0.03185,0.09952 -0.09952,0.19506 -0.06369,0.09554 -0.159232,0.171174 -0.09156,0.07564 -0.214964,0.119425 -0.123405,0.04777 -0.270695,0.04777 z M 73.81532,95.91233 q -0.179137,0 -0.318465,0.175156 -0.139328,0.175155 -0.171175,0.549351 h 0.867817 q 0.004,-0.14729 -0.01592,-0.278656 -0.0199,-0.131367 -0.06767,-0.230887 -0.04777,-0.09952 -0.123405,-0.155252 -0.07166,-0.05971 -0.171175,-0.05971 z" />
      <path
         id="path2303"
         style="font-style:normal;font-variant:normal;font-weight:normal;font-stretch:normal;line-height:0.95;font-family:'Playfair Display';-inkscape-font-specification:'Playfair Display';stroke-width:0.0995209"
         d="m 76.131405,95.836695 q 0.15127,0 0.250791,0.03981 0.103501,0.03981 0.171174,0.111462 0.07564,0.07962 0.107482,0.199041 0.03185,0.119424 0.03185,0.322445 v 1.062877 q 0,0.167194 0.06767,0.226906 0.06767,0.05971 0.234867,0.05971 v 0.0836 q -0.06767,-0.004 -0.207002,-0.008 -0.139328,-0.008 -0.270695,-0.008 -0.131367,0 -0.258752,0.008 -0.123406,0.004 -0.187099,0.008 v -0.0836 q 0.14331,0 0.203022,-0.05971 0.05971,-0.05971 0.05971,-0.226906 v -1.150454 q 0,-0.09156 -0.01194,-0.175156 -0.008,-0.0836 -0.04379,-0.143309 -0.03185,-0.06369 -0.09554,-0.09952 -0.06369,-0.03981 -0.171175,-0.03981 -0.127386,0 -0.230887,0.05573 -0.09952,0.05573 -0.175155,0.155251 -0.07165,0.09554 -0.111463,0.230887 -0.03981,0.131367 -0.03981,0.282638 v 0.88374 q 0,0.167194 0.05971,0.226906 0.05971,0.05971 0.203021,0.05971 v 0.0836 q -0.06369,-0.004 -0.191079,-0.008 -0.123405,-0.008 -0.254771,-0.008 -0.131367,0 -0.270695,0.008 -0.139329,0.004 -0.207003,0.008 v -0.0836 q 0.167194,0 0.234868,-0.05971 0.06767,-0.05971 0.06767,-0.226906 v -1.245994 q 0,-0.179136 -0.06369,-0.262733 -0.06369,-0.08758 -0.238849,-0.08758 v -0.0836 q 0.123406,0.01194 0.246811,0.01194 0.115443,0 0.218944,-0.01194 0.107482,-0.01194 0.19506,-0.04379 v 0.469736 q 0.103501,-0.266715 0.286618,-0.374197 0.187098,-0.107481 0.39012,-0.107481 z" />
      <path
         id="path2305"
         style="font-style:normal;font-variant:normal;font-weight:normal;font-stretch:normal;line-height:0.95;font-family:'Playfair Display';-inkscape-font-specification:'Playfair Display';stroke-width:0.0995209"
         d="m 77.352144,95.287343 q 0.09952,-0.004 0.191079,-0.01592 0.09156,-0.01194 0.167194,-0.03981 v 0.664796 h 0.589159 v 0.07962 h -0.589159 v 1.540573 q 0,0.191079 0.06767,0.266715 0.06767,0.07165 0.187098,0.07165 0.119425,0 0.207002,-0.09554 0.08758,-0.09554 0.151271,-0.330407 l 0.07962,0.0199 q -0.0199,0.115443 -0.05971,0.218944 -0.03583,0.09952 -0.09952,0.175156 -0.05971,0.07165 -0.151271,0.111462 -0.08758,0.04379 -0.207002,0.04379 -0.139328,0 -0.226906,-0.03185 -0.0836,-0.03185 -0.151271,-0.09952 -0.08758,-0.09156 -0.123405,-0.214964 -0.03185,-0.127386 -0.03185,-0.34235 v -1.333571 h -0.382158 v -0.07962 h 0.382158 z" />
      <path
         id="path2307"
         style="font-style:normal;font-variant:normal;font-weight:normal;font-stretch:normal;line-height:0.95;font-family:'Playfair Display';-inkscape-font-specification:'Playfair Display';stroke-width:0.0995209"
         d="m 78.562122,97.743503 q 0,-0.111463 0.07563,-0.183118 0.07564,-0.07165 0.179137,-0.07165 0.08758,0 0.143309,0.03583 0.05573,0.03583 0.09156,0.09156 0.04379,0.06767 0.05573,0.143309 0.01194,0.07165 0.01194,0.119424 0,0.19506 -0.09952,0.354292 -0.09554,0.159233 -0.310503,0.258753 l -0.03583,-0.07165 q 0.05971,-0.02389 0.115443,-0.06767 0.05573,-0.04379 0.09554,-0.09554 0.04379,-0.05175 0.06767,-0.111463 0.02388,-0.05573 0.02388,-0.115443 0,-0.04777 -0.01194,-0.0836 -0.06369,0.05175 -0.14729,0.05175 -0.103501,0 -0.179137,-0.06767 -0.07563,-0.06767 -0.07563,-0.187098 z" />
      <path
         id="path2309"
         style="font-style:normal;font-variant:normal;font-weight:normal;font-stretch:normal;line-height:0.95;font-family:'Playfair Display';-inkscape-font-specification:'Playfair Display';stroke-width:0.0995209"
         d="m 80.633263,95.136072 q 0.09952,0 0.19506,0 0.09554,-0.004 0.171175,-0.01194 l 0.891701,2.284984 0.812085,-2.273042 h 0.187098 q 0.139329,0 0.274676,0 0.139329,-0.004 0.230887,-0.01194 v 0.07962 q -0.103501,0.004 -0.167194,0.0199 -0.05971,0.01194 -0.09554,0.04777 -0.03583,0.03583 -0.04777,0.103501 -0.01194,0.06369 -0.01194,0.171174 v 1.974482 q 0,0.107482 0.01194,0.175156 0.01194,0.06369 0.04777,0.09952 0.03583,0.03583 0.09554,0.05175 0.06369,0.01194 0.167194,0.01592 v 0.07962 q -0.09156,-0.008 -0.230887,-0.008 -0.135347,-0.004 -0.274676,-0.004 -0.155251,0 -0.290599,0.004 -0.135347,0 -0.218944,0.008 v -0.07962 q 0.09952,-0.004 0.163213,-0.01592 0.06369,-0.01592 0.09952,-0.05175 0.03583,-0.03583 0.04777,-0.09952 0.01194,-0.06767 0.01194,-0.175156 v -2.133714 l -0.919567,2.575584 h -0.06369 l -1.042972,-2.583546 v 2.141676 q 0,0.107482 0.01194,0.175156 0.01194,0.06369 0.04777,0.09952 0.03583,0.03583 0.09554,0.05175 0.06369,0.01194 0.167194,0.01592 v 0.07962 q -0.07166,-0.008 -0.167194,-0.008 -0.09554,-0.004 -0.199041,-0.004 -0.103501,0 -0.203021,0.004 -0.09952,0 -0.167194,0.008 v -0.07962 q 0.09952,-0.004 0.163213,-0.01592 0.06369,-0.01592 0.09952,-0.05175 0.03583,-0.03583 0.04777,-0.09952 0.01194,-0.06767 0.01194,-0.175156 v -1.974482 q 0,-0.107481 -0.01194,-0.171174 -0.01194,-0.06767 -0.04777,-0.103501 -0.03583,-0.03583 -0.09952,-0.04777 -0.06369,-0.01592 -0.163213,-0.0199 v -0.07962 q 0.06767,0.008 0.167194,0.01194 0.09952,0 0.203021,0 z" />
      <path
         id="path2311"
         style="font-style:normal;font-variant:normal;font-weight:normal;font-stretch:normal;line-height:0.95;font-family:'Playfair Display';-inkscape-font-specification:'Playfair Display';stroke-width:0.0995209"
         d="m 84.654999,97.616117 q -0.04777,0.09952 -0.119425,0.167194 -0.06767,0.06767 -0.14729,0.111462 -0.07962,0.03981 -0.163213,0.05573 -0.0836,0.0199 -0.159232,0.0199 -0.09554,0 -0.179137,-0.02787 -0.0836,-0.02389 -0.151271,-0.07962 -0.06369,-0.05573 -0.103501,-0.139329 -0.03583,-0.08758 -0.03583,-0.207002 0,-0.115443 0.03583,-0.203021 0.03981,-0.08758 0.111463,-0.155252 0.07564,-0.07165 0.183117,-0.131366 0.111463,-0.05971 0.250791,-0.119425 0.107482,-0.04777 0.19506,-0.0836 0.08758,-0.03981 0.14729,-0.07564 0.06369,-0.03981 0.09952,-0.0836 0.03583,-0.04379 0.03583,-0.09952 v -0.24681 q 0,-0.123406 -0.02787,-0.203022 -0.02389,-0.07962 -0.07166,-0.123405 -0.04777,-0.04379 -0.111462,-0.05971 -0.05971,-0.01592 -0.131367,-0.01592 -0.04379,0 -0.09952,0.008 -0.05175,0.004 -0.103501,0.0199 -0.05175,0.01592 -0.09952,0.04379 -0.04379,0.02787 -0.07962,0.07165 0.07564,0.01592 0.119424,0.06767 0.04777,0.05175 0.04777,0.135347 0,0.103501 -0.06369,0.159233 -0.06369,0.05573 -0.155251,0.05573 -0.09156,0 -0.151271,-0.05971 -0.05971,-0.05971 -0.05971,-0.151271 0,-0.0836 0.05175,-0.155252 0.05175,-0.07563 0.135348,-0.131366 0.0836,-0.05573 0.214964,-0.09952 0.131366,-0.04379 0.322445,-0.04379 0.175156,0 0.302542,0.04777 0.131366,0.04379 0.210983,0.159233 0.06767,0.09156 0.08758,0.218944 0.0199,0.123405 0.0199,0.330407 v 1.050934 q 0,0.115444 0.0199,0.163213 0.02388,0.04777 0.07962,0.04777 0.05573,0 0.107482,-0.03185 0.05573,-0.03185 0.09952,-0.06767 l 0.03981,0.06767 q -0.0836,0.06369 -0.159232,0.107482 -0.07564,0.03981 -0.203022,0.03981 -0.103501,0 -0.171175,-0.02787 -0.06767,-0.03185 -0.107481,-0.07962 -0.03583,-0.04777 -0.05175,-0.111463 -0.01194,-0.06369 -0.01194,-0.135347 z m -0.414005,0.195059 q 0.115444,0 0.218945,-0.06767 0.103501,-0.06767 0.19506,-0.234868 v -0.780239 q -0.0199,0.02388 -0.05971,0.05573 -0.03981,0.02787 -0.09554,0.05971 -0.05175,0.02787 -0.111463,0.05971 -0.05971,0.03185 -0.115443,0.05573 -0.171175,0.07962 -0.250791,0.203021 -0.07564,0.123405 -0.07564,0.302542 0,0.179136 0.07962,0.262733 0.0836,0.0836 0.214963,0.0836 z" />
      <path
         id="path2313"
         style="font-style:normal;font-variant:normal;font-weight:normal;font-stretch:normal;line-height:0.95;font-family:'Playfair Display';-inkscape-font-specification:'Playfair Display';stroke-width:0.0995209"
         d="m 86.284082,97.998274 q -0.171175,0 -0.322446,-0.06369 -0.14729,-0.06767 -0.254771,-0.203021 -0.107482,-0.135347 -0.171175,-0.338369 -0.05971,-0.203021 -0.05971,-0.473716 0,-0.270695 0.06369,-0.473717 0.06767,-0.203021 0.183117,-0.338368 0.119424,-0.135348 0.274676,-0.203022 0.159232,-0.06767 0.338369,-0.06767 0.179136,0 0.302541,0.05573 0.127386,0.05175 0.214964,0.171175 v -0.764316 q 0,-0.179136 -0.06369,-0.262733 -0.06369,-0.08758 -0.238849,-0.08758 v -0.0836 q 0.123405,0.01194 0.246811,0.01194 0.115443,0 0.218944,-0.01194 0.107482,-0.01194 0.19506,-0.04379 v 2.687047 q 0,0.179136 0.06369,0.266714 0.06369,0.0836 0.238848,0.0836 v 0.0836 q -0.127386,-0.01194 -0.24681,-0.01194 -0.115443,0 -0.222925,0.01194 -0.103501,0.01194 -0.191079,0.04379 v -0.3941 q -0.07962,0.19904 -0.230887,0.302541 -0.14729,0.103501 -0.338369,0.103501 z m 0.115444,-0.119424 q 0.143309,0 0.270695,-0.119424 0.127386,-0.123405 0.183117,-0.366235 v -1.206185 q -0.07962,-0.131367 -0.207002,-0.19506 -0.123405,-0.06369 -0.278657,-0.06369 -0.234868,0 -0.374196,0.24283 -0.135348,0.242829 -0.131367,0.748392 -0.004,0.959375 0.53741,0.959375 z" />
      <path
         id="path2315"
         style="font-style:normal;font-variant:normal;font-weight:normal;font-stretch:normal;line-height:0.95;font-family:'Playfair Display';-inkscape-font-specification:'Playfair Display';stroke-width:0.0995209"
         d="m 88.585488,97.998274 q -0.214964,0 -0.386139,-0.07563 -0.171175,-0.07564 -0.290599,-0.210983 -0.115444,-0.135347 -0.179137,-0.326426 -0.05971,-0.191079 -0.05971,-0.417985 0,-0.262734 0.06369,-0.469736 0.06369,-0.210983 0.179137,-0.358273 0.119424,-0.14729 0.286618,-0.222925 0.167194,-0.07962 0.370215,-0.07962 0.350312,0 0.545371,0.210983 0.199041,0.210982 0.199041,0.664795 h -1.245994 q -0.008,0.05573 -0.01194,0.123405 0,0.06369 0,0.131367 0,0.203021 0.05175,0.366234 0.05175,0.159233 0.135348,0.270695 0.08758,0.111463 0.19506,0.171175 0.111462,0.05573 0.226906,0.05573 0.179136,0 0.330407,-0.08758 0.151271,-0.08758 0.254772,-0.310504 l 0.07962,0.03185 q -0.03185,0.09952 -0.09952,0.19506 -0.06369,0.09554 -0.159233,0.171174 -0.09156,0.07564 -0.214963,0.119425 -0.123406,0.04777 -0.270695,0.04777 z m -0.03185,-2.085944 q -0.179136,0 -0.318465,0.175156 -0.139328,0.175155 -0.171175,0.549351 h 0.867817 q 0.004,-0.14729 -0.01592,-0.278656 -0.0199,-0.131367 -0.06767,-0.230887 -0.04777,-0.09952 -0.123405,-0.155252 -0.07166,-0.05971 -0.171175,-0.05971 z" />
      <path
         id="path2317"
         style="font-style:normal;font-variant:normal;font-weight:normal;font-stretch:normal;line-height:0.95;font-family:'Playfair Display';-inkscape-font-specification:'Playfair Display';stroke-width:0.0995209"
         d="m 90.475998,96.919475 q 0,-0.286618 0.06767,-0.48964 0.07165,-0.207002 0.19506,-0.338369 0.123405,-0.131366 0.286618,-0.191078 0.163213,-0.06369 0.354292,-0.06369 0.191079,0 0.354292,0.06369 0.163214,0.05971 0.286619,0.191078 0.123405,0.131367 0.191079,0.338369 0.07165,0.203022 0.07165,0.48964 0,0.286618 -0.07165,0.49362 -0.06767,0.203022 -0.191079,0.334388 -0.123405,0.127386 -0.286619,0.191079 -0.163213,0.05971 -0.354292,0.05971 -0.191079,0 -0.354292,-0.05971 -0.163213,-0.06369 -0.286618,-0.191079 -0.123405,-0.131366 -0.19506,-0.334388 -0.06767,-0.207002 -0.06767,-0.49362 z m 0.386139,0 q 0,0.266714 0.03583,0.457793 0.03981,0.187098 0.107482,0.310503 0.07165,0.119424 0.163213,0.175156 0.09554,0.05573 0.210983,0.05573 0.111463,0 0.207002,-0.05573 0.09554,-0.05573 0.163214,-0.175156 0.07165,-0.123405 0.107481,-0.310503 0.03981,-0.191079 0.03981,-0.457793 0,-0.266714 -0.03981,-0.457793 -0.03583,-0.191079 -0.107481,-0.310503 -0.06767,-0.123406 -0.163214,-0.179137 -0.09554,-0.05573 -0.207002,-0.05573 -0.115443,0 -0.210983,0.05573 -0.09156,0.05573 -0.163213,0.179137 -0.06767,0.119424 -0.107482,0.310503 -0.03583,0.191079 -0.03583,0.457793 z" />
      <path
         id="path2319"
         style="font-style:normal;font-variant:normal;font-weight:normal;font-stretch:normal;line-height:0.95;font-family:'Playfair Display';-inkscape-font-specification:'Playfair Display';stroke-width:0.0995209"
         d="m 93.473422,94.889262 q -0.09156,0 -0.159232,0.03981 -0.06369,0.03981 -0.09952,0.107482 -0.02388,0.04379 -0.03981,0.103501 -0.01194,0.05573 -0.01991,0.14729 -0.008,0.08758 -0.01194,0.210983 0,0.123405 0,0.29458 v 0.103501 h 0.425947 v 0.07962 h -0.425947 v 1.556497 q 0,0.195059 0.111463,0.262733 0.111462,0.06369 0.310503,0.06369 v 0.0836 q -0.09156,-0.004 -0.258753,-0.008 -0.167194,-0.008 -0.354292,-0.008 -0.139328,0 -0.270695,0.008 -0.131367,0.004 -0.19904,0.008 v -0.0836 q 0.167194,0 0.234867,-0.05971 0.06767,-0.05971 0.06767,-0.226906 v -1.596305 h -0.318465 v -0.07962 h 0.318465 q 0,-0.175156 0.008,-0.306523 0.01194,-0.135347 0.03583,-0.234867 0.02389,-0.103501 0.06369,-0.179137 0.03981,-0.07962 0.09554,-0.14729 0.07962,-0.09156 0.203022,-0.143309 0.123405,-0.05573 0.270695,-0.05573 0.111463,0 0.19506,0.03185 0.08758,0.02787 0.15127,0.07564 0.123405,0.09952 0.123405,0.24681 0,0.09156 -0.05971,0.151271 -0.05971,0.05971 -0.15127,0.05971 -0.09156,0 -0.155252,-0.05573 -0.06369,-0.05573 -0.06369,-0.159232 0,-0.0836 0.04379,-0.135348 0.04777,-0.05175 0.123405,-0.06767 -0.01194,-0.03583 -0.06369,-0.05971 -0.04777,-0.02786 -0.131367,-0.02786 z" />
      <path
         id="path2321"
         style="font-style:normal;font-variant:normal;font-weight:normal;font-stretch:normal;line-height:0.95;font-family:'Playfair Display';-inkscape-font-specification:'Playfair Display';stroke-width:0.0995209"
         d="m 95.006159,95.136072 q 0.09952,0 0.19506,0 0.09554,-0.004 0.171175,-0.01194 l 0.891701,2.284984 0.812086,-2.273042 h 0.187098 q 0.139328,0 0.274675,0 0.139329,-0.004 0.230887,-0.01194 v 0.07962 q -0.103501,0.004 -0.167194,0.0199 -0.05971,0.01194 -0.09554,0.04777 -0.03583,0.03583 -0.04777,0.103501 -0.01194,0.06369 -0.01194,0.171174 v 1.974482 q 0,0.107482 0.01194,0.175156 0.01194,0.06369 0.04777,0.09952 0.03583,0.03583 0.09554,0.05175 0.06369,0.01194 0.167194,0.01592 v 0.07962 q -0.09156,-0.008 -0.230887,-0.008 -0.135347,-0.004 -0.274675,-0.004 -0.155252,0 -0.2906,0.004 -0.135347,0 -0.218944,0.008 v -0.07962 q 0.09952,-0.004 0.163213,-0.01592 0.06369,-0.01592 0.09952,-0.05175 0.03583,-0.03583 0.04777,-0.09952 0.01194,-0.06767 0.01194,-0.175156 v -2.133714 l -0.919568,2.575584 h -0.06369 l -1.042972,-2.583546 v 2.141676 q 0,0.107482 0.01194,0.175156 0.01194,0.06369 0.04777,0.09952 0.03583,0.03583 0.09554,0.05175 0.06369,0.01194 0.167194,0.01592 v 0.07962 q -0.07166,-0.008 -0.167194,-0.008 -0.09554,-0.004 -0.199041,-0.004 -0.103501,0 -0.203021,0.004 -0.09952,0 -0.167194,0.008 v -0.07962 q 0.09952,-0.004 0.163213,-0.01592 0.06369,-0.01592 0.09952,-0.05175 0.03583,-0.03583 0.04777,-0.09952 0.01194,-0.06767 0.01194,-0.175156 v -1.974482 q 0,-0.107481 -0.01194,-0.171174 -0.01194,-0.06767 -0.04777,-0.103501 -0.03583,-0.03583 -0.09952,-0.04777 -0.06369,-0.01592 -0.163213,-0.0199 v -0.07962 q 0.06767,0.008 0.167194,0.01194 0.09952,0 0.203021,0 z" />
      <path
         id="path2323"
         style="font-style:normal;font-variant:normal;font-weight:normal;font-stretch:normal;line-height:0.95;font-family:'Playfair Display';-inkscape-font-specification:'Playfair Display';stroke-width:0.0995209"
         d="m 98.865614,97.998274 q -0.214964,0 -0.386138,-0.07563 -0.171175,-0.07564 -0.2906,-0.210983 -0.115443,-0.135347 -0.179136,-0.326426 -0.05971,-0.191079 -0.05971,-0.417985 0,-0.262734 0.06369,-0.469736 0.06369,-0.210983 0.179136,-0.358273 0.119425,-0.14729 0.286619,-0.222925 0.167194,-0.07962 0.370215,-0.07962 0.350311,0 0.545371,0.210983 0.19904,0.210982 0.19904,0.664795 h -1.245993 q -0.008,0.05573 -0.01194,0.123405 0,0.06369 0,0.131367 0,0.203021 0.05175,0.366234 0.05175,0.159233 0.135347,0.270695 0.08758,0.111463 0.19506,0.171175 0.111463,0.05573 0.226906,0.05573 0.179137,0 0.330408,-0.08758 0.15127,-0.08758 0.254771,-0.310504 l 0.07962,0.03185 q -0.03185,0.09952 -0.09952,0.19506 -0.06369,0.09554 -0.159232,0.171174 -0.09156,0.07564 -0.214964,0.119425 -0.123405,0.04777 -0.270695,0.04777 z m -0.03185,-2.085944 q -0.179137,0 -0.318465,0.175156 -0.139329,0.175155 -0.171175,0.549351 h 0.867817 q 0.004,-0.14729 -0.01592,-0.278656 -0.0199,-0.131367 -0.06767,-0.230887 -0.04777,-0.09952 -0.123406,-0.155252 -0.07165,-0.05971 -0.171174,-0.05971 z" />
      <path
         id="path2325"
         style="font-style:normal;font-variant:normal;font-weight:normal;font-stretch:normal;line-height:0.95;font-family:'Playfair Display';-inkscape-font-specification:'Playfair Display';stroke-width:0.0995209"
         d="m 101.12597,95.836695 q 0.27069,0 0.414,0.15127 0.0955,0.107482 0.11943,0.322446 0.0517,-0.135348 0.12738,-0.226906 0.0756,-0.09156 0.16322,-0.143309 0.0876,-0.05573 0.18311,-0.07962 0.0955,-0.02388 0.19108,-0.02388 0.2707,0 0.41401,0.15127 0.0756,0.07962 0.1035,0.207002 0.0279,0.123406 0.0279,0.314484 v 1.062877 q 0,0.167194 0.0677,0.226906 0.0677,0.05971 0.23486,0.05971 v 0.0836 q -0.0677,-0.004 -0.207,-0.008 -0.13933,-0.008 -0.27069,-0.008 -0.13137,0 -0.25875,0.008 -0.12341,0.004 -0.1871,0.008 v -0.0836 q 0.14331,0 0.20302,-0.05971 0.0597,-0.05971 0.0597,-0.226906 v -1.150454 q 0,-0.09156 -0.008,-0.175156 -0.008,-0.0836 -0.0398,-0.143309 -0.0279,-0.06369 -0.0876,-0.09952 -0.0597,-0.03981 -0.16719,-0.03981 -0.11544,0 -0.21496,0.05573 -0.0995,0.05573 -0.17118,0.155251 -0.0716,0.09554 -0.11146,0.226907 -0.0398,0.131366 -0.0398,0.282637 v 0.887721 q 0,0.167194 0.0677,0.226906 0.0677,0.05971 0.23487,0.05971 v 0.0836 q -0.0677,-0.004 -0.207,-0.008 -0.13933,-0.008 -0.2707,-0.008 -0.13136,0 -0.25875,0.008 -0.1234,0.004 -0.1871,0.008 v -0.0836 q 0.14331,0 0.20302,-0.05971 0.0597,-0.05971 0.0597,-0.226906 v -1.150454 q 0,-0.09156 -0.008,-0.175156 -0.008,-0.0836 -0.0398,-0.143309 -0.0279,-0.06369 -0.0876,-0.09952 -0.0597,-0.03981 -0.16719,-0.03981 -0.11545,0 -0.21497,0.05573 -0.0995,0.05573 -0.17117,0.155251 -0.0717,0.09554 -0.11147,0.230887 -0.0398,0.131367 -0.0398,0.282638 v 0.88374 q 0,0.167194 0.0597,0.226906 0.0597,0.05971 0.20302,0.05971 v 0.0836 q -0.0637,-0.004 -0.19108,-0.008 -0.1234,-0.008 -0.25477,-0.008 -0.13137,0 -0.2707,0.008 -0.139325,0.004 -0.206999,0.008 v -0.0836 q 0.167194,0 0.234869,-0.05971 0.0677,-0.05971 0.0677,-0.226906 v -1.245994 q 0,-0.179136 -0.0637,-0.262733 -0.06369,-0.08758 -0.238849,-0.08758 v -0.0836 q 0.123405,0.01194 0.246809,0.01194 0.11544,0 0.21895,-0.01194 0.10748,-0.01194 0.19506,-0.04379 v 0.469736 q 0.1035,-0.262734 0.28263,-0.370216 0.17914,-0.111462 0.37022,-0.111462 z" />
      <path
         id="path2327"
         style="font-style:normal;font-variant:normal;font-weight:normal;font-stretch:normal;line-height:0.95;font-family:'Playfair Display';-inkscape-font-specification:'Playfair Display';stroke-width:0.0995209"
         d="m 103.32188,96.919475 q 0,-0.286618 0.0677,-0.48964 0.0716,-0.207002 0.19506,-0.338369 0.1234,-0.131366 0.28661,-0.191078 0.16322,-0.06369 0.3543,-0.06369 0.19108,0 0.35429,0.06369 0.16321,0.05971 0.28662,0.191078 0.1234,0.131367 0.19108,0.338369 0.0717,0.203022 0.0717,0.48964 0,0.286618 -0.0717,0.49362 -0.0677,0.203022 -0.19108,0.334388 -0.12341,0.127386 -0.28662,0.191079 -0.16321,0.05971 -0.35429,0.05971 -0.19108,0 -0.3543,-0.05971 -0.16321,-0.06369 -0.28661,-0.191079 -0.12341,-0.131366 -0.19506,-0.334388 -0.0677,-0.207002 -0.0677,-0.49362 z m 0.38614,0 q 0,0.266714 0.0358,0.457793 0.0398,0.187098 0.10748,0.310503 0.0717,0.119424 0.16321,0.175156 0.0955,0.05573 0.21099,0.05573 0.11146,0 0.207,-0.05573 0.0955,-0.05573 0.16321,-0.175156 0.0717,-0.123405 0.10748,-0.310503 0.0398,-0.191079 0.0398,-0.457793 0,-0.266714 -0.0398,-0.457793 -0.0358,-0.191079 -0.10748,-0.310503 -0.0677,-0.123406 -0.16321,-0.179137 -0.0955,-0.05573 -0.207,-0.05573 -0.11545,0 -0.21099,0.05573 -0.0915,0.05573 -0.16321,0.179137 -0.0677,0.119424 -0.10748,0.310503 -0.0358,0.191079 -0.0358,0.457793 z" />
      <path
         id="path2329"
         style="font-style:normal;font-variant:normal;font-weight:normal;font-stretch:normal;line-height:0.95;font-family:'Playfair Display';-inkscape-font-specification:'Playfair Display';stroke-width:0.0995209"
         d="m 106.62564,95.980004 q -0.0279,-0.03981 -0.0836,-0.03981 -0.12739,0 -0.23089,0.07564 -0.0995,0.07563 -0.17118,0.191079 -0.0716,0.111463 -0.11146,0.242829 -0.0398,0.127386 -0.0398,0.238849 v 0.843932 q 0,0.195059 0.11147,0.262733 0.11146,0.06369 0.3105,0.06369 v 0.0836 q -0.0916,-0.004 -0.25875,-0.008 -0.1672,-0.008 -0.35429,-0.008 -0.13933,0 -0.2707,0.008 -0.13137,0.004 -0.19904,0.008 v -0.0836 q 0.16719,0 0.23487,-0.05971 0.0677,-0.05971 0.0677,-0.226906 v -1.245994 q 0,-0.179136 -0.0637,-0.262733 -0.0637,-0.08758 -0.23885,-0.08758 v -0.0836 q 0.1234,0.01194 0.24681,0.01194 0.11544,0 0.21894,-0.01194 0.10749,-0.01194 0.19506,-0.04379 v 0.497601 q 0.0319,-0.08758 0.0836,-0.175155 0.0557,-0.09156 0.13137,-0.163214 0.0756,-0.07564 0.16719,-0.123405 0.0916,-0.04777 0.19506,-0.04777 0.16321,0 0.26273,0.09554 0.0995,0.09156 0.0995,0.218945 0,0.08758 -0.0597,0.15127 -0.0597,0.05971 -0.15525,0.05971 -0.0876,0 -0.15127,-0.05573 -0.0637,-0.05971 -0.0637,-0.155251 0,-0.06767 0.0318,-0.107482 0.0358,-0.03981 0.0955,-0.06369 z" />
      <path
         id="path2331"
         style="font-style:normal;font-variant:normal;font-weight:normal;font-stretch:normal;line-height:0.95;font-family:'Playfair Display';-inkscape-font-specification:'Playfair Display';stroke-width:0.0995209"
         d="m 107.04487,97.942543 z m 0.66082,-0.370215 q 0,0.167194 0.0677,0.226906 0.0677,0.05971 0.23487,0.05971 v 0.0836 q -0.0677,-0.004 -0.207,-0.008 -0.13535,-0.008 -0.27468,-0.008 -0.13933,0 -0.27866,0.008 -0.13534,0.004 -0.20302,0.008 v -0.0836 q 0.1672,0 0.23487,-0.05971 0.0677,-0.05971 0.0677,-0.226906 v -1.245994 q 0,-0.179136 -0.0637,-0.262733 -0.0637,-0.08758 -0.23885,-0.08758 v -0.0836 q 0.12341,0.01194 0.24681,0.01194 0.11545,0 0.21895,-0.01194 0.10748,-0.01194 0.19506,-0.04379 z m -0.44984,-2.420333 q 0,-0.103501 0.0756,-0.179136 0.0756,-0.07564 0.17914,-0.07564 0.1035,0 0.17913,0.07564 0.0756,0.07564 0.0756,0.179136 0,0.103501 -0.0756,0.179137 -0.0756,0.07564 -0.17913,0.07564 -0.1035,0 -0.17914,-0.07564 -0.0756,-0.07564 -0.0756,-0.179137 z" />
      <path
         id="path2333"
         style="font-style:normal;font-variant:normal;font-weight:normal;font-stretch:normal;line-height:0.95;font-family:'Playfair Display';-inkscape-font-specification:'Playfair Display';stroke-width:0.0995209"
         d="m 109.03534,97.998274 q -0.21497,0 -0.38614,-0.07563 -0.17118,-0.07564 -0.2906,-0.210983 -0.11544,-0.135347 -0.17914,-0.326426 -0.0597,-0.191079 -0.0597,-0.417985 0,-0.262734 0.0637,-0.469736 0.0637,-0.210983 0.17914,-0.358273 0.11943,-0.14729 0.28662,-0.222925 0.16719,-0.07962 0.37021,-0.07962 0.35032,0 0.54538,0.210983 0.19904,0.210982 0.19904,0.664795 h -1.246 q -0.008,0.05573 -0.0119,0.123405 0,0.06369 0,0.131367 0,0.203021 0.0518,0.366234 0.0517,0.159233 0.13535,0.270695 0.0876,0.111463 0.19506,0.171175 0.11146,0.05573 0.2269,0.05573 0.17914,0 0.33041,-0.08758 0.15127,-0.08758 0.25477,-0.310504 l 0.0796,0.03185 q -0.0319,0.09952 -0.0995,0.19506 -0.0637,0.09554 -0.15923,0.171174 -0.0916,0.07564 -0.21497,0.119425 -0.1234,0.04777 -0.27069,0.04777 z m -0.0319,-2.085944 q -0.17914,0 -0.31846,0.175156 -0.13933,0.175155 -0.17118,0.549351 h 0.86782 q 0.004,-0.14729 -0.0159,-0.278656 -0.0199,-0.131367 -0.0677,-0.230887 -0.0478,-0.09952 -0.1234,-0.155252 -0.0717,-0.05971 -0.17118,-0.05971 z" />
      <path
         id="path2335"
         style="font-style:normal;font-variant:normal;font-weight:normal;font-stretch:normal;line-height:0.95;font-family:'Playfair Display';-inkscape-font-specification:'Playfair Display';stroke-width:0.0995209"
         d="m 110.45176,97.942543 q -0.0876,-0.04379 -0.16322,-0.107482 -0.0398,-0.03185 -0.0716,0.004 -0.0319,0.03185 -0.0478,0.131367 h -0.0916 q 0.008,-0.127386 0.0119,-0.310503 0.004,-0.183118 0.004,-0.485659 h 0.0916 q 0.0199,0.167194 0.0517,0.306522 0.0319,0.135348 0.0916,0.234868 0.0637,0.09554 0.15923,0.151271 0.0995,0.05175 0.25079,0.05175 0.0597,0 0.12341,-0.0199 0.0637,-0.0199 0.11146,-0.06369 0.0517,-0.04379 0.0836,-0.115443 0.0358,-0.07165 0.0358,-0.179137 0,-0.08758 -0.0358,-0.155251 -0.0318,-0.07166 -0.0916,-0.131367 -0.0597,-0.05971 -0.14331,-0.115444 -0.0836,-0.05971 -0.17913,-0.119424 -0.10749,-0.06767 -0.20701,-0.135347 -0.0995,-0.06767 -0.17515,-0.14331 -0.0756,-0.07962 -0.12341,-0.171174 -0.0438,-0.09554 -0.0438,-0.218945 0,-0.131367 0.0478,-0.226906 0.0478,-0.09952 0.12739,-0.163213 0.0836,-0.06369 0.1871,-0.09156 0.10748,-0.03185 0.2269,-0.03185 0.15924,0 0.26672,0.05175 0.11146,0.05175 0.16719,0.09554 0.13137,0.107481 0.15923,-0.14331 h 0.0916 q -0.008,0.111463 -0.0119,0.266715 -0.004,0.15127 -0.004,0.410023 h -0.0916 q -0.0199,-0.111463 -0.0557,-0.218944 -0.0358,-0.107482 -0.0995,-0.191079 -0.0637,-0.08758 -0.15923,-0.139329 -0.0916,-0.05573 -0.22691,-0.05573 -0.13933,0 -0.23487,0.07962 -0.0916,0.07564 -0.0916,0.226906 0,0.09156 0.0398,0.159233 0.0438,0.06767 0.11147,0.127386 0.0717,0.05971 0.16321,0.119424 0.0916,0.05573 0.19506,0.119424 0.11146,0.07165 0.21098,0.14729 0.0995,0.07165 0.17516,0.155252 0.0756,0.07962 0.11544,0.175155 0.0438,0.09554 0.0438,0.218945 0,0.139328 -0.0557,0.242829 -0.0557,0.103501 -0.15127,0.175156 -0.0916,0.06767 -0.21497,0.103501 -0.1234,0.03583 -0.25875,0.03583 -0.17914,0 -0.31448,-0.05573 z" />
      <path
         id="path2337"
         style="font-style:normal;font-variant:normal;font-weight:normal;font-stretch:normal;line-height:0.95;font-family:'Playfair Display';-inkscape-font-specification:'Playfair Display';stroke-width:0.0995209"
         d="m 113.63404,97.616117 q -0.0478,0.09952 -0.11942,0.167194 -0.0677,0.06767 -0.14729,0.111462 -0.0796,0.03981 -0.16321,0.05573 -0.0836,0.0199 -0.15924,0.0199 -0.0955,0 -0.17913,-0.02787 -0.0836,-0.02389 -0.15127,-0.07962 -0.0637,-0.05573 -0.10351,-0.139329 -0.0358,-0.08758 -0.0358,-0.207002 0,-0.115443 0.0358,-0.203021 0.0398,-0.08758 0.11147,-0.155252 0.0756,-0.07165 0.18311,-0.131366 0.11147,-0.05971 0.2508,-0.119425 0.10748,-0.04777 0.19506,-0.0836 0.0876,-0.03981 0.14729,-0.07564 0.0637,-0.03981 0.0995,-0.0836 0.0358,-0.04379 0.0358,-0.09952 v -0.24681 q 0,-0.123406 -0.0279,-0.203022 -0.0239,-0.07962 -0.0717,-0.123405 -0.0478,-0.04379 -0.11146,-0.05971 -0.0597,-0.01592 -0.13137,-0.01592 -0.0438,0 -0.0995,0.008 -0.0517,0.004 -0.1035,0.0199 -0.0517,0.01592 -0.0995,0.04379 -0.0438,0.02787 -0.0796,0.07165 0.0756,0.01592 0.11942,0.06767 0.0478,0.05175 0.0478,0.135347 0,0.103501 -0.0637,0.159233 -0.0637,0.05573 -0.15526,0.05573 -0.0916,0 -0.15127,-0.05971 -0.0597,-0.05971 -0.0597,-0.151271 0,-0.0836 0.0517,-0.155252 0.0517,-0.07563 0.13535,-0.131366 0.0836,-0.05573 0.21496,-0.09952 0.13137,-0.04379 0.32245,-0.04379 0.17515,0 0.30254,0.04777 0.13137,0.04379 0.21098,0.159233 0.0677,0.09156 0.0876,0.218944 0.0199,0.123405 0.0199,0.330407 v 1.050934 q 0,0.115444 0.0199,0.163213 0.0239,0.04777 0.0796,0.04777 0.0557,0 0.10748,-0.03185 0.0557,-0.03185 0.0995,-0.06767 l 0.0398,0.06767 q -0.0836,0.06369 -0.15924,0.107482 -0.0756,0.03981 -0.20302,0.03981 -0.1035,0 -0.17117,-0.02787 -0.0677,-0.03185 -0.10748,-0.07962 -0.0358,-0.04777 -0.0518,-0.111463 -0.0119,-0.06369 -0.0119,-0.135347 z m -0.414,0.195059 q 0.11544,0 0.21894,-0.06767 0.1035,-0.06767 0.19506,-0.234868 v -0.780239 q -0.0199,0.02388 -0.0597,0.05573 -0.0398,0.02787 -0.0955,0.05971 -0.0517,0.02787 -0.11146,0.05971 -0.0597,0.03185 -0.11545,0.05573 -0.17117,0.07962 -0.25079,0.203021 -0.0756,0.123405 -0.0756,0.302542 0,0.179136 0.0796,0.262733 0.0836,0.0836 0.21497,0.0836 z" />
      <path
         id="path2339"
         style="font-style:normal;font-variant:normal;font-weight:normal;font-stretch:normal;line-height:0.95;font-family:'Playfair Display';-inkscape-font-specification:'Playfair Display';stroke-width:0.0995209"
         d="m 115.7249,95.836695 q 0.15127,0 0.25079,0.03981 0.1035,0.03981 0.17118,0.111462 0.0756,0.07962 0.10748,0.199041 0.0318,0.119424 0.0318,0.322445 v 1.062877 q 0,0.167194 0.0677,0.226906 0.0677,0.05971 0.23487,0.05971 v 0.0836 q -0.0677,-0.004 -0.20701,-0.008 -0.13932,-0.008 -0.27069,-0.008 -0.13137,0 -0.25875,0.008 -0.12341,0.004 -0.1871,0.008 v -0.0836 q 0.14331,0 0.20302,-0.05971 0.0597,-0.05971 0.0597,-0.226906 v -1.150454 q 0,-0.09156 -0.0119,-0.175156 -0.008,-0.0836 -0.0438,-0.143309 -0.0319,-0.06369 -0.0955,-0.09952 -0.0637,-0.03981 -0.17117,-0.03981 -0.12739,0 -0.23089,0.05573 -0.0995,0.05573 -0.17516,0.155251 -0.0717,0.09554 -0.11146,0.230887 -0.0398,0.131367 -0.0398,0.282638 v 0.88374 q 0,0.167194 0.0597,0.226906 0.0597,0.05971 0.20303,0.05971 v 0.0836 q -0.0637,-0.004 -0.19108,-0.008 -0.12341,-0.008 -0.25477,-0.008 -0.13137,0 -0.2707,0.008 -0.13933,0.004 -0.207,0.008 v -0.0836 q 0.16719,0 0.23487,-0.05971 0.0677,-0.05971 0.0677,-0.226906 v -1.245994 q 0,-0.179136 -0.0637,-0.262733 -0.0637,-0.08758 -0.23885,-0.08758 v -0.0836 q 0.1234,0.01194 0.24681,0.01194 0.11544,0 0.21894,-0.01194 0.10748,-0.01194 0.19506,-0.04379 v 0.469736 q 0.1035,-0.266715 0.28662,-0.374197 0.1871,-0.107481 0.39012,-0.107481 z" />
      <path
         id="path2341"
         style="font-style:normal;font-variant:normal;font-weight:normal;font-stretch:normal;line-height:0.95;font-family:'Playfair Display';-inkscape-font-specification:'Playfair Display';stroke-width:0.0995209"
         d="m 117.55053,97.998274 q -0.17117,0 -0.32244,-0.06369 -0.14729,-0.06767 -0.25477,-0.203021 -0.10749,-0.135347 -0.17118,-0.338369 -0.0597,-0.203021 -0.0597,-0.473716 0,-0.270695 0.0637,-0.473717 0.0677,-0.203021 0.18312,-0.338368 0.11942,-0.135348 0.27467,-0.203022 0.15924,-0.06767 0.33837,-0.06767 0.17914,0 0.30255,0.05573 0.12738,0.05175 0.21496,0.171175 v -0.764316 q 0,-0.179136 -0.0637,-0.262733 -0.0637,-0.08758 -0.23885,-0.08758 v -0.0836 q 0.1234,0.01194 0.24681,0.01194 0.11544,0 0.21894,-0.01194 0.10748,-0.01194 0.19506,-0.04379 v 2.687047 q 0,0.179136 0.0637,0.266714 0.0637,0.0836 0.23885,0.0836 v 0.0836 q -0.12738,-0.01194 -0.24681,-0.01194 -0.11544,0 -0.22292,0.01194 -0.1035,0.01194 -0.19108,0.04379 v -0.3941 q -0.0796,0.19904 -0.23089,0.302541 -0.14729,0.103501 -0.33837,0.103501 z m 0.11545,-0.119424 q 0.14331,0 0.27069,-0.119424 0.12739,-0.123405 0.18312,-0.366235 v -1.206185 q -0.0796,-0.131367 -0.207,-0.19506 -0.12341,-0.06369 -0.27866,-0.06369 -0.23487,0 -0.3742,0.24283 -0.13534,0.242829 -0.13136,0.748392 -0.004,0.959375 0.53741,0.959375 z" />
      <path
         id="path2343"
         style="font-style:normal;font-variant:normal;font-weight:normal;font-stretch:normal;line-height:0.95;font-family:'Playfair Display';-inkscape-font-specification:'Playfair Display';stroke-width:0.0995209"
         d="m 121.65108,95.347055 q 0.0518,-0.06767 -0.004,-0.09952 -0.0517,-0.03583 -0.25477,-0.04777 v -0.07564 q 0.21496,0.01194 0.42992,0.01194 0.1672,0 0.28264,-0.01194 v 0.07564 q -0.11544,0.008 -0.22292,0.05971 -0.10351,0.05175 -0.1871,0.159233 l -0.70859,0.907624 0.92355,1.293763 q 0.0677,0.09952 0.14729,0.155252 0.0796,0.05573 0.20302,0.08758 v 0.07962 q -0.0478,-0.004 -0.11146,-0.004 -0.0597,-0.004 -0.12739,-0.004 -0.0637,-0.004 -0.12738,-0.004 -0.0637,0 -0.11146,0 -0.0796,0 -0.19506,0.004 -0.11545,0 -0.29458,0.008 v -0.07962 q 0.1035,-0.004 0.15525,-0.01194 0.0557,-0.008 0.0717,-0.02786 0.0199,-0.02389 0.004,-0.05573 -0.0119,-0.03185 -0.0438,-0.0836 l -0.58119,-0.875778 q -0.0557,-0.07962 -0.0955,-0.131367 -0.0398,-0.05573 -0.0836,-0.08758 -0.0398,-0.03583 -0.0876,-0.05175 -0.0478,-0.01592 -0.11544,-0.0199 v 1.003164 q 0,0.107482 0.0119,0.175156 0.0119,0.06369 0.0478,0.09952 0.0358,0.03583 0.0955,0.05175 0.0637,0.01194 0.16719,0.01592 v 0.07962 q -0.0916,-0.008 -0.23088,-0.008 -0.13535,-0.004 -0.27468,-0.004 -0.15525,0 -0.2906,0.004 -0.13535,0 -0.21894,0.008 v -0.07962 q 0.0995,-0.004 0.16321,-0.01592 0.0637,-0.01592 0.0995,-0.05175 0.0358,-0.03583 0.0478,-0.09952 0.0119,-0.06767 0.0119,-0.175156 v -1.974482 q 0,-0.107481 -0.0119,-0.171174 -0.0119,-0.06767 -0.0478,-0.103501 -0.0358,-0.03583 -0.0995,-0.04777 -0.0637,-0.01592 -0.16321,-0.0199 v -0.07962 q 0.0836,0.008 0.21894,0.01194 0.13535,0 0.2906,0 0.13933,0 0.27468,0 0.13932,-0.004 0.23088,-0.01194 v 0.07962 q -0.1035,0.004 -0.16719,0.0199 -0.0597,0.01194 -0.0955,0.04777 -0.0358,0.03583 -0.0478,0.103501 -0.0119,0.06369 -0.0119,0.171174 v 0.891702 q 0.15923,-0.008 0.26671,-0.06767 0.11146,-0.06369 0.1871,-0.155251 z" />
      <path
         id="path2345"
         style="font-style:normal;font-variant:normal;font-weight:normal;font-stretch:normal;line-height:0.95;font-family:'Playfair Display';-inkscape-font-specification:'Playfair Display';stroke-width:0.0995209"
         d="m 123.08168,97.998274 q -0.21496,0 -0.38614,-0.07563 -0.17117,-0.07564 -0.2906,-0.210983 -0.11544,-0.135347 -0.17913,-0.326426 -0.0597,-0.191079 -0.0597,-0.417985 0,-0.262734 0.0637,-0.469736 0.0637,-0.210983 0.17914,-0.358273 0.11942,-0.14729 0.28661,-0.222925 0.1672,-0.07962 0.37022,-0.07962 0.35031,0 0.54537,0.210983 0.19904,0.210982 0.19904,0.664795 h -1.24599 q -0.008,0.05573 -0.0119,0.123405 0,0.06369 0,0.131367 0,0.203021 0.0518,0.366234 0.0517,0.159233 0.13534,0.270695 0.0876,0.111463 0.19506,0.171175 0.11147,0.05573 0.22691,0.05573 0.17914,0 0.33041,-0.08758 0.15127,-0.08758 0.25477,-0.310504 l 0.0796,0.03185 q -0.0318,0.09952 -0.0995,0.19506 -0.0637,0.09554 -0.15923,0.171174 -0.0916,0.07564 -0.21496,0.119425 -0.12341,0.04777 -0.2707,0.04777 z m -0.0318,-2.085944 q -0.17914,0 -0.31847,0.175156 -0.13933,0.175155 -0.17117,0.549351 h 0.86781 q 0.004,-0.14729 -0.0159,-0.278656 -0.0199,-0.131367 -0.0677,-0.230887 -0.0478,-0.09952 -0.12341,-0.155252 -0.0717,-0.05971 -0.17117,-0.05971 z" />
      <path
         id="path2347"
         style="font-style:normal;font-variant:normal;font-weight:normal;font-stretch:normal;line-height:0.95;font-family:'Playfair Display';-inkscape-font-specification:'Playfair Display';stroke-width:0.0995209"
         d="m 124.29906,96.326334 q 0,-0.179136 -0.0637,-0.262733 -0.0637,-0.08758 -0.23885,-0.08758 v -0.0836 q 0.1234,0.01194 0.24681,0.01194 0.11544,0 0.21894,-0.01194 0.10749,-0.01194 0.19506,-0.04379 v 0.421966 q 0.0916,-0.210983 0.25478,-0.322446 0.16719,-0.111462 0.37419,-0.111462 0.15923,0 0.29458,0.06369 0.13933,0.05971 0.23885,0.187098 0.0995,0.123405 0.15525,0.314484 0.0597,0.187098 0.0597,0.437889 0,0.210983 -0.0517,0.417985 -0.0478,0.207002 -0.15923,0.370215 -0.11146,0.163213 -0.2906,0.266714 -0.17913,0.103501 -0.43789,0.103501 -0.13933,0 -0.25079,-0.03981 -0.10748,-0.03981 -0.1871,-0.107482 v 0.44187 q 0,0.171175 0.0995,0.226906 0.10351,0.05971 0.28264,0.05971 v 0.0836 q -0.0876,-0.004 -0.24283,-0.01194 -0.15525,-0.004 -0.33041,-0.004 -0.12738,0 -0.24681,0.004 -0.11942,0.008 -0.18311,0.01194 v -0.0836 q 0.14331,0 0.20302,-0.05175 0.0597,-0.05175 0.0597,-0.19506 z m 0.76432,1.580382 q 0.17117,0 0.28263,-0.07564 0.11545,-0.07564 0.17914,-0.214963 0.0677,-0.14331 0.0955,-0.338369 0.0279,-0.19506 0.0279,-0.433909 0,-0.453812 -0.11943,-0.668776 -0.11942,-0.218944 -0.35827,-0.218944 -0.16322,0 -0.30652,0.127386 -0.14331,0.123405 -0.20701,0.374196 v 1.289782 q 0.0836,0.0836 0.19108,0.123405 0.10748,0.03583 0.21497,0.03583 z" />
      <path
         id="path2349"
         style="font-style:normal;font-variant:normal;font-weight:normal;font-stretch:normal;line-height:0.95;font-family:'Playfair Display';-inkscape-font-specification:'Playfair Display';stroke-width:0.0995209"
         d="m 126.52446,95.287343 q 0.0995,-0.004 0.19108,-0.01592 0.0915,-0.01194 0.16719,-0.03981 v 0.664796 h 0.58916 v 0.07962 h -0.58916 v 1.540573 q 0,0.191079 0.0677,0.266715 0.0677,0.07165 0.1871,0.07165 0.11943,0 0.207,-0.09554 0.0876,-0.09554 0.15127,-0.330407 l 0.0796,0.0199 q -0.0199,0.115443 -0.0597,0.218944 -0.0358,0.09952 -0.0995,0.175156 -0.0597,0.07165 -0.15127,0.111462 -0.0876,0.04379 -0.20701,0.04379 -0.13932,0 -0.2269,-0.03185 -0.0836,-0.03185 -0.15127,-0.09952 -0.0876,-0.09156 -0.12341,-0.214964 -0.0318,-0.127386 -0.0318,-0.34235 v -1.333571 h -0.38216 v -0.07962 h 0.38216 z" />
      <path
         id="path2351"
         style="font-style:normal;font-variant:normal;font-weight:normal;font-stretch:normal;line-height:0.95;font-family:'Playfair Display';-inkscape-font-specification:'Playfair Display';stroke-width:0.0995209"
         d="m 128.57078,97.942543 z m 0.66081,-0.370215 q 0,0.167194 0.0677,0.226906 0.0677,0.05971 0.23486,0.05971 v 0.0836 q -0.0677,-0.004 -0.207,-0.008 -0.13535,-0.008 -0.27467,-0.008 -0.13933,0 -0.27866,0.008 -0.13535,0.004 -0.20302,0.008 v -0.0836 q 0.16719,0 0.23487,-0.05971 0.0677,-0.05971 0.0677,-0.226906 v -1.245994 q 0,-0.179136 -0.0637,-0.262733 -0.0637,-0.08758 -0.23885,-0.08758 v -0.0836 q 0.1234,0.01194 0.24681,0.01194 0.11544,0 0.21894,-0.01194 0.10748,-0.01194 0.19506,-0.04379 z m -0.44983,-2.420333 q 0,-0.103501 0.0756,-0.179136 0.0756,-0.07564 0.17913,-0.07564 0.1035,0 0.17914,0.07564 0.0756,0.07564 0.0756,0.179136 0,0.103501 -0.0756,0.179137 -0.0756,0.07564 -0.17914,0.07564 -0.1035,0 -0.17913,-0.07564 -0.0756,-0.07564 -0.0756,-0.179137 z" />
      <path
         id="path2353"
         style="font-style:normal;font-variant:normal;font-weight:normal;font-stretch:normal;line-height:0.95;font-family:'Playfair Display';-inkscape-font-specification:'Playfair Display';stroke-width:0.0995209"
         d="m 130.94682,95.836695 q 0.15127,0 0.25079,0.03981 0.10351,0.03981 0.17118,0.111462 0.0756,0.07962 0.10748,0.199041 0.0318,0.119424 0.0318,0.322445 v 1.062877 q 0,0.167194 0.0677,0.226906 0.0677,0.05971 0.23487,0.05971 v 0.0836 q -0.0677,-0.004 -0.207,-0.008 -0.13933,-0.008 -0.2707,-0.008 -0.13136,0 -0.25875,0.008 -0.12341,0.004 -0.1871,0.008 v -0.0836 q 0.14331,0 0.20302,-0.05971 0.0597,-0.05971 0.0597,-0.226906 v -1.150454 q 0,-0.09156 -0.0119,-0.175156 -0.008,-0.0836 -0.0438,-0.143309 -0.0318,-0.06369 -0.0955,-0.09952 -0.0637,-0.03981 -0.17117,-0.03981 -0.12739,0 -0.23089,0.05573 -0.0995,0.05573 -0.17515,0.155251 -0.0717,0.09554 -0.11147,0.230887 -0.0398,0.131367 -0.0398,0.282638 v 0.88374 q 0,0.167194 0.0597,0.226906 0.0597,0.05971 0.20302,0.05971 v 0.0836 q -0.0637,-0.004 -0.19108,-0.008 -0.1234,-0.008 -0.25477,-0.008 -0.13137,0 -0.2707,0.008 -0.13932,0.004 -0.207,0.008 v -0.0836 q 0.1672,0 0.23487,-0.05971 0.0677,-0.05971 0.0677,-0.226906 v -1.245994 q 0,-0.179136 -0.0637,-0.262733 -0.0637,-0.08758 -0.23885,-0.08758 v -0.0836 q 0.12341,0.01194 0.24681,0.01194 0.11545,0 0.21895,-0.01194 0.10748,-0.01194 0.19506,-0.04379 v 0.469736 q 0.1035,-0.266715 0.28661,-0.374197 0.1871,-0.107481 0.39012,-0.107481 z" />
      <path
         id="path2355"
         style="font-style:normal;font-variant:normal;font-weight:normal;font-stretch:normal;line-height:0.95;font-family:'Playfair Display';-inkscape-font-specification:'Playfair Display';stroke-width:0.0995209"
         d="m 134.48819,95.108206 q -0.004,0.05175 -0.008,0.115444 -0.004,0.06369 -0.008,0.155251 0,0.09156 -0.004,0.222926 0,0.131367 0,0.318465 h -0.0916 q -0.0119,-0.14331 -0.0517,-0.278657 -0.0398,-0.139328 -0.11942,-0.24681 -0.0796,-0.107482 -0.19904,-0.171175 -0.11544,-0.06767 -0.28264,-0.06767 -0.21496,0 -0.35031,0.127386 -0.13535,0.127386 -0.13535,0.334388 0,0.135348 0.0517,0.234868 0.0557,0.09952 0.14729,0.183117 0.0916,0.07962 0.21099,0.155252 0.1234,0.07165 0.25875,0.155251 0.15525,0.09554 0.28662,0.191079 0.13136,0.09156 0.2269,0.19506 0.0955,0.103501 0.14729,0.226906 0.0557,0.123405 0.0557,0.282637 0,0.191079 -0.0677,0.334389 -0.0677,0.139328 -0.18312,0.234867 -0.11146,0.09156 -0.26671,0.139329 -0.15525,0.04777 -0.32643,0.04777 -0.21098,0 -0.33439,-0.04777 -0.1234,-0.04379 -0.21098,-0.09952 -0.0876,-0.05573 -0.13535,-0.05573 -0.0398,0 -0.0597,0.04379 -0.0159,0.04379 -0.0279,0.131367 h -0.0916 q 0.004,-0.05971 0.008,-0.139329 0.004,-0.07962 0.004,-0.187098 0.004,-0.111462 0.004,-0.262733 0,-0.155252 0,-0.366235 h 0.0916 q 0.0119,0.179137 0.0557,0.346331 0.0438,0.163213 0.12739,0.286618 0.0836,0.123405 0.21496,0.199041 0.13535,0.07165 0.32643,0.07165 0.0955,0 0.1871,-0.02786 0.0955,-0.03185 0.16719,-0.09554 0.0756,-0.06369 0.11942,-0.163213 0.0438,-0.103501 0.0438,-0.24283 0,-0.119424 -0.0478,-0.214963 -0.0438,-0.09952 -0.12738,-0.183118 -0.0796,-0.08758 -0.19506,-0.167194 -0.11147,-0.07962 -0.25079,-0.163213 -0.14331,-0.0836 -0.2707,-0.171175 -0.12738,-0.08758 -0.22691,-0.191078 -0.0955,-0.103502 -0.15525,-0.230887 -0.0557,-0.131367 -0.0557,-0.298561 0,-0.175156 0.0597,-0.302542 0.0637,-0.131366 0.1672,-0.214963 0.1035,-0.08758 0.23885,-0.127386 0.13534,-0.04379 0.28263,-0.04379 0.0995,0 0.17118,0.01592 0.0717,0.01194 0.12738,0.03185 0.0597,0.0199 0.10351,0.04777 0.0438,0.02388 0.0836,0.05175 0.0876,0.05573 0.13535,0.05573 0.0398,0 0.0557,-0.04379 0.0199,-0.04379 0.0318,-0.131367 z" />
      <path
         id="path2357"
         style="font-style:normal;font-variant:normal;font-weight:normal;font-stretch:normal;line-height:0.95;font-family:'Playfair Display';-inkscape-font-specification:'Playfair Display';stroke-width:0.0995209"
         d="m 136.26046,97.520577 q -0.1035,0.262734 -0.28264,0.370216 -0.17913,0.107481 -0.37021,0.107481 -0.2707,0 -0.41401,-0.15127 -0.0756,-0.07962 -0.1035,-0.203022 -0.0279,-0.127386 -0.0279,-0.318465 v -0.999183 q 0,-0.179136 -0.0637,-0.262733 -0.0637,-0.08758 -0.23885,-0.08758 v -0.0836 q 0.12341,0.01194 0.24681,0.01194 0.11545,0 0.21895,-0.01194 0.10748,-0.01194 0.19506,-0.04379 v 1.564458 q 0,0.09156 0.004,0.175156 0.008,0.0836 0.0358,0.14729 0.0318,0.06369 0.0916,0.09952 0.0637,0.03583 0.17117,0.03583 0.11544,0 0.21496,-0.05573 0.0995,-0.05573 0.17118,-0.151271 0.0716,-0.09952 0.11146,-0.230887 0.0398,-0.131366 0.0398,-0.282637 v -0.824028 q 0,-0.179136 -0.0637,-0.262733 -0.0637,-0.08758 -0.23885,-0.08758 v -0.0836 q 0.1234,0.01194 0.24681,0.01194 0.11544,0 0.21894,-0.01194 0.10748,-0.01194 0.19506,-0.04379 v 1.663979 q 0,0.179136 0.0637,0.266714 0.0637,0.0836 0.23884,0.0836 v 0.0836 q -0.12738,-0.01194 -0.24681,-0.01194 -0.11544,0 -0.22292,0.01194 -0.1035,0.01194 -0.19108,0.04379 z" />
      <path
         id="path2359"
         style="font-style:normal;font-variant:normal;font-weight:normal;font-stretch:normal;line-height:0.95;font-family:'Playfair Display';-inkscape-font-specification:'Playfair Display';stroke-width:0.0995209"
         d="m 137.06887,97.942543 z m 0.66081,-0.370215 q 0,0.167194 0.0677,0.226906 0.0677,0.05971 0.23487,0.05971 v 0.0836 q -0.0677,-0.004 -0.20701,-0.008 -0.13534,-0.008 -0.27467,-0.008 -0.13933,0 -0.27866,0.008 -0.13535,0.004 -0.20302,0.008 v -0.0836 q 0.16719,0 0.23487,-0.05971 0.0677,-0.05971 0.0677,-0.226906 v -1.245994 q 0,-0.179136 -0.0637,-0.262733 -0.0637,-0.08758 -0.23885,-0.08758 v -0.0836 q 0.12341,0.01194 0.24681,0.01194 0.11544,0 0.21894,-0.01194 0.10749,-0.01194 0.19506,-0.04379 z m -0.44983,-2.420333 q 0,-0.103501 0.0756,-0.179136 0.0756,-0.07564 0.17913,-0.07564 0.10351,0 0.17914,0.07564 0.0756,0.07564 0.0756,0.179136 0,0.103501 -0.0756,0.179137 -0.0756,0.07564 -0.17914,0.07564 -0.1035,0 -0.17913,-0.07564 -0.0756,-0.07564 -0.0756,-0.179137 z" />
      <path
         id="path2361"
         style="font-style:normal;font-variant:normal;font-weight:normal;font-stretch:normal;line-height:0.95;font-family:'Playfair Display';-inkscape-font-specification:'Playfair Display';stroke-width:0.0995209"
         d="m 138.38602,95.287343 q 0.0995,-0.004 0.19108,-0.01592 0.0916,-0.01194 0.16719,-0.03981 v 0.664796 h 0.58916 v 0.07962 h -0.58916 v 1.540573 q 0,0.191079 0.0677,0.266715 0.0677,0.07165 0.1871,0.07165 0.11942,0 0.207,-0.09554 0.0876,-0.09554 0.15127,-0.330407 l 0.0796,0.0199 q -0.0199,0.115443 -0.0597,0.218944 -0.0358,0.09952 -0.0995,0.175156 -0.0597,0.07165 -0.15127,0.111462 -0.0876,0.04379 -0.207,0.04379 -0.13933,0 -0.22691,-0.03185 -0.0836,-0.03185 -0.15127,-0.09952 -0.0876,-0.09156 -0.1234,-0.214964 -0.0318,-0.127386 -0.0318,-0.34235 v -1.333571 h -0.38216 v -0.07962 h 0.38216 z" />
      <path
         id="path2363"
         style="font-style:normal;font-variant:normal;font-weight:normal;font-stretch:normal;line-height:0.95;font-family:'Playfair Display';-inkscape-font-specification:'Playfair Display';stroke-width:0.0995209"
         d="m 140.52353,97.8271 q 0.15924,0 0.31847,-0.09156 0.15923,-0.09156 0.26273,-0.318465 l 0.0756,0.02787 q -0.0319,0.09554 -0.0916,0.195059 -0.0557,0.09952 -0.14729,0.179137 -0.0876,0.07962 -0.21099,0.127386 -0.11942,0.05175 -0.27865,0.05175 -0.1871,0 -0.35031,-0.07165 -0.15924,-0.07165 -0.27866,-0.207002 -0.11942,-0.139329 -0.1871,-0.334388 -0.0677,-0.19506 -0.0677,-0.44187 0,-0.24283 0.0677,-0.445851 0.0677,-0.207002 0.19108,-0.350311 0.12341,-0.14729 0.29458,-0.226906 0.17118,-0.0836 0.37818,-0.0836 0.12738,0 0.24681,0.03185 0.11942,0.03185 0.21098,0.09554 0.0876,0.05573 0.13535,0.135348 0.0517,0.07563 0.0517,0.171175 0,0.107482 -0.0597,0.167194 -0.0597,0.05573 -0.15127,0.05573 -0.0916,0 -0.15526,-0.05573 -0.0637,-0.05573 -0.0637,-0.159233 0,-0.0836 0.0438,-0.135347 0.0478,-0.05175 0.12341,-0.06767 -0.0398,-0.07165 -0.14331,-0.119424 -0.0995,-0.04777 -0.21497,-0.04777 -0.0995,0 -0.20302,0.04777 -0.0995,0.04379 -0.18312,0.159232 -0.0796,0.111463 -0.13136,0.302542 -0.0517,0.191079 -0.0517,0.477697 0,0.258753 0.0438,0.437889 0.0478,0.175156 0.12738,0.286618 0.0796,0.107482 0.17914,0.159233 0.1035,0.04777 0.21894,0.04777 z" />
      <path
         id="path2365"
         style="font-style:normal;font-variant:normal;font-weight:normal;font-stretch:normal;line-height:0.95;font-family:'Playfair Display';-inkscape-font-specification:'Playfair Display';stroke-width:0.0995209"
         d="m 142.43581,97.616117 q -0.0478,0.09952 -0.11942,0.167194 -0.0677,0.06767 -0.14729,0.111462 -0.0796,0.03981 -0.16322,0.05573 -0.0836,0.0199 -0.15923,0.0199 -0.0955,0 -0.17913,-0.02787 -0.0836,-0.02389 -0.15128,-0.07962 -0.0637,-0.05573 -0.1035,-0.139329 -0.0358,-0.08758 -0.0358,-0.207002 0,-0.115443 0.0358,-0.203021 0.0398,-0.08758 0.11147,-0.155252 0.0756,-0.07165 0.18311,-0.131366 0.11147,-0.05971 0.25079,-0.119425 0.10749,-0.04777 0.19506,-0.0836 0.0876,-0.03981 0.14729,-0.07564 0.0637,-0.03981 0.0995,-0.0836 0.0358,-0.04379 0.0358,-0.09952 v -0.24681 q 0,-0.123406 -0.0279,-0.203022 -0.0239,-0.07962 -0.0717,-0.123405 -0.0478,-0.04379 -0.11146,-0.05971 -0.0597,-0.01592 -0.13137,-0.01592 -0.0438,0 -0.0995,0.008 -0.0517,0.004 -0.1035,0.0199 -0.0517,0.01592 -0.0995,0.04379 -0.0438,0.02787 -0.0796,0.07165 0.0756,0.01592 0.11943,0.06767 0.0478,0.05175 0.0478,0.135347 0,0.103501 -0.0637,0.159233 -0.0637,0.05573 -0.15526,0.05573 -0.0915,0 -0.15127,-0.05971 -0.0597,-0.05971 -0.0597,-0.151271 0,-0.0836 0.0517,-0.155252 0.0517,-0.07563 0.13535,-0.131366 0.0836,-0.05573 0.21496,-0.09952 0.13137,-0.04379 0.32245,-0.04379 0.17515,0 0.30254,0.04777 0.13137,0.04379 0.21098,0.159233 0.0677,0.09156 0.0876,0.218944 0.0199,0.123405 0.0199,0.330407 v 1.050934 q 0,0.115444 0.0199,0.163213 0.0239,0.04777 0.0796,0.04777 0.0557,0 0.10749,-0.03185 0.0557,-0.03185 0.0995,-0.06767 l 0.0398,0.06767 q -0.0836,0.06369 -0.15924,0.107482 -0.0756,0.03981 -0.20302,0.03981 -0.1035,0 -0.17117,-0.02787 -0.0677,-0.03185 -0.10749,-0.07962 -0.0358,-0.04777 -0.0517,-0.111463 -0.0119,-0.06369 -0.0119,-0.135347 z m -0.414,0.195059 q 0.11544,0 0.21894,-0.06767 0.1035,-0.06767 0.19506,-0.234868 v -0.780239 q -0.0199,0.02388 -0.0597,0.05573 -0.0398,0.02787 -0.0955,0.05971 -0.0517,0.02787 -0.11146,0.05971 -0.0597,0.03185 -0.11545,0.05573 -0.17117,0.07962 -0.25079,0.203021 -0.0756,0.123405 -0.0756,0.302542 0,0.179136 0.0796,0.262733 0.0836,0.0836 0.21497,0.0836 z" />
      <path
         id="path2367"
         style="font-style:normal;font-variant:normal;font-weight:normal;font-stretch:normal;line-height:0.95;font-family:'Playfair Display';-inkscape-font-specification:'Playfair Display';stroke-width:0.0995209"
         d="m 143.65886,97.942543 q -0.0876,-0.04379 -0.16322,-0.107482 -0.0398,-0.03185 -0.0717,0.004 -0.0318,0.03185 -0.0478,0.131367 h -0.0916 q 0.008,-0.127386 0.0119,-0.310503 0.004,-0.183118 0.004,-0.485659 h 0.0916 q 0.0199,0.167194 0.0517,0.306522 0.0318,0.135348 0.0916,0.234868 0.0637,0.09554 0.15923,0.151271 0.0995,0.05175 0.25079,0.05175 0.0597,0 0.12341,-0.0199 0.0637,-0.0199 0.11146,-0.06369 0.0517,-0.04379 0.0836,-0.115443 0.0358,-0.07165 0.0358,-0.179137 0,-0.08758 -0.0358,-0.155251 -0.0318,-0.07166 -0.0916,-0.131367 -0.0597,-0.05971 -0.14331,-0.115444 -0.0836,-0.05971 -0.17913,-0.119424 -0.10749,-0.06767 -0.20701,-0.135347 -0.0995,-0.06767 -0.17515,-0.14331 -0.0756,-0.07962 -0.12341,-0.171174 -0.0438,-0.09554 -0.0438,-0.218945 0,-0.131367 0.0478,-0.226906 0.0478,-0.09952 0.12739,-0.163213 0.0836,-0.06369 0.1871,-0.09156 0.10748,-0.03185 0.2269,-0.03185 0.15924,0 0.26672,0.05175 0.11146,0.05175 0.16719,0.09554 0.13137,0.107481 0.15923,-0.14331 h 0.0916 q -0.008,0.111463 -0.0119,0.266715 -0.004,0.15127 -0.004,0.410023 h -0.0916 q -0.0199,-0.111463 -0.0557,-0.218944 -0.0358,-0.107482 -0.0995,-0.191079 -0.0637,-0.08758 -0.15923,-0.139329 -0.0916,-0.05573 -0.22691,-0.05573 -0.13933,0 -0.23487,0.07962 -0.0916,0.07564 -0.0916,0.226906 0,0.09156 0.0398,0.159233 0.0438,0.06767 0.11147,0.127386 0.0717,0.05971 0.16321,0.119424 0.0916,0.05573 0.19506,0.119424 0.11146,0.07165 0.21098,0.14729 0.0995,0.07165 0.17516,0.155252 0.0756,0.07962 0.11544,0.175155 0.0438,0.09554 0.0438,0.218945 0,0.139328 -0.0557,0.242829 -0.0557,0.103501 -0.15127,0.175156 -0.0916,0.06767 -0.21497,0.103501 -0.1234,0.03583 -0.25875,0.03583 -0.17914,0 -0.31448,-0.05573 z" />
      <path
         id="path2369"
         style="font-style:normal;font-variant:normal;font-weight:normal;font-stretch:normal;line-height:0.95;font-family:'Playfair Display';-inkscape-font-specification:'Playfair Display';stroke-width:0.0995209"
         d="m 145.8376,97.998274 q -0.21496,0 -0.38614,-0.07563 -0.17117,-0.07564 -0.2906,-0.210983 -0.11544,-0.135347 -0.17914,-0.326426 -0.0597,-0.191079 -0.0597,-0.417985 0,-0.262734 0.0637,-0.469736 0.0637,-0.210983 0.17913,-0.358273 0.11943,-0.14729 0.28662,-0.222925 0.16719,-0.07962 0.37022,-0.07962 0.35031,0 0.54537,0.210983 0.19904,0.210982 0.19904,0.664795 h -1.246 q -0.008,0.05573 -0.0119,0.123405 0,0.06369 0,0.131367 0,0.203021 0.0517,0.366234 0.0517,0.159233 0.13535,0.270695 0.0876,0.111463 0.19506,0.171175 0.11146,0.05573 0.22691,0.05573 0.17913,0 0.3304,-0.08758 0.15127,-0.08758 0.25477,-0.310504 l 0.0796,0.03185 q -0.0318,0.09952 -0.0995,0.19506 -0.0637,0.09554 -0.15923,0.171174 -0.0916,0.07564 -0.21497,0.119425 -0.1234,0.04777 -0.27069,0.04777 z m -0.0319,-2.085944 q -0.17913,0 -0.31846,0.175156 -0.13933,0.175155 -0.17118,0.549351 h 0.86782 q 0.004,-0.14729 -0.0159,-0.278656 -0.0199,-0.131367 -0.0677,-0.230887 -0.0478,-0.09952 -0.1234,-0.155252 -0.0717,-0.05971 -0.17118,-0.05971 z" />
      <path
         id="path2371"
         style="font-style:normal;font-variant:normal;font-weight:normal;font-stretch:normal;line-height:0.95;font-family:'Playfair Display';-inkscape-font-specification:'Playfair Display';stroke-width:0.0995209"
         d="m 147.25402,97.942543 q -0.0876,-0.04379 -0.16322,-0.107482 -0.0398,-0.03185 -0.0717,0.004 -0.0318,0.03185 -0.0478,0.131367 h -0.0916 q 0.008,-0.127386 0.0119,-0.310503 0.004,-0.183118 0.004,-0.485659 h 0.0916 q 0.0199,0.167194 0.0517,0.306522 0.0318,0.135348 0.0916,0.234868 0.0637,0.09554 0.15924,0.151271 0.0995,0.05175 0.25079,0.05175 0.0597,0 0.1234,-0.0199 0.0637,-0.0199 0.11146,-0.06369 0.0517,-0.04379 0.0836,-0.115443 0.0358,-0.07165 0.0358,-0.179137 0,-0.08758 -0.0358,-0.155251 -0.0319,-0.07166 -0.0916,-0.131367 -0.0597,-0.05971 -0.14331,-0.115444 -0.0836,-0.05971 -0.17913,-0.119424 -0.10749,-0.06767 -0.20701,-0.135347 -0.0995,-0.06767 -0.17515,-0.14331 -0.0756,-0.07962 -0.12341,-0.171174 -0.0438,-0.09554 -0.0438,-0.218945 0,-0.131367 0.0478,-0.226906 0.0478,-0.09952 0.12739,-0.163213 0.0836,-0.06369 0.1871,-0.09156 0.10748,-0.03185 0.2269,-0.03185 0.15924,0 0.26672,0.05175 0.11146,0.05175 0.16719,0.09554 0.13137,0.107481 0.15924,-0.14331 h 0.0916 q -0.008,0.111463 -0.0119,0.266715 -0.004,0.15127 -0.004,0.410023 h -0.0916 q -0.0199,-0.111463 -0.0557,-0.218944 -0.0358,-0.107482 -0.0995,-0.191079 -0.0637,-0.08758 -0.15923,-0.139329 -0.0916,-0.05573 -0.22691,-0.05573 -0.13933,0 -0.23487,0.07962 -0.0916,0.07564 -0.0916,0.226906 0,0.09156 0.0398,0.159233 0.0438,0.06767 0.11147,0.127386 0.0716,0.05971 0.16321,0.119424 0.0916,0.05573 0.19506,0.119424 0.11146,0.07165 0.21098,0.14729 0.0995,0.07165 0.17516,0.155252 0.0756,0.07962 0.11544,0.175155 0.0438,0.09554 0.0438,0.218945 0,0.139328 -0.0557,0.242829 -0.0557,0.103501 -0.15127,0.175156 -0.0916,0.06767 -0.21497,0.103501 -0.1234,0.03583 -0.25875,0.03583 -0.17913,0 -0.31448,-0.05573 z" />
    </g>
  </g>
</svg>
