<?xml version="1.0" encoding="UTF-8" standalone="no"?>
<svg
   xmlns:dc="http://purl.org/dc/elements/1.1/"
   xmlns:cc="http://creativecommons.org/ns#"
   xmlns:rdf="http://www.w3.org/1999/02/22-rdf-syntax-ns#"
   xmlns:svg="http://www.w3.org/2000/svg"
   xmlns="http://www.w3.org/2000/svg"
   xmlns:sodipodi="http://sodipodi.sourceforge.net/DTD/sodipodi-0.dtd"
   xmlns:inkscape="http://www.inkscape.org/namespaces/inkscape"
   sodipodi:docname="goodthink.svg"
   inkscape:version="1.0 (4035a4fb49, 2020-05-01)"
   id="svg1046"
   version="1.1"
   viewBox="0 0 164.24834 16.690153"
   height="16.690153mm"
   width="164.24834mm">
  <defs
     id="defs1040" />
  <sodipodi:namedview
     inkscape:window-maximized="0"
     inkscape:window-y="0"
     inkscape:window-x="104"
     inkscape:window-height="1032"
     inkscape:window-width="1274"
     fit-margin-bottom="0"
     fit-margin-right="0"
     fit-margin-left="0"
     fit-margin-top="0"
     showgrid="false"
     inkscape:document-rotation="0"
     inkscape:current-layer="layer1"
     inkscape:document-units="mm"
     inkscape:cy="265.82617"
     inkscape:cx="338.96199"
     inkscape:zoom="0.35"
     inkscape:pageshadow="2"
     inkscape:pageopacity="0.0"
     borderopacity="1.0"
     bordercolor="#666666"
     pagecolor="#ffffff"
     id="base" />
  <metadata
     id="metadata1043">
    <rdf:RDF>
      <cc:Work
         rdf:about="">
        <dc:format>image/svg+xml</dc:format>
        <dc:type
           rdf:resource="http://purl.org/dc/dcmitype/StillImage" />
        <dc:title></dc:title>
      </cc:Work>
    </rdf:RDF>
  </metadata>
  <g
     transform="translate(-16.149639,-77.833492)"
     id="layer1"
     inkscape:groupmode="layer"
     inkscape:label="Layer 1">
    <path
       id="path995"
       style="fill:#000000;stroke-width:0.0861258"
       d="m 106.48935,77.833521 c -0.18949,2.62e-4 -0.38267,0.01516 -0.58343,0.04496 -0.32679,0.0485 -0.83492,0.201025 -1.12914,0.338997 -0.29422,0.13797 -0.72125,0.432639 -0.9493,0.65474 -0.24516,0.23876 -0.52718,0.640446 -0.68934,0.982887 -0.23405,0.494 -0.27848,0.69602 -0.30388,1.37252 -0.0238,0.63335 0.007,0.90217 0.1509,1.33481 0.0995,0.298 0.32718,0.7357 0.50591,0.97255 0.17877,0.23684 0.53609,0.57228 0.79427,0.74569 0.25818,0.17341 0.68358,0.37635 0.94518,0.45062 0.26156,0.0742 0.55321,0.15081 0.64801,0.17001 0.0948,0.0193 0.32729,0.0389 0.51676,0.0444 v -5.3e-4 c 0.18944,0.005 0.56899,-0.027 0.84283,-0.0718 0.27382,-0.0448 0.74798,-0.20452 1.05368,-0.35501 0.32604,-0.16051 0.71866,-0.44841 0.95033,-0.69609 0.21722,-0.23221 0.48651,-0.6246 0.59841,-0.87178 0.11194,-0.24718 0.2477,-0.69761 0.30181,-1.00149 0.0727,-0.40822 0.0737,-0.70077 0.003,-1.11982 -0.0524,-0.31192 -0.21132,-0.8063 -0.35298,-1.09864 -0.16434,-0.339134 -0.4281,-0.687567 -0.72917,-0.962738 -0.2872,-0.26248 -0.66564,-0.504648 -0.96686,-0.618049 -0.27218,-0.102499 -0.74274,-0.225173 -1.0454,-0.272851 -0.18598,-0.0292 -0.37179,-0.04371 -0.56121,-0.04341 z m 7.66876,0.0021 c -0.0845,0.0021 -0.16224,0.0061 -0.22735,0.01394 -0.26054,0.0298 -0.66752,0.115763 -0.90435,0.191204 -0.23683,0.0755 -0.6241,0.260646 -0.86093,0.411342 -0.23685,0.150712 -0.56245,0.424186 -0.72347,0.607716 -0.161,0.183539 -0.38587,0.537353 -0.4997,0.786003 -0.11385,0.24865 -0.25151,0.68926 -0.3054,0.97927 -0.0741,0.39979 -0.0732,0.67214 0.004,1.12654 0.0565,0.3296 0.21486,0.82141 0.35192,1.09296 0.13708,0.27155 0.44868,0.67988 0.69194,0.90743 0.24328,0.22756 0.65143,0.50934 0.90693,0.62632 0.25554,0.11698 0.63183,0.24857 0.83664,0.29198 0.20482,0.0434 0.68247,0.0629 1.06143,0.0434 0.37897,-0.0194 0.88249,-0.10101 1.11932,-0.18138 0.23686,-0.0804 0.6336,-0.27953 0.88159,-0.44235 0.24797,-0.16283 0.56854,-0.44402 0.7121,-0.62529 0.14357,-0.18127 0.36658,-0.55607 0.4961,-0.8325 0.21206,-0.45257 0.23564,-0.59712 0.23564,-1.45418 0,-0.92608 -0.009,-0.96963 -0.32245,-1.60455 -0.19196,-0.3884 -0.46673,-0.782762 -0.67853,-0.974103 -0.19574,-0.176837 -0.59809,-0.43461 -0.894,-0.57309 -0.29596,-0.138491 -0.78473,-0.29242 -1.08675,-0.341583 -0.22653,-0.0369 -0.54179,-0.05489 -0.79531,-0.04909 z m -15.256931,0.03721 c -0.6536,0 -0.980281,0.0428 -1.354958,0.177768 -0.271568,0.0978 -0.662596,0.293998 -0.869209,0.436148 -0.206613,0.14215 -0.493263,0.392184 -0.63664,0.555521 -0.143431,0.163322 -0.361395,0.504683 -0.484214,0.758616 -0.12282,0.25393 -0.262044,0.71374 -0.309536,1.02164 -0.05339,0.35117 -0.05728,0.76208 -0.0082,1.10277 0.0427,0.29872 0.191188,0.78354 0.329697,1.07694 0.139726,0.29596 0.434022,0.71109 0.660956,0.93276 0.224948,0.21976 0.620818,0.50327 0.879528,0.62994 0.258709,0.12669 0.632248,0.26522 0.830447,0.30747 0.19812,0.0426 0.660427,0.0599 1.027324,0.0398 v 5.3e-4 c 0.477653,-0.0261 0.797693,-0.0987 1.127576,-0.25476 0.25342,-0.11987 0.53261,-0.29662 0.6201,-0.39326 0.1582,-0.17481 0.15994,-0.17422 0.33642,0.19327 0.16534,0.34428 0.20341,0.37137 0.56174,0.39687 0.28948,0.0206 0.41166,-0.01 0.49506,-0.12402 0.0814,-0.11114 0.1111,-0.59621 0.1111,-1.82108 v -1.66966 l -0.25218,-0.25167 -0.25167,-0.25166 h -1.29347 c -1.2283,0 -1.305347,0.0101 -1.52548,0.19947 -0.182483,0.15695 -0.23204,0.27514 -0.23204,0.55655 0,0.19666 0.06072,0.45039 0.134885,0.56379 0.07451,0.11362 0.258789,0.23116 0.410316,0.26149 0.151236,0.0303 0.412723,0.0548 0.58084,0.0548 h 0.305409 l -0.199999,0.21291 c -0.109961,0.11704 -0.334328,0.25741 -0.498661,0.31161 -0.164359,0.0545 -0.490696,0.0799 -0.72554,0.0574 -0.234871,-0.0226 -0.531151,-0.11801 -0.657834,-0.21187 -0.126788,-0.0939 -0.315436,-0.29549 -0.419629,-0.44855 -0.104193,-0.15307 -0.214312,-0.44319 -0.244422,-0.64441 -0.03011,-0.20121 -0.01191,-0.52612 0.04082,-0.72192 0.05271,-0.1958 0.199761,-0.47922 0.326602,-0.62993 0.126788,-0.1507 0.356949,-0.32655 0.511598,-0.3912 0.154649,-0.0646 0.442807,-0.11782 0.639736,-0.11782 0.227542,0 0.543613,0.0942 0.866617,0.25838 0.313582,0.15936 0.640082,0.25839 0.852672,0.25839 0.18957,0 0.4876,-0.0594 0.66196,-0.1323 0.17439,-0.0729 0.38619,-0.1952 0.47077,-0.27181 0.0847,-0.0766 0.15402,-0.25344 0.15402,-0.392742 0,-0.139301 -0.0799,-0.365353 -0.17777,-0.502812 -0.0979,-0.137472 -0.35042,-0.368614 -0.56121,-0.513664 -0.21082,-0.14504 -0.6059,-0.343993 -0.87747,-0.441833 -0.3747,-0.134972 -0.701381,-0.177769 -1.354955,-0.177769 z m -10.473796,0.0217 c -0.254979,2.62e-4 -0.602191,0.0392 -0.771525,0.0863 -0.169307,0.047 -0.387641,0.172402 -0.485748,0.279051 -0.09811,0.106661 -0.613781,1.357034 -1.145673,2.778124 -0.531891,1.4211 -0.99822,2.71451 -1.036108,2.87476 -0.03781,0.16046 -0.03315,0.38481 0.01032,0.4992 0.0435,0.11426 0.205369,0.26266 0.359648,0.32969 0.154358,0.0671 0.405633,0.12328 0.558641,0.12558 0.152982,0.002 0.433837,-0.0592 0.624232,-0.1354 0.278209,-0.11129 0.384254,-0.22124 0.539512,-0.55965 l 0.193278,-0.42117 h 1.13792 1.13739 l 0.168461,0.37983 c 0.0925,0.20917 0.259027,0.43999 0.369993,0.51263 0.111046,0.0727 0.358378,0.15702 0.549857,0.18758 0.191453,0.0306 0.510461,0.0121 0.709004,-0.0413 0.198517,-0.0534 0.40042,-0.17095 0.448548,-0.26097 0.048,-0.09 0.08647,-0.27278 0.08578,-0.40617 0,-0.13338 -0.463471,-1.47676 -1.027853,-2.98535 -0.564359,-1.50862 -1.087203,-2.811029 -1.162212,-2.893881 -0.07498,-0.0828 -0.285803,-0.194916 -0.46818,-0.249597 -0.182377,-0.0546 -0.540279,-0.09952 -0.795311,-0.09922 z m 42.814987,5.29e-4 c -2.00144,-2.64e-4 -2.319,0.01781 -2.58228,0.14986 -0.16516,0.0828 -0.34843,0.247449 -0.40773,0.365871 -0.0592,0.11842 -0.1084,0.3434 -0.10903,0.499711 0,0.1563 0.0539,0.390874 0.12144,0.521414 0.0675,0.13053 0.22408,0.283932 0.3483,0.340552 0.12419,0.0566 0.5321,0.10283 0.90588,0.10283 h 0.67953 l 0.0269,2.17868 c 0.0236,1.90341 0.0457,2.20783 0.17777,2.40916 0.0831,0.12676 0.27729,0.26669 0.43098,0.31109 0.15354,0.0443 0.37606,0.0845 0.49454,0.0884 0.11856,0.004 0.34975,-0.0604 0.51469,-0.14314 0.16513,-0.0828 0.34843,-0.24744 0.40775,-0.36587 0.0772,-0.15454 0.10824,-0.81665 0.10903,-2.34663 l 0.003,-2.13165 h 0.78187 c 0.74922,0 0.79224,-0.0104 1.03352,-0.25166 0.20574,-0.205702 0.25167,-0.325029 0.25167,-0.650607 0,-0.219151 -0.058,-0.510982 -0.1292,-0.648541 -0.0874,-0.168979 -0.23402,-0.278924 -0.45217,-0.339513 -0.18616,-0.0517 -1.28939,-0.08972 -2.60551,-0.08992 z m -11.13473,0.01241 c -0.56324,-0.005 -0.72408,0.02851 -0.92294,0.131776 -0.20238,0.105079 -0.33513,0.255503 -0.4041,0.457853 -0.0707,0.207209 -0.10285,1.10903 -0.10285,2.88509 0,1.77609 0.0322,2.67841 0.10285,2.88562 0.069,0.20235 0.20172,0.35277 0.4041,0.45785 0.26516,0.13773 0.46225,0.15166 1.63658,0.11472 0.76678,-0.0241 1.51844,-0.0948 1.7658,-0.16536 0.23683,-0.0676 0.59907,-0.20887 0.8051,-0.31419 0.20606,-0.10532 0.54784,-0.35152 0.75964,-0.54674 0.2118,-0.19524 0.48234,-0.52111 0.60153,-0.72451 0.11917,-0.20338 0.27112,-0.57384 0.33745,-0.8232 0.0664,-0.24936 0.12092,-0.64734 0.12092,-0.88419 0,-0.23685 -0.0545,-0.63432 -0.12092,-0.88366 -0.0664,-0.24936 -0.21828,-0.61983 -0.33745,-0.82321 -0.11919,-0.203378 -0.38973,-0.529789 -0.60153,-0.725017 -0.2118,-0.195231 -0.55358,-0.440891 -0.75964,-0.546222 -0.20603,-0.105339 -0.56827,-0.24705 -0.8051,-0.314709 -0.24736,-0.0706 -0.99902,-0.140737 -1.7658,-0.164848 -0.29356,-0.009 -0.52592,-0.01524 -0.71364,-0.01704 z m 23.35051,0.0026 c -0.16838,-7.94e-4 -0.35274,0.0349 -0.53329,0.10387 -0.23202,0.0886 -0.41196,0.225473 -0.47337,0.360183 -0.068,0.14923 -0.0987,1.089469 -0.0987,3.00757 0,1.90086 0.0311,2.85969 0.0977,3.00602 0.0538,0.11816 0.23807,0.27567 0.40928,0.34933 0.18381,0.0791 0.46527,0.11972 0.68729,0.0997 0.20671,-0.0186 0.47672,-0.10915 0.60049,-0.20153 0.12372,-0.0924 0.25128,-0.26155 0.28319,-0.37569 0.0319,-0.11415 0.0579,-1.40941 0.0579,-2.87786 0,-1.46846 -0.0259,-2.763196 -0.0579,-2.877345 -0.0319,-0.114159 -0.15502,-0.280053 -0.27337,-0.368453 -0.11843,-0.0884 -0.35997,-0.184206 -0.53692,-0.212908 -0.0518,-0.008 -0.10615,-0.0122 -0.16227,-0.01241 z m 14.46215,0.0041 c -0.0644,0.0021 -0.12776,0.008 -0.18706,0.01706 -0.21875,0.0328 -0.49572,0.144505 -0.61547,0.248047 -0.17195,0.148728 -0.23516,0.314894 -0.30126,0.791165 -0.0461,0.331589 -0.1252,0.729538 -0.1757,0.884698 -0.0506,0.15515 -0.19006,0.39893 -0.31007,0.54157 -0.12002,0.14264 -0.35396,0.31621 -0.51985,0.38551 -0.1659,0.0693 -0.37195,0.12609 -0.45734,0.12609 -0.14128,0 -0.15753,-0.11348 -0.18293,-1.25677 -0.0277,-1.249531 -0.0292,-1.257689 -0.26511,-1.460378 -0.13044,-0.112091 -0.36645,-0.227708 -0.52451,-0.25735 -0.15809,-0.0296 -0.44881,-0.01082 -0.64595,0.04238 -0.22421,0.0604 -0.41482,0.182539 -0.50901,0.326078 -0.13356,0.20361 -0.15314,0.531072 -0.17624,2.904734 -0.0196,2.02242 0,2.7589 0.0858,3.01842 0.082,0.25119 0.19282,0.38333 0.41341,0.49351 0.16557,0.0828 0.41796,0.15075 0.56015,0.15089 0.14221,-1.4e-4 0.39314,-0.0682 0.55811,-0.15089 0.16512,-0.0828 0.34864,-0.24746 0.40772,-0.36587 0.0608,-0.12157 0.10843,-0.53935 0.10904,-0.95963 0,-0.59855 0.0279,-0.75485 0.13747,-0.79685 0.0749,-0.0288 0.25916,-0.0515 0.40926,-0.0507 0.26212,0.001 0.28774,0.0357 0.65527,0.85887 0.21045,0.4713 0.47228,0.95356 0.58187,1.07177 0.10962,0.1182 0.3638,0.25894 0.56483,0.31315 0.20103,0.0545 0.55449,0.0764 0.78547,0.0491 0.23098,-0.0273 0.51184,-0.10979 0.62426,-0.18345 0.14433,-0.0946 0.20465,-0.2143 0.20465,-0.40825 0,-0.19469 -0.20031,-0.59302 -0.68887,-1.36839 -0.37893,-0.60149 -0.68934,-1.12866 -0.68934,-1.1715 0,-0.0428 0.11308,-0.18606 0.25114,-0.31833 0.13806,-0.13227 0.3678,-0.47891 0.51057,-0.76998 0.14274,-0.29108 0.32504,-0.8542 0.40513,-1.251603 0.13364,-0.661221 0.13462,-0.746435 0.0103,-1.007174 -0.10004,-0.209809 -0.2254,-0.312165 -0.4754,-0.387056 -0.15179,-0.0455 -0.35708,-0.06631 -0.55036,-0.05891 z m -6.83574,0.0041 c -0.0578,-2.62e-4 -0.11804,0.004 -0.18191,0.01188 -0.20029,0.02519 -0.44151,0.0942 -0.53639,0.153479 -0.0948,0.0592 -0.20201,0.166645 -0.23772,0.238744 -0.0357,0.0721 -0.0846,0.76793 -0.10904,1.546155 l -0.0444,1.41491 -1.23039,-1.50586 c -0.67657,-0.828126 -1.35448,-1.579866 -1.50691,-1.670694 -0.18611,-0.11089 -0.43976,-0.165759 -0.77203,-0.1664 -0.42582,-0.0011 -0.52744,0.0319 -0.73175,0.236162 l -0.23771,0.237712 -0.0217,2.86184 c -0.0167,2.17941 0.004,2.91283 0.0873,3.07682 0.0601,0.11841 0.24413,0.28556 0.40925,0.37103 0.21067,0.10891 0.40905,0.14176 0.66456,0.10956 0.20031,-0.0252 0.43997,-0.0932 0.53229,-0.1509 0.0924,-0.0577 0.20976,-0.1961 0.26043,-0.30747 0.0525,-0.11513 0.092,-0.75818 0.092,-1.49035 0,-0.70831 0.029,-1.28519 0.0646,-1.28209 0.0355,0.003 0.6064,0.66581 1.26867,1.47226 0.66228,0.80643 1.32149,1.52849 1.4645,1.60455 0.14885,0.0791 0.47128,0.13998 0.75449,0.14159 0.42714,0.003 0.52728,-0.0297 0.73226,-0.23461 l 0.23717,-0.23719 0.0217,-2.86184 c 0.0167,-2.179424 -0.004,-2.913354 -0.0868,-3.077335 -0.0601,-0.118409 -0.24468,-0.285059 -0.40981,-0.37052 -0.15801,-0.0817 -0.30922,-0.12066 -0.48265,-0.121438 z M 24.245784,77.93584 c -0.714621,-5.29e-4 -0.880618,0.0293 -1.311547,0.235128 -0.27137,0.129632 -0.605147,0.371419 -0.741558,0.536919 -0.136409,0.165491 -0.292132,0.448431 -0.346231,0.628904 -0.0541,0.180459 -0.09797,0.536639 -0.09767,0.791679 5.29e-4,0.35299 0.0603,0.56769 0.250113,0.89866 0.13717,0.23913 0.40015,0.53891 0.584462,0.66662 0.184279,0.12772 0.677002,0.34808 1.095023,0.48938 0.41801,0.14129 0.813715,0.30128 0.879014,0.35553 0.0654,0.0542 0.118857,0.18314 0.118857,0.28629 0,0.10315 -0.0466,0.2341 -0.103352,0.29094 -0.0569,0.0568 -0.216805,0.10335 -0.355534,0.10335 -0.167312,0 -0.364701,-0.10185 -0.586012,-0.30179 -0.22297,-0.20144 -0.418243,-0.30127 -0.588595,-0.30127 -0.1402,0 -0.465257,0.0789 -0.722437,0.17518 -0.345318,0.1292 -0.493588,0.23731 -0.566888,0.41444 -0.0665,0.16069 -0.07217,0.31054 -0.01757,0.45424 0.0448,0.11796 0.186123,0.33923 0.314192,0.49144 0.12808,0.15221 0.399257,0.37439 0.602547,0.49351 0.203271,0.11913 0.538448,0.25197 0.744659,0.29559 0.206208,0.0437 0.679275,0.0628 1.051615,0.0424 0.475239,-0.0262 0.814999,-0.10058 1.140497,-0.2496 0.255011,-0.11675 0.566283,-0.32122 0.691431,-0.45424 0.125121,-0.13301 0.298725,-0.39704 0.386024,-0.58652 0.095,-0.20618 0.159943,-0.5443 0.160713,-0.84233 0.0011,-0.2739 -0.05839,-0.64193 -0.131775,-0.81804 -0.0735,-0.17612 -0.25722,-0.44961 -0.40876,-0.60771 -0.151559,-0.1581 -0.411436,-0.35625 -0.577226,-0.44029 -0.165799,-0.084 -0.618363,-0.25732 -1.005623,-0.38499 -0.387231,-0.12768 -0.748451,-0.28617 -0.803053,-0.35191 -0.0546,-0.0657 -0.08681,-0.20862 -0.07131,-0.31781 0.02241,-0.15822 0.08971,-0.20393 0.331247,-0.22428 0.243809,-0.0205 0.352208,0.0261 0.554488,0.2372 0.181448,0.18938 0.330803,0.262 0.537435,0.262 0.15744,0 0.461184,-0.082 0.674893,-0.18242 0.213702,-0.10045 0.46739,-0.28264 0.563791,-0.40514 0.121121,-0.153915 0.158639,-0.290477 0.121438,-0.441837 -0.0296,-0.120481 -0.192383,-0.36222 -0.361733,-0.536919 -0.16936,-0.17471 -0.50582,-0.4039 -0.74776,-0.509529 -0.352989,-0.15412 -0.601194,-0.192323 -1.257803,-0.192755 z m 111.733766,0.0011 c -0.22252,0 -0.50285,0.0524 -0.62323,0.11679 -0.12036,0.0644 -0.26212,0.211661 -0.31472,0.32711 -0.0638,0.14011 -0.0956,1.14124 -0.0956,3.010672 0,1.93814 0.0304,2.85878 0.0987,2.98896 0.0543,0.10347 0.16076,0.22703 0.23667,0.2744 0.076,0.0474 0.21587,0.11304 0.31057,0.14625 0.0947,0.0332 0.33612,0.0435 0.53641,0.0233 v 5.3e-4 c 0.20029,-0.0203 0.43985,-0.0844 0.53227,-0.14212 0.0924,-0.0577 0.20973,-0.1961 0.26045,-0.30747 0.0508,-0.11135 0.092,-0.62684 0.092,-1.14566 v -0.94362 h 1.11982 1.11985 v 0.95188 c 0,0.67935 0.0371,1.02339 0.1297,1.20251 0.0921,0.17811 0.23217,0.27866 0.48318,0.34624 0.19447,0.0523 0.49483,0.0706 0.66712,0.0408 0.17233,-0.0298 0.37447,-0.10018 0.44961,-0.15658 0.0751,-0.0564 0.18209,-0.18696 0.23717,-0.29042 0.0703,-0.13193 0.10028,-1.02489 0.10028,-2.98897 0,-1.869426 -0.0323,-2.870556 -0.0961,-3.010666 -0.0526,-0.115449 -0.19384,-0.26271 -0.3142,-0.32711 -0.12038,-0.0644 -0.40124,-0.11679 -0.62375,-0.11679 -0.22249,0 -0.50284,0.0524 -0.6232,0.11679 -0.12036,0.0644 -0.26159,0.211661 -0.31419,0.32711 -0.0527,0.115451 -0.0961,0.634579 -0.0961,1.153419 v 0.943097 h -1.11932 -1.11982 v -0.943097 c 0,-0.51884 -0.043,-1.037968 -0.0956,-1.153419 -0.0526,-0.115448 -0.19434,-0.26271 -0.31472,-0.32711 -0.12036,-0.0644 -0.40072,-0.116789 -0.6232,-0.116789 z m -98.049846,0.02894 c -0.255029,2.51e-4 -0.602221,0.0393 -0.77153,0.0863 -0.169299,0.047 -0.393618,0.177019 -0.498676,0.288869 -0.112991,0.120261 -0.615453,1.360873 -1.229384,3.035993 -0.83162,2.26906 -1.023382,2.8754 -0.964282,3.04787 0.0406,0.11843 0.208857,0.28305 0.374137,0.36587 0.16528,0.0828 0.425786,0.15083 0.578776,0.1509 0.153,7e-5 0.433813,-0.0623 0.624252,-0.13849 0.27817,-0.11129 0.384231,-0.22125 0.539502,-0.55966 l 0.19327,-0.42168 h 1.137915 1.137398 l 0.168466,0.38034 c 0.0925,0.20918 0.258971,0.43998 0.370004,0.51263 0.111008,0.0727 0.358357,0.15701 0.549836,0.18758 0.191471,0.0306 0.510481,0.0117 0.709001,-0.0418 0.19853,-0.0535 0.400452,-0.17043 0.448551,-0.26045 0.0482,-0.09 0.08785,-0.27743 0.08785,-0.416 0,-0.13857 -0.461994,-1.48093 -1.026292,-2.98328 -0.564311,-1.50235 -1.087855,-2.800149 -1.163754,-2.884059 -0.0759,-0.0839 -0.287369,-0.197533 -0.469738,-0.252182 -0.182362,-0.0546 -0.540251,-0.099 -0.795301,-0.0987 z m 31.876595,0.0047 v 5.29e-4 c -0.165788,-0.003 -0.434419,0.0629 -0.597376,0.145727 -0.171476,0.0871 -0.327925,0.248214 -0.371554,0.382405 -0.06279,0.19363 0.110569,0.699439 1.052142,3.066476 0.716465,1.80111 1.200891,2.90314 1.329108,3.02359 0.110966,0.10425 0.313134,0.22322 0.449606,0.26407 0.136446,0.0409 0.442172,0.0773 0.679027,0.0811 0.236828,0.004 0.569119,-0.032 0.738452,-0.0791 0.169307,-0.047 0.390287,-0.17352 0.490908,-0.28061 0.100621,-0.10709 0.382243,-0.69824 0.626321,-1.31361 0.244105,-0.61536 0.730594,-1.84599 1.081088,-2.73524 0.350493,-0.88923 0.63717,-1.732217 0.63717,-1.873266 0,-0.141042 -0.07459,-0.331394 -0.165894,-0.422715 -0.09131,-0.0913 -0.341868,-0.192084 -0.556551,-0.224276 -0.24855,-0.0373 -0.521494,-0.01611 -0.751893,0.0584 -0.19902,0.0643 -0.43307,0.213341 -0.519854,0.331761 -0.08681,0.118422 -0.429021,0.982596 -0.760677,1.9203 -0.331708,0.93771 -0.627433,1.85856 -0.65733,2.04587 -0.03,0.18734 -0.08829,0.34055 -0.129699,0.34055 -0.0413,0 -0.07496,-0.0967 -0.07493,-0.21446 0,-0.11774 -0.131498,-0.59218 -0.291994,-1.05472 -0.16047,-0.46254 -0.450956,-1.28666 -0.645425,-1.83141 -0.194469,-0.544751 -0.42545,-1.087708 -0.513159,-1.20613 -0.0876,-0.11842 -0.291307,-0.261268 -0.452676,-0.31781 -0.161343,-0.0565 -0.429022,-0.104986 -0.59481,-0.107487 z m -3.738774,0.0041 c -0.154278,-0.0021 -0.312552,0.003 -0.4377,0.0155 -0.250296,0.0258 -0.567373,0.105106 -0.704877,0.176218 -0.156897,0.0811 -0.319457,0.284483 -0.436668,0.545703 -0.102711,0.228928 -0.595154,1.518034 -1.094502,2.864944 -0.499348,1.34691 -0.907944,2.55119 -0.907944,2.67632 -2.6e-5,0.12559 0.08681,0.30755 0.193781,0.40618 0.106574,0.0983 0.271066,0.1998 0.365866,0.2253 0.09469,0.0255 0.361235,0.0306 0.592217,0.0114 0.231007,-0.0192 0.515646,-0.0976 0.632513,-0.17415 0.116866,-0.0766 0.288369,-0.3107 0.380867,-0.51986 l 0.167931,-0.38034 h 1.13792 1.137391 l 0.194839,0.42426 c 0.164068,0.35767 0.254926,0.44707 0.58084,0.57154 0.273526,0.10446 0.504481,0.13121 0.790654,0.092 0.234606,-0.0322 0.487231,-0.13353 0.602536,-0.24185 0.109247,-0.10265 0.198967,-0.28401 0.198967,-0.40256 0,-0.11856 -0.470482,-1.46896 -1.045422,-3.00136 -0.847355,-2.258456 -1.092279,-2.825717 -1.292437,-2.994138 -0.138456,-0.116498 -0.420766,-0.233868 -0.642858,-0.267165 -0.108929,-0.0163 -0.259635,-0.02572 -0.413914,-0.02791 z m 13.957803,0.0021 c -0.35687,-0.005 -0.808091,-0.0039 -1.268148,0.0041 -1.27807,0.02159 -1.71749,0.0573 -1.860868,0.152445 -0.103187,0.0685 -0.228864,0.215741 -0.279558,0.327112 -0.05961,0.130688 -0.0925,1.195687 -0.0925,3.003437 0,1.93814 0.0304,2.85877 0.09869,2.98896 0.05429,0.10346 0.160814,0.22652 0.23667,0.27389 0.07601,0.0474 0.215794,0.11273 0.310594,0.14521 0.09469,0.0325 0.995257,0.0522 2.000912,0.0434 l 1.828298,-0.016 0.23876,-0.23926 c 0.204523,-0.20483 0.238125,-0.30653 0.234077,-0.71262 -0.004,-0.3707 -0.04662,-0.51569 -0.196348,-0.66559 -0.177165,-0.17735 -0.283527,-0.19329 -1.43764,-0.21911 l -1.246954,-0.0279 v -0.38138 -0.38137 h 1.110006 c 0.929561,0 1.140037,-0.0242 1.2945,-0.15038 0.101389,-0.0829 0.207619,-0.29415 0.235638,-0.46922 0.02799,-0.17507 0.0254,-0.41859 -0.0053,-0.54105 -0.03082,-0.12247 -0.180649,-0.29862 -0.333313,-0.39171 -0.234262,-0.14285 -0.435769,-0.16922 -1.289844,-0.1695 l -1.01182,-5.3e-4 v -0.34468 -0.34417 h 1.169432 1.169432 l 0.251672,-0.25166 c 0.212778,-0.212719 0.251671,-0.320201 0.251671,-0.69298 0,-0.35024 -0.04239,-0.483688 -0.205687,-0.646988 -0.113136,-0.113131 -0.338931,-0.230934 -0.501782,-0.261483 -0.08139,-0.01529 -0.343852,-0.02559 -0.700722,-0.03049 z m -62.808573,0.0083 c -0.0594,5.29e-4 -0.119584,0.005 -0.179834,0.01291 -0.201669,0.0276 -0.44245,0.09779 -0.53485,0.155546 -0.0924,0.0577 -0.209233,0.195598 -0.259932,0.306959 -0.0595,0.130698 -0.0925,1.195671 -0.0925,3.003431 0,1.93813 0.0304,2.85879 0.0987,2.98897 0.0543,0.10347 0.161293,0.22651 0.237194,0.27388 0.076,0.0474 0.215358,0.11133 0.31006,0.14211 0.0948,0.0308 0.280069,0.0598 0.411861,0.0646 0.131789,0.005 0.375587,-0.048 0.541568,-0.11731 0.20511,-0.0857 0.34208,-0.22276 0.427881,-0.42788 0.101399,-0.24261 0.12609,-0.81789 0.12609,-2.93419 0,-2.116298 -0.02471,-2.691574 -0.12609,-2.934186 -0.0885,-0.211759 -0.222535,-0.341805 -0.449585,-0.436666 -0.159501,-0.0666 -0.332383,-0.09968 -0.510564,-0.09818 z m 43.698618,0.0011 c -0.0604,0.0021 -0.124936,0.008 -0.195844,0.0186 -0.208783,0.0313 -0.468604,0.128733 -0.577215,0.216525 -0.181663,0.146788 -0.200713,0.245155 -0.240295,1.222663 l -0.04342,1.062982 -1.090904,0.0238 -1.090374,0.0243 -0.02892,-1.043861 c -0.02802,-1.016302 -0.03521,-1.048989 -0.266141,-1.247472 -0.13044,-0.112098 -0.366475,-0.228203 -0.52451,-0.257865 -0.158062,-0.0296 -0.448813,-0.01021 -0.645954,0.04289 -0.224446,0.0604 -0.414814,0.18228 -0.509005,0.326081 -0.135494,0.20692 -0.15039,0.512067 -0.15039,3.079396 0,2.57221 0.01508,2.87219 0.151421,3.08043 0.08308,0.1269 0.276755,0.26723 0.430451,0.31161 0.153353,0.0443 0.37592,0.084 0.494559,0.0884 v 0 c 0.118666,0.004 0.349965,-0.0605 0.514694,-0.14314 0.165127,-0.0828 0.348536,-0.24745 0.407723,-0.36587 0.06572,-0.13152 0.108426,-0.5755 0.109035,-1.14102 l 0.0026,-0.92604 h 1.119822 1.119823 v 1.03766 c 0,0.97713 0.01138,1.04917 0.204126,1.24179 0.12491,0.12489 0.358246,0.22745 0.598937,0.26354 0.299588,0.0449 0.472096,0.0208 0.720355,-0.10076 0.179652,-0.0879 0.375179,-0.25675 0.434075,-0.37517 0.07871,-0.15811 0.106971,-0.94755 0.106971,-2.9714 0,-2.023849 -0.02831,-2.813283 -0.106971,-2.971393 -0.05885,-0.11842 -0.254377,-0.287242 -0.434029,-0.375171 -0.183013,-0.0896 -0.328745,-0.126469 -0.510038,-0.121439 z m -12.622477,0.0016 c -0.0548,0.0021 -0.106627,0.007 -0.151924,0.01601 -0.178567,0.0335 -0.432117,0.170135 -0.567928,0.305925 l -0.245454,0.245464 v 2.872696 c 0,2.5147 0.0172,2.89792 0.140044,3.07319 0.0771,0.11012 0.261382,0.25292 0.409258,0.3173 0.193146,0.0841 0.712258,0.1182 1.843299,0.1204 1.158213,0.003 1.650497,-0.0284 1.861899,-0.11679 0.158089,-0.0661 0.350679,-0.21062 0.427884,-0.32091 0.08311,-0.11853 0.140574,-0.37142 0.140574,-0.61856 0,-0.34727 -0.04249,-0.46062 -0.251672,-0.66973 -0.251407,-0.25143 -0.253074,-0.25166 -1.329637,-0.25166 h -1.077966 l -0.02688,-2.23036 c -0.02461,-2.054148 -0.03998,-2.244754 -0.191717,-2.412254 -0.09059,-0.100031 -0.309589,-0.225446 -0.486781,-0.278537 -0.135705,-0.0406 -0.328533,-0.05959 -0.492998,-0.05219 z m -15.395443,0.0031 c -0.17404,-0.003 -0.348633,0.0312 -0.525033,0.101804 -0.205799,0.0823 -0.392385,0.229954 -0.449586,0.355534 -0.054,0.118491 -0.09818,0.637428 -0.09818,1.158068 v 0.9431 H 30.705338 29.58551 v -0.9431 c 0,-0.51883 -0.043,-1.037977 -0.0956,-1.153418 -0.0526,-0.115451 -0.19436,-0.262691 -0.314708,-0.327112 -0.12037,-0.0644 -0.400709,-0.11679 -0.623218,-0.11679 -0.222502,0 -0.502859,0.05241 -0.623218,0.11679 -0.120359,0.0644 -0.26211,0.211661 -0.314709,0.327112 -0.0638,0.140111 -0.0956,1.141228 -0.0956,3.010668 0,1.93813 0.0304,2.8588 0.0987,2.98897 0.0543,0.10347 0.160777,0.22651 0.236678,0.27388 0.076,0.0474 0.215873,0.11355 0.310573,0.14676 0.0947,0.0332 0.336121,0.0436 0.536403,0.0233 0.200289,-0.0203 0.439968,-0.0839 0.532267,-0.14159 0.0924,-0.0577 0.209233,-0.19612 0.259932,-0.30748 0.0508,-0.11136 0.0925,-0.62683 0.0925,-1.14567 v -0.94361 h 1.119828 1.119312 v 0.95292 c 0,0.55936 0.0415,1.03111 0.100253,1.14153 0.0551,0.10346 0.162095,0.23403 0.237194,0.29042 0.0752,0.0564 0.277286,0.12679 0.449585,0.15658 0.172289,0.0298 0.468718,0.0123 0.658358,-0.0388 0.200091,-0.0539 0.402775,-0.18165 0.483174,-0.30437 0.12029,-0.1836 0.138493,-0.58748 0.138493,-3.06235 0,-2.002207 -0.02989,-2.906453 -0.100253,-3.038572 -0.0551,-0.10346 -0.161578,-0.234961 -0.236678,-0.291971 -0.0752,-0.057 -0.292841,-0.127923 -0.48369,-0.157615 -0.058,-0.009 -0.115623,-0.01408 -0.173633,-0.01498 z m 10.005074,0.0062 c -0.0596,0.0021 -0.115359,0.007 -0.163299,0.0155 -0.191738,0.0324 -0.435983,0.146076 -0.542602,0.252695 -0.13004,0.130051 -0.212648,0.346753 -0.251148,0.657842 -0.0312,0.25504 -0.04454,1.570063 -0.02894,2.922303 0.0249,2.16921 0.046,2.48588 0.179316,2.68924 0.0832,0.12677 0.276765,0.26671 0.430467,0.31109 0.153699,0.0444 0.977201,0.0821 1.829861,0.0837 0.9829,0.002 1.660437,-0.0351 1.851556,-0.10025 0.213334,-0.0728 0.348007,-0.19724 0.459926,-0.42633 0.115622,-0.23657 0.14216,-0.41612 0.09975,-0.66715 -0.03191,-0.18894 -0.128164,-0.43071 -0.214471,-0.53743 -0.144806,-0.1792 -0.244634,-0.19743 -1.305856,-0.2372 l -1.149284,-0.0434 -0.04289,-2.19625 c -0.0303,-1.544754 -0.0756,-2.252697 -0.152445,-2.386939 -0.0632,-0.110619 -0.257526,-0.230708 -0.461988,-0.285771 -0.1455,-0.0392 -0.359201,-0.05827 -0.537951,-0.05168 z m 63.578043,1.791625 c 0.30665,0 0.60031,0.0609 0.80925,0.16743 0.18034,0.092 0.38862,0.26003 0.46302,0.37362 0.0744,0.11359 0.17926,0.36986 0.23305,0.56947 0.0549,0.20367 0.0722,0.53211 0.0398,0.74828 -0.0318,0.21185 -0.14126,0.50885 -0.24339,0.66042 -0.10216,0.15157 -0.31613,0.36409 -0.47594,0.47181 -0.22013,0.14837 -0.40759,0.19397 -0.77308,0.19017 -0.26538,-0.003 -0.57973,-0.044 -0.69816,-0.091 -0.11842,-0.0471 -0.32324,-0.189 -0.45526,-0.31523 -0.13605,-0.13011 -0.29803,-0.42851 -0.37362,-0.68885 -0.11081,-0.38123 -0.11584,-0.53207 -0.03,-0.88986 0.0569,-0.23706 0.20066,-0.54678 0.31938,-0.68782 0.11864,-0.14104 0.32528,-0.31303 0.45939,-0.3824 0.13412,-0.0693 0.46075,-0.12609 0.72554,-0.12609 z m 7.86513,0 c 0.38447,0 0.5765,0.047 0.79222,0.19378 0.15658,0.10658 0.36523,0.30245 0.46352,0.43512 0.13354,0.18026 0.18505,0.39756 0.20466,0.86093 0.022,0.52049 -0.005,0.67413 -0.17055,0.95653 -0.1084,0.18503 -0.30488,0.41645 -0.43667,0.51418 -0.17434,0.12931 -0.39751,0.18481 -0.81854,0.20309 -0.44826,0.0195 -0.64926,-0.0138 -0.89297,-0.14625 -0.17301,-0.094 -0.40558,-0.3172 -0.51676,-0.49609 -0.16216,-0.2605 -0.20206,-0.44522 -0.20206,-0.92811 0,-0.48309 0.0403,-0.66716 0.20256,-0.92811 0.11137,-0.17911 0.35206,-0.4023 0.53486,-0.49557 0.21931,-0.11187 0.50493,-0.1695 0.83973,-0.1695 z m 6.47558,0.0641 0.6196,0.061 c 0.34094,0.0336 0.76329,0.13388 0.93845,0.22325 0.2136,0.10897 0.37811,0.28622 0.49972,0.53743 0.0997,0.20602 0.18137,0.51849 0.18137,0.69453 0,0.17605 -0.0539,0.44918 -0.11989,0.6072 -0.066,0.15803 -0.26648,0.39937 -0.44545,0.53589 -0.2821,0.21515 -0.415,0.25194 -0.99941,0.27853 l -0.67439,0.031 v -1.48467 z m -32.392838,0.0672 c 0.0061,-0.002 0.01164,-5.3e-4 0.01693,0.003 0.04321,0.0267 0.07855,0.13845 0.07855,0.24804 0,0.10959 0.110913,0.57231 0.246486,1.02836 l 0.24652,0.82889 h -0.591185 c -0.325067,0 -0.590286,-0.0291 -0.589624,-0.0646 0,-0.0355 0.09369,-0.36197 0.206692,-0.72553 0.112951,-0.36356 0.231881,-0.81911 0.264584,-1.01235 0.0286,-0.16909 0.07969,-0.29455 0.120941,-0.3054 z m -50.527678,0.045 c 0.01971,0.0197 0.129344,0.38181 0.243914,0.80512 0.11458,0.42332 0.24824,0.8956 0.29714,1.04955 l 0.08888,0.28009 h -0.596863 c -0.328279,0 -0.596863,-0.0266 -0.596863,-0.0594 0,-0.0328 0.09399,-0.37233 0.208775,-0.75396 0.114839,-0.38163 0.233248,-0.8433 0.263548,-1.02578 0.0303,-0.18247 0.07177,-0.31528 0.09147,-0.29559 z m 28.025685,0.0274 c 0.0449,-0.0278 0.10631,0.096 0.135917,0.27492 0.02969,0.17895 0.14769,0.63744 0.262493,1.01906 0.114882,0.38165 0.208783,0.72059 0.208783,0.75344 0,0.0328 -0.268579,0.06 -0.596874,0.06 h -0.596847 l 0.08578,-0.28009 c 0.04731,-0.15396 0.161184,-0.54075 0.252703,-0.85989 0.09149,-0.31914 0.166397,-0.65626 0.166397,-0.7488 0,-0.0925 0.03665,-0.19079 0.08165,-0.21859 z" />
    <path
       id="path1015"
       style="fill:#000000;stroke-width:0.0861258"
       d="m 130.66307,87.409166 c -0.18889,-1e-4 -0.37442,0.0147 -0.55965,0.0439 -0.30268,0.0477 -0.77322,0.17034 -1.04542,0.27285 -0.29967,0.11281 -0.67927,0.35482 -0.96221,0.6134 -0.25699,0.23487 -0.56677,0.59709 -0.68834,0.8046 -0.12161,0.2075 -0.27988,0.60217 -0.3514,0.87695 -0.0716,0.27476 -0.13022,0.69627 -0.13022,0.93689 0,0.24063 0.0603,0.66852 0.13385,0.95085 0.0735,0.28233 0.2323,0.68186 0.35295,0.8878 0.12065,0.20593 0.38061,0.53138 0.57722,0.72347 0.19661,0.19209 0.5938,0.46066 0.88315,0.59686 0.28935,0.1362 0.69628,0.28113 0.90435,0.32195 0.20799,0.0409 0.55713,0.0782 0.77565,0.0837 0.21857,0.005 0.60597,-0.0301 0.86093,-0.0785 0.25495,-0.0483 0.69641,-0.19846 0.98081,-0.33383 0.28442,-0.13535 0.67992,-0.40559 0.87902,-0.60048 0.19915,-0.19487 0.45855,-0.5192 0.57671,-0.72088 0.11819,-0.20169 0.27533,-0.59773 0.3488,-0.88005 0.0735,-0.28233 0.13293,-0.70849 0.1323,-0.94723 -8e-4,-0.23873 -0.0535,-0.65639 -0.11729,-0.92759 -0.0638,-0.27121 -0.24728,-0.71161 -0.40773,-0.97875 -0.16044,-0.26715 -0.44955,-0.61556 -0.64235,-0.77463 -0.19278,-0.15906 -0.57195,-0.39039 -0.84233,-0.51418 -0.27038,-0.12378 -0.75642,-0.26459 -1.08003,-0.31265 -0.19809,-0.0294 -0.38991,-0.0443 -0.57877,-0.0444 z m 31.28129,0 c -0.18947,2.6e-4 -0.38214,0.0157 -0.58291,0.0455 -0.32676,0.0485 -0.83492,0.20102 -1.12913,0.339 -0.29419,0.13796 -0.72176,0.43265 -0.9498,0.65474 -0.24514,0.23876 -0.52663,0.64043 -0.68885,0.98288 -0.23399,0.49399 -0.27897,0.6955 -0.30437,1.37201 -0.0237,0.63334 0.007,0.90268 0.15139,1.33532 0.0994,0.298 0.32713,0.73518 0.50591,0.97203 0.17875,0.23685 0.53613,0.5728 0.79428,0.74621 0.25818,0.1734 0.68305,0.37583 0.94464,0.4501 0.26154,0.0743 0.55335,0.15082 0.64802,0.17002 0.0948,0.0193 0.32729,0.0389 0.51678,0.0444 0.18947,0.005 0.56849,-0.0275 0.84233,-0.0724 0.27382,-0.0448 0.74798,-0.20452 1.05368,-0.35501 0.32604,-0.1605 0.71916,-0.4479 0.95083,-0.69557 0.2172,-0.23222 0.48649,-0.6246 0.59841,-0.87178 0.11192,-0.24718 0.2477,-0.69813 0.30181,-1.00201 0.0727,-0.40823 0.0737,-0.70077 0.003,-1.11982 -0.0524,-0.31193 -0.21127,-0.8063 -0.35295,-1.09865 -0.16433,-0.33912 -0.42857,-0.68756 -0.72967,-0.96273 -0.28718,-0.26247 -0.66564,-0.50413 -0.96686,-0.61753 -0.27221,-0.10249 -0.74274,-0.22517 -1.04543,-0.27285 -0.18595,-0.0292 -0.37176,-0.0442 -0.5612,-0.0439 z m -38.93871,5.3e-4 c -0.19785,-10e-4 -0.38944,0.0147 -0.59687,0.047 -0.3189,0.0496 -0.81854,0.20186 -1.11051,0.33847 -0.29194,0.13662 -0.71271,0.43054 -0.93535,0.6532 -0.22268,0.22265 -0.52642,0.6513 -0.6749,0.95291 -0.20831,0.42319 -0.28075,0.70351 -0.31676,1.22783 -0.0256,0.37368 -0.003,0.88066 0.0496,1.12655 0.0527,0.24588 0.17875,0.62363 0.28009,0.83922 0.10133,0.2156 0.35599,0.58355 0.56636,0.81752 0.23802,0.26474 0.59389,0.52934 0.94205,0.70074 0.30769,0.15147 0.70276,0.30559 0.87749,0.34261 0.17476,0.0369 0.61304,0.0541 0.97409,0.0377 0.41693,-0.0189 0.80148,-0.0936 1.05368,-0.20515 0.21844,-0.0966 0.52837,-0.27604 0.68884,-0.39843 l 0.29147,-0.2222 0.0501,0.24959 c 0.0275,0.13735 0.11284,0.31236 0.18965,0.38913 0.0806,0.0806 0.28027,0.13952 0.47284,0.13952 0.24699,0 0.36838,-0.0494 0.46768,-0.1912 0.10866,-0.15515 0.13385,-0.47079 0.13385,-1.66657 0,-0.85753 -0.0395,-1.59004 -0.0951,-1.74924 -0.0534,-0.15317 -0.20363,-0.32972 -0.34055,-0.40049 -0.18248,-0.0944 -0.56438,-0.12609 -1.50172,-0.12609 -1.21981,0 -1.26299,0.006 -1.46812,0.21135 -0.16015,0.16015 -0.21079,0.30108 -0.20878,0.58136 0.002,0.20347 0.0531,0.43624 0.11472,0.51728 0.0616,0.081 0.21778,0.18746 0.34727,0.23668 0.12946,0.0492 0.41198,0.0894 0.62788,0.0894 0.35568,0 0.38153,0.0137 0.2744,0.14314 -0.065,0.0786 -0.27353,0.21302 -0.46302,0.29921 -0.18947,0.0862 -0.50419,0.15787 -0.69972,0.15865 -0.19555,0.001 -0.49374,-0.0555 -0.66249,-0.12609 -0.16875,-0.0705 -0.41521,-0.27065 -0.54777,-0.44442 -0.20261,-0.26556 -0.24505,-0.41314 -0.26664,-0.92656 -0.0216,-0.51129 0.007,-0.66709 0.17311,-0.95395 0.10936,-0.18852 0.35309,-0.43014 0.54158,-0.53691 0.21783,-0.12337 0.48868,-0.19456 0.74311,-0.19534 0.2803,-9.8e-4 0.5475,0.0759 0.89141,0.25683 0.31853,0.16755 0.61682,0.25852 0.84854,0.25787 0.19651,-4.5e-4 0.55684,-0.0941 0.80097,-0.20774 0.24935,-0.11609 0.46789,-0.28229 0.49869,-0.37931 0.0301,-0.095 0.0303,-0.27146 0,-0.39222 -0.0303,-0.12076 -0.22881,-0.37974 -0.44082,-0.57516 -0.21199,-0.1954 -0.58735,-0.44776 -0.83405,-0.56069 -0.24667,-0.11294 -0.74186,-0.24897 -1.10069,-0.30231 -0.23344,-0.0349 -0.43781,-0.0526 -0.63564,-0.0537 z m -32.043005,0.004 c -0.267251,-0.008 -0.592029,0.009 -0.81856,0.0455 -0.302051,0.0488 -0.796111,0.20462 -1.097601,0.34571 -0.30734,0.14382 -0.729009,0.43814 -0.960149,0.67025 -0.226721,0.2277 -0.51699,0.63601 -0.644919,0.90743 -0.127902,0.27143 -0.271751,0.73727 -0.319352,1.03508 -0.0581,0.36331 -0.0577,0.72503 5.29e-4,1.09968 0.0478,0.30709 0.203491,0.79844 0.345731,1.0914 0.159761,0.32904 0.422889,0.68018 0.688319,0.91881 0.236302,0.21247 0.61309,0.47544 0.83716,0.58446 0.224081,0.10901 0.62053,0.24466 0.881092,0.30128 0.260509,0.0566 0.631089,0.10627 0.823698,0.11007 h 5.29e-4 c 0.192619,0.004 0.580369,-0.0355 0.86146,-0.0873 0.281069,-0.0518 0.7244,-0.19435 0.98494,-0.31729 0.260509,-0.12294 0.67876,-0.42881 0.929659,-0.67954 0.250909,-0.25073 0.55227,-0.66589 0.669721,-0.92243 0.117449,-0.25653 0.242409,-0.71245 0.277519,-1.01337 0.0345,-0.30091 0.0358,-0.79104 0.0021,-1.08883 -0.0337,-0.29778 -0.154671,-0.74513 -0.26873,-0.99425 -0.114041,-0.24912 -0.335441,-0.59895 -0.49194,-0.77722 -0.156479,-0.17823 -0.453821,-0.44023 -0.660431,-0.58239 -0.206608,-0.14215 -0.580438,-0.32877 -0.83098,-0.41496 -0.250529,-0.0862 -0.6858,-0.1835 -0.967369,-0.21601 -0.0704,-0.008 -0.153271,-0.0135 -0.242361,-0.016 z m 22.510785,0.0269 c -0.57368,0.004 -0.92121,0.0498 -1.16274,0.154 -0.18949,0.0817 -0.47447,0.24684 -0.63354,0.3669 -0.15904,0.12006 -0.38166,0.417 -0.49453,0.6594 -0.13404,0.2878 -0.20506,0.59846 -0.20569,0.89555 -5.3e-4,0.25021 0.0563,0.59156 0.12609,0.75861 0.0698,0.16703 0.2066,0.40531 0.30439,0.52968 0.0978,0.12437 0.30456,0.31234 0.45938,0.41755 0.15487,0.10522 0.58964,0.29592 0.96585,0.42374 0.37622,0.12783 0.77136,0.28723 0.87796,0.3545 0.12759,0.0805 0.19381,0.20679 0.19381,0.36949 0,0.14594 -0.0559,0.26885 -0.13645,0.29972 -0.075,0.0287 -0.23487,0.0522 -0.35552,0.0522 -0.1311,0 -0.35822,-0.12541 -0.56431,-0.31161 -0.31545,-0.285 -0.37694,-0.30735 -0.71934,-0.26045 -0.2059,0.0282 -0.50768,0.10705 -0.67074,0.17518 -0.16309,0.0681 -0.35939,0.22009 -0.43618,0.33745 -0.0881,0.13437 -0.11971,0.29374 -0.0852,0.43098 0.0301,0.11986 0.18712,0.37283 0.34881,0.56172 0.16166,0.18889 0.47608,0.43151 0.69919,0.5395 0.22307,0.108 0.54297,0.22607 0.71057,0.262 0.16758,0.036 0.61472,0.0489 0.99372,0.0289 0.56352,-0.0298 0.79022,-0.088 1.24538,-0.31884 0.4391,-0.22274 0.61123,-0.37073 0.81494,-0.70073 0.19634,-0.31796 0.26632,-0.54793 0.2925,-0.96015 0.019,-0.29846 -0.0131,-0.68669 -0.0713,-0.86351 -0.0583,-0.17667 -0.24424,-0.47372 -0.4129,-0.66043 -0.16871,-0.18671 -0.44488,-0.40926 -0.61393,-0.49403 -0.16897,-0.0848 -0.62404,-0.25835 -1.0113,-0.38602 -0.38726,-0.12768 -0.74898,-0.28619 -0.80358,-0.35191 -0.0546,-0.0657 -0.0863,-0.20863 -0.0708,-0.31782 0.0225,-0.15859 0.0895,-0.20374 0.33382,-0.22427 0.24347,-0.0205 0.36214,0.0277 0.58084,0.23668 0.18211,0.17406 0.36244,0.26303 0.53486,0.26303 0.14306,0 0.43484,-0.0825 0.64852,-0.18294 0.21367,-0.10044 0.46495,-0.27985 0.55865,-0.39894 0.0935,-0.1191 0.17051,-0.28367 0.17051,-0.36535 0,-0.0817 -0.15387,-0.32264 -0.34158,-0.53588 -0.20357,-0.23129 -0.52466,-0.46921 -0.79634,-0.58911 -0.37734,-0.16653 -0.59587,-0.19952 -1.27381,-0.19483 z m -16.466186,0.0279 c -0.488289,2.6e-4 -1.032489,0.0405 -1.208728,0.0894 -0.176241,0.0489 -0.379672,0.17355 -0.45217,0.27699 -0.112022,0.15985 -0.13126,0.62838 -0.13126,3.12125 0,2.50555 0.0191,2.96054 0.132818,3.12281 0.0732,0.10447 0.257472,0.22588 0.409292,0.26975 0.15181,0.0439 0.721828,0.0825 1.266579,0.0848 0.544751,0.003 1.283549,-0.0477 1.641769,-0.11162 0.358222,-0.0639 0.823301,-0.20349 1.03351,-0.31006 0.21019,-0.10658 0.547636,-0.31204 0.750366,-0.45682 0.2027,-0.14479 0.49741,-0.45951 0.65474,-0.69918 0.15726,-0.23966 0.34967,-0.62646 0.42786,-0.8599 0.0793,-0.237 0.14213,-0.6972 0.14213,-1.04179 0,-0.38649 -0.0623,-0.79859 -0.16693,-1.10278 -0.0919,-0.26715 -0.285,-0.65691 -0.42891,-0.8661 -0.14393,-0.20919 -0.44791,-0.51732 -0.67593,-0.68471 -0.22803,-0.16739 -0.606954,-0.37981 -0.841804,-0.47232 -0.234841,-0.0925 -0.705781,-0.21127 -1.046451,-0.26407 -0.340651,-0.0528 -1.018569,-0.0959 -1.506881,-0.0956 z m -31.893669,5.2e-4 c -0.85267,0 -1.694439,0.04 -1.870681,0.0889 -0.17627,0.0489 -0.379679,0.17355 -0.45217,0.277 -0.111919,0.15984 -0.131778,0.62838 -0.131778,3.12125 0,2.50556 0.01971,2.96054 0.133328,3.12281 0.0732,0.10447 0.25694,0.22715 0.408761,0.27233 0.151839,0.0452 1.077669,0.0751 2.057241,0.0661 1.661768,-0.0151 1.797539,-0.0284 2.024158,-0.1974 0.15536,-0.11581 0.269052,-0.30371 0.31574,-0.5209 0.0534,-0.24859 0.0374,-0.42491 -0.0605,-0.65888 -0.0813,-0.19452 -0.22163,-0.35303 -0.358629,-0.40514 -0.123801,-0.0471 -0.72622,-0.0858 -1.33894,-0.0858 h -1.114139 v -0.38086 -0.38085 l 1.16014,-0.0279 c 0.936008,-0.0228 1.186939,-0.0561 1.30121,-0.17053 0.0779,-0.078 0.161078,-0.31444 0.184999,-0.52555 0.02461,-0.21866 -0.0011,-0.46621 -0.0594,-0.57568 -0.0566,-0.10566 -0.234368,-0.24715 -0.394809,-0.31419 -0.191741,-0.0801 -0.617291,-0.12196 -1.24178,-0.12196 h -0.95033 v -0.34468 -0.34416 h 1.16944 1.16944 l 0.251661,-0.25167 c 0.209179,-0.20911 0.251658,-0.32298 0.251658,-0.67024 0,-0.23583 -0.0576,-0.50007 -0.13177,-0.60616 -0.0724,-0.10343 -0.275958,-0.22809 -0.452171,-0.277 -0.176239,-0.0489 -1.018069,-0.0889 -1.870688,-0.0889 z m -9.15344,5.1e-4 v 5.3e-4 c -0.155469,-0.001 -0.41728,0.0542 -0.58188,0.12299 -0.17984,0.0752 -0.334581,0.2177 -0.387569,0.35708 -0.0603,0.15833 -0.06,0.31657 5.29e-4,0.4992 0.0487,0.14713 0.549359,1.42361 1.11311,2.83652 0.56375,1.41289 1.11438,2.66335 1.223182,2.77916 0.108789,0.11579 0.315719,0.24761 0.460438,0.29249 0.144701,0.045 0.546942,0.0691 0.89349,0.0537 0.461651,-0.0204 0.692081,-0.0736 0.861441,-0.19896 0.12713,-0.0941 0.286459,-0.28382 0.353989,-0.42168 0.0675,-0.13785 0.580922,-1.41151 1.14101,-2.83031 0.560052,-1.4188 1.01854,-2.68795 1.01854,-2.8205 0,-0.13255 -0.0751,-0.31589 -0.166388,-0.40721 -0.0913,-0.0913 -0.34136,-0.1926 -0.556041,-0.22479 -0.248531,-0.0372 -0.522009,-0.0155 -0.752411,0.0589 -0.19902,0.0643 -0.433509,0.21283 -0.520899,0.33125 -0.0874,0.11843 -0.394491,0.87472 -0.682651,1.68 -0.28815,0.80527 -0.578099,1.63893 -0.644398,1.85209 -0.0663,0.21316 -0.120782,0.47478 -0.121441,0.58135 -5.29e-4,0.10658 -0.0348,0.19328 -0.076,0.19328 -0.0413,0 -0.100132,-0.15555 -0.130752,-0.34624 -0.0305,-0.19069 -0.307239,-1.05339 -0.61495,-1.91667 -0.3077,-0.86328 -0.617349,-1.69719 -0.688329,-1.85364 -0.0872,-0.19237 -0.24756,-0.3385 -0.494541,-0.45062 -0.200901,-0.0911 -0.49203,-0.16717 -0.647499,-0.16795 z m 14.54795,0.006 c -0.165549,-0.002 -0.340651,2.6e-4 -0.525549,0.005 -0.85194,0.0233 -1.1366,0.0619 -1.315681,0.17932 -0.133101,0.0873 -0.266462,0.28541 -0.318849,0.47387 -0.0536,0.19313 -0.0873,1.34892 -0.0853,2.86443 0.003,1.73189 0.0369,2.63671 0.106971,2.8422 0.07,0.20533 0.1988,0.34959 0.404109,0.45217 0.16582,0.0828 0.409271,0.15083 0.54106,0.15089 h 5.29e-4 c 0.131791,8e-5 0.371141,-0.0551 0.53227,-0.12247 0.162901,-0.0681 0.352901,-0.23839 0.427879,-0.38344 0.0853,-0.16511 0.134882,-0.48596 0.134882,-0.87385 v -0.61288 l 0.22892,0.0274 c 0.196948,0.0234 0.269658,0.12356 0.518829,0.71624 0.159319,0.37896 0.40118,0.79147 0.537441,0.91674 0.137919,0.12682 0.404328,0.25412 0.600998,0.28732 0.19431,0.0329 0.508352,0.0341 0.697632,0.002 0.22252,-0.0376 0.406689,-0.13785 0.521409,-0.2837 0.122211,-0.15511 0.16096,-0.29433 0.125061,-0.44493 -0.0287,-0.12047 -0.22484,-0.50124 -0.435631,-0.84595 -0.210789,-0.34471 -0.382929,-0.65978 -0.382929,-0.70021 0,-0.0405 0.134451,-0.17613 0.299209,-0.30179 0.16473,-0.12564 0.403821,-0.40563 0.53072,-0.62219 0.174569,-0.29799 0.24048,-0.54602 0.27078,-1.01906 0.02381,-0.37128 -0.003,-0.76078 -0.0661,-0.95963 -0.0583,-0.18412 -0.203208,-0.47907 -0.321948,-0.65526 -0.118771,-0.17618 -0.401071,-0.43926 -0.627351,-0.58445 -0.27786,-0.1783 -0.64286,-0.30759 -1.124479,-0.39843 -0.36381,-0.0686 -0.77816,-0.10439 -1.27485,-0.10956 z m -17.61133,0.003 c -0.35687,-0.005 -0.808109,-0.004 -1.26814,0.004 -1.27807,0.0216 -1.717519,0.0578 -1.860871,0.15296 -0.10324,0.0685 -0.229391,0.21523 -0.28009,0.3266 -0.0595,0.13068 -0.092,1.19568 -0.092,3.00343 0,1.93815 0.0305,2.85879 0.0987,2.98897 0.0543,0.10345 0.160772,0.22652 0.236681,0.27388 0.076,0.0474 0.21578,0.11257 0.310581,0.1447 0.0948,0.0321 0.973759,0.0513 1.95336,0.0429 1.66039,-0.0143 1.79722,-0.0276 2.02365,-0.19586 0.13621,-0.10121 0.27668,-0.31332 0.319879,-0.48317 0.0423,-0.1666 0.0525,-0.40042 0.0227,-0.51935 -0.0298,-0.11894 -0.128641,-0.30808 -0.219631,-0.42064 -0.158459,-0.19595 -0.2193,-0.20587 -1.42213,-0.23255 l -1.256771,-0.0279 v -0.37465 -0.37465 l 1.170472,-0.0279 c 1.10953,-0.0267 1.178909,-0.0388 1.334799,-0.23151 0.10523,-0.13015 0.164851,-0.3378 0.164851,-0.57671 0,-0.27032 -0.0577,-0.43992 -0.208261,-0.61495 -0.20502,-0.23846 -0.222711,-0.24203 -1.334799,-0.27182 l -1.127062,-0.03 v -0.33591 -0.3359 h 1.169432 1.168929 l 0.252169,-0.25167 c 0.212762,-0.21272 0.251672,-0.32021 0.251672,-0.69298 0,-0.35024 -0.0424,-0.48369 -0.205671,-0.64699 -0.113139,-0.11313 -0.338929,-0.2309 -0.50178,-0.26148 -0.0814,-0.0152 -0.343828,-0.0255 -0.70073,-0.0305 z m 126.019695,0.001 c -0.3569,-0.005 -0.80859,-0.004 -1.26865,0.004 -1.27807,0.0216 -1.71701,0.0578 -1.86036,0.15297 -0.10319,0.0685 -0.22937,0.21575 -0.28009,0.32711 -0.0595,0.13069 -0.092,1.19516 -0.092,3.00292 0,1.93812 0.0305,2.85882 0.0987,2.98896 0.0543,0.10347 0.16079,0.22705 0.23669,0.2744 0.076,0.0474 0.21577,0.11257 0.31057,0.1447 0.0947,0.0321 0.97377,0.0513 1.95337,0.0429 1.66039,-0.0143 1.79721,-0.0276 2.02364,-0.19586 0.13623,-0.10123 0.27678,-0.31384 0.31988,-0.48369 0.0423,-0.1666 0.0525,-0.3999 0.0227,-0.51883 -0.0298,-0.11893 -0.12853,-0.30859 -0.21963,-0.42116 -0.15843,-0.19593 -0.21929,-0.20587 -1.42213,-0.23255 l -1.25677,-0.0279 v -0.37466 -0.37413 l 1.17046,-0.0284 c 1.1095,-0.0267 1.17893,-0.0388 1.3348,-0.23151 0.10517,-0.13016 0.16433,-0.3378 0.16433,-0.57671 0,-0.27033 -0.0572,-0.43941 -0.20773,-0.61444 -0.20502,-0.23838 -0.22272,-0.24203 -1.33479,-0.27182 l -1.12707,-0.0305 v -0.33592 -0.3359 h 1.16943 1.16893 l 0.25217,-0.25166 c 0.21278,-0.21273 0.25167,-0.32021 0.25167,-0.69298 0,-0.35025 -0.0424,-0.48317 -0.20568,-0.64648 -0.11311,-0.11312 -0.33896,-0.23091 -0.50179,-0.26148 -0.0814,-0.0152 -0.34385,-0.026 -0.70072,-0.031 z m -103.835526,0.002 c -0.128691,2.6e-4 -0.25314,0.008 -0.342098,0.0248 -0.177962,0.0325 -0.41071,0.1153 -0.517282,0.18397 -0.139308,0.0897 -0.193778,0.20813 -0.193778,0.42116 0,0.21977 0.289499,0.81495 1.119309,2.30167 l 1.119309,2.00556 5.3e-4,0.67335 c 1.8e-4,0.37023 0.0444,0.75797 0.0987,0.86144 0.0543,0.10347 0.161279,0.22652 0.237188,0.27389 0.076,0.0474 0.21527,0.11355 0.31006,0.14676 0.0947,0.0332 0.3361,0.0436 0.5364,0.0232 v -5.1e-4 c 0.200279,-0.0203 0.439881,-0.0839 0.532271,-0.1416 0.0924,-0.0577 0.209759,-0.1961 0.26045,-0.30747 0.0508,-0.11136 0.092,-0.49885 0.092,-0.86093 v -0.65836 l 1.125501,-2.00453 c 0.705911,-1.25739 1.12776,-2.10077 1.132761,-2.26291 0.004,-0.14217 -0.0417,-0.31783 -0.101809,-0.39016 -0.06,-0.0724 -0.26924,-0.17429 -0.464582,-0.22686 -0.195289,-0.0523 -0.515279,-0.0739 -0.71106,-0.047 -0.195771,0.0268 -0.45707,0.095 -0.58084,0.15141 -0.123798,0.0564 -0.27804,0.18391 -0.342619,0.28319 -0.0647,0.0993 -0.295061,0.58819 -0.511591,1.08624 -0.21654,0.49805 -0.420179,1.01142 -0.452689,1.14101 -0.0325,0.1296 -0.0936,0.23565 -0.135911,0.23565 -0.0422,0 -0.0765,-0.0808 -0.0765,-0.17932 0,-0.0985 -0.198691,-0.64136 -0.441312,-1.20664 -0.288919,-0.67322 -0.526737,-1.10029 -0.689369,-1.23714 -0.137379,-0.11558 -0.42124,-0.23461 -0.6351,-0.26665 -0.10631,-0.0157 -0.239218,-0.0236 -0.367941,-0.0233 z m 27.355966,0.004 v 5.3e-4 c -0.0693,7.6e-4 -0.13499,0.005 -0.19276,0.0114 -0.231,0.0273 -0.51181,0.10979 -0.62425,0.18345 -0.1452,0.0952 -0.20469,0.21438 -0.20465,0.41186 0,0.19643 0.32851,0.86388 1.11985,2.27583 l 1.11929,1.99781 0.002,0.67179 c 7.9e-4,0.36969 0.0497,0.76938 0.10906,0.8878 0.0592,0.11842 0.24257,0.28504 0.40772,0.37052 0.21217,0.10952 0.40812,0.14182 0.66921,0.10904 h 5.3e-4 c 0.20315,-0.0257 0.44783,-0.0893 0.54467,-0.14108 0.0968,-0.0518 0.2312,-0.22556 0.29818,-0.38602 0.0674,-0.16137 0.12195,-0.57334 0.12195,-0.92191 v -0.62997 l 1.08831,-1.93477 c 0.7507,-1.33456 1.09213,-2.02483 1.09813,-2.22467 0.008,-0.22345 -0.046,-0.33196 -0.23358,-0.47387 -0.19341,-0.14632 -0.36354,-0.18397 -0.83304,-0.18397 -0.46426,0 -0.6423,0.0385 -0.83353,0.18035 -0.13372,0.0992 -0.32947,0.33175 -0.43458,0.51677 -0.10512,0.18502 -0.35655,0.75519 -0.55865,1.2671 -0.26265,0.66541 -0.38359,0.8864 -0.42528,0.77515 -0.0321,-0.0856 -0.24626,-0.61352 -0.47543,-1.17306 -0.22913,-0.55955 -0.49914,-1.10888 -0.60048,-1.22111 -0.10128,-0.11221 -0.35359,-0.24966 -0.56017,-0.30541 -0.15497,-0.0416 -0.39472,-0.0658 -0.60255,-0.0636 z m 54.15637,0 c -0.16449,-0.006 -0.34491,0.0208 -0.509,0.0775 -0.25268,0.0874 -0.39,0.20368 -0.49919,0.4222 -0.1139,0.22806 -0.15081,0.51652 -0.15089,1.18443 v 0.88263 h -1.07696 -1.07641 l -5.3e-4,-0.92604 c -2.3e-4,-0.76085 -0.0296,-0.97411 -0.16536,-1.19683 -0.10181,-0.16697 -0.28713,-0.31114 -0.48265,-0.37569 -0.1746,-0.0575 -0.45289,-0.0827 -0.61857,-0.0558 -0.16566,0.0269 -0.39225,0.10807 -0.50332,0.18087 -0.11105,0.0728 -0.24257,0.27821 -0.29197,0.4563 -0.0536,0.19313 -0.0873,1.34892 -0.0853,2.86443 0.003,1.73189 0.0369,2.63672 0.10697,2.8422 0.07,0.20534 0.19878,0.34959 0.4041,0.45217 0.16547,0.0827 0.4174,0.15011 0.55967,0.15038 h 5.3e-4 c 0.14227,-2.7e-4 0.39283,-0.0677 0.55759,-0.15038 0.16515,-0.0828 0.34903,-0.24745 0.40825,-0.36587 0.0657,-0.13152 0.10789,-0.5755 0.10853,-1.14101 l 0.002,-0.92605 h 1.07641 1.07696 v 0.88264 c 8e-5,0.6679 0.037,0.95635 0.15089,1.18442 0.10919,0.21852 0.24651,0.33431 0.49918,0.42168 0.21879,0.0756 0.46721,0.0985 0.66716,0.061 0.1752,-0.0329 0.42508,-0.15134 0.55551,-0.26355 l 0.23719,-0.20412 v -2.98641 -2.98638 l -0.23719,-0.20413 c -0.13043,-0.11221 -0.38031,-0.23065 -0.55551,-0.26355 -0.05,-0.009 -0.10333,-0.0151 -0.15816,-0.0171 z m -47.10461,0.004 c -0.11115,0.004 -0.22389,0.0233 -0.33745,0.0574 -0.26316,0.0788 -0.36976,0.17004 -0.46406,0.39584 -0.0792,0.18965 -0.12297,0.60913 -0.12297,1.18752 0,0.49184 0.041,1.01088 0.0909,1.15394 0.0499,0.14305 0.176,0.30368 0.28009,0.35656 0.10406,0.0529 0.35822,0.0814 0.56483,0.0636 0.22011,-0.019 0.44413,-0.10104 0.54104,-0.19792 0.12772,-0.12772 0.19725,-0.42421 0.30645,-1.30379 0.13907,-1.12076 0.13875,-1.14212 -0.0325,-1.37149 -0.10222,-0.13691 -0.30778,-0.26503 -0.49816,-0.31006 -0.10772,-0.0255 -0.21705,-0.0353 -0.32816,-0.031 z m 57.79338,0.002 c -0.10707,0.003 -0.21193,0.0269 -0.34829,0.0739 -0.20357,0.0701 -0.38616,0.20533 -0.45064,0.33331 -0.0806,0.15991 -0.1093,0.9426 -0.11007,3.04168 -8e-4,1.95965 0.0293,2.88385 0.0977,3.01428 0.0543,0.10347 0.16078,0.22706 0.23667,0.27441 0.076,0.0474 0.21576,0.11131 0.31056,0.14211 0.0947,0.0308 0.26086,0.0599 0.36896,0.0646 0.10811,0.005 0.32094,-0.0438 0.47337,-0.10749 0.15245,-0.0637 0.33557,-0.18572 0.40669,-0.2713 0.0982,-0.11844 0.1393,-0.48327 0.17209,-1.52807 l 0.0429,-1.37304 0.75551,1.03611 c 0.41553,0.56984 0.83513,1.06164 0.93224,1.09244 0.0971,0.0308 0.26844,0.0331 0.38086,0.005 0.13343,-0.0335 0.46771,-0.41148 0.96272,-1.08831 l 0.75861,-1.03663 0.0429,1.31723 c 0.0283,0.8654 0.0823,1.38615 0.15761,1.51826 0.063,0.11059 0.24575,0.25594 0.40619,0.32298 0.16047,0.0671 0.36105,0.12169 0.44545,0.12144 0.0844,-2.6e-4 0.2989,-0.0411 0.47646,-0.0904 0.21815,-0.0606 0.36476,-0.17051 0.45218,-0.33951 0.10729,-0.20737 0.12917,-0.72827 0.12917,-3.04943 0,-1.86842 -0.0318,-2.86948 -0.0956,-3.00963 -0.0526,-0.11544 -0.19433,-0.26221 -0.31469,-0.3266 -0.12044,-0.0644 -0.37793,-0.11426 -0.57209,-0.10955 -0.19409,0.004 -0.48119,0.0747 -0.6382,0.15606 -0.18835,0.0976 -0.63354,0.61566 -1.30894,1.52394 -0.56288,0.75697 -1.04024,1.38484 -1.06093,1.39475 -0.0207,0.01 -0.45061,-0.54409 -0.95549,-1.23094 -0.50485,-0.68686 -1.03121,-1.35362 -1.16943,-1.48156 -0.13822,-0.12793 -0.41746,-0.27743 -0.62063,-0.3328 -0.14717,-0.04 -0.25673,-0.0594 -0.36381,-0.0568 z m -26.62888,0.002 c -0.0578,-2.7e-4 -0.11803,0.004 -0.1819,0.0119 -0.20029,0.0252 -0.44148,0.0942 -0.53639,0.15348 -0.0949,0.0592 -0.20204,0.16665 -0.23773,0.23875 -0.0357,0.0721 -0.0846,0.76741 -0.10903,1.54564 l -0.0444,1.41542 -1.23042,-1.50585 c -0.67656,-0.82814 -1.35448,-1.57987 -1.50688,-1.6707 -0.1861,-0.1109 -0.43979,-0.16574 -0.77205,-0.1664 -0.42579,-9e-4 -0.52798,0.0319 -0.73226,0.23616 l -0.2372,0.23719 -0.0217,2.86185 c -0.0168,2.17942 0.004,2.91336 0.0873,3.07733 0.0602,0.11843 0.24413,0.28505 0.40929,0.37052 0.21063,0.10891 0.40904,0.14168 0.66455,0.10955 0.20029,-0.0252 0.43987,-0.0932 0.53226,-0.15089 0.0924,-0.0577 0.20913,-0.19559 0.25993,-0.30696 0.0525,-0.11512 0.0925,-0.75818 0.0925,-1.49035 0,-0.70831 0.029,-1.28519 0.0646,-1.28209 0.0355,0.003 0.60637,0.66582 1.26865,1.47226 0.66228,0.80645 1.32101,1.52849 1.46399,1.60455 0.14888,0.0791 0.47181,0.13948 0.75499,0.14108 0.42717,0.003 0.52732,-0.0292 0.73226,-0.2341 l 0.2372,-0.23719 0.0217,-2.86184 c 0.0168,-2.17941 -0.004,-2.91336 -0.0873,-3.07733 -0.0602,-0.11842 -0.24413,-0.28505 -0.4093,-0.37052 -0.158,-0.0817 -0.30924,-0.12068 -0.48265,-0.12144 z m 4.45037,0.0181 c -1.62629,0 -1.89336,0.0191 -2.09288,0.14986 -0.13316,0.0873 -0.26593,0.28535 -0.31832,0.47387 -0.0537,0.19314 -0.0878,1.34892 -0.0858,2.86442 0.003,1.7319 0.0369,2.63673 0.10697,2.84221 0.07,0.20533 0.19928,0.34959 0.40462,0.45217 0.25647,0.12816 0.55555,0.15081 2.00507,0.15089 v -5.1e-4 c 1.27458,9e-5 1.77744,-0.0302 1.99573,-0.12144 0.16044,-0.067 0.33326,-0.20047 0.38446,-0.29611 0.0512,-0.0956 0.0924,-0.36049 0.0904,-0.58859 -0.002,-0.22814 -0.0498,-0.47626 -0.10748,-0.55139 -0.0577,-0.0752 -0.19007,-0.18161 -0.29353,-0.23668 -0.11541,-0.0615 -0.62277,-0.10025 -1.3131,-0.10025 h -1.12551 v -0.38763 -0.38757 h 1.06506 c 0.93667,0 1.0914,-0.0207 1.28518,-0.17312 0.12116,-0.0953 0.24599,-0.28909 0.27699,-0.43046 0.031,-0.14137 0.0103,-0.39635 -0.046,-0.56689 -0.074,-0.22404 -0.18275,-0.34366 -0.39172,-0.43098 -0.18893,-0.0789 -0.61856,-0.12092 -1.2392,-0.12092 h -0.95033 v -0.33797 -0.33796 l 1.20356,-0.0284 c 1.08763,-0.0253 1.22145,-0.0451 1.38491,-0.20878 0.0995,-0.0996 0.2022,-0.34138 0.22842,-0.53692 0.0264,-0.19622 0.001,-0.46694 -0.0553,-0.60409 -0.0566,-0.13667 -0.20299,-0.30185 -0.32554,-0.36742 -0.1701,-0.0909 -0.66435,-0.11937 -2.08672,-0.11937 z m -61.863925,0.004 c -1.299401,-0.005 -1.542651,0.0147 -1.740461,0.14418 -0.142288,0.0931 -0.265798,0.28409 -0.323998,0.50023 -0.061,0.22771 -0.0852,1.27153 -0.0682,2.99723 0.0232,2.35205 0.043,2.67311 0.177242,2.87786 0.0831,0.12678 0.27723,0.26949 0.430979,0.31677 0.157851,0.0485 0.9343,0.073 1.785941,0.0563 h 5.29e-4 c 1.13784,-0.0222 1.601279,-0.0645 1.89394,-0.17311 0.21317,-0.0791 0.53149,-0.24359 0.70744,-0.36536 0.175999,-0.12176 0.396449,-0.3817 0.489371,-0.57774 0.0929,-0.19602 0.1773,-0.49205 0.18759,-0.65784 0.01101,-0.1658 0.01241,-0.43217 0.007,-0.59169 -0.009,-0.21104 -0.101198,-0.37872 -0.338479,-0.61599 -0.20108,-0.2011 -0.472601,-0.36537 -0.708469,-0.42891 l -0.382432,-0.10336 0.33745,-0.16433 c 0.185711,-0.0903 0.427641,-0.24825 0.537451,-0.3514 0.109799,-0.10317 0.24172,-0.34484 0.293521,-0.53691 0.0517,-0.19209 0.0704,-0.522 0.0413,-0.73329 -0.0289,-0.2113 -0.135778,-0.506 -0.237699,-0.65474 -0.10192,-0.14874 -0.311729,-0.35723 -0.46614,-0.46302 -0.15436,-0.1058 -0.467759,-0.25468 -0.6966,-0.33073 -0.31509,-0.10473 -0.7829,-0.13948 -1.927011,-0.14418 z m -46.941831,0.031 c -1.27998,0 -1.71045,0.0292 -1.97197,0.13384 -0.19066,0.0763 -0.37684,0.22595 -0.43253,0.3483 -0.0667,0.14618 -0.0977,1.10837 -0.0977,3.01532 0,1.93813 0.0304,2.85877 0.0987,2.98896 0.0543,0.10346 0.16077,0.22704 0.23668,0.2744 0.076,0.0474 0.21577,0.11271 0.31057,0.14521 0.0947,0.0325 0.99531,0.0517 2.00092,0.0429 l 1.82831,-0.016 0.23822,-0.23875 c 0.20243,-0.20248 0.23875,-0.30998 0.23875,-0.70797 0,-0.37334 -0.04,-0.50953 -0.19585,-0.66559 -0.18283,-0.18307 -0.27955,-0.19829 -1.44281,-0.22426 l -1.24644,-0.0279 v -0.38085 -0.38138 h 1.12345 c 1.07809,0 1.13248,-0.008 1.33532,-0.21135 0.15593,-0.15589 0.21136,-0.30424 0.21136,-0.56534 0,-0.19474 -0.0402,-0.42874 -0.0889,-0.51987 -0.0488,-0.0911 -0.20166,-0.22456 -0.34003,-0.2961 -0.18175,-0.094 -0.52764,-0.12971 -1.24643,-0.12971 h -0.99478 v -0.34468 -0.34469 h 1.12552 c 0.69033,0 1.19772,-0.0388 1.3131,-0.10025 0.10348,-0.0551 0.23532,-0.16156 0.293,-0.23668 0.0578,-0.0751 0.10603,-0.32326 0.108,-0.55139 0.002,-0.22811 -0.0392,-0.49296 -0.0904,-0.58859 -0.0512,-0.0956 -0.22455,-0.22855 -0.38499,-0.29559 -0.21688,-0.0906 -0.71197,-0.12195 -1.92908,-0.12195 z m -15.24713,0.0165 c -0.0657,8.4e-4 -0.13424,0.006 -0.20516,0.0139 -0.23171,0.0275 -0.51195,0.10933 -0.6227,0.1819 -0.11079,0.0726 -0.2415,0.20682 -0.29042,0.29818 -0.0489,0.0914 -0.22592,0.79849 -0.39377,1.57148 -0.16791,0.773 -0.32889,1.63117 -0.3576,1.90686 -0.0332,0.31742 -0.079,0.45943 -0.12454,0.38757 -0.0395,-0.0624 -0.0734,-0.24915 -0.0754,-0.41495 -0.002,-0.16579 -0.17215,-1.01601 -0.37827,-1.88981 -0.31921,-1.35358 -0.4079,-1.61749 -0.59893,-1.7818 -0.12332,-0.10608 -0.3967,-0.21853 -0.6072,-0.25011 -0.22039,-0.0331 -0.50877,-0.0157 -0.68006,0.0408 -0.16362,0.054 -0.36457,0.17193 -0.44649,0.26252 -0.10533,0.11587 -0.13824,0.26173 -0.11162,0.49196 0.0207,0.17999 0.3777,1.47064 0.79323,2.86804 0.41554,1.3974 0.81779,2.64658 0.89349,2.77554 0.0758,0.12898 0.2752,0.2913 0.44339,0.36122 0.16819,0.0699 0.46061,0.12738 0.65008,0.12712 0.18947,-2.3e-4 0.47684,-0.0468 0.63821,-0.10335 0.16134,-0.0565 0.36391,-0.1999 0.4501,-0.31833 0.0945,-0.12991 0.29384,-0.88112 0.50281,-1.89446 0.1905,-0.9237 0.34702,-1.79575 0.34778,-1.93786 7.93e-4,-0.14211 0.0342,-0.30991 0.0739,-0.37259 0.0465,-0.0735 0.0915,0.049 0.12661,0.34468 0.03,0.25212 0.20958,1.17159 0.39894,2.04329 0.18939,0.87171 0.40624,1.67903 0.48162,1.7942 0.0755,0.11516 0.26833,0.26464 0.42892,0.33177 0.16058,0.0671 0.41917,0.12168 0.57464,0.12144 0.15547,-2.7e-4 0.42656,-0.0406 0.60203,-0.0894 0.1755,-0.0487 0.39242,-0.18199 0.48214,-0.29611 0.0898,-0.11414 0.52198,-1.41062 0.96015,-2.88148 0.43818,-1.47088 0.79634,-2.81869 0.79634,-2.99465 0,-0.22315 -0.0557,-0.36497 -0.18449,-0.46922 -0.10155,-0.0822 -0.34745,-0.17367 -0.54674,-0.20309 -0.216,-0.0319 -0.49816,-0.008 -0.69866,0.06 -0.18495,0.0624 -0.40593,0.21023 -0.49144,0.32866 -0.0854,0.11842 -0.30868,0.8934 -0.49558,1.72238 -0.18691,0.82895 -0.36841,1.70101 -0.4036,1.93786 l -0.0641,0.43098 -0.111111,-0.73225 c -0.0611,-0.40264 -0.229359,-1.27144 -0.374139,-1.93063 -0.14478,-0.65919 -0.32496,-1.29212 -0.399971,-1.40664 -0.075,-0.11451 -0.277919,-0.26764 -0.45114,-0.34003 -0.159039,-0.0666 -0.33396,-0.0982 -0.531229,-0.0956 z m 19.47116,0.0103 c -0.16388,-0.005 -0.35471,0.017 -0.48007,0.0584 -0.16661,0.055 -0.36083,0.18308 -0.43202,0.28474 -0.10907,0.15567 -0.1297,0.64772 -0.1297,3.11815 0,2.50556 0.0191,2.96052 0.1328,3.12281 0.0732,0.10446 0.25747,0.22588 0.40928,0.26975 0.15182,0.0439 0.33402,0.0835 0.40514,0.0873 0.071,0.004 0.27512,-0.0332 0.45321,-0.0827 0.18841,-0.0523 0.38667,-0.18584 0.47387,-0.31884 0.12026,-0.18326 0.15815,-0.49042 0.19275,-1.54978 l 0.0429,-1.32136 1.092431,1.31723 c 0.60075,0.72457 1.20414,1.42448 1.341009,1.55546 0.15975,0.15293 0.415931,0.27281 0.71623,0.33486 0.38912,0.0804 0.521959,0.0736 0.79117,-0.0403 0.19703,-0.0833 0.35719,-0.22468 0.409282,-0.36174 0.0504,-0.13233 0.0858,-1.37838 0.0858,-3.02411 0,-1.96289 -0.0301,-2.85549 -0.100251,-2.98741 -0.0551,-0.10346 -0.162078,-0.23403 -0.237199,-0.29042 -0.0751,-0.0564 -0.28122,-0.12764 -0.457851,-0.15813 -0.176659,-0.0306 -0.45289,-0.0118 -0.61392,0.0413 -0.16105,0.0531 -0.36511,0.17654 -0.453718,0.2744 -0.139412,0.15381 -0.166812,0.3686 -0.204121,1.58699 l -0.0434,1.40921 -1.204582,-1.47484 c -0.662559,-0.81118 -1.318019,-1.54396 -1.456749,-1.62833 -0.13874,-0.0844 -0.40024,-0.17828 -0.58085,-0.20877 -0.0453,-0.008 -0.0968,-0.0123 -0.15141,-0.014 z m -13.09946,0.016 c -0.22252,0 -0.50285,0.0529 -0.62321,0.1173 -0.12036,0.0644 -0.26211,0.21165 -0.31471,0.32712 -0.0638,0.14009 -0.0956,1.14072 -0.0956,3.01015 0,1.93814 0.0304,2.85878 0.0987,2.98896 0.0543,0.10348 0.16066,0.22705 0.23668,0.2744 0.076,0.0474 0.21588,0.11304 0.31057,0.14625 0.0948,0.0332 0.33611,0.0441 0.5364,0.0238 0.20029,-0.0203 0.43998,-0.0844 0.53227,-0.14211 0.0924,-0.0577 0.20976,-0.1961 0.26045,-0.30748 0.0508,-0.11136 0.092,-0.62683 0.092,-1.14566 v -0.9431 h 1.11983 1.11983 v 0.95136 c 0,0.67936 0.0371,1.02339 0.12971,1.20252 0.0921,0.1781 0.23219,0.27865 0.48317,0.34623 0.1945,0.0523 0.49482,0.0711 0.66714,0.0413 0.1723,-0.0298 0.3745,-0.10019 0.44959,-0.15658 0.0752,-0.0564 0.1821,-0.18747 0.23719,-0.29094 0.0703,-0.13193 0.10025,-1.02487 0.10025,-2.98896 0,-1.86942 -0.0323,-2.87005 -0.0961,-3.01015 -0.0526,-0.11546 -0.19383,-0.26272 -0.3142,-0.32712 -0.12034,-0.0644 -0.40069,-0.1173 -0.62321,-0.1173 -0.22251,0 -0.50339,0.0529 -0.62374,0.1173 -0.12039,0.0644 -0.26158,0.21166 -0.31419,0.32712 -0.0527,0.11544 -0.0961,0.63406 -0.0961,1.1529 v 0.94361 h -1.11931 -1.11983 v -0.94361 c 0,-0.51884 -0.043,-1.03746 -0.0956,-1.1529 -0.0526,-0.11546 -0.19435,-0.26272 -0.31471,-0.32712 -0.12036,-0.0644 -0.40071,-0.1173 -0.62322,-0.1173 z m 55.821412,1.68568 h 0.51054 c 0.349388,0 0.55349,0.0428 0.645959,0.13539 0.0745,0.0744 0.135411,0.20234 0.135411,0.28422 0,0.0819 -0.0466,0.19534 -0.10337,0.25218 -0.0585,0.0585 -0.338751,0.10336 -0.645962,0.10336 h -0.542578 v -0.38758 z m -12.832821,0.0863 h 0.49765 c 0.31097,0 0.5692,0.0501 0.68884,0.13384 0.139589,0.0978 0.190971,0.22015 0.190169,0.45217 -7.94e-4,0.17495 -0.0303,0.3639 -0.0661,0.42013 -0.0358,0.0562 -0.173562,0.14347 -0.30593,0.19379 -0.1324,0.0503 -0.412652,0.092 -0.622702,0.092 h -0.381889 v -0.64595 z m 20.347599,0 h 5.29e-4 c 0.363749,0 0.608909,0.0533 0.8387,0.18242 0.178459,0.10032 0.40495,0.32526 0.50332,0.50023 0.0984,0.17496 0.203491,0.47238 0.233568,0.66094 0.0301,0.18855 0.01069,0.50458 -0.0424,0.70176 -0.0531,0.19717 -0.199811,0.48182 -0.326599,0.63253 -0.12681,0.1507 -0.356949,0.32654 -0.511601,0.39118 -0.15462,0.0646 -0.490109,0.11731 -0.74517,0.11731 h -5.29e-4 c -0.33909,0 -0.54007,-0.0521 -0.748271,-0.19379 -0.15658,-0.10658 -0.35864,-0.29338 -0.449051,-0.41547 -0.0904,-0.12209 -0.20021,-0.37385 -0.243919,-0.55966 -0.0437,-0.18582 -0.0556,-0.50384 -0.0269,-0.70642 0.0287,-0.20257 0.135601,-0.49232 0.237731,-0.64389 0.102129,-0.15157 0.3166,-0.36357 0.476429,-0.47128 0.221589,-0.14932 0.412279,-0.19586 0.804101,-0.19586 z m 71.177576,0.002 c 0.30668,0 0.60034,0.0603 0.80926,0.16691 0.18034,0.092 0.38912,0.26056 0.46352,0.37414 0.0745,0.1136 0.17936,0.36987 0.23307,0.56947 0.0548,0.20369 0.0722,0.53158 0.0398,0.74776 -0.0318,0.21184 -0.14126,0.50938 -0.24339,0.66094 -0.10215,0.15157 -0.31668,0.36358 -0.47646,0.47129 -0.22013,0.14837 -0.40759,0.19449 -0.77308,0.19069 -0.26538,-0.003 -0.57926,-0.0444 -0.69763,-0.0915 -0.11843,-0.0471 -0.32327,-0.18847 -0.45527,-0.31471 -0.13605,-0.1301 -0.29803,-0.42852 -0.37362,-0.68884 -0.11081,-0.38124 -0.11575,-0.53258 -0.03,-0.89039 0.0569,-0.23704 0.20015,-0.54625 0.31884,-0.6873 0.11867,-0.14103 0.32579,-0.31303 0.4599,-0.3824 0.13415,-0.0693 0.46025,-0.12609 0.72504,-0.12609 z m -31.50714,0.0139 v 5.3e-4 c 0.0867,-0.002 0.1864,1.9e-4 0.30594,0.006 0.41246,0.0197 0.64722,0.0776 0.81804,0.20206 0.13179,0.0961 0.32697,0.34538 0.43357,0.55397 0.12568,0.24601 0.19378,0.53289 0.19378,0.81649 0,0.28221 -0.0687,0.57329 -0.19378,0.82113 -0.12769,0.25297 -0.31099,0.44973 -0.53795,0.57671 -0.24032,0.13439 -0.48816,0.19276 -0.81857,0.19276 -0.33041,0 -0.57774,-0.0583 -0.81804,-0.19276 -0.22698,-0.12698 -0.41076,-0.32374 -0.53845,-0.57671 -0.12499,-0.24784 -0.19381,-0.53892 -0.19381,-0.82113 0,-0.28222 0.0687,-0.57331 0.19381,-0.82114 0.12581,-0.24927 0.31478,-0.45311 0.53845,-0.58136 0.21352,-0.12213 0.35687,-0.16979 0.61701,-0.17622 z m -33.146795,0.045 0.624239,0.0584 c 0.343241,0.0319 0.760121,0.12783 0.926042,0.21343 0.165938,0.0856 0.388958,0.28397 0.495588,0.4408 0.144171,0.21209 0.193781,0.4091 0.193781,0.76894 0,0.30678 -0.0584,0.59296 -0.159679,0.78187 -0.0942,0.17573 -0.3122,0.37847 -0.530722,0.49402 -0.28107,0.14865 -0.512559,0.19586 -0.95962,0.19586 h -0.589629 v -1.4764 z m -14.038419,2.35024 h 0.54052 c 0.34997,0 0.608359,0.0476 0.732258,0.13436 0.105331,0.0737 0.19122,0.20726 0.19122,0.29663 -2.9e-5,0.0894 -0.0859,0.22237 -0.19122,0.2961 -0.123899,0.0868 -0.382288,0.13436 -0.732258,0.13436 h -0.54052 v -0.43046 z" />
  </g>
</svg>
