<?xml version="1.0" encoding="UTF-8" standalone="no"?>
<svg
   xmlns:dc="http://purl.org/dc/elements/1.1/"
   xmlns:cc="http://creativecommons.org/ns#"
   xmlns:rdf="http://www.w3.org/1999/02/22-rdf-syntax-ns#"
   xmlns:svg="http://www.w3.org/2000/svg"
   xmlns="http://www.w3.org/2000/svg"
   xmlns:sodipodi="http://sodipodi.sourceforge.net/DTD/sodipodi-0.dtd"
   xmlns:inkscape="http://www.inkscape.org/namespaces/inkscape"
   inkscape:version="1.0 (4035a4fb49, 2020-05-01)"
   id="svg2265"
   version="1.1"
   viewBox="0 0 120.02573 89.716637"
   height="89.716637mm"
   width="120.02573mm">
  <defs
     id="defs2259" />
  <sodipodi:namedview
     inkscape:window-maximized="0"
     inkscape:window-y="0"
     inkscape:window-x="52"
     inkscape:window-height="1041"
     inkscape:window-width="1274"
     fit-margin-bottom="0"
     fit-margin-right="0"
     fit-margin-left="0"
     fit-margin-top="0"
     showgrid="false"
     inkscape:document-rotation="0"
     inkscape:current-layer="layer1"
     inkscape:document-units="mm"
     inkscape:cy="269.54325"
     inkscape:cx="229.67738"
     inkscape:zoom="0.35"
     inkscape:pageshadow="2"
     inkscape:pageopacity="0.0"
     borderopacity="1.0"
     bordercolor="#666666"
     pagecolor="#ffffff"
     id="base" />
  <metadata
     id="metadata2262">
    <rdf:RDF>
      <cc:Work
         rdf:about="">
        <dc:format>image/svg+xml</dc:format>
        <dc:type
           rdf:resource="http://purl.org/dc/dcmitype/StillImage" />
        <dc:title></dc:title>
      </cc:Work>
    </rdf:RDF>
  </metadata>
  <g
     transform="translate(-45.064527,-76.850014)"
     id="layer1"
     inkscape:groupmode="layer"
     inkscape:label="Layer 1">
    <path
       id="path1095-5"
       style="color:#000000;font-style:normal;font-variant:normal;font-weight:normal;font-stretch:normal;font-size:medium;line-height:normal;font-family:sans-serif;font-variant-ligatures:normal;font-variant-position:normal;font-variant-caps:normal;font-variant-numeric:normal;font-variant-alternates:normal;font-variant-east-asian:normal;font-feature-settings:normal;font-variation-settings:normal;text-indent:0;text-align:start;text-decoration:none;text-decoration-line:none;text-decoration-style:solid;text-decoration-color:#000000;letter-spacing:normal;word-spacing:normal;text-transform:none;writing-mode:lr-tb;direction:ltr;text-orientation:mixed;dominant-baseline:auto;baseline-shift:baseline;text-anchor:start;white-space:normal;shape-padding:0;shape-margin:0;inline-size:0;clip-rule:nonzero;display:inline;overflow:visible;visibility:visible;opacity:1;isolation:auto;mix-blend-mode:normal;color-interpolation:sRGB;color-interpolation-filters:linearRGB;solid-color:#000000;solid-opacity:1;vector-effect:none;fill:#000000;fill-opacity:1;fill-rule:nonzero;stroke:none;stroke-width:0.720744;stroke-linecap:round;stroke-linejoin:miter;stroke-miterlimit:4;stroke-dasharray:none;stroke-dashoffset:0;stroke-opacity:1;color-rendering:auto;image-rendering:auto;shape-rendering:auto;text-rendering:auto;enable-background:accumulate;stop-color:#000000"
       d="m 47.723172,76.850014 v 0.359918 0.963942 h -1.329973 v 0.361188 0.984545 h -1.328672 v 0.359905 14.465909 h 33.049434 v 0.690253 h -1.270782 v 0.334493 13.769253 H 55.987945 v 0.35991 0.96394 h -1.329973 v 0.3612 0.98454 H 53.3293 v 0.35991 12.45054 h -0.0019 v 0.37568 0.9826 h -1.16755 v 0.33449 1.02538 h -1.27106 v 0.3345 14.43666 h 21.465999 v 7.00975 h -4.569165 v 0.33418 0.9826 h -1.313236 v 0.3345 1.02569 h -1.2711 V 152.13 166.56665 H 106.8561 v -1.27271 h 1.35602 v -1.31582 h 1.31324 v -12.91724 h 48.15156 v -1.27271 h 1.35601 v -1.31583 h 1.31325 V 133.61275 H 150.3494 V 133.01 h 1.35601 v -1.3155 h 1.31324 v -14.85993 h -33.84553 v -7.02775 h 43.24884 v -1.27271 h 1.35569 v -1.31646 h 1.3126 V 92.358998 h -19.28243 v -0.64165 h 1.32966 V 76.850014 Z m 0.720794,0.721105 H 146.41669 V 90.996548 H 48.443966 Z m -1.329973,1.323861 h 0.609179 v 12.822368 h 97.363538 v 0.604019 H 47.113993 Z m -1.329967,1.344431 h 0.609173 v 12.80178 h 33.034316 v 0.584736 H 45.784026 Z m 20.768378,0.688635 c -0.310088,0 -0.595112,0.04755 -0.854574,0.142481 -0.253144,0.09494 -0.471328,0.230962 -0.654863,0.408154 -0.183516,0.170869 -0.32586,0.376735 -0.427125,0.617226 -0.101259,0.234155 -0.152128,0.493573 -0.152128,0.778354 0,0.246815 0.03193,0.468323 0.0952,0.664504 0.06329,0.196182 0.161078,0.370132 0.293974,0.522017 0.139232,0.15188 0.316524,0.287919 0.531658,0.408155 0.215184,0.120242 0.474602,0.227993 0.778366,0.322928 0.164546,0.04431 0.316524,0.09153 0.455756,0.14217 0.139226,0.0506 0.259624,0.110813 0.360883,0.180435 0.107582,0.06961 0.18974,0.151767 0.24669,0.24669 0.06329,0.08859 0.09489,0.196344 0.09489,0.322916 0,0.183534 -0.05689,0.338526 -0.170794,0.465098 -0.107576,0.126553 -0.306808,0.189759 -0.597925,0.189759 -0.240478,0 -0.455662,-0.05689 -0.645521,-0.170788 -0.183528,-0.113925 -0.360789,-0.29118 -0.531658,-0.531664 l -1.082311,0.873569 c 0.113918,0.164527 0.243621,0.3162 0.389183,0.455432 0.145555,0.132896 0.306858,0.249964 0.484069,0.351223 0.18351,0.09494 0.386065,0.171087 0.60756,0.228049 0.227831,0.05695 0.480926,0.08524 0.759396,0.08524 0.71513,-1.9e-5 1.265877,-0.17395 1.651911,-0.52203 0.392377,-0.354403 0.588596,-0.847958 0.588596,-1.480819 0,-0.240478 -0.02857,-0.461986 -0.08556,-0.664491 -0.0506,-0.202518 -0.142406,-0.386103 -0.275314,-0.550648 -0.132896,-0.170868 -0.309846,-0.319561 -0.531334,-0.446096 -0.221508,-0.132914 -0.496885,-0.249982 -0.825975,-0.351241 -0.164533,-0.0506 -0.319524,-0.104508 -0.465086,-0.161452 -0.145555,-0.05695 -0.272258,-0.117149 -0.379847,-0.180435 -0.107582,-0.06329 -0.193064,-0.132815 -0.25635,-0.208748 -0.06329,-0.07595 -0.09487,-0.161415 -0.09487,-0.256356 0,-0.177193 0.06319,-0.319537 0.189759,-0.427119 0.132896,-0.107589 0.300852,-0.161471 0.503351,-0.161471 0.386059,0 0.737263,0.186908 1.053694,0.560301 l 0.98709,-0.930495 c -0.22149,-0.303784 -0.493555,-0.531596 -0.81631,-0.683482 -0.31643,-0.158221 -0.724516,-0.237366 -1.224481,-0.237366 z m 11.719797,0 c -0.38604,0 -0.715292,0.06652 -0.987426,0.199406 -0.265785,0.126572 -0.483969,0.291204 -0.654844,0.493722 -0.170863,0.202506 -0.294261,0.430318 -0.370213,0.683481 -0.07593,0.246803 -0.113856,0.493586 -0.113856,0.740407 v 2.35437 c 0,0.29744 0.0379,0.582135 0.113856,0.854262 0.08228,0.272134 0.208668,0.512594 0.37953,0.721442 0.170875,0.202499 0.389383,0.36382 0.655174,0.48405 0.272134,0.120249 0.598063,0.180441 0.977779,0.180441 0.310107,0 0.591801,-0.04755 0.844946,-0.14248 0.259468,-0.101259 0.480957,-0.24361 0.664491,-0.427126 0.189852,-0.189858 0.335203,-0.414365 0.436462,-0.673827 0.107588,-0.265811 0.161464,-0.563463 0.161464,-0.892553 v -2.458579 c 0,-0.259481 -0.04425,-0.515899 -0.13284,-0.769043 -0.08223,-0.253145 -0.208979,-0.477652 -0.379847,-0.673828 -0.170869,-0.202506 -0.389053,-0.363827 -0.654857,-0.484057 -0.265792,-0.126572 -0.579092,-0.190088 -0.939819,-0.190088 z m 19.78547,0 c -0.3101,0 -0.594801,0.04755 -0.854262,0.142481 -0.253145,0.09494 -0.471329,0.230962 -0.654863,0.408154 -0.183516,0.170869 -0.32586,0.376735 -0.427126,0.617226 -0.101259,0.234155 -0.152128,0.493573 -0.152128,0.778354 0,0.246815 0.03156,0.468323 0.09487,0.664504 0.06329,0.196182 0.161402,0.370132 0.294298,0.522017 0.139232,0.15188 0.316493,0.287919 0.531677,0.408155 0.215165,0.120242 0.474583,0.227993 0.778348,0.322928 0.164545,0.04431 0.31653,0.09153 0.455762,0.14217 0.139238,0.0506 0.259617,0.110813 0.360876,0.180435 0.107583,0.06961 0.189778,0.151767 0.24669,0.24669 0.0633,0.08859 0.09489,0.196344 0.09489,0.322916 0,0.183534 -0.05689,0.338526 -0.170788,0.465098 -0.107582,0.126553 -0.307125,0.189759 -0.598243,0.189759 -0.240478,0 -0.455351,-0.05689 -0.645209,-0.170788 -0.183516,-0.113925 -0.360789,-0.29118 -0.531658,-0.531664 l -1.0823,0.873569 c 0.113876,0.164527 0.24361,0.3162 0.389171,0.455432 0.145556,0.132896 0.306858,0.249964 0.484069,0.351223 0.183516,0.09494 0.386072,0.171087 0.607561,0.228049 0.227831,0.05695 0.480944,0.08524 0.759395,0.08524 0.715118,-1.9e-5 1.265878,-0.17395 1.651918,-0.52203 0.392371,-0.354403 0.588591,-0.847958 0.588591,-1.480819 0,-0.240478 -0.0286,-0.461986 -0.0856,-0.664491 -0.0506,-0.202518 -0.14241,-0.386103 -0.275322,-0.550648 -0.132895,-0.170868 -0.310156,-0.319561 -0.531664,-0.446096 -0.221495,-0.132914 -0.496554,-0.249982 -0.825644,-0.351241 -0.164533,-0.0506 -0.319524,-0.104508 -0.465086,-0.161452 -0.145556,-0.05695 -0.272258,-0.117149 -0.379847,-0.180435 -0.107583,-0.06329 -0.193064,-0.132815 -0.25635,-0.208748 -0.06329,-0.07595 -0.09487,-0.161415 -0.09487,-0.256356 0,-0.177193 0.06319,-0.319537 0.189758,-0.427119 0.132896,-0.107589 0.300522,-0.161471 0.50304,-0.161471 0.386041,0 0.737575,0.186908 1.054005,0.560301 l 0.98709,-0.930495 C 99.877284,81.54511 99.605218,81.317298 99.282464,81.165412 98.966033,81.007191 98.557636,80.928046 98.057671,80.928046 Z m 25.402209,0 c -0.3101,0 -0.5948,0.04755 -0.85426,0.142481 -0.25315,0.09494 -0.47166,0.230962 -0.65518,0.408154 -0.18353,0.170869 -0.32588,0.376735 -0.42714,0.617226 -0.10124,0.234155 -0.1518,0.493573 -0.1518,0.778354 0,0.246815 0.0316,0.468323 0.0949,0.664504 0.0633,0.196182 0.1614,0.370132 0.2943,0.522017 0.13923,0.15188 0.31649,0.287919 0.53168,0.408155 0.21516,0.120242 0.47458,0.227993 0.77834,0.322928 0.16455,0.04431 0.31653,0.09153 0.45577,0.14217 0.13924,0.0506 0.2593,0.110813 0.36056,0.180435 0.10758,0.06961 0.18974,0.151767 0.24669,0.24669 0.0633,0.08859 0.0952,0.196344 0.0952,0.322916 0,0.183534 -0.0572,0.338526 -0.1711,0.465098 -0.10758,0.126553 -0.30681,0.189759 -0.59793,0.189759 -0.24048,0 -0.45566,-0.05689 -0.64552,-0.170788 -0.18354,-0.113925 -0.36079,-0.29118 -0.53166,-0.531664 l -1.08199,0.873569 c 0.11391,0.164527 0.24361,0.3162 0.38917,0.455432 0.14556,0.132896 0.30688,0.249964 0.48407,0.351223 0.18354,0.09494 0.38607,0.171087 0.60756,0.228049 0.22783,0.05695 0.48093,0.08524 0.7594,0.08524 0.71512,-1.9e-5 1.26555,-0.17395 1.6516,-0.52203 0.39236,-0.354403 0.58859,-0.847958 0.58859,-1.480819 0,-0.240478 -0.0282,-0.461986 -0.0852,-0.664491 -0.0506,-0.202518 -0.14241,-0.386103 -0.27532,-0.550648 -0.13289,-0.170868 -0.31015,-0.319561 -0.53166,-0.446096 -0.2215,-0.132914 -0.49687,-0.249982 -0.82596,-0.351241 -0.16455,-0.0506 -0.31953,-0.104508 -0.46508,-0.161452 -0.14556,-0.05695 -0.27228,-0.117149 -0.37987,-0.180435 -0.10758,-0.06329 -0.19273,-0.132815 -0.25602,-0.208748 -0.0633,-0.07595 -0.0952,-0.161415 -0.0952,-0.256356 0,-0.177193 0.0635,-0.319537 0.19009,-0.427119 0.13289,-0.107589 0.30052,-0.161471 0.50304,-0.161471 0.38604,0 0.73726,0.186908 1.05367,0.560301 l 0.98743,-0.930495 c -0.22149,-0.303783 -0.49387,-0.531595 -0.81662,-0.683481 -0.31643,-0.158221 -0.72452,-0.237366 -1.22448,-0.237366 z m 8.81606,0 c -0.38605,0 -0.71498,0.06652 -0.98711,0.199406 -0.26579,0.126572 -0.4843,0.291204 -0.65517,0.493722 -0.17087,0.202506 -0.29426,0.430318 -0.3702,0.683481 -0.076,0.246803 -0.11385,0.493586 -0.11385,0.740407 v 2.35437 c 0,0.29744 0.0379,0.582135 0.11385,0.854262 0.0823,0.272134 0.20898,0.512594 0.37985,0.721442 0.17087,0.202499 0.38905,0.36382 0.65486,0.48405 0.27211,0.120249 0.59804,0.180441 0.97777,0.180441 0.31009,0 0.59179,-0.04755 0.84493,-0.14248 0.25947,-0.101259 0.48098,-0.24361 0.66451,-0.427126 0.18986,-0.189858 0.3352,-0.414365 0.43646,-0.673827 0.10759,-0.265811 0.16145,-0.563463 0.16145,-0.892553 v -2.458579 c 0,-0.259481 -0.0442,-0.515899 -0.13283,-0.769043 -0.0823,-0.253145 -0.20898,-0.477652 -0.37984,-0.673828 -0.17089,-0.202506 -0.38905,-0.363827 -0.65486,-0.484057 -0.26581,-0.126572 -0.57909,-0.190088 -0.93982,-0.190088 z m -75.407348,0.04761 -1.907957,6.607055 h 1.452195 c 0.06329,-0.221489 0.123472,-0.446308 0.180435,-0.674145 0.06329,-0.227831 0.123479,-0.45232 0.180435,-0.673828 h 1.566368 l 0.322605,1.347973 h 1.48113 L 58.235529,80.97566 Z m 13.388109,0 v 6.607055 h 1.376603 V 84.867786 H 73.1331 v 2.714929 h 1.35762 V 80.97566 H 73.1331 v 2.639026 H 71.633304 V 80.97566 Z m 11.794729,0 v 6.607055 h 1.376292 v -2.61072 h 0.578942 l 0.882887,2.61072 h 1.490466 l -1.063322,-2.85741 c 0.316412,-0.170869 0.556871,-0.408335 0.721416,-0.712099 0.164552,-0.303783 0.24702,-0.667622 0.24702,-1.091636 0,-0.341756 -0.0539,-0.632755 -0.161451,-0.873252 -0.107602,-0.246802 -0.256257,-0.449357 -0.446109,-0.60756 -0.183535,-0.158222 -0.40203,-0.275296 -0.655193,-0.351229 -0.246764,-0.07595 -0.509214,-0.113869 -0.787684,-0.113869 z m 5.351714,0 v 1.253099 h 1.414552 v 5.353956 h 1.366956 v -5.353956 h 1.41424 V 80.97566 Z m 14.368786,0 v 6.607055 h 3.84452 V 86.28202 h -2.46823 v -1.404898 h 2.12666 v -1.262436 h -2.12666 v -1.366943 h 2.46823 V 80.97566 Z m 5.31762,0 v 6.607055 h 1.37661 v -2.61072 h 0.57894 l 0.88289,2.61072 h 1.49046 l -1.06333,-2.85741 c 0.31644,-0.170869 0.5569,-0.408335 0.72143,-0.712099 0.16454,-0.303783 0.2467,-0.667622 0.2467,-1.091636 0,-0.341756 -0.0535,-0.632755 -0.16113,-0.873252 -0.10761,-0.246802 -0.25626,-0.449357 -0.44612,-0.60756 -0.18353,-0.158222 -0.40203,-0.275296 -0.65517,-0.351229 -0.24682,-0.07595 -0.50956,-0.113869 -0.78802,-0.113869 z m 5.89303,0 v 6.607055 h 1.37628 V 80.97566 Z m 3.18517,0 v 6.607055 h 3.84452 V 86.28202 h -2.46825 v -1.404898 h 2.12634 v -1.262436 h -2.12634 v -1.366943 h 2.46825 V 80.97566 Z m 19.88742,0 v 6.607055 h 1.37628 v -2.686622 h 2.12634 v -1.2531 h -2.12634 v -1.39525 h 2.46824 V 80.97566 Z m -52.627448,1.253099 h 0.778354 c 0.221508,0 0.402073,0.0539 0.541311,0.161465 0.145556,0.107582 0.218066,0.287856 0.218066,0.540981 0,0.291118 -0.07883,0.496673 -0.237036,0.616903 -0.151886,0.113925 -0.338825,0.171117 -0.560283,0.171117 h -0.740412 z m 25.038438,0 h 0.77835 c 0.2215,0 0.40176,0.0539 0.541,0.161465 0.14556,0.107582 0.21839,0.287856 0.21839,0.540981 0,0.291118 -0.0792,0.496673 -0.23736,0.616903 -0.1519,0.113925 -0.33848,0.171117 -0.55998,0.171117 h -0.7404 z m -30.193959,0.02832 c 0.139239,0 0.252977,0.02863 0.341576,0.08555 0.09494,0.05066 0.171087,0.113826 0.228043,0.189772 0.05695,0.07593 0.0949,0.155097 0.113863,0.237366 0.02533,0.08228 0.03797,0.155128 0.03797,0.218383 v 2.610408 c 0,0.221508 -0.07283,0.395769 -0.218395,0.522341 -0.139232,0.126572 -0.306858,0.189759 -0.50304,0.189759 -0.272128,0 -0.468341,-0.08214 -0.58859,-0.24669 -0.113906,-0.164545 -0.170787,-0.373406 -0.170787,-0.62655 v -2.449268 c 0,-0.0759 0.01263,-0.155097 0.03797,-0.237366 0.03162,-0.0886 0.07587,-0.167745 0.132834,-0.237367 0.06329,-0.07593 0.142431,-0.136138 0.237366,-0.180441 0.09494,-0.0506 0.212004,-0.0759 0.351223,-0.0759 z m 54.003739,0 c 0.13922,0 0.25329,0.02863 0.34189,0.08555 0.0949,0.05066 0.17077,0.113826 0.22772,0.189772 0.057,0.07593 0.0949,0.155097 0.11387,0.237366 0.0253,0.08228 0.038,0.155128 0.038,0.218383 v 2.610408 c 0,0.221508 -0.0728,0.395769 -0.2184,0.522341 -0.13919,0.126572 -0.30684,0.189759 -0.50302,0.189759 -0.27213,0 -0.46836,-0.08214 -0.58861,-0.24669 -0.11391,-0.164545 -0.17079,-0.373406 -0.17079,-0.62655 v -2.449268 c 0,-0.0759 0.0126,-0.155097 0.038,-0.237366 0.0317,-0.0886 0.0759,-0.167745 0.13282,-0.237367 0.0633,-0.07593 0.14245,-0.136138 0.23739,-0.180441 0.0949,-0.0506 0.21199,-0.0759 0.35122,-0.0759 z m -74.742857,0.493704 h 0.04761 l 0.265674,1.319678 0.180441,0.939501 H 57.077323 L 57.267412,84.06081 Z M 145.80782,93.029 h 18.61214 v 13.51904 H 80.097484 V 93.041191 h 63.661836 0.71983 1.32867 z m -67.023896,1.316448 h 0.643591 v 12.872232 h 83.678895 v 0.64648 H 78.783924 Z m -1.273029,1.357638 h 0.603066 v 12.831054 h 83.640279 v 0.60532 H 119.17312 77.510895 Z m 20.331281,0.729477 c -0.310107,0 -0.594801,0.04755 -0.854269,0.142476 -0.253144,0.09494 -0.471322,0.230961 -0.654857,0.408154 -0.183516,0.170886 -0.326196,0.376735 -0.427455,0.617232 -0.10124,0.234154 -0.151798,0.493573 -0.151798,0.778347 0,0.246821 0.03162,0.468329 0.09487,0.664511 0.06329,0.196181 0.161402,0.370132 0.294298,0.522011 0.139238,0.151886 0.316493,0.287925 0.531683,0.408154 0.215165,0.120252 0.474583,0.228002 0.778348,0.322942 0.164545,0.0443 0.316524,0.0915 0.455762,0.14215 0.139232,0.0507 0.259617,0.11082 0.360876,0.18045 0.107583,0.0696 0.18974,0.15175 0.246703,0.24669 0.06329,0.0886 0.09487,0.19635 0.09487,0.32292 0,0.18353 -0.05689,0.3385 -0.170788,0.4651 -0.107589,0.12657 -0.307126,0.18975 -0.598243,0.18975 -0.240478,0 -0.455662,-0.0569 -0.645521,-0.17078 -0.183534,-0.11391 -0.360478,-0.29119 -0.531353,-0.53167 l -1.082293,0.87357 c 0.113907,0.16453 0.24361,0.3162 0.389165,0.45543 0.145562,0.1329 0.306877,0.24997 0.484075,0.35123 0.183529,0.0949 0.386065,0.17108 0.60756,0.22805 0.227832,0.057 0.480926,0.0852 0.759396,0.0852 0.715112,0 1.265878,-0.17394 1.651918,-0.52202 0.392376,-0.3544 0.588587,-0.84796 0.588587,-1.48081 0,-0.24048 -0.0286,-0.46199 -0.08555,-0.6645 -0.0506,-0.20252 -0.142413,-0.3861 -0.275327,-0.550654 -0.132896,-0.170868 -0.31015,-0.319536 -0.531658,-0.446107 -0.221495,-0.132897 -0.496554,-0.249965 -0.825651,-0.351224 -0.164526,-0.0506 -0.319835,-0.104508 -0.465397,-0.161452 -0.145555,-0.05695 -0.271947,-0.117155 -0.379529,-0.18044 -0.107583,-0.06329 -0.19307,-0.13281 -0.256356,-0.208743 -0.06329,-0.07595 -0.09487,-0.161421 -0.09487,-0.256355 0,-0.177194 0.06319,-0.319543 0.189758,-0.427126 0.13289,-0.107582 0.300516,-0.161464 0.50304,-0.161464 0.386034,0 0.737263,0.186907 1.053675,0.560301 l 0.987426,-0.930501 C 99.661776,97.049607 99.389711,96.821789 99.066963,96.66991 98.750532,96.511689 98.342129,96.432543 97.84217,96.432543 Z m 11.656114,0 c -0.38605,0 -0.71498,0.06651 -0.98711,0.199407 -0.26579,0.126571 -0.4843,0.291198 -0.65517,0.493722 -0.16455,0.202506 -0.28461,0.43035 -0.36056,0.683463 -0.0759,0.246821 -0.11386,0.493603 -0.11386,0.740406 v 2.354079 c 0,0.29744 0.0379,0.58245 0.11386,0.85458 0.0823,0.27212 0.20566,0.51259 0.37021,0.72143 0.17087,0.20251 0.38905,0.36383 0.65486,0.48406 0.27213,0.12025 0.59806,0.18043 0.97777,0.18043 0.35439,0 0.66469,-0.0538 0.93048,-0.16145 0.27213,-0.11392 0.49664,-0.27223 0.67383,-0.47473 0.18354,-0.20252 0.31958,-0.44299 0.40817,-0.72144 0.0886,-0.28479 0.13316,-0.59807 0.13316,-0.93982 v -1.433224 h -2.25949 v 1.167554 h 0.89253 v 0.51269 c 0,0.20251 -0.0602,0.37646 -0.18044,0.52202 -0.11392,0.13921 -0.31646,0.20874 -0.60757,0.20874 -0.2658,0 -0.4557,-0.0855 -0.56963,-0.25635 -0.10758,-0.17087 -0.16144,-0.37942 -0.16144,-0.62622 v -2.449275 c 0,-0.07593 0.0126,-0.155097 0.038,-0.237371 0.0253,-0.08859 0.0666,-0.167739 0.12351,-0.237367 0.057,-0.07593 0.13279,-0.136121 0.22771,-0.180436 0.0949,-0.0506 0.21201,-0.0759 0.35125,-0.0759 0.13289,0 0.24697,0.02527 0.34188,0.0759 0.0949,0.05066 0.17408,0.110832 0.23737,0.180436 0.0633,0.06963 0.10754,0.148773 0.13285,0.237367 0.0316,0.08227 0.0536,0.155115 0.0662,0.2184 l 1.30071,-0.389183 c -0.0443,-0.215171 -0.12015,-0.421032 -0.22773,-0.617214 -0.10758,-0.202525 -0.24693,-0.379778 -0.4178,-0.531665 -0.17087,-0.151884 -0.37641,-0.271965 -0.6169,-0.360563 -0.24048,-0.09492 -0.51286,-0.142476 -0.81662,-0.142476 z m 46.04516,0 c -0.31011,0 -0.5948,0.04755 -0.85427,0.142476 -0.25315,0.09494 -0.47165,0.230961 -0.65517,0.408154 -0.18354,0.170886 -0.32589,0.376735 -0.42714,0.617232 -0.10126,0.234154 -0.15182,0.493573 -0.15182,0.778347 0,0.246821 0.0316,0.468329 0.0949,0.664511 0.0633,0.196181 0.16141,0.370132 0.2943,0.522011 0.13924,0.151886 0.31649,0.287925 0.53167,0.408154 0.21516,0.120252 0.4746,0.228002 0.77836,0.322942 0.16455,0.0443 0.31653,0.0915 0.45577,0.14215 0.13921,0.0507 0.25928,0.11082 0.36054,0.18045 0.10758,0.0696 0.19007,0.15175 0.24702,0.24669 0.0633,0.0886 0.0949,0.19635 0.0949,0.32292 0,0.18353 -0.0569,0.3385 -0.17079,0.4651 -0.10759,0.12657 -0.30713,0.18975 -0.59824,0.18975 -0.2405,0 -0.45567,-0.0569 -0.64552,-0.17078 -0.18354,-0.11391 -0.36081,-0.29119 -0.53169,-0.53167 l -1.08198,0.87357 c 0.11393,0.16453 0.24363,0.3162 0.38918,0.45543 0.14557,0.1329 0.30687,0.24997 0.48407,0.35123 0.18353,0.0949 0.38607,0.17108 0.60757,0.22805 0.22783,0.057 0.48093,0.0852 0.75938,0.0852 0.71513,0 1.26589,-0.17394 1.65193,-0.52202 0.39238,-0.3544 0.58859,-0.84796 0.58859,-1.48081 0,-0.24048 -0.0286,-0.46199 -0.0856,-0.6645 -0.0507,-0.20252 -0.14243,-0.3861 -0.27532,-0.550654 -0.1329,-0.170868 -0.31017,-0.319536 -0.53167,-0.446107 -0.22151,-0.132897 -0.49688,-0.249965 -0.82595,-0.351224 -0.16455,-0.0506 -0.31955,-0.104508 -0.4651,-0.161452 -0.14554,-0.05695 -0.27194,-0.117155 -0.37952,-0.18044 -0.10758,-0.06329 -0.19307,-0.13281 -0.25636,-0.208743 -0.0633,-0.07595 -0.0949,-0.161421 -0.0949,-0.256355 0,-0.177194 0.0632,-0.319543 0.18977,-0.427126 0.1329,-0.107582 0.30052,-0.161464 0.50305,-0.161464 0.38603,0 0.73724,0.186907 1.05367,0.560301 l 0.98743,-0.930501 c -0.2215,-0.303778 -0.49356,-0.531596 -0.81631,-0.683475 -0.31643,-0.158221 -0.72485,-0.237367 -1.22479,-0.237367 z m -68.79065,0.04761 v 6.607057 h 2.059761 c 0.215165,0 0.421032,-0.019 0.617207,-0.057 0.202524,-0.038 0.389103,-0.0982 0.559971,-0.18043 0.170869,-0.0886 0.319543,-0.20567 0.446115,-0.35123 0.132896,-0.14556 0.240659,-0.32914 0.322916,-0.55064 0.10757,-0.28479 0.164446,-0.62668 0.170788,-1.02538 0.0063,-0.40502 0.0093,-0.89527 0.0093,-1.471161 0,-0.3987 -0.0093,-0.759545 -0.02832,-1.082312 -0.01263,-0.329077 -0.06321,-0.604466 -0.151817,-0.825961 -0.145543,-0.379711 -0.376698,-0.651758 -0.693129,-0.816309 -0.310057,-0.164546 -0.686574,-0.246704 -1.129577,-0.246704 z m 5.930003,0 v 6.607057 h 1.376274 v -6.607057 z m 10.230937,0 -1.90796,6.607057 h 1.45253 c 0.0633,-0.22149 0.12315,-0.44631 0.18011,-0.67414 0.0633,-0.22784 0.12347,-0.45234 0.18044,-0.67383 h 1.56637 l 0.3226,1.34797 h 1.48114 l -1.90826,-6.607057 z m 10.35349,0 v 6.607057 h 1.37627 v -2.61072 h 0.57928 l 0.88288,2.61072 h 1.49014 l -1.063,-2.85741 c 0.31641,-0.17087 0.55688,-0.408331 0.72142,-0.712113 0.16455,-0.303734 0.24671,-0.667603 0.24671,-1.091635 0,-0.341738 -0.0539,-0.632755 -0.16147,-0.873234 -0.10758,-0.246821 -0.25625,-0.449357 -0.44611,-0.607566 -0.18354,-0.158223 -0.40171,-0.27529 -0.65486,-0.351242 -0.2468,-0.07593 -0.50954,-0.113856 -0.788,-0.113856 z m 5.87371,0 v 6.607057 h 3.84485 v -1.30069 h -2.46824 v -1.40492 h 2.12634 v -1.262414 h -2.12634 v -1.366962 h 2.46824 v -1.27207 z m 5.31794,0 v 6.607057 h 3.84452 v -1.30069 h -2.46824 v -1.40492 h 2.12667 v -1.262414 h -2.12667 v -1.366962 h 2.46824 v -1.27207 z m 5.28933,0 v 6.607057 h 1.36693 v -3.123079 l 0.038,-0.0096 0.44611,1.139239 0.3702,0.9112 h 0.98711 l 0.35123,-0.85426 0.45576,-1.186525 0.038,0.0093 v 3.113765 h 1.36695 v -6.60706 h -1.29104 l -0.7594,1.832041 -0.63586,1.661254 h -0.0476 l -0.65485,-1.651601 -0.76903,-1.841694 z m 7.16315,0 v 6.607057 h 3.84452 v -1.30069 h -2.46824 v -1.40492 h 2.12634 v -1.262414 h -2.12634 v -1.366962 h 2.46824 v -1.27207 z m 5.29864,0 v 6.607057 h 1.37661 v -3.588494 l 0.0283,-0.0093 0.72144,1.395244 1.22479,2.20257 h 1.20549 v -6.607062 h -1.36696 v 3.559562 l -0.0286,0.01 -0.86392,-1.594669 -1.08198,-1.974542 z m 5.81583,0 v 1.253099 h 1.41455 v 5.353958 h 1.36696 v -5.353958 h 1.41424 V 96.480181 Z M 114.6435,97.73328 h 0.77868 c 0.2215,0 0.40176,0.05353 0.541,0.161141 0.14556,0.107582 0.21838,0.288185 0.21838,0.541311 0,0.291118 -0.0791,0.496667 -0.23737,0.616897 -0.15188,0.113924 -0.33878,0.170787 -0.56028,0.170787 H 114.6435 Z M 88.119744,97.7616 h 0.569307 c 0.196182,0 0.351484,0.04126 0.465397,0.123508 0.120248,0.07595 0.208729,0.183374 0.265673,0.322606 0.06332,0.132894 0.104552,0.288204 0.12351,0.465396 0.01898,0.177211 0.02832,0.360478 0.02832,0.550318 v 1.595002 c 0,0.31009 -0.06019,0.55355 -0.180447,0.73076 -0.113906,0.17719 -0.344725,0.26599 -0.692799,0.26599 H 88.11975 Z m 15.458486,0.493702 h 0.0476 l 0.26567,1.319368 0.18044,0.93982 h -0.94916 l 0.18978,-0.949158 z M 56.708739,109.86061 h 61.743581 v 6.97403 h -1.06783 v 0.33418 0.98261 h -1.31325 v 0.33449 1.02571 h -1.27109 v 0.3345 3.4399 H 56.708739 Z m -1.329972,1.32386 h 0.609178 v 12.82234 h 58.812205 v 0.60404 H 55.378767 Z m -1.329973,1.34443 h 0.609178 v 12.09063 h -0.609178 z m 28.102034,0.69346 c -0.310107,0 -0.594801,0.0472 -0.854282,0.14215 -0.253094,0.0949 -0.471639,0.23127 -0.655174,0.40847 -0.183516,0.17088 -0.325866,0.37643 -0.427125,0.61691 -0.101265,0.23415 -0.151817,0.49357 -0.151817,0.77836 0,0.24681 0.03162,0.46831 0.09489,0.6645 0.06329,0.19618 0.161395,0.37013 0.294285,0.52201 0.139226,0.15189 0.316505,0.28825 0.531664,0.40848 0.215172,0.12025 0.474584,0.22767 0.778373,0.3226 0.164527,0.0443 0.31653,0.0919 0.455744,0.14249 0.139238,0.0507 0.259306,0.11082 0.360565,0.18043 0.107582,0.0696 0.190051,0.15177 0.247013,0.2467 0.06329,0.0886 0.09489,0.19604 0.09489,0.32261 0,0.18351 -0.05689,0.33882 -0.170788,0.46539 -0.107582,0.12658 -0.307194,0.18978 -0.598242,0.18978 -0.240498,0 -0.455681,-0.0569 -0.645546,-0.17079 -0.18351,-0.11392 -0.360783,-0.29123 -0.531652,-0.53166 l -1.081988,0.87324 c 0.113913,0.16455 0.243628,0.31652 0.389183,0.45576 0.145562,0.1329 0.306865,0.24997 0.484057,0.35122 0.183535,0.0949 0.38609,0.17076 0.607579,0.22772 0.227831,0.057 0.480926,0.0855 0.759377,0.0855 0.71513,0 1.265878,-0.17393 1.651936,-0.52201 0.392358,-0.3544 0.58859,-0.84827 0.58859,-1.48113 0,-0.24049 -0.02863,-0.46199 -0.08555,-0.66451 -0.05066,-0.20252 -0.142431,-0.3861 -0.275327,-0.55065 -0.132908,-0.17082 -0.310169,-0.31953 -0.531658,-0.44609 -0.221507,-0.13292 -0.496884,-0.24998 -0.825974,-0.35123 -0.164533,-0.0507 -0.31953,-0.10419 -0.465086,-0.16115 -0.145561,-0.057 -0.271947,-0.11715 -0.379536,-0.18044 -0.107582,-0.0633 -0.193051,-0.13311 -0.256337,-0.20906 -0.06329,-0.0759 -0.09489,-0.16109 -0.09489,-0.25602 0,-0.1772 0.06321,-0.31988 0.189778,-0.42746 0.132896,-0.10758 0.300515,-0.16113 0.50304,-0.16113 0.38599,0 0.737244,0.18657 1.053675,0.55997 l 0.987419,-0.93017 c -0.221501,-0.30378 -0.493554,-0.5316 -0.81632,-0.68348 -0.316381,-0.15822 -0.724878,-0.23736 -1.224774,-0.23736 z m -18.762032,0.0473 v 6.60705 h 1.37661 v -2.41099 h 0.797337 c 0.316425,0 0.601125,-0.0509 0.854263,-0.15213 0.253144,-0.10127 0.468322,-0.24361 0.645521,-0.42713 0.177211,-0.18353 0.313237,-0.40504 0.408154,-0.66451 0.09492,-0.25946 0.1425,-0.54748 0.1425,-0.86391 0,-0.36073 -0.0539,-0.67071 -0.161471,-0.93017 -0.101259,-0.26581 -0.246603,-0.48399 -0.436461,-0.65486 -0.183535,-0.17087 -0.408347,-0.29758 -0.674158,-0.37984 -0.259468,-0.0823 -0.544162,-0.12351 -0.854262,-0.12351 z m 5.595834,0 v 6.60705 h 1.37661 v -2.61041 h 0.578942 l 0.882887,2.61041 h 1.490466 l -1.063322,-2.85742 c 0.31643,-0.17087 0.556872,-0.408 0.721423,-0.71179 0.164545,-0.30376 0.247007,-0.66762 0.247007,-1.09163 0,-0.34174 -0.05384,-0.63307 -0.161458,-0.87357 -0.107588,-0.2468 -0.256244,-0.44902 -0.446096,-0.60725 -0.183534,-0.1582 -0.402029,-0.27527 -0.655186,-0.35122 -0.246809,-0.0759 -0.50955,-0.11417 -0.788008,-0.11417 z m 5.874049,0 v 6.60705 h 3.844519 v -1.30037 h -2.468245 v -1.40492 h 2.126669 v -1.26274 h -2.126669 v -1.36695 h 2.468245 v -1.27207 z m 11.00608,0 v 6.60705 h 3.84483 v -1.30037 h -2.46822 v -1.40492 h 2.126333 v -1.26274 h -2.126333 v -1.36695 h 2.46822 v -1.27207 z m 5.298954,0 v 6.60705 h 1.376279 v -3.58818 l 0.02863,-0.01 0.721423,1.39558 1.224475,2.20225 h 1.205809 v -6.60705 h -1.366943 v 3.55985 l -0.02863,0.01 -0.863922,-1.59498 -1.081982,-1.97452 z m 5.815829,0 v 1.25308 h 1.41424 v 5.35397 h 1.366956 v -5.35397 h 1.414552 v -1.25308 z m 5.543098,0 v 6.60705 h 3.84451 v -1.30037 h -2.4679 v -1.40492 h 2.12633 v -1.26274 h -2.12633 v -1.36695 h 2.4679 v -1.27207 z m 5.31794,0 v 6.60705 h 2.05975 c 0.21518,0 0.42104,-0.019 0.61722,-0.057 0.20252,-0.038 0.3891,-0.0982 0.55997,-0.18044 0.17087,-0.0886 0.31954,-0.20568 0.44611,-0.35124 0.1329,-0.14554 0.24064,-0.32881 0.32292,-0.55032 0.10757,-0.28478 0.16444,-0.62667 0.17079,-1.02537 0.006,-0.40502 0.009,-0.89558 0.009,-1.47149 0,-0.3987 -0.009,-0.75922 -0.0283,-1.08198 -0.0127,-0.32908 -0.0635,-0.60447 -0.15212,-0.82596 -0.14557,-0.37971 -0.3764,-0.65178 -0.69282,-0.81631 -0.31009,-0.16455 -0.68658,-0.24702 -1.12958,-0.24702 z m -37.47934,1.25308 h 0.778354 c 0.221508,0 0.401762,0.0539 0.540994,0.16147 0.145562,0.10758 0.218383,0.28786 0.218383,0.541 0,0.2911 -0.07914,0.49696 -0.237366,0.61721 -0.151885,0.11391 -0.33847,0.17079 -0.559971,0.17079 H 70.36124 Z m -5.595834,0.019 h 0.721423 c 0.240484,0 0.430392,0.0635 0.569618,0.19009 0.139232,0.12023 0.208742,0.32246 0.208742,0.60725 0,0.31009 -0.07916,0.52859 -0.237366,0.65517 -0.151879,0.12657 -0.329153,0.18976 -0.531658,0.18976 h -0.730759 z m 44.442114,0.01 h 0.56931 c 0.19618,0 0.35148,0.0409 0.4654,0.12318 0.12024,0.076 0.20872,0.18375 0.26567,0.32292 0.0633,0.13291 0.1045,0.28789 0.12351,0.4651 0.019,0.17719 0.0283,0.36078 0.0283,0.55063 v 1.59467 c 0,0.31011 -0.0602,0.55388 -0.18044,0.73109 -0.11393,0.1772 -0.34474,0.26566 -0.6928,0.26566 h -0.57895 z m 8.84725,2.95327 h 34.29257 V 131.025 h -34.29257 z m -1.31355,1.31678 h 0.64327 v 12.87317 h 33.64961 v 0.64553 h -34.29288 z m -1.27335,1.35762 h 0.60337 v 12.83104 h 33.61038 v 0.60275 h -34.21375 z m 9.18978,0.78189 v 6.60706 h 1.37629 v -2.71493 h 1.50011 v 2.71493 h 1.3573 v -6.60706 h -1.3573 v 2.63903 h -1.50011 v -2.63903 z m 6.05031,0 v 6.60706 h 3.84452 V 126.268 h -2.46824 v -1.40492 h 2.12667 v -1.26275 h -2.12667 v -1.36694 h 2.46824 v -1.27209 z m 5.31761,0 v 6.60706 h 1.37661 v -2.6104 h 0.57894 l 0.88289,2.6104 h 1.49047 l -1.06332,-2.85741 c 0.31643,-0.17089 0.55689,-0.40802 0.72141,-0.71179 0.16455,-0.30376 0.24702,-0.66762 0.24702,-1.09163 0,-0.34174 -0.0538,-0.63309 -0.16145,-0.87357 -0.1076,-0.2468 -0.25626,-0.44935 -0.44611,-0.60756 -0.18353,-0.15822 -0.40205,-0.27529 -0.65517,-0.35124 -0.24682,-0.0759 -0.50923,-0.11386 -0.78769,-0.11386 z m 5.87405,0 v 6.60706 h 3.84452 V 126.268 h -2.46791 v -1.40492 h 2.12634 v -1.26275 h -2.12634 v -1.36694 h 2.46791 v -1.27209 z m -4.49744,1.2531 h 0.77836 c 0.2215,0 0.40176,0.0539 0.54099,0.16147 0.14556,0.10758 0.2184,0.28784 0.2184,0.54098 0,0.29112 -0.0792,0.49698 -0.23737,0.61723 -0.1519,0.11391 -0.33848,0.17079 -0.55996,0.17079 h -0.74042 z m -83.342121,3.11666 h 0.597913 20.262133 v 8.39601 1.20323 0.66997 3.25111 H 71.673194 54.060059 Z m 21.531303,0 h 39.208788 v 0.58474 H 75.591362 Z m 0,1.30424 h 39.208788 v 6.9779 H 75.591362 Z m -22.76156,0.0129 h 0.497569 v 12.87287 h 20.298481 v 0.64583 h -20.79605 z m -1.273371,1.35731 h 0.60339 v 12.83137 h 20.194912 v 0.60499 H 51.556431 Z m 9.113895,0.78222 v 6.60706 h 1.376609 v -6.60706 z m 3.166197,0 v 6.60706 h 1.37628 v -3.5885 l 0.02863,-0.009 0.721436,1.39525 1.224469,2.20257 h 1.205485 v -6.60706 h -1.366962 v 3.55987 l -0.02832,0.009 -0.863917,-1.59467 -1.081988,-1.97454 z m 11.772527,5.49548 h 39.1911 35.54919 9.32553 v 13.5202 H 75.60905 Z m 8.836316,3.40454 c -0.386041,0 -0.714963,0.0662 -0.987097,0.19907 -0.265804,0.12657 -0.484299,0.29121 -0.655174,0.49372 -0.164539,0.20251 -0.284607,0.43034 -0.360559,0.68349 -0.07593,0.2468 -0.113856,0.49358 -0.113856,0.7404 v 2.35437 c 0,0.29745 0.0379,0.58215 0.113856,0.85426 0.08228,0.27213 0.205668,0.5126 0.370213,0.72144 0.170868,0.20252 0.389052,0.36383 0.654844,0.48407 0.272128,0.12023 0.598056,0.18044 0.977773,0.18044 0.537938,0 0.993581,-0.14567 1.366956,-0.43679 0.373393,-0.29112 0.607846,-0.69288 0.702782,-1.20549 l -1.310031,-0.37953 c -0.02533,0.21516 -0.110776,0.3858 -0.256338,0.51235 -0.145555,0.12025 -0.313492,0.18045 -0.503369,0.18045 -0.272116,0 -0.465017,-0.0822 -0.578942,-0.24669 -0.107583,-0.16455 -0.161452,-0.37341 -0.161465,-0.62655 v -2.44926 c 0,-0.076 0.01264,-0.15511 0.03797,-0.23737 0.02533,-0.0886 0.06657,-0.16775 0.12351,-0.23736 0.05695,-0.076 0.132796,-0.13583 0.227719,-0.18013 0.09494,-0.0506 0.212004,-0.0759 0.351223,-0.0759 0.132915,0 0.246983,0.0253 0.341906,0.0759 0.09494,0.0507 0.17408,0.11051 0.237366,0.18013 0.06328,0.0696 0.107533,0.14875 0.13284,0.23736 0.03162,0.0823 0.0539,0.1551 0.06659,0.21839 l 1.300365,-0.38917 c -0.04432,-0.21519 -0.120137,-0.42072 -0.227719,-0.6169 -0.107583,-0.20252 -0.246933,-0.37978 -0.417802,-0.53168 -0.170875,-0.15188 -0.376405,-0.27226 -0.616903,-0.36087 -0.240484,-0.0949 -0.512855,-0.14215 -0.816638,-0.14215 z m 17.362584,0 c -0.38604,0 -0.7153,0.0662 -0.98742,0.19907 -0.2658,0.12657 -0.48398,0.29121 -0.65485,0.49372 -0.170868,0.20251 -0.29426,0.43034 -0.370212,0.68349 -0.07593,0.2468 -0.114173,0.49358 -0.114173,0.7404 v 2.35437 c 0,0.29745 0.03821,0.58215 0.114173,0.85426 0.08228,0.27213 0.208662,0.5126 0.379532,0.72144 0.17087,0.20252 0.38938,0.36383 0.65517,0.48407 0.27213,0.12023 0.59806,0.18044 0.97778,0.18044 0.3101,0 0.59148,-0.0476 0.84462,-0.14249 0.25948,-0.10127 0.48097,-0.2436 0.6645,-0.42713 0.18986,-0.18986 0.33554,-0.41436 0.43678,-0.67383 0.10758,-0.26581 0.16147,-0.56346 0.16147,-0.89254 v -2.45859 c 0,-0.25948 -0.0446,-0.51557 -0.13316,-0.76872 -0.0823,-0.25314 -0.20867,-0.47795 -0.37954,-0.67416 -0.17087,-0.20245 -0.38936,-0.3638 -0.65517,-0.48405 -0.26579,-0.12657 -0.57876,-0.18975 -0.9395,-0.18975 z m 12.06298,0 c -0.38603,0 -0.71529,0.0662 -0.98742,0.19907 -0.26579,0.12657 -0.48397,0.29121 -0.65486,0.49372 -0.17087,0.20251 -0.29426,0.43034 -0.37019,0.68349 -0.076,0.2468 -0.11386,0.49358 -0.11386,0.7404 v 2.35437 c 0,0.29745 0.0379,0.58215 0.11386,0.85426 0.0823,0.27213 0.20864,0.5126 0.37953,0.72144 0.17087,0.20252 0.38936,0.36383 0.65517,0.48407 0.27213,0.12023 0.59806,0.18044 0.97777,0.18044 0.31011,0 0.59181,-0.0476 0.84495,-0.14249 0.25942,-0.10127 0.48096,-0.2436 0.66449,-0.42713 0.18986,-0.18986 0.3352,-0.41436 0.43646,-0.67383 0.10759,-0.26581 0.16147,-0.56346 0.16147,-0.89254 v -2.45859 c 0,-0.25948 -0.0443,-0.51557 -0.13284,-0.76872 -0.0823,-0.25314 -0.20898,-0.47795 -0.37985,-0.67416 -0.17087,-0.20245 -0.38905,-0.3638 -0.65486,-0.48405 -0.26579,-0.12657 -0.57909,-0.18975 -0.93982,-0.18975 z m 10.98774,0 c -0.38604,0 -0.71528,0.0662 -0.98741,0.19907 -0.26581,0.12657 -0.48399,0.29121 -0.65485,0.49372 -0.17088,0.20251 -0.29427,0.43034 -0.37022,0.68349 -0.0759,0.2468 -0.11386,0.49358 -0.11386,0.7404 v 2.35437 c 0,0.29745 0.0379,0.58215 0.11386,0.85426 0.0823,0.27213 0.20866,0.5126 0.37953,0.72144 0.17089,0.20252 0.38939,0.36383 0.65518,0.48407 0.27213,0.12023 0.59807,0.18044 0.97777,0.18044 0.31011,0 0.5918,-0.0476 0.84495,-0.14249 0.25946,-0.10127 0.48097,-0.2436 0.66451,-0.42713 0.18985,-0.18986 0.3352,-0.41436 0.43646,-0.67383 0.10758,-0.26581 0.16145,-0.56346 0.16145,-0.89254 v -2.45859 c 0,-0.25948 -0.0443,-0.51557 -0.13283,-0.76872 -0.0823,-0.25314 -0.209,-0.47795 -0.37986,-0.67416 -0.17087,-0.20245 -0.38906,-0.3638 -0.65485,-0.48405 -0.2658,-0.12657 -0.57908,-0.18975 -0.93983,-0.18975 z m 5.79172,0 c -0.38605,0 -0.71529,0.0662 -0.98742,0.19907 -0.26581,0.12657 -0.48399,0.29121 -0.65486,0.49372 -0.16455,0.20251 -0.28493,0.43034 -0.36088,0.68349 -0.0759,0.2468 -0.11386,0.49358 -0.11386,0.7404 v 2.35437 c 0,0.29745 0.0379,0.58215 0.11386,0.85426 0.0823,0.27213 0.20567,0.5126 0.37022,0.72144 0.17087,0.20252 0.38936,0.36383 0.65516,0.48407 0.27214,0.12023 0.59807,0.18044 0.97778,0.18044 0.35441,0 0.66436,-0.0539 0.93017,-0.16146 0.27213,-0.11392 0.49695,-0.27191 0.67416,-0.47443 0.18351,-0.2025 0.31955,-0.44296 0.40815,-0.72142 0.0886,-0.28479 0.13283,-0.59807 0.13283,-0.93983 v -1.43352 h -2.2595 v 1.16753 h 0.89254 v 0.51269 c 0,0.20251 -0.0602,0.37646 -0.18044,0.52201 -0.11391,0.13924 -0.31646,0.20906 -0.60756,0.20906 -0.2658,0 -0.45571,-0.0855 -0.56962,-0.25633 -0.10759,-0.17087 -0.16114,-0.37973 -0.16114,-0.62655 v -2.44926 c 0,-0.076 0.0126,-0.15511 0.038,-0.23737 0.0253,-0.0886 0.0662,-0.16775 0.1232,-0.23736 0.057,-0.076 0.1331,-0.13583 0.22804,-0.18013 0.0949,-0.0506 0.21199,-0.0759 0.35123,-0.0759 0.13289,0 0.24663,0.0253 0.34157,0.0759 0.0949,0.0507 0.17408,0.11051 0.23736,0.18013 0.0633,0.0696 0.10753,0.14875 0.13284,0.23736 0.0317,0.0823 0.054,0.1551 0.0666,0.21839 l 1.30037,-0.38917 c -0.0443,-0.21519 -0.12013,-0.42072 -0.22771,-0.6169 -0.10759,-0.20252 -0.24694,-0.37978 -0.41781,-0.53168 -0.17087,-0.15188 -0.37641,-0.27226 -0.61689,-0.36087 -0.24049,-0.0949 -0.51255,-0.14215 -0.81631,-0.14215 z m 8.93763,0 c -0.38604,0 -0.71496,0.0662 -0.9871,0.19907 -0.2658,0.12657 -0.4843,0.29121 -0.65519,0.49372 -0.16447,0.20251 -0.28459,0.43034 -0.36054,0.68349 -0.076,0.2468 -0.11386,0.49358 -0.11386,0.7404 v 2.35437 c 0,0.29745 0.0379,0.58215 0.11386,0.85426 0.0823,0.27213 0.20567,0.5126 0.3702,0.72144 0.17089,0.20252 0.38905,0.36383 0.65486,0.48407 0.27212,0.12023 0.59806,0.18044 0.97777,0.18044 0.53794,0 0.99357,-0.14567 1.36696,-0.43679 0.37339,-0.29112 0.60753,-0.69288 0.70245,-1.20549 l -1.31003,-0.37953 c -0.0253,0.21516 -0.11047,0.3858 -0.25602,0.51235 -0.14557,0.12025 -0.3135,0.18045 -0.50336,0.18045 -0.27213,0 -0.46503,-0.0822 -0.57894,-0.24669 -0.10759,-0.16455 -0.16147,-0.37341 -0.16147,-0.62655 v -2.44926 c 0,-0.076 0.0126,-0.15511 0.038,-0.23737 0.0253,-0.0886 0.0665,-0.16775 0.1235,-0.23736 0.057,-0.076 0.1328,-0.13583 0.22772,-0.18013 0.0949,-0.0506 0.21199,-0.0759 0.35122,-0.0759 0.1329,0 0.24697,0.0253 0.34191,0.0759 0.0949,0.0507 0.17408,0.11051 0.23737,0.18013 0.0633,0.0696 0.10752,0.14875 0.13282,0.23736 0.0317,0.0823 0.0536,0.1551 0.0663,0.21839 l 1.3007,-0.38917 c -0.0443,-0.21519 -0.12014,-0.42072 -0.22772,-0.6169 -0.10759,-0.20252 -0.24694,-0.37978 -0.4178,-0.53168 -0.17087,-0.15188 -0.37643,-0.27226 -0.61691,-0.36087 -0.24048,-0.0949 -0.51287,-0.14215 -0.81664,-0.14215 z m -51.669612,0.0473 v 6.60705 h 1.376603 v -2.71494 h 1.49979 v 2.71494 h 1.35762 v -6.60705 h -1.35762 v 2.63902 h -1.49979 v -2.63902 z m 6.050295,0 v 6.60705 h 1.37661 v -2.61041 h 0.578942 l 0.882906,2.61041 h 1.490447 l -1.063322,-2.85742 c 0.316424,-0.17087 0.55689,-0.408 0.721435,-0.71179 0.164527,-0.30376 0.247014,-0.66762 0.247014,-1.09163 0,-0.34174 -0.0539,-0.63307 -0.161464,-0.87357 -0.107583,-0.2468 -0.256256,-0.44935 -0.446115,-0.60756 -0.183528,-0.15822 -0.402023,-0.27529 -0.655168,-0.35123 -0.24682,-0.0759 -0.509232,-0.11385 -0.78769,-0.11385 z m 11.599187,0 v 6.60705 h 1.37659 v -3.58818 l 0.0283,-0.01 0.72144,1.39558 1.22479,2.20225 h 1.20549 v -6.60706 h -1.36695 v 3.55988 l -0.0283,0.009 -0.86392,-1.59468 -1.0823,-1.97452 z m 12.08227,0 v 6.60705 h 3.84452 v -1.30037 h -2.46824 v -5.30668 z m 16.78782,0 v 6.60705 h 1.37659 v -6.60705 z m 10.08298,0 -1.90827,6.60705 h 1.45251 c 0.0633,-0.2215 0.12349,-0.44632 0.18044,-0.67415 0.0633,-0.22784 0.12316,-0.45234 0.18012,-0.67383 h 1.56637 l 0.32292,1.34798 h 1.48081 l -1.90794,-6.60705 z m 4.57207,0 v 6.60705 h 3.84452 v -1.30037 h -2.46824 v -5.30668 z m -53.747717,1.25308 h 0.778367 c 0.221489,0 0.401762,0.0539 0.540981,0.16147 0.145562,0.10758 0.218396,0.28786 0.218396,0.541 0,0.2911 -0.07916,0.49665 -0.237367,0.6169 -0.151879,0.1139 -0.338476,0.1711 -0.559971,0.1711 h -0.740406 z m 6.462637,0.0286 c 0.13924,0 0.25298,0.0283 0.34159,0.0852 0.0949,0.0507 0.17076,0.11382 0.22772,0.18977 0.0569,0.076 0.0952,0.15509 0.11417,0.23736 0.0253,0.0823 0.038,0.15511 0.038,0.2184 v 2.61072 c 0,0.22149 -0.0728,0.39544 -0.2184,0.52202 -0.13922,0.12657 -0.30685,0.18975 -0.50305,0.18975 -0.27211,0 -0.46834,-0.0821 -0.58859,-0.24669 -0.1139,-0.16454 -0.1711,-0.3734 -0.1711,-0.62655 v -2.44925 c 0,-0.076 0.0126,-0.15511 0.038,-0.23737 0.0316,-0.0886 0.0762,-0.16775 0.13316,-0.23736 0.0633,-0.076 0.14212,-0.13583 0.23705,-0.18013 0.0949,-0.0506 0.21232,-0.0759 0.35154,-0.0759 z m 12.06298,0 c 0.13922,0 0.25299,0.0283 0.34158,0.0852 0.0949,0.0507 0.17108,0.11382 0.22805,0.18977 0.057,0.076 0.0948,0.15509 0.11385,0.23736 0.0253,0.0823 0.038,0.15511 0.038,0.2184 v 2.61072 c 0,0.22149 -0.0728,0.39544 -0.2184,0.52202 -0.13923,0.12657 -0.30686,0.18975 -0.50304,0.18975 -0.27213,0 -0.46834,-0.0821 -0.58859,-0.24669 -0.11393,-0.16454 -0.17079,-0.3734 -0.17079,-0.62655 v -2.44925 c 0,-0.076 0.0126,-0.15511 0.038,-0.23737 0.0316,-0.0886 0.0759,-0.16775 0.13284,-0.23736 0.0633,-0.076 0.14244,-0.13583 0.23737,-0.18013 0.0949,-0.0506 0.21199,-0.0759 0.35122,-0.0759 z m 10.98774,0 c 0.13924,0 0.25298,0.0283 0.34159,0.0852 0.0949,0.0507 0.17108,0.11382 0.22803,0.18977 0.057,0.076 0.0948,0.15509 0.11386,0.23736 0.0253,0.0823 0.038,0.15511 0.038,0.2184 v 2.61072 c 0,0.22149 -0.0728,0.39544 -0.2184,0.52202 -0.13922,0.12657 -0.30684,0.18975 -0.50304,0.18975 -0.27211,0 -0.46834,-0.0821 -0.58859,-0.24669 -0.11391,-0.16454 -0.17078,-0.3734 -0.17078,-0.62655 v -2.44925 c 0,-0.076 0.0126,-0.15511 0.038,-0.23737 0.0316,-0.0886 0.0759,-0.16775 0.13284,-0.23736 0.0633,-0.076 0.14244,-0.13583 0.23736,-0.18013 0.0949,-0.0506 0.21201,-0.0759 0.35123,-0.0759 z m 20.32647,0.49339 h 0.0476 l 0.26568,1.31967 0.18044,0.93983 h -0.94914 l 0.18976,-0.94949 z m -70.889332,0.011 h 0.62495 v 8.9521 h 83.440872 v 0.64584 H 74.295808 Z m -1.273353,1.3158 h 0.603397 v 8.95211 h 83.383288 v 0.60532 H 73.022455 Z m -4.566918,8.95212 h 3.899196 v 1.27271 h 36.499307 v 12.24727 H 68.455537 Z m -1.313237,1.3171 h 0.643262 V 163.9786 H 107.5408 v 0.64585 H 67.1423 Z m -1.273358,1.35762 h 0.603377 v 12.83105 h 39.715991 v 0.60532 H 65.868942 Z m 11.243763,0.72948 c -0.38604,0 -0.715292,0.0665 -0.987426,0.19941 -0.265804,0.12657 -0.483969,0.2912 -0.654857,0.49372 -0.170868,0.20251 -0.29426,0.43034 -0.370194,0.68348 -0.07595,0.24682 -0.113862,0.49359 -0.113862,0.74041 v 2.35405 c 0,0.29744 0.0379,0.58213 0.113862,0.85427 0.08227,0.27213 0.208662,0.5129 0.37953,0.72175 0.170869,0.20252 0.389364,0.36382 0.655175,0.48407 0.272127,0.12023 0.598056,0.18044 0.977772,0.18044 0.310107,0 0.591789,-0.0476 0.844946,-0.1425 0.259468,-0.10126 0.480975,-0.24361 0.664491,-0.42712 0.189858,-0.18986 0.335196,-0.41468 0.436461,-0.67416 0.107583,-0.26579 0.161471,-0.56313 0.161471,-0.89221 v -2.45859 c 0,-0.25948 -0.04425,-0.51591 -0.132846,-0.76905 -0.08226,-0.25309 -0.208979,-0.47763 -0.379848,-0.67381 -0.170868,-0.20252 -0.389052,-0.36415 -0.654856,-0.4844 -0.265792,-0.12657 -0.579092,-0.18976 -0.939819,-0.18976 z m 3.779228,0.0476 v 6.60673 h 1.376274 v -2.61041 h 0.578961 l 0.882887,2.61041 h 1.490466 l -1.063341,-2.8571 c 0.31643,-0.17087 0.55689,-0.40834 0.721435,-0.7121 0.164552,-0.30378 0.24702,-0.66762 0.24702,-1.09164 0,-0.34175 -0.0539,-0.63275 -0.16147,-0.87325 -0.107583,-0.2468 -0.256288,-0.44936 -0.446096,-0.60756 -0.183529,-0.15823 -0.402043,-0.27529 -0.655187,-0.35123 -0.246802,-0.0759 -0.509214,-0.11385 -0.787684,-0.11385 z m 5.873726,0 v 6.60673 h 2.060091 c 0.215165,0 0.420701,-0.019 0.616883,-0.057 0.202518,-0.038 0.389097,-0.0978 0.559972,-0.18011 0.170868,-0.0886 0.319866,-0.20568 0.446438,-0.35125 0.132896,-0.14553 0.240329,-0.32914 0.322605,-0.55063 0.107601,-0.28478 0.164483,-0.62668 0.170787,-1.02538 0.0063,-0.40503 0.0096,-0.89526 0.0096,-1.47117 0,-0.3987 -0.0096,-0.75954 -0.02863,-1.08229 -0.01264,-0.3291 -0.0632,-0.60447 -0.151798,-0.82597 -0.145556,-0.3797 -0.376387,-0.65177 -0.692824,-0.81631 -0.310082,-0.16455 -0.686904,-0.24669 -1.129894,-0.24669 z m 5.911032,0 v 6.60673 h 3.844519 v -1.30039 h -2.467909 v -1.40489 h 2.126333 v -1.26243 h -2.126333 v -1.36728 h 2.467909 v -1.27174 z m 5.317943,0 v 6.60673 h 1.37628 v -2.61041 h 0.578942 l 0.882904,2.61041 h 1.49045 l -1.06333,-2.8571 c 0.31643,-0.17087 0.55721,-0.40834 0.72176,-0.7121 0.16454,-0.30378 0.2467,-0.66762 0.2467,-1.09164 0,-0.34175 -0.0539,-0.63275 -0.16147,-0.87325 -0.10758,-0.2468 -0.25625,-0.44936 -0.44611,-0.60756 -0.18354,-0.15823 -0.40172,-0.27529 -0.65484,-0.35123 -0.24682,-0.0759 -0.50956,-0.11385 -0.78802,-0.11385 z m -15.726427,1.25277 h 0.778367 c 0.221495,0 0.402098,0.0539 0.541317,0.16147 0.145556,0.10758 0.218066,0.28816 0.218066,0.54131 0,0.29111 -0.07883,0.49664 -0.237037,0.61689 -0.151904,0.11391 -0.338793,0.17079 -0.560307,0.17079 h -0.740406 z m 17.102707,0 h 0.778366 c 0.22149,0 0.40207,0.0539 0.54131,0.16147 0.14556,0.10758 0.21807,0.28816 0.21807,0.54131 0,0.29111 -0.0788,0.49664 -0.23706,0.61689 -0.15188,0.11391 -0.33877,0.17079 -0.56028,0.17079 h -0.740406 z m -22.258209,0.0286 c 0.139238,0 0.25297,0.0286 0.341576,0.0855 0.09494,0.0507 0.17108,0.11382 0.228043,0.18977 0.05695,0.0759 0.09485,0.15509 0.113862,0.23736 0.02533,0.0823 0.03797,0.15511 0.03797,0.2184 v 2.61039 c 0,0.22151 -0.07283,0.39544 -0.218396,0.52203 -0.139231,0.12657 -0.306857,0.19007 -0.503039,0.19007 -0.272128,0 -0.468347,-0.0825 -0.58859,-0.24702 -0.113912,-0.16447 -0.170787,-0.37338 -0.170787,-0.62653 v -2.44894 c 0,-0.076 0.01263,-0.15509 0.03797,-0.23737 0.03162,-0.0886 0.07588,-0.16775 0.132846,-0.23736 0.06329,-0.076 0.142425,-0.13614 0.237367,-0.18044 0.09492,-0.0507 0.211984,-0.0759 0.351223,-0.0759 z m 11.019916,0 h 0.569619 c 0.196181,0 0.35116,0.0412 0.465085,0.1235 0.12023,0.0759 0.209022,0.18337 0.265985,0.3226 0.0633,0.1329 0.104228,0.2879 0.123199,0.46509 0.01898,0.17721 0.02863,0.36079 0.02863,0.55065 v 1.59498 c 0,0.31011 -0.06019,0.55357 -0.180435,0.73076 -0.113925,0.17721 -0.344737,0.26601 -0.692817,0.26599 h -0.579253 z" />
  </g>
</svg>
