<?xml version="1.0" encoding="UTF-8" standalone="no"?>
<svg
   xmlns:dc="http://purl.org/dc/elements/1.1/"
   xmlns:cc="http://creativecommons.org/ns#"
   xmlns:rdf="http://www.w3.org/1999/02/22-rdf-syntax-ns#"
   xmlns:svg="http://www.w3.org/2000/svg"
   xmlns="http://www.w3.org/2000/svg"
   xmlns:sodipodi="http://sodipodi.sourceforge.net/DTD/sodipodi-0.dtd"
   xmlns:inkscape="http://www.inkscape.org/namespaces/inkscape"
   inkscape:version="1.0 (4035a4fb49, 2020-05-01)"
   sodipodi:docname="christmas.svg"
   id="svg2217"
   version="1.1"
   viewBox="0 0 106.22909 11.024396"
   height="11.024396mm"
   width="106.22909mm">
  <defs
     id="defs2211" />
  <sodipodi:namedview
     fit-margin-bottom="0"
     fit-margin-right="0"
     fit-margin-left="0"
     fit-margin-top="0"
     inkscape:window-maximized="0"
     inkscape:window-y="72"
     inkscape:window-x="1843"
     inkscape:window-height="1032"
     inkscape:window-width="1274"
     showgrid="false"
     inkscape:document-rotation="0"
     inkscape:current-layer="text875-9"
     inkscape:document-units="mm"
     inkscape:cy="-40.743709"
     inkscape:cx="163.36913"
     inkscape:zoom="0.49497475"
     inkscape:pageshadow="2"
     inkscape:pageopacity="0.0"
     borderopacity="1.0"
     bordercolor="#666666"
     pagecolor="#ffffff"
     id="base" />
  <metadata
     id="metadata2214">
    <rdf:RDF>
      <cc:Work
         rdf:about="">
        <dc:format>image/svg+xml</dc:format>
        <dc:type
           rdf:resource="http://purl.org/dc/dcmitype/StillImage" />
        <dc:title></dc:title>
      </cc:Work>
    </rdf:RDF>
  </metadata>
  <g
     transform="translate(-36.153479,-98.722917)"
     id="layer1"
     inkscape:groupmode="layer"
     inkscape:label="Layer 1">
    <g
       style="opacity:1"
       id="g1825"
       transform="matrix(0.62567111,0,0,0.62567111,-266.53652,-92.843935)">
      <g
         style="font-size:15.2816px;line-height:1.25;font-family:lego;-inkscape-font-specification:lego;letter-spacing:1.06892px;word-spacing:0.1905px;opacity:1;fill:#000000;stroke-width:0.382042"
         id="text875-9"
         aria-label="A SHORT SERIES OF DISAGREEMENTS">
        <g
           style="opacity:1"
           transform="matrix(0.94346548,0,0,0.94346548,472.72384,-41.27924)"
           id="g1921">
          <g
             id="g1940">
            <g
               style="fill:#000000"
               transform="rotate(5.6019884,103.15359,386.89566)"
               id="g1894">
              <path
                 id="path1868"
                 style="opacity:1;fill:#000000;stroke-width:0.264583"
                 d="m 137.60563,367.67457 c -0.22217,-0.003 -0.46683,0.0422 -0.73123,0.13435 -0.44297,0.15436 -0.91352,0.21411 -1.04592,0.1323 -0.13245,-0.0818 -0.20847,0.003 -0.16847,0.18965 0.04,0.18611 -0.093,0.34338 -0.29559,0.35036 -0.20259,0.007 -0.6085,0.33364 -0.90227,0.7271 -0.41376,0.5542 -0.46558,0.79804 -0.22944,1.0826 0.16772,0.20201 0.24195,0.43037 0.16485,0.50747 -0.16855,0.16854 1.35362,9.21144 1.77198,10.527 0.16198,0.50935 0.4018,1.1344 0.5333,1.38906 0.25167,0.48745 0.88577,0.62074 1.12345,0.23617 0.0771,-0.1248 0.0183,-0.63082 -0.13126,-1.12448 -0.14944,-0.49366 -0.3243,-1.26997 -0.38809,-1.72495 l -0.11576,-0.82735 1.13068,0.12763 c 1.8673,0.21045 2.8413,-0.37483 3.76308,-2.26187 0.43535,-0.89124 0.86141,-1.62382 0.94671,-1.62779 0.0853,-0.004 0.62109,0.57541 1.19063,1.28778 1.14218,1.42859 1.85054,1.97985 2.23707,1.74096 0.47453,-0.29329 0.25584,-1.35115 -0.39636,-1.91823 -0.35743,-0.31078 -0.9825,-1.07622 -1.38906,-1.70119 -1.66574,-2.56069 -2.43452,-2.66177 -3.26957,-0.42889 -0.67504,1.80498 -2.01897,3.39357 -2.87114,3.39357 -0.78044,0 -1.54997,-0.86664 -1.75907,-1.98128 -0.20106,-1.07172 0.27957,-2.58204 1.53583,-4.82656 0.59241,-1.05873 0.73309,-1.57175 0.59841,-2.1849 -0.17393,-0.7919 -0.63628,-1.21293 -1.30276,-1.21851 z m -0.57258,1.43349 c 0.0594,0 0.10114,0.0246 0.11886,0.0765 0.0527,0.15457 -0.1746,0.80631 -0.50488,1.44848 -0.33025,0.64215 -0.6174,1.16737 -0.6382,1.16737 -0.21915,0 -0.67283,-0.73565 -0.67283,-1.0914 0,-0.46818 1.28163,-1.60285 1.69705,-1.60042 z" />
              <path
                 style="opacity:1;fill:#000000;stroke-width:0.264583"
                 d="m 128.68156,368.61169 c -0.15814,0.0159 -0.29218,0.14576 -0.38912,0.39844 -0.0812,0.21153 0.10686,1.0641 0.41753,1.89444 0.31068,0.83034 0.50512,1.66526 0.43202,1.85571 -0.0731,0.19045 -0.53539,0.51482 -1.02733,0.72035 -1.57358,0.65749 -1.9499,0.72869 -1.9699,0.37415 -0.0444,-0.78782 -0.60992,-3.16923 -0.86662,-3.64887 -0.27498,-0.51379 -1.16845,-0.71562 -1.41335,-0.31935 -0.0689,0.11144 0.0433,0.85196 0.24908,1.64536 0.43323,1.67016 0.4949,4.13161 0.10954,4.36976 -0.38619,0.23865 -0.3234,1.34165 0.0961,1.68984 0.19841,0.16465 0.43754,0.9512 0.53123,1.74821 0.19116,1.62649 0.81185,3.66196 1.39785,4.58213 v 0 c 0.21426,0.33647 0.53067,0.56338 0.70331,0.50438 0.40262,-0.13761 0.33412,-1.45648 -0.18809,-3.62977 -0.2273,-0.94589 -0.41558,-2.2978 -0.4186,-3.00445 -0.004,-1.07551 0.1075,-1.37425 0.68938,-1.83195 0.94972,-0.74702 2.45964,-1.49614 2.59003,-1.28519 0.0587,0.0951 0.29154,1.06471 0.51726,2.1549 0.54311,2.62303 0.93766,3.7021 1.35445,3.7021 0.58778,0 0.60775,-0.57081 0.12454,-3.57187 -0.2577,-1.60068 -0.37989,-2.9699 -0.27183,-3.04271 0.10808,-0.0728 0.26752,-0.41354 0.35452,-0.75705 0.12035,-0.47548 0.0343,-0.65675 -0.36124,-0.76015 -0.15124,-0.0396 -0.3638,-0.0801 -0.42889,-0.15298 -0.60148,-1.15536 -0.41926,-0.74983 -0.96687,-2.16368 -0.45212,-0.98751 -0.91768,-1.50641 -1.26555,-1.47175 z"
                 id="path1874" />
              <path
                 style="opacity:1;fill:#000000;stroke-width:0.264583"
                 d="m 150.62647,368.52589 c -0.0986,0 -0.20651,0.009 -0.32247,0.0315 -1.08887,0.20815 -1.7203,1.13231 -1.772,2.59416 -0.0632,1.78681 0.47625,2.7065 2.5368,4.32583 0.54139,0.42545 1.02568,0.8354 1.34152,1.12914 0.39814,0.37177 0.45296,0.61904 -0.0326,1.11569 -0.30371,0.3061 -0.7575,0.63313 -1.30019,0.92398 -1.1735,0.62897 -2.77476,0.73274 -3.58272,0.23202 -0.43984,-0.27266 -0.5779,-0.26096 -0.786,0.0661 -0.38438,0.60428 -0.31342,0.98845 0.28578,1.54667 0.88495,0.82447 3.21887,0.61241 5.09942,-0.46352 1.54138,-0.88189 2.02725,-1.4496 2.02725,-2.36678 0.0876,-0.66744 0.16233,-1.1956 -0.92603,-2.20348 -0.12197,-0.096 -0.21913,-0.2015 -0.32864,-0.30231 -0.58438,-0.61508 -1.38964,-1.09323 -1.85002,-1.5684 -1.37242,-1.42637 -1.37879,-2.6893 -0.0206,-3.99147 0.55843,-0.53541 0.32027,-1.06418 -0.36947,-1.06919 z"
                 id="path1872" />
              <path
                 id="path1858"
                 style="opacity:1;fill:#000000;stroke-width:0.264583"
                 d="m 175.88029,365.28557 c -0.21812,0.005 -0.2195,0.0448 -0.2036,0.17155 0,0 0.0548,0.54552 0.004,1.05368 -0.0511,0.50821 -0.17496,2.05507 -0.27543,3.43752 -0.11072,1.52318 -0.0573,2.3804 -0.30851,2.86287 -0.14102,0.2708 -0.75913,0.57931 -0.75913,0.57931 -0.72277,0.64997 -0.84557,1.07823 -0.72347,1.54511 0.12502,0.478 0.30177,0.58933 0.7891,0.49609 0.50496,-0.0965 0.59389,-0.95311 0.79323,0.57156 0.0507,0.38777 0.21528,0.78123 0.27647,0.89037 0.0612,0.10914 0.2828,0.19844 0.49248,0.19844 0.37365,0 0.49382,-0.43707 0.39016,-1.41801 -0.11933,-1.12929 0.27184,-1.75101 1.43402,-2.28047 0.64392,-0.29334 1.62677,-0.92863 1.62677,-0.92863 0,0 0.30136,0.25241 0.63045,0.88937 0.32377,0.60788 1.2e-4,-6e-5 0.89917,1.29034 0.26739,0.54573 0.57522,1.17078 0.6842,1.38907 0.10898,0.21828 0.42347,0.39687 0.69867,0.39687 0.78647,0 0.54258,-1.26939 -0.56379,-2.93624 l -0.95912,-1.44539 0.59273,-0.48009 c 0.78928,-0.6391 0.51856,-1.48357 -0.40153,-1.25264 -0.57197,0.14356 -0.7444,-0.0406 -1.70532,-1.82211 -1.40472,-2.60424 -1.95356,-3.16904 -3.11299,-3.20445 -0.12817,-0.004 -0.22494,-0.006 -0.29765,-0.004 z m 1.26608,2.54711 c 0.3614,0.075 1.03828,1.25516 1.43918,2.58385 0.15352,0.50866 0.0376,0.66061 -0.75602,0.99218 -0.51539,0.21535 -1.01588,0.39169 -1.11208,0.39169 -0.17026,0 0.11092,-3.74467 0.29507,-3.92946 0.037,-0.0372 0.0822,-0.0489 0.13385,-0.0383 z" />
              <path
                 style="opacity:1;fill:#000000;stroke-width:0.264583"
                 d="m 162.29912,367.59158 c -0.14122,-0.0167 -0.29063,0.0452 -0.50539,0.17933 -2.95225,1.32734 -6.18841,2.80408 -8.58085,4.4726 -0.68181,0.49525 -1.09675,1.28437 -0.98393,1.87222 0.0435,0.18211 0.24098,0.37478 0.46251,0.4 0.17008,0.0406 0.87339,-0.37002 1.7487,-1.01442 0.87535,-0.64439 1.79286,-1.17152 2.03865,-1.17152 0.3485,0 0.61184,0.6554 1.19734,2.97656 0.8044,3.18895 1.32433,4.16656 1.90429,3.58016 0.27081,-0.27384 0.18984,-0.92374 -0.42325,-3.38172 -0.41741,-1.67349 -0.83185,-3.22715 -0.92086,-3.45249 -0.11895,-0.30123 0.51601,-0.84926 2.39779,-2.06913 2.38524,-1.54625 2.52974,-1.68912 2.12028,-2.09856 -0.18102,-0.18103 -0.31406,-0.27628 -0.45528,-0.29303 z"
                 id="path1866" />
              <path
                 style="opacity:1;fill:#000000;stroke-width:0.264583"
                 d="m 170.60611,367.56728 c -0.47983,0 -0.80199,0.84884 -1.10432,2.91042 -0.13873,0.94588 -0.38011,2.05007 -0.53639,2.45411 l -0.28424,0.73486 -1.3565,-0.93277 c -0.883,-0.6074 -1.66288,-0.93329 -2.23398,-0.93329 -0.86201,0 -0.87979,0.0241 -1.03405,1.38907 -0.0863,0.76398 -0.10836,1.74625 -0.0491,2.18281 0.0592,0.43656 0.12136,1.12117 0.13798,1.52135 0.0294,0.70996 0.41032,0.91652 0.9684,0.52504 0.15243,-0.10692 0.28451,-0.67056 0.2925,-1.25264 0.0484,-3.33449 0.077,-3.35225 2.3151,-1.43658 1.36173,1.16554 1.61079,1.28775 1.94406,0.95445 0.36822,-0.36822 1.1726,-3.38478 1.22938,-4.6111 0.0303,-0.65363 0.42426,-0.83791 0.42426,-0.19844 0,0.22892 0.23942,0.39688 0.56536,0.39688 0.52102,0 0.55171,-0.0969 0.39481,-1.24177 -0.1719,-1.25394 -0.99303,-2.4624 -1.6733,-2.4624 z"
                 id="path1864" />
              <path
                 style="opacity:1;fill:#000000;stroke-width:0.264583"
                 d="m 142.51792,367.44586 c -0.85572,0.006 -1.17774,0.44802 -0.80926,1.25677 0.38217,0.83873 0.69993,0.88331 1.8061,0.25371 0.83841,-0.47717 1.06797,-1.0636 0.48625,-1.2428 -0.59475,-0.18322 -1.09413,-0.27059 -1.48309,-0.26768 z"
                 id="path1862" />
              <path
                 style="opacity:1;fill:#000000;stroke-width:0.264583"
                 d="m 120.27688,366.50895 c -0.49953,0.0847 -0.95887,0.0628 -1.93476,0.74623 -3.60368,2.56982 -6.57889,6.2952 -8.59843,10.23397 -0.16066,0.43657 -0.35976,1.18566 -0.44236,1.66452 -0.31919,1.85092 1.69177,3.86054 4.53306,4.52994 1.48161,0.34906 2.64146,0.32194 4.70048,-0.10954 2.67247,-0.56004 3.80502,-1.20965 4.53771,-2.60295 0.21735,-0.41333 0.33088,-0.91934 0.2522,-1.12447 -0.17756,-0.46266 -0.85487,-0.487 -1.13895,-0.0408 -0.79645,1.25079 -4.04509,2.56349 -6.36964,2.57399 -1.09005,0.005 -3.67273,-0.88995 -4.35787,-1.50997 -0.41513,-0.37566 -0.48797,-0.68837 -0.36692,-1.57149 0.59938,-3.65771 5.74926,-8.77922 8.54728,-10.81898 1.09098,-0.70106 1.34001,-0.98983 1.22629,-1.42472 -0.0785,-0.30004 -0.34311,-0.54571 -0.58809,-0.54571 z"
                 id="path1860" />
              <path
                 style="opacity:1;fill:#000000;stroke-width:0.264583"
                 d="m 187.16223,362.86061 c -0.51107,0.0124 -1.18325,0.36271 -1.94668,1.03301 -1.02261,0.89786 -1.43856,1.99819 -1.28156,3.39151 0.14682,1.30315 0.83259,2.27528 3.24631,4.60179 1.17194,1.12959 2.13061,2.24883 2.13061,2.48772 0,0.88209 -1.0785,1.65931 -2.3032,1.65931 -0.78497,0 -1.20182,0.12745 -1.30638,0.39999 -0.21373,0.55692 0.33864,1.13946 1.18131,1.24487 v 0 c 1.04286,0.12575 2.30378,0.13615 3.20135,-0.74258 0.71287,-0.59986 0.81389,-0.85238 0.81389,-2.03295 0,-2.1132 -0.80494,-2.09209 -2.38072,-3.65972 -1.45722,-1.42015 -2.53151,-2.41319 -3.07216,-3.33158 -0.29522,-0.44963 -0.18687,-1.40671 0.0636,-2.05931 0.0918,-0.23913 0.74473,-0.82399 1.45108,-1.29966 1.15232,-0.77602 1.24823,-0.91424 0.93277,-1.34567 -0.17537,-0.23981 -0.42408,-0.35414 -0.7307,-0.34673 z"
                 id="path1856" />
            </g>
            <g
               style="fill:#000000"
               id="g1898">
              <path
                 id="path1847"
                 style="opacity:1;fill:#000000;stroke-width:0.999999"
                 d="m 209.93359,1407.1016 c -0.3685,2e-4 -0.72652,0.012 -1.07031,0.027 -4.07369,0.2192 -5.48344,0.809 -7.60742,3.1836 -1.4338,1.603 -3.79632,3.2134 -5.25,3.5781 -1.99121,0.4998 -2.64258,1.2917 -2.64258,3.209 0,2.2499 0.36094,2.5079 3.1211,2.2305 4.732,-0.4759 5.44558,1.6196 2.8789,8.4687 -3.73992,9.98 -11.66571,18.5931 -15.8789,17.2559 -4.09221,-1.2988 -2.33681,-9.7859 4.45507,-21.5391 0.79461,-1.375 1.3265,-3.85 1.1836,-5.5 -0.25474,-2.9384 -0.36245,-2.9945 -5.25977,-2.7383 -2.74991,0.1437 -6.57501,0.7941 -8.5,1.4454 -1.92491,0.6511 -3.95,1.2703 -4.5,1.375 -0.54988,0.1046 -3.55825,1.3669 -6.68555,2.8046 -3.12729,1.4378 -5.9678,2.6133 -6.3125,2.6133 -1.2037,0 -13.52172,6.223 -14.06835,7.1074 -0.30312,0.4904 -1.36294,0.8926 -2.35352,0.8926 -2.64333,0 -14.49886,-8.2225 -14.90625,-10.3379 -0.46553,-2.4172 1.86009,-4.8248 7.26758,-7.5254 3.21331,-1.6049 4.29228,-2.6669 3.85937,-3.7949 -1.0981,-2.8616 -8.00579,-1.0365 -12.42968,3.2832 -3.10901,3.0359 -3.8711,4.5055 -3.8711,7.459 0,3.9989 1.1839,5.1812 13.25,13.2402 3.1626,2.1122 5.75,4.4783 5.75,5.2579 0,2.5822 -7.84261,9.3131 -15.125,12.9804 -6.19752,3.1212 -7.48296,3.4501 -9.42969,2.4082 -1.23979,-0.6635 -2.74722,-0.9015 -3.34961,-0.5293 -1.86682,1.1537 -1.20991,5.3651 1.0879,6.9746 3.29208,2.3059 9.36414,0.5339 17.02343,-4.9687 2.63902,-1.8959 5.2108,-3.4473 5.7168,-3.4473 0.50593,0 2.73313,-2.1222 4.94922,-4.7148 3.70458,-4.3341 3.98345,-5.0594 3.44336,-9 -0.52732,-3.8468 -0.37753,-4.2852 1.46484,-4.2852 1.12891,0 2.20146,-0.3895 2.38477,-0.8652 0.43086,-1.1181 12.60609,-7.1348 14.4375,-7.1348 0.98638,0 1.42579,1.3971 1.49609,4.75 0.27742,13.2585 2.57979,20.452 6.74219,21.0684 2.63078,0.3896 2.82254,-1.6331 0.56836,-5.9922 -1.93641,-3.7446 -3.73462,-20.894 -2.33789,-22.2949 1.22328,-1.227 8.72605,-3.4968 11.62695,-3.5157 2.16979,-0.015 2.15721,0.066 -0.88281,6.1934 -2.03188,4.0952 -3.24703,8.2775 -3.56836,12.2813 -0.44217,5.5085 -0.23622,6.3708 2.2207,9.291 2.16083,2.5679 3.46439,3.2187 6.44727,3.2187 3.24472,0 4.46925,-0.7594 9.25976,-5.75 6.21937,-6.4788 8.40891,-10.2119 10.32422,-17.5957 1.12468,-4.3359 1.10367,-5.7521 -0.13476,-9.4004 -1.51072,-4.4496 -1.19995,-6.2539 1.07812,-6.2539 3.6398,0 5.23233,9.4891 3.14063,18.7207 -0.489,2.1585 -0.24349,4.1387 0.74414,6 0.81078,1.5281 2.26076,5.5797 3.22265,9.002 0.96193,3.4223 2.59967,7.1348 3.63867,8.25 2.58392,2.7737 6.63642,2.6566 7.72461,-0.2227 1.0842,-2.8687 0.41503,-3.9888 -1.9375,-3.2422 -3.16728,0.7798 -4.70138,-5.5077 -4.97656,-7.9824 0,-1.2024 0.5087,-1.2773 2.75,-0.4043 1.51249,0.5892 5.19017,1.7161 8.17188,2.5059 4.38391,1.1613 5.57658,1.191 6.23437,0.1543 0.44738,-0.7051 0.82064,-1.6075 0.82813,-2.0059 0.0189,-0.8817 -5.41379,-3.7754 -7.08789,-3.7754 -1.6181,0 -11.64235,-4.7792 -12.31836,-5.873 -0.66897,-1.0825 1.69637,-3.7304 7.04297,-7.8867 6.41218,-4.9847 6.66667,-12.4219 0.51953,-15.2227 -1.45187,-0.6615 -2.74565,-1.1807 -2.87305,-1.1543 -0.12737,0.027 -1.70249,-0.5279 -3.5,-1.2344 -1.57281,-0.6178 -4.61826,-1.0448 -7.19727,-1.0429 z m 0.62305,4.8203 c 0.23471,-0.015 0.58685,0.052 1.05664,0.1426 6.56183,1.2636 11.75,3.4695 11.75,4.996 0,0.716 -1.38384,2.6865 -3.07617,4.379 -2.88347,2.8833 -5.82689,4.0242 -6,2.3261 -0.26306,-2.5778 -0.98647,-4.7985 -2.67188,-8.2051 -1.41097,-2.8516 -1.76321,-3.5974 -1.05859,-3.6386 z"
                 transform="scale(0.26458333)" />
              <path
                 style="opacity:1;fill:#000000;stroke-width:0.264583"
                 d="m 69.364151,371.86742 c -0.35525,-0.0397 -0.741042,0.49819 -0.741042,1.30535 0,0.5751 -0.70988,2.94288 -1.031449,3.44011 -0.197411,0.30525 -0.46699,0.24059 -1.522389,-0.36483 -0.70535,-0.40463 -1.71577,-1.14824 -2.245331,-1.65261 -1.047379,-0.99759 -2.007081,-1.09826 -1.866561,-0.19588 0.0976,0.62683 0.922872,1.35613 3.289721,2.90785 1.608831,1.05479 1.75977,1.22868 1.54255,1.77197 -0.893869,2.23563 -1.478939,5.36025 -1.15964,6.19239 0.0821,0.21394 0.33015,0.35306 0.550889,0.30956 0.273391,-0.0539 0.642702,-1.04103 1.159081,-3.09697 0.416941,-1.65995 0.884061,-3.17013 1.038199,-3.35587 0.154152,-0.18574 0.334701,-0.77568 0.40101,-1.31051 0.0663,-0.53485 0.22669,-1.1707 0.35655,-1.41335 0.37102,-0.69321 0.838441,-3.6177 0.654762,-4.09641 -0.109641,-0.28573 -0.264851,-0.42275 -0.42635,-0.4408 z"
                 id="path1845" />
            </g>
            <g
               style="fill:#000000"
               transform="translate(0,1.5875)"
               id="g1902">
              <path
                 id="path1843"
                 style="opacity:1;fill:#000000;stroke-width:0.264583"
                 d="m 85.316459,369.80717 c -0.24656,0.0159 -0.612304,0.12983 -1.158584,0.40153 -2.24341,0.9865 -5.108834,1.97282 -7.184575,3.78892 -0.623991,0.61539 -1.040458,2.2629 -0.572058,2.2629 0.1353,0 0.603557,-0.38227 1.040246,-0.84955 0.88347,-0.94531 0.872734,-0.95592 1.331704,1.32551 0.386715,1.92212 0.35679,2.34479 -0.180869,2.54764 -1.544051,0.58251 -2.195656,1.30231 -1.661915,1.83605 0.18817,0.1882 0.561174,0.16965 1.197343,-0.0605 1.04783,-0.37889 1.338421,-0.43667 1.338421,-0.43667 0.02461,0.9434 0.412131,1.39866 0.664041,2.24689 0.0936,0.49874 0.409744,1.08358 0.587044,1.15549 0.93385,0.37854 0.993876,0.0877 0.408245,-1.98181 -0.28842,-1.01915 -0.469128,-1.99742 -0.401527,-2.1735 0.0675,-0.17605 0.611106,-0.55409 1.208196,-0.84026 1.037111,-0.50223 2.140445,-1.19195 3.327445,-1.74305 0.643199,-0.59529 0.869966,-0.22672 0.629936,1.02423 -0.13258,0.69122 -0.173135,1.6347 -0.08992,2.09653 0.179647,0.99777 1.731603,2.46753 2.605524,2.46753 1.25947,0 4.6731,-2.16069 4.6731,-2.95796 0,-0.15997 0.168447,-0.42339 0.374137,-0.58497 0.526811,-0.41381 0.736645,-2.3808 0.336415,-3.15227 -0.766792,-1.47799 -1.738223,-1.9468 -3.885552,-1.87481 -1.59094,0.0533 -3.887073,0.65418 -4.22248,1.10485 -0.0787,0.10572 -0.917049,0.5938 -1.862937,1.08468 -0.94588,0.49088 -2.057156,1.06947 -2.469615,1.28572 -0.412512,0.21629 -0.840812,0.29022 -0.951881,0.16433 -0.216641,-0.24564 -0.928193,-4.06659 -0.772562,-4.14859 0.0513,-0.027 0.450207,-0.26336 0.886767,-0.52504 0.43657,-0.26164 1.121193,-0.60068 1.521354,-0.75345 0.9725,-0.381 2.888707,-1.4314 3.849378,-2.02261 -0.0549,-0.28231 -0.02219,-0.72273 -0.564825,-0.68781 z m 4.743897,5.96035 c 0.688002,-0.009 1.370029,0.0547 1.787488,0.21344 1.383853,0.52615 1.049936,2.09963 -0.787548,3.71295 -0.542549,0.47638 -1.377894,1.02981 -1.856735,1.22989 -1.16509,0.48681 -1.340355,0.46418 -1.788004,-0.23151 -0.30681,-0.47681 -0.329305,-0.88498 -0.114204,-2.05052 0.147698,-0.80037 0.313893,-1.60507 0.369485,-1.78851 0.0556,-0.18343 0.09802,-0.42158 0.09302,-0.52916 -0.01378,-0.32184 1.14985,-0.541 2.296501,-0.55658 z" />
              <path
                 style="opacity:1;fill:#000000;stroke-width:0.264583"
                 d="m 98.766707,368.37905 c -1.85777,-0.0243 -3.31388,0.40103 -4.18991,1.2237 -1.02706,0.96451 -1.21216,1.3907 -0.92967,2.13993 l 0.24186,0.64129 0.71882,-0.82632 c 1.37138,-1.57551 2.70287,-1.96998 5.478723,-1.62417 0.7506,0.0935 1.22069,0.65156 1.0227,1.21439 -0.17016,0.48363 -3.244433,3.50726 -3.578103,3.51917 -0.0976,0.003 -0.25601,-0.351 -0.35192,-0.78756 -0.11914,-0.54253 -0.33358,-0.79375 -0.67746,-0.79375 -0.58304,0 -0.81312,0.70538 -0.7338,2.24896 0.0159,0.30659 0.0417,0.52863 0.0175,0.95345 -0.0217,0.38171 -0.0903,0.96567 -0.13488,1.26865 -0.13208,0.89662 -0.0607,1.32178 0.30954,1.85208 0.26434,0.37854 0.55723,1.00679 0.65113,1.39578 0.0939,0.38897 0.47898,1.07358 0.85575,1.52136 0.37679,0.44778 0.84018,0.81388 1.02941,0.81388 0.58994,0 1.48294,-0.89754 1.530643,-1.53839 0.0431,-0.57878 0.11761,-0.60222 1.36634,-0.43048 1.39287,0.19156 2.2611,0.56013 2.61223,1.10898 0.28543,0.44611 0.96171,0.41915 1.13998,-0.0455 0.40233,-1.04844 -0.93382,-2.01983 -3.46853,-2.52233 -2.140773,-0.42442 -3.636323,-0.8496 -4.029713,-1.14567 -0.89881,-0.67646 0.28713,-2.36718 3.558973,-5.07413 1.13294,-0.93734 1.54741,-2.38646 0.94567,-3.30676 -0.93287,-1.42669 -1.60142,-1.78332 -3.385343,-1.8066 z"
                 id="path1841" />
            </g>
            <path
               d="m 17.617676,369.00494 c -0.26964,-0.003 -0.51263,0.16174 -0.51263,0.49713 0,0.27432 0.16737,0.89699 0.37207,1.3839 0.413499,0.98338 0.539509,0.68252 -2.7373,6.53862 -0.7596,1.3575 -1.505707,2.84573 -1.658297,3.30729 -0.42169,1.24442 -0.803807,1.31305 -1.358056,2.85718 0.0722,0.90808 0.250716,1.81624 0.579808,1.81023 0.442169,-0.008 1.374333,-1.07844 1.462444,-1.67846 0.0559,-0.38108 0.345245,-1.06125 0.864548,-1.41439 0.669208,-0.39425 4.711903,-1.25227 5.593971,-1.03973 0.284062,0.37595 1.114145,2.17231 1.114145,2.41123 0,0.24207 1.275395,2.91661 1.496033,3.13727 0.520412,0.52038 1.168046,-0.53216 0.846977,-1.37666 -0.461878,-1.24833 -0.900822,-2.12037 -1.667082,-4.52839 -0.189949,-0.21855 -0.498152,-1.05225 -0.685231,-1.85261 -0.187121,-0.80037 -0.618696,-2.56953 -0.959115,-3.93155 -0.73625,-2.94574 -0.761494,-3.32373 -0.208253,-3.11142 0.573556,0.2201 0.22347,-0.28922 -0.840261,-1.2232 -0.477578,-0.41931 -0.941435,-0.99327 -1.030944,-1.27537 -0.106841,-0.33666 -0.403167,-0.50787 -0.672827,-0.51107 z m 1.061434,5.41414 c 0.19095,0.11801 0.423095,1.03976 1.205095,4.78007 0.101309,0.48459 -0.0913,0.57047 -1.930633,0.8599 -2.656369,0.41796 -2.675707,0.41627 -2.512507,-0.20775 0.325009,-1.17782 2.639425,-4.12592 3.238045,-5.43222 z"
               style="opacity:1;fill:#000000;stroke-width:0.264583"
               id="path857-0" />
          </g>
        </g>
      </g>
    </g>
  </g>
</svg>
