<?xml version="1.0" encoding="UTF-8" standalone="no"?>
<svg
   inkscape:version="1.0 (4035a4fb49, 2020-05-01)"
   id="svg2265"
   version="1.1"
   viewBox="0 0 374.70341 17.98719"
   height="17.98719mm"
   width="374.7034mm"
   sodipodi:docname="a-short-series-of-disagreements-presented-here-in-chronological-order.svg"
   xmlns:inkscape="http://www.inkscape.org/namespaces/inkscape"
   xmlns:sodipodi="http://sodipodi.sourceforge.net/DTD/sodipodi-0.dtd"
   xmlns="http://www.w3.org/2000/svg"
   xmlns:svg="http://www.w3.org/2000/svg"
   xmlns:rdf="http://www.w3.org/1999/02/22-rdf-syntax-ns#"
   xmlns:cc="http://creativecommons.org/ns#"
   xmlns:dc="http://purl.org/dc/elements/1.1/">
  <defs
     id="defs2259" />
  <sodipodi:namedview
     inkscape:window-maximized="0"
     inkscape:window-y="0"
     inkscape:window-x="52"
     inkscape:window-height="1041"
     inkscape:window-width="1274"
     fit-margin-bottom="0"
     fit-margin-right="0"
     fit-margin-left="0"
     fit-margin-top="0"
     showgrid="false"
     inkscape:document-rotation="0"
     inkscape:current-layer="layer1"
     inkscape:document-units="mm"
     inkscape:cy="269.54325"
     inkscape:cx="229.67738"
     inkscape:zoom="0.35"
     inkscape:pageshadow="2"
     inkscape:pageopacity="0.0"
     borderopacity="1.0"
     bordercolor="#666666"
     pagecolor="#ffffff"
     id="base"
     inkscape:showpageshadow="2"
     inkscape:pagecheckerboard="0"
     inkscape:deskcolor="#d1d1d1">
    <inkscape:page
       x="6.6306518e-22"
       y="0"
       width="374.70343"
       height="17.98719"
       id="page2"
       margin="0"
       bleed="0" />
  </sodipodi:namedview>
  <metadata
     id="metadata2262">
    <rdf:RDF>
      <cc:Work
         rdf:about="">
        <dc:format>image/svg+xml</dc:format>
        <dc:type
           rdf:resource="http://purl.org/dc/dcmitype/StillImage" />
      </cc:Work>
    </rdf:RDF>
  </metadata>
  <g
     transform="translate(-81.279541,-92.70813)"
     id="layer1"
     inkscape:groupmode="layer"
     inkscape:label="Layer 1">
    <path
       id="rect1-9-5-6"
       style="fill:none;stroke:#000000;stroke-width:0.75;stroke-linejoin:miter;stroke-dasharray:none"
       d="m 84.996457,93.083132 v 1.627291 h -1.623674 v 1.753381 H 81.654542 V 110.32032 H 452.26603 v -1.75338 h 1.71824 v -1.62729 h 1.62367 V 93.083132 Z" />
    <path
       id="rect1-9-8"
       style="fill:none;stroke:#000000;stroke-width:0.75;stroke-linejoin:miter;stroke-dasharray:none"
       d="m 84.996457,93.083132 v 1.627291 H 83.372783 V 108.56694 H 453.98427 v -1.62729 h 1.62367 V 93.083132 Z" />
    <rect
       style="fill:none;stroke:#000000;stroke-width:0.75;stroke-linejoin:miter;stroke-dasharray:none"
       id="rect1-9-8-9"
       width="370.61145"
       height="13.856308"
       x="84.99646"
       y="93.08313" />
  </g>
  <g
     inkscape:groupmode="layer"
     id="layer2"
     inkscape:label="Layer 2"
     transform="translate(-36.215014,-15.858116)">
    <g
       id="g71"
       transform="translate(0.65383921,-0.29849144)">
      <g
         id="g70"
         transform="translate(-404.43452,-53.294644)">
        <path
           d="m 459.3733,73.398858 c -0.31009,0 -0.59511,0.0476 -0.85458,0.14248 -0.25314,0.0949 -0.47132,0.23097 -0.65486,0.40816 -0.18351,0.17087 -0.32586,0.37673 -0.42712,0.61722 -0.10126,0.23416 -0.15213,0.49358 -0.15213,0.77836 0,0.24681 0.0319,0.46832 0.0952,0.6645 0.0633,0.19618 0.16108,0.37013 0.29397,0.52202 0.13923,0.15188 0.31653,0.28792 0.53166,0.40815 0.21518,0.12025 0.4746,0.228 0.77837,0.32293 0.16454,0.0443 0.31652,0.0915 0.45575,0.14217 0.13923,0.0506 0.25963,0.11081 0.36089,0.18044 0.10758,0.0696 0.18974,0.15176 0.24669,0.24669 0.0633,0.0886 0.0949,0.19634 0.0949,0.32291 0,0.18354 -0.0569,0.33853 -0.1708,0.4651 -0.10757,0.12655 -0.30681,0.18976 -0.59792,0.18976 -0.24048,0 -0.45567,-0.0569 -0.64552,-0.17079 -0.18353,-0.11392 -0.36079,-0.29118 -0.53166,-0.53166 l -1.08231,0.87357 c 0.11391,0.16452 0.24362,0.3162 0.38918,0.45543 0.14555,0.13289 0.30686,0.24996 0.48407,0.35122 0.18351,0.0949 0.38606,0.17109 0.60756,0.22805 0.22783,0.057 0.48092,0.0852 0.75939,0.0852 0.71513,-2e-5 1.26588,-0.17395 1.65192,-0.52203 0.39237,-0.3544 0.58859,-0.84796 0.58859,-1.48082 0,-0.24048 -0.0286,-0.46198 -0.0856,-0.66449 -0.0506,-0.20252 -0.1424,-0.3861 -0.27531,-0.55065 -0.1329,-0.17087 -0.30985,-0.31956 -0.53134,-0.44609 -0.2215,-0.13292 -0.49688,-0.24999 -0.82597,-0.35124 -0.16453,-0.0506 -0.31953,-0.10451 -0.46509,-0.16146 -0.14555,-0.057 -0.27226,-0.11715 -0.37984,-0.18043 -0.10759,-0.0633 -0.19307,-0.13282 -0.25635,-0.20875 -0.0633,-0.076 -0.0949,-0.16141 -0.0949,-0.25636 0,-0.17719 0.0632,-0.31953 0.18975,-0.42711 0.1329,-0.10759 0.30086,-0.16148 0.50336,-0.16148 0.38605,0 0.73726,0.18691 1.05369,0.56031 l 0.98709,-0.9305 c -0.22149,-0.30378 -0.49356,-0.5316 -0.81631,-0.68348 -0.31643,-0.15822 -0.72452,-0.23737 -1.22448,-0.23737 z m 11.7198,0 c -0.38604,0 -0.7153,0.0665 -0.98743,0.19941 -0.26579,0.12657 -0.48397,0.2912 -0.65484,0.49372 -0.17087,0.20251 -0.29427,0.43032 -0.37022,0.68348 -0.0759,0.2468 -0.11385,0.49359 -0.11385,0.74041 v 2.35437 c 0,0.29744 0.0379,0.58213 0.11385,0.85426 0.0823,0.27213 0.20867,0.51259 0.37953,0.72144 0.17088,0.2025 0.38939,0.36382 0.65518,0.48405 0.27213,0.12025 0.59806,0.18044 0.97778,0.18044 0.3101,0 0.5918,-0.0476 0.84494,-0.14248 0.25947,-0.10126 0.48096,-0.24361 0.66449,-0.42712 0.18985,-0.18986 0.33521,-0.41437 0.43646,-0.67383 0.10759,-0.26581 0.16147,-0.56346 0.16147,-0.89255 v -2.45858 c 0,-0.25948 -0.0443,-0.5159 -0.13284,-0.76904 -0.0822,-0.25315 -0.20898,-0.47766 -0.37985,-0.67383 -0.17087,-0.20251 -0.38905,-0.36383 -0.65486,-0.48406 -0.26579,-0.12657 -0.57909,-0.19009 -0.93981,-0.19009 z m 19.78547,0 c -0.3101,0 -0.59481,0.0476 -0.85427,0.14248 -0.25314,0.0949 -0.47133,0.23097 -0.65486,0.40816 -0.18352,0.17087 -0.32586,0.37673 -0.42713,0.61722 -0.10125,0.23416 -0.15212,0.49358 -0.15212,0.77836 0,0.24681 0.0316,0.46832 0.0949,0.6645 0.0633,0.19618 0.1614,0.37013 0.29429,0.52202 0.13924,0.15188 0.3165,0.28792 0.53168,0.40815 0.21517,0.12025 0.47458,0.228 0.77835,0.32293 0.16454,0.0443 0.31653,0.0915 0.45576,0.14217 0.13924,0.0506 0.25962,0.11081 0.36088,0.18044 0.10758,0.0696 0.18978,0.15176 0.24669,0.24669 0.0633,0.0886 0.0949,0.19634 0.0949,0.32291 0,0.18354 -0.0569,0.33853 -0.17079,0.4651 -0.10758,0.12655 -0.30713,0.18976 -0.59824,0.18976 -0.24048,0 -0.45535,-0.0569 -0.64521,-0.17079 -0.18352,-0.11392 -0.36079,-0.29118 -0.53166,-0.53166 l -1.0823,0.87357 c 0.11388,0.16452 0.24361,0.3162 0.38917,0.45543 0.14556,0.13289 0.30686,0.24996 0.48407,0.35122 0.18352,0.0949 0.38607,0.17109 0.60756,0.22805 0.22783,0.057 0.48094,0.0852 0.7594,0.0852 0.71511,-2e-5 1.26587,-0.17395 1.65191,-0.52203 0.39237,-0.3544 0.58859,-0.84796 0.58859,-1.48082 0,-0.24048 -0.0286,-0.46198 -0.0856,-0.66449 -0.0506,-0.20252 -0.14241,-0.3861 -0.27532,-0.55065 -0.13289,-0.17087 -0.31015,-0.31956 -0.53166,-0.44609 -0.2215,-0.13292 -0.49656,-0.24999 -0.82565,-0.35124 -0.16453,-0.0506 -0.31952,-0.10451 -0.46508,-0.16146 -0.14556,-0.057 -0.27226,-0.11715 -0.37985,-0.18043 -0.10758,-0.0633 -0.19306,-0.13282 -0.25635,-0.20875 -0.0633,-0.076 -0.0949,-0.16141 -0.0949,-0.25636 0,-0.17719 0.0632,-0.31953 0.18976,-0.42711 0.1329,-0.10759 0.30052,-0.16148 0.50304,-0.16148 0.38604,0 0.73757,0.18691 1.054,0.56031 l 0.98709,-0.9305 c -0.22143,-0.30378 -0.4935,-0.5316 -0.81625,-0.68348 -0.31643,-0.15822 -0.72483,-0.23737 -1.22479,-0.23737 z m 25.40221,0 c -0.3101,0 -0.5948,0.0476 -0.85426,0.14248 -0.25315,0.0949 -0.47166,0.23097 -0.65518,0.40816 -0.18353,0.17087 -0.32588,0.37673 -0.42714,0.61722 -0.10124,0.23416 -0.1518,0.49358 -0.1518,0.77836 0,0.24681 0.0316,0.46832 0.0949,0.6645 0.0633,0.19618 0.1614,0.37013 0.2943,0.52202 0.13923,0.15188 0.31649,0.28792 0.53168,0.40815 0.21516,0.12025 0.47458,0.228 0.77834,0.32293 0.16455,0.0443 0.31653,0.0915 0.45577,0.14217 0.13924,0.0506 0.2593,0.11081 0.36056,0.18044 0.10758,0.0696 0.18974,0.15176 0.24669,0.24669 0.0633,0.0886 0.0952,0.19634 0.0952,0.32291 0,0.18354 -0.0572,0.33853 -0.1711,0.4651 -0.10758,0.12655 -0.30681,0.18976 -0.59793,0.18976 -0.24048,0 -0.45566,-0.0569 -0.64552,-0.17079 -0.18354,-0.11392 -0.36079,-0.29118 -0.53166,-0.53166 l -1.08199,0.87357 c 0.11391,0.16452 0.24361,0.3162 0.38917,0.45543 0.14556,0.13289 0.30688,0.24996 0.48407,0.35122 0.18354,0.0949 0.38607,0.17109 0.60756,0.22805 0.22783,0.057 0.48093,0.0852 0.7594,0.0852 0.71512,-2e-5 1.26555,-0.17395 1.6516,-0.52203 0.39236,-0.3544 0.58859,-0.84796 0.58859,-1.48082 0,-0.24048 -0.0282,-0.46198 -0.0852,-0.66449 -0.0506,-0.20252 -0.14241,-0.3861 -0.27532,-0.55065 -0.13289,-0.17087 -0.31015,-0.31956 -0.53166,-0.44609 -0.2215,-0.13292 -0.49687,-0.24999 -0.82596,-0.35124 -0.16455,-0.0506 -0.31953,-0.10451 -0.46508,-0.16146 -0.14556,-0.057 -0.27228,-0.11715 -0.37987,-0.18043 -0.10758,-0.0633 -0.19273,-0.13282 -0.25602,-0.20875 -0.0633,-0.076 -0.0952,-0.16141 -0.0952,-0.25636 0,-0.17719 0.0635,-0.31953 0.19009,-0.42711 0.13289,-0.10759 0.30052,-0.16148 0.50304,-0.16148 0.38604,0 0.73726,0.18691 1.05367,0.56031 l 0.98743,-0.9305 c -0.22149,-0.30378 -0.49387,-0.53159 -0.81662,-0.68348 -0.31643,-0.15822 -0.72452,-0.23737 -1.22448,-0.23737 z m 8.81606,0 c -0.38605,0 -0.71498,0.0665 -0.98711,0.19941 -0.26579,0.12657 -0.4843,0.2912 -0.65517,0.49372 -0.17087,0.20251 -0.29426,0.43032 -0.3702,0.68348 -0.076,0.2468 -0.11385,0.49359 -0.11385,0.74041 v 2.35437 c 0,0.29744 0.0379,0.58213 0.11385,0.85426 0.0823,0.27213 0.20898,0.51259 0.37985,0.72144 0.17087,0.2025 0.38905,0.36382 0.65486,0.48405 0.27211,0.12025 0.59804,0.18044 0.97777,0.18044 0.31009,0 0.59179,-0.0476 0.84493,-0.14248 0.25947,-0.10126 0.48098,-0.24361 0.66451,-0.42712 0.18986,-0.18986 0.3352,-0.41437 0.43646,-0.67383 0.10759,-0.26581 0.16145,-0.56346 0.16145,-0.89255 v -2.45858 c 0,-0.25948 -0.0442,-0.5159 -0.13283,-0.76904 -0.0823,-0.25315 -0.20898,-0.47766 -0.37984,-0.67383 -0.17089,-0.20251 -0.38905,-0.36383 -0.65486,-0.48406 -0.26581,-0.12657 -0.57909,-0.19009 -0.93982,-0.19009 z m -75.40735,0.0476 -1.90796,6.60706 h 1.45219 c 0.0633,-0.22149 0.12348,-0.44631 0.18044,-0.67415 0.0633,-0.22783 0.12348,-0.45232 0.18043,-0.67383 h 1.56637 l 0.32261,1.34798 h 1.48113 l -1.90828,-6.60705 z m 13.38811,0 v 6.60706 h 1.3766 v -2.71493 h 1.49979 v 2.71493 h 1.35762 v -6.60705 h -1.35762 v 2.63902 h -1.49979 v -2.63902 z m 11.79472,0 v 6.60706 h 1.3763 v -2.61072 h 0.57894 l 0.88289,2.61072 h 1.49046 l -1.06332,-2.85741 c 0.31641,-0.17087 0.55687,-0.40834 0.72142,-0.7121 0.16455,-0.30378 0.24702,-0.66762 0.24702,-1.09164 0,-0.34175 -0.0539,-0.63275 -0.16146,-0.87325 -0.1076,-0.2468 -0.25625,-0.44936 -0.4461,-0.60756 -0.18354,-0.15822 -0.40203,-0.2753 -0.6552,-0.35123 -0.24676,-0.076 -0.50921,-0.11387 -0.78768,-0.11387 z m 5.35172,0 v 1.2531 h 1.41455 v 5.35396 h 1.36696 v -5.35396 h 1.41424 v -1.25309 z m 14.36878,0 v 6.60706 h 3.84452 v -1.30069 h -2.46823 v -1.4049 h 2.12666 v -1.26244 h -2.12666 v -1.36694 h 2.46823 v -1.27208 z m 5.31762,0 v 6.60706 h 1.37661 v -2.61072 h 0.57894 l 0.88289,2.61072 h 1.49046 l -1.06333,-2.85741 c 0.31644,-0.17087 0.5569,-0.40834 0.72143,-0.7121 0.16454,-0.30378 0.2467,-0.66762 0.2467,-1.09164 0,-0.34175 -0.0535,-0.63275 -0.16113,-0.87325 -0.10761,-0.2468 -0.25626,-0.44936 -0.44612,-0.60756 -0.18353,-0.15822 -0.40203,-0.2753 -0.65517,-0.35123 -0.24682,-0.076 -0.50956,-0.11387 -0.78802,-0.11387 z m 5.89304,0 v 6.60706 h 1.37628 v -6.60705 z m 3.18517,0 v 6.60706 h 3.84452 v -1.30069 h -2.46825 v -1.4049 h 2.12634 v -1.26244 h -2.12634 v -1.36694 h 2.46825 v -1.27208 z m 19.88742,0 v 6.60706 h 1.37628 v -2.68662 h 2.12634 v -1.2531 h -2.12634 v -1.39525 h 2.46824 v -1.27208 z m -52.62745,1.2531 h 0.77835 c 0.22151,0 0.40207,0.0539 0.54131,0.16147 0.14556,0.10758 0.21807,0.28785 0.21807,0.54098 0,0.29112 -0.0788,0.49667 -0.23704,0.6169 -0.15188,0.11393 -0.33882,0.17112 -0.56028,0.17112 h -0.74041 z m 25.03843,0 h 0.77835 c 0.2215,0 0.40176,0.0539 0.541,0.16147 0.14556,0.10758 0.21839,0.28785 0.21839,0.54098 0,0.29112 -0.0792,0.49667 -0.23736,0.6169 -0.1519,0.11393 -0.33848,0.17112 -0.55998,0.17112 h -0.7404 z m -30.19395,0.0283 c 0.13923,0 0.25297,0.0286 0.34157,0.0856 0.0949,0.0507 0.17109,0.11383 0.22804,0.18977 0.057,0.0759 0.0949,0.1551 0.11387,0.23737 0.0253,0.0823 0.038,0.15513 0.038,0.21838 v 2.61041 c 0,0.22151 -0.0728,0.39577 -0.2184,0.52234 -0.13923,0.12657 -0.30686,0.18976 -0.50304,0.18976 -0.27213,0 -0.46834,-0.0821 -0.58859,-0.24669 -0.1139,-0.16454 -0.17078,-0.37341 -0.17078,-0.62655 v -2.44927 c 0,-0.0759 0.0126,-0.15509 0.038,-0.23736 0.0316,-0.0886 0.0759,-0.16775 0.13283,-0.23737 0.0633,-0.0759 0.14243,-0.13614 0.23737,-0.18044 0.0949,-0.0506 0.212,-0.0759 0.35122,-0.0759 z m 54.00374,0 c 0.13922,0 0.25329,0.0286 0.34189,0.0856 0.0949,0.0507 0.17077,0.11383 0.22772,0.18977 0.057,0.0759 0.0949,0.1551 0.11387,0.23737 0.0253,0.0823 0.038,0.15513 0.038,0.21838 v 2.61041 c 0,0.22151 -0.0728,0.39577 -0.2184,0.52234 -0.13919,0.12657 -0.30684,0.18976 -0.50302,0.18976 -0.27213,0 -0.46836,-0.0821 -0.58861,-0.24669 -0.11391,-0.16454 -0.17079,-0.37341 -0.17079,-0.62655 v -2.44927 c 0,-0.0759 0.0126,-0.15509 0.038,-0.23736 0.0317,-0.0886 0.0759,-0.16775 0.13282,-0.23737 0.0633,-0.0759 0.14245,-0.13614 0.23739,-0.18044 0.0949,-0.0506 0.21199,-0.0759 0.35122,-0.0759 z m -74.74286,0.49371 h 0.0476 l 0.26567,1.31967 0.18044,0.9395 h -0.94948 l 0.19009,-0.94914 z"
           style="color:#000000;font-style:normal;font-variant:normal;font-weight:normal;font-stretch:normal;font-size:medium;line-height:normal;font-family:sans-serif;font-variant-ligatures:normal;font-variant-position:normal;font-variant-caps:normal;font-variant-numeric:normal;font-variant-alternates:normal;font-variant-east-asian:normal;font-feature-settings:normal;font-variation-settings:normal;text-indent:0;text-align:start;text-decoration:none;text-decoration-line:none;text-decoration-style:solid;text-decoration-color:#000000;letter-spacing:normal;word-spacing:normal;text-transform:none;writing-mode:lr-tb;direction:ltr;text-orientation:mixed;dominant-baseline:auto;baseline-shift:baseline;text-anchor:start;white-space:normal;shape-padding:0;shape-margin:0;inline-size:0;clip-rule:nonzero;display:inline;overflow:visible;visibility:visible;isolation:auto;mix-blend-mode:normal;color-interpolation:sRGB;color-interpolation-filters:linearRGB;solid-color:#000000;solid-opacity:1;vector-effect:none;fill:#000000;fill-opacity:1;fill-rule:nonzero;stroke:none;stroke-width:0.720744;stroke-linecap:round;stroke-linejoin:miter;stroke-miterlimit:4;stroke-dasharray:none;stroke-dashoffset:0;stroke-opacity:1;color-rendering:auto;image-rendering:auto;shape-rendering:auto;text-rendering:auto;enable-background:accumulate;stop-color:#000000"
           id="path1-5" />
      </g>
      <path
         d="m 144.0589,20.104209 c -0.31011,0 -0.5948,0.0476 -0.85427,0.14247 -0.25315,0.0949 -0.47132,0.23096 -0.65486,0.40816 -0.18351,0.17088 -0.32619,0.37673 -0.42745,0.61723 -0.10124,0.23415 -0.1518,0.49357 -0.1518,0.77835 0,0.24682 0.0316,0.46832 0.0949,0.66451 0.0633,0.19618 0.1614,0.37013 0.2943,0.52201 0.13923,0.15188 0.31649,0.28792 0.53168,0.40815 0.21516,0.12025 0.47458,0.228 0.77835,0.32294 0.16454,0.0443 0.31652,0.0915 0.45576,0.14215 0.13923,0.0507 0.25962,0.11082 0.36088,0.18045 0.10758,0.0696 0.18974,0.15175 0.2467,0.24669 0.0633,0.0886 0.0949,0.19635 0.0949,0.32292 0,0.18353 -0.0569,0.3385 -0.17079,0.4651 -0.10759,0.12657 -0.30713,0.18975 -0.59824,0.18975 -0.24048,0 -0.45566,-0.0569 -0.64552,-0.17078 -0.18354,-0.11391 -0.36048,-0.29119 -0.53136,-0.53167 l -1.08229,0.87357 c 0.11391,0.16453 0.24361,0.3162 0.38917,0.45543 0.14556,0.1329 0.30687,0.24997 0.48407,0.35123 0.18353,0.0949 0.38607,0.17108 0.60756,0.22805 0.22783,0.057 0.48093,0.0852 0.7594,0.0852 0.71511,0 1.26587,-0.17394 1.65191,-0.52202 0.39238,-0.3544 0.58859,-0.84796 0.58859,-1.48081 0,-0.24048 -0.0286,-0.46199 -0.0855,-0.6645 -0.0506,-0.20252 -0.14241,-0.3861 -0.27533,-0.55065 -0.13289,-0.17087 -0.31015,-0.31954 -0.53165,-0.44611 -0.2215,-0.13289 -0.49656,-0.24996 -0.82565,-0.35122 -0.16453,-0.0506 -0.31984,-0.10451 -0.4654,-0.16145 -0.14556,-0.057 -0.27195,-0.11716 -0.37953,-0.18044 -0.10758,-0.0633 -0.19307,-0.13281 -0.25636,-0.20875 -0.0633,-0.076 -0.0949,-0.16142 -0.0949,-0.25635 0,-0.1772 0.0632,-0.31954 0.18976,-0.42713 0.13289,-0.10758 0.30052,-0.16146 0.50304,-0.16146 0.38604,0 0.73726,0.18691 1.05368,0.5603 l 0.98742,-0.9305 c -0.22149,-0.30378 -0.49356,-0.5316 -0.81631,-0.68348 -0.31643,-0.15822 -0.72483,-0.23736 -1.22479,-0.23736 z m 11.65611,0 c -0.38605,0 -0.71498,0.0665 -0.98711,0.1994 -0.26579,0.12657 -0.4843,0.2912 -0.65517,0.49373 -0.16455,0.2025 -0.28461,0.43035 -0.36056,0.68346 -0.0759,0.24682 -0.11386,0.4936 -0.11386,0.7404 v 2.35408 c 0,0.29744 0.0379,0.58245 0.11386,0.85458 0.0823,0.27212 0.20566,0.51259 0.37021,0.72143 0.17087,0.20251 0.38905,0.36383 0.65486,0.48406 0.27213,0.12025 0.59806,0.18043 0.97777,0.18043 0.35439,0 0.66469,-0.0538 0.93048,-0.16145 0.27213,-0.11392 0.49664,-0.27223 0.67383,-0.47473 0.18354,-0.20252 0.31958,-0.44299 0.40817,-0.72144 0.0886,-0.28479 0.13316,-0.59807 0.13316,-0.93982 v -1.43322 h -2.25949 v 1.16755 h 0.89253 v 0.51269 c 0,0.20251 -0.0602,0.37646 -0.18044,0.52202 -0.11392,0.13921 -0.31646,0.20874 -0.60757,0.20874 -0.2658,0 -0.4557,-0.0855 -0.56963,-0.25635 -0.10758,-0.17087 -0.16144,-0.37942 -0.16144,-0.62622 v -2.44927 c 0,-0.0759 0.0126,-0.1551 0.038,-0.23737 0.0253,-0.0886 0.0666,-0.16774 0.12351,-0.23737 0.057,-0.0759 0.13279,-0.13612 0.22771,-0.18044 0.0949,-0.0506 0.21201,-0.0759 0.35125,-0.0759 0.13289,0 0.24697,0.0253 0.34188,0.0759 0.0949,0.0507 0.17408,0.11084 0.23737,0.18044 0.0633,0.0696 0.10754,0.14877 0.13285,0.23737 0.0316,0.0823 0.0536,0.15511 0.0662,0.2184 l 1.30071,-0.38919 c -0.0443,-0.21517 -0.12015,-0.42103 -0.22773,-0.61721 -0.10758,-0.20252 -0.24693,-0.37978 -0.4178,-0.53166 -0.17087,-0.15189 -0.37641,-0.27197 -0.6169,-0.36057 -0.24048,-0.0949 -0.51286,-0.14247 -0.81662,-0.14247 z m 46.04516,0 c -0.31011,0 -0.5948,0.0476 -0.85427,0.14247 -0.25315,0.0949 -0.47165,0.23096 -0.65517,0.40816 -0.18354,0.17088 -0.32589,0.37673 -0.42714,0.61723 -0.10126,0.23415 -0.15182,0.49357 -0.15182,0.77835 0,0.24682 0.0316,0.46832 0.0949,0.66451 0.0633,0.19618 0.16141,0.37013 0.2943,0.52201 0.13924,0.15188 0.31649,0.28792 0.53167,0.40815 0.21516,0.12025 0.4746,0.228 0.77836,0.32294 0.16455,0.0443 0.31653,0.0915 0.45577,0.14215 0.13921,0.0507 0.25928,0.11082 0.36054,0.18045 0.10758,0.0696 0.19007,0.15175 0.24702,0.24669 0.0633,0.0886 0.0949,0.19635 0.0949,0.32292 0,0.18353 -0.0569,0.3385 -0.17079,0.4651 -0.10759,0.12657 -0.30713,0.18975 -0.59824,0.18975 -0.2405,0 -0.45567,-0.0569 -0.64552,-0.17078 -0.18354,-0.11391 -0.36081,-0.29119 -0.53169,-0.53167 l -1.08198,0.87357 c 0.11393,0.16453 0.24363,0.3162 0.38918,0.45543 0.14557,0.1329 0.30687,0.24997 0.48407,0.35123 0.18353,0.0949 0.38607,0.17108 0.60757,0.22805 0.22783,0.057 0.48093,0.0852 0.75938,0.0852 0.71513,0 1.26589,-0.17394 1.65193,-0.52202 0.39238,-0.3544 0.58859,-0.84796 0.58859,-1.48081 0,-0.24048 -0.0286,-0.46199 -0.0856,-0.6645 -0.0507,-0.20252 -0.14243,-0.3861 -0.27532,-0.55065 -0.1329,-0.17087 -0.31017,-0.31954 -0.53167,-0.44611 -0.22151,-0.13289 -0.49688,-0.24996 -0.82595,-0.35122 -0.16455,-0.0506 -0.31955,-0.10451 -0.4651,-0.16145 -0.14554,-0.057 -0.27194,-0.11716 -0.37952,-0.18044 -0.10758,-0.0633 -0.19307,-0.13281 -0.25636,-0.20875 -0.0633,-0.076 -0.0949,-0.16142 -0.0949,-0.25635 0,-0.1772 0.0632,-0.31954 0.18977,-0.42713 0.1329,-0.10758 0.30052,-0.16146 0.50305,-0.16146 0.38603,0 0.73724,0.18691 1.05367,0.5603 l 0.98743,-0.9305 c -0.2215,-0.30378 -0.49356,-0.5316 -0.81631,-0.68348 -0.31643,-0.15822 -0.72485,-0.23736 -1.22479,-0.23736 z m -68.79065,0.0476 v 6.60705 h 2.05976 c 0.21517,0 0.42103,-0.019 0.61721,-0.057 0.20252,-0.038 0.3891,-0.0982 0.55997,-0.18043 0.17087,-0.0886 0.31954,-0.20567 0.44612,-0.35123 0.13289,-0.14556 0.24065,-0.32914 0.32291,-0.55064 0.10757,-0.28479 0.16445,-0.62668 0.17079,-1.02538 0.006,-0.40502 0.009,-0.89527 0.009,-1.47116 0,-0.3987 -0.009,-0.75954 -0.0283,-1.08231 -0.0126,-0.32908 -0.0632,-0.60447 -0.15182,-0.82596 -0.14554,-0.37971 -0.3767,-0.65176 -0.69313,-0.81631 -0.31005,-0.16455 -0.68657,-0.2467 -1.12957,-0.2467 z m 5.93,0 v 6.60705 h 1.37628 v -6.60705 z m 10.23094,0 -1.90796,6.60705 h 1.45253 c 0.0633,-0.22149 0.12315,-0.44631 0.18011,-0.67414 0.0633,-0.22784 0.12347,-0.45234 0.18044,-0.67383 h 1.56637 l 0.3226,1.34797 h 1.48114 l -1.90826,-6.60705 z m 10.35349,0 v 6.60705 h 1.37627 v -2.61072 h 0.57928 l 0.88288,2.61072 h 1.49014 l -1.063,-2.85741 c 0.31641,-0.17087 0.55688,-0.40833 0.72142,-0.71211 0.16455,-0.30373 0.24671,-0.6676 0.24671,-1.09163 0,-0.34174 -0.0539,-0.63276 -0.16147,-0.87324 -0.10758,-0.24682 -0.25625,-0.44936 -0.44611,-0.60756 -0.18354,-0.15823 -0.40171,-0.27529 -0.65486,-0.35125 -0.2468,-0.0759 -0.50954,-0.11385 -0.788,-0.11385 z m 5.87371,0 v 6.60705 h 3.84485 v -1.30069 h -2.46824 v -1.40492 h 2.12634 v -1.26241 h -2.12634 v -1.36696 h 2.46824 v -1.27207 z m 5.31794,0 v 6.60705 h 3.84452 v -1.30069 h -2.46824 v -1.40492 h 2.12667 v -1.26241 h -2.12667 v -1.36696 h 2.46824 v -1.27207 z m 5.28933,0 v 6.60705 h 1.36693 v -3.12308 l 0.038,-0.01 0.44611,1.13924 0.3702,0.9112 h 0.98711 l 0.35123,-0.85426 0.45576,-1.18652 0.038,0.009 v 3.11376 h 1.36695 v -6.60706 h -1.29104 l -0.7594,1.83204 -0.63586,1.66126 h -0.0476 l -0.65485,-1.6516 -0.76903,-1.8417 z m 7.16315,0 v 6.60705 h 3.84452 v -1.30069 h -2.46824 v -1.40492 h 2.12634 v -1.26241 h -2.12634 v -1.36696 h 2.46824 v -1.27207 z m 5.29864,0 v 6.60705 h 1.37661 v -3.58849 l 0.0283,-0.009 0.72144,1.39524 1.22479,2.20257 h 1.20549 v -6.60706 h -1.36696 v 3.55956 l -0.0286,0.01 -0.86392,-1.59467 -1.08198,-1.97454 z m 5.81583,0 v 1.2531 h 1.41455 v 5.35395 h 1.36696 v -5.35395 h 1.41424 v -1.2531 z m -33.38233,1.2531 h 0.77868 c 0.2215,0 0.40176,0.0535 0.541,0.16114 0.14556,0.10759 0.21838,0.28819 0.21838,0.54132 0,0.29111 -0.0791,0.49666 -0.23737,0.61689 -0.15188,0.11393 -0.33878,0.17079 -0.56028,0.17079 h -0.74041 z m -26.52375,0.0283 h 0.5693 c 0.19618,0 0.35149,0.0413 0.4654,0.12351 0.12025,0.076 0.20873,0.18338 0.26567,0.32261 0.0633,0.13289 0.10455,0.2882 0.12351,0.46539 0.019,0.17721 0.0283,0.36048 0.0283,0.55032 v 1.595 c 0,0.31009 -0.0602,0.55355 -0.18044,0.73076 -0.11391,0.17719 -0.34473,0.26599 -0.6928,0.26599 h -0.57896 z m 15.45848,0.49371 h 0.0476 l 0.26567,1.31936 0.18044,0.93982 h -0.94916 l 0.18978,-0.94915 z"
         style="color:#000000;font-style:normal;font-variant:normal;font-weight:normal;font-stretch:normal;font-size:medium;line-height:normal;font-family:sans-serif;font-variant-ligatures:normal;font-variant-position:normal;font-variant-caps:normal;font-variant-numeric:normal;font-variant-alternates:normal;font-variant-east-asian:normal;font-feature-settings:normal;font-variation-settings:normal;text-indent:0;text-align:start;text-decoration:none;text-decoration-line:none;text-decoration-style:solid;text-decoration-color:#000000;letter-spacing:normal;word-spacing:normal;text-transform:none;writing-mode:lr-tb;direction:ltr;text-orientation:mixed;dominant-baseline:auto;baseline-shift:baseline;text-anchor:start;white-space:normal;shape-padding:0;shape-margin:0;inline-size:0;clip-rule:nonzero;display:inline;overflow:visible;visibility:visible;isolation:auto;mix-blend-mode:normal;color-interpolation:sRGB;color-interpolation-filters:linearRGB;solid-color:#000000;solid-opacity:1;vector-effect:none;fill:#000000;fill-opacity:1;fill-rule:nonzero;stroke:none;stroke-width:0.720744;stroke-linecap:round;stroke-linejoin:miter;stroke-miterlimit:4;stroke-dasharray:none;stroke-dashoffset:0;stroke-opacity:1;color-rendering:auto;image-rendering:auto;shape-rendering:auto;text-rendering:auto;enable-background:accumulate;stop-color:#000000"
         id="path1-1" />
    </g>
  </g>
  <g
     id="g72"
     transform="translate(108.0353,-30.391743)">
    <g
       id="g69"
       transform="translate(-206.4856,-105.13338)">
      <path
         id="path1095-5"
         style="color:#000000;font-style:normal;font-variant:normal;font-weight:normal;font-stretch:normal;font-size:medium;line-height:normal;font-family:sans-serif;font-variant-ligatures:normal;font-variant-position:normal;font-variant-caps:normal;font-variant-numeric:normal;font-variant-alternates:normal;font-variant-east-asian:normal;font-feature-settings:normal;font-variation-settings:normal;text-indent:0;text-align:start;text-decoration:none;text-decoration-line:none;text-decoration-style:solid;text-decoration-color:#000000;letter-spacing:normal;word-spacing:normal;text-transform:none;writing-mode:lr-tb;direction:ltr;text-orientation:mixed;dominant-baseline:auto;baseline-shift:baseline;text-anchor:start;white-space:normal;shape-padding:0;shape-margin:0;inline-size:0;clip-rule:nonzero;display:inline;overflow:visible;visibility:visible;opacity:1;isolation:auto;mix-blend-mode:normal;color-interpolation:sRGB;color-interpolation-filters:linearRGB;solid-color:#000000;solid-opacity:1;vector-effect:none;fill:#000000;fill-opacity:1;fill-rule:nonzero;stroke:none;stroke-width:0.720744;stroke-linecap:round;stroke-linejoin:miter;stroke-miterlimit:4;stroke-dasharray:none;stroke-dashoffset:0;stroke-opacity:1;color-rendering:auto;image-rendering:auto;shape-rendering:auto;text-rendering:auto;enable-background:accumulate;stop-color:#000000"
         d="m 442.12432,139.4727 c -0.38604,0 -0.7153,0.0665 -0.98743,0.19941 -0.2658,0.12657 -0.48397,0.2912 -0.65486,0.49372 -0.17086,0.20251 -0.29426,0.43034 -0.37019,0.68348 -0.0759,0.24682 -0.11386,0.49359 -0.11386,0.74041 v 2.35405 c 0,0.29744 0.0379,0.58213 0.11386,0.85427 0.0823,0.27213 0.20866,0.5129 0.37953,0.72175 0.17087,0.20252 0.38936,0.36382 0.65517,0.48407 0.27213,0.12023 0.59806,0.18044 0.97778,0.18044 0.3101,0 0.59179,-0.0476 0.84494,-0.1425 0.25947,-0.10126 0.48098,-0.24361 0.66449,-0.42712 0.18986,-0.18986 0.3352,-0.41468 0.43646,-0.67416 0.10759,-0.26579 0.16148,-0.56313 0.16148,-0.89221 v -2.45859 c 0,-0.25948 -0.0442,-0.51591 -0.13285,-0.76905 -0.0823,-0.25309 -0.20898,-0.47763 -0.37985,-0.67381 -0.17087,-0.20252 -0.38905,-0.36415 -0.65485,-0.4844 -0.2658,-0.12657 -0.5791,-0.18976 -0.93982,-0.18976 z m 3.77922,0.0476 v 6.60673 h 1.37628 v -2.61041 h 0.57896 l 0.88289,2.61041 h 1.49046 l -1.06334,-2.8571 c 0.31643,-0.17087 0.55689,-0.40834 0.72144,-0.7121 0.16455,-0.30378 0.24702,-0.66762 0.24702,-1.09164 0,-0.34175 -0.0539,-0.63275 -0.16147,-0.87325 -0.10759,-0.2468 -0.25629,-0.44936 -0.4461,-0.60756 -0.18353,-0.15823 -0.40204,-0.27529 -0.65519,-0.35123 -0.2468,-0.0759 -0.50921,-0.11385 -0.78768,-0.11385 z m 5.87373,0 v 6.60673 h 2.06009 c 0.21517,0 0.4207,-0.019 0.61688,-0.057 0.20252,-0.038 0.3891,-0.0978 0.55998,-0.18011 0.17086,-0.0886 0.31986,-0.20568 0.44643,-0.35125 0.1329,-0.14553 0.24033,-0.32914 0.32261,-0.55063 0.1076,-0.28478 0.16448,-0.62668 0.17079,-1.02538 0.006,-0.40503 0.01,-0.89526 0.01,-1.47117 0,-0.3987 -0.01,-0.75954 -0.0286,-1.08229 -0.0126,-0.3291 -0.0632,-0.60447 -0.1518,-0.82597 -0.14556,-0.3797 -0.37639,-0.65177 -0.69283,-0.81631 -0.31008,-0.16455 -0.6869,-0.24669 -1.12989,-0.24669 z m 5.91103,0 v 6.60673 h 3.84452 v -1.30039 h -2.46791 v -1.40489 h 2.12634 v -1.26243 h -2.12634 v -1.36728 h 2.46791 v -1.27174 z m 5.31795,0 v 6.60673 h 1.37628 v -2.61041 h 0.57894 l 0.8829,2.61041 h 1.49045 l -1.06333,-2.8571 c 0.31643,-0.17087 0.55721,-0.40834 0.72176,-0.7121 0.16454,-0.30378 0.2467,-0.66762 0.2467,-1.09164 0,-0.34175 -0.0539,-0.63275 -0.16147,-0.87325 -0.10758,-0.2468 -0.25625,-0.44936 -0.44611,-0.60756 -0.18354,-0.15823 -0.40172,-0.27529 -0.65484,-0.35123 -0.24682,-0.0759 -0.50956,-0.11385 -0.78802,-0.11385 z m -15.72643,1.25277 h 0.77837 c 0.22149,0 0.40209,0.0539 0.54131,0.16147 0.14556,0.10758 0.21807,0.28816 0.21807,0.54131 0,0.29111 -0.0788,0.49664 -0.23704,0.61689 -0.1519,0.11391 -0.33879,0.17079 -0.56031,0.17079 h -0.7404 z m 17.10271,0 h 0.77836 c 0.22149,0 0.40207,0.0539 0.54131,0.16147 0.14556,0.10758 0.21807,0.28816 0.21807,0.54131 0,0.29111 -0.0788,0.49664 -0.23706,0.61689 -0.15188,0.11391 -0.33877,0.17079 -0.56028,0.17079 h -0.7404 z m -22.25821,0.0286 c 0.13923,0 0.25297,0.0286 0.34157,0.0855 0.0949,0.0507 0.17108,0.11382 0.22805,0.18977 0.0569,0.0759 0.0949,0.15509 0.11386,0.23736 0.0253,0.0823 0.038,0.15511 0.038,0.2184 v 2.61039 c 0,0.22151 -0.0728,0.39544 -0.2184,0.52203 -0.13923,0.12657 -0.30686,0.19007 -0.50304,0.19007 -0.27213,0 -0.46834,-0.0825 -0.58859,-0.24702 -0.11391,-0.16447 -0.17078,-0.37338 -0.17078,-0.62653 v -2.44894 c 0,-0.076 0.0126,-0.15509 0.038,-0.23737 0.0316,-0.0886 0.0759,-0.16775 0.13284,-0.23736 0.0633,-0.076 0.14243,-0.13614 0.23737,-0.18044 0.0949,-0.0507 0.21198,-0.0759 0.35122,-0.0759 z m 11.01991,0 h 0.56962 c 0.19618,0 0.35116,0.0412 0.46509,0.1235 0.12023,0.0759 0.20902,0.18337 0.26598,0.3226 0.0633,0.1329 0.10423,0.2879 0.1232,0.46509 0.019,0.17721 0.0286,0.36079 0.0286,0.55065 v 1.59498 c 0,0.31011 -0.0602,0.55357 -0.18043,0.73076 -0.11393,0.17721 -0.34474,0.26601 -0.69282,0.26599 h -0.57925 z"
         sodipodi:nodetypes="scscsscccscscsscccsccccccccsscccscccscccccsccccccccccccccccccccccccccsscccsccscscscccscscsccccscsscscssccccccsccssscscc" />
    </g>
    <path
       d="m 83.145858,34.344211 c -0.31011,0 -0.5948,0.0472 -0.85428,0.14215 -0.2531,0.0949 -0.47164,0.23127 -0.65518,0.40847 -0.18351,0.17088 -0.32586,0.37643 -0.42712,0.61691 -0.10127,0.23415 -0.15182,0.49357 -0.15182,0.77836 0,0.24681 0.0316,0.46831 0.0949,0.6645 0.0633,0.19618 0.16139,0.37013 0.29429,0.522013 0.13922,0.15189 0.3165,0.28825 0.53166,0.40848 0.21517,0.12025 0.47458,0.22767 0.77837,0.3226 0.16453,0.0443 0.31653,0.0919 0.45575,0.14249 0.13923,0.0507 0.2593,0.11082 0.36056,0.18043 0.10758,0.0696 0.19005,0.15177 0.24701,0.2467 0.0633,0.0886 0.0949,0.19604 0.0949,0.32261 0,0.18351 -0.0569,0.33882 -0.17078,0.46539 -0.10759,0.12658 -0.3072,0.18978 -0.59825,0.18978 -0.24049,0 -0.45568,-0.0569 -0.64554,-0.17079 -0.18351,-0.11392 -0.36079,-0.29123 -0.53165,-0.53166 l -1.08199,0.87324 c 0.11391,0.16455 0.24363,0.31652 0.38918,0.45576 0.14556,0.1329 0.30687,0.24997 0.48406,0.35122 0.18353,0.0949 0.38609,0.17076 0.60758,0.22772 0.22783,0.057 0.48092,0.0855 0.75937,0.0855 0.71513,0 1.26588,-0.17393 1.65194,-0.52201 0.39236,-0.3544 0.58859,-0.84827 0.58859,-1.48113 0,-0.24049 -0.0286,-0.46199 -0.0855,-0.66451 -0.0507,-0.20252 -0.14243,-0.3861 -0.27533,-0.55065 -0.1329,-0.17082 -0.31017,-0.31953 -0.53165,-0.446093 -0.22151,-0.13292 -0.49689,-0.24998 -0.82598,-0.35123 -0.16453,-0.0507 -0.31953,-0.10419 -0.46508,-0.16115 -0.14557,-0.057 -0.27195,-0.11715 -0.37954,-0.18044 -0.10758,-0.0633 -0.19305,-0.13311 -0.25634,-0.20906 -0.0633,-0.0759 -0.0949,-0.16109 -0.0949,-0.25602 0,-0.1772 0.0632,-0.31988 0.18978,-0.42746 0.1329,-0.10758 0.30052,-0.16113 0.50304,-0.16113 0.38599,0 0.73724,0.18657 1.05368,0.55997 l 0.98741,-0.93017 c -0.2215,-0.30378 -0.49355,-0.5316 -0.81632,-0.68348 -0.31638,-0.15822 -0.72487,-0.23736 -1.22477,-0.23736 z m -18.76203,0.0473 v 6.607053 h 1.37661 v -2.41099 h 0.79733 c 0.31643,0 0.60113,-0.0509 0.85427,-0.15213 0.25314,-0.10127 0.46832,-0.24361 0.64552,-0.42713 0.17721,-0.18353 0.31323,-0.40504 0.40815,-0.664513 0.0949,-0.25946 0.1425,-0.54748 0.1425,-0.86391 0,-0.36073 -0.0539,-0.67071 -0.16147,-0.93017 -0.10126,-0.26581 -0.2466,-0.48399 -0.43646,-0.65486 -0.18354,-0.17087 -0.40835,-0.29758 -0.67416,-0.37984 -0.25947,-0.0823 -0.54416,-0.12351 -0.85426,-0.12351 z m 5.59583,0 v 6.607053 h 1.37661 v -2.61041 h 0.57894 l 0.88289,2.61041 h 1.49046 l -1.06332,-2.85742 c 0.31643,-0.17087 0.55687,-0.408 0.72143,-0.71179 0.16454,-0.303763 0.247,-0.667623 0.247,-1.091633 0,-0.34174 -0.0538,-0.63307 -0.16146,-0.87357 -0.10758,-0.2468 -0.25624,-0.44902 -0.44609,-0.60725 -0.18354,-0.1582 -0.40203,-0.27527 -0.65519,-0.35122 -0.24681,-0.0759 -0.50955,-0.11417 -0.78801,-0.11417 z m 5.87405,0 v 6.607053 h 3.84452 v -1.30037 h -2.46825 v -1.40492 h 2.12667 v -1.262743 h -2.12667 v -1.36695 h 2.46825 v -1.27207 z m 11.00608,0 v 6.607053 h 3.84483 v -1.30037 h -2.46822 v -1.40492 h 2.12633 v -1.262743 h -2.12633 v -1.36695 h 2.46822 v -1.27207 z m 5.29895,0 v 6.607053 h 1.37628 v -3.58818 l 0.0286,-0.01 0.72142,1.39558 1.22448,2.20225 h 1.20581 v -6.607053 h -1.36694 v 3.559853 l -0.0286,0.01 -0.86393,-1.594983 -1.08198,-1.97452 z m 5.81583,0 v 1.25308 h 1.41424 v 5.353973 h 1.366962 v -5.353973 h 1.41455 v -1.25308 z m 5.543102,0 v 6.607053 h 3.84451 v -1.30037 h -2.4679 v -1.40492 h 2.12633 v -1.262743 h -2.12633 v -1.36695 h 2.4679 v -1.27207 z m 5.31794,0 v 6.607053 h 2.05975 c 0.21518,0 0.42104,-0.019 0.61722,-0.057 0.20252,-0.038 0.3891,-0.0982 0.55997,-0.18044 0.17087,-0.0886 0.31954,-0.20568 0.44611,-0.35124 0.1329,-0.14554 0.24064,-0.32881 0.32292,-0.55032 0.10757,-0.28478 0.16444,-0.62667 0.17079,-1.02537 0.006,-0.40502 0.009,-0.89558 0.009,-1.471493 0,-0.3987 -0.009,-0.75922 -0.0283,-1.08198 -0.0127,-0.32908 -0.0635,-0.60447 -0.15212,-0.82596 -0.14557,-0.37971 -0.3764,-0.65178 -0.69282,-0.81631 -0.31009,-0.16455 -0.68658,-0.24702 -1.12958,-0.24702 z m -37.479342,1.25308 h 0.77835 c 0.22151,0 0.40177,0.0539 0.541,0.16147 0.14556,0.10758 0.21838,0.28786 0.21838,0.541 0,0.2911 -0.0791,0.49696 -0.23737,0.61721 -0.15188,0.11391 -0.33847,0.17079 -0.55997,0.17079 h -0.74039 z m -5.59583,0.019 h 0.72142 c 0.24048,0 0.43039,0.0635 0.56962,0.19009 0.13923,0.12023 0.20874,0.32246 0.20874,0.60725 0,0.31009 -0.0792,0.52859 -0.23737,0.65517 -0.15188,0.12657 -0.32915,0.18976 -0.53165,0.18976 h -0.73076 z m 44.442112,0.01 h 0.56931 c 0.19618,0 0.35148,0.0409 0.4654,0.12318 0.12024,0.076 0.20872,0.18375 0.26567,0.32292 0.0633,0.13291 0.1045,0.28789 0.12351,0.4651 0.019,0.17719 0.0283,0.36078 0.0283,0.55063 v 1.594673 c 0,0.31011 -0.0602,0.55388 -0.18044,0.73109 -0.11393,0.1772 -0.34474,0.26566 -0.6928,0.26566 h -0.57895 z"
       style="color:#000000;font-style:normal;font-variant:normal;font-weight:normal;font-stretch:normal;font-size:medium;line-height:normal;font-family:sans-serif;font-variant-ligatures:normal;font-variant-position:normal;font-variant-caps:normal;font-variant-numeric:normal;font-variant-alternates:normal;font-variant-east-asian:normal;font-feature-settings:normal;font-variation-settings:normal;text-indent:0;text-align:start;text-decoration:none;text-decoration-line:none;text-decoration-style:solid;text-decoration-color:#000000;letter-spacing:normal;word-spacing:normal;text-transform:none;writing-mode:lr-tb;direction:ltr;text-orientation:mixed;dominant-baseline:auto;baseline-shift:baseline;text-anchor:start;white-space:normal;shape-padding:0;shape-margin:0;inline-size:0;clip-rule:nonzero;display:inline;overflow:visible;visibility:visible;isolation:auto;mix-blend-mode:normal;color-interpolation:sRGB;color-interpolation-filters:linearRGB;solid-color:#000000;solid-opacity:1;vector-effect:none;fill:#000000;fill-opacity:1;fill-rule:nonzero;stroke:none;stroke-width:0.720744;stroke-linecap:round;stroke-linejoin:miter;stroke-miterlimit:4;stroke-dasharray:none;stroke-dashoffset:0;stroke-opacity:1;color-rendering:auto;image-rendering:auto;shape-rendering:auto;text-rendering:auto;enable-background:accumulate;stop-color:#000000"
       id="path1" />
    <path
       d="m 118.50857,34.391592 v 6.60706 h 1.37629 v -2.71493 h 1.50011 v 2.71493 h 1.3573 v -6.60706 h -1.3573 v 2.63903 h -1.50011 v -2.63903 z m 6.05031,0 v 6.60706 h 3.84452 v -1.30036 h -2.46824 v -1.40492 h 2.12667 v -1.26275 h -2.12667 v -1.36694 h 2.46824 v -1.27209 z m 5.31761,0 v 6.60706 h 1.37661 v -2.6104 h 0.57894 l 0.88289,2.6104 h 1.49047 l -1.06332,-2.85741 c 0.31643,-0.17089 0.55689,-0.40802 0.72141,-0.71179 0.16455,-0.30376 0.24702,-0.66762 0.24702,-1.09163 0,-0.34174 -0.0538,-0.63309 -0.16145,-0.87357 -0.1076,-0.2468 -0.25626,-0.44935 -0.44611,-0.60756 -0.18353,-0.15822 -0.40205,-0.27529 -0.65517,-0.35124 -0.24682,-0.0759 -0.50923,-0.11386 -0.78769,-0.11386 z m 5.87405,0 v 6.60706 h 3.84452 v -1.30036 h -2.46791 v -1.40492 h 2.12634 v -1.26275 h -2.12634 v -1.36694 h 2.46791 v -1.27209 z m -4.49744,1.2531 h 0.77836 c 0.2215,0 0.40176,0.0539 0.54099,0.16147 0.14556,0.10758 0.2184,0.28784 0.2184,0.54098 0,0.29112 -0.0792,0.49698 -0.23737,0.61723 -0.1519,0.11391 -0.33848,0.17079 -0.55996,0.17079 h -0.74042 z"
       style="color:#000000;font-style:normal;font-variant:normal;font-weight:normal;font-stretch:normal;font-size:medium;line-height:normal;font-family:sans-serif;font-variant-ligatures:normal;font-variant-position:normal;font-variant-caps:normal;font-variant-numeric:normal;font-variant-alternates:normal;font-variant-east-asian:normal;font-feature-settings:normal;font-variation-settings:normal;text-indent:0;text-align:start;text-decoration:none;text-decoration-line:none;text-decoration-style:solid;text-decoration-color:#000000;letter-spacing:normal;word-spacing:normal;text-transform:none;writing-mode:lr-tb;direction:ltr;text-orientation:mixed;dominant-baseline:auto;baseline-shift:baseline;text-anchor:start;white-space:normal;shape-padding:0;shape-margin:0;inline-size:0;clip-rule:nonzero;display:inline;overflow:visible;visibility:visible;isolation:auto;mix-blend-mode:normal;color-interpolation:sRGB;color-interpolation-filters:linearRGB;solid-color:#000000;solid-opacity:1;vector-effect:none;fill:#000000;fill-opacity:1;fill-rule:nonzero;stroke:none;stroke-width:0.720744;stroke-linecap:round;stroke-linejoin:miter;stroke-miterlimit:4;stroke-dasharray:none;stroke-dashoffset:0;stroke-opacity:1;color-rendering:auto;image-rendering:auto;shape-rendering:auto;text-rendering:auto;enable-background:accumulate;stop-color:#000000"
       id="path1-7" />
    <path
       d="m 146.22237,34.391442 v 6.60706 h 1.37661 v -6.60706 z m 3.1662,0 v 6.60706 h 1.37628 v -3.5885 l 0.0286,-0.009 0.72144,1.39525 1.22447,2.20257 h 1.20548 v -6.60706 h -1.36696 v 3.55987 l -0.0283,0.009 -0.86392,-1.59467 -1.08199,-1.97454 z"
       style="color:#000000;font-style:normal;font-variant:normal;font-weight:normal;font-stretch:normal;font-size:medium;line-height:normal;font-family:sans-serif;font-variant-ligatures:normal;font-variant-position:normal;font-variant-caps:normal;font-variant-numeric:normal;font-variant-alternates:normal;font-variant-east-asian:normal;font-feature-settings:normal;font-variation-settings:normal;text-indent:0;text-align:start;text-decoration:none;text-decoration-line:none;text-decoration-style:solid;text-decoration-color:#000000;letter-spacing:normal;word-spacing:normal;text-transform:none;writing-mode:lr-tb;direction:ltr;text-orientation:mixed;dominant-baseline:auto;baseline-shift:baseline;text-anchor:start;white-space:normal;shape-padding:0;shape-margin:0;inline-size:0;clip-rule:nonzero;display:inline;overflow:visible;visibility:visible;isolation:auto;mix-blend-mode:normal;color-interpolation:sRGB;color-interpolation-filters:linearRGB;solid-color:#000000;solid-opacity:1;vector-effect:none;fill:#000000;fill-opacity:1;fill-rule:nonzero;stroke:none;stroke-width:0.720744;stroke-linecap:round;stroke-linejoin:miter;stroke-miterlimit:4;stroke-dasharray:none;stroke-dashoffset:0;stroke-opacity:1;color-rendering:auto;image-rendering:auto;shape-rendering:auto;text-rendering:auto;enable-background:accumulate;stop-color:#000000"
       id="path1-11" />
    <path
       d="m 160.92186,34.339492 c -0.38604,0 -0.71496,0.0662 -0.9871,0.19907 -0.2658,0.12657 -0.4843,0.29121 -0.65517,0.49372 -0.16454,0.20251 -0.28461,0.43034 -0.36056,0.68349 -0.0759,0.2468 -0.11386,0.49358 -0.11386,0.7404 v 2.35437 c 0,0.29745 0.0379,0.58215 0.11386,0.85426 0.0823,0.27213 0.20567,0.5126 0.37021,0.72144 0.17087,0.20252 0.38906,0.36383 0.65485,0.48407 0.27213,0.12023 0.59805,0.18044 0.97777,0.18044 0.53794,0 0.99358,-0.14567 1.36696,-0.43679 0.37339,-0.29112 0.60784,-0.69288 0.70278,-1.20549 l -1.31003,-0.37953 c -0.0253,0.21516 -0.11078,0.3858 -0.25634,0.51235 -0.14556,0.12025 -0.31349,0.18045 -0.50337,0.18045 -0.27212,0 -0.46502,-0.0822 -0.57894,-0.24669 -0.10758,-0.16455 -0.16145,-0.37341 -0.16147,-0.62655 v -2.44926 c 0,-0.076 0.0126,-0.15511 0.038,-0.23737 0.0253,-0.0886 0.0666,-0.16775 0.12351,-0.23736 0.0569,-0.076 0.1328,-0.13583 0.22772,-0.18013 0.0949,-0.0506 0.21201,-0.0759 0.35123,-0.0759 0.13291,0 0.24698,0.0253 0.3419,0.0759 0.0949,0.0507 0.17408,0.11051 0.23737,0.18013 0.0633,0.0696 0.10753,0.14875 0.13284,0.23736 0.0316,0.0823 0.0539,0.1551 0.0666,0.21839 l 1.30036,-0.38917 c -0.0443,-0.21519 -0.12013,-0.42072 -0.22772,-0.6169 -0.10758,-0.20252 -0.24693,-0.37978 -0.4178,-0.53168 -0.17087,-0.15188 -0.3764,-0.27226 -0.6169,-0.36087 -0.24049,-0.0949 -0.51286,-0.14215 -0.81664,-0.14215 z m 17.36258,0 c -0.38604,0 -0.7153,0.0662 -0.98742,0.19907 -0.2658,0.12657 -0.48398,0.29121 -0.65485,0.49372 -0.17086,0.20251 -0.29426,0.43034 -0.37021,0.68349 -0.0759,0.2468 -0.11417,0.49358 -0.11417,0.7404 v 2.35437 c 0,0.29745 0.0382,0.58215 0.11417,0.85426 0.0823,0.27213 0.20866,0.5126 0.37953,0.72144 0.17087,0.20252 0.38938,0.36383 0.65517,0.48407 0.27213,0.12023 0.59806,0.18044 0.97778,0.18044 0.3101,0 0.59148,-0.0476 0.84462,-0.14249 0.25948,-0.10127 0.48097,-0.2436 0.6645,-0.42713 0.18986,-0.18986 0.33554,-0.41436 0.43678,-0.67383 0.10758,-0.26581 0.16147,-0.56346 0.16147,-0.89254 v -2.45859 c 0,-0.25948 -0.0446,-0.51557 -0.13316,-0.76872 -0.0823,-0.25314 -0.20867,-0.47795 -0.37954,-0.67416 -0.17087,-0.20245 -0.38936,-0.3638 -0.65517,-0.48405 -0.26579,-0.12657 -0.57876,-0.18975 -0.9395,-0.18975 z m 12.06299,0 c -0.38603,0 -0.71529,0.0662 -0.98742,0.19907 -0.26579,0.12657 -0.48397,0.29121 -0.65486,0.49372 -0.17087,0.20251 -0.29426,0.43034 -0.37019,0.68349 -0.076,0.2468 -0.11386,0.49358 -0.11386,0.7404 v 2.35437 c 0,0.29745 0.0379,0.58215 0.11386,0.85426 0.0823,0.27213 0.20864,0.5126 0.37953,0.72144 0.17087,0.20252 0.38936,0.36383 0.65517,0.48407 0.27213,0.12023 0.59806,0.18044 0.97777,0.18044 0.31011,0 0.59181,-0.0476 0.84495,-0.14249 0.25942,-0.10127 0.48096,-0.2436 0.66449,-0.42713 0.18986,-0.18986 0.3352,-0.41436 0.43646,-0.67383 0.10759,-0.26581 0.16147,-0.56346 0.16147,-0.89254 v -2.45859 c 0,-0.25948 -0.0443,-0.51557 -0.13284,-0.76872 -0.0823,-0.25314 -0.20898,-0.47795 -0.37985,-0.67416 -0.17087,-0.20245 -0.38905,-0.3638 -0.65486,-0.48405 -0.26579,-0.12657 -0.57909,-0.18975 -0.93982,-0.18975 z m 10.98774,0 c -0.38604,0 -0.71528,0.0662 -0.98741,0.19907 -0.26581,0.12657 -0.48399,0.29121 -0.65485,0.49372 -0.17088,0.20251 -0.29427,0.43034 -0.37022,0.68349 -0.0759,0.2468 -0.11386,0.49358 -0.11386,0.7404 v 2.35437 c 0,0.29745 0.0379,0.58215 0.11386,0.85426 0.0823,0.27213 0.20866,0.5126 0.37953,0.72144 0.17089,0.20252 0.38939,0.36383 0.65518,0.48407 0.27213,0.12023 0.59807,0.18044 0.97777,0.18044 0.31011,0 0.5918,-0.0476 0.84495,-0.14249 0.25946,-0.10127 0.48097,-0.2436 0.66451,-0.42713 0.18985,-0.18986 0.3352,-0.41436 0.43646,-0.67383 0.10758,-0.26581 0.16145,-0.56346 0.16145,-0.89254 v -2.45859 c 0,-0.25948 -0.0443,-0.51557 -0.13283,-0.76872 -0.0823,-0.25314 -0.209,-0.47795 -0.37986,-0.67416 -0.17087,-0.20245 -0.38906,-0.3638 -0.65485,-0.48405 -0.2658,-0.12657 -0.57908,-0.18975 -0.93983,-0.18975 z m 5.79172,0 c -0.38605,0 -0.71529,0.0662 -0.98742,0.19907 -0.26581,0.12657 -0.48399,0.29121 -0.65486,0.49372 -0.16455,0.20251 -0.28493,0.43034 -0.36088,0.68349 -0.0759,0.2468 -0.11386,0.49358 -0.11386,0.7404 v 2.35437 c 0,0.29745 0.0379,0.58215 0.11386,0.85426 0.0823,0.27213 0.20567,0.5126 0.37022,0.72144 0.17087,0.20252 0.38936,0.36383 0.65516,0.48407 0.27214,0.12023 0.59807,0.18044 0.97778,0.18044 0.35441,0 0.66436,-0.0539 0.93017,-0.16146 0.27213,-0.11392 0.49695,-0.27191 0.67416,-0.47443 0.18351,-0.2025 0.31955,-0.44296 0.40815,-0.72142 0.0886,-0.28479 0.13283,-0.59807 0.13283,-0.93983 v -1.43352 h -2.2595 v 1.16753 h 0.89254 v 0.51269 c 0,0.20251 -0.0602,0.37646 -0.18044,0.52201 -0.11391,0.13924 -0.31646,0.20906 -0.60756,0.20906 -0.2658,0 -0.45571,-0.0855 -0.56962,-0.25633 -0.10759,-0.17087 -0.16114,-0.37973 -0.16114,-0.62655 v -2.44926 c 0,-0.076 0.0126,-0.15511 0.038,-0.23737 0.0253,-0.0886 0.0662,-0.16775 0.1232,-0.23736 0.057,-0.076 0.1331,-0.13583 0.22804,-0.18013 0.0949,-0.0506 0.21199,-0.0759 0.35123,-0.0759 0.13289,0 0.24663,0.0253 0.34157,0.0759 0.0949,0.0507 0.17408,0.11051 0.23736,0.18013 0.0633,0.0696 0.10753,0.14875 0.13284,0.23736 0.0317,0.0823 0.054,0.1551 0.0666,0.21839 l 1.30037,-0.38917 c -0.0443,-0.21519 -0.12013,-0.42072 -0.22771,-0.6169 -0.10759,-0.20252 -0.24694,-0.37978 -0.41781,-0.53168 -0.17087,-0.15188 -0.37641,-0.27226 -0.61689,-0.36087 -0.24049,-0.0949 -0.51255,-0.14215 -0.81631,-0.14215 z m 8.93763,0 c -0.38604,0 -0.71496,0.0662 -0.9871,0.19907 -0.2658,0.12657 -0.4843,0.29121 -0.65519,0.49372 -0.16447,0.20251 -0.28459,0.43034 -0.36054,0.68349 -0.076,0.2468 -0.11386,0.49358 -0.11386,0.7404 v 2.35437 c 0,0.29745 0.0379,0.58215 0.11386,0.85426 0.0823,0.27213 0.20567,0.5126 0.3702,0.72144 0.17089,0.20252 0.38905,0.36383 0.65486,0.48407 0.27212,0.12023 0.59806,0.18044 0.97777,0.18044 0.53794,0 0.99357,-0.14567 1.36696,-0.43679 0.37339,-0.29112 0.60753,-0.69288 0.70245,-1.20549 l -1.31003,-0.37953 c -0.0253,0.21516 -0.11047,0.3858 -0.25602,0.51235 -0.14557,0.12025 -0.3135,0.18045 -0.50336,0.18045 -0.27213,0 -0.46503,-0.0822 -0.57894,-0.24669 -0.10759,-0.16455 -0.16147,-0.37341 -0.16147,-0.62655 v -2.44926 c 0,-0.076 0.0126,-0.15511 0.038,-0.23737 0.0253,-0.0886 0.0665,-0.16775 0.1235,-0.23736 0.057,-0.076 0.1328,-0.13583 0.22772,-0.18013 0.0949,-0.0506 0.21199,-0.0759 0.35122,-0.0759 0.1329,0 0.24697,0.0253 0.34191,0.0759 0.0949,0.0507 0.17408,0.11051 0.23737,0.18013 0.0633,0.0696 0.10752,0.14875 0.13282,0.23736 0.0317,0.0823 0.0536,0.1551 0.0663,0.21839 l 1.3007,-0.38917 c -0.0443,-0.21519 -0.12014,-0.42072 -0.22772,-0.6169 -0.10759,-0.20252 -0.24694,-0.37978 -0.4178,-0.53168 -0.17087,-0.15188 -0.37643,-0.27226 -0.61691,-0.36087 -0.24048,-0.0949 -0.51287,-0.14215 -0.81664,-0.14215 z m -51.66962,0.0473 v 6.60705 h 1.37661 v -2.71494 h 1.49979 v 2.71494 h 1.35762 v -6.60705 h -1.35762 v 2.63902 h -1.49979 v -2.63902 z m 6.0503,0 v 6.60705 h 1.37661 v -2.61041 h 0.57894 l 0.88291,2.61041 h 1.49044 l -1.06332,-2.85742 c 0.31642,-0.17087 0.55689,-0.408 0.72144,-0.71179 0.16452,-0.30376 0.24701,-0.66762 0.24701,-1.09163 0,-0.34174 -0.0539,-0.63307 -0.16146,-0.87357 -0.10759,-0.2468 -0.25626,-0.44935 -0.44612,-0.60756 -0.18353,-0.15822 -0.40202,-0.27529 -0.65517,-0.35123 -0.24682,-0.0759 -0.50923,-0.11385 -0.78769,-0.11385 z m 11.59918,0 v 6.60705 h 1.37659 v -3.58818 l 0.0283,-0.01 0.72144,1.39558 1.22479,2.20225 h 1.20549 v -6.60706 h -1.36695 v 3.55988 l -0.0283,0.009 -0.86392,-1.59468 -1.0823,-1.97452 z m 12.08228,0 v 6.60705 h 3.84452 v -1.30037 h -2.46824 v -5.30668 z m 16.78782,0 v 6.60705 h 1.37659 v -6.60705 z m 10.08298,0 -1.90827,6.60705 h 1.45251 c 0.0633,-0.2215 0.12349,-0.44632 0.18044,-0.67415 0.0633,-0.22784 0.12316,-0.45234 0.18012,-0.67383 h 1.56637 l 0.32292,1.34798 h 1.48081 l -1.90794,-6.60705 z m 4.57207,0 v 6.60705 h 3.84452 v -1.30037 h -2.46824 v -5.30668 z m -53.74772,1.25308 h 0.77836 c 0.22149,0 0.40177,0.0539 0.54099,0.16147 0.14556,0.10758 0.21839,0.28786 0.21839,0.541 0,0.2911 -0.0792,0.49665 -0.23737,0.6169 -0.15187,0.1139 -0.33847,0.1711 -0.55997,0.1711 h -0.7404 z m 6.46263,0.0286 c 0.13924,0 0.25298,0.0283 0.34159,0.0852 0.0949,0.0507 0.17076,0.11382 0.22772,0.18977 0.0569,0.076 0.0952,0.15509 0.11417,0.23736 0.0253,0.0823 0.038,0.15511 0.038,0.2184 v 2.61072 c 0,0.22149 -0.0728,0.39544 -0.2184,0.52202 -0.13922,0.12657 -0.30685,0.18975 -0.50305,0.18975 -0.27211,0 -0.46834,-0.0821 -0.58859,-0.24669 -0.1139,-0.16454 -0.1711,-0.3734 -0.1711,-0.62655 v -2.44925 c 0,-0.076 0.0126,-0.15511 0.038,-0.23737 0.0316,-0.0886 0.0762,-0.16775 0.13316,-0.23736 0.0633,-0.076 0.14212,-0.13583 0.23705,-0.18013 0.0949,-0.0506 0.21232,-0.0759 0.35154,-0.0759 z m 12.06299,0 c 0.13922,0 0.25299,0.0283 0.34158,0.0852 0.0949,0.0507 0.17108,0.11382 0.22805,0.18977 0.057,0.076 0.0948,0.15509 0.11385,0.23736 0.0253,0.0823 0.038,0.15511 0.038,0.2184 v 2.61072 c 0,0.22149 -0.0728,0.39544 -0.2184,0.52202 -0.13923,0.12657 -0.30686,0.18975 -0.50304,0.18975 -0.27213,0 -0.46834,-0.0821 -0.58859,-0.24669 -0.11393,-0.16454 -0.17079,-0.3734 -0.17079,-0.62655 v -2.44925 c 0,-0.076 0.0126,-0.15511 0.038,-0.23737 0.0316,-0.0886 0.0759,-0.16775 0.13284,-0.23736 0.0633,-0.076 0.14244,-0.13583 0.23737,-0.18013 0.0949,-0.0506 0.21199,-0.0759 0.35122,-0.0759 z m 10.98774,0 c 0.13924,0 0.25298,0.0283 0.34159,0.0852 0.0949,0.0507 0.17108,0.11382 0.22803,0.18977 0.057,0.076 0.0948,0.15509 0.11386,0.23736 0.0253,0.0823 0.038,0.15511 0.038,0.2184 v 2.61072 c 0,0.22149 -0.0728,0.39544 -0.2184,0.52202 -0.13922,0.12657 -0.30684,0.18975 -0.50304,0.18975 -0.27211,0 -0.46834,-0.0821 -0.58859,-0.24669 -0.11391,-0.16454 -0.17078,-0.3734 -0.17078,-0.62655 v -2.44925 c 0,-0.076 0.0126,-0.15511 0.038,-0.23737 0.0316,-0.0886 0.0759,-0.16775 0.13284,-0.23736 0.0633,-0.076 0.14244,-0.13583 0.23736,-0.18013 0.0949,-0.0506 0.21201,-0.0759 0.35123,-0.0759 z m 20.32647,0.49339 h 0.0476 l 0.26568,1.31967 0.18044,0.93983 h -0.94914 l 0.18976,-0.94949 z"
       style="color:#000000;font-style:normal;font-variant:normal;font-weight:normal;font-stretch:normal;font-size:medium;line-height:normal;font-family:sans-serif;font-variant-ligatures:normal;font-variant-position:normal;font-variant-caps:normal;font-variant-numeric:normal;font-variant-alternates:normal;font-variant-east-asian:normal;font-feature-settings:normal;font-variation-settings:normal;text-indent:0;text-align:start;text-decoration:none;text-decoration-line:none;text-decoration-style:solid;text-decoration-color:#000000;letter-spacing:normal;word-spacing:normal;text-transform:none;writing-mode:lr-tb;direction:ltr;text-orientation:mixed;dominant-baseline:auto;baseline-shift:baseline;text-anchor:start;white-space:normal;shape-padding:0;shape-margin:0;inline-size:0;clip-rule:nonzero;display:inline;overflow:visible;visibility:visible;isolation:auto;mix-blend-mode:normal;color-interpolation:sRGB;color-interpolation-filters:linearRGB;solid-color:#000000;solid-opacity:1;vector-effect:none;fill:#000000;fill-opacity:1;fill-rule:nonzero;stroke:none;stroke-width:0.720744;stroke-linecap:round;stroke-linejoin:miter;stroke-miterlimit:4;stroke-dasharray:none;stroke-dashoffset:0;stroke-opacity:1;color-rendering:auto;image-rendering:auto;shape-rendering:auto;text-rendering:auto;enable-background:accumulate;stop-color:#000000"
       id="path1-52" />
  </g>
</svg>
