<?xml version="1.0" encoding="UTF-8" standalone="no"?>
<!-- Created with Inkscape (http://www.inkscape.org/) -->

<svg
   width="149.87309mm"
   height="18.501318mm"
   viewBox="0 0 149.87309 18.501318"
   version="1.1"
   id="svg1"
   inkscape:version="1.4 (86a8ad7, 2024-10-11)"
   sodipodi:docname="dotdotdot.svg"
   xmlns:inkscape="http://www.inkscape.org/namespaces/inkscape"
   xmlns:sodipodi="http://sodipodi.sourceforge.net/DTD/sodipodi-0.dtd"
   xmlns="http://www.w3.org/2000/svg"
   xmlns:svg="http://www.w3.org/2000/svg">
  <sodipodi:namedview
     id="namedview1"
     pagecolor="#ffffff"
     bordercolor="#666666"
     borderopacity="1.0"
     inkscape:showpageshadow="2"
     inkscape:pageopacity="0.0"
     inkscape:pagecheckerboard="0"
     inkscape:deskcolor="#d1d1d1"
     inkscape:document-units="mm"
     inkscape:zoom="0.71891835"
     inkscape:cx="270.54533"
     inkscape:cy="178.74074"
     inkscape:window-width="3840"
     inkscape:window-height="1009"
     inkscape:window-x="-8"
     inkscape:window-y="-8"
     inkscape:window-maximized="1"
     inkscape:current-layer="layer1" />
  <defs
     id="defs1" />
  <g
     inkscape:label="Layer 1"
     inkscape:groupmode="layer"
     id="layer1"
     transform="translate(-33.341465,-101.15239)">
    <path
       style="font-size:25.43px;line-height:1.25;font-family:Arial;-inkscape-font-specification:Arial;text-align:center;letter-spacing:0px;text-anchor:middle;stroke-width:0.635751"
       d="m 33.341465,119.3557 v -18.20331 h 6.270581 q 2.123306,0 3.240835,0.26075 1.564541,0.3601 2.669653,1.30379 1.440371,1.21686 2.14814,3.11666 0.720186,1.88739 0.720186,4.32112 0,2.07363 -0.484263,3.67543 -0.484263,1.60179 -1.241699,2.65723 -0.757437,1.04303 -1.663877,1.65146 -0.894024,0.59602 -2.172974,0.90644 -1.266533,0.31043 -2.917993,0.31043 z m 2.408896,-2.14814 h 3.886519 q 1.800464,0 2.818657,-0.33526 1.030611,-0.33526 1.639043,-0.94369 0.856773,-0.85677 1.328618,-2.29715 0.484263,-1.45278 0.484263,-3.514 0,-2.85591 -0.943691,-4.3832 -0.931275,-1.53971 -2.27231,-2.06122 -0.968525,-0.37251 -3.116665,-0.37251 h -3.824434 z m 14.838305,-4.44529 q 0,-3.66301 2.036387,-5.42622 1.701128,-1.46521 4.147276,-1.46521 2.719321,0 4.445283,1.78805 1.725962,1.77563 1.725962,4.91713 0,2.54548 -0.769854,4.01069 -0.757436,1.45279 -2.222641,2.25989 -1.452788,0.80711 -3.17875,0.80711 -2.76899,0 -4.482535,-1.77563 -1.701128,-1.77563 -1.701128,-5.11581 z m 2.297144,0 q 0,2.53307 1.105112,3.7996 1.105113,1.25412 2.781407,1.25412 1.663877,0 2.768989,-1.26653 1.105112,-1.26654 1.105112,-3.86169 0,-2.44614 -1.117529,-3.70026 -1.105112,-1.26653 -2.756572,-1.26653 -1.676294,0 -2.781407,1.25411 -1.105112,1.25412 -1.105112,3.78718 z m 17.557625,4.59429 0.322842,1.9743 q -0.943692,0.19868 -1.688711,0.19868 -1.216866,0 -1.887383,-0.38493 -0.670518,-0.38493 -0.943692,-1.00578 -0.273173,-0.63326 -0.273173,-2.64482 v -7.58678 h -1.639043 v -1.73838 h 1.639043 v -3.26567 l 2.222641,-1.34103 v 4.6067 h 2.247476 v 1.73838 h -2.247476 v 7.71095 q 0,0.95611 0.111753,1.22929 0.12417,0.27317 0.384927,0.43459 0.273174,0.16142 0.769853,0.16142 0.37251,0 0.980943,-0.0869 z m 2.818658,1.99914 v -2.54549 h 2.545483 v 2.54549 z m 13.782863,0 v -18.20331 h 6.270581 q 2.123306,0 3.240835,0.26075 1.564541,0.3601 2.669654,1.30379 1.440374,1.21686 2.148144,3.11666 0.72018,1.88739 0.72018,4.32112 0,2.07363 -0.48426,3.67543 -0.48426,1.60179 -1.2417,2.65723 -0.757438,1.04303 -1.663878,1.65146 -0.894024,0.59602 -2.172974,0.90644 -1.266533,0.31043 -2.917993,0.31043 z m 2.408897,-2.14814 h 3.886518 q 1.800464,0 2.818657,-0.33526 1.030611,-0.33526 1.639043,-0.94369 0.856773,-0.85677 1.328619,-2.29715 0.484262,-1.45278 0.484262,-3.514 0,-2.85591 -0.943691,-4.3832 -0.931275,-1.53971 -2.27231,-2.06122 -0.968525,-0.37251 -3.116665,-0.37251 h -3.824433 z m 14.838307,-4.44529 q 0,-3.66301 2.03638,-5.42622 1.70113,-1.46521 4.14728,-1.46521 2.71932,0 4.44528,1.78805 1.72596,1.77563 1.72596,4.91713 0,2.54548 -0.76985,4.01069 -0.75744,1.45279 -2.22264,2.25989 -1.45279,0.80711 -3.17875,0.80711 -2.76899,0 -4.48253,-1.77563 -1.70113,-1.77563 -1.70113,-5.11581 z m 2.29714,0 q 0,2.53307 1.10511,3.7996 1.10512,1.25412 2.78141,1.25412 1.66388,0 2.76899,-1.26653 1.10511,-1.26654 1.10511,-3.86169 0,-2.44614 -1.11753,-3.70026 -1.10511,-1.26653 -2.75657,-1.26653 -1.67629,0 -2.78141,1.25411 -1.10511,1.25412 -1.10511,3.78718 z m 17.55763,4.59429 0.32284,1.9743 q -0.94369,0.19868 -1.68871,0.19868 -1.21687,0 -1.88739,-0.38493 -0.67051,-0.38493 -0.94369,-1.00578 -0.27317,-0.63326 -0.27317,-2.64482 v -7.58678 h -1.63904 v -1.73838 h 1.63904 v -3.26567 l 2.22264,-1.34103 v 4.6067 h 2.24748 v 1.73838 h -2.24748 v 7.71095 q 0,0.95611 0.11175,1.22929 0.12417,0.27317 0.38493,0.43459 0.27317,0.16142 0.76985,0.16142 0.37251,0 0.98095,-0.0869 z m 2.81865,1.99914 v -2.54549 h 2.54549 v 2.54549 z m 13.78287,0 v -18.20331 h 6.27058 q 2.1233,0 3.24083,0.26075 1.56454,0.3601 2.66966,1.30379 1.44037,1.21686 2.14814,3.11666 0.72018,1.88739 0.72018,4.32112 0,2.07363 -0.48426,3.67543 -0.48426,1.60179 -1.2417,2.65723 -0.75744,1.04303 -1.66388,1.65146 -0.89402,0.59602 -2.17297,0.90644 -1.26653,0.31043 -2.91799,0.31043 z m 2.40889,-2.14814 h 3.88652 q 1.80047,0 2.81866,-0.33526 1.03061,-0.33526 1.63904,-0.94369 0.85678,-0.85677 1.32862,-2.29715 0.48426,-1.45278 0.48426,-3.514 0,-2.85591 -0.94369,-4.3832 -0.93127,-1.53971 -2.27231,-2.06122 -0.96852,-0.37251 -3.11666,-0.37251 h -3.82444 z m 14.83831,-4.44529 q 0,-3.66301 2.03639,-5.42622 1.70112,-1.46521 4.14727,-1.46521 2.71932,0 4.44528,1.78805 1.72597,1.77563 1.72597,4.91713 0,2.54548 -0.76986,4.01069 -0.75743,1.45279 -2.22264,2.25989 -1.45279,0.80711 -3.17875,0.80711 -2.76899,0 -4.48253,-1.77563 -1.70113,-1.77563 -1.70113,-5.11581 z m 2.29714,0 q 0,2.53307 1.10511,3.7996 1.10512,1.25412 2.78141,1.25412 1.66388,0 2.76899,-1.26653 1.10511,-1.26654 1.10511,-3.86169 0,-2.44614 -1.11753,-3.70026 -1.10511,-1.26653 -2.75657,-1.26653 -1.67629,0 -2.78141,1.25411 -1.10511,1.25412 -1.10511,3.78718 z m 17.55763,4.59429 0.32285,1.9743 q -0.94369,0.19868 -1.68871,0.19868 -1.21687,0 -1.88739,-0.38493 -0.67051,-0.38493 -0.94369,-1.00578 -0.27317,-0.63326 -0.27317,-2.64482 v -7.58678 h -1.63905 v -1.73838 h 1.63905 v -3.26567 l 2.22264,-1.34103 v 4.6067 h 2.24747 v 1.73838 h -2.24747 v 7.71095 q 0,0.95611 0.11175,1.22929 0.12417,0.27317 0.38493,0.43459 0.27317,0.16142 0.76985,0.16142 0.37251,0 0.98094,-0.0869 z m 2.81866,1.99914 v -2.54549 h 2.54548 v 2.54549 z"
       id="text38"
       aria-label="Dot. Dot. Dot." />
  </g>
</svg>
