<?xml version="1.0" encoding="UTF-8" standalone="no"?>
<svg
   xmlns:dc="http://purl.org/dc/elements/1.1/"
   xmlns:cc="http://creativecommons.org/ns#"
   xmlns:rdf="http://www.w3.org/1999/02/22-rdf-syntax-ns#"
   xmlns:svg="http://www.w3.org/2000/svg"
   xmlns="http://www.w3.org/2000/svg"
   xmlns:sodipodi="http://sodipodi.sourceforge.net/DTD/sodipodi-0.dtd"
   xmlns:inkscape="http://www.inkscape.org/namespaces/inkscape"
   width="170.24525mm"
   height="12.308116mm"
   viewBox="0 0 170.24525 12.308116"
   version="1.1"
   id="svg3379"
   inkscape:version="1.0 (4035a4fb49, 2020-05-01)"
   sodipodi:docname="liwc.svg">
  <defs
     id="defs3373" />
  <sodipodi:namedview
     id="base"
     pagecolor="#ffffff"
     bordercolor="#666666"
     borderopacity="1.0"
     inkscape:pageopacity="0.0"
     inkscape:pageshadow="2"
     inkscape:zoom="0.35"
     inkscape:cx="318.86618"
     inkscape:cy="311.83086"
     inkscape:document-units="mm"
     inkscape:current-layer="layer1"
     inkscape:document-rotation="0"
     showgrid="false"
     fit-margin-top="0"
     fit-margin-left="0"
     fit-margin-right="0"
     fit-margin-bottom="0"
     inkscape:window-width="1274"
     inkscape:window-height="1032"
     inkscape:window-x="182"
     inkscape:window-y="0"
     inkscape:window-maximized="0" />
  <metadata
     id="metadata3376">
    <rdf:RDF>
      <cc:Work
         rdf:about="">
        <dc:format>image/svg+xml</dc:format>
        <dc:type
           rdf:resource="http://purl.org/dc/dcmitype/StillImage" />
        <dc:title></dc:title>
      </cc:Work>
    </rdf:RDF>
  </metadata>
  <g
     inkscape:label="Layer 1"
     inkscape:groupmode="layer"
     id="layer1"
     transform="translate(-21.466656,-65.661419)">
    <g
       style="font-size:16.1101px;line-height:0.7;font-family:lego;-inkscape-font-specification:lego;letter-spacing:-0.804677px;word-spacing:0.38064px;opacity:1;stroke-width:0.402754"
       id="text1012"
       aria-label="Love, Innocence and the Word Cock">
      <path
         id="path5785"
         style="font-style:normal;font-variant:normal;font-weight:normal;font-stretch:normal;font-family:'Kidprint MT Pro';-inkscape-font-specification:'Kidprint MT Pro';text-align:center;text-anchor:middle;stroke-width:0.402754"
         d="m 27.153521,74.892506 c 0,-0.273872 -0.225541,-0.289982 -0.386642,-0.289982 -0.853836,0 -1.095487,-0.06444 -2.642057,-0.06444 -0.692734,0 -1.482129,0.11277 -1.482129,0.11277 0,0 -0.112771,-1.836551 -0.112771,-4.188626 0,-1.482129 -0.11277,-3.415341 -0.11277,-3.801983 0,-0.177211 -0.161101,-0.386643 -0.306092,-0.386643 -0.257762,0 -0.451083,0.06444 -0.451083,0.402753 0,0.531633 0.144991,2.352075 0.209431,3.850314 0.06444,1.64323 0.09666,4.220846 0.09666,4.220846 -0.209431,0 -0.499413,0.273872 -0.499413,0.451083 0,0.273871 0.144991,0.402752 0.499413,0.402752 0,0 0.09666,0.644404 0.515523,0.644404 0.306092,0 0.338312,-0.06444 0.338312,-0.241651 0,-0.177211 -0.128881,-0.547744 -0.128881,-0.547744 0,0 0.853836,-0.306092 1.62712,-0.273871 0.886056,0.03222 1.49824,0.177211 2.287635,0.177211 0.289981,0 0.547743,-0.177211 0.547743,-0.467193 z" />
      <path
         id="path5787"
         style="font-style:normal;font-variant:normal;font-weight:normal;font-stretch:normal;font-family:'Kidprint MT Pro';-inkscape-font-specification:'Kidprint MT Pro';text-align:center;text-anchor:middle;stroke-width:0.402754"
         d="m 31.967745,72.28267 c 0,-1.56268 -1.240478,-2.352075 -2.497066,-2.352075 -0.499413,0 -2.142643,0.676624 -2.142643,1.095487 0,0.177211 0.112771,0.386642 0.289982,0.386642 0.724954,0 0.853835,-0.902165 1.772111,-0.902165 0.934385,0 1.917102,0.612184 1.917102,1.997652 0,1.965432 -1.321029,2.819268 -2.303745,2.819268 -0.773285,0 -1.256588,-0.322202 -1.449909,-1.46602 -0.03222,-0.161101 -0.09666,-0.515523 -0.09666,-0.660514 0,-0.451082 0.306092,-0.660514 0.515523,-0.966606 0.09666,-0.14499 0.09666,-0.322202 0.09666,-0.434972 0,-0.209432 -0.257761,-0.225542 -0.370532,-0.225542 -0.499413,0 -0.821615,0.950496 -0.805505,1.868772 0.06444,1.997652 1.063267,2.529286 2.142643,2.529286 1.143818,0 2.932039,-1.079377 2.932039,-3.689213 z" />
      <path
         id="path5789"
         style="font-style:normal;font-variant:normal;font-weight:normal;font-stretch:normal;font-family:'Kidprint MT Pro';-inkscape-font-specification:'Kidprint MT Pro';text-align:center;text-anchor:middle;stroke-width:0.402754"
         d="m 35.947012,70.623329 c -0.128881,0 -0.257762,0.04833 -0.386642,0.628294 -0.09666,0.338312 -0.724955,1.56268 -1.49824,3.350901 -0.273871,-0.902166 -1.67545,-3.737543 -1.72378,-4.140296 -0.06444,-0.483303 -0.161101,-0.563853 -0.306092,-0.563853 -0.06444,0 -0.144991,0.01611 -0.241652,0.01611 -0.177211,0 -0.225541,0.144991 -0.225541,0.402753 0,0.773284 2.110423,4.317506 2.110423,5.026351 0,0 -0.193321,0.306092 -0.193321,0.451082 0,0.241652 0.225541,0.354423 0.483303,0.354423 0.161101,0 0.128881,-0.257762 0.418862,-0.869946 0.370533,-0.837725 1.933212,-3.963084 1.933212,-4.236956 0,-0.306092 -0.01611,-0.418863 -0.273871,-0.418863 z" />
      <path
         id="path5791"
         style="font-style:normal;font-variant:normal;font-weight:normal;font-stretch:normal;font-family:'Kidprint MT Pro';-inkscape-font-specification:'Kidprint MT Pro';text-align:center;text-anchor:middle;stroke-width:0.402754"
         d="m 41.64578,71.509385 c 0,-0.708844 -0.708844,-2.045983 -1.949322,-2.045983 -0.757174,0 -1.69156,0.451083 -2.932038,1.997653 -0.418862,0.563853 -0.644404,1.321028 -0.644404,1.981542 0,1.530459 1.031047,2.915928 2.754827,2.915928 0.757175,0 1.772111,-0.144991 1.772111,-0.531633 0,-0.112771 -0.11277,-0.418863 -0.289982,-0.418863 -0.273871,0 -0.773284,0.451083 -1.014936,0.451083 -1.739891,0 -2.561506,-0.869946 -2.561506,-2.384295 0,-0.563853 0.09666,-0.902165 0.257762,-1.224367 0,0 0.03222,0.12888 0.161101,0.257761 0.144991,0.144991 0.273872,0.273872 1.127707,0.273872 1.546569,0 3.31868,-0.04833 3.31868,-1.272698 z m -4.317506,0.273872 c 0.418862,-0.789395 1.5949,-1.675451 2.255414,-1.675451 0.773284,0 1.401578,0.563854 1.401578,1.449909 0,0.177211 -0.289981,0.724955 -2.529285,0.724955 -0.434973,0 -0.676625,-0.386643 -1.176038,-0.386643 z" />
      <path
         id="path5793"
         style="font-style:normal;font-variant:normal;font-weight:normal;font-stretch:normal;font-family:'Kidprint MT Pro';-inkscape-font-specification:'Kidprint MT Pro';text-align:center;text-anchor:middle;stroke-width:0.402754"
         d="m 42.803515,75.875222 c 0,-0.209431 -0.193321,-0.563854 -0.451083,-0.563854 -0.241651,0 -0.241651,0.628294 -0.499413,1.224368 -0.09666,0.225541 -0.515523,0.789395 -0.515523,1.079377 0,0.257761 0.128881,0.354422 0.338312,0.354422 0.161101,0 0.612184,-0.612184 0.805505,-0.998826 0.225541,-0.515523 0.322202,-0.950496 0.322202,-1.095487 z" />
      <path
         id="path5795"
         style="font-style:normal;font-variant:normal;font-weight:normal;font-stretch:normal;font-family:'Kidprint MT Pro';-inkscape-font-specification:'Kidprint MT Pro';text-align:center;text-anchor:middle;stroke-width:0.402754"
         d="m 48.832402,67.771842 c 0,0 0.241652,0.902165 0.241652,3.963084 0,0.918276 -0.144991,2.787048 -0.193321,3.673103 0,0 -0.596074,0.257762 -1.014937,0.257762 -0.209431,0 -0.451082,0.11277 -0.451082,0.322202 0,0.225541 0.306092,0.322202 0.515523,0.322202 0.354422,0 1.014936,-0.209432 1.014936,-0.209432 0,0 0.209431,0.08055 0.370532,0.08055 0.273872,0 0.418863,-0.257762 0.418863,-0.257762 0,0 0.724955,-0.11277 1.224368,-0.11277 0.241651,0 0.289981,-0.08055 0.289981,-0.370533 0,-0.193321 -0.12888,-0.273871 -0.257761,-0.273871 -0.676624,0 -1.369359,0.14499 -1.369359,0.14499 0,-0.386642 0.112771,-2.029872 0.112771,-3.31868 0,-2.158753 -0.112771,-4.365837 -0.112771,-4.365837 0,0 0.225542,-0.128881 0.402753,-0.144991 0.354422,-0.03222 0.515523,-0.112771 0.773285,-0.112771 0.209431,0 0.322202,-0.225541 0.322202,-0.434972 0,-0.209432 -0.306092,-0.209432 -0.515524,-0.209432 -0.499413,0 -0.724954,0.144991 -1.304918,0.144991 -0.434972,0 -0.499413,0.177211 -0.757174,0.257762 -0.354423,0.11277 -1.143817,0.11277 -1.143817,0.386642 0,0.09666 0.12888,0.467193 0.467192,0.467193 0.386643,0 0.966606,-0.209431 0.966606,-0.209431 z" />
      <path
         id="path5797"
         style="font-style:normal;font-variant:normal;font-weight:normal;font-stretch:normal;font-family:'Kidprint MT Pro';-inkscape-font-specification:'Kidprint MT Pro';text-align:center;text-anchor:middle;stroke-width:0.402754"
         d="m 56.257972,71.863807 c 0,-1.433799 -1.159927,-2.287634 -2.094313,-2.287634 -0.998826,0 -1.65934,0.741065 -1.884882,1.014936 -0.06444,-0.354422 0,-0.724954 -0.322202,-0.724954 -0.306091,0 -0.418862,0.241651 -0.418862,0.660514 0,0.322202 0.08055,0.805505 0.144991,1.321028 0.08055,0.757175 0.177211,1.192147 0.225541,1.949322 0.04833,0.757175 0.04833,1.224368 0.04833,1.949322 0,0.177211 0.03222,0.451083 0.177212,0.451083 0.338312,0 0.483302,-0.257762 0.483302,-0.418863 0,-0.789395 -0.08055,-1.192147 -0.12888,-1.965432 -0.06444,-0.789395 -0.144991,-1.965432 -0.161101,-2.223194 0.386642,-0.01611 0.354422,-0.161101 0.418862,-0.434972 0.451083,-0.805505 0.982716,-0.934386 1.433799,-0.934386 0.692734,0 1.417689,0.789395 1.417689,1.54657 0,1.192147 -0.225541,2.013762 -0.225541,3.173689 0,0.128881 -0.04833,0.273872 -0.04833,0.483303 0,0.144991 0.03222,0.402753 0.225542,0.402753 0.354422,0 0.483303,-0.08055 0.483303,-0.886056 0,-1.127707 0.225541,-1.868771 0.225541,-3.077029 z" />
      <path
         id="path5799"
         style="font-style:normal;font-variant:normal;font-weight:normal;font-stretch:normal;font-family:'Kidprint MT Pro';-inkscape-font-specification:'Kidprint MT Pro';text-align:center;text-anchor:middle;stroke-width:0.402754"
         d="m 61.400186,71.863807 c 0,-1.433799 -1.159927,-2.287634 -2.094313,-2.287634 -0.998826,0 -1.65934,0.741065 -1.884882,1.014936 -0.06444,-0.354422 0,-0.724954 -0.322202,-0.724954 -0.306092,0 -0.418862,0.241651 -0.418862,0.660514 0,0.322202 0.08055,0.805505 0.144991,1.321028 0.08055,0.757175 0.177211,1.192147 0.225541,1.949322 0.04833,0.757175 0.04833,1.224368 0.04833,1.949322 0,0.177211 0.03222,0.451083 0.177211,0.451083 0.338312,0 0.483303,-0.257762 0.483303,-0.418863 0,-0.789395 -0.08055,-1.192147 -0.12888,-1.965432 -0.06444,-0.789395 -0.144991,-1.965432 -0.161101,-2.223194 0.386642,-0.01611 0.354422,-0.161101 0.418862,-0.434972 0.451083,-0.805505 0.982716,-0.934386 1.433799,-0.934386 0.692734,0 1.417689,0.789395 1.417689,1.54657 0,1.192147 -0.225542,2.013762 -0.225542,3.173689 0,0.128881 -0.04833,0.273872 -0.04833,0.483303 0,0.144991 0.03222,0.402753 0.225541,0.402753 0.354423,0 0.483303,-0.08055 0.483303,-0.886056 0,-1.127707 0.225542,-1.868771 0.225542,-3.077029 z" />
      <path
         id="path5801"
         style="font-style:normal;font-variant:normal;font-weight:normal;font-stretch:normal;font-family:'Kidprint MT Pro';-inkscape-font-specification:'Kidprint MT Pro';text-align:center;text-anchor:middle;stroke-width:0.402754"
         d="m 66.784053,72.28267 c 0,-1.56268 -1.240478,-2.352075 -2.497065,-2.352075 -0.499413,0 -2.142644,0.676624 -2.142644,1.095487 0,0.177211 0.112771,0.386642 0.289982,0.386642 0.724955,0 0.853835,-0.902165 1.772111,-0.902165 0.934386,0 1.917102,0.612184 1.917102,1.997652 0,1.965432 -1.321028,2.819268 -2.303744,2.819268 -0.773285,0 -1.256588,-0.322202 -1.449909,-1.46602 -0.03222,-0.161101 -0.09666,-0.515523 -0.09666,-0.660514 0,-0.451082 0.306092,-0.660514 0.515523,-0.966606 0.09666,-0.14499 0.09666,-0.322202 0.09666,-0.434972 0,-0.209432 -0.257762,-0.225542 -0.370532,-0.225542 -0.499413,0 -0.821615,0.950496 -0.805505,1.868772 0.06444,1.997652 1.063266,2.529286 2.142643,2.529286 1.143817,0 2.932038,-1.079377 2.932038,-3.689213 z" />
      <path
         id="path5803"
         style="font-style:normal;font-variant:normal;font-weight:normal;font-stretch:normal;font-family:'Kidprint MT Pro';-inkscape-font-specification:'Kidprint MT Pro';text-align:center;text-anchor:middle;stroke-width:0.402754"
         d="m 71.746039,69.978925 c -0.531633,-0.724954 -1.224368,-1.047156 -2.094313,-1.047156 -0.934386,0 -2.609836,1.353248 -2.609836,3.27035 0,2.142643 1.546569,3.544222 2.448735,3.544222 0.982716,0 2.045983,-0.499413 2.045983,-0.966606 0,-0.209431 -0.193321,-0.370532 -0.434973,-0.370532 -0.338312,0 -0.451083,0.692734 -1.57879,0.692734 -0.708844,0 -1.884881,-1.321028 -1.884881,-2.770937 0,-1.56268 1.192147,-2.819267 1.949322,-2.819267 0.579963,0 0.902165,0.257761 1.256587,0.692734 0.177212,0.225541 0.306092,0.547743 0.628294,0.547743 0.338312,0 0.451083,-0.209431 0.451083,-0.467193 0,-0.144991 -0.144991,-0.273871 -0.177211,-0.306092 z" />
      <path
         id="path5805"
         style="font-style:normal;font-variant:normal;font-weight:normal;font-stretch:normal;font-family:'Kidprint MT Pro';-inkscape-font-specification:'Kidprint MT Pro';text-align:center;text-anchor:middle;stroke-width:0.402754"
         d="m 77.185787,71.509385 c 0,-0.708844 -0.708844,-2.045983 -1.949322,-2.045983 -0.757175,0 -1.69156,0.451083 -2.932038,1.997653 -0.418863,0.563853 -0.644404,1.321028 -0.644404,1.981542 0,1.530459 1.031046,2.915928 2.754827,2.915928 0.757175,0 1.772111,-0.144991 1.772111,-0.531633 0,-0.112771 -0.112771,-0.418863 -0.289982,-0.418863 -0.273872,0 -0.773285,0.451083 -1.014936,0.451083 -1.739891,0 -2.561506,-0.869946 -2.561506,-2.384295 0,-0.563853 0.09666,-0.902165 0.257762,-1.224367 0,0 0.03222,0.12888 0.161101,0.257761 0.14499,0.144991 0.273871,0.273872 1.127707,0.273872 1.546569,0 3.31868,-0.04833 3.31868,-1.272698 z m -4.317507,0.273872 c 0.418863,-0.789395 1.5949,-1.675451 2.255414,-1.675451 0.773285,0 1.401579,0.563854 1.401579,1.449909 0,0.177211 -0.289982,0.724955 -2.529286,0.724955 -0.434972,0 -0.676624,-0.386643 -1.176037,-0.386643 z" />
      <path
         id="path5807"
         style="font-style:normal;font-variant:normal;font-weight:normal;font-stretch:normal;font-family:'Kidprint MT Pro';-inkscape-font-specification:'Kidprint MT Pro';text-align:center;text-anchor:middle;stroke-width:0.402754"
         d="m 82.000512,71.863807 c 0,-1.433799 -1.159927,-2.287634 -2.094313,-2.287634 -0.998826,0 -1.65934,0.741065 -1.884881,1.014936 -0.06444,-0.354422 0,-0.724954 -0.322202,-0.724954 -0.306092,0 -0.418863,0.241651 -0.418863,0.660514 0,0.322202 0.08055,0.805505 0.144991,1.321028 0.08055,0.757175 0.177211,1.192147 0.225541,1.949322 0.04833,0.757175 0.04833,1.224368 0.04833,1.949322 0,0.177211 0.03222,0.451083 0.177211,0.451083 0.338312,0 0.483303,-0.257762 0.483303,-0.418863 0,-0.789395 -0.08055,-1.192147 -0.128881,-1.965432 -0.06444,-0.789395 -0.144991,-1.965432 -0.161101,-2.223194 0.386642,-0.01611 0.354422,-0.161101 0.418863,-0.434972 0.451082,-0.805505 0.982716,-0.934386 1.433799,-0.934386 0.692734,0 1.417688,0.789395 1.417688,1.54657 0,1.192147 -0.225541,2.013762 -0.225541,3.173689 0,0.128881 -0.04833,0.273872 -0.04833,0.483303 0,0.144991 0.03222,0.402753 0.225541,0.402753 0.354422,0 0.483303,-0.08055 0.483303,-0.886056 0,-1.127707 0.225541,-1.868771 0.225541,-3.077029 z" />
      <path
         id="path5809"
         style="font-style:normal;font-variant:normal;font-weight:normal;font-stretch:normal;font-family:'Kidprint MT Pro';-inkscape-font-specification:'Kidprint MT Pro';text-align:center;text-anchor:middle;stroke-width:0.402754"
         d="m 87.078288,69.978925 c -0.531634,-0.724954 -1.224368,-1.047156 -2.094313,-1.047156 -0.934386,0 -2.609836,1.353248 -2.609836,3.27035 0,2.142643 1.546569,3.544222 2.448735,3.544222 0.982716,0 2.045982,-0.499413 2.045982,-0.966606 0,-0.209431 -0.193321,-0.370532 -0.434972,-0.370532 -0.338312,0 -0.451083,0.692734 -1.57879,0.692734 -0.708844,0 -1.884882,-1.321028 -1.884882,-2.770937 0,-1.56268 1.192148,-2.819267 1.949322,-2.819267 0.579964,0 0.902166,0.257761 1.256588,0.692734 0.177211,0.225541 0.306092,0.547743 0.628294,0.547743 0.338312,0 0.451083,-0.209431 0.451083,-0.467193 0,-0.144991 -0.144991,-0.273871 -0.177211,-0.306092 z" />
      <path
         id="path5811"
         style="font-style:normal;font-variant:normal;font-weight:normal;font-stretch:normal;font-family:'Kidprint MT Pro';-inkscape-font-specification:'Kidprint MT Pro';text-align:center;text-anchor:middle;stroke-width:0.402754"
         d="m 92.51804,71.509385 c 0,-0.708844 -0.708845,-2.045983 -1.949322,-2.045983 -0.757175,0 -1.691561,0.451083 -2.932039,1.997653 -0.418862,0.563853 -0.644404,1.321028 -0.644404,1.981542 0,1.530459 1.031047,2.915928 2.754827,2.915928 0.757175,0 1.772111,-0.144991 1.772111,-0.531633 0,-0.112771 -0.11277,-0.418863 -0.289981,-0.418863 -0.273872,0 -0.773285,0.451083 -1.014937,0.451083 -1.73989,0 -2.561506,-0.869946 -2.561506,-2.384295 0,-0.563853 0.09666,-0.902165 0.257762,-1.224367 0,0 0.03222,0.12888 0.161101,0.257761 0.144991,0.144991 0.273872,0.273872 1.127707,0.273872 1.54657,0 3.318681,-0.04833 3.318681,-1.272698 z m -4.317507,0.273872 c 0.418862,-0.789395 1.5949,-1.675451 2.255414,-1.675451 0.773285,0 1.401578,0.563854 1.401578,1.449909 0,0.177211 -0.289981,0.724955 -2.529285,0.724955 -0.434973,0 -0.676624,-0.386643 -1.176037,-0.386643 z" />
      <path
         id="path5813"
         style="font-style:normal;font-variant:normal;font-weight:normal;font-stretch:normal;font-family:'Kidprint MT Pro';-inkscape-font-specification:'Kidprint MT Pro';text-align:center;text-anchor:middle;stroke-width:0.402754"
         d="m 101.79638,69.656723 c 0,-0.499413 -0.20943,-0.612183 -0.56385,-0.612183 -0.32221,0 -0.38665,0.612183 -0.38665,0.886055 -0.1611,-0.209431 -0.902162,-0.483303 -1.369355,-0.483303 -1.852662,0 -3.012589,1.321028 -3.012589,3.25424 0,1.482129 0.966606,2.899818 2.045983,2.899818 1.707671,0 2.497061,-1.739891 2.497061,-1.739891 0,0 -0.0644,1.063267 -0.0644,1.48213 0,0.451082 0.22555,0.531633 0.54775,0.531633 0.0806,0 0.19332,-0.08055 0.19332,-0.177211 0,-0.563854 -0.0967,-1.57879 -0.0967,-2.851488 0,-0.451083 0.20943,-2.561506 0.20943,-3.1898 z m -0.80551,2.094313 c 0,1.353249 -0.88605,3.270351 -2.33596,3.270351 -1.192148,0 -1.53046,-1.433799 -1.53046,-2.448735 0,-1.224368 0.741065,-2.625947 2.464845,-2.625947 0.370533,0 0.886055,0.612184 1.047155,0.612184 0.22554,0 0.30609,-0.06444 0.30609,-0.06444 0,0 0.0483,0.789395 0.0483,1.256587 z" />
      <path
         id="path5815"
         style="font-style:normal;font-variant:normal;font-weight:normal;font-stretch:normal;font-family:'Kidprint MT Pro';-inkscape-font-specification:'Kidprint MT Pro';text-align:center;text-anchor:middle;stroke-width:0.402754"
         d="m 107.05388,71.863807 c 0,-1.433799 -1.15992,-2.287634 -2.09431,-2.287634 -0.99883,0 -1.65934,0.741065 -1.88488,1.014936 -0.0644,-0.354422 0,-0.724954 -0.3222,-0.724954 -0.30609,0 -0.41887,0.241651 -0.41887,0.660514 0,0.322202 0.0806,0.805505 0.145,1.321028 0.0805,0.757175 0.17721,1.192147 0.22554,1.949322 0.0483,0.757175 0.0483,1.224368 0.0483,1.949322 0,0.177211 0.0322,0.451083 0.17721,0.451083 0.33831,0 0.4833,-0.257762 0.4833,-0.418863 0,-0.789395 -0.0806,-1.192147 -0.12888,-1.965432 -0.0644,-0.789395 -0.14499,-1.965432 -0.1611,-2.223194 0.38664,-0.01611 0.35442,-0.161101 0.41886,-0.434972 0.45108,-0.805505 0.98272,-0.934386 1.4338,-0.934386 0.69274,0 1.41769,0.789395 1.41769,1.54657 0,1.192147 -0.22554,2.013762 -0.22554,3.173689 0,0.128881 -0.0483,0.273872 -0.0483,0.483303 0,0.144991 0.0322,0.402753 0.22554,0.402753 0.35442,0 0.4833,-0.08055 0.4833,-0.886056 0,-1.127707 0.22554,-1.868771 0.22554,-3.077029 z" />
      <path
         id="path5817"
         style="font-style:normal;font-variant:normal;font-weight:normal;font-stretch:normal;font-family:'Kidprint MT Pro';-inkscape-font-specification:'Kidprint MT Pro';text-align:center;text-anchor:middle;stroke-width:0.402754"
         d="m 113.35602,67.916833 c 0.0806,-0.322202 0.20943,-0.998827 0.20943,-1.62712 0,-0.128881 -0.0806,-0.338313 -0.3222,-0.338313 -0.35442,0 -0.43497,0.273872 -0.43497,0.531634 0,0.934386 -0.59607,3.963084 -0.59607,3.963084 -0.28999,-0.692734 -1.15993,-1.014936 -1.62712,-1.014936 -1.85267,0 -3.30257,1.176037 -3.30257,3.109249 0,1.64323 1.25658,3.028699 2.49706,3.028699 1.70767,0 2.33597,-1.353248 2.33597,-1.353248 0,0 -0.0644,0.708844 -0.0644,1.127707 0,0.289981 0.22555,0.531633 0.54775,0.531633 0.0806,0 0.19332,-0.08055 0.19332,-0.177211 0,-0.563854 -0.0483,-0.934386 -0.0483,-2.207084 0,-0.451083 0.0967,-3.560332 0.61218,-5.574094 z m -1.20825,4.575268 c 0,1.224368 -0.77329,2.432625 -2.28764,2.432625 -0.99882,0 -1.9171,-1.143817 -1.9171,-2.352074 0,-1.417689 0.93439,-2.561506 2.65817,-2.561506 0.88605,0 1.51435,1.353248 1.51435,1.353248 0,0 0.0322,0.886056 0.0322,1.127707 z" />
      <path
         id="path5819"
         style="font-style:normal;font-variant:normal;font-weight:normal;font-stretch:normal;font-family:'Kidprint MT Pro';-inkscape-font-specification:'Kidprint MT Pro';text-align:center;text-anchor:middle;stroke-width:0.402754"
         d="m 118.7682,66.805236 c 0,0.853835 0.0806,2.722607 0.0806,2.722607 0,0 -1.06327,-0.03222 -1.54657,-0.03222 -0.14499,0 -0.24165,0.06444 -0.24165,0.241652 0,0.161101 0.20943,0.338312 0.46719,0.338312 0.40275,0 1.28881,0.01611 1.28881,0.01611 0,0 -0.40275,3.495892 -0.40275,5.058571 0,0.676625 0.3222,1.127707 1.40158,1.127707 0.6444,0 1.40157,-0.402752 1.40157,-0.789394 0,-0.225542 -0.0161,-0.402753 -0.20943,-0.402753 -0.41886,0 -0.57996,0.547743 -1.30492,0.547743 -0.28998,0 -0.57996,-0.177211 -0.57996,-0.547743 0,-1.482129 0.30609,-4.92969 0.30609,-4.92969 0,0 0.7894,0.04833 1.22437,0.04833 0.25776,0 0.59607,-0.209431 0.59607,-0.418863 0,-0.193321 -0.17721,-0.402752 -0.43497,-0.402752 -0.11277,0 -0.24165,0.08055 -0.38664,0.128881 -0.33831,0.09666 -0.91828,0.08055 -0.91828,0.08055 0,0 -0.0806,-1.723781 -0.0806,-2.738717 0,-0.193321 0.22554,-0.209431 0.22554,-0.289982 0,-0.177211 -0.0644,-0.338312 -0.43497,-0.338312 -0.25776,0 -0.45108,0.322202 -0.45108,0.579964 z" />
      <path
         id="path5821"
         style="font-style:normal;font-variant:normal;font-weight:normal;font-stretch:normal;font-family:'Kidprint MT Pro';-inkscape-font-specification:'Kidprint MT Pro';text-align:center;text-anchor:middle;stroke-width:0.402754"
         d="m 121.52712,66.531364 c 0,0.322202 -0.11277,2.593726 -0.11277,4.188626 0,1.739891 0.11277,4.736369 0.11277,5.026351 0,0.161101 0.0161,0.402753 0.14499,0.402753 0.3061,0 0.51553,-0.225542 0.51553,-0.370533 0,-0.789395 -0.0967,-1.192147 -0.11277,-1.965432 -0.0322,-0.966606 -0.0644,-2.464845 -0.0644,-2.464845 0.45108,-0.676624 1.30491,-1.176037 1.90099,-1.176037 0.70884,0 1.57879,0.934385 1.77211,1.69156 0.3222,1.224368 0.33831,1.852662 0.33831,3.012589 0,0.128881 -0.0644,0.499413 -0.0644,0.708844 0,0.128881 0.11277,0.289982 0.28998,0.289982 0.33832,0 0.43498,-0.08055 0.43498,-0.837725 0,-1.127707 -0.0806,-1.933212 -0.33832,-3.077029 -0.37053,-1.64323 -1.53046,-2.368185 -2.44873,-2.368185 -1.06327,0 -1.73989,0.660514 -1.90099,0.869945 0,-1.127707 0.28998,-3.3509 0.28998,-3.979194 0,-0.499413 -0.27387,-0.579964 -0.37053,-0.579964 -0.28999,0 -0.38665,0.241652 -0.38665,0.628294 z" />
      <path
         id="path5823"
         style="font-style:normal;font-variant:normal;font-weight:normal;font-stretch:normal;font-family:'Kidprint MT Pro';-inkscape-font-specification:'Kidprint MT Pro';text-align:center;text-anchor:middle;stroke-width:0.402754"
         d="m 132.27742,71.509385 c 0,-0.708844 -0.70885,-2.045983 -1.94933,-2.045983 -0.75717,0 -1.69156,0.451083 -2.93203,1.997653 -0.41887,0.563853 -0.64441,1.321028 -0.64441,1.981542 0,1.530459 1.03105,2.915928 2.75483,2.915928 0.75717,0 1.77211,-0.144991 1.77211,-0.531633 0,-0.112771 -0.11277,-0.418863 -0.28998,-0.418863 -0.27387,0 -0.77329,0.451083 -1.01494,0.451083 -1.73989,0 -2.5615,-0.869946 -2.5615,-2.384295 0,-0.563853 0.0967,-0.902165 0.25776,-1.224367 0,0 0.0322,0.12888 0.1611,0.257761 0.14499,0.144991 0.27387,0.273872 1.12771,0.273872 1.54657,0 3.31868,-0.04833 3.31868,-1.272698 z m -4.31751,0.273872 c 0.41886,-0.789395 1.5949,-1.675451 2.25541,-1.675451 0.77329,0 1.40158,0.563854 1.40158,1.449909 0,0.177211 -0.28998,0.724955 -2.52928,0.724955 -0.43498,0 -0.67663,-0.386643 -1.17604,-0.386643 z" />
      <path
         id="path5825"
         style="font-style:normal;font-variant:normal;font-weight:normal;font-stretch:normal;font-family:'Kidprint MT Pro';-inkscape-font-specification:'Kidprint MT Pro';text-align:center;text-anchor:middle;stroke-width:0.402754"
         d="m 148.43478,67.5463 c 0,-0.499413 -0.43498,-1.031046 -0.88606,-1.031046 -0.24165,0 -0.3222,0.241651 -0.3222,0.386642 0,0.177211 0.53163,0.692735 0.4833,1.127707 -0.1611,1.61101 -1.65934,5.429104 -2.02987,7.539527 -0.40275,-1.804331 -2.56151,-6.121838 -3.65699,-7.313985 -0.0483,-0.128881 -0.20944,-0.177211 -0.37054,-0.177211 -0.22554,0 -0.45108,0.11277 -0.45108,0.273871 -0.0322,2.497066 -1.86877,6.556811 -2.2393,6.846793 -0.48331,-1.756001 -1.86877,-6.025178 -1.86877,-7.99061 0,-0.612184 -0.0967,-0.821615 -0.53164,-0.821615 -0.17721,0 -0.28998,0.193321 -0.28998,0.547744 0,2.271524 1.15993,5.590204 2.15875,8.989435 -0.0967,0.193321 -0.3222,0.354422 -0.3222,0.563854 0,0.161101 0.14499,0.338312 0.53164,0.338312 0.11277,0 0.27387,-0.306092 0.27387,-0.306092 0,0 0.57996,-0.03222 0.57996,-0.193321 0,-0.193321 -0.1611,-0.402753 -0.1611,-0.402753 0.78939,-1.224367 2.35207,-5.090791 2.46484,-6.701801 1.35325,1.65934 2.73872,4.83303 3.51201,7.217324 0.0322,0.128881 0.1611,0.370533 0.37053,0.370533 0.24165,0 0.62829,-0.06444 0.62829,-0.225542 0,-0.177211 -0.17721,-0.370532 -0.17721,-0.370532 0.51552,-2.513176 2.30375,-7.024003 2.30375,-8.667234 z" />
      <path
         id="path5827"
         style="font-style:normal;font-variant:normal;font-weight:normal;font-stretch:normal;font-family:'Kidprint MT Pro';-inkscape-font-specification:'Kidprint MT Pro';text-align:center;text-anchor:middle;stroke-width:0.402754"
         d="m 153.12767,72.28267 c 0,-1.56268 -1.24048,-2.352075 -2.49707,-2.352075 -0.49941,0 -2.14264,0.676624 -2.14264,1.095487 0,0.177211 0.11277,0.386642 0.28998,0.386642 0.72495,0 0.85383,-0.902165 1.77211,-0.902165 0.93439,0 1.9171,0.612184 1.9171,1.997652 0,1.965432 -1.32103,2.819268 -2.30374,2.819268 -0.77329,0 -1.25659,-0.322202 -1.44991,-1.46602 -0.0322,-0.161101 -0.0967,-0.515523 -0.0967,-0.660514 0,-0.451082 0.30609,-0.660514 0.51552,-0.966606 0.0967,-0.14499 0.0967,-0.322202 0.0967,-0.434972 0,-0.209432 -0.25776,-0.225542 -0.37053,-0.225542 -0.49941,0 -0.82162,0.950496 -0.80551,1.868772 0.0644,1.997652 1.06327,2.529286 2.14265,2.529286 1.14381,0 2.93204,-1.079377 2.93204,-3.689213 z" />
      <path
         id="path5829"
         style="font-style:normal;font-variant:normal;font-weight:normal;font-stretch:normal;font-family:'Kidprint MT Pro';-inkscape-font-specification:'Kidprint MT Pro';text-align:center;text-anchor:middle;stroke-width:0.402754"
         d="m 157.50968,71.686596 c 0.22555,0.01611 0.37054,-0.08055 0.37054,-0.451083 0,-1.337138 -0.67663,-1.433799 -1.61101,-1.433799 -0.99883,0 -1.67545,0.515524 -1.901,0.789395 -0.0644,-0.354422 0,-1.095487 -0.3222,-1.095487 -0.30609,0 -0.41886,0.241652 -0.41886,0.660515 0,0.322202 0.1611,1.176037 0.1611,1.69156 0,0.757175 -0.0322,1.159927 -0.0322,1.917102 0,0.757175 0.0805,1.256588 0.0805,1.981542 0,0.177211 0.0483,0.451083 0.19332,0.451083 0.33831,0 0.49942,-0.257762 0.49942,-0.418863 0,-0.789395 -0.145,-1.192147 -0.145,-1.965432 0,-0.789395 0.0483,-2.110423 0.0322,-2.368184 0,0 0.78939,-0.998827 1.67545,-0.998827 0.57996,0 1.1277,-0.04833 1.1277,0.708845 0,0.467193 0.0483,0.515523 0.28998,0.531633 z" />
      <path
         id="path5831"
         style="font-style:normal;font-variant:normal;font-weight:normal;font-stretch:normal;font-family:'Kidprint MT Pro';-inkscape-font-specification:'Kidprint MT Pro';text-align:center;text-anchor:middle;stroke-width:0.402754"
         d="m 163.82694,67.916833 c 0.0805,-0.322202 0.20943,-0.998827 0.20943,-1.62712 0,-0.128881 -0.0806,-0.338313 -0.3222,-0.338313 -0.35442,0 -0.43497,0.273872 -0.43497,0.531634 0,0.934386 -0.59608,3.963084 -0.59608,3.963084 -0.28998,-0.692734 -1.15992,-1.014936 -1.62712,-1.014936 -1.85266,0 -3.30257,1.176037 -3.30257,3.109249 0,1.64323 1.25659,3.028699 2.49707,3.028699 1.70767,0 2.33596,-1.353248 2.33596,-1.353248 0,0 -0.0644,0.708844 -0.0644,1.127707 0,0.289981 0.22554,0.531633 0.54774,0.531633 0.0806,0 0.19333,-0.08055 0.19333,-0.177211 0,-0.563854 -0.0483,-0.934386 -0.0483,-2.207084 0,-0.451083 0.0967,-3.560332 0.61218,-5.574094 z m -1.20826,4.575268 c 0,1.224368 -0.77328,2.432625 -2.28763,2.432625 -0.99883,0 -1.9171,-1.143817 -1.9171,-2.352074 0,-1.417689 0.93438,-2.561506 2.65816,-2.561506 0.88606,0 1.51435,1.353248 1.51435,1.353248 0,0 0.0322,0.886056 0.0322,1.127707 z" />
      <path
         id="path5833"
         style="font-style:normal;font-variant:normal;font-weight:normal;font-stretch:normal;font-family:'Kidprint MT Pro';-inkscape-font-specification:'Kidprint MT Pro';text-align:center;text-anchor:middle;stroke-width:0.402754"
         d="m 174.82931,73.088175 c 0,-0.209432 -0.20943,-0.418863 -0.30609,-0.418863 -0.27387,0 -0.43497,0.177211 -0.62829,0.579964 -0.43498,0.950496 -1.04716,1.546569 -1.86878,1.546569 -1.57878,0 -3.17368,-1.272698 -3.17368,-3.28646 0,-2.883708 1.756,-4.156406 3.25424,-4.156406 0.41886,0 1.38546,0.144991 1.69156,0.837725 0.27387,0.612184 0.40275,0.853836 0.59607,0.853836 0.25776,0 0.46719,-0.144991 0.46719,-0.225542 0,-0.660514 -0.0644,-0.789395 -0.62829,-1.401578 -0.49941,-0.547744 -1.53046,-0.644404 -2.20709,-0.644404 -1.62712,0 -3.8342,1.466019 -3.8342,4.736369 0,2.110423 1.72378,3.930864 3.57644,3.930864 0.99883,0 2.02988,-0.451083 2.83538,-1.756001 0.12888,-0.225541 0.22554,-0.467193 0.22554,-0.596073 z" />
      <path
         id="path5835"
         style="font-style:normal;font-variant:normal;font-weight:normal;font-stretch:normal;font-family:'Kidprint MT Pro';-inkscape-font-specification:'Kidprint MT Pro';text-align:center;text-anchor:middle;stroke-width:0.402754"
         d="m 180.03748,72.28267 c 0,-1.56268 -1.24048,-2.352075 -2.49707,-2.352075 -0.49941,0 -2.14264,0.676624 -2.14264,1.095487 0,0.177211 0.11277,0.386642 0.28998,0.386642 0.72496,0 0.85384,-0.902165 1.77211,-0.902165 0.93439,0 1.9171,0.612184 1.9171,1.997652 0,1.965432 -1.32102,2.819268 -2.30374,2.819268 -0.77328,0 -1.25659,-0.322202 -1.44991,-1.46602 -0.0322,-0.161101 -0.0967,-0.515523 -0.0967,-0.660514 0,-0.451082 0.30609,-0.660514 0.51552,-0.966606 0.0967,-0.14499 0.0967,-0.322202 0.0967,-0.434972 0,-0.209432 -0.25776,-0.225542 -0.37053,-0.225542 -0.49941,0 -0.82161,0.950496 -0.8055,1.868772 0.0644,1.997652 1.06326,2.529286 2.14264,2.529286 1.14382,0 2.93204,-1.079377 2.93204,-3.689213 z" />
      <path
         id="path5837"
         style="font-style:normal;font-variant:normal;font-weight:normal;font-stretch:normal;font-family:'Kidprint MT Pro';-inkscape-font-specification:'Kidprint MT Pro';text-align:center;text-anchor:middle;stroke-width:0.402754"
         d="m 184.99945,69.978925 c -0.53163,-0.724954 -1.22436,-1.047156 -2.09431,-1.047156 -0.93439,0 -2.60984,1.353248 -2.60984,3.27035 0,2.142643 1.54657,3.544222 2.44874,3.544222 0.98272,0 2.04598,-0.499413 2.04598,-0.966606 0,-0.209431 -0.19332,-0.370532 -0.43497,-0.370532 -0.33831,0 -0.45108,0.692734 -1.57879,0.692734 -0.70884,0 -1.88488,-1.321028 -1.88488,-2.770937 0,-1.56268 1.19215,-2.819267 1.94932,-2.819267 0.57996,0 0.90217,0.257761 1.25659,0.692734 0.17721,0.225541 0.30609,0.547743 0.62829,0.547743 0.33831,0 0.45108,-0.209431 0.45108,-0.467193 0,-0.144991 -0.14499,-0.273871 -0.17721,-0.306092 z" />
      <path
         id="path5839"
         style="font-style:normal;font-variant:normal;font-weight:normal;font-stretch:normal;font-family:'Kidprint MT Pro';-inkscape-font-specification:'Kidprint MT Pro';text-align:center;text-anchor:middle;stroke-width:0.402754"
         d="m 187.0722,71.283844 c 0,0 0.83773,0.998826 1.61101,1.836551 1.14382,1.240478 2.27153,3.125359 2.48096,3.125359 0.37053,0 0.54774,-0.09666 0.54774,-0.322202 0,-0.241651 -0.0805,-0.402752 -0.28998,-0.644404 -0.69274,-0.805505 -1.28881,-1.482129 -2.09431,-2.416515 l -1.77212,-2.062092 c 0,0 0.64441,-0.515524 1.09549,-0.773285 0.83773,-0.467193 1.40158,-0.628294 2.35208,-0.805505 0.43497,-0.08055 0.54774,-0.177211 0.54774,-0.451083 0,-0.209431 -0.19332,-0.386642 -0.41886,-0.386642 -0.86995,0 -1.56268,0.434972 -2.48096,0.902165 -1.01493,0.515523 -1.85266,1.449909 -2.4004,1.707671 0,0 0.77328,-3.528112 0.77328,-4.929691 0,-0.241651 -0.17721,-0.402752 -0.35442,-0.402752 -0.38664,0 -0.40275,0.161101 -0.40275,0.386642 0,2.126533 -0.64441,4.333617 -0.77329,5.525764 -0.14499,1.401579 -0.28998,2.384295 -0.28998,3.544222 0,0.386643 -0.0161,0.676624 0.35442,0.676624 0.4672,0 0.45109,-0.225541 0.45109,-0.467192 0,-0.402753 -0.145,-0.869946 -0.145,-1.176038 0,-0.966606 0.25777,-2.303744 0.25777,-2.303744 z" />
    </g>
  </g>
</svg>
