<?xml version="1.0" encoding="UTF-8" standalone="no"?>
<svg
   xmlns:dc="http://purl.org/dc/elements/1.1/"
   xmlns:cc="http://creativecommons.org/ns#"
   xmlns:rdf="http://www.w3.org/1999/02/22-rdf-syntax-ns#"
   xmlns:svg="http://www.w3.org/2000/svg"
   xmlns="http://www.w3.org/2000/svg"
   xmlns:sodipodi="http://sodipodi.sourceforge.net/DTD/sodipodi-0.dtd"
   xmlns:inkscape="http://www.inkscape.org/namespaces/inkscape"
   sodipodi:docname="atthestand.svg"
   inkscape:version="1.0 (4035a4fb49, 2020-05-01)"
   id="svg1732"
   version="1.1"
   viewBox="0 0 106.47379 7.3018551"
   height="7.3018551mm"
   width="106.47379mm">
  <defs
     id="defs1726" />
  <sodipodi:namedview
     inkscape:window-maximized="0"
     inkscape:window-y="61"
     inkscape:window-x="2430"
     inkscape:window-height="1032"
     inkscape:window-width="1274"
     fit-margin-bottom="0"
     fit-margin-right="0"
     fit-margin-left="0"
     fit-margin-top="0"
     showgrid="false"
     inkscape:document-rotation="0"
     inkscape:current-layer="layer1"
     inkscape:document-units="mm"
     inkscape:cy="185.22736"
     inkscape:cx="246.92458"
     inkscape:zoom="0.35"
     inkscape:pageshadow="2"
     inkscape:pageopacity="0.0"
     borderopacity="1.0"
     bordercolor="#666666"
     pagecolor="#ffffff"
     id="base" />
  <metadata
     id="metadata1729">
    <rdf:RDF>
      <cc:Work
         rdf:about="">
        <dc:format>image/svg+xml</dc:format>
        <dc:type
           rdf:resource="http://purl.org/dc/dcmitype/StillImage" />
        <dc:title></dc:title>
      </cc:Work>
    </rdf:RDF>
  </metadata>
  <g
     transform="translate(-40.501204,-99.158595)"
     id="layer1"
     inkscape:groupmode="layer"
     inkscape:label="Layer 1">
    <g
       style="font-size:10.5833px;line-height:1.25;font-family:lego;-inkscape-font-specification:lego;letter-spacing:0px;opacity:1;stroke-width:0.264583"
       id="text1714"
       aria-label="daniel kitson at the stand">
      <path
         id="path2303"
         style="font-style:normal;font-variant:normal;font-weight:normal;font-stretch:normal;font-family:'Gill Sans MT';-inkscape-font-specification:'Gill Sans MT';stroke-width:0.264583"
         d="m 43.875664,99.158595 h 0.945676 v 7.219175 h -2.010207 q -1.054196,0 -1.684646,-0.66662 -0.625283,-0.66663 -0.625283,-1.788 0,-1.04903 0.656289,-1.72599 0.661456,-0.67696 1.684646,-0.67696 0.475422,0 1.033525,0.20154 z m 0,6.413025 v -3.01273 q -0.439248,-0.2222 -0.888832,-0.2222 -0.702797,0 -1.121375,0.45991 -0.41341,0.45992 -0.41341,1.24023 0,0.73381 0.361734,1.13171 0.21704,0.23772 0.459919,0.3204 0.242878,0.0827 0.873329,0.0827 z" />
      <path
         id="path2305"
         style="font-style:normal;font-variant:normal;font-weight:normal;font-stretch:normal;font-family:'Gill Sans MT';-inkscape-font-specification:'Gill Sans MT';stroke-width:0.264583"
         d="m 49.084632,103.52007 v 2.02054 q 0,0.24288 0.165364,0.24288 0.170532,0 0.532266,-0.25321 v 0.57361 q -0.320393,0.2067 -0.516763,0.27905 -0.191202,0.0775 -0.403075,0.0775 -0.604612,0 -0.713132,-0.47542 -0.599445,0.46509 -1.276404,0.46509 -0.496092,0 -0.82682,-0.32556 -0.330729,-0.33073 -0.330729,-0.82682 0,-0.44959 0.320393,-0.80099 0.325561,-0.35656 0.919838,-0.56327 l 1.204057,-0.41341 v -0.25321 q 0,-0.85783 -0.857826,-0.85783 -0.769977,0 -1.498612,0.79582 v -1.02836 q 0.547768,-0.64595 1.576126,-0.64595 0.769977,0 1.235063,0.40307 0.155029,0.12919 0.279052,0.34623 0.124023,0.21187 0.155029,0.42891 0.03617,0.21188 0.03617,0.81132 z m -0.925005,1.91719 v -1.41076 l -0.630451,0.24288 q -0.480589,0.1912 -0.682126,0.38757 -0.19637,0.1912 -0.19637,0.48059 0,0.29455 0.186034,0.48059 0.191203,0.18603 0.490925,0.18603 0.449583,0 0.831988,-0.3669 z" />
      <path
         id="path2307"
         style="font-style:normal;font-variant:normal;font-weight:normal;font-stretch:normal;font-family:'Gill Sans MT';-inkscape-font-specification:'Gill Sans MT';stroke-width:0.264583"
         d="m 51.565093,101.62355 v 0.60462 q 0.63045,-0.69763 1.431433,-0.69763 0.444416,0 0.82682,0.23254 0.382404,0.22737 0.578774,0.63045 0.201538,0.39791 0.201538,1.26607 v 2.71817 h -0.940509 v -2.70784 q 0,-0.72863 -0.222207,-1.03869 -0.222208,-0.31523 -0.744139,-0.31523 -0.666624,0 -1.13171,0.66663 v 3.39513 h -0.961179 v -4.75422 z" />
      <path
         id="path2309"
         style="font-style:normal;font-variant:normal;font-weight:normal;font-stretch:normal;font-family:'Gill Sans MT';-inkscape-font-specification:'Gill Sans MT';stroke-width:0.264583"
         d="m 56.401992,99.623681 q 0.232543,0 0.397907,0.160197 0.165364,0.160196 0.165364,0.392742 0,0.22737 -0.165364,0.39274 -0.165364,0.16536 -0.397907,0.16536 -0.217041,0 -0.382405,-0.16536 -0.165364,-0.17053 -0.165364,-0.39274 0,-0.217043 0.165364,-0.382407 0.165364,-0.170532 0.382405,-0.170532 z m -0.465087,1.999869 h 0.940508 v 4.75422 h -0.940508 z" />
      <path
         id="path2311"
         style="font-style:normal;font-variant:normal;font-weight:normal;font-stretch:normal;font-family:'Gill Sans MT';-inkscape-font-specification:'Gill Sans MT';stroke-width:0.264583"
         d="m 62.282752,104.08334 h -3.343455 q 0.03617,0.68213 0.454752,1.0852 0.423745,0.40308 1.090369,0.40308 0.930173,0 1.715652,-0.57877 v 0.91983 q -0.434081,0.28939 -0.862994,0.41341 -0.423745,0.12403 -0.997352,0.12403 -0.785479,0 -1.271236,-0.32556 -0.485757,-0.32556 -0.780312,-0.87333 -0.289387,-0.55294 -0.289387,-1.27641 0,-1.0852 0.614948,-1.76216 0.614948,-0.68212 1.596797,-0.68212 0.945675,0 1.508947,0.66145 0.563271,0.66146 0.563271,1.7725 z m -3.322784,-0.56327 h 2.392611 q -0.03617,-0.56327 -0.335896,-0.86816 -0.299722,-0.30489 -0.806149,-0.30489 -0.506428,0 -0.831988,0.30489 -0.320393,0.30489 -0.418578,0.86816 z" />
      <path
         id="path2313"
         style="font-style:normal;font-variant:normal;font-weight:normal;font-stretch:normal;font-family:'Gill Sans MT';-inkscape-font-specification:'Gill Sans MT';stroke-width:0.264583"
         d="m 63.316277,99.158595 h 0.940508 v 7.219175 h -0.940508 z" />
      <path
         id="path2315"
         style="font-style:normal;font-variant:normal;font-weight:normal;font-stretch:normal;font-family:'Gill Sans MT';-inkscape-font-specification:'Gill Sans MT';stroke-width:0.264583"
         d="m 71.636156,101.62355 h 1.121375 l -2.030877,2.3306 2.444287,2.42362 H 71.91004 l -2.382276,-2.42362 z m -3.090241,-2.464955 h 0.940508 v 7.219175 h -0.940508 z" />
      <path
         id="path2317"
         style="font-style:normal;font-variant:normal;font-weight:normal;font-stretch:normal;font-family:'Gill Sans MT';-inkscape-font-specification:'Gill Sans MT';stroke-width:0.264583"
         d="m 74.095946,99.623681 q 0.232543,0 0.397907,0.160197 0.165364,0.160196 0.165364,0.392742 0,0.22737 -0.165364,0.39274 -0.165364,0.16536 -0.397907,0.16536 -0.21704,0 -0.382404,-0.16536 -0.165364,-0.17053 -0.165364,-0.39274 0,-0.217043 0.165364,-0.382407 0.165364,-0.170532 0.382404,-0.170532 z m -0.465086,1.999869 h 0.940508 v 4.75422 H 73.63086 Z" />
      <path
         id="path2319"
         style="font-style:normal;font-variant:normal;font-weight:normal;font-stretch:normal;font-family:'Gill Sans MT';-inkscape-font-specification:'Gill Sans MT';stroke-width:0.264583"
         d="m 75.258663,102.37803 1.767329,-1.73633 v 0.98185 h 1.503779 v 0.84749 h -1.503779 v 2.3306 q 0,0.81649 0.676959,0.81649 0.506427,0 1.069698,-0.34107 v 0.8785 q -0.5426,0.30489 -1.183386,0.30489 -0.645953,0 -1.074867,-0.37724 -0.134358,-0.11368 -0.222207,-0.25321 -0.08785,-0.14469 -0.149862,-0.37207 -0.05684,-0.23254 -0.05684,-0.87849 v -2.1084 h -0.82682 z" />
      <path
         id="path2321"
         style="font-style:normal;font-variant:normal;font-weight:normal;font-stretch:normal;font-family:'Gill Sans MT';-inkscape-font-specification:'Gill Sans MT';stroke-width:0.264583"
         d="m 79.2274,106.03671 v -1.01286 q 0.397908,0.27905 0.811318,0.45475 0.418578,0.17053 0.702797,0.17053 0.294555,0 0.506427,-0.14469 0.211873,-0.14469 0.211873,-0.34623 0,-0.20671 -0.139526,-0.34106 -0.134358,-0.13953 -0.589109,-0.39791 -0.909503,-0.50643 -1.193722,-0.86299 -0.279052,-0.36174 -0.279052,-0.78548 0,-0.54777 0.423746,-0.894 0.428913,-0.34623 1.100704,-0.34623 0.69763,0 1.431433,0.39274 v 0.93017 q -0.837156,-0.50643 -1.369421,-0.50643 -0.273885,0 -0.444416,0.11886 -0.165364,0.11368 -0.165364,0.30489 0,0.16536 0.149861,0.31522 0.155029,0.14986 0.537433,0.36174 l 0.335896,0.1912 q 1.188554,0.67179 1.188554,1.48827 0,0.58395 -0.459919,0.96118 -0.454751,0.37207 -1.173051,0.37207 -0.423746,0 -0.754474,-0.0878 -0.330728,-0.093 -0.831988,-0.33589 z" />
      <path
         id="path2323"
         style="font-style:normal;font-variant:normal;font-weight:normal;font-stretch:normal;font-family:'Gill Sans MT';-inkscape-font-specification:'Gill Sans MT';stroke-width:0.264583"
         d="m 85.805789,101.61322 q 1.085202,0 1.803502,0.70279 0.7183,0.69763 0.7183,1.757 0,1.02836 -0.728635,1.71048 -0.728635,0.67696 -1.834508,0.67696 -1.069698,0 -1.787998,-0.68729 -0.718301,-0.69246 -0.718301,-1.72599 0,-1.04386 0.723468,-1.73632 0.728636,-0.69763 1.824172,-0.69763 z m -0.05168,0.84749 q -0.676959,0 -1.11104,0.44441 -0.43408,0.44442 -0.43408,1.13171 0,0.68213 0.444416,1.11621 0.444416,0.42891 1.142045,0.42891 0.692462,0 1.13171,-0.43408 0.444416,-0.43924 0.444416,-1.12137 0,-0.67696 -0.459918,-1.12138 -0.459919,-0.44441 -1.157549,-0.44441 z" />
      <path
         id="path2325"
         style="font-style:normal;font-variant:normal;font-weight:normal;font-stretch:normal;font-family:'Gill Sans MT';-inkscape-font-specification:'Gill Sans MT';stroke-width:0.264583"
         d="m 90.322292,101.62355 v 0.60462 q 0.630451,-0.69763 1.431433,-0.69763 0.444416,0 0.82682,0.23254 0.382405,0.22737 0.578774,0.63045 0.201538,0.39791 0.201538,1.26607 v 2.71817 h -0.940508 v -2.70784 q 0,-0.72863 -0.222208,-1.03869 -0.222208,-0.31523 -0.744138,-0.31523 -0.666624,0 -1.131711,0.66663 v 3.39513 h -0.961178 v -4.75422 z" />
      <path
         id="path2327"
         style="font-style:normal;font-variant:normal;font-weight:normal;font-stretch:normal;font-family:'Gill Sans MT';-inkscape-font-specification:'Gill Sans MT';stroke-width:0.264583"
         d="m 100.59554,103.52007 v 2.02054 q 0,0.24288 0.16536,0.24288 0.17053,0 0.53227,-0.25321 v 0.57361 q -0.3204,0.2067 -0.51677,0.27905 -0.1912,0.0775 -0.40307,0.0775 -0.604614,0 -0.713134,-0.47542 -0.599445,0.46509 -1.276404,0.46509 -0.496092,0 -0.82682,-0.32556 -0.330728,-0.33073 -0.330728,-0.82682 0,-0.44959 0.320393,-0.80099 0.32556,-0.35656 0.919837,-0.56327 l 1.204057,-0.41341 v -0.25321 q 0,-0.85783 -0.857826,-0.85783 -0.769976,0 -1.498612,0.79582 v -1.02836 q 0.547769,-0.64595 1.576127,-0.64595 0.769976,0 1.23506,0.40307 0.15503,0.12919 0.27905,0.34623 0.12403,0.21187 0.15503,0.42891 0.0362,0.21188 0.0362,0.81132 z m -0.925009,1.91719 v -1.41076 l -0.63045,0.24288 q -0.48059,0.1912 -0.682127,0.38757 -0.19637,0.1912 -0.19637,0.48059 0,0.29455 0.186035,0.48059 0.191202,0.18603 0.490924,0.18603 0.449584,0 0.831988,-0.3669 z" />
      <path
         id="path2329"
         style="font-style:normal;font-variant:normal;font-weight:normal;font-stretch:normal;font-family:'Gill Sans MT';-inkscape-font-specification:'Gill Sans MT';stroke-width:0.264583"
         d="m 101.46886,102.37803 1.76733,-1.73633 v 0.98185 h 1.50378 v 0.84749 h -1.50378 v 2.3306 q 0,0.81649 0.67696,0.81649 0.50643,0 1.0697,-0.34107 v 0.8785 q -0.5426,0.30489 -1.18339,0.30489 -0.64595,0 -1.07486,-0.37724 -0.13436,-0.11368 -0.22221,-0.25321 -0.0879,-0.14469 -0.14986,-0.37207 -0.0568,-0.23254 -0.0568,-0.87849 v -2.1084 h -0.82682 z" />
      <path
         id="path2331"
         style="font-style:normal;font-variant:normal;font-weight:normal;font-stretch:normal;font-family:'Gill Sans MT';-inkscape-font-specification:'Gill Sans MT';stroke-width:0.264583"
         d="m 107.93874,102.37803 1.76732,-1.73633 v 0.98185 h 1.50378 v 0.84749 h -1.50378 v 2.3306 q 0,0.81649 0.67696,0.81649 0.50643,0 1.0697,-0.34107 v 0.8785 q -0.5426,0.30489 -1.18338,0.30489 -0.64596,0 -1.07487,-0.37724 -0.13436,-0.11368 -0.22221,-0.25321 -0.0879,-0.14469 -0.14986,-0.37207 -0.0568,-0.23254 -0.0568,-0.87849 v -2.1084 h -0.82682 z" />
      <path
         id="path2333"
         style="font-style:normal;font-variant:normal;font-weight:normal;font-stretch:normal;font-family:'Gill Sans MT';-inkscape-font-specification:'Gill Sans MT';stroke-width:0.264583"
         d="m 112.11934,99.158595 h 0.94051 v 3.090245 q 0.58911,-0.7183 1.46244,-0.7183 0.47542,0 0.85266,0.23771 0.37723,0.23771 0.5581,0.65628 0.18604,0.41858 0.18604,1.2454 v 2.70784 h -0.94051 v -2.94038 q 0,-0.52193 -0.25838,-0.83716 -0.25322,-0.32039 -0.6718,-0.32039 -0.31005,0 -0.58394,0.1602 -0.27388,0.16019 -0.60461,0.53226 v 3.40547 h -0.94051 z" />
      <path
         id="path2335"
         style="font-style:normal;font-variant:normal;font-weight:normal;font-stretch:normal;font-family:'Gill Sans MT';-inkscape-font-specification:'Gill Sans MT';stroke-width:0.264583"
         d="m 121.48308,104.08334 h -3.34345 q 0.0362,0.68213 0.45475,1.0852 0.42374,0.40308 1.09037,0.40308 0.93017,0 1.71565,-0.57877 v 0.91983 q -0.43408,0.28939 -0.86299,0.41341 -0.42375,0.12403 -0.99736,0.12403 -0.78548,0 -1.27123,-0.32556 -0.48576,-0.32556 -0.78031,-0.87333 -0.28939,-0.55294 -0.28939,-1.27641 0,-1.0852 0.61495,-1.76216 0.61494,-0.68212 1.59679,-0.68212 0.94568,0 1.50895,0.66145 0.56327,0.66146 0.56327,1.7725 z m -3.32278,-0.56327 h 2.39261 q -0.0362,-0.56327 -0.3359,-0.86816 -0.29972,-0.30489 -0.80615,-0.30489 -0.50642,0 -0.83199,0.30489 -0.32039,0.30489 -0.41857,0.86816 z" />
      <path
         id="path2337"
         style="font-style:normal;font-variant:normal;font-weight:normal;font-stretch:normal;font-family:'Gill Sans MT';-inkscape-font-specification:'Gill Sans MT';stroke-width:0.264583"
         d="m 125.19861,106.03671 v -1.01286 q 0.3979,0.27905 0.81131,0.45475 0.41858,0.17053 0.7028,0.17053 0.29456,0 0.50643,-0.14469 0.21187,-0.14469 0.21187,-0.34623 0,-0.20671 -0.13952,-0.34106 -0.13436,-0.13953 -0.58911,-0.39791 -0.90951,-0.50643 -1.19373,-0.86299 -0.27905,-0.36174 -0.27905,-0.78548 0,-0.54777 0.42375,-0.894 0.42891,-0.34623 1.1007,-0.34623 0.69763,0 1.43144,0.39274 v 0.93017 q -0.83716,-0.50643 -1.36943,-0.50643 -0.27388,0 -0.44441,0.11886 -0.16537,0.11368 -0.16537,0.30489 0,0.16536 0.14987,0.31522 0.15502,0.14986 0.53743,0.36174 l 0.33589,0.1912 q 1.18856,0.67179 1.18856,1.48827 0,0.58395 -0.45992,0.96118 -0.45475,0.37207 -1.17305,0.37207 -0.42375,0 -0.75448,-0.0878 -0.33072,-0.093 -0.83198,-0.33589 z" />
      <path
         id="path2339"
         style="font-style:normal;font-variant:normal;font-weight:normal;font-stretch:normal;font-family:'Gill Sans MT';-inkscape-font-specification:'Gill Sans MT';stroke-width:0.264583"
         d="m 128.83662,102.37803 1.76732,-1.73633 v 0.98185 h 1.50378 v 0.84749 h -1.50378 v 2.3306 q 0,0.81649 0.67696,0.81649 0.50643,0 1.0697,-0.34107 v 0.8785 q -0.5426,0.30489 -1.18338,0.30489 -0.64596,0 -1.07487,-0.37724 -0.13436,-0.11368 -0.22221,-0.25321 -0.0879,-0.14469 -0.14986,-0.37207 -0.0568,-0.23254 -0.0568,-0.87849 v -2.1084 h -0.82682 z" />
      <path
         id="path2341"
         style="font-style:normal;font-variant:normal;font-weight:normal;font-stretch:normal;font-family:'Gill Sans MT';-inkscape-font-specification:'Gill Sans MT';stroke-width:0.264583"
         d="m 136.02478,103.52007 v 2.02054 q 0,0.24288 0.16537,0.24288 0.17053,0 0.53226,-0.25321 v 0.57361 q -0.32039,0.2067 -0.51676,0.27905 -0.1912,0.0775 -0.40308,0.0775 -0.60461,0 -0.71313,-0.47542 -0.59944,0.46509 -1.2764,0.46509 -0.4961,0 -0.82682,-0.32556 -0.33073,-0.33073 -0.33073,-0.82682 0,-0.44959 0.32039,-0.80099 0.32556,-0.35656 0.91984,-0.56327 l 1.20406,-0.41341 v -0.25321 q 0,-0.85783 -0.85783,-0.85783 -0.76998,0 -1.49861,0.79582 v -1.02836 q 0.54777,-0.64595 1.57612,-0.64595 0.76998,0 1.23507,0.40307 0.15503,0.12919 0.27905,0.34623 0.12402,0.21187 0.15503,0.42891 0.0362,0.21188 0.0362,0.81132 z m -0.925,1.91719 v -1.41076 l -0.63045,0.24288 q -0.48059,0.1912 -0.68213,0.38757 -0.19637,0.1912 -0.19637,0.48059 0,0.29455 0.18603,0.48059 0.19121,0.18603 0.49093,0.18603 0.44958,0 0.83199,-0.3669 z" />
      <path
         id="path2343"
         style="font-style:normal;font-variant:normal;font-weight:normal;font-stretch:normal;font-family:'Gill Sans MT';-inkscape-font-specification:'Gill Sans MT';stroke-width:0.264583"
         d="m 138.50525,101.62355 v 0.60462 q 0.63045,-0.69763 1.43143,-0.69763 0.44442,0 0.82682,0.23254 0.38241,0.22737 0.57878,0.63045 0.20153,0.39791 0.20153,1.26607 v 2.71817 h -0.9405 v -2.70784 q 0,-0.72863 -0.22221,-1.03869 -0.22221,-0.31523 -0.74414,-0.31523 -0.66662,0 -1.13171,0.66663 v 3.39513 h -0.96118 v -4.75422 z" />
      <path
         id="path2345"
         style="font-style:normal;font-variant:normal;font-weight:normal;font-stretch:normal;font-family:'Gill Sans MT';-inkscape-font-specification:'Gill Sans MT';stroke-width:0.264583"
         d="m 146.02931,99.158595 h 0.94568 v 7.219175 h -2.01021 q -1.05419,0 -1.68464,-0.66662 -0.62529,-0.66663 -0.62529,-1.788 0,-1.04903 0.65629,-1.72599 0.66146,-0.67696 1.68465,-0.67696 0.47542,0 1.03352,0.20154 z m 0,6.413025 v -3.01273 q -0.43925,-0.2222 -0.88883,-0.2222 -0.7028,0 -1.12137,0.45991 -0.41341,0.45992 -0.41341,1.24023 0,0.73381 0.36173,1.13171 0.21704,0.23772 0.45992,0.3204 0.24288,0.0827 0.87333,0.0827 z" />
    </g>
  </g>
</svg>
