<?xml version="1.0" encoding="UTF-8" standalone="no"?>
<svg
   xmlns:dc="http://purl.org/dc/elements/1.1/"
   xmlns:cc="http://creativecommons.org/ns#"
   xmlns:rdf="http://www.w3.org/1999/02/22-rdf-syntax-ns#"
   xmlns:svg="http://www.w3.org/2000/svg"
   xmlns="http://www.w3.org/2000/svg"
   xmlns:sodipodi="http://sodipodi.sourceforge.net/DTD/sodipodi-0.dtd"
   xmlns:inkscape="http://www.inkscape.org/namespaces/inkscape"
   sodipodi:docname="orange.svg"
   inkscape:version="1.0 (4035a4fb49, 2020-05-01)"
   id="svg3104"
   version="1.1"
   viewBox="0 0 80.529976 21.746284"
   height="21.746284mm"
   width="80.529976mm">
  <defs
     id="defs3098" />
  <sodipodi:namedview
     inkscape:window-maximized="1"
     inkscape:window-y="-8"
     inkscape:window-x="-8"
     inkscape:window-height="1009"
     inkscape:window-width="3840"
     fit-margin-bottom="0"
     fit-margin-right="0"
     fit-margin-left="0"
     fit-margin-top="0"
     showgrid="false"
     inkscape:document-rotation="0"
     inkscape:current-layer="layer1"
     inkscape:document-units="mm"
     inkscape:cy="107.61282"
     inkscape:cx="-46.285223"
     inkscape:zoom="2.8"
     inkscape:pageshadow="2"
     inkscape:pageopacity="0.0"
     borderopacity="1.0"
     bordercolor="#666666"
     pagecolor="#ffffff"
     id="base" />
  <metadata
     id="metadata3101">
    <rdf:RDF>
      <cc:Work
         rdf:about="">
        <dc:format>image/svg+xml</dc:format>
        <dc:type
           rdf:resource="http://purl.org/dc/dcmitype/StillImage" />
        <dc:title></dc:title>
      </cc:Work>
    </rdf:RDF>
  </metadata>
  <g
     transform="translate(-46.669534,-35.239945)"
     id="layer1"
     inkscape:groupmode="layer"
     inkscape:label="Layer 1">
    <path
       id="path3089"
       style="opacity:1;fill:#000000;stroke-width:0.0780775"
       d="m 83.510009,35.239987 c -0.27178,-0.0026 -0.377719,0.116814 -0.327607,0.367427 0.004,0.459978 0.05498,0.987161 0.111098,1.502728 0.103161,0.267176 0.57875,2.634112 0.807694,4.020952 0.09131,0.553138 0.125703,1.685025 0.0527,1.730137 -0.03373,0.0209 -0.209466,-0.118401 -0.400998,-0.299218 -1.140751,-1.038886 -2.462,-1.999191 -3.489192,-3.164654 -0.103717,-0.09644 -0.117661,-0.34036 -0.211879,-0.590154 -0.462624,-1.226396 -0.25146,-1.255685 -0.463021,-1.22629 l -0.379306,-0.0027 c -0.956681,0.865981 1.491641,5.76916 1.707912,7.109645 l 0.281649,-0.03461 c 0.521467,-0.06332 0.576765,-0.11258 0.520382,-0.465111 -0.09284,-0.516335 -1.905661,-3.876966 -0.703315,-2.853558 0.869923,0.913448 1.386469,1.423802 2.348177,2.161117 0.290036,0.173196 0.614415,0.290406 0.614415,0.290406 0.844259,-0.04903 1.057619,-0.307578 1.08884,-1.319292 0.03424,-2.174107 -1.098762,-4.601262 -1.184963,-7.084853 z m 43.098161,0.182933 c -0.0942,0.0069 -0.22592,0.07411 -0.33848,0.07959 -0.0259,0 -0.053,0.0053 -0.0781,0.01191 -0.68799,0.198067 -2.1119,0.401929 -2.83599,0.941017 -0.27609,0.205634 -0.51715,0.443548 -0.51004,0.764831 -0.01,0.305091 0.22792,0.66048 0.4258,0.731732 1.11432,0.498184 2.51283,1.15353 2.75436,1.702726 0.557,1.052909 1.04315,2.616385 0.0419,3.489722 -0.91,0.543613 -1.70095,0.469344 -2.55696,0.738981 -0.191,0.144648 0.0568,0.836083 0.12817,0.845926 1.11265,0.142319 2.51547,-0.224393 3.03974,-0.831744 0.37457,-0.366713 0.44601,-0.789173 0.48615,-1.254152 0.092,-1.087649 0.0106,-2.485681 -0.35348,-3.122559 -0.3319,-0.580443 -0.78982,-1.066774 -1.42781,-1.320351 -0.51062,-0.308345 -1.02073,-0.617511 -1.52963,-0.928608 -0.4885,-0.709797 1.66277,-0.787109 2.53317,-1.017508 0.2046,-0.05421 0.39328,-0.547978 0.33848,-0.752422 -0.0177,-0.06533 -0.0608,-0.08321 -0.11729,-0.07906 z m -13.38937,0.121444 c -1.09339,0.61042 -2.20371,0.696172 -3.32952,1.410229 -0.21838,0.162137 -0.3929,0.457491 -0.45992,0.779304 -0.047,0.224578 -0.0378,0.256963 0.0512,0.187563 0.0592,-0.04617 0.17272,-0.107606 0.25373,-0.136419 0.14029,-0.05022 0.14436,0 0.10335,1.163769 -0.049,1.317308 -0.499,3.000984 0.0434,4.183724 0.1202,0.204973 0.30184,0.211667 0.46043,0.310568 0.74099,0.445929 1.73855,0.410237 2.59363,0.420635 0.4513,-0.0027 1.02714,0.03619 1.64692,-0.293502 v 0 c 1.27339,0.613992 3.18016,1.145936 4.36716,0.626824 0.15963,-0.2227 0.15783,-0.498025 0,-0.558615 -0.0683,-0.02619 -0.15099,-0.03064 -0.18499,-0.0098 -1.16531,0.223097 -2.79739,-0.107738 -3.44887,-0.754485 -0.029,-0.114089 -0.0403,-0.280406 -0.0853,-0.308504 -0.4467,-1.54485 0.0916,-3.913003 0.12557,-5.454968 0.069,-0.455215 -0.036,-1.053676 -0.185,-1.053676 -0.9684,1.471162 -1.3829,4.505615 -0.83251,6.710177 l 0.0114,0.307472 c -0.98261,-0.01799 -1.88889,0.08054 -2.92799,0.0042 -0.92551,-0.14941 -0.98663,-0.222382 -1.00562,-1.201473 -0.008,-0.425265 0.007,-0.859446 0.0331,-0.964803 0.0504,-0.20111 0.0312,-0.194548 1.08984,-0.372586 0.71152,-0.120888 0.76573,-0.149278 1.23973,-0.227357 0.2095,0 0.52438,-0.204787 0.56637,-0.367956 0.0956,-0.370866 0.0762,-0.378063 -1.15962,-0.427884 -0.2224,-0.01005 -0.85457,0.08184 -1.66089,0.0071 -0.12338,0.01799 -0.27797,-1.803929 -0.16328,-1.925981 0.8939,-0.379571 1.90683,-0.385101 2.65203,-0.989092 0.2499,-0.2803 0.0847,-0.464661 0.20516,-0.830448 z m -13.872553,0.220662 c -0.449289,0.01349 -0.922099,0.173382 -1.459838,0.554488 -0.653203,0.564038 -2.32037,1.529186 -0.899187,2.352807 1.426078,0.910854 3.243448,1.675659 4.690158,2.814823 1.17801,1.24751 1.23299,3.572007 -0.894,2.800852 -0.798376,-0.323188 -1.955319,-0.978111 -2.477368,-2.101162 -0.249529,0.263869 -0.453311,0.393383 -0.247518,0.771552 0.906198,1.614328 1.825122,2.058802 3.988886,2.198819 1.0623,-0.232674 1.30183,-1.957361 1.05214,-2.841175 -0.95901,-2.694305 -2.98516,-2.630329 -5.843058,-4.196635 -0.110146,-0.754962 1.222852,-1.604566 2.057771,-1.711537 0.904397,0.231114 1.678117,0.592111 2.585877,0.851641 0.33891,0.163698 0.46561,0.132186 0.46561,-0.114723 0,-0.216721 -0.17443,-0.345731 -0.78083,-0.578776 -0.80669,-0.439579 -1.48979,-0.823357 -2.238643,-0.800974 z m -10.64842,0.303848 c -0.04003,0.0026 -0.0817,0.01005 -0.125598,0.0217 -0.679503,0.272044 -1.283203,0.840581 -1.719263,1.488281 -0.974804,1.749928 -1.228963,5.61639 1.684126,6.324177 0.704824,0 1.196631,-0.275458 1.645391,-0.924508 0.102261,-0.147902 0.214392,-0.30935 0.212381,-0.248046 -0.0093,0.53885 0.369173,1.740482 0.667676,2.422075 0.101388,0.270774 0.785151,-0.140203 0.62992,-0.365866 -0.465905,-0.267547 -0.863441,-2.142728 -0.77515,-2.731109 0.107209,-0.05998 0.361739,-0.634285 0.361739,-0.816477 0,-0.0376 -0.123058,-0.06821 -0.273368,-0.06821 -0.331734,-0.04707 -0.444897,0.425079 -0.735859,0.724508 -0.813382,1.187609 -0.958638,1.342126 -1.290373,1.369431 -2.074598,0.103346 -2.37961,-2.85115 -1.928574,-4.336177 0.229076,-0.719799 0.500194,-1.297067 1.164272,-1.842797 0.529352,-0.437488 0.60079,-0.464105 0.761709,-0.286279 0.1524,0.363882 -0.0172,0.726255 0.16383,1.099159 0.106177,0.08813 0.141367,0.0811 0.233574,-0.04495 0.05977,-0.08176 0.109035,-0.236353 0.109035,-0.343641 -0.01005,-0.569754 -0.185182,-1.482805 -0.785468,-1.441264 z m -16.919391,0.0071 c -0.956839,-0.02675 -2.051632,0.756973 -2.953306,1.116224 -0.311573,0.177006 -0.688154,0.367824 -0.970994,0.913632 -0.172773,0.333349 -0.03662,0.634604 0.125042,0.696595 0.370364,-0.190261 0.404971,-0.330729 0.873839,-0.757581 0.401188,-0.216773 0.472044,-0.305117 0.56224,-0.213916 0.09086,2.295261 0.915009,4.38748 1.562709,6.736001 0.03352,0.04297 0.101203,0.270827 0.150891,0.506439 0.04969,0.235638 0.137002,0.499083 0.193781,0.585496 0.06152,0.09356 0.202486,0.163618 0.348298,0.17362 0.220821,0.01482 0.244951,-0.0056 0.244951,-0.205158 -0.262652,-1.050819 -0.514376,-1.904894 -0.849048,-3.171878 -0.04191,-0.170101 -0.213783,-0.712814 -0.382402,-1.206659 -0.184044,-0.539009 -0.374068,-1.319583 -0.474901,-1.952334 -0.193357,-1.213194 -0.202221,-1.470024 -0.05892,-1.658805 0.09583,-0.126206 0.949299,-0.449077 1.187027,-0.449077 0.242411,-0.191452 0.485087,-0.736626 0.440796,-1.112599 z m -5.306669,0.466645 c -0.08316,-0.01085 -0.162242,0.03704 -0.286781,0.18759 -0.338826,0.648308 -0.447411,1.787419 -0.94361,2.410195 -0.736256,-0.322977 -1.38901,-0.989065 -2.038139,-1.441265 -0.103611,0.152639 -0.188092,0.391319 -0.188092,0.531231 0.192802,0.640239 1.05119,1.070001 1.648486,1.47021 0.555784,0.100224 0.875454,0.255455 1.106911,-0.092 0.126286,-0.180287 0.194416,-0.58711 0.320384,1.132761 0.14232,1.887855 0.35941,3.567694 0.983906,5.358844 0.118878,0.207089 0.117581,0.219181 0.355547,0.01905 0.209471,-0.246856 0.221801,-0.704268 0.02646,-0.978747 -0.446009,-1.15562 -0.508213,-3.288188 -0.810791,-4.652935 -0.197326,-0.85815 -0.299058,-2.148629 -0.204655,-2.589001 0.111284,-0.519113 0.475827,-1.191657 0.340545,-1.191657 -0.140096,-0.08411 -0.22688,-0.153458 -0.310065,-0.164333 z m 52.962683,0.187061 c -0.0389,0.0087 -0.11888,0.07302 -0.28991,0.221694 -0.40021,0.485061 -0.35607,1.392211 -0.32607,2.356961 0.0837,1.451478 0.10104,2.987278 0.76324,4.109323 1.5729,-0.03844 2.61266,-0.592217 3.19154,-0.881591 0.19172,-0.125545 0.28165,-0.327158 0.28165,-0.643388 -0.6408,-0.256487 -1.9884,0.586211 -2.81998,0.700749 -0.61251,-0.904213 -0.58928,-2.282957 -0.62529,-3.464401 0.0285,-0.593249 -0.0271,-1.887723 -0.0941,-2.115635 -0.0658,-0.158591 -0.0164,-0.298211 -0.0811,-0.283712 z m -66.093133,0.150918 c -0.148379,0.0056 -0.164677,0.279691 -0.133324,0.990626 0.0426,0.966841 0.154252,2.241101 0.282152,3.220985 0.0988,0.756973 0.152876,2.576592 0.07649,2.576592 -0.911622,-1.058307 -1.909789,-2.517246 -3.01842,-3.552746 -0.156157,-0.06522 -0.30009,-0.102499 -0.319881,-0.08268 -0.09067,0.09067 0.07194,0.566393 0.506412,1.098127 1.041321,1.259099 1.99316,2.527247 3.068559,3.808015 0.2277,0.09115 0.346657,0.01164 0.43045,-0.286782 0.130069,-0.463523 0.06488,-3.077474 -0.112633,-4.529455 -0.121576,-1.000918 -0.02408,-2.328756 -0.487839,-3.09954 -0.130122,-0.09258 -0.224525,-0.145654 -0.291967,-0.14314 z m 4.290695,0.179811 c -0.0254,0.0066 -0.05718,0.03601 -0.104907,0.08371 -0.397299,0.196533 -0.850477,0.26842 -1.260396,0.42635 -0.02355,0.03818 -0.136314,0.09274 -0.250614,0.121443 -0.33438,0.125307 -0.785865,0.15539 -0.871273,0.459899 -0.195553,0.697468 0.200237,2.025227 0.294032,3.083031 -0.03397,0.09493 -0.243337,0.181874 -0.321945,0.221165 -0.315119,0.157639 -0.308531,0.284427 -0.284718,0.488871 0.01931,0.16629 0.05789,0.196479 0.219101,0.172085 0.196744,-0.02982 0.322554,-0.178541 0.390155,-0.09665 0.09708,0.117608 0.09887,0.610473 0.228917,1.765803 0.04829,0.429419 0.108559,0.861325 0.134356,0.959617 0.166158,0.550201 2.017316,0.376873 2.461868,0.409284 0.379201,0.06935 0.54483,-0.0572 0.512128,-0.392218 -0.01667,-0.170206 -0.06789,-0.201956 -0.409284,-0.251143 -0.214709,-0.0309 -0.738955,-0.074 -1.164775,-0.09562 -0.425821,-0.02143 -0.798592,-0.06654 -0.828384,-0.100251 -0.05988,-0.06768 -0.199073,-1.058254 -0.279559,-1.990566 l -0.0517,-0.602033 c 0.510355,-0.203041 1.046216,-0.350282 1.510507,-0.648017 l 0.246512,-0.235665 -0.223758,-0.182933 c -0.292418,-0.235955 -0.860584,0.04495 -1.329135,0.196374 -0.282098,0.172032 -0.339513,0.144701 -0.339513,-0.16174 -0.08755,-0.759089 -0.163565,-1.234863 -0.183965,-1.997815 0,-0.09292 0.782347,-0.382985 1.266085,-0.458894 0.576844,-0.09046 0.939218,-0.566684 0.761709,-1.000971 -0.05416,-0.132451 -0.07922,-0.184124 -0.121444,-0.173116 z m 3.946022,0.0077 c -0.668708,0.06681 -1.278811,0.695828 -1.986465,1.161706 0,0 -0.199258,0.185737 -0.226854,0.05374 -0.07472,-0.356923 -0.199707,-0.353087 -0.459396,-0.182933 -0.177112,0.11602 -0.194283,0.167031 -0.150389,0.441828 0.02733,0.170867 0.09811,0.401346 0.15711,0.51263 0.05903,0.111284 0.149092,0.465984 0.200501,0.788061 0.05143,0.322078 0.124354,0.690774 0.16174,0.8196 0.03744,0.128826 0.120147,0.498025 0.183462,0.820103 0.06337,0.322077 0.133561,0.67347 0.156051,0.780838 0.02249,0.107341 0.09192,0.476038 0.154517,0.819573 0.211984,1.163691 0.263075,1.404991 0.347265,1.639702 0.0462,0.128826 0.103637,0.330968 0.127132,0.449051 0.0344,0.17272 0.08522,0.214471 0.260456,0.214471 0.119777,0 0.276172,-0.04397 0.347769,-0.09768 0.121152,-0.09081 0.120094,-0.132318 -0.01693,-0.604599 -0.326998,-1.144879 -0.430159,-1.888067 -0.743108,-3.080941 -0.10549,-0.127158 0.04405,-0.05591 0.195315,0.03979 1.100164,0.465641 2.179955,1.775116 3.228763,2.061872 0.03847,0.01058 0.115412,0.06207 0.171662,0.01852 0.174621,-0.13523 0.317628,-0.181056 0.484104,-0.311495 -0.01958,-0.189389 -0.08768,-0.253524 -0.416004,-0.394282 -0.215847,-0.09258 -0.532157,-0.252757 -0.702787,-0.355547 -0.606901,-0.368168 -1.207082,-0.845212 -1.832451,-1.233514 -0.246274,-0.09295 -0.389228,-0.316654 -0.25736,-0.402564 0.530304,-0.745014 1.432692,-1.384273 1.655207,-2.494412 0.106892,-0.524881 0.0404,-1.472486 -1.039204,-1.46349 z m 42.280096,0.148828 c -0.0262,1.85e-4 -0.0533,0.0061 -0.0801,0.01746 -0.13657,0.02921 -0.28635,0.02619 -0.39687,0.09562 0.17251,2.203265 0.29601,4.216241 0.71522,6.519492 0.2857,-0.08287 0.59875,-0.320622 0.54777,-0.592217 -0.0923,-1.02743 -0.36423,-2.296292 -0.34624,-3.342428 0.0328,-0.0594 0.10502,-0.01085 0.17002,0.184996 0.5628,1.10244 2.42454,3.755867 3.04994,0.89453 0,-0.07514 0.0361,-0.136419 0.0791,-0.136419 0.043,0 0.0787,0.114168 0.0791,0.253709 0.003,1.138767 0.22182,2.86213 0.38962,3.064431 v 0 c 0.0872,0.105039 0.59738,0.09758 0.70538,-0.01032 0.0629,-0.06302 0.0437,-0.305197 -0.0703,-0.897123 -0.30652,-1.58911 -0.48792,-3.263658 -0.58293,-4.936116 -0.009,-1.145354 -0.15163,-1.206447 -0.54414,-0.813911 -0.27641,0.276649 -0.35907,0.542766 -0.37206,1.191657 -0.0765,1.047327 -0.24765,1.901666 -0.54054,2.937298 l -0.24392,-0.141075 c -0.1343,-0.07766 -0.34195,-0.246857 -0.46096,-0.375682 -0.6015,-0.650875 -1.0914,-1.238039 -1.0914,-1.307942 -0.3846,-0.605287 -0.66128,-1.07053 -0.67128,-1.852612 0.007,-0.483738 -0.15123,-0.755094 -0.33485,-0.753957 z m -52.727539,0.04961 c -1.460421,0.528453 -2.730633,1.167501 -4.173908,1.929104 -0.285406,0.187007 -0.337847,0.342714 -0.245454,0.730699 0.216191,0.908236 0.389069,1.71585 0.458364,2.141988 0.04194,0.257651 0.115199,0.679238 0.162798,0.936889 0.0476,0.257652 0.130149,0.880957 0.183436,1.384935 0.05329,0.503952 0.140837,0.969566 0.194812,1.034547 0.118587,0.142637 0.09311,0.14224 0.349356,0.0093 0.141446,-0.0734 0.660744,-0.127794 1.590067,-0.165894 1.800383,-0.07391 2.237634,-0.23692 1.922885,-0.717298 -0.09676,-0.147531 -0.169783,-0.179837 -0.333322,-0.145732 -0.115252,0.02408 -0.587322,0.06289 -1.04902,0.08631 -0.461724,0.02328 -1.067329,0.06985 -1.345644,0.103346 -0.278342,0.0335 -0.536099,0.04093 -0.572585,0.0164 -0.07791,-0.757348 -0.294103,-1.562104 -0.424179,-2.087218 0.383381,-0.378804 1.273614,-0.647114 1.311608,-0.766732 -0.0053,-0.191082 -0.05485,-0.375365 -0.149331,-0.561208 0,0 -0.870628,0.350983 -1.241721,0.517549 -0.124722,-1.079057 -0.369101,-1.977655 -0.369101,-1.977655 1.111594,-0.57367 2.456656,-0.935858 3.538802,-1.639676 0.303848,-0.07691 0.478261,-0.829945 0.19222,-0.829945 z m 23.916376,0.143166 c -0.0458,0.0098 -0.113348,0.07408 -0.19894,0.151924 -0.170974,0.171291 -0.133271,0.312896 -0.174678,0.900192 -0.06546,1.141174 0.125518,1.535536 -1.158081,2.630329 -0.113851,0 -0.549197,-1.758686 -0.61648,-2.490285 -0.04884,-0.495009 -0.362268,-0.894292 -0.539512,-0.137451 -0.06408,0.305964 0.0082,0.451696 0.134355,1.024731 0.252598,1.157182 0.412962,2.613845 0.751894,3.930518 0.106759,0.730038 0.243787,0.955675 0.60616,0.997876 0.286015,0.03328 0.313823,-0.05464 0.144701,-0.459396 -0.222594,-0.70747 -0.29845,-1.416368 -0.444421,-2.052611 0.575839,-0.523928 0.951759,-1.253914 1.52445,-1.832425 0,0 0.127476,-0.005 0.279056,0.628888 0.2413,0.993775 0.667121,1.930876 1.038701,2.90576 0.10123,0.184044 0.247439,0.545412 0.325041,0.803063 0.07758,0.257652 0.17481,0.512154 0.216006,0.565865 0.09459,0.123296 0.136049,0.120068 0.328665,-0.0254 0.08588,-0.06485 0.161978,-0.195104 0.16899,-0.289904 -0.21426,-1.153345 -1.082993,-2.516347 -1.500691,-3.935175 -0.319008,-0.972026 -0.568483,-2.091531 -0.815445,-3.141397 0,-0.139806 -0.02408,-0.184918 -0.06977,-0.175181 z m -13.496344,0.337423 c 0.117422,-0.0042 0.236749,0.0053 0.357082,0.02998 2.6e-5,0 0.283792,0.187616 0.261488,0.388091 -0.02897,0.260641 -0.424498,1.090057 -0.737421,1.546172 -0.421375,0.512869 -0.911542,0.87585 -1.413351,1.30638 -0.166026,-0.650875 -0.313161,-1.374775 -0.44958,-2.021072 0.425582,-0.535623 1.159881,-1.219967 1.981782,-1.249548 z m 15.966468,0.300249 c -0.04929,0 -0.06239,0.145998 -0.0341,0.384996 0.0367,0.3098 -0.09234,0.398224 -0.214445,0.553455 -0.0835,0.106177 -0.04342,0.289084 -0.04342,0.375682 0,0.196427 0.132397,0.864341 0.273367,1.379246 0.34671,1.383983 0.520991,2.365349 1.028383,3.489193 0.157453,0.25535 0.212196,0.287708 0.48678,0.283713 0.178382,-0.0026 0.326417,-0.04704 0.348827,-0.105437 0.02143,-0.05577 -0.04601,-0.271436 -0.14936,-0.479028 -0.462889,-1.013936 -1.092359,-3.350657 -1.411288,-5.016764 -0.03125,-0.626692 -0.109723,-0.865056 -0.284744,-0.865056 z m 38.316159,7.57123 c 0,0 -4.10613,1.137894 -5.59555,1.553395 -0.37689,0.05847 -0.4868,0.244766 -0.48781,0.526045 0.0296,1.233673 0.59455,2.377096 0.47593,3.513481 -0.0704,0.140441 -0.0618,0.203571 0.0439,0.320411 0.18082,0.199416 0.2348,0.75229 0.22479,2.351775 -0.004,0.749909 0.01,1.390941 0.031,1.424729 h -0.003 c 1.08929,0.05797 4.56216,-0.599414 5.06998,-1.01182 0.1338,-0.123084 0.36017,-0.646112 0.36017,-0.646112 -0.14581,-0.05088 -0.32657,0.005 -0.57568,0.07501 -1.19649,0.332343 -2.62284,0.371369 -3.91601,0.70694 -0.014,0 0.005,-2.599214 0.0201,-2.777093 0.004,-0.04606 0.17375,-0.16592 0.37777,-0.266118 0.47149,-0.233918 1.30042,-0.718238 1.10794,-1.563211 -0.0456,0 -0.28292,0.08993 -0.5271,0.199972 -0.3692,0.166158 -0.73441,0.344143 -1.25471,0.471805 -0.17791,-0.702231 -0.57076,-2.263034 -0.53176,-2.650464 1.55961,-0.273103 3.66948,-1.148556 5.38107,-1.49553 -0.0849,-0.427512 0.043,-0.589728 -0.20103,-0.733215 z m -15.57838,1.019572 c 0.0592,0.772742 0.21315,1.380913 0.16124,1.939422 0.11329,1.750642 0.66873,3.471096 0.72242,4.919081 -1.220155,-1.028965 -2.258909,-2.048669 -3.582726,-3.054615 -0.732366,-0.575442 -1.130855,-1.064419 -1.135856,-1.395783 -0.08932,-0.40931 -0.255058,-0.676037 -0.42373,-1.009756 -0.08498,-0.137451 -0.39878,-0.09438 -0.552953,0.07599 -0.134805,0.148934 -0.137662,0.210979 -0.04495,0.953929 0.195447,1.547971 0.519244,3.159971 1.455208,4.664313 0.133614,0.269557 0.367136,1.101513 0.321945,1.146704 -0.06083,0.06083 0.190024,0.596794 0.328665,0.702283 0.201798,0.153273 0.436272,0.119618 0.634577,-0.09147 0.179017,-0.190474 0.180948,-0.207724 0.09353,-0.919321 -0.132927,-1.050661 -0.887889,-1.999562 -1.141015,-3.188944 0.09231,-0.149357 0.270377,-0.04805 0.90125,0.513662 0.9008,0.958453 2.013375,1.531329 2.567805,2.596727 0.51819,0.24511 0.85596,0.12438 1.46915,0.07752 0.0987,-0.324644 0.15568,-0.667703 0.19947,-0.99322 -0.12665,-2.700125 -0.63595,-4.158853 -0.72244,-6.597544 -0.45852,-0.457067 -0.92835,-0.786341 -1.25159,-0.338984 z m 6.73034,0.205158 c -1.7504,-0.09459 -3.81852,2.861919 -3.73208,4.451906 -0.006,1.440603 0.89315,3.507105 1.89032,4.233333 0.5594,0.271304 0.84325,0.491305 1.1395,0.335571 0.36483,-0.19177 0.75295,-0.713211 1.13345,-1.051507 0.15941,-0.152268 0.21235,-0.307737 0.36256,-0.270034 0.3489,0.08755 0.79708,0.988775 0.72707,1.462961 -0.0377,0.200792 0.99111,0.634021 1.0201,0.574119 0.35719,-0.957633 -0.72424,-2.354818 -0.68125,-3.43273 0.0845,0 0.28324,-0.352769 0.32624,-0.613014 0.047,-0.286067 -0.19535,-0.520911 -0.53745,-0.520911 -0.72279,0.464079 -1.68249,2.020914 -2.54349,2.75127 -0.6313,-0.616427 -1.05577,-1.371098 -1.38494,-2.203503 -0.25529,-0.874131 -0.013,-2.127568 0.63614,-3.288163 0.39508,-0.70649 1.4378,-1.550881 1.91873,-1.552866 0.2631,-0.0026 0.73149,0.377005 0.67749,0.547238 -0.0475,0.149648 0.10356,0.544671 0.20826,0.544671 0.037,0 0.0662,-0.0485 0.0662,-0.108003 0.17459,-0.572584 0.38856,-0.973772 -0.19225,-1.453144 -0.0544,0 -0.19428,-0.07512 -0.3111,-0.166899 -0.22989,-0.150919 -0.47339,-0.226801 -0.72345,-0.240295 z m -40.927735,0.328136 c 0.06565,0.06565 -0.167349,0.02117 -0.196373,0.06821 -1.191604,0.467307 -2.759949,0.451485 -4.14446,1.230418 -0.05879,0.176398 0.06178,0.715486 0.245983,0.972556 1.0355,1.534398 1.64002,3.68546 2.239142,5.647716 0.02593,0.168037 0.09213,0.334142 0.147267,0.369491 0.05522,0.035 0.201057,0.06448 0.324035,0.06511 0.248365,0 0.244423,0.06929 0.05167,-0.896594 -0.128561,-0.633121 -0.373539,-1.239996 -0.479055,-1.87534 0.305991,-0.360416 1.241213,-0.492945 1.700689,-0.665586 0.526494,-0.132133 0.645689,-0.325861 0.451114,-0.735886 -0.168672,-0.355441 -0.276966,-0.40378 -0.532765,-0.23614 -0.464608,0.181901 -1.135089,0.531098 -1.731168,0.81907 -0.661326,-0.926359 -0.611955,-1.960959 -1.484657,-2.867025 1.091883,-0.241167 1.948815,-0.420317 3.049932,-0.623199 0.779753,-0.133588 0.933502,-0.234368 1.008221,-0.659924 0.04334,-0.247068 0.02222,-0.307525 -0.157612,-0.449077 C 66.418231,47.23212 66.2122,47.171768 66.057471,47.171477 Z m 23.510717,0.01244 c -0.06601,-0.01058 -0.16293,0.02513 -0.337978,0.09869 -0.245666,0.10332 -0.261753,0.133826 -0.269743,0.503846 -0.102447,1.141704 0.417539,3.371559 0.787029,4.933051 0.128588,0.598699 0.611717,1.391126 -0.124539,0.933264 -0.139938,0 -1.465606,-0.722471 -2.023136,-1.102783 -0.279109,-0.190394 -0.77089,-0.482864 -1.092968,-0.649552 -0.322051,-0.166687 -0.743347,-0.406321 -0.772557,-0.450638 0.699797,-0.843836 1.546067,-1.438408 1.865525,-2.609136 0.0789,-0.468842 -0.411613,-1.404038 -1.235578,-1.581811 -1.02026,-0.198914 -1.940745,0.38563 -2.736268,0.987028 -0.221086,0.175762 -0.285221,0.219895 -0.4005,-0.05839 -0.113056,-0.272997 -0.1964,-0.294402 -0.311097,-0.08012 -0.322104,0.650849 0.111152,1.778874 0.311097,2.429325 0,0.145547 -0.0093,0.146632 -0.198437,0.02275 -0.109088,-0.07149 -0.324194,-0.319669 -0.477997,-0.551391 -0.790866,-1.113684 -2.228267,-2.193555 -3.605477,-2.527486 -0.08946,-0.146923 -0.151025,-0.164994 -0.434605,-0.1261 -1.646581,0.251698 -2.385351,1.815148 -2.863374,3.345021 -0.126232,1.371203 -0.02966,2.879884 0.942578,4.202324 2.034408,2.732062 6.426307,1.26664 6.870886,-2.533173 0,-0.184838 0.02889,-0.279109 0.0708,-0.234606 0.09239,0.09797 0.242358,1.259284 0.242358,1.876874 0,0.593223 0.08035,0.692018 0.66249,0.81288 0.467493,0.09705 0.650373,0.05445 0.506942,-0.118348 -0.246168,-0.774991 -0.301678,-1.492092 -0.476964,-2.284598 -0.05231,-0.239712 -0.06591,-0.385445 -0.0403,-0.441854 1.611048,0.623252 3.510174,1.804114 5.532464,2.433452 0.595365,0.254159 1.178877,0.253603 1.351862,0.127132 0.180684,-0.132132 0.09316,-0.332369 -0.192749,-0.440293 -0.07718,-0.0291 -0.128561,-0.05141 -0.162269,-0.08631 -0.13679,-0.612431 -0.279003,-1.268227 -0.345202,-1.972469 -0.02969,-0.138615 -0.02868,-0.213703 0.02222,-0.280087 0.387747,-0.228389 0.897599,-0.511255 1.293468,-0.776182 0.07543,0.01878 0.18677,0.14142 0.453708,0.437171 1.026239,1.145725 2.495735,2.961402 3.756872,3.762057 0.303212,-0.250031 0.373194,-0.370549 0.222646,-0.686779 -1.615613,-1.692511 -3.087093,-3.994756 -4.791936,-5.705076 -0.992293,-0.926279 -1.274868,-1.148397 -1.518258,-1.195281 -0.154411,-0.02977 -0.276014,-0.116682 -0.3302,-0.235638 -0.04995,-0.109644 -0.215274,-0.158813 -0.150892,-0.176742 z m -3.718639,0.811821 c 0.489188,-0.02725 0.925565,0.148299 1.125511,0.659394 0,0.15883 -0.07805,0.274744 -0.293026,0.436166 -0.800788,0.631031 -1.599962,1.341146 -2.37916,1.984878 -0.07268,0 -0.163724,-0.216006 -0.376211,-0.89244 -0.167322,-0.532606 -0.101917,-1.073362 0.163804,-1.358582 0.413808,-0.424154 1.130088,-0.794359 1.759082,-0.829416 z m -7.227994,0.285776 c 0.183832,0.004 0.400341,0.07583 0.707444,0.21807 1.535403,0.822801 2.675916,2.200989 2.847895,3.554836 -0.0172,0.809863 -0.04627,0.992743 -0.218069,1.367869 -1.006449,2.180087 -2.343733,2.266976 -4.477254,1.116224 -1.262115,-1.328499 -1.042326,-4.111837 0.229447,-5.72008 0.388964,-0.360971 0.604149,-0.543454 0.910537,-0.536919 z m -19.887168,0.296118 c -0.144093,0 -0.179229,0.04262 -0.178277,0.214974 0,0.118083 0.03315,0.265192 0.07234,0.327104 0.04971,0.07853 -0.169201,0.113004 -0.300011,0.268579 -0.18452,0.219286 -0.204761,0.332105 -0.462703,0.95205 -0.500856,1.843775 -0.0045,3.311472 0.964671,4.656719 0.608621,0.816875 1.979374,1.506353 2.905363,1.402821 0.560017,-0.06077 0.966099,-0.784357 1.081061,-1.927516 0.316839,-3.529912 -0.340043,-5.17943 -4.082442,-5.893593 z m 31.340214,0.362241 c 0.519668,0.331602 1.014598,0.646827 1.427824,1.232482 -0.223864,0.229685 -0.689187,0.481065 -1.089845,0.596873 -0.190448,-0.460242 -0.372587,-1.232931 -0.337979,-1.829355 z M 60.513211,49.80607 c 1.24505,0.64598 1.954159,2.606834 1.683094,4.653994 -0.06416,0.48469 -0.409866,0.860796 -0.479663,0.905007 -2.60223,-0.204152 -3.540284,-2.375958 -3.25591,-4.299955 0.373962,-2.098066 1.767496,-1.377262 2.052479,-1.259046 z"
       sodipodi:nodetypes="cccssccsccccccccccccccsccccccccsccssscscsccccccscsccccccccccccsccccccssccccccccccscsssccsccccscccccccscscscccccsscccsssccscccccccccccscsscsccccccsssccccccsccsscccscsssssccssssccccccccssscccssscsssssssscccccsscccccsccscccsscccsccsccssccsccsscsssssssscccccsccccscccccssccccssscccssssccccsssscccsccsccccccccccccsccscccccssssccccccccccsccccccccccsccsccccsscccsscccccssccscccsssssscccssscccsccsccccccsssccccssccccccsccssscccscsssccccsscssssccscsscccccssssscsccccccccccc" />
  </g>
</svg>
