<?xml version="1.0" encoding="UTF-8" standalone="no"?>
<svg
   xmlns:dc="http://purl.org/dc/elements/1.1/"
   xmlns:cc="http://creativecommons.org/ns#"
   xmlns:rdf="http://www.w3.org/1999/02/22-rdf-syntax-ns#"
   xmlns:svg="http://www.w3.org/2000/svg"
   xmlns="http://www.w3.org/2000/svg"
   xmlns:sodipodi="http://sodipodi.sourceforge.net/DTD/sodipodi-0.dtd"
   xmlns:inkscape="http://www.inkscape.org/namespaces/inkscape"
   sodipodi:docname="something.svg"
   inkscape:version="1.0 (4035a4fb49, 2020-05-01)"
   id="svg1732"
   version="1.1"
   viewBox="0 0 93.078697 28.67338"
   height="28.67338mm"
   width="93.078697mm">
  <defs
     id="defs1726" />
  <sodipodi:namedview
     inkscape:window-maximized="0"
     inkscape:window-y="14"
     inkscape:window-x="1374"
     inkscape:window-height="1032"
     inkscape:window-width="1274"
     fit-margin-bottom="0"
     fit-margin-right="0"
     fit-margin-left="0"
     fit-margin-top="0"
     showgrid="false"
     inkscape:document-rotation="0"
     inkscape:current-layer="layer1"
     inkscape:document-units="mm"
     inkscape:cy="74.194868"
     inkscape:cx="143.75987"
     inkscape:zoom="0.7"
     inkscape:pageshadow="2"
     inkscape:pageopacity="0.0"
     borderopacity="1.0"
     bordercolor="#666666"
     pagecolor="#ffffff"
     id="base" />
  <metadata
     id="metadata1729">
    <rdf:RDF>
      <cc:Work
         rdf:about="">
        <dc:format>image/svg+xml</dc:format>
        <dc:type
           rdf:resource="http://purl.org/dc/dcmitype/StillImage" />
        <dc:title></dc:title>
      </cc:Work>
    </rdf:RDF>
  </metadata>
  <g
     transform="translate(-59.293986,-133.82998)"
     id="layer1"
     inkscape:groupmode="layer"
     inkscape:label="Layer 1">
    <g
       style="font-size:19.3015px;line-height:1.25;font-family:lego;-inkscape-font-specification:lego;letter-spacing:0px;opacity:1;fill:#000000;stroke-width:0.482539"
       id="text1680"
       aria-label="somethin">
      <path
         id="path2310"
         style="font-style:normal;font-variant:normal;font-weight:normal;font-stretch:normal;font-family:Impact;-inkscape-font-specification:Impact;fill:#000000;stroke-width:0.482539"
         d="M 67.351982,149.55293 H 63.97799 v -0.67857 q 0,-0.86706 -0.103671,-1.09325 -0.09425,-0.23561 -0.490077,-0.23561 -0.320435,0 -0.480652,0.21676 -0.160218,0.20734 -0.160218,0.63145 0,0.5749 0.0754,0.84821 0.08482,0.26389 0.480652,0.58432 0.405256,0.32044 1.649298,0.93303 1.658723,0.81052 2.177074,1.52678 0.518351,0.71627 0.518351,2.08283 0,1.52678 -0.395832,2.30902 -0.395831,0.77281 -1.328863,1.19692 -0.923607,0.41468 -2.233621,0.41468 -1.451382,0 -2.488084,-0.45238 -1.027277,-0.45238 -1.413684,-1.22519 -0.386407,-0.77282 -0.386407,-2.33729 v -0.60318 h 3.373993 v 0.79167 q 0,1.00842 0.122519,1.31001 0.131944,0.30159 0.508926,0.30159 0.405257,0 0.565474,-0.19792 0.160218,-0.20734 0.160218,-0.85763 0,-0.89534 -0.207341,-1.12153 -0.216765,-0.22619 -2.214772,-1.33828 -1.677571,-0.94246 -2.045129,-1.70585 -0.367558,-0.77281 -0.367558,-1.82836 0,-1.49851 0.395831,-2.20535 0.395832,-0.71627 1.338288,-1.10268 0.951881,-0.3864 2.205347,-0.3864 1.244042,0 2.111102,0.32043 0.876484,0.31101 1.338288,0.82936 0.471228,0.51835 0.565473,0.96131 0.10367,0.44295 0.10367,1.38541 z" />
      <path
         id="path2312"
         style="font-style:normal;font-variant:normal;font-weight:normal;font-stretch:normal;font-family:Impact;-inkscape-font-specification:Impact;fill:#000000;stroke-width:0.482539"
         d="m 77.276045,149.94876 v 3.06298 q 0,1.687 -0.169642,2.47866 -0.169642,0.78224 -0.725691,1.47024 -0.556049,0.67856 -1.432534,1.00842 -0.867059,0.32044 -1.998007,0.32044 -1.262891,0 -2.139375,-0.27331 -0.876484,-0.28274 -1.366561,-0.83879 -0.480653,-0.56547 -0.687993,-1.35714 -0.20734,-0.80108 -0.20734,-2.39384 v -3.20435 q 0,-1.74354 0.376982,-2.72369 0.376982,-0.98016 1.357137,-1.57391 0.980154,-0.59374 2.506933,-0.59374 1.28174,0 2.195923,0.3864 0.923607,0.37699 1.423108,0.98958 0.499502,0.6126 0.678569,1.26289 0.188491,0.6503 0.188491,1.97916 z m -3.807523,-0.94245 q 0,-0.96131 -0.10367,-1.20635 -0.10367,-0.25446 -0.442954,-0.25446 -0.339284,0 -0.452379,0.25446 -0.113095,0.24504 -0.113095,1.20635 v 5.64531 q 0,0.88591 0.113095,1.15922 0.113095,0.26389 0.442954,0.26389 0.339284,0 0.442955,-0.24504 0.113094,-0.24504 0.113094,-1.05555 z" />
      <path
         id="path2314"
         style="font-style:normal;font-variant:normal;font-weight:normal;font-stretch:normal;font-family:Impact;-inkscape-font-specification:Impact;fill:#000000;stroke-width:0.482539"
         d="m 82.299335,145.55692 -0.06597,1.18749 q 0.442954,-0.70684 1.055551,-1.05555 0.612596,-0.35813 1.394835,-0.35813 1.526779,0 2.403263,1.41368 0.480652,-0.70684 1.083824,-1.05555 0.603172,-0.35813 1.338288,-0.35813 0.97073,0 1.602175,0.47123 0.64087,0.47122 0.819937,1.15922 0.179067,0.67856 0.179067,2.21477 v 8.88736 h -3.694428 v -8.15225 q 0,-1.60217 -0.113095,-1.97915 -0.10367,-0.38641 -0.499502,-0.38641 -0.405256,0 -0.527775,0.37698 -0.113095,0.37698 -0.113095,1.98858 v 8.15225 h -3.69443 v -7.94491 q 0,-1.83779 -0.09425,-2.20534 -0.08482,-0.36756 -0.490077,-0.36756 -0.254463,0 -0.43353,0.19791 -0.179067,0.1885 -0.197916,0.47123 -0.01885,0.27332 -0.01885,1.17807 v 8.6706 h -3.694428 v -12.50639 z" />
      <path
         id="path2316"
         style="font-style:normal;font-variant:normal;font-weight:normal;font-stretch:normal;font-family:Impact;-inkscape-font-specification:Impact;fill:#000000;stroke-width:0.482539"
         d="m 102.05322,152.03159 h -4.929049 v 2.70485 q 0,0.84821 0.122519,1.09325 0.12252,0.24504 0.471228,0.24504 0.43353,0 0.574899,-0.32044 0.150793,-0.32986 0.150793,-1.26289 v -1.6493 h 3.60961 v 0.92361 q 0,1.15922 -0.1508,1.78124 -0.14137,0.62202 -0.67857,1.32886 -0.53719,0.70685 -1.366556,1.06498 -0.819937,0.34871 -2.063979,0.34871 -1.206344,0 -2.129951,-0.34871 -0.923607,-0.34871 -1.441958,-0.95188 -0.508926,-0.6126 -0.706842,-1.33829 -0.197915,-0.73511 -0.197915,-2.12995 v -3.6473 q 0,-1.63988 0.442954,-2.58233 0.442954,-0.95188 1.451382,-1.45139 1.008428,-0.50892 2.318442,-0.50892 1.602176,0 2.638873,0.61259 1.04613,0.60318 1.46081,1.6116 0.42411,0.99901 0.42411,2.81795 z m -3.816951,-2.03571 v -0.91418 q 0,-0.97073 -0.10367,-1.25346 -0.10367,-0.28274 -0.424105,-0.28274 -0.395832,0 -0.490077,0.24504 -0.09425,0.23561 -0.09425,1.29116 v 0.91418 z" />
      <path
         id="path2318"
         style="font-style:normal;font-variant:normal;font-weight:normal;font-stretch:normal;font-family:Impact;-inkscape-font-specification:Impact;fill:#000000;stroke-width:0.482539"
         d="m 107.32154,143.88877 v 1.96973 h 1.02728 v 1.97916 h -1.02728 v 6.69144 q 0,1.23462 0.12252,1.37598 0.13195,0.14137 1.06498,0.14137 v 2.01686 h -1.5362 q -1.30059,0 -1.85664,-0.10367 -0.55605,-0.1131 -0.98016,-0.4995 -0.4241,-0.39583 -0.52777,-0.89534 -0.10367,-0.50892 -0.10367,-2.37499 v -6.35215 h -0.81994 v -1.97916 h 0.81994 v -1.96973 z" />
      <path
         id="path2320"
         style="font-style:normal;font-variant:normal;font-weight:normal;font-stretch:normal;font-family:Impact;-inkscape-font-specification:Impact;fill:#000000;stroke-width:0.482539"
         d="m 112.99513,142.80494 v 3.43055 q 0.49008,-0.45238 1.05555,-0.67857 0.5749,-0.22619 1.2252,-0.22619 0.999,0 1.69642,0.50892 0.70684,0.50893 0.85763,1.17807 0.16022,0.65972 0.16022,2.42212 v 8.62347 h -3.80752 v -8.80254 q 0,-1.09325 -0.1131,-1.40426 -0.10367,-0.31101 -0.48065,-0.31101 -0.34871,0 -0.47123,0.32043 -0.12252,0.32044 -0.12252,1.27232 v 8.92506 h -3.80752 v -15.25837 z" />
      <path
         id="path2322"
         style="font-style:normal;font-variant:normal;font-weight:normal;font-stretch:normal;font-family:Impact;-inkscape-font-specification:Impact;fill:#000000;stroke-width:0.482539"
         d="m 123.21135,142.80494 v 1.98859 h -3.92061 v -1.98859 z m 0,2.75198 v 12.50639 h -3.92061 v -12.50639 z" />
      <path
         id="path2324"
         style="font-style:normal;font-variant:normal;font-weight:normal;font-stretch:normal;font-family:Impact;-inkscape-font-specification:Impact;fill:#000000;stroke-width:0.482539"
         d="m 128.44198,145.55692 -0.066,1.14979 q 0.41468,-0.68799 1.00843,-1.02727 0.60317,-0.34871 1.38541,-0.34871 0.98015,0 1.60217,0.4618 0.62202,0.4618 0.80109,1.16865 0.17907,0.69741 0.17907,2.33729 v 8.76484 h -3.80752 v -8.66117 q 0,-1.29117 -0.0848,-1.5739 -0.0848,-0.28274 -0.47122,-0.28274 -0.40526,0 -0.50893,0.32986 -0.10367,0.32043 -0.10367,1.73412 v 8.45383 h -3.80752 v -12.50639 z" />
    </g>
    <g
       style="font-size:37.1665px;line-height:1.25;font-family:lego;-inkscape-font-specification:lego;letter-spacing:0px;opacity:1;fill:#000000;stroke-width:0.929169"
       id="text1680-8"
       aria-label="g">
      <path
         id="path2307"
         style="font-style:normal;font-variant:normal;font-weight:normal;font-stretch:normal;font-family:Impact;-inkscape-font-specification:Impact;fill:#000000;stroke-width:0.929169"
         d="m 152.37268,134.26553 v 18.54695 q 0,3.75658 -0.18148,4.86359 -0.16333,1.08886 -1.2159,2.30476 -1.05256,1.23404 -2.93993,1.86921 -1.86921,0.65332 -4.7184,0.65332 -3.50251,0 -5.62579,-1.19775 -2.12328,-1.1796 -2.19587,-4.66396 h 7.1139 q 0,1.597 1.16145,1.597 0.8348,0 1.10701,-0.48999 0.27222,-0.48999 0.27222,-2.05069 v -1.81477 q -0.94368,0.85294 -1.99625,1.28849 -1.03442,0.43554 -2.17772,0.43554 -1.9781,0 -3.26659,-0.7985 -1.27034,-0.7985 -1.74218,-2.08698 -0.47184,-1.30664 -0.47184,-3.70214 v -8.74719 q 0,-3.42992 1.23404,-4.93618 1.23405,-1.50626 3.75658,-1.50626 1.37923,0 2.50438,0.56258 1.14331,0.56258 2.03255,1.68774 l 0.52628,-1.81477 z m -7.34982,6.38799 q 0,-1.65144 -0.19963,-2.10513 -0.18148,-0.45369 -0.83479,-0.45369 -0.63517,0 -0.90739,0.52628 -0.25407,0.50813 -0.25407,2.03254 v 8.09388 q 0,1.61514 0.19963,2.10513 0.19962,0.47184 0.83479,0.47184 0.72591,0 0.94368,-0.58072 0.21778,-0.58073 0.21778,-2.63142 z" />
    </g>
  </g>
</svg>
