<?xml version="1.0" encoding="UTF-8" standalone="no"?>
<svg
   sodipodi:docname="sote.svg"
   inkscape:version="1.4 (86a8ad7, 2024-10-11)"
   id="svg8"
   version="1.1"
   viewBox="0 0 85.395302 61.162682"
   height="61.162682mm"
   width="85.395302mm"
   xmlns:inkscape="http://www.inkscape.org/namespaces/inkscape"
   xmlns:sodipodi="http://sodipodi.sourceforge.net/DTD/sodipodi-0.dtd"
   xmlns="http://www.w3.org/2000/svg"
   xmlns:svg="http://www.w3.org/2000/svg"
   xmlns:rdf="http://www.w3.org/1999/02/22-rdf-syntax-ns#"
   xmlns:cc="http://creativecommons.org/ns#"
   xmlns:dc="http://purl.org/dc/elements/1.1/">
  <defs
     id="defs2" />
  <sodipodi:namedview
     inkscape:window-maximized="1"
     inkscape:window-y="-8"
     inkscape:window-x="-8"
     inkscape:window-height="1009"
     inkscape:window-width="3840"
     showgrid="false"
     inkscape:document-rotation="0"
     inkscape:current-layer="layer1"
     inkscape:document-units="mm"
     inkscape:cy="109.64286"
     inkscape:cx="243.57143"
     inkscape:zoom="1.4"
     inkscape:pageshadow="2"
     inkscape:pageopacity="0.0"
     borderopacity="1.0"
     bordercolor="#666666"
     pagecolor="#ffffff"
     id="base"
     inkscape:showpageshadow="2"
     inkscape:pagecheckerboard="0"
     inkscape:deskcolor="#d1d1d1" />
  <metadata
     id="metadata5">
    <rdf:RDF>
      <cc:Work
         rdf:about="">
        <dc:format>image/svg+xml</dc:format>
        <dc:type
           rdf:resource="http://purl.org/dc/dcmitype/StillImage" />
      </cc:Work>
    </rdf:RDF>
  </metadata>
  <g
     id="layer1"
     inkscape:groupmode="layer"
     inkscape:label="Layer 1"
     transform="translate(-59.903837,-106.18473)">
    <path
       id="text849"
       style="font-size:12.8782px;line-height:1.25;font-family:'Tanohe Sans';-inkscape-font-specification:'Tanohe Sans';letter-spacing:3.05858px;fill:#000000;stroke-width:0.321954"
       d="m 114.43643,106.18473 v 10.30273 h 0.90123 v -5.09994 c 0.12878,-0.24898 0.34773,-0.48475 0.65681,-0.70797 0.30907,-0.23181 0.71715,-0.34778 1.2237,-0.34778 0.42927,0 0.78101,0.11597 1.05575,0.34778 0.28332,0.23181 0.42529,0.6177 0.42529,1.15858 v 4.64933 h 0.90124 v -4.778 c 0,-0.40351 -0.0726,-0.76825 -0.21859,-1.09451 -0.14595,-0.33483 -0.37357,-0.60094 -0.68265,-0.7984 -0.30049,-0.19746 -0.69123,-0.2961 -1.17202,-0.2961 -0.99591,0 -1.72591,0.32192 -2.18953,0.96583 v -4.30155 z m -49.394405,0.11576 c -0.987329,0 -1.751482,0.24061 -2.292367,0.7214 -0.575226,0.46361 -0.862996,1.16328 -0.862996,2.0991 0,0.66966 0.227616,1.2322 0.682645,1.68723 0.463616,0.44644 1.236437,0.75103 2.318205,0.91416 0.935816,0.12019 1.583995,0.35214 1.944584,0.69556 0.36059,0.33484 0.541053,0.81555 0.541053,1.44229 0,0.44645 -0.102974,0.81552 -0.309025,1.10743 -0.206052,0.28332 -0.480821,0.4936 -0.82424,0.63097 -0.343418,0.12878 -0.725495,0.19327 -1.146183,0.19327 -0.704008,0 -1.279549,-0.19728 -1.725993,-0.59221 -0.446444,-0.40352 -0.669726,-1.0647 -0.669726,-1.98334 h -0.927075 c 0,2.27514 1.090409,3.41271 3.271118,3.41271 0.652495,0 1.223702,-0.10298 1.713073,-0.30903 0.489372,-0.21464 0.870932,-0.54089 1.145667,-0.97875 0.283321,-0.43785 0.425297,-0.99606 0.425297,-1.67432 0,-0.78128 -0.24495,-1.3953 -0.734322,-1.84174 -0.489371,-0.45504 -1.274677,-0.75096 -2.356445,-0.88832 -0.463616,-0.0601 -0.845692,-0.15008 -1.146184,-0.27027 -0.4722,-0.1803 -0.798457,-0.41224 -0.978751,-0.69556 -0.180295,-0.28332 -0.270268,-0.64807 -0.270268,-1.09451 0,-0.38635 0.09864,-0.70827 0.296106,-0.96583 0.197466,-0.25756 0.459234,-0.45103 0.785482,-0.57981 0.326248,-0.12878 0.682322,-0.19327 1.068668,-0.19327 0.798449,0 1.378323,0.20212 1.738912,0.60564 0.369175,0.40352 0.553455,1.10319 0.553455,2.0991 h 0.927592 v -0.30902 c 0,-2.15496 -1.056258,-3.23288 -3.168282,-3.23288 z m 59.213955,0.59273 v 1.1591 h 1.1591 v -1.1591 z m -17.39842,0.83716 v 1.93166 h -1.08159 v 0.81132 h 1.08159 v 4.12068 c 0,1.3565 0.66551,2.03502 1.99626,2.03502 0.40352,0 0.71678,-0.0472 0.94,-0.1416 h 0.0129 v -0.78548 c -0.18029,0.0773 -0.42524,0.11576 -0.73432,0.11576 -0.45502,0 -0.78943,-0.0986 -1.00407,-0.29611 -0.20605,-0.20605 -0.30903,-0.55397 -0.30903,-1.04335 v -4.00492 h 2.1761 v -0.81132 h -2.1761 v -1.93166 z m -31.377929,1.79007 c -0.970158,0 -1.699642,0.33059 -2.189014,0.99167 -0.257564,0.36058 -0.438027,0.75515 -0.541052,1.18442 -0.09444,0.42927 -0.141594,0.94032 -0.141594,1.53272 0,0.64391 0.09864,1.22327 0.296106,1.7384 0.206051,0.50654 0.519306,0.91028 0.939994,1.21078 0.429274,0.30048 0.974479,0.45062 1.63556,0.45062 0.970158,0 1.700159,-0.33059 2.18953,-0.99167 0.257564,-0.36059 0.433693,-0.75567 0.528133,-1.18494 0.103026,-0.42928 0.154513,-0.93981 0.154513,-1.53221 0,-0.62674 -0.102974,-1.19795 -0.309025,-1.71307 -0.197466,-0.51513 -0.506905,-0.92269 -0.927592,-1.22319 -0.420688,-0.30907 -0.965893,-0.46353 -1.635559,-0.46353 z m 10.32185,0 c -0.970157,0 -1.674157,0.35607 -2.112016,1.06867 l -0.128674,-0.92708 h -0.746724 l 0.077,1.93167 v 4.89375 h 0.901754 v -5.12578 c 0.386346,-0.68684 0.952702,-1.02991 1.699638,-1.02991 0.386346,0 0.700118,0.0986 0.940511,0.2961 0.248979,0.18888 0.373104,0.53629 0.373104,1.04283 v 4.81676 h 0.901754 v -5.12578 c 0.386346,-0.68684 0.952702,-1.02991 1.699638,-1.02991 0.386346,0 0.700117,0.0986 0.940511,0.2961 0.248978,0.18888 0.373103,0.53629 0.373103,1.04283 v 4.81676 h 0.901754 v -4.94543 c 0,-0.59239 -0.150644,-1.07745 -0.451135,-1.45521 -0.300491,-0.37776 -0.785542,-0.56637 -1.455208,-0.56637 -1.013086,0 -1.729569,0.37774 -2.150257,1.13326 -0.266149,-0.75552 -0.85469,-1.13326 -1.76475,-1.13326 z m 13.181108,0 c -0.961572,0 -1.691573,0.33059 -2.189531,0.99167 -0.257564,0.34342 -0.43751,0.72931 -0.540535,1.15858 -0.103026,0.42928 -0.154513,0.94467 -0.154513,1.54565 0,0.62674 0.09864,1.19743 0.296106,1.71255 0.206052,0.51513 0.527974,0.92754 0.965833,1.23662 0.437858,0.30907 1.000398,0.46354 1.687235,0.46354 0.704009,0 1.257366,-0.12465 1.660876,-0.37362 0.41211,-0.24898 0.70421,-0.55357 0.87592,-0.91416 0.17171,-0.36059 0.25735,-0.70851 0.25735,-1.04335 h -0.86248 c 0,0.24898 -0.0688,0.49393 -0.20619,0.73433 -0.12879,0.24039 -0.33906,0.44201 -0.63097,0.60513 -0.283317,0.15454 -0.648062,0.23202 -1.094506,0.23202 -1.330744,0 -2.009258,-0.80697 -2.035018,-2.42104 h 4.829164 v -0.51521 c 0,-0.62674 -0.0986,-1.19795 -0.29611,-1.71308 -0.19746,-0.51512 -0.50639,-0.92702 -0.92707,-1.2361 -0.42069,-0.30907 -0.965895,-0.46353 -1.635561,-0.46353 z m 34.243391,0 c -1.03884,0 -1.803,0.36908 -2.29237,1.10742 l -0.12919,-0.96583 h -0.74673 l 0.0775,1.93167 v 4.89375 h 0.90124 v -5.09994 c 0.12878,-0.24898 0.34773,-0.48475 0.6568,-0.70797 0.30908,-0.23181 0.71664,-0.34778 1.22318,-0.34778 0.42928,0 0.78154,0.11597 1.05627,0.34778 0.28332,0.23181 0.42478,0.6177 0.42478,1.15858 v 4.64933 h 0.90176 v -4.778 c 0,-0.40351 -0.0732,-0.76825 -0.21911,-1.09451 -0.14596,-0.33483 -0.37357,-0.60094 -0.68265,-0.7984 -0.30049,-0.19746 -0.69072,-0.2961 -1.1715,-0.2961 z m 9.16274,0 c -0.89288,0 -1.5584,0.31325 -1.99626,0.93999 -0.24897,0.352 -0.41643,0.73408 -0.50229,1.14618 -0.0773,0.4121 -0.11576,0.86683 -0.11576,1.36478 0,0.58381 0.09,1.11653 0.27027,1.59732 0.1803,0.4722 0.4594,0.85427 0.83716,1.14618 0.38635,0.28332 0.88873,0.42478 1.50688,0.42478 0.86714,0 1.51098,-0.30026 1.93167,-0.90124 v 1.26194 c 0,0.67826 -0.15013,1.16764 -0.45062,1.46813 -0.29191,0.30049 -0.73847,0.45062 -1.33945,0.45062 -0.60098,0 -1.04755,-0.15013 -1.33945,-0.45062 -0.28332,-0.30049 -0.42479,-0.79421 -0.42479,-1.48105 h -0.86299 v 0.16744 c 0,0.4722 0.0856,0.90143 0.25735,1.28777 0.1717,0.38635 0.45081,0.69094 0.83716,0.91416 0.38634,0.2318 0.90173,0.34778 1.54564,0.34778 0.6525,0 1.17603,-0.11598 1.57096,-0.34778 0.39493,-0.22322 0.67837,-0.53648 0.85008,-0.94 0.17171,-0.39492 0.25735,-0.85015 0.25735,-1.36529 v -4.95783 l 0.0775,-1.93167 h -0.74724 l -0.12867,0.91416 c -0.4121,-0.70401 -1.0901,-1.05575 -2.03451,-1.05575 z m -18.00406,0.14159 v 6.82542 h 0.90175 v -6.82542 z m -25.41499,0.61805 c 1.26205,0 1.91457,0.80697 1.9575,2.42104 h -3.915004 c 0,-0.46361 0.06449,-0.87551 0.19327,-1.2361 0.137368,-0.36918 0.347649,-0.65695 0.630969,-0.863 0.291906,-0.21464 0.669649,-0.32194 1.133265,-0.32194 z m -23.490039,0.0517 c 0.678252,0 1.171969,0.23142 1.481046,0.69504 0.317663,0.45503 0.476457,1.18937 0.476457,2.20245 0,0.49796 -0.06397,0.94452 -0.192753,1.33946 -0.128782,0.38634 -0.33958,0.69093 -0.631486,0.91415 -0.283321,0.22323 -0.661064,0.33487 -1.133264,0.33487 -0.678252,0 -1.171454,-0.23629 -1.48053,-0.70849 -0.18888,-0.27474 -0.317856,-0.57932 -0.38654,-0.91415 -0.0601,-0.34342 -0.09043,-0.76831 -0.09043,-1.27486 0,-0.49795 0.06449,-0.94019 0.19327,-1.32653 0.128782,-0.39494 0.33473,-0.70386 0.61805,-0.92708 0.291906,-0.22323 0.673983,-0.33486 1.146184,-0.33486 z m 67.101849,0 c 0.30907,0 0.57569,0.0558 0.79892,0.16743 0.2318,0.11161 0.42475,0.24874 0.57929,0.41186 0.15454,0.16313 0.27485,0.32192 0.3607,0.47646 v 2.89749 c -0.12878,0.2404 -0.33906,0.47668 -0.63097,0.70849 -0.29191,0.22322 -0.6615,0.33486 -1.10794,0.33486 -0.64392,0 -1.1203,-0.21461 -1.42937,-0.64389 -0.30908,-0.38634 -0.46354,-1.05185 -0.46354,-1.99626 0,-0.66966 0.14579,-1.22787 0.4377,-1.67431 0.30049,-0.45504 0.78554,-0.68213 1.45521,-0.68213 z m -20.10265,11.90056 v 10.30273 h 0.90175 v -5.09994 c 0.12878,-0.24898 0.34722,-0.48475 0.65629,-0.70797 0.30908,-0.23181 0.71716,-0.34778 1.2237,-0.34778 0.42927,0 0.78153,0.11597 1.05627,0.34778 0.28332,0.23181 0.42478,0.6177 0.42478,1.15858 v 4.64933 h 0.90123 v -4.778 c 0,-0.40352 -0.0726,-0.76826 -0.21859,-1.09451 -0.14595,-0.33483 -0.37357,-0.60093 -0.68264,-0.7984 -0.3005,-0.19746 -0.69124,-0.2961 -1.17202,-0.2961 -0.99592,0 -1.7254,0.32192 -2.18902,0.96583 v -4.30155 z m -16.30392,0.11576 c -0.90147,0 -1.61414,0.22328 -2.13785,0.66972 -0.52371,0.44645 -0.88412,1.11196 -1.08159,1.99626 -0.0859,0.38635 -0.14601,0.7901 -0.18035,1.21078 -0.0257,0.4121 -0.0388,0.92698 -0.0388,1.54513 0,1.63983 0.27044,2.86787 0.81132,3.68349 0.54088,0.81562 1.41668,1.22319 2.62723,1.22319 0.90148,0 1.61848,-0.22328 2.15078,-0.66973 0.5323,-0.44644 0.89704,-1.11629 1.0945,-2.00918 0.0859,-0.37776 0.1417,-0.77232 0.16744,-1.18442 0.0257,-0.4121 0.0387,-0.93183 0.0387,-1.55857 0,-1.63982 -0.27043,-2.86735 -0.81132,-3.68297 -0.54088,-0.81562 -1.42101,-1.2237 -2.64015,-1.2237 z m -0.0382,0.83716 c 0.89289,0 1.53674,0.31759 1.93167,0.95291 0.40352,0.62674 0.60513,1.66566 0.60513,3.1166 V 127.77 c 0,1.36509 -0.18913,2.38667 -0.56689,3.06493 -0.36917,0.66966 -0.99568,1.00459 -1.87999,1.00459 h -0.0904 c -0.6525,0 -1.16304,-0.18428 -1.53221,-0.55346 -0.36917,-0.36917 -0.62228,-0.92738 -0.75964,-1.67431 -0.0601,-0.32625 -0.10346,-0.66551 -0.12919,-1.01751 -0.0171,-0.3606 -0.0253,-0.80716 -0.0253,-1.33946 0,-1.4166 0.19729,-2.44686 0.59222,-3.09076 0.39493,-0.6525 1.01328,-0.97875 1.85466,-0.97875 z m 8.76329,0.59272 v 1.93167 h -1.08158 v 0.81132 H 114.9 v 4.12068 c 0,1.3565 0.66552,2.03502 1.99626,2.03502 0.40352,0 0.71678,-0.0472 0.94,-0.1416 h 0.0129 v -0.78548 c -0.1803,0.0773 -0.42473,0.11576 -0.73381,0.11576 -0.45502,0 -0.78995,-0.0986 -1.00459,-0.29611 -0.20605,-0.20605 -0.30902,-0.55397 -0.30902,-1.04335 v -4.00492 h 2.17609 v -0.81132 h -2.17609 v -1.93167 z m 20.10317,1.79008 c -0.96157,0 -1.69157,0.33059 -2.18953,0.99167 -0.25756,0.34342 -0.43803,0.72931 -0.54105,1.15858 -0.10303,0.42928 -0.15452,0.94466 -0.15452,1.54564 0,0.62674 0.0992,1.19743 0.29663,1.71256 0.20605,0.51513 0.52797,0.92755 0.96583,1.23662 0.43785,0.30908 0.99988,0.46354 1.68672,0.46354 0.704,0 1.25788,-0.12464 1.6614,-0.37362 0.4121,-0.24898 0.7042,-0.55357 0.87591,-0.91416 0.17171,-0.36059 0.25735,-0.70851 0.25735,-1.04335 h -0.863 c 0,0.24898 -0.0683,0.49393 -0.20567,0.73432 -0.12878,0.2404 -0.33958,0.44201 -0.63149,0.60514 -0.28332,0.15453 -0.64806,0.23202 -1.0945,0.23202 -1.33078,0 -2.00877,-0.80697 -2.0345,-2.42104 h 4.82916 v -0.51521 c 0,-0.62674 -0.0986,-1.19794 -0.29611,-1.71308 -0.19746,-0.51512 -0.50639,-0.92702 -0.92707,-1.2361 -0.42069,-0.30908 -0.96589,-0.46353 -1.63556,-0.46353 z m 10.10274,0 c -0.84996,0 -1.48514,0.3474 -1.90583,1.04283 l -0.12919,-0.90124 h -0.74672 l 0.0775,1.93166 v 4.89376 h 0.90124 v -5.06119 c 0.12879,-0.23181 0.33907,-0.45942 0.63097,-0.68264 0.17171,-0.12876 0.3565,-0.21874 0.55397,-0.27027 0.20605,-0.0515 0.47649,-0.0775 0.81132,-0.0775 v -0.86247 z m -10.11566,0.75964 c 1.26206,0 1.91457,0.80697 1.9575,2.42104 h -3.915 c 0,-0.46362 0.0645,-0.87551 0.19327,-1.2361 0.13736,-0.36917 0.34765,-0.65694 0.63097,-0.863 0.2919,-0.21463 0.66965,-0.32194 1.13326,-0.32194 z m -14.84974,11.95224 v 10.30273 h 0.90175 v -5.09995 c 0.12879,-0.24898 0.34774,-0.48474 0.65681,-0.70796 0.30908,-0.23181 0.71664,-0.34778 1.22318,-0.34778 0.42928,0 0.78154,0.11597 1.05627,0.34778 0.28332,0.2318 0.42478,0.61821 0.42478,1.1591 v 4.64881 h 0.90175 v -4.778 c 0,-0.40351 -0.0731,-0.76826 -0.21911,-1.09451 -0.14595,-0.33483 -0.37356,-0.60093 -0.68264,-0.7984 -0.30049,-0.19747 -0.69124,-0.2961 -1.17202,-0.2961 -0.99592,0 -1.7254,0.32191 -2.18902,0.96583 v -4.30155 z m -10.24434,0.25787 v 0.83716 h 2.54972 v 9.2077 h 0.92707 v -9.2077 h 2.56316 v -0.83716 z m 22.54953,3.07785 c -1.63982,0 -2.4598,0.7983 -2.4598,2.3952 h 0.863 c 0,-0.47221 0.11164,-0.86295 0.33486,-1.17202 0.22322,-0.30908 0.63945,-0.46354 1.24902,-0.46354 0.43786,0 0.76845,0.0775 0.99167,0.23203 0.23181,0.14595 0.38627,0.3649 0.46354,0.6568 0.0859,0.28332 0.12919,0.6394 0.12919,1.06867 l -2.06085,0.32195 c -0.4121,0.0515 -0.80285,0.16315 -1.17202,0.33486 -0.70402,0.31766 -1.05575,0.94035 -1.05575,1.86759 0,0.50654 0.15879,0.94392 0.47645,1.31309 0.31766,0.36918 0.81571,0.55398 1.49397,0.55398 1.08176,0 1.88441,-0.36474 2.40812,-1.09451 l 0.14159,0.95291 h 0.74724 l -0.0775,-1.93166 v -2.49856 c 0,-0.50655 -0.0775,-0.94877 -0.23203,-1.32653 -0.15454,-0.38635 -0.41631,-0.68227 -0.78548,-0.88832 -0.36059,-0.21464 -0.84563,-0.32194 -1.45521,-0.32194 z m 10.29601,0 c -1.03884,0 -1.80299,0.36907 -2.29236,1.10742 l -0.12868,-0.96583 h -0.74672 l 0.077,1.93166 v 4.89376 h 0.90175 v -5.09995 c 0.12878,-0.24898 0.34773,-0.48474 0.65681,-0.70796 0.30907,-0.23181 0.71663,-0.34778 1.22318,-0.34778 0.42927,0 0.78153,0.11597 1.05627,0.34778 0.28332,0.2318 0.42478,0.61821 0.42478,1.1591 v 4.64881 h 0.90175 v -4.778 c 0,-0.40351 -0.0731,-0.76826 -0.21911,-1.09451 -0.14595,-0.33483 -0.37357,-0.60093 -0.68264,-0.7984 -0.3005,-0.19747 -0.69124,-0.2961 -1.17203,-0.2961 z m -8.72453,3.37395 v 1.86759 c -0.0773,0.14595 -0.20191,0.30041 -0.37362,0.46353 -0.17171,0.16313 -0.39932,0.30892 -0.68264,0.4377 -0.28332,0.1202 -0.62692,0.18035 -1.03043,0.18035 -0.86713,0 -1.3007,-0.42489 -1.3007,-1.27485 0,-0.74694 0.46824,-1.19784 1.40405,-1.35238 z m -19.67683,9.33793 v 10.30273 h 0.90123 v -5.09995 c 0.12878,-0.24898 0.34773,-0.48474 0.65681,-0.70796 0.30908,-0.23181 0.71716,-0.34779 1.2237,-0.34779 0.42927,0 0.78101,0.11598 1.05575,0.34779 0.28332,0.2318 0.4253,0.61821 0.4253,1.1591 v 4.64881 h 0.90123 v -4.778 c 0,-0.40352 -0.0731,-0.76826 -0.2191,-1.09451 -0.14596,-0.33483 -0.37306,-0.60093 -0.68213,-0.7984 -0.3005,-0.19747 -0.69124,-0.29611 -1.17202,-0.29611 -0.99592,0 -1.72592,0.32192 -2.18954,0.96584 v -4.30155 z m -54.436473,0.25787 v 10.04486 h 5.602242 v -0.83716 h -4.67465 v -3.87625 h 4.030762 v -0.82424 h -4.030762 v -3.67006 h 4.67465 v -0.83715 z m 64.256023,0.45061 v 1.15911 h 1.15911 v -1.15911 z m -17.39842,0.83716 v 1.93167 h -1.08159 v 0.81132 h 1.08159 v 4.12119 c 0,1.35651 0.66552,2.0345 1.99626,2.0345 0.40352,0 0.71677,-0.0471 0.94,-0.14159 h 0.0129 v -0.78548 c -0.1803,0.0773 -0.42525,0.11575 -0.73433,0.11575 -0.45503,0 -0.78995,-0.0986 -1.00459,-0.2961 -0.20605,-0.20605 -0.30902,-0.55398 -0.30902,-1.04335 v -4.00492 h 2.17661 v -0.81132 h -2.17661 v -1.93167 z m -24.66826,1.79007 c -0.961572,0 -1.691573,0.3306 -2.18953,0.99168 -0.257564,0.34342 -0.43751,0.72982 -0.540536,1.1591 -0.103026,0.42927 -0.154512,0.94414 -0.154512,1.54512 0,0.62674 0.09864,1.19794 0.296106,1.71308 0.206051,0.51512 0.527974,0.92702 0.965832,1.2361 0.437859,0.30908 1.000399,0.46353 1.687236,0.46353 0.704008,0 1.257363,-0.12464 1.66088,-0.37362 0.412102,-0.24898 0.704207,-0.55357 0.875916,-0.91415 0.171709,-0.3606 0.257349,-0.70852 0.257349,-1.04335 h -0.86248 c 0,0.24897 -0.06882,0.49393 -0.206189,0.73432 -0.128782,0.2404 -0.339063,0.44201 -0.630969,0.60513 -0.283321,0.15454 -0.648063,0.23203 -1.094507,0.23203 -1.330751,0 -2.009265,-0.80697 -2.035018,-2.42104 h 4.829163 v -0.51521 c 0,-0.62674 -0.09864,-1.19795 -0.296106,-1.71308 -0.197466,-0.51513 -0.506388,-0.92702 -0.927076,-1.2361 -0.420687,-0.30908 -0.965892,-0.46354 -1.635559,-0.46354 z m 10.102743,0 c -0.849961,0 -1.485139,0.34741 -1.905827,1.04284 l -0.128674,-0.90124 h -0.747241 l 0.07751,1.93166 v 4.89376 h 0.901237 v -5.06119 c 0.128782,-0.23181 0.33958,-0.45942 0.631486,-0.68264 0.171709,-0.12876 0.355989,-0.21874 0.553455,-0.27027 0.206051,-0.0515 0.476486,-0.0775 0.81132,-0.0775 v -0.86248 z m 40.933417,0 c -1.03884,0 -1.80299,0.36908 -2.29236,1.10743 l -0.12868,-0.96583 h -0.74672 l 0.077,1.93166 v 4.89376 h 0.90176 v -5.09995 c 0.12878,-0.24898 0.34773,-0.48474 0.65681,-0.70796 0.30907,-0.23181 0.71663,-0.34779 1.22318,-0.34779 0.42927,0 0.78153,0.11598 1.05626,0.34779 0.28332,0.2318 0.42478,0.61821 0.42478,1.1591 v 4.64881 h 0.90176 v -4.778 c 0,-0.40352 -0.0732,-0.76826 -0.21911,-1.09451 -0.14595,-0.33483 -0.37357,-0.60093 -0.68265,-0.7984 -0.30049,-0.19747 -0.69123,-0.29611 -1.17202,-0.29611 z m 9.16327,0 c -0.89289,0 -1.5584,0.31326 -1.99626,0.94 -0.24898,0.35201 -0.41645,0.73408 -0.5023,1.14618 -0.0773,0.4121 -0.11575,0.86733 -0.11575,1.36529 0,0.58382 0.09,1.11602 0.27026,1.59681 0.1803,0.4722 0.4594,0.85427 0.83716,1.14618 0.38635,0.28332 0.88873,0.42478 1.50689,0.42478 0.86713,0 1.51097,-0.30025 1.93166,-0.90124 v 1.26194 c 0,0.67825 -0.15064,1.16763 -0.45113,1.46813 -0.29191,0.30049 -0.73796,0.45062 -1.33894,0.45062 -0.60098,0 -1.04755,-0.15013 -1.33945,-0.45062 -0.28332,-0.3005 -0.4253,-0.79422 -0.4253,-1.48105 h -0.86248 v 0.16743 c 0,0.4722 0.0856,0.90143 0.25735,1.28778 0.17171,0.38634 0.45081,0.69093 0.83716,0.91416 0.38624,0.23174 0.90198,0.34771 1.54564,0.34778 0.65224,-7e-5 1.17614,-0.11604 1.57096,-0.34778 0.39494,-0.22323 0.67837,-0.53649 0.85008,-0.94 0.17171,-0.39493 0.25735,-0.84965 0.25735,-1.36477 v -4.95836 l 0.0775,-1.93166 h -0.74724 l -0.12867,0.91415 c -0.4121,-0.70401 -1.0901,-1.05575 -2.0345,-1.05575 z m -72.891161,0.1416 2.3828,6.82542 h 1.18494 l 2.395203,-6.82542 H 74.39856 l -2.022099,5.97534 -2.008663,-5.97534 z m 26.88363,0 2.446879,6.56807 -1.069185,2.8329 h 1.043347 l 0.965832,-2.8329 2.446878,-6.56807 H 101.153 l -1.957504,5.5764 -1.944585,-5.5764 z m 28.003461,0 v 6.82542 h 0.90175 v -6.82542 z m -42.208279,0.61805 c 1.262064,0 1.914577,0.80697 1.957503,2.42104 h -3.915006 c 0,-0.46361 0.06449,-0.87551 0.19327,-1.2361 0.137368,-0.36917 0.347649,-0.65694 0.630969,-0.863 0.291906,-0.21463 0.669649,-0.32194 1.133264,-0.32194 z m 60.405099,0.0517 c 0.30908,0 0.57518,0.0558 0.7984,0.16744 0.23181,0.1116 0.42527,0.24873 0.57981,0.41186 0.15454,0.16312 0.27485,0.32191 0.3607,0.47645 v 2.89802 c -0.12878,0.24039 -0.33958,0.47616 -0.63148,0.70797 -0.29191,0.22322 -0.66098,0.33486 -1.10743,0.33486 -0.64391,0 -1.12029,-0.21462 -1.42937,-0.64389 -0.30907,-0.38635 -0.46354,-1.05186 -0.46354,-1.99626 0,-0.66967 0.14579,-1.22735 0.4377,-1.6738 0.30049,-0.45503 0.78554,-0.68265 1.45521,-0.68265 z" />
  </g>
</svg>
