<?xml version="1.0" encoding="UTF-8" standalone="no"?>
<svg
   xmlns:dc="http://purl.org/dc/elements/1.1/"
   xmlns:cc="http://creativecommons.org/ns#"
   xmlns:rdf="http://www.w3.org/1999/02/22-rdf-syntax-ns#"
   xmlns:svg="http://www.w3.org/2000/svg"
   xmlns="http://www.w3.org/2000/svg"
   xmlns:sodipodi="http://sodipodi.sourceforge.net/DTD/sodipodi-0.dtd"
   xmlns:inkscape="http://www.inkscape.org/namespaces/inkscape"
   sodipodi:docname="mouse2.svg"
   inkscape:version="1.0 (4035a4fb49, 2020-05-01)"
   id="svg8"
   version="1.1"
   viewBox="0 0 138.76588 26.06699"
   height="26.06699mm"
   width="138.76588mm">
  <defs
     id="defs2" />
  <sodipodi:namedview
     inkscape:window-maximized="1"
     inkscape:window-y="-8"
     inkscape:window-x="-8"
     inkscape:window-height="1009"
     inkscape:window-width="3840"
     fit-margin-bottom="0"
     fit-margin-right="0"
     fit-margin-left="0"
     fit-margin-top="0"
     showgrid="false"
     inkscape:document-rotation="0"
     inkscape:current-layer="layer1"
     inkscape:document-units="mm"
     inkscape:cy="14.830134"
     inkscape:cx="161.69"
     inkscape:zoom="0.98994949"
     inkscape:pageshadow="2"
     inkscape:pageopacity="0.0"
     borderopacity="1.0"
     bordercolor="#666666"
     pagecolor="#ffffff"
     id="base" />
  <metadata
     id="metadata5">
    <rdf:RDF>
      <cc:Work
         rdf:about="">
        <dc:format>image/svg+xml</dc:format>
        <dc:type
           rdf:resource="http://purl.org/dc/dcmitype/StillImage" />
        <dc:title></dc:title>
      </cc:Work>
    </rdf:RDF>
  </metadata>
  <g
     transform="translate(-55.80819,-129.91289)"
     id="layer1"
     inkscape:groupmode="layer"
     inkscape:label="Layer 1">
    <g
       style="font-size:11.3109px;line-height:1.25;font-family:lego;-inkscape-font-specification:lego;letter-spacing:0.121708px;stroke-width:0.282772"
       id="text835-6"
       aria-label="The Persistence of an Unlikely Thought">
      <path
         id="path892"
         style="font-style:normal;font-variant:normal;font-weight:normal;font-stretch:normal;font-family:'WhitneyCondensed Light';-inkscape-font-specification:'WhitneyCondensed Light, ';stroke-width:0.282772"
         d="m 60.072399,146.51266 -0.07918,-0.45243 H 55.80819 v 0.45243 h 1.866298 v 7.35209 h 0.508991 v -7.35209 z" />
      <path
         id="path894"
         style="font-style:normal;font-variant:normal;font-weight:normal;font-stretch:normal;font-family:'WhitneyCondensed Light';-inkscape-font-specification:'WhitneyCondensed Light, ';stroke-width:0.282772"
         d="m 64.090535,153.86475 v -4.07193 c 0,-0.92749 -0.407192,-1.35731 -1.232888,-1.35731 -0.475058,0 -0.950116,0.31671 -1.481728,0.81439 v -3.47245 l -0.508991,0.11311 v 7.97419 h 0.508991 v -4.11717 c 0.588167,-0.56555 1.017981,-0.84832 1.436484,-0.84832 0.520302,0 0.769141,0.31671 0.769141,0.96143 v 4.00406 z" />
      <path
         id="path896"
         style="font-style:normal;font-variant:normal;font-weight:normal;font-stretch:normal;font-family:'WhitneyCondensed Light';-inkscape-font-specification:'WhitneyCondensed Light, ';stroke-width:0.282772"
         d="m 68.642405,151.05964 c 0,-1.51566 -0.531612,-2.61281 -1.640081,-2.61281 -1.085846,0 -1.843676,1.17633 -1.843676,2.77117 0,1.67401 0.746519,2.73723 1.88892,2.73723 0.63341,0 1.097157,-0.19228 1.572215,-0.53161 l -0.09049,-0.46375 c -0.520302,0.38457 -0.916183,0.54293 -1.413863,0.54293 -0.859628,0 -1.413862,-0.8257 -1.436484,-2.19432 h 2.963456 c 0,-0.0339 0,-0.19228 0,-0.24884 z m -0.520302,-0.18097 H 65.69026 c 0.06787,-1.09716 0.542923,-1.99072 1.312064,-1.99072 0.667343,0 1.074536,0.75783 1.119779,1.99072 z" />
      <path
         id="path898"
         style="font-style:normal;font-variant:normal;font-weight:normal;font-stretch:normal;font-family:'WhitneyCondensed Light';-inkscape-font-specification:'WhitneyCondensed Light, ';stroke-width:0.282772"
         d="m 75.491563,148.23192 c 0,-1.36862 -0.814385,-2.17169 -2.363978,-2.17169 h -1.25551 v 7.80452 h 0.520301 v -3.39327 h 0.588167 c 1.526971,0 2.51102,-0.79177 2.51102,-2.23956 z m -0.531613,0.0113 c 0,1.06322 -0.588166,1.77581 -1.945474,1.77581 h -0.6221 v -3.50638 h 0.701276 c 1.266821,0 1.866298,0.63341 1.866298,1.73057 z" />
      <path
         id="path900"
         style="font-style:normal;font-variant:normal;font-weight:normal;font-stretch:normal;font-family:'WhitneyCondensed Light';-inkscape-font-specification:'WhitneyCondensed Light, ';stroke-width:0.282772"
         d="m 79.567313,151.05964 c 0,-1.51566 -0.531612,-2.61281 -1.64008,-2.61281 -1.085846,0 -1.843677,1.17633 -1.843677,2.77117 0,1.67401 0.74652,2.73723 1.888921,2.73723 0.63341,0 1.097157,-0.19228 1.572215,-0.53161 l -0.09049,-0.46375 c -0.520301,0.38457 -0.916182,0.54293 -1.413862,0.54293 -0.859628,0 -1.413862,-0.8257 -1.436484,-2.19432 h 2.963455 c 0,-0.0339 0,-0.19228 0,-0.24884 z m -0.520301,-0.18097 h -2.431843 c 0.06787,-1.09716 0.542923,-1.99072 1.312064,-1.99072 0.667343,0 1.074535,0.75783 1.119779,1.99072 z" />
      <path
         id="path902"
         style="font-style:normal;font-variant:normal;font-weight:normal;font-stretch:normal;font-family:'WhitneyCondensed Light';-inkscape-font-specification:'WhitneyCondensed Light, ';stroke-width:0.282772"
         d="m 82.596984,148.97844 -0.07918,-0.50899 c -0.667343,0.0339 -1.074535,0.40719 -1.425173,0.92749 l -0.12442,-0.84832 h -0.339327 v 5.31613 h 0.508991 v -3.9362 c 0.305394,-0.50899 0.791763,-0.89356 1.459106,-0.95011 z" />
      <path
         id="path904"
         style="font-style:normal;font-variant:normal;font-weight:normal;font-stretch:normal;font-family:'WhitneyCondensed Light';-inkscape-font-specification:'WhitneyCondensed Light, ';stroke-width:0.282772"
         d="m 86.115143,152.51875 c 0,-0.7239 -0.339327,-1.16502 -1.187645,-1.60615 -0.893561,-0.46375 -1.108468,-0.7239 -1.108468,-1.19895 0,-0.42982 0.339327,-0.8257 0.893561,-0.8257 0.407192,0 0.769141,0.13573 1.097157,0.32802 l 0.07918,-0.47506 c -0.271462,-0.16966 -0.667344,-0.29408 -1.165023,-0.29408 -0.859629,0 -1.402552,0.62209 -1.402552,1.31206 0,0.7239 0.384571,1.11978 1.289443,1.59484 0.791763,0.4185 1.00667,0.70127 1.00667,1.19895 0,0.58817 -0.407192,0.97274 -1.029292,0.97274 -0.463747,0 -0.938805,-0.16966 -1.37993,-0.45244 l -0.07918,0.47506 c 0.395881,0.24884 0.88225,0.40719 1.425173,0.40719 0.904872,0 1.560905,-0.56554 1.560906,-1.43648 z" />
      <path
         id="path906"
         style="font-style:normal;font-variant:normal;font-weight:normal;font-stretch:normal;font-family:'WhitneyCondensed Light';-inkscape-font-specification:'WhitneyCondensed Light, ';stroke-width:0.282772"
         d="m 87.937021,146.87461 c 0,-0.22622 -0.192285,-0.42981 -0.418503,-0.42981 -0.226218,0 -0.407192,0.20359 -0.407192,0.42981 0,0.23753 0.180974,0.44113 0.407192,0.44113 0.226218,0 0.418503,-0.2036 0.418503,-0.44113 z m -0.158352,6.99014 v -5.31613 h -0.508991 v 5.31613 z" />
      <path
         id="path908"
         style="font-style:normal;font-variant:normal;font-weight:normal;font-stretch:normal;font-family:'WhitneyCondensed Light';-inkscape-font-specification:'WhitneyCondensed Light, ';stroke-width:0.282772"
         d="m 91.859369,152.51875 c 0,-0.7239 -0.339327,-1.16502 -1.187644,-1.60615 -0.893562,-0.46375 -1.108469,-0.7239 -1.108469,-1.19895 0,-0.42982 0.339327,-0.8257 0.893561,-0.8257 0.407193,0 0.769142,0.13573 1.097158,0.32802 l 0.07918,-0.47506 c -0.271462,-0.16966 -0.667343,-0.29408 -1.165023,-0.29408 -0.859628,0 -1.402551,0.62209 -1.402551,1.31206 0,0.7239 0.38457,1.11978 1.289442,1.59484 0.791763,0.4185 1.00667,0.70127 1.00667,1.19895 0,0.58817 -0.407192,0.97274 -1.029291,0.97274 -0.463747,0 -0.938805,-0.16966 -1.37993,-0.45244 l -0.07918,0.47506 c 0.395882,0.24884 0.882251,0.40719 1.425174,0.40719 0.904872,0 1.560904,-0.56554 1.560903,-1.43648 z" />
      <path
         id="path910"
         style="font-style:normal;font-variant:normal;font-weight:normal;font-stretch:normal;font-family:'WhitneyCondensed Light';-inkscape-font-specification:'WhitneyCondensed Light, ';stroke-width:0.282772"
         d="m 94.836018,153.84212 -0.06787,-0.40719 c -0.101798,0.0226 -0.271461,0.0566 -0.407192,0.0566 -0.486369,0 -0.678654,-0.16967 -0.678654,-0.7239 v -3.78915 h 1.074535 l -0.07918,-0.42982 h -0.995359 v -2.00203 l -0.508991,0.11311 v 1.88892 h -0.712586 v 0.42982 h 0.712586 v 3.86833 c 0,0.81438 0.441125,1.08584 1.097158,1.08584 0.248839,0 0.441125,-0.0452 0.565545,-0.0905 z" />
      <path
         id="path912"
         style="font-style:normal;font-variant:normal;font-weight:normal;font-stretch:normal;font-family:'WhitneyCondensed Light';-inkscape-font-specification:'WhitneyCondensed Light, ';stroke-width:0.282772"
         d="m 98.920783,151.05964 c 0,-1.51566 -0.531612,-2.61281 -1.64008,-2.61281 -1.085847,0 -1.843677,1.17633 -1.843677,2.77117 0,1.67401 0.74652,2.73723 1.88892,2.73723 0.633411,0 1.097158,-0.19228 1.572215,-0.53161 l -0.09049,-0.46375 c -0.520301,0.38457 -0.916183,0.54293 -1.413862,0.54293 -0.859629,0 -1.413863,-0.8257 -1.436484,-2.19432 h 2.963455 c 0,-0.0339 0,-0.19228 0,-0.24884 z m -0.520301,-0.18097 h -2.431844 c 0.06787,-1.09716 0.542924,-1.99072 1.312065,-1.99072 0.667343,0 1.074535,0.75783 1.119779,1.99072 z" />
      <path
         id="path914"
         style="font-style:normal;font-variant:normal;font-weight:normal;font-stretch:normal;font-family:'WhitneyCondensed Light';-inkscape-font-specification:'WhitneyCondensed Light, ';stroke-width:0.282772"
         d="m 103.20596,153.86475 v -4.07193 c 0,-0.92749 -0.40719,-1.35731 -1.23289,-1.35731 -0.48637,0 -0.98404,0.33933 -1.52697,0.85963 l -0.11311,-0.74652 h -0.350635 v 5.31613 h 0.508995 v -4.11717 c 0.58816,-0.56555 1.01798,-0.84832 1.43648,-0.84832 0.5203,0 0.76914,0.31671 0.76914,0.96143 v 4.00406 z" />
      <path
         id="path916"
         style="font-style:normal;font-variant:normal;font-weight:normal;font-stretch:normal;font-family:'WhitneyCondensed Light';-inkscape-font-specification:'WhitneyCondensed Light, ';stroke-width:0.282772"
         d="m 107.54292,153.41231 -0.0792,-0.48637 c -0.44113,0.37326 -0.83701,0.56555 -1.25551,0.56555 -0.95012,0 -1.40255,-1.05192 -1.40255,-2.29612 0,-1.2442 0.49768,-2.27349 1.37993,-2.27349 0.46374,0 0.81438,0.21491 1.23288,0.57686 l 0.0905,-0.54292 c -0.38457,-0.3054 -0.74652,-0.49768 -1.30075,-0.49768 -1.17634,0 -1.93417,1.16502 -1.93417,2.75986 0,1.59483 0.66735,2.72592 1.90023,2.72592 0.53162,0 0.97274,-0.2149 1.36862,-0.53161 z" />
      <path
         id="path918"
         style="font-style:normal;font-variant:normal;font-weight:normal;font-stretch:normal;font-family:'WhitneyCondensed Light';-inkscape-font-specification:'WhitneyCondensed Light, ';stroke-width:0.282772"
         d="m 111.63511,151.05964 c 0,-1.51566 -0.53161,-2.61281 -1.64008,-2.61281 -1.08584,0 -1.84368,1.17633 -1.84368,2.77117 0,1.67401 0.74652,2.73723 1.88893,2.73723 0.63341,0 1.09715,-0.19228 1.57221,-0.53161 l -0.0905,-0.46375 c -0.5203,0.38457 -0.91618,0.54293 -1.41386,0.54293 -0.85963,0 -1.41386,-0.8257 -1.43648,-2.19432 h 2.96345 c 0,-0.0339 0,-0.19228 0,-0.24884 z m -0.5203,-0.18097 h -2.43184 c 0.0679,-1.09716 0.54292,-1.99072 1.31206,-1.99072 0.66734,0 1.07454,0.75783 1.11978,1.99072 z" />
      <path
         id="path920"
         style="font-style:normal;font-variant:normal;font-weight:normal;font-stretch:normal;font-family:'WhitneyCondensed Light';-inkscape-font-specification:'WhitneyCondensed Light, ';stroke-width:0.282772"
         d="m 118.32592,151.19537 c 0,-1.59483 -0.66735,-2.74854 -1.90023,-2.74854 -1.23289,0 -1.91155,1.17633 -1.91155,2.77117 0,1.59483 0.65604,2.73723 1.88892,2.73723 1.23289,0 1.92286,-1.16502 1.92286,-2.75986 z m -0.53161,0.0226 c 0,1.24419 -0.4072,2.29611 -1.36862,2.29611 -0.96143,0 -1.37993,-1.07454 -1.37993,-2.31874 0,-1.2442 0.39588,-2.29611 1.3573,-2.29611 0.96143,0 1.39125,1.07454 1.39125,2.31874 z" />
      <path
         id="path922"
         style="font-style:normal;font-variant:normal;font-weight:normal;font-stretch:normal;font-family:'WhitneyCondensed Light';-inkscape-font-specification:'WhitneyCondensed Light, ';stroke-width:0.282772"
         d="m 121.22374,146.32038 -0.0792,-0.45244 c -0.11311,-0.0339 -0.23753,-0.0452 -0.39588,-0.0452 -0.68997,0 -1.09716,0.39588 -1.09716,1.15371 v 1.57221 h -0.71259 v 0.42982 h 0.71259 v 4.88631 h 0.50899 v -4.88631 h 0.98405 l -0.0792,-0.42982 h -0.90487 v -1.54959 c 0,-0.48637 0.2036,-0.7239 0.58817,-0.7239 0.15835,0 0.36195,0.0113 0.47505,0.0453 z" />
      <path
         id="path924"
         style="font-style:normal;font-variant:normal;font-weight:normal;font-stretch:normal;font-family:'WhitneyCondensed Light';-inkscape-font-specification:'WhitneyCondensed Light, ';stroke-width:0.282772"
         d="m 126.98264,153.86475 v -3.98144 c 0,-0.96143 -0.50899,-1.43648 -1.41386,-1.43648 -0.49768,0 -0.98405,0.16966 -1.47042,0.45243 l 0.0792,0.47506 c 0.46375,-0.29408 0.9275,-0.45244 1.33469,-0.45244 0.61079,0 0.96143,0.31671 0.96143,1.00667 v 0.61079 c -1.84368,0.23753 -2.73724,0.89356 -2.73724,2.04727 0,0.90488 0.58817,1.36862 1.32337,1.36862 0.55424,0 1.01799,-0.27146 1.47042,-0.73521 l 0.1018,0.64473 z m -0.50899,-1.13109 c -0.57686,0.58816 -0.96143,0.76914 -1.37993,0.76914 -0.48637,0 -0.83701,-0.33933 -0.83701,-0.93881 0,-0.88225 0.67865,-1.40255 2.21694,-1.59483 z" />
      <path
         id="path926"
         style="font-style:normal;font-variant:normal;font-weight:normal;font-stretch:normal;font-family:'WhitneyCondensed Light';-inkscape-font-specification:'WhitneyCondensed Light, ';stroke-width:0.282772"
         d="m 131.48484,153.86475 v -4.07193 c 0,-0.92749 -0.40719,-1.35731 -1.23289,-1.35731 -0.48636,0 -0.98404,0.33933 -1.52697,0.85963 l -0.11311,-0.74652 h -0.35063 v 5.31613 h 0.50899 v -4.11717 c 0.58816,-0.56555 1.01798,-0.84832 1.43648,-0.84832 0.5203,0 0.76914,0.31671 0.76914,0.96143 v 4.00406 z" />
      <path
         id="path928"
         style="font-style:normal;font-variant:normal;font-weight:normal;font-stretch:normal;font-family:'WhitneyCondensed Light';-inkscape-font-specification:'WhitneyCondensed Light, ';stroke-width:0.282772"
         d="m 139.06444,151.46684 v -5.40661 h -0.5203 v 5.39529 c 0,1.19896 -0.47506,2.01334 -1.56091,2.01334 -1.08584,0 -1.5609,-0.81438 -1.5609,-2.01334 v -5.39529 h -0.5203 v 5.42923 c 0,1.47041 0.68996,2.44315 2.06989,2.44315 1.33469,0 2.09252,-0.90487 2.09252,-2.46577 z" />
      <path
         id="path930"
         style="font-style:normal;font-variant:normal;font-weight:normal;font-stretch:normal;font-family:'WhitneyCondensed Light';-inkscape-font-specification:'WhitneyCondensed Light, ';stroke-width:0.282772"
         d="m 143.69107,153.86475 v -4.07193 c 0,-0.92749 -0.4072,-1.35731 -1.23289,-1.35731 -0.48637,0 -0.98405,0.33933 -1.52697,0.85963 l -0.11311,-0.74652 h -0.35064 v 5.31613 h 0.50899 v -4.11717 c 0.58817,-0.56555 1.01798,-0.84832 1.43648,-0.84832 0.5203,0 0.76914,0.31671 0.76914,0.96143 v 4.00406 z" />
      <path
         id="path932"
         style="font-style:normal;font-variant:normal;font-weight:normal;font-stretch:normal;font-family:'WhitneyCondensed Light';-inkscape-font-specification:'WhitneyCondensed Light, ';stroke-width:0.282772"
         d="m 145.57356,153.86475 v -8.0873 l -0.50899,0.11311 v 7.97419 z" />
      <path
         id="path934"
         style="font-style:normal;font-variant:normal;font-weight:normal;font-stretch:normal;font-family:'WhitneyCondensed Light';-inkscape-font-specification:'WhitneyCondensed Light, ';stroke-width:0.282772"
         d="m 147.73141,146.87461 c 0,-0.22622 -0.19228,-0.42981 -0.4185,-0.42981 -0.22622,0 -0.40719,0.20359 -0.40719,0.42981 0,0.23753 0.18097,0.44113 0.40719,0.44113 0.22622,0 0.4185,-0.2036 0.4185,-0.44113 z m -0.15835,6.99014 v -5.31613 h -0.50899 v 5.31613 z" />
      <path
         id="path936"
         style="font-style:normal;font-variant:normal;font-weight:normal;font-stretch:normal;font-family:'WhitneyCondensed Light';-inkscape-font-specification:'WhitneyCondensed Light, ';stroke-width:0.282772"
         d="m 152.03833,153.80819 -2.03596,-2.87297 1.92285,-2.3866 h -0.59948 l -1.83236,2.33005 v -5.10122 l -0.50899,0.11311 v 7.97419 h 0.50899 v -2.83904 l 2.00203,2.89559 z" />
      <path
         id="path938"
         style="font-style:normal;font-variant:normal;font-weight:normal;font-stretch:normal;font-family:'WhitneyCondensed Light';-inkscape-font-specification:'WhitneyCondensed Light, ';stroke-width:0.282772"
         d="m 155.89829,151.05964 c 0,-1.51566 -0.53161,-2.61281 -1.64008,-2.61281 -1.08585,0 -1.84368,1.17633 -1.84368,2.77117 0,1.67401 0.74652,2.73723 1.88892,2.73723 0.63342,0 1.09716,-0.19228 1.57222,-0.53161 l -0.0905,-0.46375 c -0.5203,0.38457 -0.91618,0.54293 -1.41386,0.54293 -0.85963,0 -1.41386,-0.8257 -1.43648,-2.19432 h 2.96345 c 0,-0.0339 0,-0.19228 0,-0.24884 z m -0.5203,-0.18097 h -2.43184 c 0.0679,-1.09716 0.54292,-1.99072 1.31206,-1.99072 0.66734,0 1.07454,0.75783 1.11978,1.99072 z" />
      <path
         id="path940"
         style="font-style:normal;font-variant:normal;font-weight:normal;font-stretch:normal;font-family:'WhitneyCondensed Light';-inkscape-font-specification:'WhitneyCondensed Light, ';stroke-width:0.282772"
         d="m 157.54803,153.86475 v -8.0873 l -0.50899,0.11311 v 7.97419 z" />
      <path
         id="path942"
         style="font-style:normal;font-variant:normal;font-weight:normal;font-stretch:normal;font-family:'WhitneyCondensed Light';-inkscape-font-specification:'WhitneyCondensed Light, ';stroke-width:0.282772"
         d="m 162.26214,148.54862 h -0.50899 l -1.32338,4.64878 -1.33468,-4.71664 -0.49768,0.11311 1.59483,5.32743 -0.24884,0.79176 c -0.18097,0.56555 -0.39588,0.71259 -0.79176,0.71259 -0.11311,0 -0.16966,-0.0113 -0.24884,-0.0226 l 0.0905,0.45243 c 0.0905,0.0113 0.15835,0.0226 0.24884,0.0226 0.58817,0 0.90487,-0.29409 1.13109,-1.06323 z" />
      <path
         id="path944"
         style="font-style:normal;font-variant:normal;font-weight:normal;font-stretch:normal;font-family:'WhitneyCondensed Light';-inkscape-font-specification:'WhitneyCondensed Light, ';stroke-width:0.282772"
         d="m 169.06765,146.51266 -0.0792,-0.45243 h -4.18503 v 0.45243 h 1.8663 v 7.35209 h 0.50899 v -7.35209 z" />
      <path
         id="path946"
         style="font-style:normal;font-variant:normal;font-weight:normal;font-stretch:normal;font-family:'WhitneyCondensed Light';-inkscape-font-specification:'WhitneyCondensed Light, ';stroke-width:0.282772"
         d="m 173.08578,153.86475 v -4.07193 c 0,-0.92749 -0.40719,-1.35731 -1.23289,-1.35731 -0.47506,0 -0.95011,0.31671 -1.48173,0.81439 v -3.47245 l -0.50899,0.11311 v 7.97419 h 0.50899 v -4.11717 c 0.58817,-0.56555 1.01798,-0.84832 1.43649,-0.84832 0.5203,0 0.76914,0.31671 0.76914,0.96143 v 4.00406 z" />
      <path
         id="path948"
         style="font-style:normal;font-variant:normal;font-weight:normal;font-stretch:normal;font-family:'WhitneyCondensed Light';-inkscape-font-specification:'WhitneyCondensed Light, ';stroke-width:0.282772"
         d="m 177.96566,151.19537 c 0,-1.59483 -0.66734,-2.74854 -1.90023,-2.74854 -1.23288,0 -1.91154,1.17633 -1.91154,2.77117 0,1.59483 0.65603,2.73723 1.88892,2.73723 1.23289,0 1.92285,-1.16502 1.92285,-2.75986 z m -0.53161,0.0226 c 0,1.24419 -0.40719,2.29611 -1.36862,2.29611 -0.96142,0 -1.37993,-1.07454 -1.37993,-2.31874 0,-1.2442 0.39589,-2.29611 1.35731,-2.29611 0.96143,0 1.39124,1.07454 1.39124,2.31874 z" />
      <path
         id="path950"
         style="font-style:normal;font-variant:normal;font-weight:normal;font-stretch:normal;font-family:'WhitneyCondensed Light';-inkscape-font-specification:'WhitneyCondensed Light, ';stroke-width:0.282772"
         d="m 182.24236,153.86475 v -5.31613 h -0.50899 v 4.11717 c -0.58817,0.55423 -1.01798,0.84832 -1.43648,0.84832 -0.52031,0 -0.76915,-0.31671 -0.76915,-0.96143 v -4.00406 h -0.50899 v 4.06062 c 0,0.9388 0.4072,1.36862 1.23289,1.36862 0.48637,0 0.98405,-0.33933 1.52697,-0.85963 l 0.11311,0.74652 z" />
      <path
         id="path952"
         style="font-style:normal;font-variant:normal;font-weight:normal;font-stretch:normal;font-family:'WhitneyCondensed Light';-inkscape-font-specification:'WhitneyCondensed Light, ';stroke-width:0.282772"
         d="m 185.04104,155.97988 c 1.2442,0 2.20563,-0.70127 2.20563,-1.57221 0,-0.67865 -0.42982,-1.08585 -1.69664,-1.37993 -1.02929,-0.23753 -1.2442,-0.33933 -1.2442,-0.58817 0,-0.13573 0.12442,-0.29408 0.3054,-0.42981 0.12442,0.0226 0.26015,0.0452 0.40719,0.0452 0.99536,0 1.6627,-0.80307 1.6627,-1.80974 0,-0.40719 -0.1018,-0.76914 -0.29408,-1.06323 l 0.97273,-0.12442 -0.0905,-0.55423 -1.1424,0.38457 c -0.27146,-0.26015 -0.65604,-0.4185 -1.10847,-0.4185 -0.99536,0 -1.65139,0.76914 -1.65139,1.77581 0,0.68996 0.30539,1.31206 0.85963,1.61746 -0.27147,0.23753 -0.4072,0.45243 -0.4072,0.66734 0,0.26015 0.1018,0.44113 0.46375,0.6221 -0.75783,0.38457 -1.22158,0.88225 -1.22158,1.50435 0,0.79176 0.9275,1.32337 1.97941,1.32337 z m -0.0226,-4.35469 c -0.76914,0 -1.13109,-0.67866 -1.13109,-1.37993 0,-0.7239 0.36195,-1.346 1.13109,-1.346 0.75783,0 1.1424,0.64472 1.1424,1.346 0,0.7239 -0.37326,1.37993 -1.1424,1.37993 z m 0.0792,3.93619 c -0.90487,0 -1.51566,-0.42981 -1.51566,-0.95011 0,-0.52031 0.50899,-0.95012 1.19896,-1.27814 0.19228,0.0566 0.4185,0.12442 0.68996,0.18098 0.97274,0.20359 1.25551,0.49768 1.25551,0.96142 0,0.47506 -0.58816,1.08585 -1.62877,1.08585 z" />
      <path
         id="path954"
         style="font-style:normal;font-variant:normal;font-weight:normal;font-stretch:normal;font-family:'WhitneyCondensed Light';-inkscape-font-specification:'WhitneyCondensed Light, ';stroke-width:0.282772"
         d="m 191.33425,153.86475 v -4.07193 c 0,-0.92749 -0.40719,-1.35731 -1.23288,-1.35731 -0.47506,0 -0.95012,0.31671 -1.48173,0.81439 v -3.47245 l -0.50899,0.11311 v 7.97419 h 0.50899 v -4.11717 c 0.58816,-0.56555 1.01798,-0.84832 1.43648,-0.84832 0.5203,0 0.76914,0.31671 0.76914,0.96143 v 4.00406 z" />
      <path
         id="path956"
         style="font-style:normal;font-variant:normal;font-weight:normal;font-stretch:normal;font-family:'WhitneyCondensed Light';-inkscape-font-specification:'WhitneyCondensed Light, ';stroke-width:0.282772"
         d="m 194.57407,153.84212 -0.0679,-0.40719 c -0.1018,0.0226 -0.27146,0.0566 -0.40719,0.0566 -0.48637,0 -0.67866,-0.16967 -0.67866,-0.7239 v -3.78915 h 1.07454 l -0.0792,-0.42982 h -0.99536 v -2.00203 l -0.50899,0.11311 v 1.88892 h -0.71258 v 0.42982 h 0.71258 v 3.86833 c 0,0.81438 0.44113,1.08584 1.09716,1.08584 0.24884,0 0.44113,-0.0452 0.56555,-0.0905 z" />
    </g>
    <g
       style="font-size:17.0342px;line-height:1.25;font-family:lego;-inkscape-font-specification:lego;letter-spacing:0px;stroke-width:0.425855"
       id="text835"
       aria-label="Mouse">
      <path
         id="path881"
         style="font-style:normal;font-variant:normal;font-weight:normal;font-stretch:normal;font-family:'WhitneyCondensed Light';-inkscape-font-specification:'WhitneyCondensed Light, ';stroke-width:0.425855"
         d="m 65.692859,141.66649 -0.579163,-11.7536 h -0.885778 l -3.185396,10.5101 -3.185395,-10.5101 h -0.885779 l -0.596197,11.7536 h 0.698403 l 0.493991,-10.28866 3.151328,10.3568 h 0.579162 l 3.151327,-10.3568 0.493992,10.28866 z" />
      <path
         id="path883"
         style="font-style:normal;font-variant:normal;font-weight:normal;font-stretch:normal;font-family:'WhitneyCondensed Light';-inkscape-font-specification:'WhitneyCondensed Light, ';stroke-width:0.425855"
         d="m 72.87171,137.64642 c 0,-2.40183 -1.005018,-4.13931 -2.861746,-4.13931 -1.856728,0 -2.87878,1.77155 -2.87878,4.17338 0,2.40182 0.987984,4.12227 2.844712,4.12227 1.856728,0 2.895814,-1.75452 2.895814,-4.15634 z m -0.800608,0.0341 c 0,1.87376 -0.613231,3.45794 -2.061138,3.45794 -1.447907,0 -2.078172,-1.61825 -2.078172,-3.49201 0,-1.87376 0.596197,-3.45795 2.044104,-3.45795 1.447907,0 2.095206,1.61825 2.095206,3.49202 z" />
      <path
         id="path885"
         style="font-style:normal;font-variant:normal;font-weight:normal;font-stretch:normal;font-family:'WhitneyCondensed Light';-inkscape-font-specification:'WhitneyCondensed Light, ';stroke-width:0.425855"
         d="m 79.129118,141.66649 v -8.00608 h -0.766539 v 6.20045 c -0.885778,0.83468 -1.533078,1.27757 -2.163343,1.27757 -0.783574,0 -1.158326,-0.47696 -1.158326,-1.44791 v -6.03011 h -0.766539 v 6.11528 c 0,1.41384 0.613231,2.06114 1.856728,2.06114 0.73247,0 1.481975,-0.51103 2.299617,-1.2946 l 0.170342,1.12426 z" />
      <path
         id="path887"
         style="font-style:normal;font-variant:normal;font-weight:normal;font-stretch:normal;font-family:'WhitneyCondensed Light';-inkscape-font-specification:'WhitneyCondensed Light, ';stroke-width:0.425855"
         d="m 84.966259,139.63942 c 0,-1.09019 -0.511026,-1.75452 -1.788591,-2.41886 -1.345702,-0.6984 -1.669352,-1.09019 -1.669352,-1.80562 0,-0.6473 0.511026,-1.2435 1.345702,-1.2435 0.613231,0 1.158326,0.20441 1.652318,0.49399 L 84.625575,133.95 c -0.408821,-0.25552 -1.005018,-0.44289 -1.754523,-0.44289 -1.294599,0 -2.112241,0.93688 -2.112241,1.97596 0,1.09019 0.579163,1.68639 1.941899,2.40183 1.192394,0.63026 1.516044,1.05612 1.516044,1.80562 0,0.88578 -0.613231,1.46494 -1.550112,1.46494 -0.698402,0 -1.413839,-0.25551 -2.078173,-0.68137 l -0.119239,0.71544 c 0.596197,0.37475 1.328668,0.61323 2.146309,0.61323 1.362736,0 2.35072,-0.85171 2.35072,-2.16334 z" />
      <path
         id="path889"
         style="font-style:normal;font-variant:normal;font-weight:normal;font-stretch:normal;font-family:'WhitneyCondensed Light';-inkscape-font-specification:'WhitneyCondensed Light, ';stroke-width:0.425855"
         d="m 91.308304,137.44201 c 0,-2.28259 -0.800608,-3.9349 -2.469959,-3.9349 -1.635284,0 -2.776575,1.77155 -2.776575,4.17338 0,2.52106 1.124257,4.12227 2.844712,4.12227 0.953915,0 1.652317,-0.28958 2.367753,-0.80061 l -0.136273,-0.6984 c -0.783573,0.57917 -1.37977,0.81764 -2.129275,0.81764 -1.294599,0 -2.129275,-1.24349 -2.163344,-3.30463 h 4.462961 c 0,-0.0511 0,-0.28958 0,-0.37475 z m -0.783573,-0.27255 h -3.662354 c 0.102206,-1.65232 0.817642,-2.99802 1.975968,-2.99802 1.005018,0 1.618249,1.14129 1.686386,2.99802 z" />
    </g>
  </g>
</svg>
