<?xml version="1.0" encoding="UTF-8" standalone="no"?>
<svg
   xmlns:dc="http://purl.org/dc/elements/1.1/"
   xmlns:cc="http://creativecommons.org/ns#"
   xmlns:rdf="http://www.w3.org/1999/02/22-rdf-syntax-ns#"
   xmlns:svg="http://www.w3.org/2000/svg"
   xmlns="http://www.w3.org/2000/svg"
   xmlns:sodipodi="http://sodipodi.sourceforge.net/DTD/sodipodi-0.dtd"
   xmlns:inkscape="http://www.inkscape.org/namespaces/inkscape"
   sodipodi:docname="sftwh.svg"
   inkscape:version="1.0 (4035a4fb49, 2020-05-01)"
   id="svg3998"
   version="1.1"
   viewBox="0 0 103.8142 14.01782"
   height="14.01782mm"
   width="103.8142mm">
  <defs
     id="defs3992" />
  <sodipodi:namedview
     inkscape:window-maximized="0"
     inkscape:window-y="0"
     inkscape:window-x="130"
     inkscape:window-height="1032"
     inkscape:window-width="1274"
     fit-margin-bottom="0"
     fit-margin-right="0"
     fit-margin-left="0"
     fit-margin-top="0"
     showgrid="false"
     inkscape:document-rotation="0"
     inkscape:current-layer="layer1"
     inkscape:document-units="mm"
     inkscape:cy="26.490394"
     inkscape:cx="196.18433"
     inkscape:zoom="0.35"
     inkscape:pageshadow="2"
     inkscape:pageopacity="0.0"
     borderopacity="1.0"
     bordercolor="#666666"
     pagecolor="#ffffff"
     id="base" />
  <metadata
     id="metadata3995">
    <rdf:RDF>
      <cc:Work
         rdf:about="">
        <dc:format>image/svg+xml</dc:format>
        <dc:type
           rdf:resource="http://purl.org/dc/dcmitype/StillImage" />
        <dc:title></dc:title>
      </cc:Work>
    </rdf:RDF>
  </metadata>
  <g
     transform="translate(-53.92623,-141.15775)"
     id="layer1"
     inkscape:groupmode="layer"
     inkscape:label="Layer 1">
    <g
       style="font-size:15.9138px;line-height:0.95;font-family:lego;-inkscape-font-specification:lego;letter-spacing:-0.397846px;opacity:1;stroke-width:0.397846"
       id="text994"
       aria-label="stories for the wobbly hearted">
      <path
         id="path4569"
         style="font-style:normal;font-variant:normal;font-weight:normal;font-stretch:normal;font-family:'Savoye LET';-inkscape-font-specification:'Savoye LET';stroke-width:0.397846"
         d="m 53.92623,151.60896 0.435143,-0.51285 q 0.341898,0.80812 1.087858,0.80812 0.38852,0 0.668255,-0.25642 0.271964,-0.24866 0.271964,-0.58278 0,-0.23312 -0.132096,-0.41183 -0.116557,-0.15541 -0.629404,-0.57501 -0.481765,-0.3963 -0.613862,-0.59056 -0.163179,-0.2098 -0.163179,-0.48953 0,-0.36521 0.217572,-0.67603 0.20203,-0.30304 0.56724,-0.50507 0.365209,-0.18649 0.753729,-0.18649 0.349669,0 0.590552,0.17094 0.233112,0.17095 0.233112,0.45069 0,0.35744 -0.303046,0.48953 -0.04662,-0.3652 -0.271964,-0.57501 -0.240883,-0.20203 -0.590552,-0.20203 -0.310816,0 -0.551699,0.20203 -0.240882,0.20981 -0.240882,0.474 0,0.33413 0.404061,0.64494 l 0.450684,0.36521 q 0.660485,0.52062 0.660485,1.06455 0,0.39629 -0.225342,0.75373 -0.225342,0.34967 -0.621633,0.56724 -0.396291,0.2098 -0.831434,0.2098 -0.691567,0 -1.165562,-0.63717 z" />
      <path
         id="path4571"
         style="font-style:normal;font-variant:normal;font-weight:normal;font-stretch:normal;font-family:'Savoye LET';-inkscape-font-specification:'Savoye LET';stroke-width:0.397846"
         d="m 60.086611,147.95686 h -1.258807 l -0.590551,2.58755 q -0.09325,0.42737 -0.09325,0.60609 0,0.27197 0.132097,0.45069 0.124327,0.17094 0.349669,0.17094 0.217571,0 0.38852,-0.12432 0.163179,-0.10879 0.528388,-0.49731 l 0.09325,-0.0932 0.116556,0.11655 q -0.458454,0.55947 -0.7615,0.78481 -0.310816,0.23312 -0.606092,0.23312 -0.365209,0 -0.590551,-0.24866 -0.225342,-0.24865 -0.225342,-0.63717 0,-0.29528 0.116556,-0.85475 l 0.505077,-2.4943 h -0.74596 l 0.05439,-0.26419 h 0.74596 l 0.435143,-2.09801 0.745959,-0.29528 -0.543929,2.39329 h 1.258807 z" />
      <path
         id="path4573"
         style="font-style:normal;font-variant:normal;font-weight:normal;font-stretch:normal;font-family:'Savoye LET';-inkscape-font-specification:'Savoye LET';stroke-width:0.397846"
         d="m 63.131056,148.90485 q 0,-0.45845 -0.225341,-0.76927 -0.233113,-0.30304 -0.590552,-0.30304 -0.326357,0 -0.621632,0.2098 -0.310817,0.21757 -0.5517,0.61386 -0.287505,0.474 -0.458454,1.08786 -0.18649,0.61386 -0.18649,1.1034 0,0.56724 0.225342,0.88582 0.217572,0.31082 0.644944,0.31082 0.676026,0 1.188873,-0.94022 0.264194,-0.474 0.419602,-1.08009 0.155408,-0.60609 0.155408,-1.11894 z m -3.325735,1.70949 q 0,-0.7071 0.38075,-1.39867 0.38075,-0.69934 0.971301,-1.12671 0.598322,-0.43514 1.219955,-0.43514 0.652714,0 1.056775,0.42737 0.396291,0.42737 0.396291,1.11894 0,0.73819 -0.365209,1.4453 -0.37298,0.69156 -0.971301,1.14225 -0.598322,0.45068 -1.219955,0.45068 -0.660484,0 -1.064546,-0.45068 -0.404061,-0.43515 -0.404061,-1.17334 z" />
      <path
         id="path4575"
         style="font-style:normal;font-variant:normal;font-weight:normal;font-stretch:normal;font-family:'Savoye LET';-inkscape-font-specification:'Savoye LET';stroke-width:0.397846"
         d="m 65.134267,147.92578 q 0.03108,-0.17872 0.03108,-0.32636 0,-0.27196 -0.08548,-0.42737 -0.09325,-0.15541 -0.233112,-0.15541 -0.06993,0 -0.132097,0.0699 -0.06216,0.0855 -0.06216,0.18649 0,0.35744 0.481765,0.65271 z m -0.924679,2.09801 -0.139867,-0.12432 q 0.676026,-0.8159 0.893597,-1.50746 -0.629403,-0.34967 -0.629403,-1.00239 0,-0.31081 0.147638,-0.50507 0.147637,-0.19426 0.372979,-0.19426 0.233113,0 0.38075,0.2098 0.147638,0.21757 0.147638,0.55947 0,0.23311 -0.08547,0.53616 0.19426,0.0544 0.38075,0.0544 0.481765,0 0.792582,-0.27974 h 0.372979 l -0.05439,0.10879 q -0.551699,1.01015 -0.916908,2.01254 -0.365209,1.00238 -0.365209,1.48414 0,0.17872 0.09324,0.29528 0.09324,0.12433 0.225342,0.12433 0.318586,0 1.025694,-0.67603 l 0.124326,0.13987 q -0.19426,0.21757 -0.676025,0.59832 -0.404062,0.32636 -0.769271,0.32636 -0.295276,0 -0.473995,-0.20203 -0.178719,-0.20204 -0.178719,-0.5517 0,-0.58278 0.450683,-1.47638 0.139868,-0.29528 0.419602,-0.7615 0.155409,-0.2642 0.644945,-1.01793 l 0.0777,-0.10878 q -0.256424,0.23311 -0.489536,0.32636 -0.233113,0.10101 -0.543929,0.10101 -0.124326,0 -0.295276,-0.0388 -0.248653,0.76927 -0.932449,1.56962 z" />
      <path
         id="path4577"
         style="font-style:normal;font-variant:normal;font-weight:normal;font-stretch:normal;font-family:'Savoye LET';-inkscape-font-specification:'Savoye LET';stroke-width:0.397846"
         d="m 67.914519,147.87916 0.7615,-0.31859 -0.683796,2.55647 q -0.170949,0.61386 -0.170949,1.01015 0,0.24865 0.08548,0.40406 0.08547,0.15541 0.225342,0.15541 0.240882,0 0.76927,-0.57501 l 0.124327,0.10879 -0.0777,0.0855 q -0.442914,0.52062 -0.652715,0.69934 -0.209801,0.18649 -0.38852,0.18649 -0.240883,0 -0.404062,-0.24866 -0.170949,-0.24088 -0.170949,-0.60609 0,-0.24088 0.09324,-0.73819 z m 0.986842,-3.36459 q 0.202031,0 0.326358,0.12433 0.124326,0.12432 0.124326,0.32636 0,0.19426 -0.132097,0.32635 -0.132097,0.1321 -0.318587,0.1321 -0.178719,0 -0.318586,-0.13987 -0.139868,-0.13987 -0.139868,-0.31858 0,-0.18649 0.132097,-0.31859 0.132097,-0.1321 0.326357,-0.1321 z" />
      <path
         id="path4579"
         style="font-style:normal;font-variant:normal;font-weight:normal;font-stretch:normal;font-family:'Savoye LET';-inkscape-font-specification:'Savoye LET';stroke-width:0.397846"
         d="m 69.715699,150.3113 q 0.823663,-0.36521 1.289888,-0.83144 0.310816,-0.32635 0.489536,-0.66825 0.18649,-0.36521 0.18649,-0.64495 0,-0.36521 -0.334128,-0.36521 -0.505077,0 -1.017924,0.79259 -0.520617,0.80035 -0.613862,1.71726 z m 2.486531,0.59055 0.139868,0.11655 q -0.466225,0.62164 -0.94022,0.91691 -0.450684,0.28751 -0.986842,0.28751 -0.621633,0 -1.010154,-0.4196 -0.38075,-0.41184 -0.38075,-1.11117 0,-0.69934 0.37298,-1.42199 0.357439,-0.7071 0.924679,-1.18887 0.551699,-0.46622 1.095628,-0.46622 0.318587,0 0.528388,0.18648 0.20203,0.18649 0.20203,0.48177 0,0.59832 -0.652714,1.19664 -0.660485,0.6061 -1.779424,1.01793 -0.0078,0.0388 -0.0078,0.13986 0,0.52839 0.295276,0.87029 0.295276,0.3419 0.7615,0.3419 0.37298,0 0.707108,-0.23311 0.349668,-0.22535 0.730418,-0.71488 z" />
      <path
         id="path4581"
         style="font-style:normal;font-variant:normal;font-weight:normal;font-stretch:normal;font-family:'Savoye LET';-inkscape-font-specification:'Savoye LET';stroke-width:0.397846"
         d="m 72.053039,151.60896 0.435143,-0.51285 q 0.341898,0.80812 1.087857,0.80812 0.388521,0 0.668255,-0.25642 0.271965,-0.24866 0.271965,-0.58278 0,-0.23312 -0.132097,-0.41183 -0.116556,-0.15541 -0.629404,-0.57501 -0.481765,-0.3963 -0.613862,-0.59056 -0.163179,-0.2098 -0.163179,-0.48953 0,-0.36521 0.217572,-0.67603 0.202031,-0.30304 0.56724,-0.50507 0.365209,-0.18649 0.75373,-0.18649 0.349668,0 0.590551,0.17094 0.233112,0.17095 0.233112,0.45069 0,0.35744 -0.303046,0.48953 -0.04662,-0.3652 -0.271964,-0.57501 -0.240883,-0.20203 -0.590551,-0.20203 -0.310817,0 -0.5517,0.20203 -0.240882,0.20981 -0.240882,0.474 0,0.33413 0.404061,0.64494 l 0.450684,0.36521 q 0.660485,0.52062 0.660485,1.06455 0,0.39629 -0.225342,0.75373 -0.225342,0.34967 -0.621633,0.56724 -0.396291,0.2098 -0.831434,0.2098 -0.691566,0 -1.165561,-0.63717 z" />
      <path
         id="path4583"
         style="font-style:normal;font-variant:normal;font-weight:normal;font-stretch:normal;font-family:'Savoye LET';-inkscape-font-specification:'Savoye LET';stroke-width:0.397846"
         d="m 77.792262,152.65796 1.010153,-4.7011 h -0.7615 l 0.05439,-0.26419 h 0.76927 l 0.730419,-3.41121 q 0.19426,-0.87029 0.38075,-1.35205 0.20203,-0.52062 0.466224,-0.87029 0.660485,-0.8936 1.662868,-0.8936 0.326357,0 0.613863,0.10879 l -0.279735,0.70711 q -0.318587,-0.43515 -0.792582,-0.43515 -0.365209,0 -0.590551,0.27974 -0.233112,0.29528 -0.396291,0.94022 l -1.188873,4.92644 h 1.251036 l -0.05439,0.26419 h -1.258806 l -1.064546,4.4136 q -0.217572,0.90913 -0.404062,1.32097 -0.19426,0.4196 -0.543928,0.80812 -0.621633,0.67602 -1.359822,0.67602 -0.365209,0 -0.637174,-0.12432 l 0.38075,-0.55947 q 0.318587,0.26419 0.707108,0.26419 0.56724,0 0.862515,-0.60609 0.209801,-0.45068 0.442914,-1.49192 z" />
      <path
         id="path4585"
         style="font-style:normal;font-variant:normal;font-weight:normal;font-stretch:normal;font-family:'Savoye LET';-inkscape-font-specification:'Savoye LET';stroke-width:0.397846"
         d="m 83.315468,148.90485 q 0,-0.45845 -0.225342,-0.76927 -0.233112,-0.30304 -0.590551,-0.30304 -0.326357,0 -0.621633,0.2098 -0.310816,0.21757 -0.551699,0.61386 -0.287505,0.474 -0.458454,1.08786 -0.18649,0.61386 -0.18649,1.1034 0,0.56724 0.225342,0.88582 0.217571,0.31082 0.644944,0.31082 0.676026,0 1.188873,-0.94022 0.264194,-0.474 0.419602,-1.08009 0.155408,-0.60609 0.155408,-1.11894 z m -3.325736,1.70949 q 0,-0.7071 0.38075,-1.39867 0.380751,-0.69934 0.971302,-1.12671 0.598321,-0.43514 1.219954,-0.43514 0.652715,0 1.056776,0.42737 0.396291,0.42737 0.396291,1.11894 0,0.73819 -0.365209,1.4453 -0.37298,0.69156 -0.971302,1.14225 -0.598321,0.45068 -1.219954,0.45068 -0.660485,0 -1.064546,-0.45068 -0.404062,-0.43515 -0.404062,-1.17334 z" />
      <path
         id="path4587"
         style="font-style:normal;font-variant:normal;font-weight:normal;font-stretch:normal;font-family:'Savoye LET';-inkscape-font-specification:'Savoye LET';stroke-width:0.397846"
         d="m 85.318679,147.92578 q 0.03108,-0.17872 0.03108,-0.32636 0,-0.27196 -0.08548,-0.42737 -0.09324,-0.15541 -0.233112,-0.15541 -0.06993,0 -0.132097,0.0699 -0.06216,0.0855 -0.06216,0.18649 0,0.35744 0.481765,0.65271 z m -0.924679,2.09801 -0.139867,-0.12432 q 0.676026,-0.8159 0.893597,-1.50746 -0.629403,-0.34967 -0.629403,-1.00239 0,-0.31081 0.147638,-0.50507 0.147637,-0.19426 0.372979,-0.19426 0.233113,0 0.38075,0.2098 0.147638,0.21757 0.147638,0.55947 0,0.23311 -0.08547,0.53616 0.19426,0.0544 0.38075,0.0544 0.481765,0 0.792582,-0.27974 h 0.372979 l -0.05439,0.10879 q -0.551699,1.01015 -0.916908,2.01254 -0.365209,1.00238 -0.365209,1.48414 0,0.17872 0.09324,0.29528 0.09324,0.12433 0.225342,0.12433 0.318586,0 1.025694,-0.67603 l 0.124326,0.13987 q -0.19426,0.21757 -0.676025,0.59832 -0.404062,0.32636 -0.769271,0.32636 -0.295276,0 -0.473995,-0.20203 -0.178719,-0.20204 -0.178719,-0.5517 0,-0.58278 0.450683,-1.47638 0.139868,-0.29528 0.419602,-0.7615 0.155409,-0.2642 0.644945,-1.01793 l 0.0777,-0.10878 q -0.256424,0.23311 -0.489536,0.32636 -0.233113,0.10101 -0.543929,0.10101 -0.124326,0 -0.295276,-0.0388 -0.248653,0.76927 -0.932449,1.56962 z" />
      <path
         id="path4589"
         style="font-style:normal;font-variant:normal;font-weight:normal;font-stretch:normal;font-family:'Savoye LET';-inkscape-font-specification:'Savoye LET';stroke-width:0.397846"
         d="m 92.417725,147.95686 h -1.258807 l -0.590551,2.58755 q -0.09324,0.42737 -0.09324,0.60609 0,0.27197 0.132097,0.45069 0.124327,0.17094 0.349669,0.17094 0.217571,0 0.38852,-0.12432 0.163179,-0.10879 0.528388,-0.49731 l 0.09324,-0.0932 0.116556,0.11655 q -0.458454,0.55947 -0.7615,0.78481 -0.310816,0.23312 -0.606092,0.23312 -0.365209,0 -0.590551,-0.24866 -0.225342,-0.24865 -0.225342,-0.63717 0,-0.29528 0.116556,-0.85475 l 0.505077,-2.4943 h -0.74596 l 0.05439,-0.26419 h 0.74596 l 0.435143,-2.09801 0.745959,-0.29528 -0.543929,2.39329 h 1.258807 z" />
      <path
         id="path4591"
         style="font-style:normal;font-variant:normal;font-weight:normal;font-stretch:normal;font-family:'Savoye LET';-inkscape-font-specification:'Savoye LET';stroke-width:0.397846"
         d="m 92.625968,152.02079 -0.520617,0.16318 2.066929,-10.62992 0.815893,-0.3963 -2.152404,9.46436 q 0.03108,-0.0544 0.03108,-0.0699 l 0.178719,-0.40406 q 0.450684,-1.03347 1.150021,-1.80274 0.652714,-0.7071 1.204414,-0.7071 0.303046,0 0.473995,0.18649 0.178719,0.20203 0.178719,0.51284 0,0.16318 -0.08547,0.50508 l -0.07771,0.32636 -0.240882,0.94799 -0.06993,0.30304 q -0.116556,0.46623 -0.116556,0.71488 0,0.24088 0.08547,0.39629 0.08548,0.15541 0.225342,0.15541 0.240883,0 0.769271,-0.57501 l 0.116556,0.10879 -0.06993,0.0855 q -0.442913,0.52062 -0.652714,0.69934 -0.217572,0.18649 -0.388521,0.18649 -0.233112,0 -0.411831,-0.25643 -0.170949,-0.24865 -0.170949,-0.59832 0,-0.23311 0.101015,-0.73819 l 0.295276,-1.64732 q 0.06993,-0.36521 0.06993,-0.54393 0,-0.16318 -0.08547,-0.24866 -0.08548,-0.0855 -0.233113,-0.0855 -0.295275,0 -0.660484,0.33413 -0.36521,0.32635 -0.74596,0.94022 -0.37298,0.56724 -0.660485,1.27434 -0.279734,0.6838 -0.419602,1.39868 z" />
      <path
         id="path4593"
         style="font-style:normal;font-variant:normal;font-weight:normal;font-stretch:normal;font-family:'Savoye LET';-inkscape-font-specification:'Savoye LET';stroke-width:0.397846"
         d="m 97.403217,150.3113 q 0.823663,-0.36521 1.289888,-0.83144 0.310817,-0.32635 0.489536,-0.66825 0.18649,-0.36521 0.18649,-0.64495 0,-0.36521 -0.334128,-0.36521 -0.505077,0 -1.017924,0.79259 -0.520617,0.80035 -0.613862,1.71726 z m 2.486531,0.59055 0.139872,0.11655 q -0.466229,0.62164 -0.940224,0.91691 -0.450684,0.28751 -0.986842,0.28751 -0.621633,0 -1.010153,-0.4196 -0.380751,-0.41184 -0.380751,-1.11117 0,-0.69934 0.37298,-1.42199 0.357439,-0.7071 0.924679,-1.18887 0.551699,-0.46622 1.095628,-0.46622 0.318587,0 0.528388,0.18648 0.20203,0.18649 0.20203,0.48177 0,0.59832 -0.652714,1.19664 -0.660485,0.6061 -1.779424,1.01793 -0.0078,0.0388 -0.0078,0.13986 0,0.52839 0.295275,0.87029 0.295276,0.3419 0.7615,0.3419 0.37298,0 0.707108,-0.23311 0.349668,-0.22535 0.730418,-0.71488 z" />
      <path
         id="path4595"
         style="font-style:normal;font-variant:normal;font-weight:normal;font-stretch:normal;font-family:'Savoye LET';-inkscape-font-specification:'Savoye LET';stroke-width:0.397846"
         d="m 103.21237,151.53125 -0.46622,-3.65209 0.69933,-0.31859 v 0.13987 0.0622 q 0,0.59832 0.0311,1.0257 0.0389,0.47399 0.11655,1.35205 0.10879,1.03346 0.16318,1.25103 0.0622,0.22535 0.18649,0.22535 0.17095,0 0.55947,-0.5517 0.41183,-0.58278 0.7615,-1.32097 l -0.24088,-1.8649 0.7071,-0.31859 0.008,0.19426 q 0.0544,1.60071 0.13209,2.38552 0.0155,0.12432 0.0466,0.38852 0.0155,0.10101 0.0233,0.20203 0.0155,0.0932 0.0155,0.12433 0.0155,0.17872 0.0311,0.26419 0.0311,0.20203 0.0311,0.20203 0.0622,0.25642 0.20203,0.25642 0.27196,0 0.96353,-1.11116 0.64495,-1.03347 0.64495,-1.73281 0,-0.56724 -0.37298,-0.82366 l 0.59055,-0.54393 q 0.27196,0.31859 0.27196,0.80812 0,0.54393 -0.30304,1.2355 -0.30305,0.69157 -0.90137,1.54631 -0.38852,0.54393 -0.6838,0.86252 -0.3419,0.38852 -0.55947,0.38852 -0.17095,0 -0.25642,-0.16318 -0.0855,-0.16318 -0.1321,-0.53616 l -0.17095,-1.3909 q -0.3419,0.69156 -0.78481,1.28989 -0.58278,0.80035 -0.93245,0.80035 -0.16318,0 -0.24088,-0.14764 -0.0777,-0.13987 -0.13987,-0.52839 z" />
      <path
         id="path4597"
         style="font-style:normal;font-variant:normal;font-weight:normal;font-stretch:normal;font-family:'Savoye LET';-inkscape-font-specification:'Savoye LET';stroke-width:0.397846"
         d="m 111.68057,148.90485 q 0,-0.45845 -0.22534,-0.76927 -0.23312,-0.30304 -0.59056,-0.30304 -0.32635,0 -0.62163,0.2098 -0.31082,0.21757 -0.5517,0.61386 -0.2875,0.474 -0.45845,1.08786 -0.18649,0.61386 -0.18649,1.1034 0,0.56724 0.22534,0.88582 0.21757,0.31082 0.64494,0.31082 0.67603,0 1.18888,-0.94022 0.26419,-0.474 0.4196,-1.08009 0.15541,-0.60609 0.15541,-1.11894 z m -3.32574,1.70949 q 0,-0.7071 0.38075,-1.39867 0.38075,-0.69934 0.9713,-1.12671 0.59832,-0.43514 1.21996,-0.43514 0.65271,0 1.05677,0.42737 0.39629,0.42737 0.39629,1.11894 0,0.73819 -0.36521,1.4453 -0.37298,0.69156 -0.9713,1.14225 -0.59832,0.45068 -1.21995,0.45068 -0.66049,0 -1.06455,-0.45068 -0.40406,-0.43515 -0.40406,-1.17334 z" />
      <path
         id="path4599"
         style="font-style:normal;font-variant:normal;font-weight:normal;font-stretch:normal;font-family:'Savoye LET';-inkscape-font-specification:'Savoye LET';stroke-width:0.397846"
         d="m 113.2564,151.31368 q 0.34967,0.73042 1.00238,0.73042 0.46623,0 0.87029,-0.40406 0.38852,-0.40406 0.70711,-1.17333 0.17872,-0.45069 0.29527,-0.94799 0.11656,-0.50508 0.11656,-0.80813 0,-0.73042 -0.51285,-0.73042 -0.3419,0 -0.77704,0.41961 -0.45068,0.43514 -0.87028,1.16556 -0.45069,0.77704 -0.83144,1.74834 z m -0.66825,0.83143 2.08247,-10.59106 0.82366,-0.3963 -2.23788,9.58092 q 1.39868,-3.1237 2.74296,-3.1237 0.27196,0 0.48953,0.13986 0.2098,0.14764 0.33413,0.42738 0.11656,0.27973 0.11656,0.59055 0,0.59055 -0.27974,1.30543 -0.27973,0.73041 -0.70711,1.23549 -0.7615,0.92468 -1.6784,0.92468 -0.29528,0 -0.5517,-0.10102 -0.24866,-0.0855 -0.59055,-0.31858 z" />
      <path
         id="path4601"
         style="font-style:normal;font-variant:normal;font-weight:normal;font-stretch:normal;font-family:'Savoye LET';-inkscape-font-specification:'Savoye LET';stroke-width:0.397846"
         d="m 117.83162,151.31368 q 0.34967,0.73042 1.00238,0.73042 0.46623,0 0.87029,-0.40406 0.38852,-0.40406 0.70711,-1.17333 0.17872,-0.45069 0.29527,-0.94799 0.11656,-0.50508 0.11656,-0.80813 0,-0.73042 -0.51285,-0.73042 -0.3419,0 -0.77704,0.41961 -0.45068,0.43514 -0.87029,1.16556 -0.45068,0.77704 -0.83143,1.74834 z m -0.66826,0.83143 2.08247,-10.59106 0.82367,-0.3963 -2.23788,9.58092 q 1.39867,-3.1237 2.74295,-3.1237 0.27197,0 0.48954,0.13986 0.2098,0.14764 0.33413,0.42738 0.11655,0.27973 0.11655,0.59055 0,0.59055 -0.27973,1.30543 -0.27974,0.73041 -0.70711,1.23549 -0.7615,0.92468 -1.67841,0.92468 -0.29527,0 -0.5517,-0.10102 -0.24865,-0.0855 -0.59055,-0.31858 z" />
      <path
         id="path4603"
         style="font-style:normal;font-variant:normal;font-weight:normal;font-stretch:normal;font-family:'Savoye LET';-inkscape-font-specification:'Savoye LET';stroke-width:0.397846"
         d="m 123.86768,141.55405 0.81589,-0.3963 -2.04362,8.95929 -0.0699,0.30304 q -0.10102,0.41183 -0.10102,0.72265 0,0.23311 0.0933,0.38852 0.0855,0.15541 0.21757,0.15541 0.24088,0 0.76927,-0.57501 l 0.12432,0.10879 -0.0777,0.0855 q -0.44291,0.52062 -0.65271,0.69934 -0.2098,0.18649 -0.38852,0.18649 -0.23312,0 -0.40407,-0.2642 -0.17871,-0.26419 -0.17871,-0.59055 0,-0.25642 0.10101,-0.73819 z" />
      <path
         id="path4605"
         style="font-style:normal;font-variant:normal;font-weight:normal;font-stretch:normal;font-family:'Savoye LET';-inkscape-font-specification:'Savoye LET';stroke-width:0.397846"
         d="m 122.98029,154.86476 0.38075,-0.51285 q 0.45845,0.48177 1.01792,0.48177 0.60609,0 0.96353,-0.474 0.36521,-0.48953 0.59833,-1.55408 l 0.35743,-1.60848 q -0.84697,1.00239 -1.54631,1.00239 -0.40406,0 -0.6294,-0.24866 -0.23311,-0.24865 -0.23311,-0.66825 0,-0.27974 0.0699,-0.61386 l 0.52839,-2.78958 0.75373,-0.31859 -0.75373,3.13148 q -0.0933,0.38075 -0.0933,0.56724 0,0.26419 0.16318,0.42737 0.14764,0.17095 0.4196,0.17095 0.28751,0 0.63718,-0.25642 0.31858,-0.23312 0.76927,-0.75373 l 0.66825,-2.9683 0.73042,-0.31859 -1.13448,4.569 q -0.17872,0.7615 -0.38075,1.28989 -0.18649,0.46623 -0.42737,0.77704 -0.75373,0.97907 -1.85713,0.97907 -0.64494,0 -1.00238,-0.31081 z" />
      <path
         id="path4607"
         style="font-style:normal;font-variant:normal;font-weight:normal;font-stretch:normal;font-family:'Savoye LET';-inkscape-font-specification:'Savoye LET';stroke-width:0.397846"
         d="m 130.79421,152.02079 -0.52062,0.16318 2.06693,-10.62992 0.8159,-0.3963 -2.15241,9.46436 q 0.0311,-0.0544 0.0311,-0.0699 l 0.17872,-0.40406 q 0.45069,-1.03347 1.15002,-1.80274 0.65272,-0.7071 1.20442,-0.7071 0.30304,0 0.47399,0.18649 0.17872,0.20203 0.17872,0.51284 0,0.16318 -0.0855,0.50508 l -0.0777,0.32636 -0.24088,0.94799 -0.0699,0.30304 q -0.11656,0.46623 -0.11656,0.71488 0,0.24088 0.0855,0.39629 0.0855,0.15541 0.22534,0.15541 0.24088,0 0.76927,-0.57501 l 0.11655,0.10879 -0.0699,0.0855 q -0.44291,0.52062 -0.65271,0.69934 -0.21758,0.18649 -0.38852,0.18649 -0.23312,0 -0.41184,-0.25643 -0.17094,-0.24865 -0.17094,-0.59832 0,-0.23311 0.10101,-0.73819 l 0.29528,-1.64732 q 0.0699,-0.36521 0.0699,-0.54393 0,-0.16318 -0.0855,-0.24866 -0.0855,-0.0855 -0.23312,-0.0855 -0.29527,0 -0.66048,0.33413 -0.36521,0.32635 -0.74596,0.94022 -0.37298,0.56724 -0.66049,1.27434 -0.27973,0.6838 -0.4196,1.39868 z" />
      <path
         id="path4609"
         style="font-style:normal;font-variant:normal;font-weight:normal;font-stretch:normal;font-family:'Savoye LET';-inkscape-font-specification:'Savoye LET';stroke-width:0.397846"
         d="m 135.57146,150.3113 q 0.82366,-0.36521 1.28989,-0.83144 0.31081,-0.32635 0.48953,-0.66825 0.18649,-0.36521 0.18649,-0.64495 0,-0.36521 -0.33412,-0.36521 -0.50508,0 -1.01793,0.79259 -0.52061,0.80035 -0.61386,1.71726 z m 2.48653,0.59055 0.13987,0.11655 q -0.46623,0.62164 -0.94022,0.91691 -0.45068,0.28751 -0.98684,0.28751 -0.62164,0 -1.01016,-0.4196 -0.38075,-0.41184 -0.38075,-1.11117 0,-0.69934 0.37298,-1.42199 0.35744,-0.7071 0.92468,-1.18887 0.5517,-0.46622 1.09563,-0.46622 0.31859,0 0.52839,0.18648 0.20203,0.18649 0.20203,0.48177 0,0.59832 -0.65272,1.19664 -0.66048,0.6061 -1.77942,1.01793 -0.008,0.0388 -0.008,0.13986 0,0.52839 0.29528,0.87029 0.29527,0.3419 0.7615,0.3419 0.37298,0 0.7071,-0.23311 0.34967,-0.22535 0.73042,-0.71488 z" />
      <path
         id="path4611"
         style="font-style:normal;font-variant:normal;font-weight:normal;font-stretch:normal;font-family:'Savoye LET';-inkscape-font-specification:'Savoye LET';stroke-width:0.397846"
         d="m 141.75515,148.78053 0.0699,-0.27197 q -0.0932,-0.29527 -0.31081,-0.46622 -0.21757,-0.16318 -0.51285,-0.16318 -0.3419,0 -0.72265,0.31082 -0.38075,0.31081 -0.69933,0.87805 -0.25643,0.45846 -0.41184,0.97907 -0.17095,0.52062 -0.17095,0.88583 0,0.39629 0.15541,0.62163 0.15541,0.22534 0.42738,0.22534 0.3652,0 0.74595,-0.33412 0.38853,-0.3419 0.76928,-0.95576 0.24865,-0.38075 0.3652,-0.71488 0.14764,-0.4196 0.29528,-0.99461 z m 0.23311,-0.96353 0.73042,-0.30305 -0.73042,2.84397 q -0.11655,0.46622 -0.11655,0.73042 0,0.23311 0.10101,0.40406 0.10102,0.17095 0.24865,0.17095 0.21758,0 0.74596,-0.5517 l 0.10879,0.10879 -0.0855,0.10101 q -0.3963,0.46623 -0.62941,0.66049 -0.21757,0.19426 -0.38852,0.19426 -0.25642,0 -0.42737,-0.2642 -0.18649,-0.25642 -0.18649,-0.59832 0,-0.25642 0.18649,-1.12671 l 0.0622,-0.29527 q -0.2875,0.66048 -0.76927,1.28211 -0.80035,1.0257 -1.54631,1.0257 -0.44291,0 -0.69934,-0.31859 -0.25642,-0.31859 -0.25642,-0.85474 0,-0.73042 0.4196,-1.53078 0.39629,-0.77704 1.03347,-1.32097 0.62163,-0.51284 1.19664,-0.51284 0.61386,0 0.91691,0.45068 z" />
      <path
         id="path4613"
         style="font-style:normal;font-variant:normal;font-weight:normal;font-stretch:normal;font-family:'Savoye LET';-inkscape-font-specification:'Savoye LET';stroke-width:0.397846"
         d="m 144.19351,147.92578 q 0.0311,-0.17872 0.0311,-0.32636 0,-0.27196 -0.0855,-0.42737 -0.0932,-0.15541 -0.23312,-0.15541 -0.0699,0 -0.13209,0.0699 -0.0622,0.0855 -0.0622,0.18649 0,0.35744 0.48177,0.65271 z m -0.92468,2.09801 -0.13987,-0.12432 q 0.67603,-0.8159 0.8936,-1.50746 -0.6294,-0.34967 -0.6294,-1.00239 0,-0.31081 0.14763,-0.50507 0.14764,-0.19426 0.37298,-0.19426 0.23312,0 0.38075,0.2098 0.14764,0.21757 0.14764,0.55947 0,0.23311 -0.0855,0.53616 0.19426,0.0544 0.38075,0.0544 0.48176,0 0.79258,-0.27974 h 0.37298 l -0.0544,0.10879 q -0.5517,1.01015 -0.91691,2.01254 -0.36521,1.00238 -0.36521,1.48414 0,0.17872 0.0932,0.29528 0.0933,0.12433 0.22535,0.12433 0.31858,0 1.02569,-0.67603 l 0.12433,0.13987 q -0.19426,0.21757 -0.67603,0.59832 -0.40406,0.32636 -0.76927,0.32636 -0.29528,0 -0.47399,-0.20203 -0.17872,-0.20204 -0.17872,-0.5517 0,-0.58278 0.45068,-1.47638 0.13987,-0.29528 0.4196,-0.7615 0.15541,-0.2642 0.64495,-1.01793 l 0.0777,-0.10878 q -0.25642,0.23311 -0.48954,0.32636 -0.23311,0.10101 -0.54392,0.10101 -0.12433,0 -0.29528,-0.0388 -0.24865,0.76927 -0.93245,1.56962 z" />
      <path
         id="path4615"
         style="font-style:normal;font-variant:normal;font-weight:normal;font-stretch:normal;font-family:'Savoye LET';-inkscape-font-specification:'Savoye LET';stroke-width:0.397846"
         d="m 148.92413,147.95686 h -1.2588 l -0.59055,2.58755 q -0.0933,0.42737 -0.0933,0.60609 0,0.27197 0.1321,0.45069 0.12432,0.17094 0.34967,0.17094 0.21757,0 0.38852,-0.12432 0.16318,-0.10879 0.52838,-0.49731 l 0.0933,-0.0932 0.11656,0.11655 q -0.45846,0.55947 -0.7615,0.78481 -0.31082,0.23312 -0.6061,0.23312 -0.36521,0 -0.59055,-0.24866 -0.22534,-0.24865 -0.22534,-0.63717 0,-0.29528 0.11656,-0.85475 l 0.50507,-2.4943 h -0.74596 l 0.0544,-0.26419 h 0.74596 l 0.43514,-2.09801 0.74596,-0.29528 -0.54393,2.39329 h 1.25881 z" />
      <path
         id="path4617"
         style="font-style:normal;font-variant:normal;font-weight:normal;font-stretch:normal;font-family:'Savoye LET';-inkscape-font-specification:'Savoye LET';stroke-width:0.397846"
         d="m 149.33441,150.3113 q 0.82366,-0.36521 1.28989,-0.83144 0.31081,-0.32635 0.48953,-0.66825 0.18649,-0.36521 0.18649,-0.64495 0,-0.36521 -0.33413,-0.36521 -0.50507,0 -1.01792,0.79259 -0.52062,0.80035 -0.61386,1.71726 z m 2.48653,0.59055 0.13987,0.11655 q -0.46623,0.62164 -0.94022,0.91691 -0.45069,0.28751 -0.98685,0.28751 -0.62163,0 -1.01015,-0.4196 -0.38075,-0.41184 -0.38075,-1.11117 0,-0.69934 0.37298,-1.42199 0.35744,-0.7071 0.92468,-1.18887 0.5517,-0.46622 1.09563,-0.46622 0.31858,0 0.52839,0.18648 0.20203,0.18649 0.20203,0.48177 0,0.59832 -0.65272,1.19664 -0.66048,0.6061 -1.77942,1.01793 -0.008,0.0388 -0.008,0.13986 0,0.52839 0.29527,0.87029 0.29528,0.3419 0.7615,0.3419 0.37298,0 0.70711,-0.23311 0.34967,-0.22535 0.73042,-0.71488 z" />
      <path
         id="path4619"
         style="font-style:normal;font-variant:normal;font-weight:normal;font-stretch:normal;font-family:'Savoye LET';-inkscape-font-specification:'Savoye LET';stroke-width:0.397846"
         d="m 155.48702,148.68728 0.0777,-0.39629 q -0.0699,-0.21757 -0.28751,-0.3419 -0.21757,-0.12432 -0.46622,-0.12432 -0.35744,0 -0.74596,0.32635 -0.39629,0.33413 -0.73042,0.92468 -0.26419,0.474 -0.40406,0.96353 -0.16318,0.52062 -0.16318,0.95576 0,0.37298 0.16318,0.59833 0.15541,0.22534 0.43514,0.22534 0.32636,0 0.70711,-0.33413 0.37298,-0.33413 0.75373,-0.96353 0.24865,-0.4196 0.40406,-0.88583 0.17872,-0.62163 0.25643,-0.94799 z m 1.41421,-7.13323 0.8392,-0.3963 -2.05915,8.95929 q -0.16318,0.7071 -0.16318,0.99461 0,0.24865 0.0932,0.40406 0.0855,0.15541 0.24089,0.15541 0.20203,0 0.48953,-0.30305 l 0.22534,-0.22534 q 0.008,-0.008 0.008,-0.008 0.008,-0.008 0.008,-0.008 0.008,-0.008 0.0155,-0.008 0.008,-0.008 0.008,-0.008 l 0.11656,0.10879 -0.0622,0.0699 q -0.25643,0.2875 -0.30305,0.33413 l -0.25642,0.25642 q -0.18649,0.18649 -0.27974,0.24088 -0.0855,0.0544 -0.20203,0.0544 -0.25642,0 -0.42737,-0.2642 -0.17095,-0.26419 -0.17095,-0.60609 0,-0.17872 0.10879,-0.73819 l 0.0855,-0.44291 q -0.19426,0.47399 -0.63717,1.06454 -0.77704,1.01016 -1.523,1.01016 -0.44292,0 -0.69934,-0.32636 -0.25642,-0.31859 -0.25642,-0.87029 0,-0.77704 0.40406,-1.56185 0.41183,-0.79258 1.03346,-1.29766 0.62164,-0.51284 1.24327,-0.51284 0.45068,0 0.85474,0.27196 z" />
    </g>
  </g>
</svg>
