<?xml version="1.0" encoding="UTF-8" standalone="no"?>
<svg
   xmlns:dc="http://purl.org/dc/elements/1.1/"
   xmlns:cc="http://creativecommons.org/ns#"
   xmlns:rdf="http://www.w3.org/1999/02/22-rdf-syntax-ns#"
   xmlns:svg="http://www.w3.org/2000/svg"
   xmlns="http://www.w3.org/2000/svg"
   xmlns:sodipodi="http://sodipodi.sourceforge.net/DTD/sodipodi-0.dtd"
   xmlns:inkscape="http://www.inkscape.org/namespaces/inkscape"
   sodipodi:docname="trifle.svg"
   inkscape:version="1.0 (4035a4fb49, 2020-05-01)"
   id="svg1094"
   version="1.1"
   viewBox="0 0 120.96954 42.183678"
   height="42.183678mm"
   width="120.96954mm">
  <defs
     id="defs1088" />
  <sodipodi:namedview
     inkscape:window-maximized="0"
     inkscape:window-y="0"
     inkscape:window-x="52"
     inkscape:window-height="1032"
     inkscape:window-width="1274"
     fit-margin-bottom="0"
     fit-margin-right="0"
     fit-margin-left="0"
     fit-margin-top="0"
     showgrid="false"
     inkscape:document-rotation="0"
     inkscape:current-layer="layer1"
     inkscape:document-units="mm"
     inkscape:cy="262.57434"
     inkscape:cx="265.74671"
     inkscape:zoom="0.35"
     inkscape:pageshadow="2"
     inkscape:pageopacity="0.0"
     borderopacity="1.0"
     bordercolor="#666666"
     pagecolor="#ffffff"
     id="base" />
  <metadata
     id="metadata1091">
    <rdf:RDF>
      <cc:Work
         rdf:about="">
        <dc:format>image/svg+xml</dc:format>
        <dc:type
           rdf:resource="http://purl.org/dc/dcmitype/StillImage" />
        <dc:title></dc:title>
      </cc:Work>
    </rdf:RDF>
  </metadata>
  <g
     transform="translate(-35.521183,-78.693873)"
     id="layer1"
     inkscape:groupmode="layer"
     inkscape:label="Layer 1">
    <g
       style="font-size:56.32px;line-height:1.25;font-family:lego;-inkscape-font-specification:lego;letter-spacing:-1.48713px;opacity:1;stroke-width:1.408"
       id="text1066"
       aria-label="Trifle">
      <path
         id="path1665"
         style="font-style:normal;font-variant:normal;font-weight:normal;font-stretch:normal;font-family:'Univers LT 55';-inkscape-font-specification:'Univers LT 55, ';stroke-width:1.408"
         d="M 49.150623,120.03275 V 84.156913 h -13.62944 v -4.7872 h 32.83456 v 4.7872 h -13.62944 v 35.875837 z" />
      <path
         id="path1667"
         style="font-style:normal;font-variant:normal;font-weight:normal;font-stretch:normal;font-family:'Univers LT 55';-inkscape-font-specification:'Univers LT 55, ';stroke-width:1.408"
         d="m 67.203859,97.504753 q 0,-1.46432 -0.11264,-2.87232 -0.05632,-1.46432 -0.16896,-2.87232 h 5.3504 l 0.11264,5.46304 q 0.39424,-1.46432 1.1264,-2.47808 0.78848,-1.01376 1.74592,-1.63328 0.95744,-0.67584 1.9712,-1.01376 1.01376,-0.33792 1.91488,-0.45056 1.18272,-0.16896 2.08384,-0.16896 0.90112,0 1.57696,0.05632 v 5.18144 q -0.33792,-0.11264 -1.01376,-0.22528 -0.2816,-0.05632 -0.67584,-0.05632 -0.39424,0 -0.8448,0 -2.36544,0 -3.88608,0.67584 -1.46432,0.61952 -2.30912,1.80224 -0.8448,1.126397 -1.18272,2.703357 -0.33792,1.57696 -0.33792,3.3792 v 15.03744 h -5.3504 z" />
      <path
         id="path1669"
         style="font-style:normal;font-variant:normal;font-weight:normal;font-stretch:normal;font-family:'Univers LT 55';-inkscape-font-specification:'Univers LT 55, ';stroke-width:1.408"
         d="m 87.416681,91.760113 h 5.29408 v 28.272637 h -5.29408 z m -0.5632,-12.27776 h 6.36416 v 5.80096 h -6.36416 z" />
      <path
         id="path1671"
         style="font-style:normal;font-variant:normal;font-weight:normal;font-stretch:normal;font-family:'Univers LT 55';-inkscape-font-specification:'Univers LT 55, ';stroke-width:1.408"
         d="m 115.62955,83.312113 q -0.67584,-0.05632 -1.52064,-0.05632 -0.78848,-0.05632 -1.57696,-0.05632 -1.63328,0 -2.47808,0.39424 -0.8448,0.33792 -1.29536,0.95744 -0.39424,0.5632 -0.45056,1.29536 -0.0563,0.73216 -0.0563,1.46432 v 4.44928 h 6.58944 v 3.82976 h -6.58944 v 24.442877 h -5.23776 V 95.589873 h -5.575679 v -3.82976 h 5.575679 v -3.21024 q 0,-1.46432 0.0563,-2.47808 0.0563,-1.07008 0.16896,-1.80224 0.11264,-0.78848 0.33792,-1.35168 0.2816,-0.5632 0.61952,-1.1264 0.90112,-1.35168 2.59072,-2.19648 1.74592,-0.90112 4.5056,-0.90112 1.1264,0 2.30912,0.16896 1.18272,0.11264 2.02752,0.22528 z" />
      <path
         id="path1673"
         style="font-style:normal;font-variant:normal;font-weight:normal;font-stretch:normal;font-family:'Univers LT 55';-inkscape-font-specification:'Univers LT 55, ';stroke-width:1.408"
         d="m 118.92874,79.426033 h 5.29408 v 40.606717 h -5.29408 z" />
      <path
         id="path1675"
         style="font-style:normal;font-variant:normal;font-weight:normal;font-stretch:normal;font-family:'Univers LT 55';-inkscape-font-specification:'Univers LT 55, ';stroke-width:1.408"
         d="m 151.08401,103.13675 q 0,-1.01376 -0.16896,-2.42176 -0.16896,-1.464317 -0.90112,-2.759677 -0.67584,-1.29536 -2.08384,-2.19648 -1.408,-0.95744 -3.82976,-0.95744 -1.29536,0 -2.64704,0.45056 -1.35168,0.39424 -2.47808,1.408 -1.07008,0.95744 -1.80224,2.5344 -0.73216,1.576957 -0.78848,3.942397 z m -14.9248,3.71712 q -0.0563,2.19648 0.39424,4.05504 0.45056,1.85856 1.408,3.26656 1.01376,1.35168 2.5344,2.14016 1.57696,0.73216 3.77344,0.73216 2.59072,0 4.44928,-1.408 1.85856,-1.408 2.19648,-4.44928 h 5.29408 q -0.11264,1.07008 -0.50688,2.70336 -0.39424,1.57696 -1.91488,3.21024 -0.45056,0.50688 -1.23904,1.18272 -0.78848,0.67584 -1.9712,1.23904 -1.18272,0.5632 -2.816,0.95744 -1.57696,0.39424 -3.71712,0.39424 -6.70208,0 -9.91232,-3.88608 -3.21024,-3.88608 -3.21024,-10.58816 0,-4.16768 1.1264,-7.546877 1.1264,-3.43552 4.44928,-5.74464 1.01376,-0.73216 2.08384,-1.1264 1.1264,-0.39424 2.14016,-0.61952 1.07008,-0.22528 1.9712,-0.2816 0.90112,-0.05632 1.52064,-0.05632 3.15392,0 5.29408,0.8448 2.19648,0.8448 3.54816,2.2528 1.35168,1.35168 2.08384,3.0976 0.73216,1.6896 1.01376,3.491837 0.33792,1.74592 0.33792,3.3792 0,1.63328 0,2.75968 z" />
    </g>
  </g>
</svg>
