<?xml version="1.0" encoding="UTF-8" standalone="no"?>
<svg
   xmlns:dc="http://purl.org/dc/elements/1.1/"
   xmlns:cc="http://creativecommons.org/ns#"
   xmlns:rdf="http://www.w3.org/1999/02/22-rdf-syntax-ns#"
   xmlns:svg="http://www.w3.org/2000/svg"
   xmlns="http://www.w3.org/2000/svg"
   xmlns:sodipodi="http://sodipodi.sourceforge.net/DTD/sodipodi-0.dtd"
   xmlns:inkscape="http://www.inkscape.org/namespaces/inkscape"
   sodipodi:docname="analogue.svg"
   inkscape:version="1.0 (4035a4fb49, 2020-05-01)"
   id="svg1082"
   version="1.1"
   viewBox="0 0 52.438366 14.721313"
   height="14.721313mm"
   width="52.438366mm">
  <defs
     id="defs1076" />
  <sodipodi:namedview
     inkscape:window-maximized="0"
     inkscape:window-y="33"
     inkscape:window-x="1569"
     inkscape:window-height="1032"
     inkscape:window-width="1274"
     fit-margin-bottom="0"
     fit-margin-right="0"
     fit-margin-left="0"
     fit-margin-top="0"
     showgrid="false"
     inkscape:document-rotation="0"
     inkscape:current-layer="layer1"
     inkscape:document-units="mm"
     inkscape:cy="119.24838"
     inkscape:cx="-115.18956"
     inkscape:zoom="0.35"
     inkscape:pageshadow="2"
     inkscape:pageopacity="0.0"
     borderopacity="1.0"
     bordercolor="#666666"
     pagecolor="#ffffff"
     id="base" />
  <metadata
     id="metadata1079">
    <rdf:RDF>
      <cc:Work
         rdf:about="">
        <dc:format>image/svg+xml</dc:format>
        <dc:type
           rdf:resource="http://purl.org/dc/dcmitype/StillImage" />
        <dc:title></dc:title>
      </cc:Work>
    </rdf:RDF>
  </metadata>
  <g
     transform="translate(-136.31057,-116.61553)"
     id="layer1"
     inkscape:groupmode="layer"
     inkscape:label="Layer 1">
    <g
       style="font-size:17.5672px;line-height:1.25;font-family:lego;-inkscape-font-specification:lego;letter-spacing:0px;opacity:1;stroke-width:0.439182"
       id="text2375"
       aria-label="Analog.Ue">
      <path
         id="path1653"
         style="font-style:normal;font-variant:normal;font-weight:500;font-stretch:normal;font-family:'Gotham Condensed';-inkscape-font-specification:'Gotham Condensed,  Medium';stroke-width:0.439182"
         d="m 136.31057,129.01797 h 1.68645 l 0.49188,-2.74048 h 2.31887 l 0.49189,2.74048 h 1.73915 l -2.44184,-12.33217 h -1.84456 z m 2.44184,-4.30396 0.89593,-4.93638 0.89593,4.93638 z" />
      <path
         id="path1655"
         style="font-style:normal;font-variant:normal;font-weight:500;font-stretch:normal;font-family:'Gotham Condensed';-inkscape-font-specification:'Gotham Condensed,  Medium';stroke-width:0.439182"
         d="m 143.90564,129.01797 h 1.66888 v -6.53499 c 0,-0.93107 0.43918,-1.49322 1.03647,-1.49322 0.57972,0 0.93106,0.50945 0.93106,1.45808 v 6.57013 h 1.66888 v -6.92147 c 0,-1.58105 -0.68512,-2.59995 -1.89725,-2.59995 -0.87836,0 -1.38781,0.61485 -1.73916,1.35268 v -1.19457 h -1.66888 z" />
      <path
         id="path1657"
         style="font-style:normal;font-variant:normal;font-weight:500;font-stretch:normal;font-family:'Gotham Condensed';-inkscape-font-specification:'Gotham Condensed,  Medium';stroke-width:0.439182"
         d="m 152.056,129.17608 c 0.73782,0 1.24727,-0.43918 1.61618,-1.26484 v 1.10673 h 1.66888 v -6.37689 c 0,-2.02023 -1.01889,-3.09183 -2.81075,-3.09183 -0.75539,0 -1.29997,0.14054 -1.89726,0.40405 v 1.59861 c 0.52702,-0.24594 1.03647,-0.43918 1.61619,-0.43918 0.93106,0 1.44051,0.57972 1.44051,1.65132 v 0.73782 c -0.40405,-0.2108 -0.84323,-0.35134 -1.33511,-0.35134 -1.33511,0 -2.1959,0.98376 -2.1959,2.98642 v 0.24594 c 0,1.68646 0.79052,2.79319 1.89726,2.79319 z m 0.61485,-1.40538 c -0.54458,0 -0.89593,-0.49188 -0.89593,-1.52834 v -0.21081 c 0,-1.0189 0.36891,-1.54591 1.00133,-1.54591 0.29864,0 0.64999,0.12297 0.9135,0.24594 v 1.68645 c 0,0.79052 -0.43918,1.35267 -1.0189,1.35267 z" />
      <path
         id="path1659"
         style="font-style:normal;font-variant:normal;font-weight:500;font-stretch:normal;font-family:'Gotham Condensed';-inkscape-font-specification:'Gotham Condensed,  Medium';stroke-width:0.439182"
         d="m 156.6877,129.01797 h 1.66888 v -12.40244 h -1.66888 z" />
      <path
         id="path1661"
         style="font-style:normal;font-variant:normal;font-weight:500;font-stretch:normal;font-family:'Gotham Condensed';-inkscape-font-specification:'Gotham Condensed,  Medium';stroke-width:0.439182"
         d="m 162.35724,129.17608 c 1.58105,0 2.81075,-1.61618 2.81075,-4.60261 v -0.43918 c 0,-2.98642 -1.21214,-4.62017 -2.81075,-4.62017 -1.59862,0 -2.82832,1.63375 -2.82832,4.62017 v 0.43918 c 0,2.98643 1.2297,4.60261 2.82832,4.60261 z m 0,-1.49321 c -0.68512,0 -1.15944,-1.0716 -1.15944,-3.09183 v -0.49188 c 0,-2.02023 0.47432,-3.09183 1.15944,-3.09183 0.66755,0 1.14187,1.0716 1.14187,3.09183 v 0.49188 c 0,2.02023 -0.47432,3.09183 -1.14187,3.09183 z" />
      <path
         id="path1663"
         style="font-style:normal;font-variant:normal;font-weight:500;font-stretch:normal;font-family:'Gotham Condensed';-inkscape-font-specification:'Gotham Condensed,  Medium';stroke-width:0.439182"
         d="m 168.52415,131.33685 c 1.91482,0 3.12696,-0.84323 3.12696,-2.96886 v -8.71333 h -1.68645 v 1.3351 c -0.31621,-0.72025 -0.82566,-1.49321 -1.73915,-1.49321 -1.15944,0 -2.10807,1.24727 -2.10807,4.42694 v 0.12297 c 0,3.17966 0.94863,4.42693 2.10807,4.42693 0.91349,0 1.42294,-0.79052 1.73915,-1.51078 v 1.29998 c 0,1.14186 -0.59729,1.59861 -1.61618,1.59861 -0.47432,0 -1.24727,-0.17567 -1.84456,-0.40405 v 1.56349 c 0.64999,0.19323 1.2297,0.31621 2.02023,0.31621 z m 0.33378,-4.44451 c -0.63242,0 -1.0716,-0.96619 -1.0716,-2.88102 v -0.0527 c 0,-1.89726 0.43918,-2.88102 1.0716,-2.88102 0.61485,0 1.14186,1.00133 1.14186,2.88102 v 0.0703 c 0,1.87969 -0.52701,2.86345 -1.14186,2.86345 z" />
      <path
         id="path1665"
         style="font-style:normal;font-variant:normal;font-weight:500;font-stretch:normal;font-family:'Gotham Condensed';-inkscape-font-specification:'Gotham Condensed,  Medium';stroke-width:0.439182"
         d="m 173.07076,129.01797 h 2.02023 v -2.14319 h -2.02023 z" />
      <path
         id="path1667"
         style="font-style:normal;font-variant:normal;font-weight:500;font-stretch:normal;font-family:'Gotham Condensed';-inkscape-font-specification:'Gotham Condensed,  Medium';stroke-width:0.439182"
         d="m 179.34938,129.17608 c 1.72159,0 2.93373,-1.19457 2.93373,-3.61884 v -8.8363 h -1.70402 v 8.9944 c 0,1.28241 -0.49188,1.86212 -1.22971,1.86212 -0.72025,0 -1.21213,-0.57971 -1.21213,-1.86212 v -8.9944 h -1.72159 v 8.8363 c 0,2.42427 1.21214,3.61884 2.93372,3.61884 z" />
      <path
         id="path1669"
         style="font-style:normal;font-variant:normal;font-weight:500;font-stretch:normal;font-family:'Gotham Condensed';-inkscape-font-specification:'Gotham Condensed,  Medium';stroke-width:0.439182"
         d="m 186.53547,129.17608 c 0.77296,0 1.29997,-0.21081 2.00266,-0.64999 l -0.14054,-1.54591 c -0.61485,0.40405 -1.01889,0.63242 -1.63375,0.63242 -0.86079,0 -1.59861,-0.72026 -1.68645,-2.51211 h 3.67155 v -0.9135 c 0,-3.03912 -1.03647,-4.67287 -2.58238,-4.67287 -1.49321,0 -2.75805,1.59861 -2.75805,4.67287 v 0.36892 c 0,3.05669 1.44051,4.62017 3.12696,4.62017 z m -1.47564,-5.4107 c 0.0527,-1.89726 0.49188,-2.75805 1.10673,-2.75805 0.63242,0 1.00133,1.0189 1.00133,2.75805 z" />
    </g>
  </g>
</svg>
