<?xml version="1.0" encoding="UTF-8" standalone="no"?>
<svg
   xmlns:dc="http://purl.org/dc/elements/1.1/"
   xmlns:cc="http://creativecommons.org/ns#"
   xmlns:rdf="http://www.w3.org/1999/02/22-rdf-syntax-ns#"
   xmlns:svg="http://www.w3.org/2000/svg"
   xmlns="http://www.w3.org/2000/svg"
   xmlns:sodipodi="http://sodipodi.sourceforge.net/DTD/sodipodi-0.dtd"
   xmlns:inkscape="http://www.inkscape.org/namespaces/inkscape"
   sodipodi:docname="keep.svg"
   inkscape:version="1.0 (4035a4fb49, 2020-05-01)"
   id="svg8"
   version="1.1"
   viewBox="0 0 88.760002 32.520222"
   height="32.520222mm"
   width="88.760002mm">
  <defs
     id="defs2" />
  <sodipodi:namedview
     inkscape:window-maximized="0"
     inkscape:window-y="31"
     inkscape:window-x="1397"
     inkscape:window-height="1000"
     inkscape:window-width="2302"
     fit-margin-bottom="0"
     fit-margin-right="0"
     fit-margin-left="0"
     fit-margin-top="0"
     showgrid="false"
     inkscape:document-rotation="0"
     inkscape:current-layer="layer1"
     inkscape:document-units="mm"
     inkscape:cy="-185.49617"
     inkscape:cx="552.68209"
     inkscape:zoom="0.49497475"
     inkscape:pageshadow="2"
     inkscape:pageopacity="0.0"
     borderopacity="1.0"
     bordercolor="#666666"
     pagecolor="#ffffff"
     id="base" />
  <metadata
     id="metadata5">
    <rdf:RDF>
      <cc:Work
         rdf:about="">
        <dc:format>image/svg+xml</dc:format>
        <dc:type
           rdf:resource="http://purl.org/dc/dcmitype/StillImage" />
        <dc:title></dc:title>
      </cc:Work>
    </rdf:RDF>
  </metadata>
  <g
     transform="translate(-81.835817,-131.35704)"
     id="layer1"
     inkscape:groupmode="layer"
     inkscape:label="Layer 1">
    <g
       style="font-size:35.2575px;line-height:1.25;font-family:lego;-inkscape-font-specification:lego;letter-spacing:1.13506px;fill:#000000;stroke-width:0.881439"
       id="text849-2"
       aria-label="Keep">
      <path
         id="path1732"
         style="font-style:normal;font-variant:normal;font-weight:normal;font-stretch:normal;font-family:'Gabriele Dark Ribbon FG';-inkscape-font-specification:'Gabriele Dark Ribbon FG';fill:#000000;stroke-width:0.881439"
         d="m 97.915165,131.35704 q 0.619761,0 1.859282,0.20659 1.256733,0.18937 1.876493,0.18937 0.1033,0.30988 0.41318,0.60255 h 0.58533 q 0,0.60254 -0.51647,1.10179 -0.49925,0.37875 -0.9985,0.75749 -0.39596,-0.2238 -0.80913,-0.2238 -0.413178,0 -0.843568,0.72305 -0.809132,-0.53368 -0.964072,-0.53368 -0.30988,0 -0.30988,0.41317 0,0.10329 0.206587,0.51647 0.223802,0.39596 0.223802,0.72305 -0.482036,0.1033 -0.860779,0.99851 -0.344311,0.82634 -1.153443,0.82634 -0.344312,0 -0.619761,1.58384 -0.327096,-0.0516 -0.395958,-0.0516 -0.309881,0 -0.89521,0.39596 0.06886,0.2238 0.06886,0.37874 0,0.41317 -0.499252,0.79192 -0.550898,0.4476 -0.602545,0.5509 l 0.120509,0.25823 0.568114,-0.0344 0.602545,0.30988 q -0.15494,0.5509 -0.15494,0.61976 0,0.37874 0.774701,0.91242 0.791917,0.53369 0.791917,1.13623 0,0.18937 -0.05165,0.37875 l 0.74027,0.68862 -0.705839,0.60254 -0.01722,0.20659 q -0.01722,0.25823 0.791916,0.60255 0.809132,0.32709 0.809132,0.82634 0,0.13773 -0.05165,0.29267 0.447605,1.27395 0.602546,1.51497 0.46482,0.74027 1.377246,0.74027 -0.06886,0.68862 -0.06886,0.84356 0,0.39596 0.499252,0.63698 0.27545,-0.0689 0.43039,-0.0689 0.41317,0 0.9985,0.58533 0.60255,0.58532 1.08458,0.53368 0.41318,0.5509 0.41318,1.11901 0,0.25823 -0.2238,0.79192 l -0.70584,-0.0172 q -0.82635,-0.0172 -1.17066,0.84356 -0.36153,-0.70583 -0.60255,-0.70583 -0.2238,0 -0.636974,0.2238 -0.395958,0.20659 -0.654192,0.20659 -0.223802,0 -0.550898,-0.22381 -0.447605,0.53369 -0.981288,0.53369 -0.15494,0 -0.447605,-0.12051 -0.275449,-0.13773 -0.413174,-0.13773 -0.206587,0 -0.568114,0.1033 -0.361527,0.10329 -0.550898,0.10329 -0.533683,0 -0.89521,-0.63698 -0.172156,0.24102 -0.58533,0.63698 l -0.447605,-0.12051 q 0.103294,-0.2238 0.103294,-0.3271 0,-0.18937 -0.241018,-0.56811 -0.292665,-0.48204 -0.327096,-0.5509 l 0.499251,-0.53368 q 0.327096,0.0689 0.395959,0.0689 0.30988,0 0.860778,-0.32709 0.550899,-0.3271 0.89521,-0.3271 0.309881,0 0.602546,0.18937 l 0.103293,-0.15494 -0.137725,-0.34431 q 0.344312,-0.48204 0.723055,-1.37725 l 0.241018,-0.51646 q -0.05165,-0.25824 -0.654192,-0.80914 -0.58533,-0.56811 -0.58533,-0.87799 0,-0.44761 0.757486,-0.7747 -0.03443,-0.20659 -0.154941,-0.3271 h -0.223802 q -0.241018,-0.0172 -0.361527,0.25824 -0.223803,0.46482 -0.223803,0.48203 -1.187874,-1.20509 -1.187874,-1.18787 0,-0.13773 0.05165,-0.43039 0.05165,-0.30988 0.05165,-0.46482 0,-0.61976 -1.549402,-1.05015 l 0.137725,-0.0861 -0.137725,-0.25823 q 0.08608,-0.17216 0.08608,-0.25824 0,-0.36153 -0.568114,-0.84356 -0.550898,-0.49925 -0.550898,-0.9985 0,-0.13773 0.03443,-0.29267 l -0.533683,-0.10329 q -0.30988,0.34431 -0.292665,1.36003 -0.74027,0 -1.669911,0.96407 -1.015719,1.06737 -1.566617,1.20509 l -0.361527,1.82485 -0.774701,-0.49925 q -0.533683,0.13772 -0.533683,0.60254 0,0.24102 0.120509,0.91243 0.08608,0.58533 0.03443,0.92964 l 0.550899,0.56812 q -0.378743,0.20658 -0.533683,0.36152 -0.309881,0.25824 -0.327096,0.53369 l 0.103293,0.27544 q 1.687127,0.6542 2.031438,2.82336 -0.223802,0.0689 -0.413174,0.53368 -0.172155,0.46482 -0.516467,0.44761 l -0.08608,-0.0172 q -0.344311,-0.58533 -0.602545,-0.58533 -0.120509,0 -0.430389,0.1033 l -0.344312,0.48203 -0.137724,0.0172 q -0.258234,0 -0.464821,-0.30988 -0.172156,-0.25824 -0.327096,-0.49926 l -0.172156,0.0344 -0.774701,0.96407 q -0.223802,-0.79192 -0.688623,-0.79192 -0.344311,0 -1.308383,0.53368 0.05165,-0.37874 0.05165,-0.41317 0,-0.15494 -0.241018,-0.53368 -0.327096,-0.49925 -0.344311,-0.5509 0.172155,-0.27545 1.136228,-0.9985 0.860779,-0.61976 0.89521,-0.99851 0.568114,-0.0344 0.654192,-0.0516 0.258233,-0.0689 0.516467,-0.37875 0,-0.0861 0.03443,-0.36152 0.01722,-0.20659 0.01722,-0.34432 0,-0.24101 -0.327096,-0.24101 -0.327096,0 -0.395959,-0.13773 -0.05165,-0.15494 -0.327096,-0.20659 l 0.929642,-0.0172 q 0.15494,0 0.15494,-0.10329 0,-1.30839 -0.103294,-1.49776 0.550899,-0.29266 0.550899,-0.84356 0,-0.1033 -0.05165,-0.3271 l -1.084581,-0.65419 q 1.032934,-0.15494 1.032934,-0.53368 0,-0.20659 -0.413174,-0.53369 -0.395958,-0.34431 -0.395958,-0.55089 0,-0.37875 0.275449,-0.68863 -0.395958,-0.25823 -0.395958,-0.61976 0,-0.27545 0.292665,-0.63697 0.292665,-0.37875 0.292665,-0.56812 0,-0.24102 -0.395959,-0.51647 l -0.05165,-0.20658 q 0.15494,-0.25824 0.430389,-0.7747 -0.05165,-0.6542 -0.74027,-0.89521 0.516468,-0.24102 1.205091,-0.84357 l -1.3256,-0.20658 0.688623,-0.46482 v -0.0689 q 0,-0.2238 -0.430389,-0.48203 -0.430389,-0.27545 -0.430389,-0.41318 0.01721,-0.0689 0.05165,-0.12051 -0.03443,-0.55089 -0.120509,-1.63548 0.103294,-0.0689 0.292665,-0.0689 0.172156,0 0.499252,0.0861 0.327096,0.0689 0.499251,0.0689 0.258234,0 0.258234,-0.20658 -0.206587,-0.30988 -0.413174,-0.61977 -0.30988,-0.46482 -0.482036,-0.46482 -0.08608,0 -0.15494,0.39596 -0.05165,0.39596 -0.120509,0.44761 -0.447605,0 -1.601049,-0.79192 -0.206587,-0.68862 -0.998503,-1.8765 0.206587,-0.58533 0.705839,-0.74027 0.258233,-0.0689 1.067365,-0.0689 0.447605,0 0.757486,-0.13772 0.120509,0.0516 0.568114,0.34431 0.361527,0.24102 0.568114,0.24102 0,0 0.189371,-0.0344 l 0.705839,-0.6542 q 0.568114,0.39596 0.929641,0.39596 h 0.137724 l 0.499252,-0.48203 q 0.30988,0.82634 0.929641,0.82634 0.361527,0 0.826348,-0.6714 0.05165,0.61976 0.447605,0.91242 0.223802,0.17216 0.964072,0.43039 -0.292665,0.3271 -1.084581,0.7747 -0.774701,0.43039 -1.067366,0.80913 -1.342815,-0.72305 -1.876498,-0.74027 -0.30988,0.41318 -0.30988,0.878 0,-0.27545 0.172156,1.2223 l 0.568114,0.56812 q -0.809132,0.75748 -0.809132,0.98129 0,0.0861 0.15494,0.43039 0.06886,0.18937 0.06886,1.46332 0,0.39596 0.223803,0.79192 -0.447605,0.29266 -0.447605,0.63697 0,0.18937 0.120509,0.56812 0.120509,0.36152 0.120509,0.55089 0,0.25824 -0.08608,0.56812 0.378742,0.34431 1.015719,0.34431 0.327096,0 0.964072,-0.13772 0.654192,-0.13773 0.981288,-0.13773 0.568114,0 1.015719,0.25823 0.08608,-0.17215 0.08608,-0.32709 l -0.01722,-0.29267 q -0.206587,-0.17215 -0.482036,-0.17215 -0.189371,0 -0.860779,0.15494 0.344312,-0.72306 1.411677,-0.94686 1.015719,-0.2238 1.136228,-0.56811 l -1.446108,0.0516 q 0.137725,0 0.447605,-0.4476 0.30988,-0.44761 0.430389,-0.44761 0.58533,0 0.964073,-1.08458 0.378742,-1.08458 1.273952,-1.06736 l 0.05165,0.12051 q 0.292665,-0.36153 0.877994,-1.48054 0.654192,-1.22231 0.654192,-1.51497 0,-0.48204 -0.447605,-0.94686 -0.189371,0.0344 -0.30988,0.0344 -0.723054,0 -1.273953,-0.82635 0.516468,-0.7747 0.344312,-1.65269 l 1.05015,-0.25824 -0.189371,0.7747 q 0.241018,0.24102 0.395958,0.29267 0.258234,-1.25674 2.961079,-1.25674 z m 2.737275,0.91243 -0.0689,-0.0517 -0.13773,0.0861 0.12051,0.12051 z m -2.083083,-0.12051 -0.309881,0.18937 q 0.103294,0.17216 0.258234,0.17216 l 0.137725,-0.13773 z m -1.928145,0.18937 0.172156,-0.0344 -0.172156,-0.10329 z m 0,2.13473 0.01722,-0.0172 -0.01722,-0.0172 z m 0.292665,1.91093 v 0.10329 l 0.103294,-0.0861 z m -3.322606,3.13324 -0.241018,-0.17216 q -0.15494,0.0172 -0.172156,0.18937 l 0.05165,0.0861 z m -8.779944,-5.31962 q 0,0.46482 0.292665,0.46482 l 0.499252,-0.0172 0.137724,-0.24102 q -0.03443,-0.43039 -0.671407,-0.43039 -0.258234,0 -0.258234,0.2238 z m 3.649702,10.41543 q 0,0.30988 0.309881,0.30988 h 0.275449 q 0.103293,-0.1033 0.15494,-0.37875 -0.172156,-0.12051 -0.378743,-0.12051 h -0.103293 q -0.258234,0 -0.258234,0.18938 z m 2.272456,9.9506 q -0.172155,0 -0.499251,0.12051 -0.327096,0.10329 -0.482036,0.12051 v 0.18937 q -0.809133,-0.20659 -0.809133,-1.03294 l 0.241018,0.0344 q 0.103294,0 0.464821,-0.30988 0.413174,-0.37874 0.464821,-0.41317 l 0.08608,0.51647 0.516468,-0.20659 0.08608,0.36153 0.103293,-0.0344 v -0.36153 q 0.275449,-0.0344 0.275449,-0.0344 0.292665,0 0.464821,1.1018 l -0.395958,0.4476 q -0.292665,-0.49925 -0.516468,-0.49925 z" />
      <path
         id="path1734"
         style="font-style:normal;font-variant:normal;font-weight:normal;font-stretch:normal;font-family:'Gabriele Dark Ribbon FG';-inkscape-font-specification:'Gabriele Dark Ribbon FG';fill:#000000;stroke-width:0.881439"
         d="m 113.54574,153.35855 q 0.37874,-0.2238 0.9985,-0.2238 0.51647,0 1.5494,0.12051 1.03294,0.1205 1.54941,0.1205 1.53218,0 2.3241,-0.65419 l -0.13773,-0.46482 0.39596,-1.13623 h 0.18937 q 0.12051,-0.0172 0.36153,0.0516 0.24102,0.0516 0.34431,0.0516 l 0.15494,-0.17216 -0.68862,-0.89521 q 0.3271,-0.29266 0.65419,-0.58533 0.41318,-0.34431 0.79192,-0.34431 0.36153,0 0.68862,0.30988 h 0.68862 q 0.12051,0.34431 0.12051,0.48204 0,0.27545 -0.51646,0.51646 -0.51647,0.24102 -0.51647,0.58533 0,0.13773 0.0517,0.43039 0.0689,0.29267 0.0689,0.44761 0,0.49925 -0.48204,0.82635 -0.75748,-0.18938 -0.96407,-0.18938 -0.24102,0 -0.36153,0.24102 0.1033,0.3271 0.2238,0.98129 l -0.29266,0.53368 q -0.61976,-0.0344 -0.74027,-0.0344 -0.74027,0 -1.22231,0.84357 -0.20658,0.34431 -0.86077,0.4476 -0.6542,0.10329 -0.82635,0.43039 -0.53368,-0.20659 -2.06587,-0.20659 -1.05015,0 -1.77321,-0.49925 0.15494,-0.36153 0.15494,-0.4476 0,-0.27545 -0.46482,-0.53369 -0.34431,0.0344 -0.46482,0.0344 -1.13622,0 -2.30688,-0.92964 -0.0861,-0.5509 -1.20509,-1.29116 0.25823,-0.30989 0.70583,-0.96408 0,-0.2238 -0.72305,-0.27545 -0.7747,-0.0344 -0.89521,-0.56811 0.10329,-0.29267 0.10329,-0.37874 0,-0.27545 -0.25823,-0.7747 -0.24102,-0.49926 -0.24102,-0.79192 0,-0.29267 0.29267,-0.65419 0.0516,-0.25824 0.0516,-0.37875 0,-0.41317 -0.29266,-1.20509 -0.27545,-0.79191 -0.27545,-1.20509 0,-0.63697 0.48204,-1.13622 -0.13773,-0.34432 -0.13773,-0.51647 0,-0.43039 0.84356,-0.98129 0.86078,-0.56811 0.86078,-1.06736 0,-0.24102 -0.2238,-0.70584 0.44761,-0.1033 0.91243,-0.18937 0.56811,-0.15494 0.75748,-0.48204 -0.0344,-0.20659 -0.0344,-0.3271 0,-0.6714 1.39446,-0.91242 1.8765,-0.30988 1.94536,-0.34431 0.65419,0.18937 2.53069,0.27545 1.68713,0.0689 2.44461,0.41317 1.17066,0.53368 1.46333,1.97979 -0.15494,0.2238 -0.15494,0.53368 v 0.29267 l 0.29266,0.18937 q 0.25824,-0.0344 1.03294,-0.68862 l -0.44761,1.03293 q 0.29267,0.37874 0.65419,1.22231 0.22381,0.32709 0.92964,0.27545 0.13773,0.43039 0.34432,1.3256 l -0.3271,0.0689 q -0.0516,-0.3271 -0.39596,-0.3271 -0.34431,0 -0.34431,0.37874 l 0.0172,0.20659 q 1.08458,0.46482 1.08458,0.86078 0,0.12051 -0.0689,0.39596 -0.74027,0.27545 -0.75749,0.27545 -0.44761,0.2238 -0.58533,0.53368 0.12051,0.25823 0.10329,0.61976 v 0.30988 h -0.84356 l 0.3271,-0.74027 q -0.0172,-0.53368 -0.67141,-0.61976 -0.51647,0.18937 -1.60105,0.3271 -1.08458,0.12051 -1.60105,0.32709 -0.27545,-0.37874 -0.84356,-0.46482 -0.89521,-0.13772 -0.98129,-0.17215 -0.2238,0.10329 -0.7747,0.74027 -0.10329,-0.0344 -1.1018,-0.43039 -0.6714,-0.25824 -1.15344,-0.25824 -0.15494,0 -0.43039,0.1033 -0.27545,0.10329 -0.43039,0.10329 -0.24102,0 -0.65419,-0.18937 -0.39596,-0.20659 -0.61976,-0.20659 -0.36153,0 -0.46482,0.84357 -0.0344,0.56811 -0.0517,1.13622 l -0.61976,-0.10329 -0.13772,0.12051 q 0.0516,0.13772 0.60254,0.48204 0.44761,0.27544 0.39596,0.65419 0.12051,0.41317 0.25823,0.80913 0.22381,0.5509 0.51647,0.60254 0.20659,-0.13772 0.53368,-0.1205 h 0.39596 q 0.13773,0.17215 0.34431,0.89521 0.18937,0.60254 0.43039,0.72305 h 0.56812 z m 7.09282,-10.01947 q -0.20659,0.0172 -0.24102,0.17216 l 0.13772,0.13772 h 0.0517 0.0516 l 0.17215,-0.0861 v -0.15494 z m -8.76273,-3.0988 q 0.0172,0.0861 0.39596,0.0861 l 0.0861,-0.12051 q -0.10329,-0.15494 -0.25823,-0.30988 z m 6.31811,4.99252 0.24102,0.25823 q 0.36153,0.12051 0.60255,0.12051 0.39596,0 0.39596,-0.27545 0,-0.0344 -0.41318,-0.72305 0.60255,-0.36153 0.60255,-0.67141 0,-0.27545 -0.3271,-0.79192 -0.32709,-0.53368 -0.34431,-0.89521 l 0.2238,-0.46482 q -0.72305,-0.61976 -3.3226,-0.49925 -0.0689,-0.18937 -0.0689,-0.37874 l -0.10329,-0.0344 q 0,-0.24102 0.2238,-0.72306 l -0.15494,-0.10329 -0.2238,-0.0344 -0.20659,0.15494 q 0.1033,0.25823 0.18937,0.79191 l -0.17215,0.39596 q -3.06437,0 -4.13174,0.80913 -0.49925,-0.58533 -0.67141,-0.58533 -0.24101,0 -0.24101,0.51647 0,0.2238 1.05015,0.13773 l 0.20658,0.49925 q -0.0172,0.37874 -1.03293,0.9985 0.13772,1.01572 0.92964,1.01572 0.32709,0 0.92964,-0.13772 0.61976,-0.13773 0.94686,-0.13773 0.53368,0 1.03293,0.36153 -0.25823,0.2238 -0.56811,0.74027 l 0.18937,0.17215 q 0.27545,0.0861 0.53368,0.0861 0.72306,0 1.13623,-0.84356 0.18937,0.46482 0.43039,0.58533 0.12051,-0.43039 0.29266,-0.75749 0.24102,0.0517 0.36153,0.0517 0.25823,0 0.74027,-0.17216 l 0.7747,0.51647 z m -0.15494,0.0344 q -0.32709,0.0689 -0.80913,0.30988 l 0.17216,0.10329 z m -9.21033,-1.66991 h -0.0517 v 0.43039 h 0.13773 q 0.2238,-0.1033 0.25823,-0.27545 z m 9.02096,11.01797 0.0172,0.0516 0.49925,0.15494 0.15494,-0.12051 q -0.0689,-0.30988 -0.30988,-0.30988 -0.34431,0 -0.36153,0.22381 z m -8.24626,-7.78144 0.0516,0.0172 q 0.34431,0 0.3271,-0.27545 l -0.0172,-0.25823 -0.0516,-0.0344 -0.39596,0.27545 v 0.10329 z" />
      <path
         id="path1736"
         style="font-style:normal;font-variant:normal;font-weight:normal;font-stretch:normal;font-family:'Gabriele Black Ribbon FG';-inkscape-font-specification:'Gabriele Black Ribbon FG';fill:#000000;stroke-width:0.881439"
         d="m 136.95775,152.92816 q 0.51647,0 1.54941,0.12051 1.03293,0.12051 1.5494,0.12051 1.42889,0 2.16916,-0.56812 l -0.12051,-0.43039 0.44761,-1.23952 q 0.10329,0 0.92964,0.1033 l 0.0344,-0.0344 -0.68862,-0.91242 q 0.36152,-0.3271 0.74027,-0.65419 0.4476,-0.36153 0.87799,-0.36153 0.39596,0 0.74027,0.30988 h 0.74027 q 0.15494,0.39596 0.15494,0.60255 0,0.32709 -0.53368,0.56811 -0.51647,0.24102 -0.51647,0.49925 0,0.15494 0.0516,0.44761 0.0689,0.27545 0.0689,0.43039 0,0.55089 -0.58533,0.94685 -0.30988,-0.0861 -0.98129,-0.18937 l -0.2238,0.13773 q 0.10329,0.30988 0.20659,0.96407 l -0.34432,0.63697 q -0.65419,-0.0516 -0.80913,-0.0516 -0.60254,0 -1.11901,0.7747 -0.24102,0.36153 -0.89521,0.48203 -0.63698,0.12051 -0.82635,0.48204 -0.61976,-0.24102 -2.13473,-0.24102 -1.1018,0 -1.92814,-0.56811 0.18937,-0.36153 0.18937,-0.48204 0,-0.2238 -0.36153,-0.39596 -0.3271,0.0344 -0.44761,0.0344 -1.18787,0 -2.42739,-0.98129 -0.0861,-0.5509 -1.29117,-1.3256 0.29267,-0.30988 0.7747,-0.99851 -0.0344,-0.0516 -0.79192,-0.1205 -0.6714,-0.0689 -0.80913,-0.68863 0.1033,-0.36152 0.1033,-0.36152 0,-0.29267 -0.25824,-0.77471 -0.25823,-0.49925 -0.25823,-0.79191 0,-0.3271 0.30988,-0.68862 l 0.0344,-0.30989 q 0,-0.41317 -0.27545,-1.18787 -0.27545,-0.7747 -0.27545,-1.18787 0,-0.63698 0.44761,-1.15345 -0.12051,-0.27545 -0.12051,-0.46482 0,-0.53368 0.84356,-1.05015 0.86078,-0.51647 0.86078,-0.98129 0,-0.24101 -0.27545,-0.79191 0.46482,-0.0861 0.92964,-0.15494 0.58533,-0.13773 0.79192,-0.44761 l -0.0344,-0.29266 q 0,-0.74027 1.42889,-0.99851 2.01422,-0.37874 2.03144,-0.37874 0.65419,0.18937 2.59955,0.29267 1.72156,0.0861 2.51347,0.46482 1.18788,0.56811 1.48054,2.04865 -0.17215,0.2238 -0.15494,0.53368 v 0.18937 l 0.17216,0.1033 q 0.25823,-0.0689 1.34281,-0.99851 l -0.63697,1.48054 q 0.27545,0.34431 0.63697,1.15345 0.20659,0.24102 0.91243,0.18937 0.15494,0.51647 0.39596,1.5494 l -0.58533,0.12051 q -0.0344,-0.36153 -0.29267,-0.36153 l -0.20658,0.20659 v 0.15494 q 1.10179,0.41317 1.10179,0.94686 0,0.17215 -0.10329,0.48203 -0.36153,0.12051 -0.72305,0.24102 -0.43039,0.17216 -0.58533,0.46482 0.10329,0.27545 0.10329,0.63698 l -0.0172,0.39596 h -1.17066 l 0.41318,-0.86078 q -0.0517,-0.39596 -0.5509,-0.46482 -0.49925,0.17215 -1.61826,0.32709 -1.1018,0.13773 -1.63548,0.34431 -0.25824,-0.37874 -0.80914,-0.48203 -0.48203,-0.0861 -0.96407,-0.17216 -0.18937,0.10329 -0.74027,0.74027 -0.10329,-0.0344 -1.11901,-0.43039 -0.67141,-0.27545 -1.17066,-0.27545 -0.15494,0 -0.43039,0.1033 -0.27545,0.10329 -0.43039,0.10329 -0.2238,0 -0.63697,-0.18937 -0.41318,-0.20659 -0.63698,-0.20659 -0.29267,0 -0.41317,1.99701 l -0.68863,-0.13773 q 0.0172,0.0344 0.63698,0.44761 0.36153,0.27545 0.30988,0.63697 0.12051,0.36153 0.2238,0.72306 0.17216,0.46482 0.41318,0.5509 0.2238,-0.12051 0.46482,-0.12051 l 0.53368,0.0344 q 0.20659,0.67141 0.75748,1.58383 h 0.61976 l 0.0861,0.2238 q 0.37875,-0.17215 0.92964,-0.17215 z m 6.11153,-9.38249 -0.0344,-0.0172 -0.0516,0.0172 0.0172,0.0344 h 0.0172 z m -8.45284,-3.25374 -0.0861,-0.0861 -0.0689,0.0861 z m -1.18788,1.91093 -0.48204,-0.41318 -0.1205,0.25824 v 0.10329 l 0.10329,0.0861 z m 4.56213,-1.48054 q 0.0344,-0.15494 0.17215,-0.43039 l -0.0344,-0.0172 -0.13772,-0.0172 -0.12051,0.0689 z m 2.92665,4.68263 q 0.30988,0.0861 0.53368,0.0861 l 0.27545,-0.12051 q -0.0172,-0.0689 -0.46482,-0.75748 0.63697,-0.37875 0.63697,-0.63698 0,-0.24102 -0.32709,-0.7747 -0.3271,-0.5509 -0.3271,-0.89521 l 0.17216,-0.39596 q -0.56812,-0.43039 -1.56662,-0.46482 -0.10329,0 -1.66991,0.0689 -0.0516,-0.15494 -0.10329,-0.41317 l -0.0172,-0.0172 -0.24102,0.49925 q -2.85778,0 -3.95958,0.6542 l 0.24102,0.53368 q -0.0344,0.51647 -1.03294,1.08458 0.13773,0.79192 0.79192,0.79192 0.3271,0 0.94686,-0.12051 0.61976,-0.13773 0.92964,-0.13773 0.58533,0 1.2223,0.46482 -0.24101,0.20659 -0.60254,0.70584 l 0.10329,0.0861 q 0.24102,0.0861 0.46482,0.0861 0.63698,0 1.15345,-1.01572 0.0861,0.24102 0.34431,0.67141 0.10329,-0.3271 0.29266,-0.68863 0.3271,0.0861 0.43039,0.0861 0.25824,0 0.7747,-0.18937 l 1.05015,0.70584 -0.12051,0.0344 z m -9.58908,-1.58383 v 0.12051 l 0.0861,-0.0689 z m 9.08982,10.63923 0.34432,0.10329 0.0172,-0.0172 -0.15494,-0.13772 z m -8.16018,-7.97082 -0.20659,0.15494 0.0516,0.0689 0.17216,-0.12051 z" />
      <path
         id="path1738"
         style="font-style:normal;font-variant:normal;font-weight:normal;font-stretch:normal;font-family:'Gabriele Black Ribbon FG';-inkscape-font-specification:'Gabriele Black Ribbon FG';fill:#000000;stroke-width:0.881439"
         d="m 166.56737,142.52995 0.37875,-0.15494 q 0,-0.39596 -0.37875,-0.39596 l -0.29266,0.27545 q 0,0.15494 0.29266,0.27545 z m -8.34955,-1.63548 q 0.10329,-0.17215 0.17216,-0.41317 l -0.24102,-0.0861 h -0.1033 l -0.20658,0.10329 q 0,0.39596 0.37874,0.39596 z m -1.8765,1.5494 -0.0861,-0.0344 -0.0516,0.0517 0.0861,0.0516 z m 10.26049,10.20884 0.0689,0.0344 h 0.12051 v -0.0516 h -0.17216 z m -11.96483,-8.55614 0.12051,-0.13773 -0.15494,-0.0861 h -0.18937 l -0.13773,0.0861 z m 0.0516,1.51497 h -0.0861 q 0,0 -0.15494,0.0344 l 0.12051,0.10329 z m -0.13773,1.73877 v -0.0172 h -0.0172 z m -0.24102,3.33982 q 0.24102,0.17216 0.48204,0.17216 l 0.0861,-0.0344 v -0.0689 l -0.2238,-0.12051 h -0.0689 z m 1.9798,1.94536 0.25823,-0.10329 -0.20659,0.0172 z m -0.18938,1.51498 0.30988,0.13772 0.34432,-0.20659 -0.20659,-0.0689 q -0.29267,0.0172 -0.43039,0.0689 z m -1.61826,-1.77321 -0.0172,0.0689 h 0.15494 z m 3.4259,8.26348 q 0.0689,0.32709 0.5509,0.34431 l 0.20658,-0.18937 q -0.17215,-0.13773 -0.58532,-0.3271 z m -1.08458,-14.75375 q -0.17216,-0.27545 -0.51647,-0.27545 l -0.18937,0.17216 q 0.18937,0.1205 0.48204,0.10329 z m 0.61976,-0.79192 h 0.0861 v 0.74027 h -0.37875 l -0.0344,0.0344 0.58533,-0.0516 q -0.13772,0.4476 -0.13772,0.56811 0,0.13772 0.0689,0.41317 0.0861,0.27545 0.0861,0.41318 l -0.53368,0.58533 -0.74027,-0.61976 -0.22381,0.32709 q 0.25824,0.15494 0.70584,0.46482 -0.70584,0.61976 -0.70584,1.05015 0,0.27545 0.12051,0.878 0.12051,0.58533 0.1033,0.91242 h 1.29116 v 1.54941 q 0.3271,0.25823 1.17066,0.4476 0.96408,0.20659 1.25674,0.36153 -0.3271,0.20658 -0.7747,0.75748 0.25823,0.49925 0.84356,0.49925 l 0.18937,-0.0344 v -0.17215 l 0.41318,-0.46482 q 0.5509,0.29266 1.01572,0.29266 0.25823,0 0.70583,-0.0689 0.53369,-0.0689 0.70584,-0.0689 -0.17215,-0.25824 -0.49925,-0.74027 0.67141,-0.58533 2.28967,-0.58533 0.17216,0 0.0344,-0.98129 0.3271,-0.65419 0.98129,-0.65419 0.2238,0 0.49925,0.0861 0.17216,-0.0861 0.39596,-0.36153 -0.43039,-0.27545 -0.43039,-0.68862 0,-0.18938 0.17216,-0.48204 0.18937,-0.30988 0.2238,-0.44761 l -0.36153,-0.55089 q 0.61976,-0.63698 0.61976,-1.36003 0,-0.44761 -0.24101,-1.30839 -0.22381,-0.86078 -0.22381,-1.30838 0,-0.43039 0.17216,-0.82635 -0.10329,-0.0861 -0.91243,-0.0861 -0.13772,0 -0.92964,-0.20658 l 0.17216,-1.27396 q -0.58533,-0.12051 -1.63548,-0.74027 l 0.15494,-0.43039 q -0.13772,-0.74027 -0.92964,-0.74027 -0.98129,0 -2.27246,0.89521 -0.18937,-0.32709 -0.74027,-0.72305 l -0.12051,0.0861 0.0344,0.27545 q 0,0.60254 -0.87799,0.96407 -0.92964,0.37874 -0.94686,0.43039 -0.18937,0.48203 -0.24101,1.46332 -0.0689,1.03294 -0.20659,1.48054 z m -0.5509,-5.4229 -0.39596,0.39595 h 0.0689 q 0.13773,-0.10329 0.3271,-0.39595 z m -3.32261,5.35404 0.18938,0.0516 L 154,144.9057 Z m 2.32411,13.94462 0.91242,0.43039 0.18937,-0.17216 q 0,-0.10329 -0.17215,-0.5509 l -0.20659,-0.0861 -0.32709,0.0172 z m -1.97979,-0.34432 0.32709,1.05016 0.20659,-0.25824 0.58533,0.2238 -0.0172,-0.0172 q 0.46482,0 0.65419,-0.67141 -0.86077,-0.46482 -0.94685,-0.46482 -0.2238,0 -0.80913,0.13772 z m 0.0689,2.56513 0.0861,-0.0172 q 0.0172,1.17066 -0.75749,1.17066 -0.37874,0 -1.05015,-0.79192 l 0.10329,-0.13772 q -0.27545,-0.18937 -0.46482,-0.70584 -0.2238,-0.61976 -0.36152,-0.79192 0.60254,-0.24101 1.20509,-0.49925 0.60254,-0.24102 1.03293,-0.75748 l -0.0861,0.0172 0.44761,-0.46482 h -0.44761 v -0.74027 h 0.82635 v 0.37874 q 0.53368,-0.53368 0.53368,-0.72305 0,-0.17216 -0.49925,-0.79192 l 0.43039,-0.65419 q -0.49925,-0.51647 -1.23952,-0.60254 l 0.0516,-0.56812 0.39595,0.0172 q 0.29267,0.0172 0.70584,-0.34431 l -0.27545,-0.15494 -0.84356,0.18937 q -0.30988,-1.18788 -0.30988,-3.82186 -0.0172,-2.51347 -0.41317,-3.82186 l 0.17215,-1.46332 -0.10329,0.0344 q 0.37874,-0.86078 0.37874,-0.94686 0,-0.24102 -0.37874,-0.70584 -0.37874,-0.46482 -0.37874,-0.80913 0,-0.37874 0.30988,-0.72305 -0.44761,-0.27545 -1.48054,-0.29267 -0.878,-0.0172 -1.20509,-0.41317 -0.49925,-0.61976 -0.49925,-2.51348 0.80913,-0.17215 1.66991,-0.17215 0.86078,0 2.56512,0.24102 1.70434,0.2238 2.5479,0.2238 l 0.12051,0.13772 v -0.0344 q 0.39596,-0.12051 2.04865,-0.36152 1.27396,-0.20659 1.99701,-0.58533 0.1033,0.63697 0.46482,0.63697 0.25824,0 0.56812,-0.10329 l 0.60254,-0.5509 q 0.25824,0.44761 0.49925,0.51647 0.0516,0.0172 0.74027,0.0172 0.17216,0 0.67141,0.17216 0.0689,0.18937 0.0689,1.41168 0,0.34431 0.25824,0.49925 0.43039,-0.13773 0.4476,-0.53368 h -0.53368 l 0.70584,-0.94686 q 0.65419,-0.0344 0.65419,0.94686 0,0.30988 1.03293,0.46482 1.03294,0.13772 1.03294,0.89521 0.36153,0.39595 0.36153,0.89521 0,0.24101 -0.12051,0.70583 -0.12051,0.44761 -0.12051,0.67141 0,0.43039 0.82634,0.86078 -0.75748,0.86078 -0.75748,1.08458 l 0.0172,0.12051 q 0.41318,0.18937 1.23953,0.5509 -1.34282,0.86078 -1.34282,1.05015 l 0.0172,0.12051 q 0.24102,0.25823 0.80913,0.25823 0.13772,0 1.63548,-0.15494 -0.84356,0.29267 -2.30689,1.06737 0.17216,0.53368 0.17216,1.23952 0,2.51347 -1.34282,3.46033 -0.0344,0.0172 -1.3256,0.49925 -0.96407,0.34431 -0.96407,0.79192 0,0.18937 0.10329,0.70584 -2.42739,-0.0689 -2.5479,-0.0689 -0.89521,0 -1.61827,0.25824 -1.01571,-0.27545 -2.2208,-0.27545 -0.86078,0 -2.34132,0.17215 -0.18937,0.34432 -0.34431,1.58384 0.58533,0.63697 1.91092,0.49925 -0.0689,1.22231 -0.0689,1.37725 0,0.41317 0.67141,0.70583 0.30988,-0.13772 0.94686,-0.30988 l 0.70584,0.44761 -0.37875,0.70584 0.17216,0.0861 0.2238,-0.13773 v -0.63698 q 0.37874,-0.1205 0.53368,-0.1205 0.61976,0 0.84357,1.60104 -0.13773,0.48204 -0.75749,1.18788 l -0.51647,-0.30988 q -0.34431,0.10329 -1.05015,0.24102 -0.0689,-0.3271 -0.17215,-0.56812 l -0.0344,0.27545 q 0,0.27545 0.20658,1.61827 -0.29266,-0.56812 -0.7747,-1.30839 -0.12051,-0.12051 -0.84356,-0.17215 -0.51647,-0.0516 -0.51647,-0.5509 -0.29266,-0.0516 -0.51646,-0.15494 l -0.43039,0.0516 v -0.15494 l -0.0172,-0.34431 -0.0689,0.0689 -0.44761,-0.27544 q -0.80913,0.18937 -0.80913,0.18937 h -0.20659 v -0.13773 l -0.18937,-0.0172 z m -2.1003,-0.39596 v 0.53368 l -1.3256,-0.0344 0.37874,-1.27395 z" />
    </g>
  </g>
</svg>
