<?xml version="1.0" encoding="UTF-8" standalone="no"?>
<svg
   xmlns:dc="http://purl.org/dc/elements/1.1/"
   xmlns:cc="http://creativecommons.org/ns#"
   xmlns:rdf="http://www.w3.org/1999/02/22-rdf-syntax-ns#"
   xmlns:svg="http://www.w3.org/2000/svg"
   xmlns="http://www.w3.org/2000/svg"
   xmlns:sodipodi="http://sodipodi.sourceforge.net/DTD/sodipodi-0.dtd"
   xmlns:inkscape="http://www.inkscape.org/namespaces/inkscape"
   sodipodi:docname="tree.svg"
   inkscape:version="1.0 (4035a4fb49, 2020-05-01)"
   id="svg2217"
   version="1.1"
   viewBox="0 0 33.457981 12.073812"
   height="12.073812mm"
   width="33.457981mm">
  <defs
     id="defs2211" />
  <sodipodi:namedview
     inkscape:window-maximized="0"
     inkscape:window-y="91"
     inkscape:window-x="1810"
     inkscape:window-height="1032"
     inkscape:window-width="1274"
     fit-margin-bottom="0"
     fit-margin-right="0"
     fit-margin-left="0"
     fit-margin-top="0"
     showgrid="false"
     inkscape:document-rotation="0"
     inkscape:current-layer="layer1"
     inkscape:document-units="mm"
     inkscape:cy="277.10237"
     inkscape:cx="80.370532"
     inkscape:zoom="0.35"
     inkscape:pageshadow="2"
     inkscape:pageopacity="0.0"
     borderopacity="1.0"
     bordercolor="#666666"
     pagecolor="#ffffff"
     id="base" />
  <metadata
     id="metadata2214">
    <rdf:RDF>
      <cc:Work
         rdf:about="">
        <dc:format>image/svg+xml</dc:format>
        <dc:type
           rdf:resource="http://purl.org/dc/dcmitype/StillImage" />
        <dc:title></dc:title>
      </cc:Work>
    </rdf:RDF>
  </metadata>
  <g
     transform="translate(-84.56863,-74.849999)"
     id="layer1"
     inkscape:groupmode="layer"
     inkscape:label="Layer 1">
    <path
       id="path894"
       d="m 110.19663,86.795176 c -0.0821,-0.21498 -0.0228,-0.69992 0.62853,-5.13615 0.19877,-1.35399 0.41796,-2.93049 0.48707,-3.50333 0.0691,-0.57285 0.22207,-1.51717 0.33988,-2.09849 l 0.21423,-1.05696 2.97397,0.023 c 1.63568,0.0127 3.03445,0.0835 3.10838,0.15745 0.31509,0.31509 -0.28736,0.41936 -2.50696,0.43393 -1.29654,0.009 -2.42432,0.0937 -2.50617,0.18935 -0.19981,0.23351 -0.54525,1.81173 -0.69675,3.18326 -0.10434,0.94457 -0.0798,1.09898 0.16012,1.00692 0.48621,-0.18658 3.85815,-0.37931 4.37344,-0.24998 0.99958,0.25088 0.42267,0.43293 -2.11371,0.66698 -1.43211,0.13216 -2.61839,0.2543 -2.63618,0.27142 -0.0276,0.0266 -0.34803,2.01494 -0.76488,4.74716 l -0.11304,0.74083 2.352,-0.11921 c 2.44826,-0.12409 3.26216,-0.0416 3.14294,0.31864 -0.11866,0.35851 -6.31227,0.7672 -6.44287,0.42513 z m -7.3644,-0.18308 c -0.34707,-0.34707 -0.34716,-0.3455 0.31575,-5.04775 0.24228,-1.71854 0.55112,-3.91285 0.68633,-4.87627 0.18984,-1.35275 0.31292,-1.75184 0.54046,-1.75243 0.70517,-0.002 4.74483,0.66007 4.74483,0.77745 0,0.25936 -0.50355,0.29796 -1.98384,0.1521 -0.83073,-0.0818 -1.55016,-0.10909 -1.59874,-0.0605 -0.0486,0.0486 -0.11571,0.27787 -0.14918,0.50953 -0.0335,0.23166 -0.15441,0.88989 -0.26877,1.46273 -0.11434,0.57284 -0.25067,1.27588 -0.30293,1.5623 l -0.095,0.52077 h 1.57432 c 1.89761,0 1.80955,0.26914 -0.17703,0.54111 -0.76535,0.10476 -1.41709,0.21762 -1.44832,0.25077 -0.0312,0.0331 -0.20162,1.21069 -0.37866,2.61677 -0.17705,1.40607 -0.33486,2.6417 -0.35069,2.74586 -0.0326,0.21483 0.37603,0.22317 2.1963,0.0448 1.00689,-0.0987 1.27824,-0.0711 1.27824,0.1296 0,0.34852 -0.55742,0.48225 -2.56481,0.61526 -1.42714,0.0946 -1.76359,0.0625 -2.01823,-0.1921 z m -1.47419,-0.18137 c -0.43563,-0.21783 -2.271391,-2.31341 -4.070551,-4.64667 l -0.753989,-0.97782 -0.219299,1.56262 c -0.120615,0.85943 -0.278096,2.13781 -0.349955,2.84085 -0.112864,1.10411 -0.181788,1.27824 -0.505934,1.27824 h -0.37527 l 0.109771,-0.80482 c 0.0604,-0.44264 0.235175,-1.95524 0.388439,-3.3613 0.153274,-1.40607 0.418328,-3.58562 0.589023,-4.84344 l 0.310347,-2.28693 1.069626,0.0298 c 1.373001,0.0383 2.03112,0.45715 2.302645,1.46552 0.365097,1.35586 -0.251606,2.52164 -1.691851,3.19816 -0.525129,0.24666 -0.936164,0.51575 -0.913418,0.59798 0.04674,0.16901 1.055619,1.44027 3.219276,4.05662 1.50295,1.8174 1.73702,2.31413 0.89114,1.89116 z m -3.718162,-7.43962 c 1.08991,-0.60917 1.443136,-1.09943 1.443136,-2.00303 0,-0.82634 -0.513062,-1.29419 -1.419223,-1.29419 H 97.08632 l -0.232554,1.22592 c -0.222949,1.17527 -0.310468,2.56147 -0.161726,2.56147 0.03893,0 0.465488,-0.22057 0.947838,-0.49017 z m -9.468142,7.033 c -0.06458,-0.16828 0.02068,-2.32708 0.189449,-4.79733 0.168772,-2.47025 0.306779,-4.79097 0.306681,-5.15715 l -1.8e-4,-0.66581 -2.130407,0.0686 c -2.750205,0.0885 -2.577329,-0.28695 0.258365,-0.5611 2.046064,-0.19781 7.553126,0.11927 7.553126,0.43488 0,0.30805 -0.959826,0.37492 -2.564402,0.17865 -0.907756,-0.11104 -1.71979,-0.15903 -1.804522,-0.10667 -0.19446,0.12018 -0.277119,0.8076 -0.658988,5.48025 -0.170093,2.08131 -0.366552,4.11981 -0.436575,4.52998 -0.134759,0.7894 -0.515942,1.10809 -0.712547,0.59575 z"
       style="opacity:1;fill:#000000;stroke-width:0.18937" />
  </g>
</svg>
