<?xml version="1.0" encoding="UTF-8" standalone="no"?>
<svg
   xmlns:dc="http://purl.org/dc/elements/1.1/"
   xmlns:cc="http://creativecommons.org/ns#"
   xmlns:rdf="http://www.w3.org/1999/02/22-rdf-syntax-ns#"
   xmlns:svg="http://www.w3.org/2000/svg"
   xmlns="http://www.w3.org/2000/svg"
   xmlns:sodipodi="http://sodipodi.sourceforge.net/DTD/sodipodi-0.dtd"
   xmlns:inkscape="http://www.inkscape.org/namespaces/inkscape"
   sodipodi:docname="asof152pm2.svg"
   inkscape:version="1.0 (4035a4fb49, 2020-05-01)"
   id="svg1703"
   version="1.1"
   viewBox="0 0 123.34776 52.687351"
   height="52.687351mm"
   width="123.34776mm">
  <defs
     id="defs1697" />
  <sodipodi:namedview
     inkscape:window-maximized="0"
     inkscape:window-y="69"
     inkscape:window-x="2070"
     inkscape:window-height="1032"
     inkscape:window-width="1274"
     fit-margin-bottom="0"
     fit-margin-right="0"
     fit-margin-left="0"
     fit-margin-top="0"
     showgrid="false"
     inkscape:document-rotation="0"
     inkscape:current-layer="layer1"
     inkscape:document-units="mm"
     inkscape:cy="345.28097"
     inkscape:cx="241.66983"
     inkscape:zoom="0.35"
     inkscape:pageshadow="2"
     inkscape:pageopacity="0.0"
     borderopacity="1.0"
     bordercolor="#666666"
     pagecolor="#ffffff"
     id="base" />
  <metadata
     id="metadata1700">
    <rdf:RDF>
      <cc:Work
         rdf:about="">
        <dc:format>image/svg+xml</dc:format>
        <dc:type
           rdf:resource="http://purl.org/dc/dcmitype/StillImage" />
        <dc:title></dc:title>
      </cc:Work>
    </rdf:RDF>
  </metadata>
  <g
     transform="translate(-41.891525,-56.811075)"
     id="layer1"
     inkscape:groupmode="layer"
     inkscape:label="Layer 1">
    <g
       style="font-size:20.6873px;line-height:0.9;font-family:lego;-inkscape-font-specification:lego;letter-spacing:0.071104px;word-spacing:0px;opacity:1;stroke-width:0.517185"
       id="text995"
       aria-label="AS OF 1.52PM GMT ON
FRIDAY APRIL 27TH 2021, THIS
SHOW HAS NO TITLE.">
      <path
         id="path2290"
         style="font-style:normal;font-variant:normal;font-weight:normal;font-stretch:normal;font-family:LiebeErikaW03-Regular;-inkscape-font-specification:LiebeErikaW03-Regular;letter-spacing:0.071104px;stroke-width:0.517185"
         d="m 46.949567,70.576995 q 0,0.02069 0.02069,0.144811 0.02069,0.103437 0,0.206873 0,0.103437 -0.103437,0.124124 -0.08275,0.02069 -0.165498,-0.04138 -0.08275,-0.08275 -0.165498,-0.620619 l -0.930929,-5.13045 q -0.248247,0.04138 -0.848179,0.08275 -0.579245,0.04138 -1.489486,-0.02069 -0.08275,0.434433 -0.268935,1.468798 -0.186185,1.013678 -0.248247,1.427424 -0.186186,1.323987 -0.413746,2.337665 -0.08275,0.413746 -0.144811,0.475808 -0.04138,0.06206 -0.124124,0.06206 -0.06206,0 -0.103437,-0.04138 -0.04137,-0.02069 -0.06206,-0.103436 -0.02069,-0.08275 0,-0.206873 0.02069,-0.124124 0.06206,-0.248248 0.04138,-0.124124 0.04138,-0.144811 l 0.848179,-4.758079 0.53787,-3.558216 q 0.455121,-2.689349 0.558557,-3.247906 0.103437,-0.579244 0.206873,-1.117114 0.103437,-0.517182 0.165499,-0.661993 0.06206,-0.144812 0.165498,-0.144812 0.08275,0 0.144811,0.08275 0.08275,0.06206 0.103437,0.310309 0.04137,0.22756 0.06206,0.268935 0.227561,1.096427 0.434434,2.585912 0.206873,1.468799 0.248247,1.799796 0.330997,2.399726 0.579245,3.930587 0.268935,1.737733 0.579244,3.309967 z M 43.308602,64.95005 q 0.413746,0.06206 1.096427,0.06206 0.682681,-0.02069 1.158489,-0.103437 -0.06206,-0.455121 -0.455121,-3.123782 -0.372371,-2.689349 -0.599932,-3.951274 -0.268935,0.972303 -0.558557,2.896221 z" />
      <path
         id="path2292"
         style="font-style:normal;font-variant:normal;font-weight:normal;font-stretch:normal;font-family:LiebeErikaW03-Regular;-inkscape-font-specification:LiebeErikaW03-Regular;letter-spacing:0.071104px;stroke-width:0.517185"
         d="m 50.217505,56.861315 q 0.330997,0.06206 0.661994,0.372372 0.330996,0.289622 0.496495,0.868866 0.186186,0.558558 0.144811,1.199864 0,0.06206 -0.02069,0.248247 0,0.165499 -0.02069,0.248248 -0.02069,0.06206 -0.06206,0.103436 -0.06206,0.06206 -0.186185,0.06206 -0.103437,-0.02069 -0.124124,-0.103436 -0.04138,-0.103437 0.02069,-0.455121 0.06206,-0.682681 -0.103436,-1.241238 -0.165499,-0.579244 -0.53787,-0.806804 -0.289622,-0.186186 -0.661994,-0.186186 -0.248247,0 -0.496495,0.124124 -0.496495,0.289622 -0.641306,0.848179 -0.124124,0.558557 -0.06206,1.055052 0.08275,0.496495 0.186186,0.84818 0.06206,0.22756 0.186185,0.620619 0.144811,0.372371 1.096427,2.730723 0.04138,0.08275 0.08275,0.186186 0.04138,0.103436 0.517183,1.323987 0.496495,1.220551 0.786117,2.234228 0.289623,0.992991 0.31031,1.696359 0.02069,0.558557 -0.124124,1.034365 -0.124124,0.475808 -0.413746,0.76543 -0.268935,0.268935 -0.53787,0.413746 -0.372371,0.186186 -0.806804,0.186186 -0.413746,0 -0.827492,-0.186186 -0.413746,-0.186186 -0.661994,-0.455121 -0.848179,-1.055052 -0.434433,-2.83416 0,-0.02069 0.02069,-0.165498 0.04137,-0.165498 0.08275,-0.268935 0.06206,-0.103436 0.165499,-0.103436 0.124123,0.02069 0.144811,0.165498 0.02069,0.144811 -0.02069,0.289622 -0.144811,0.434433 -0.165498,1.07574 0,0.641306 0.165498,1.013677 0.206873,0.558558 0.682681,0.868867 0.475808,0.289622 1.137802,0.206873 0.45512,-0.06206 0.744743,-0.393059 0.310309,-0.351684 0.434433,-0.910241 0.124124,-0.579244 0,-1.282612 -0.22756,-1.344675 -1.61361,-4.696017 l -0.868866,-2.192854 q -0.31031,-0.827492 -0.496495,-1.448111 -0.165499,-0.641307 -0.124124,-1.386049 0.02069,-0.393059 0.206873,-0.806805 0.206873,-0.413746 0.45512,-0.599932 0.413746,-0.310309 0.951616,-0.310309 z" />
      <path
         id="path2294"
         style="font-style:normal;font-variant:normal;font-weight:normal;font-stretch:normal;font-family:LiebeErikaW03-Regular;-inkscape-font-specification:LiebeErikaW03-Regular;letter-spacing:0.071104px;stroke-width:0.517185"
         d="m 58.145896,56.819941 q 0.641306,-0.06206 1.034365,0.310309 0.413746,0.372372 0.661993,1.07574 0.351684,1.013678 0.475808,2.83416 0.144811,1.820482 0.103436,3.516841 0,1.137801 -0.165498,2.83416 -0.186186,1.903232 -0.76543,2.854847 -0.558557,0.951616 -1.468798,0.951616 -0.434434,0 -0.84818,-0.268935 -0.413746,-0.289622 -0.744742,-0.930928 -0.330997,-0.641307 -0.455121,-1.406737 -0.165498,-0.786117 -0.268935,-2.254915 -0.08275,-1.489486 0,-3.289281 0.186186,-3.020346 0.724056,-4.509831 0.268935,-0.724056 0.724055,-1.199864 0.475808,-0.475808 0.992991,-0.517182 z m 0.08275,0.372371 q -1.055053,0.165499 -1.468799,1.468799 -0.144811,0.434433 -0.330996,1.199863 -0.186186,0.76543 -0.330997,2.565225 -0.144811,1.799795 -0.06206,3.723714 0.103436,1.923919 0.455121,3.041033 0.186185,0.558557 0.434433,0.972303 0.268935,0.393059 0.558557,0.558557 0.310309,0.144811 0.558557,0.144811 0.413746,0 0.786117,-0.330996 0.393059,-0.330997 0.661994,-1.158489 0.289622,-0.84818 0.413746,-1.903232 0.186186,-1.75842 0.186186,-3.020346 0,-1.923918 -0.144811,-3.661652 -0.124124,-1.75842 -0.413746,-2.461788 -0.206873,-0.599932 -0.517183,-0.868867 -0.310309,-0.268935 -0.786117,-0.268935 z" />
      <path
         id="path2296"
         style="font-style:normal;font-variant:normal;font-weight:normal;font-stretch:normal;font-family:LiebeErikaW03-Regular;-inkscape-font-specification:LiebeErikaW03-Regular;letter-spacing:0.071104px;stroke-width:0.517185"
         d="m 63.235608,56.923377 q 0.372371,-0.02069 1.096427,0 0.744743,0.02069 0.930928,0.02069 0.558558,0 0.599932,0.08275 0.02069,0.08275 -0.06206,0.165498 -0.08275,0.08275 -0.579244,0.08275 -0.186186,0 -1.055052,0 -0.84818,-0.02069 -1.406737,0.02069 -0.02069,0.744743 -0.02069,4.799453 h 1.406736 q 0.641307,-0.04137 0.806805,0 0.165498,0.02069 0.165498,0.144811 0,0.103437 -0.186185,0.165499 -0.165499,0.04137 -0.496496,0.04137 -0.310309,-0.02069 -0.330996,-0.02069 h -1.386049 l 0.02069,7.488803 q 0,0.08275 0.02069,0.413746 0.02069,0.310309 0,0.45512 -0.02069,0.144811 -0.06206,0.22756 -0.04137,0.06206 -0.165498,0.06206 -0.08275,0 -0.144811,-0.103436 -0.04137,-0.124124 0,-0.641306 l -0.02069,-9.764406 q 0,-0.144811 0.02069,-1.737733 0.02069,-1.613609 0.08275,-1.84117 0.124124,-0.04137 0.434433,-0.04137 0.31031,-0.02069 0.330997,-0.02069 z" />
      <path
         id="path2298"
         style="font-style:normal;font-variant:normal;font-weight:normal;font-stretch:normal;font-family:LiebeErikaW03-Regular;-inkscape-font-specification:LiebeErikaW03-Regular;letter-spacing:0.071104px;stroke-width:0.517185"
         d="m 71.510512,56.90269 q 0.04137,0.04138 0.06206,0.186186 0.02069,0.144811 0,0.496495 0,0.330997 0,0.393059 l -0.02069,2.316977 -0.04137,4.220209 v 1.282613 q 0,0.04137 0,0.22756 0,0.165499 -0.04138,2.234229 -0.02069,2.06873 0,2.461788 h 1.220551 q 0.04137,0 0.268935,0 0.22756,-0.02069 0.393058,0.02069 0.165499,0.02069 0.165499,0.165498 0,0.08275 -0.124124,0.144811 -0.124124,0.04138 -0.413746,0.02069 -0.289622,0 -0.351684,0 -0.496495,0.02069 -1.675671,0 -1.158489,0 -1.530861,0 -0.22756,0 -0.310309,-0.02069 -0.08275,0 -0.103437,-0.08275 -0.02069,-0.103437 0.06206,-0.165499 0.103437,-0.08275 0.393059,-0.08275 0.289622,0 0.330997,0 h 1.282612 q 0.04138,-6.537186 0.124124,-12.598565 -0.393058,0.910241 -0.620619,1.282612 -0.165498,0.330997 -0.517182,0.806805 -0.351684,0.475808 -0.661994,0.806805 -0.22756,0.248247 -0.372371,0.289622 -0.124124,0.04137 -0.165499,-0.124124 -0.02069,-0.103436 0.144811,-0.310309 0.103437,-0.124124 0.372372,-0.475808 0.289622,-0.351684 0.496495,-0.641307 0.206873,-0.310309 0.393059,-0.620619 0.186185,-0.310309 0.475808,-0.951615 0.289622,-0.661994 0.413746,-1.034365 0.124123,-0.434434 0.351684,-0.248248 z" />
      <path
         id="path2300"
         style="font-style:normal;font-variant:normal;font-weight:normal;font-stretch:normal;font-family:LiebeErikaW03-Regular;-inkscape-font-specification:LiebeErikaW03-Regular;letter-spacing:0.071104px;stroke-width:0.517185"
         d="m 74.813036,70.514933 q 0.04138,-0.144811 0.165499,-0.22756 0.144811,-0.103437 0.289622,-0.103437 0.186185,0 0.330997,0.144812 0.165498,0.144811 0.165498,0.372371 0,0.186186 -0.186186,0.330997 -0.186185,0.144811 -0.413746,0.103436 -0.206873,-0.06206 -0.310309,-0.248247 -0.08275,-0.186186 -0.04138,-0.372372 z" />
      <path
         id="path2302"
         style="font-style:normal;font-variant:normal;font-weight:normal;font-stretch:normal;font-family:LiebeErikaW03-Regular;-inkscape-font-specification:LiebeErikaW03-Regular;letter-spacing:0.071104px;stroke-width:0.517185"
         d="m 80.417347,56.819941 q 0.124123,-0.02069 0.22756,0.02069 0.124124,0.04137 0.124124,0.165499 0,0.08275 -0.186186,0.144811 -0.165498,0.04137 -0.599932,0.08275 -0.413746,0.02069 -0.496495,0.02069 l -0.930928,0.08275 q -0.124124,0.827492 -0.268935,2.503164 -0.124124,1.675671 -0.144811,1.965293 0.786117,0.268935 1.427423,0.930929 0.641307,0.641306 0.910241,1.489485 0.786118,2.420414 0.268935,4.799454 -0.206873,0.972303 -0.682681,1.572234 -0.475807,0.579245 -1.179176,0.579245 -0.76543,0 -1.3033,-0.620619 -0.434433,-0.53787 -0.558557,-1.406737 -0.02069,-0.186185 0.02069,-0.330996 0.06206,-0.144811 0.186185,-0.165499 0.04137,0 0.08275,0.04138 0.04137,0.02069 0.08275,0.393059 0.06206,0.351684 0.165498,0.661993 0.186186,0.475808 0.53787,0.76543 0.372371,0.268935 0.786117,0.268935 0.289623,0 0.599932,-0.206873 0.330997,-0.206873 0.579244,-0.76543 0.268935,-0.558557 0.393059,-1.344674 0.08275,-0.599932 0.08275,-1.365362 0,-0.76543 -0.124123,-1.489486 -0.124124,-0.724055 -0.31031,-1.241238 -0.144811,-0.434433 -0.455121,-0.889554 -0.289622,-0.475808 -0.641306,-0.76543 -0.351684,-0.289622 -0.641306,-0.393058 -0.02069,0 -0.289622,-0.08275 -0.268935,-0.103436 -0.289623,-0.144811 -0.06206,-0.06206 0,-0.599931 l 0.144812,-1.779108 0.22756,-2.316978 q 0,-0.02069 0,-0.165498 0.02069,-0.144811 0.06206,-0.186186 0.04137,-0.04137 0.103436,-0.04137 0.08275,-0.02069 0.248248,-0.02069 0.165498,-0.02069 0.206873,-0.02069 z" />
      <path
         id="path2304"
         style="font-style:normal;font-variant:normal;font-weight:normal;font-stretch:normal;font-family:LiebeErikaW03-Regular;-inkscape-font-specification:LiebeErikaW03-Regular;letter-spacing:0.071104px;stroke-width:0.517185"
         d="m 86.052363,60.440218 q -0.144811,0.579245 -0.351684,1.282613 -0.206873,0.703368 -1.013677,3.144469 l -1.07574,3.061721 -1.034365,2.792785 q 0.248248,0 0.744743,0.02069 0.496495,0.02069 1.055052,0 0.31031,0 0.827492,0 0.53787,-0.02069 0.827492,-0.04137 0.103437,0 0.206873,0.06206 0.124124,0.06206 0.103437,0.165498 -0.02069,0.103437 -0.248248,0.124124 -0.144811,0.02069 -0.455121,0.04138 -0.310309,0.02069 -1.965293,-0.02069 h -1.3033 q -0.165498,-0.02069 -0.22756,-0.124123 -0.06206,-0.103437 0.08275,-0.455121 0.144811,-0.351684 0.186186,-0.434433 l 0.827492,-2.192854 q 0.99299,-2.792786 1.592922,-4.654643 0.599931,-1.861857 0.889554,-3.144469 0.310309,-1.386049 0.02069,-2.089417 -0.289622,-0.703369 -0.889554,-0.703369 -0.475808,0 -0.889554,0.475808 -0.413746,0.475808 -0.53787,1.158489 -0.06206,0.351684 -0.06206,0.786117 0,0.434434 -0.04137,0.496496 -0.04138,0.04137 -0.08275,0.04137 -0.144811,0.04138 -0.227561,-0.02069 -0.08275,-0.08275 -0.08275,-0.31031 -0.02069,-0.620619 0.144811,-1.261925 0.165499,-0.661993 0.496495,-1.096427 0.248248,-0.310309 0.599932,-0.475808 0.372372,-0.186185 0.703368,-0.186185 0.517183,0 0.889554,0.310309 0.372372,0.289622 0.496495,1.096427 0.124124,0.786117 -0.206873,2.151479 z" />
      <path
         id="path2306"
         style="font-style:normal;font-variant:normal;font-weight:normal;font-stretch:normal;font-family:LiebeErikaW03-Regular;-inkscape-font-specification:LiebeErikaW03-Regular;letter-spacing:0.071104px;stroke-width:0.517185"
         d="m 88.78922,56.923377 q 0.951616,0.06206 1.717046,0.827492 0.434433,0.434434 0.682681,1.199864 0.268934,0.76543 0.248247,1.613609 -0.04137,0.848179 -0.268935,1.592922 -0.206873,0.724056 -0.599931,1.137802 -0.682681,0.661993 -2.06873,0.599931 v 5.66832 q 0,0.227561 0.02069,0.682681 0.02069,0.434434 -0.02069,0.661994 -0.02069,0.206873 -0.186186,0.206873 -0.04138,0 -0.08275,-0.04137 -0.04138,-0.02069 -0.06206,-0.103436 -0.02069,-0.103437 -0.02069,-0.22756 0,-0.124124 0,-0.248248 0,-0.144811 0,-0.165498 l 0.02069,-2.668662 -0.02069,-5.626946 v -3.889212 q 0,-0.103436 -0.02069,-0.455121 0,-0.372371 0.06206,-0.537869 0.06206,-0.165499 0.22756,-0.206873 0.248248,-0.04138 0.372372,-0.02069 z m -0.186186,0.393059 q -0.04137,0.02069 -0.06206,0.496495 0,0.475808 0,0.53787 l -0.02069,3.309968 q -0.04138,0.930928 0,1.84117 1.013678,0.103436 1.489485,-0.227561 0.661994,-0.413746 0.930929,-1.675671 0.268935,-1.282613 -0.02069,-2.379039 -0.206873,-0.724056 -0.786118,-1.3033 -0.22756,-0.248248 -0.661993,-0.455121 -0.434434,-0.206873 -0.868867,-0.144811 z" />
      <path
         id="path2308"
         style="font-style:normal;font-variant:normal;font-weight:normal;font-stretch:normal;font-family:LiebeErikaW03-Regular;-inkscape-font-specification:LiebeErikaW03-Regular;letter-spacing:0.071104px;stroke-width:0.517185"
         d="m 97.505355,56.90269 q 0.06206,-0.02069 0.124124,0.02069 0.08275,0.04137 0.124124,0.206873 0.04137,0.144811 0.06206,0.413746 0.02069,0.268935 0,0.76543 0,0.496496 0,0.620619 l 0.02069,6.061379 q -0.04138,0.972303 -0.02069,3.413405 0.02069,2.420414 0.02069,2.461788 -0.04138,0.227561 -0.186186,0.227561 -0.206873,0 -0.186186,-0.641307 0.04137,-0.641306 0.02069,-0.827492 -0.04138,-0.786117 -0.02069,-2.565225 0.04137,-1.779108 0.02069,-2.482476 l -0.02069,-6.640623 q -0.186185,0.827492 -0.641306,2.503163 -0.45512,1.675672 -0.558557,2.110105 -0.372371,1.551547 -0.661994,2.503163 -0.186185,0.475808 -0.330996,0.496495 -0.227561,0.02069 -0.372372,-0.330996 -0.22756,-0.620619 -0.496495,-1.717046 l -0.76543,-3.061721 -0.641306,-2.441101 v 5.461447 l -0.02069,3.268593 q 0,0.558557 0,2.006668 0,1.427424 0.02069,1.84117 0,0.351684 -0.06206,0.455121 -0.06206,0.103436 -0.186186,0.06206 -0.103436,-0.02069 -0.124124,-0.351684 0,-0.351685 0,-0.372372 l 0.02069,-7.530177 v -5.109763 q 0,-0.744743 0.165498,-0.806805 0.144811,-0.04137 0.22756,0.103437 0.103437,0.124124 0.227561,0.661993 0.310309,1.013678 0.848179,3.185845 0.579244,2.337664 1.117114,4.220209 0.186186,-0.53787 0.496495,-1.903232 0.330997,-1.386049 0.413746,-1.696358 l 1.034365,-3.9099 q 0.02069,-0.06206 0.06206,-0.22756 0.04138,-0.186186 0.103437,-0.31031 0.06206,-0.124124 0.165498,-0.144811 z" />
      <path
         id="path2310"
         style="font-style:normal;font-variant:normal;font-weight:normal;font-stretch:normal;font-family:LiebeErikaW03-Regular;-inkscape-font-specification:LiebeErikaW03-Regular;letter-spacing:0.071104px;stroke-width:0.517185"
         d="m 105.89565,58.536987 q 0.1655,1.137801 -0.1655,1.117114 -0.0827,0 -0.14481,-0.103437 -0.0621,-0.124123 -0.0207,-0.393058 0.0207,-0.475808 -0.0621,-0.930929 -0.0827,-0.45512 -0.26893,-0.703368 -0.18619,-0.248248 -0.37237,-0.310309 -0.59993,-0.165499 -1.1378,0.703368 -0.331,0.53787 -0.62062,1.489485 -0.26894,0.951616 -0.43444,2.83416 -0.10343,1.344675 -0.10343,2.503164 0.0414,4.240896 0.88955,5.564883 0.22756,0.351684 0.55856,0.475808 0.35168,0.103437 0.64131,-0.04137 0.51718,-0.248248 0.8068,-1.38605 0.12412,-0.45512 0.22756,-1.158488 0.10344,-0.724056 0.12412,-3.206532 0,-0.08275 0,-0.434433 0.0207,-0.351684 0,-0.455121 -0.0207,-0.124123 -0.0414,-0.144811 -0.0621,-0.04137 -0.47581,-0.06206 -0.41374,-0.02069 -0.59993,0 -0.4965,0.04138 -0.66199,0.02069 -0.1655,-0.04138 -0.1655,-0.144811 0,-0.06206 0.0207,-0.124124 0.0414,-0.06206 0.35169,-0.08275 l 1.05505,0.02069 q 0.0621,0 0.24825,0 0.18618,-0.02069 0.26893,0 0.10344,0 0.12413,0.02069 0.0828,0.04137 0.14481,0.144811 0.0621,0.103437 0.0621,0.599932 0,0.475808 0,0.641306 0,1.427424 -0.0828,2.585913 -0.0828,1.158488 -0.35168,2.151479 -0.41375,1.427424 -1.42743,1.427424 -0.91024,0 -1.36536,-1.117115 -0.33099,-0.806804 -0.49649,-2.130792 -0.1655,-1.323987 -0.20688,-2.441101 -0.0414,-1.965293 0.14481,-3.82715 0.22757,-1.737734 0.45513,-2.523851 0.24824,-0.806805 0.6413,-1.468798 0.18619,-0.351684 0.53787,-0.579245 0.35169,-0.22756 0.70337,-0.22756 0.93093,0 1.19986,1.696359 z" />
      <path
         id="path2312"
         style="font-style:normal;font-variant:normal;font-weight:normal;font-stretch:normal;font-family:LiebeErikaW03-Regular;-inkscape-font-specification:LiebeErikaW03-Regular;letter-spacing:0.071104px;stroke-width:0.517185"
         d="m 112.99171,56.90269 q 0.0621,-0.02069 0.12413,0.02069 0.0827,0.04137 0.12412,0.206873 0.0414,0.144811 0.0621,0.413746 0.0207,0.268935 0,0.76543 0,0.496496 0,0.620619 l 0.0207,6.061379 q -0.0414,0.972303 -0.0207,3.413405 0.0207,2.420414 0.0207,2.461788 -0.0414,0.227561 -0.18619,0.227561 -0.20687,0 -0.18618,-0.641307 0.0414,-0.641306 0.0207,-0.827492 -0.0414,-0.786117 -0.0207,-2.565225 0.0414,-1.779108 0.0207,-2.482476 l -0.0207,-6.640623 q -0.18619,0.827492 -0.64131,2.503163 -0.45512,1.675672 -0.55855,2.110105 -0.37238,1.551547 -0.662,2.503163 -0.18618,0.475808 -0.33099,0.496495 -0.22757,0.02069 -0.37238,-0.330996 -0.22756,-0.620619 -0.49649,-1.717046 l -0.76543,-3.061721 -0.64131,-2.441101 v 5.461447 l -0.0207,3.268593 q 0,0.558557 0,2.006668 0,1.427424 0.0207,1.84117 0,0.351684 -0.0621,0.455121 -0.0621,0.103436 -0.18619,0.06206 -0.10343,-0.02069 -0.12412,-0.351684 0,-0.351685 0,-0.372372 l 0.0207,-7.530177 v -5.109763 q 0,-0.744743 0.1655,-0.806805 0.14481,-0.04137 0.22756,0.103437 0.10343,0.124124 0.22756,0.661993 0.31031,1.013678 0.84818,3.185845 0.57924,2.337664 1.11711,4.220209 0.18619,-0.53787 0.4965,-1.903232 0.33099,-1.386049 0.41374,-1.696358 l 1.03437,-3.9099 q 0.0207,-0.06206 0.0621,-0.22756 0.0414,-0.186186 0.10344,-0.31031 0.0621,-0.124124 0.16549,-0.144811 z" />
      <path
         id="path2314"
         style="font-style:normal;font-variant:normal;font-weight:normal;font-stretch:normal;font-family:LiebeErikaW03-Regular;-inkscape-font-specification:LiebeErikaW03-Regular;letter-spacing:0.071104px;stroke-width:0.517185"
         d="m 118.26502,56.944065 q 0.28963,-0.02069 0.43444,0 0.1655,0 0.18618,0.124123 0,0.06206 -0.0414,0.124124 -0.0207,0.04138 -0.14481,0.08275 -0.10344,0.02069 -0.26894,0.04138 -0.14481,0 -0.31031,0 -0.1655,-0.02069 -0.18618,-0.02069 h -1.03437 l 0.0207,7.468115 v 5.689007 q 0,0.02069 0,0.206873 0.0207,0.165499 -0.0207,0.31031 -0.0207,0.124124 -0.12412,0.124124 -0.0828,0 -0.14481,-0.08275 -0.0621,-0.08275 -0.0621,-0.537869 -0.0207,-0.455121 -0.0207,-1.323988 0.0207,-0.889553 0.0207,-1.241238 l -0.0414,-10.612584 q -0.12412,-0.02069 -0.84818,-0.02069 -0.10344,0 -0.47581,0.02069 -0.35168,0 -0.4758,-0.02069 -0.12413,-0.04137 -0.14482,-0.103436 0,-0.04138 0.0207,-0.124124 0.0414,-0.103436 0.1655,-0.103436 l 1.15849,0.02069 z" />
      <path
         id="path2316"
         style="font-style:normal;font-variant:normal;font-weight:normal;font-stretch:normal;font-family:LiebeErikaW03-Regular;-inkscape-font-specification:LiebeErikaW03-Regular;letter-spacing:0.071104px;stroke-width:0.517185"
         d="m 124.79929,56.819941 q 0.6413,-0.06206 1.03436,0.310309 0.41375,0.372372 0.66199,1.07574 0.35169,1.013678 0.47581,2.83416 0.14481,1.820482 0.10344,3.516841 0,1.137801 -0.1655,2.83416 -0.18618,1.903232 -0.76543,2.854847 -0.55856,0.951616 -1.4688,0.951616 -0.43443,0 -0.84818,-0.268935 -0.41374,-0.289622 -0.74474,-0.930928 -0.331,-0.641307 -0.45512,-1.406737 -0.1655,-0.786117 -0.26893,-2.254915 -0.0827,-1.489486 0,-3.289281 0.18618,-3.020346 0.72405,-4.509831 0.26894,-0.724056 0.72406,-1.199864 0.4758,-0.475808 0.99299,-0.517182 z m 0.0828,0.372371 q -1.05506,0.165499 -1.4688,1.468799 -0.14481,0.434433 -0.331,1.199863 -0.18619,0.76543 -0.331,2.565225 -0.14481,1.799795 -0.0621,3.723714 0.10344,1.923919 0.45512,3.041033 0.18619,0.558557 0.43444,0.972303 0.26893,0.393059 0.55855,0.558557 0.31031,0.144811 0.55856,0.144811 0.41375,0 0.78612,-0.330996 0.39306,-0.330997 0.66199,-1.158489 0.28962,-0.84818 0.41375,-1.903232 0.18618,-1.75842 0.18618,-3.020346 0,-1.923918 -0.14481,-3.661652 -0.12412,-1.75842 -0.41374,-2.461788 -0.20688,-0.599932 -0.51719,-0.868867 -0.31031,-0.268935 -0.78611,-0.268935 z" />
      <path
         id="path2318"
         style="font-style:normal;font-variant:normal;font-weight:normal;font-stretch:normal;font-family:LiebeErikaW03-Regular;-inkscape-font-specification:LiebeErikaW03-Regular;letter-spacing:0.071104px;stroke-width:0.517185"
         d="m 133.19896,56.944065 q 0.0414,0 0.0828,0.04137 0.0621,0.04138 0.0414,0.351684 0,0.289623 0,0.351684 0.0414,0.992991 0,2.585913 -0.0207,1.592922 -0.0207,1.903231 0.0621,2.999659 0.0207,7.302617 l 0.0207,0.910241 q 0,0.04138 0,0.268935 0.0207,0.206873 -0.0207,0.351684 -0.0207,0.124124 -0.12413,0.144812 -0.0414,0 -0.12412,-0.02069 -0.0828,-0.02069 -0.14481,-0.165498 -0.0621,-0.144811 -0.14481,-0.475808 -0.0207,-0.103437 -0.53787,-1.84117 -0.4965,-1.737733 -0.70337,-2.503163 -0.26894,-0.972303 -0.95162,-3.723714 -0.24824,-1.013678 -0.6413,-2.503163 -0.37237,-1.489486 -0.55856,-2.06873 -0.0207,0.744743 0,1.717046 0.0207,0.951615 0.0207,1.344674 v 6.164815 l 0.0207,3.434092 q 0,0.04138 0,0.268935 0,0.206873 -0.0621,0.268935 -0.0414,0.08275 -0.12412,0.06206 -0.1655,-0.02069 -0.1655,-0.558557 l -0.0207,-6.040692 V 61.20564 58.14392 q 0,-0.06206 -0.0207,-0.393059 0,-0.330996 0.0207,-0.537869 0.0207,-0.227561 0.12413,-0.268935 0.10343,-0.04138 0.20687,0.02069 0.12412,0.06206 0.28962,0.558557 0.4965,1.634297 0.662,2.379039 1.63429,6.557874 1.79979,7.095744 0.0414,0.165499 0.39306,1.489486 0.37237,1.323987 0.45512,1.551547 l -0.0414,-6.702685 0.0207,-3.206531 q 0,-0.186186 -0.0207,-1.117114 0,-0.930929 0.0207,-1.427424 0,-0.661994 0.22756,-0.641306 z" />
      <path
         id="path2320"
         style="font-style:normal;font-variant:normal;font-weight:normal;font-stretch:normal;font-family:LiebeErikaW03-Regular;-inkscape-font-specification:LiebeErikaW03-Regular;letter-spacing:0.071104px;stroke-width:0.517185"
         d="m 43.556849,76.053099 q 0.372372,-0.02069 1.096427,0 0.744743,0.02069 0.930929,0.02069 0.558557,0 0.599931,0.08275 0.02069,0.08275 -0.06206,0.165498 -0.08275,0.08275 -0.579245,0.08275 -0.186185,0 -1.055052,0 -0.848179,-0.02069 -1.406736,0.02069 -0.02069,0.744742 -0.02069,4.799453 h 1.406737 q 0.641306,-0.04137 0.806804,0 0.165499,0.02069 0.165499,0.144811 0,0.103437 -0.186186,0.165499 -0.165498,0.04137 -0.496495,0.04137 -0.31031,-0.02069 -0.330997,-0.02069 h -1.386049 l 0.02069,7.488803 q 0,0.08275 0.02069,0.413746 0.02069,0.310309 0,0.45512 -0.02069,0.144811 -0.06206,0.22756 -0.04138,0.06206 -0.165499,0.06206 -0.08275,0 -0.144811,-0.103436 -0.04137,-0.124124 0,-0.641306 l -0.02069,-9.764406 q 0,-0.144811 0.02069,-1.737733 0.02069,-1.61361 0.08275,-1.84117 0.124124,-0.04137 0.434434,-0.04137 0.310309,-0.02069 0.330996,-0.02069 z" />
      <path
         id="path2322"
         style="font-style:normal;font-variant:normal;font-weight:normal;font-stretch:normal;font-family:LiebeErikaW03-Regular;-inkscape-font-specification:LiebeErikaW03-Regular;letter-spacing:0.071104px;stroke-width:0.517185"
         d="m 47.371062,76.073787 0.413746,-0.04138 q 0.45512,0 0.930928,0.22756 0.475808,0.227561 0.786117,0.579245 0.393059,0.434433 0.661994,1.22055 0.268935,0.786118 0.268935,1.61361 0,1.75842 -0.848179,2.585912 -0.703369,0.661994 -1.944607,0.661994 l 1.055053,2.213541 1.75842,3.537528 q 0.413746,0.786118 0.599932,1.07574 0.103436,0.144811 0.103436,0.289622 0.02069,0.124124 -0.124123,0.144811 -0.124124,0 -0.186186,-0.04138 -0.06206,-0.06206 -0.103437,-0.165498 -0.04137,-0.103436 -0.06206,-0.124124 -1.055053,-1.944606 -2.192854,-4.36502 -0.455121,-0.889554 -1.055053,-2.29629 0.08275,1.551547 0.08275,5.378698 0,0.103436 -0.02069,0.558557 0,0.45512 0.04138,0.744743 0.02069,0.144811 -0.04138,0.248247 -0.06206,0.08275 -0.165498,0.08275 -0.04138,0 -0.144811,-0.04137 -0.103437,-0.04138 -0.06206,-0.351684 0.04138,-0.31031 0.04138,-0.393059 v -2.751411 l -0.04138,-5.585571 v -3.785776 q 0,-0.08275 -0.02069,-0.45512 -0.02069,-0.372372 0.04137,-0.53787 0.06206,-0.186186 0.227561,-0.22756 z m 0.186185,0.351684 q -0.103436,0.02069 -0.103436,1.034365 l 0.02069,3.227218 0.02069,1.861857 q 0.393059,0.04138 0.806805,-0.04137 0.434433,-0.103437 0.724056,-0.268935 0.372371,-0.206873 0.641306,-0.661994 0.268935,-0.475808 0.372371,-1.344674 0.103437,-0.889554 -0.165498,-1.903232 -0.186186,-0.661993 -0.599932,-1.158489 -0.393059,-0.496495 -0.868866,-0.641306 -0.455121,-0.165498 -0.84818,-0.103436 z" />
      <path
         id="path2324"
         style="font-style:normal;font-variant:normal;font-weight:normal;font-stretch:normal;font-family:LiebeErikaW03-Regular;-inkscape-font-specification:LiebeErikaW03-Regular;letter-spacing:0.071104px;stroke-width:0.517185"
         d="m 52.552898,76.073787 q 0.206873,0 0.186186,0.22756 -0.02069,0.22756 -0.02069,0.268935 v 2.916909 l -0.02069,7.426741 -0.02069,2.689349 q 0,0.310309 -0.02069,0.45512 -0.02069,0.144811 -0.124123,0.165499 -0.206873,0 -0.206873,-0.496496 0.04137,-1.323987 0.04137,-7.095743 l 0.02069,-2.585913 v -3.475466 q 0,-0.351684 0.04137,-0.413746 0.06206,-0.08275 0.124124,-0.08275 z" />
      <path
         id="path2326"
         style="font-style:normal;font-variant:normal;font-weight:normal;font-stretch:normal;font-family:LiebeErikaW03-Regular;-inkscape-font-specification:LiebeErikaW03-Regular;letter-spacing:0.071104px;stroke-width:0.517185"
         d="m 55.067043,76.032412 q 0.496495,-0.04137 1.07574,0.186186 0.579244,0.22756 0.910241,0.496495 0.889554,0.724055 1.386049,2.503163 0.496495,1.779108 0.496495,3.9099 0.02069,1.737733 -0.103436,3.082407 -0.124124,1.344675 -0.496495,2.213542 -0.372372,0.848179 -0.889554,1.261925 -0.661994,0.53787 -1.758421,0.53787 l -0.76543,-0.04138 q -0.02069,0 -0.04137,-0.124124 -0.02069,-0.124124 -0.02069,-0.393058 0.02069,-0.289623 0.02069,-0.330997 v -3.14447 l 0.02069,-3.454779 -0.02069,-6.371688 q 0.02069,-0.206873 0.04137,-0.248248 0.02069,-0.06206 0.144811,-0.08275 z m 0.144811,0.393059 q 0.04137,4.489144 0,13.446745 1.365362,0.124123 2.006668,-0.434434 0.227561,-0.206873 0.455121,-0.53787 0.248248,-0.330996 0.413746,-0.806804 0.165498,-0.496495 0.248248,-0.972303 0.103436,-0.475808 0.144811,-0.84818 0.04137,-0.372371 0.04137,-0.661993 0.02069,-0.289622 0.04138,-0.599932 0.02069,-0.330997 0.02069,-0.413746 0.08275,-2.192854 -0.206873,-4.054711 -0.289622,-1.861857 -0.910241,-2.83416 -0.372371,-0.599931 -0.972303,-0.951616 -0.599932,-0.372371 -1.282613,-0.330996 z" />
      <path
         id="path2328"
         style="font-style:normal;font-variant:normal;font-weight:normal;font-stretch:normal;font-family:LiebeErikaW03-Regular;-inkscape-font-specification:LiebeErikaW03-Regular;letter-spacing:0.071104px;stroke-width:0.517185"
         d="m 64.890916,89.706717 q 0,0.02069 0.02069,0.144811 0.02069,0.103437 0,0.206873 0,0.103437 -0.103437,0.124124 -0.08275,0.02069 -0.165498,-0.04138 -0.08275,-0.08275 -0.165498,-0.620619 l -0.930929,-5.13045 q -0.248247,0.04138 -0.848179,0.08275 -0.579245,0.04138 -1.489486,-0.02069 -0.08275,0.434433 -0.268935,1.468798 -0.186185,1.013678 -0.248247,1.427424 -0.186186,1.323987 -0.413746,2.337665 -0.08275,0.413746 -0.144811,0.475808 -0.04138,0.06206 -0.124124,0.06206 -0.06206,0 -0.103437,-0.04138 -0.04137,-0.02069 -0.06206,-0.103436 -0.02069,-0.08275 0,-0.206873 0.02069,-0.124124 0.06206,-0.248248 0.04138,-0.124124 0.04138,-0.144811 l 0.848179,-4.758079 0.53787,-3.558216 q 0.455121,-2.689349 0.558557,-3.247906 0.103437,-0.579244 0.206873,-1.117114 0.103437,-0.517182 0.165499,-0.661993 0.06206,-0.144812 0.165498,-0.144812 0.08275,0 0.144811,0.08275 0.08275,0.06206 0.103437,0.310309 0.04137,0.22756 0.06206,0.268935 0.227561,1.096427 0.434434,2.585912 0.206873,1.468799 0.248247,1.799796 0.330997,2.399726 0.579245,3.930586 0.268935,1.737734 0.579244,3.309968 z m -3.640965,-5.626945 q 0.413746,0.06206 1.096427,0.06206 0.682681,-0.02069 1.158489,-0.103436 -0.06206,-0.455121 -0.455121,-3.123782 -0.372371,-2.689349 -0.599932,-3.951275 -0.268935,0.972304 -0.558557,2.896222 z" />
      <path
         id="path2330"
         style="font-style:normal;font-variant:normal;font-weight:normal;font-stretch:normal;font-family:LiebeErikaW03-Regular;-inkscape-font-specification:LiebeErikaW03-Regular;letter-spacing:0.071104px;stroke-width:0.517185"
         d="m 69.850041,76.053099 q 0.186185,0.04138 0.02069,0.434434 -0.186186,0.475807 -0.620619,2.006668 -0.434433,1.510173 -0.53787,1.841169 -0.641306,2.048043 -1.199863,3.620278 v 1.737733 q 0,0.04138 0,0.186186 0,0.124123 -0.02069,1.53086 -0.02069,1.406736 0,2.254916 0,0.268934 -0.02069,0.413746 -0.02069,0.124123 -0.144811,0.144811 -0.103436,0 -0.165498,-0.144811 Q 67.11931,89.934277 67.14,89.582593 67.16069,89.210222 67.16069,89.168847 67.14,88.403417 67.14,86.955306 q 0.02069,-1.468798 0.02069,-1.75842 v -1.158489 l -1.07574,-3.496154 q -0.144811,-0.579244 -0.517182,-1.799795 -0.372372,-1.241238 -0.661994,-2.06873 -0.144811,-0.413746 -0.144811,-0.475808 0.02069,-0.08275 0.04138,-0.103436 0.124123,-0.08275 0.248247,-0.02069 0.124124,0.06206 0.227561,0.475807 0.103436,0.393059 0.124123,0.475808 l 0.806805,2.710037 q 0.434433,1.592922 1.137801,3.640964 0.599932,-1.75842 0.868867,-2.689349 0.02069,-0.06206 0.08275,-0.289622 0.08275,-0.22756 0.620619,-2.027355 0.53787,-1.799795 0.620619,-2.006668 0.124124,-0.351684 0.31031,-0.31031 z" />
      <path
         id="path2332"
         style="font-style:normal;font-variant:normal;font-weight:normal;font-stretch:normal;font-family:LiebeErikaW03-Regular;-inkscape-font-specification:LiebeErikaW03-Regular;letter-spacing:0.071104px;stroke-width:0.517185"
         d="m 77.87217,89.706717 q 0,0.02069 0.02069,0.144811 0.02069,0.103437 0,0.206873 0,0.103437 -0.103436,0.124124 -0.08275,0.02069 -0.165498,-0.04138 -0.08275,-0.08275 -0.165499,-0.620619 l -0.930928,-5.13045 q -0.248248,0.04138 -0.84818,0.08275 -0.579244,0.04138 -1.489485,-0.02069 -0.08275,0.434433 -0.268935,1.468798 -0.186186,1.013678 -0.248248,1.427424 -0.186185,1.323987 -0.413746,2.337665 -0.08275,0.413746 -0.144811,0.475808 -0.04137,0.06206 -0.124124,0.06206 -0.06206,0 -0.103436,-0.04138 -0.04138,-0.02069 -0.06206,-0.103436 -0.02069,-0.08275 0,-0.206873 0.02069,-0.124124 0.06206,-0.248248 0.04137,-0.124124 0.04137,-0.144811 l 0.848179,-4.758079 0.53787,-3.558216 q 0.45512,-2.689349 0.558557,-3.247906 0.103436,-0.579244 0.206873,-1.117114 0.103436,-0.517182 0.165498,-0.661993 0.06206,-0.144812 0.165499,-0.144812 0.08275,0 0.144811,0.08275 0.08275,0.06206 0.103436,0.310309 0.04138,0.22756 0.06206,0.268935 0.22756,1.096427 0.434433,2.585912 0.206873,1.468799 0.248248,1.799796 0.330997,2.399726 0.579244,3.930586 0.268935,1.737734 0.579245,3.309968 z m -3.640965,-5.626945 q 0.413746,0.06206 1.096427,0.06206 0.682681,-0.02069 1.158489,-0.103436 -0.06206,-0.455121 -0.45512,-3.123782 -0.372372,-2.689349 -0.599932,-3.951275 -0.268935,0.972304 -0.558557,2.896222 z" />
      <path
         id="path2334"
         style="font-style:normal;font-variant:normal;font-weight:normal;font-stretch:normal;font-family:LiebeErikaW03-Regular;-inkscape-font-specification:LiebeErikaW03-Regular;letter-spacing:0.071104px;stroke-width:0.517185"
         d="m 79.919557,76.053099 q 0.951615,0.06206 1.717045,0.827492 0.434434,0.434434 0.682681,1.199864 0.268935,0.76543 0.248248,1.613609 -0.04138,0.848179 -0.268935,1.592922 -0.206873,0.724056 -0.599932,1.137802 -0.682681,0.661993 -2.06873,0.599931 v 5.66832 q 0,0.227561 0.02069,0.682681 0.02069,0.434434 -0.02069,0.661994 -0.02069,0.206873 -0.186185,0.206873 -0.04138,0 -0.08275,-0.04138 -0.04137,-0.02069 -0.06206,-0.103436 -0.02069,-0.103437 -0.02069,-0.22756 0,-0.124124 0,-0.248248 0,-0.144811 0,-0.165498 l 0.02069,-2.668662 -0.02069,-5.626946 V 77.27365 q 0,-0.103437 -0.02069,-0.455121 0,-0.372371 0.06206,-0.537869 0.06206,-0.165499 0.22756,-0.206873 0.248248,-0.04138 0.372372,-0.02069 z m -0.186186,0.393059 q -0.04138,0.02069 -0.06206,0.496495 0,0.475808 0,0.53787 l -0.02069,3.309968 q -0.04138,0.930928 0,1.84117 1.013677,0.103436 1.489485,-0.227561 0.661994,-0.413746 0.930929,-1.675671 0.268935,-1.282613 -0.02069,-2.379039 -0.206873,-0.724056 -0.786117,-1.3033 -0.22756,-0.248248 -0.661994,-0.455121 -0.434433,-0.206873 -0.868866,-0.144811 z" />
      <path
         id="path2336"
         style="font-style:normal;font-variant:normal;font-weight:normal;font-stretch:normal;font-family:LiebeErikaW03-Regular;-inkscape-font-specification:LiebeErikaW03-Regular;letter-spacing:0.071104px;stroke-width:0.517185"
         d="m 83.981049,76.073787 0.413746,-0.04138 q 0.455121,0 0.930929,0.22756 0.475808,0.227561 0.786117,0.579245 0.393059,0.434433 0.661994,1.22055 0.268935,0.786118 0.268935,1.61361 0,1.75842 -0.84818,2.585912 -0.703368,0.661994 -1.944606,0.661994 l 1.055053,2.213541 1.75842,3.537528 q 0.413746,0.786118 0.599932,1.07574 0.103436,0.144811 0.103436,0.289622 0.02069,0.124124 -0.124124,0.144811 -0.124123,0 -0.186185,-0.04138 -0.06206,-0.06206 -0.103437,-0.165498 -0.04137,-0.103436 -0.06206,-0.124124 -1.055052,-1.944606 -2.192853,-4.36502 -0.455121,-0.889554 -1.055053,-2.29629 0.08275,1.551547 0.08275,5.378698 0,0.103436 -0.02069,0.558557 0,0.45512 0.04138,0.744743 0.02069,0.144811 -0.04138,0.248247 -0.06206,0.08275 -0.165498,0.08275 -0.04137,0 -0.144811,-0.04137 -0.103437,-0.04138 -0.06206,-0.351684 0.04137,-0.31031 0.04137,-0.393059 v -2.751411 l -0.04137,-5.585571 v -3.785776 q 0,-0.08275 -0.02069,-0.45512 -0.02069,-0.372372 0.04138,-0.53787 0.06206,-0.186186 0.22756,-0.22756 z m 0.186186,0.351684 q -0.103436,0.02069 -0.103436,1.034365 l 0.02069,3.227218 0.02069,1.861857 q 0.393059,0.04138 0.806805,-0.04137 0.434433,-0.103437 0.724055,-0.268935 0.372372,-0.206873 0.641307,-0.661994 0.268934,-0.475808 0.372371,-1.344674 0.103436,-0.889554 -0.165498,-1.903232 -0.186186,-0.661993 -0.599932,-1.158489 -0.393059,-0.496495 -0.868867,-0.641306 -0.45512,-0.165498 -0.848179,-0.103436 z" />
      <path
         id="path2338"
         style="font-style:normal;font-variant:normal;font-weight:normal;font-stretch:normal;font-family:LiebeErikaW03-Regular;-inkscape-font-specification:LiebeErikaW03-Regular;letter-spacing:0.071104px;stroke-width:0.517185"
         d="m 89.162884,76.073787 q 0.206873,0 0.186186,0.22756 -0.02069,0.22756 -0.02069,0.268935 v 2.916909 l -0.02069,7.426741 -0.02069,2.689349 q 0,0.310309 -0.02069,0.45512 -0.02069,0.144811 -0.124124,0.165499 -0.206873,0 -0.206873,-0.496496 0.04138,-1.323987 0.04138,-7.095743 l 0.02069,-2.585913 v -3.475466 q 0,-0.351684 0.04137,-0.413746 0.06206,-0.08275 0.124124,-0.08275 z" />
      <path
         id="path2340"
         style="font-style:normal;font-variant:normal;font-weight:normal;font-stretch:normal;font-family:LiebeErikaW03-Regular;-inkscape-font-specification:LiebeErikaW03-Regular;letter-spacing:0.071104px;stroke-width:0.517185"
         d="m 91.656341,76.073787 q 0.103437,0 0.165499,0.165498 0.06206,0.144811 0.06206,0.558557 0,0.413746 0,0.496495 v 3.889213 q -0.02069,0.910241 -0.02069,2.565225 0.02069,1.634296 0.02069,2.420414 -0.04138,2.130792 0.02069,3.682339 l 1.344674,0.04138 q 0.08275,0 0.475808,-0.04138 0.393059,-0.04137 0.558557,0 0.186186,0.02069 0.206873,0.103437 0.02069,0.08275 -0.04137,0.165498 -0.04138,0.06206 -0.496495,0.06206 l -1.551548,0.02069 q -0.04138,0 -0.268935,0 -0.22756,0.02069 -0.330997,0 -0.103436,0 -0.144811,-0.02069 -0.124123,-0.08275 -0.124123,-0.786117 -0.02069,-1.117115 -0.02069,-3.227219 0.02069,-2.130792 0.02069,-3.020346 l 0.02069,-5.295949 q 0,-0.372371 -0.04138,-0.972303 -0.02069,-0.620619 0,-0.703368 0.04138,-0.103436 0.144811,-0.103436 z" />
      <path
         id="path2342"
         style="font-style:normal;font-variant:normal;font-weight:normal;font-stretch:normal;font-family:LiebeErikaW03-Regular;-inkscape-font-specification:LiebeErikaW03-Regular;letter-spacing:0.071104px;stroke-width:0.517185"
         d="m 101.4078,79.56994 q -0.14481,0.579245 -0.35168,1.282613 -0.20688,0.703368 -1.01368,3.144469 l -1.07574,3.061721 -1.034365,2.792785 q 0.248248,0 0.744743,0.02069 0.496495,0.02069 1.055052,0 0.31031,0 0.82749,0 0.53787,-0.02069 0.82749,-0.04137 0.10344,0 0.20688,0.06206 0.12412,0.06206 0.10343,0.165498 -0.0207,0.103437 -0.24824,0.124124 -0.14481,0.02069 -0.45512,0.04138 -0.31031,0.02069 -1.965298,-0.02069 h -1.3033 q -0.165498,-0.02069 -0.22756,-0.124123 -0.06206,-0.103437 0.08275,-0.455121 0.144811,-0.351684 0.186186,-0.434433 l 0.827492,-2.192854 q 0.99299,-2.792786 1.59292,-4.654643 0.59993,-1.861857 0.88955,-3.144469 0.31031,-1.386049 0.0207,-2.089417 -0.28962,-0.703369 -0.88955,-0.703369 -0.475809,0 -0.889555,0.475808 -0.413746,0.475808 -0.537869,1.158489 -0.06206,0.351684 -0.06206,0.786117 0,0.434434 -0.04138,0.496496 -0.04137,0.04137 -0.08275,0.04137 -0.144811,0.04138 -0.22756,-0.02069 -0.08275,-0.08275 -0.08275,-0.31031 -0.02069,-0.620619 0.144812,-1.261925 0.165498,-0.661993 0.496495,-1.096427 0.248247,-0.310309 0.599931,-0.475808 0.372372,-0.186185 0.703376,-0.186185 0.51718,0 0.88955,0.310309 0.37237,0.289622 0.49649,1.096427 0.12413,0.786117 -0.20687,2.151479 z" />
      <path
         id="path2344"
         style="font-style:normal;font-variant:normal;font-weight:normal;font-stretch:normal;font-family:LiebeErikaW03-Regular;-inkscape-font-specification:LiebeErikaW03-Regular;letter-spacing:0.071104px;stroke-width:0.517185"
         d="m 106.21339,76.032412 q 0.43443,0 0.51718,0.04138 0.0828,0.02069 0.10344,0.08275 0.0207,0.103436 -0.1655,0.599931 -0.62062,2.006669 -0.95162,3.330656 -0.62062,2.627287 -1.03436,4.840828 -0.331,1.944606 -0.62062,4.427082 0,0.04137 -0.0207,0.289622 -0.0207,0.227561 -0.10344,0.413746 -0.0621,0.186186 -0.16549,0.206873 -0.0414,0 -0.10344,-0.04137 -0.0414,-0.04138 -0.0621,-0.144811 -0.0207,-0.103437 0,-0.248248 0.0207,-0.144811 0.0414,-0.289622 0.0207,-0.165499 0.0207,-0.186186 l 0.14481,-1.510173 q 0.331,-2.399727 0.84818,-4.964952 0.64131,-3.185844 1.71705,-6.475125 l -2.73073,0.02069 q -0.49649,0 -0.62062,-0.04138 -0.12412,-0.04138 -0.10343,-0.186186 0.0207,-0.144811 0.51718,-0.144811 h 1.44811 z" />
      <path
         id="path2346"
         style="font-style:normal;font-variant:normal;font-weight:normal;font-stretch:normal;font-family:LiebeErikaW03-Regular;-inkscape-font-specification:LiebeErikaW03-Regular;letter-spacing:0.071104px;stroke-width:0.517185"
         d="m 111.03255,76.073787 q 0.28962,-0.02069 0.43443,0 0.1655,0 0.18619,0.124123 0,0.06206 -0.0414,0.124124 -0.0207,0.04138 -0.14481,0.08275 -0.10343,0.02069 -0.26893,0.04138 -0.14481,0 -0.31031,0 -0.1655,-0.02069 -0.18619,-0.02069 h -1.03436 l 0.0207,7.468115 v 5.689007 q 0,0.02069 0,0.206873 0.0207,0.165499 -0.0207,0.31031 -0.0207,0.124124 -0.12413,0.124124 -0.0827,0 -0.14481,-0.08275 -0.0621,-0.08275 -0.0621,-0.537869 -0.0207,-0.455121 -0.0207,-1.323988 0.0207,-0.889553 0.0207,-1.241238 l -0.0414,-10.612584 q -0.12413,-0.02069 -0.84818,-0.02069 -0.10344,0 -0.47581,0.02069 -0.35169,0 -0.47581,-0.02069 -0.12412,-0.04137 -0.14481,-0.103436 0,-0.04138 0.0207,-0.124124 0.0414,-0.103436 0.16549,-0.103436 l 1.15849,0.02069 z" />
      <path
         id="path2348"
         style="font-style:normal;font-variant:normal;font-weight:normal;font-stretch:normal;font-family:LiebeErikaW03-Regular;-inkscape-font-specification:LiebeErikaW03-Regular;letter-spacing:0.071104px;stroke-width:0.517185"
         d="m 116.51855,76.032412 q 0.0827,0 0.12413,0.186186 0.0621,0.165498 0.0414,0.682681 0,0.517182 0,0.537869 l -0.0414,5.668321 0.0207,6.66131 q 0.0621,0.413746 -0.14481,0.413746 -0.10343,0 -0.1655,-0.103436 -0.0414,-0.103437 -0.0414,-0.455121 0,-0.351684 0,-0.455121 l -0.0414,-4.05471 v -2.689349 q -0.331,-0.02069 -3.02035,-0.08275 v 1.985981 l -0.0414,5.089076 q 0,0.02069 0,0.06206 0,0.04137 0,0.413746 0,0.351684 -0.18619,0.351684 -0.18619,-0.02069 -0.18619,-0.620619 l 0.0414,-5.275262 0.0207,-3.041033 -0.0207,-4.240896 q 0,-0.06206 0,-0.413746 0,-0.351684 0.0414,-0.475808 0.0414,-0.144811 0.12413,-0.144811 0.12412,0 0.14481,0.103437 0.0414,0.103436 0.0414,0.599931 l 0.0207,2.316978 v 2.937596 l 3.02035,0.06206 0.0414,-5.047701 q 0,-0.661994 0.0207,-0.76543 0.0207,-0.103436 0.0621,-0.144811 0.0621,-0.06206 0.12412,-0.06206 z" />
      <path
         id="path2350"
         style="font-style:normal;font-variant:normal;font-weight:normal;font-stretch:normal;font-family:LiebeErikaW03-Regular;-inkscape-font-specification:LiebeErikaW03-Regular;letter-spacing:0.071104px;stroke-width:0.517185"
         d="m 124.55167,79.56994 q -0.14481,0.579245 -0.35168,1.282613 -0.20687,0.703368 -1.01368,3.144469 l -1.07574,3.061721 -1.03436,2.792785 q 0.24824,0 0.74474,0.02069 0.49649,0.02069 1.05505,0 0.31031,0 0.82749,0 0.53787,-0.02069 0.8275,-0.04137 0.10343,0 0.20687,0.06206 0.12412,0.06206 0.10344,0.165498 -0.0207,0.103437 -0.24825,0.124124 -0.14481,0.02069 -0.45512,0.04138 -0.31031,0.02069 -1.9653,-0.02069 h -1.3033 q -0.16549,-0.02069 -0.22756,-0.124123 -0.0621,-0.103437 0.0828,-0.455121 0.14481,-0.351684 0.18619,-0.434433 l 0.82749,-2.192854 q 0.99299,-2.792786 1.59292,-4.654643 0.59993,-1.861857 0.88956,-3.144469 0.31031,-1.386049 0.0207,-2.089417 -0.28962,-0.703369 -0.88955,-0.703369 -0.47581,0 -0.88955,0.475808 -0.41375,0.475808 -0.53787,1.158489 -0.0621,0.351684 -0.0621,0.786117 0,0.434434 -0.0414,0.496496 -0.0414,0.04137 -0.0827,0.04137 -0.14481,0.04138 -0.22756,-0.02069 -0.0827,-0.08275 -0.0827,-0.31031 -0.0207,-0.620619 0.14481,-1.261925 0.1655,-0.661993 0.4965,-1.096427 0.24824,-0.310309 0.59993,-0.475808 0.37237,-0.186185 0.70337,-0.186185 0.51718,0 0.88955,0.310309 0.37237,0.289622 0.4965,1.096427 0.12412,0.786117 -0.20688,2.151479 z" />
      <path
         id="path2352"
         style="font-style:normal;font-variant:normal;font-weight:normal;font-stretch:normal;font-family:LiebeErikaW03-Regular;-inkscape-font-specification:LiebeErikaW03-Regular;letter-spacing:0.071104px;stroke-width:0.517185"
         d="m 128.65389,75.97035 q 0.24825,0 0.53787,0.206873 0.28962,0.206873 0.51718,0.682681 0.24825,0.455121 0.35169,0.99299 0.39306,1.737734 0.43443,3.951275 0.0207,1.654984 0,2.689349 0,1.034365 -0.10344,2.06873 -0.22756,2.151479 -0.66199,2.958283 -0.43443,0.786118 -1.09643,0.786118 -0.74474,0 -1.22055,-0.724056 -0.4758,-0.744742 -0.70337,-2.544538 -0.12412,-0.868866 -0.12412,-2.916909 0,-2.048042 0.12412,-3.247906 0.28963,-2.689349 0.74475,-3.785776 0.47581,-1.117114 1.19986,-1.117114 z m -0.0827,0.413746 q -0.49649,0.06206 -0.86886,1.199863 -0.35169,1.137802 -0.55856,3.041034 -0.12413,1.22055 -0.1655,2.710036 -0.0207,1.489485 0.0621,2.730723 0.18619,2.110105 0.53787,2.958284 0.37237,0.84818 1.03437,0.84818 0.39306,0 0.68268,-0.455121 0.28962,-0.455121 0.41374,-1.013678 0.12413,-0.558557 0.18619,-0.972303 0.18618,-1.344674 0.20687,-3.640965 0.0414,-2.29629 -0.12412,-4.096085 -0.12413,-1.323987 -0.4965,-2.358352 -0.35168,-1.034365 -0.91024,-0.951616 z" />
      <path
         id="path2354"
         style="font-style:normal;font-variant:normal;font-weight:normal;font-stretch:normal;font-family:LiebeErikaW03-Regular;-inkscape-font-specification:LiebeErikaW03-Regular;letter-spacing:0.071104px;stroke-width:0.517185"
         d="m 135.96685,79.56994 q -0.14481,0.579245 -0.35168,1.282613 -0.20688,0.703368 -1.01368,3.144469 l -1.07574,3.061721 -1.03437,2.792785 q 0.24825,0 0.74475,0.02069 0.49649,0.02069 1.05505,0 0.31031,0 0.82749,0 0.53787,-0.02069 0.82749,-0.04137 0.10344,0 0.20688,0.06206 0.12412,0.06206 0.10343,0.165498 -0.0207,0.103437 -0.24825,0.124124 -0.14481,0.02069 -0.45512,0.04138 -0.31031,0.02069 -1.96529,-0.02069 h -1.3033 q -0.1655,-0.02069 -0.22756,-0.124123 -0.0621,-0.103437 0.0828,-0.455121 0.14481,-0.351684 0.18618,-0.434433 l 0.8275,-2.192854 q 0.99299,-2.792786 1.59292,-4.654643 0.59993,-1.861857 0.88955,-3.144469 0.31031,-1.386049 0.0207,-2.089417 -0.28962,-0.703369 -0.88955,-0.703369 -0.47581,0 -0.88956,0.475808 -0.41374,0.475808 -0.53787,1.158489 -0.0621,0.351684 -0.0621,0.786117 0,0.434434 -0.0414,0.496496 -0.0414,0.04137 -0.0828,0.04137 -0.14481,0.04138 -0.22756,-0.02069 -0.0827,-0.08275 -0.0827,-0.31031 -0.0207,-0.620619 0.14481,-1.261925 0.1655,-0.661993 0.49649,-1.096427 0.24825,-0.310309 0.59994,-0.475808 0.37237,-0.186185 0.70336,-0.186185 0.51719,0 0.88956,0.310309 0.37237,0.289622 0.49649,1.096427 0.12413,0.786117 -0.20687,2.151479 z" />
      <path
         id="path2356"
         style="font-style:normal;font-variant:normal;font-weight:normal;font-stretch:normal;font-family:LiebeErikaW03-Regular;-inkscape-font-specification:LiebeErikaW03-Regular;letter-spacing:0.071104px;stroke-width:0.517185"
         d="m 140.25525,76.032412 q 0.0414,0.04138 0.0621,0.186186 0.0207,0.144811 0,0.496495 0,0.330997 0,0.393059 l -0.0207,2.316977 -0.0414,4.220209 v 1.282613 q 0,0.04137 0,0.22756 0,0.165499 -0.0414,2.234229 -0.0207,2.06873 0,2.461788 h 1.22055 q 0.0414,0 0.26893,0 0.22756,-0.02069 0.39306,0.02069 0.1655,0.02069 0.1655,0.165498 0,0.08275 -0.12412,0.144811 -0.12413,0.04138 -0.41375,0.02069 -0.28962,0 -0.35168,0 -0.4965,0.02069 -1.67567,0 -1.15849,0 -1.53086,0 -0.22756,0 -0.31031,-0.02069 -0.0827,0 -0.10344,-0.08275 -0.0207,-0.103437 0.0621,-0.165499 0.10344,-0.08275 0.39306,-0.08275 0.28962,0 0.331,0 h 1.28261 q 0.0414,-6.537186 0.12412,-12.598565 -0.39306,0.910241 -0.62062,1.282612 -0.16549,0.330997 -0.51718,0.806805 -0.35168,0.475808 -0.66199,0.806805 -0.22756,0.248247 -0.37237,0.289622 -0.12413,0.04137 -0.1655,-0.124124 -0.0207,-0.103436 0.14481,-0.310309 0.10344,-0.124124 0.37237,-0.475808 0.28962,-0.351684 0.4965,-0.641307 0.20687,-0.310309 0.39306,-0.620619 0.18618,-0.310309 0.4758,-0.951615 0.28963,-0.661994 0.41375,-1.034365 0.12412,-0.434434 0.35168,-0.248248 z" />
      <path
         id="path2358"
         style="font-style:normal;font-variant:normal;font-weight:normal;font-stretch:normal;font-family:LiebeErikaW03-Regular;-inkscape-font-specification:LiebeErikaW03-Regular;letter-spacing:0.071104px;stroke-width:0.517185"
         d="m 144.07496,89.334346 q 0.37237,0.144811 0.41374,0.76543 0.0414,0.599932 -0.20687,1.282612 -0.24825,0.703369 -0.68268,1.261926 -0.0828,0.124123 -0.24825,0.186185 -0.14481,0.08275 -0.18618,0.02069 -0.0207,-0.06206 -0.0207,-0.103437 0,-0.04137 0.26893,-0.434433 0.28963,-0.393059 0.39306,-0.620619 0.331,-0.786117 0.26894,-1.344675 -0.22756,0 -0.41375,-0.144811 -0.1655,-0.124123 -0.18618,-0.372371 -0.0207,-0.22756 0.16549,-0.393059 0.18619,-0.186185 0.43444,-0.103436 z" />
      <path
         id="path2360"
         style="font-style:normal;font-variant:normal;font-weight:normal;font-stretch:normal;font-family:LiebeErikaW03-Regular;-inkscape-font-specification:LiebeErikaW03-Regular;letter-spacing:0.071104px;stroke-width:0.517185"
         d="m 151.43089,76.073787 q 0.28963,-0.02069 0.43444,0 0.1655,0 0.18618,0.124123 0,0.06206 -0.0414,0.124124 -0.0207,0.04138 -0.14481,0.08275 -0.10344,0.02069 -0.26894,0.04138 -0.14481,0 -0.31031,0 -0.16549,-0.02069 -0.18618,-0.02069 h -1.03437 l 0.0207,7.468115 v 5.689007 q 0,0.02069 0,0.206873 0.0207,0.165499 -0.0207,0.31031 -0.0207,0.124124 -0.12412,0.124124 -0.0828,0 -0.14481,-0.08275 -0.0621,-0.08275 -0.0621,-0.537869 -0.0207,-0.455121 -0.0207,-1.323988 0.0207,-0.889553 0.0207,-1.241238 l -0.0414,-10.612584 q -0.12412,-0.02069 -0.84818,-0.02069 -0.10343,0 -0.47581,0.02069 -0.35168,0 -0.4758,-0.02069 -0.12413,-0.04137 -0.14481,-0.103436 0,-0.04138 0.0207,-0.124124 0.0414,-0.103436 0.1655,-0.103436 l 1.15849,0.02069 z" />
      <path
         id="path2362"
         style="font-style:normal;font-variant:normal;font-weight:normal;font-stretch:normal;font-family:LiebeErikaW03-Regular;-inkscape-font-specification:LiebeErikaW03-Regular;letter-spacing:0.071104px;stroke-width:0.517185"
         d="m 156.9169,76.032412 q 0.0828,0 0.12412,0.186186 0.0621,0.165498 0.0414,0.682681 0,0.517182 0,0.537869 l -0.0414,5.668321 0.0207,6.66131 q 0.0621,0.413746 -0.14481,0.413746 -0.10344,0 -0.1655,-0.103436 -0.0414,-0.103437 -0.0414,-0.455121 0,-0.351684 0,-0.455121 l -0.0414,-4.05471 v -2.689349 q -0.331,-0.02069 -3.02034,-0.08275 v 1.985981 l -0.0414,5.089076 q 0,0.02069 0,0.06206 0,0.04137 0,0.413746 0,0.351684 -0.18618,0.351684 -0.18619,-0.02069 -0.18619,-0.620619 l 0.0414,-5.275262 0.0207,-3.041033 -0.0207,-4.240896 q 0,-0.06206 0,-0.413746 0,-0.351684 0.0414,-0.475808 0.0414,-0.144811 0.12412,-0.144811 0.12413,0 0.14481,0.103437 0.0414,0.103436 0.0414,0.599931 l 0.0207,2.316978 v 2.937596 l 3.02034,0.06206 0.0414,-5.047701 q 0,-0.661994 0.0207,-0.76543 0.0207,-0.103436 0.0621,-0.144811 0.0621,-0.06206 0.12412,-0.06206 z" />
      <path
         id="path2364"
         style="font-style:normal;font-variant:normal;font-weight:normal;font-stretch:normal;font-family:LiebeErikaW03-Regular;-inkscape-font-specification:LiebeErikaW03-Regular;letter-spacing:0.071104px;stroke-width:0.517185"
         d="m 159.4333,76.073787 q 0.20688,0 0.18619,0.22756 -0.0207,0.22756 -0.0207,0.268935 v 2.916909 l -0.0207,7.426741 -0.0207,2.689349 q 0,0.310309 -0.0207,0.45512 -0.0207,0.144811 -0.12412,0.165499 -0.20688,0 -0.20688,-0.496496 0.0414,-1.323987 0.0414,-7.095743 l 0.0207,-2.585913 v -3.475466 q 0,-0.351684 0.0414,-0.413746 0.0621,-0.08275 0.12412,-0.08275 z" />
      <path
         id="path2366"
         style="font-style:normal;font-variant:normal;font-weight:normal;font-stretch:normal;font-family:LiebeErikaW03-Regular;-inkscape-font-specification:LiebeErikaW03-Regular;letter-spacing:0.071104px;stroke-width:0.517185"
         d="m 163.66449,75.991037 q 0.331,0.06206 0.66199,0.372372 0.331,0.289622 0.4965,0.868866 0.18619,0.558557 0.14481,1.199864 0,0.06206 -0.0207,0.248247 0,0.165499 -0.0207,0.248248 -0.0207,0.06206 -0.0621,0.103436 -0.0621,0.06206 -0.18618,0.06206 -0.10344,-0.02069 -0.12413,-0.103436 -0.0414,-0.103437 0.0207,-0.455121 0.0621,-0.682681 -0.10343,-1.241238 -0.1655,-0.579244 -0.53787,-0.806804 -0.28963,-0.186186 -0.662,-0.186186 -0.24825,0 -0.49649,0.124124 -0.4965,0.289622 -0.64131,0.848179 -0.12412,0.558557 -0.0621,1.055052 0.0828,0.496495 0.18618,0.84818 0.0621,0.22756 0.18619,0.620619 0.14481,0.372371 1.09643,2.730723 0.0414,0.08275 0.0828,0.186186 0.0414,0.103436 0.51718,1.323987 0.49649,1.220551 0.78612,2.234228 0.28962,0.992991 0.31031,1.696359 0.0207,0.558557 -0.12413,1.034365 -0.12412,0.475808 -0.41374,0.76543 -0.26894,0.268935 -0.53787,0.413746 -0.37238,0.186186 -0.80681,0.186186 -0.41374,0 -0.82749,-0.186186 -0.41375,-0.186186 -0.66199,-0.455121 -0.84818,-1.055052 -0.43444,-2.83416 0,-0.02069 0.0207,-0.165498 0.0414,-0.165498 0.0828,-0.268935 0.0621,-0.103436 0.1655,-0.103436 0.12412,0.02069 0.14481,0.165498 0.0207,0.144811 -0.0207,0.289622 -0.14481,0.434433 -0.1655,1.07574 0,0.641306 0.1655,1.013677 0.20687,0.558558 0.68268,0.868867 0.47581,0.289622 1.1378,0.206873 0.45512,-0.06206 0.74475,-0.393059 0.31031,-0.351684 0.43443,-0.910241 0.12412,-0.579244 0,-1.282612 -0.22756,-1.344675 -1.61361,-4.696017 l -0.86887,-2.192854 q -0.31031,-0.827492 -0.49649,-1.448111 -0.1655,-0.641307 -0.12413,-1.386049 0.0207,-0.393059 0.20688,-0.806805 0.20687,-0.413746 0.45512,-0.599932 0.41374,-0.310309 0.95161,-0.310309 z" />
      <path
         id="path2368"
         style="font-style:normal;font-variant:normal;font-weight:normal;font-stretch:normal;font-family:LiebeErikaW03-Regular;-inkscape-font-specification:LiebeErikaW03-Regular;letter-spacing:0.071104px;stroke-width:0.517185"
         d="m 44.570527,95.120759 q 0.330997,0.06206 0.661994,0.372372 0.330997,0.289622 0.496495,0.868866 0.186186,0.558557 0.144811,1.199864 0,0.06206 -0.02069,0.248247 0,0.165499 -0.02069,0.248248 -0.02069,0.06206 -0.06206,0.103436 -0.06206,0.06206 -0.186186,0.06206 -0.103437,-0.02069 -0.124124,-0.103436 -0.04138,-0.103437 0.02069,-0.455121 0.06206,-0.682681 -0.103436,-1.241238 -0.165499,-0.579244 -0.53787,-0.806804 -0.289622,-0.186186 -0.661994,-0.186186 -0.248247,0 -0.496495,0.124124 -0.496495,0.289622 -0.641306,0.848179 -0.124124,0.558557 -0.06206,1.055052 0.08275,0.496495 0.186186,0.84818 0.06206,0.22756 0.186185,0.620619 0.144812,0.372371 1.096427,2.730729 0.04138,0.0828 0.08275,0.18618 0.04137,0.10344 0.517182,1.32399 0.496495,1.22055 0.786117,2.23423 0.289623,0.99299 0.31031,1.69636 0.02069,0.55855 -0.124124,1.03436 -0.124124,0.47581 -0.413746,0.76543 -0.268935,0.26894 -0.53787,0.41375 -0.372371,0.18618 -0.806804,0.18618 -0.413746,0 -0.827492,-0.18618 -0.413746,-0.18619 -0.661994,-0.45512 -0.848179,-1.05506 -0.434433,-2.83416 0,-0.0207 0.02069,-0.1655 0.04138,-0.1655 0.08275,-0.26894 0.06206,-0.10343 0.165499,-0.10343 0.124123,0.0207 0.144811,0.16549 0.02069,0.14482 -0.02069,0.28963 -0.144811,0.43443 -0.165498,1.07574 0,0.6413 0.165498,1.01367 0.206873,0.55856 0.682681,0.86887 0.475808,0.28962 1.137802,0.20687 0.45512,-0.0621 0.744743,-0.39305 0.310309,-0.35169 0.434433,-0.91025 0.124124,-0.57924 0,-1.28261 -0.22756,-1.34467 -1.613609,-4.69602 l -0.86887,-2.192849 q -0.31031,-0.827492 -0.496495,-1.448111 -0.165499,-0.641307 -0.124124,-1.386049 0.02069,-0.393059 0.206873,-0.806805 0.206873,-0.413746 0.455121,-0.599932 0.413746,-0.310309 0.951615,-0.310309 z" />
      <path
         id="path2370"
         style="font-style:normal;font-variant:normal;font-weight:normal;font-stretch:normal;font-family:LiebeErikaW03-Regular;-inkscape-font-specification:LiebeErikaW03-Regular;letter-spacing:0.071104px;stroke-width:0.517185"
         d="m 51.450662,95.162134 q 0.08275,0 0.124124,0.186186 0.06206,0.165498 0.04137,0.682681 0,0.517182 0,0.537869 l -0.04137,5.66832 0.02069,6.66131 q 0.06206,0.41375 -0.144811,0.41375 -0.103437,0 -0.165499,-0.10344 -0.04137,-0.10344 -0.04137,-0.45512 0,-0.35168 0,-0.45512 l -0.04138,-4.05471 v -2.68935 q -0.330997,-0.0207 -3.020346,-0.0827 v 1.98598 l -0.04137,5.08908 q 0,0.0207 0,0.0621 0,0.0414 0,0.41374 0,0.35169 -0.186186,0.35169 -0.186186,-0.0207 -0.186186,-0.62062 l 0.04138,-5.27526 0.02069,-3.04103 -0.02069,-4.240901 q 0,-0.06206 0,-0.413746 0,-0.351684 0.04138,-0.475808 0.04137,-0.144811 0.124123,-0.144811 0.124124,0 0.144811,0.103436 0.04138,0.103437 0.04138,0.599932 l 0.02069,2.316978 v 2.9376 l 3.020346,0.0621 0.04138,-5.047703 q 0,-0.661994 0.02069,-0.76543 0.02069,-0.103437 0.06206,-0.144811 0.06206,-0.06206 0.124124,-0.06206 z" />
      <path
         id="path2372"
         style="font-style:normal;font-variant:normal;font-weight:normal;font-stretch:normal;font-family:LiebeErikaW03-Regular;-inkscape-font-specification:LiebeErikaW03-Regular;letter-spacing:0.071104px;stroke-width:0.517185"
         d="m 55.973737,95.079385 q 0.641307,-0.06206 1.034365,0.310309 0.413746,0.372372 0.661994,1.07574 0.351684,1.013678 0.475808,2.83416 0.144811,1.820486 0.103436,3.516836 0,1.13781 -0.165498,2.83416 -0.186186,1.90324 -0.76543,2.85485 -0.558557,0.95162 -1.468799,0.95162 -0.434433,0 -0.848179,-0.26894 -0.413746,-0.28962 -0.744743,-0.93093 -0.330996,-0.6413 -0.45512,-1.40673 -0.165499,-0.78612 -0.268935,-2.25492 -0.08275,-1.48948 0,-3.28928 0.186186,-3.020344 0.724055,-4.509829 0.268935,-0.724056 0.724056,-1.199864 0.475808,-0.475808 0.99299,-0.517182 z m 0.08275,0.372371 q -1.055052,0.165499 -1.468798,1.468798 -0.144811,0.434434 -0.330997,1.199864 -0.186185,0.76543 -0.330996,2.565222 -0.144811,1.7998 -0.06206,3.72372 0.103436,1.92392 0.45512,3.04103 0.186186,0.55856 0.434434,0.9723 0.268934,0.39306 0.558557,0.55856 0.310309,0.14481 0.558557,0.14481 0.413746,0 0.786117,-0.331 0.393059,-0.33099 0.661994,-1.15848 0.289622,-0.84818 0.413746,-1.90324 0.186185,-1.75842 0.186185,-3.02034 0,-1.92392 -0.144811,-3.661654 -0.124123,-1.75842 -0.413746,-2.461788 -0.206873,-0.599932 -0.517182,-0.868867 -0.31031,-0.268935 -0.786118,-0.268935 z" />
      <path
         id="path2374"
         style="font-style:normal;font-variant:normal;font-weight:normal;font-stretch:normal;font-family:LiebeErikaW03-Regular;-inkscape-font-specification:LiebeErikaW03-Regular;letter-spacing:0.071104px;stroke-width:0.517185"
         d="m 66.671648,95.182821 q 0.04137,0.08275 0.06206,0.206873 0.02069,0.103437 -0.02069,0.330997 -0.02069,0.22756 -0.02069,0.289622 l -0.724056,10.343647 -0.206873,2.33767 q -0.103436,0.59993 -0.206873,0.66199 -0.08275,0.0414 -0.206873,-0.0207 -0.103436,-0.0414 -0.165498,-0.43443 -0.434433,-1.98598 -0.910241,-5.06839 l -0.475808,-2.95828 -0.475808,-2.916911 -0.455121,2.461791 q -0.06206,0.35168 -0.372371,2.15148 -0.310309,1.77911 -0.599932,3.37203 -0.475807,2.58591 -0.599931,2.97897 -0.103437,0.41374 -0.227561,0.43443 -0.351684,0.12413 -0.434433,-1.24124 l -0.206873,-3.26859 -0.22756,-3.30997 q 0,-0.0414 -0.02069,-0.1655 0,-0.14481 -0.08275,-1.386045 -0.06206,-1.241238 -0.124123,-1.717046 L 59.76209,95.824128 q -0.06206,-0.475808 -0.02069,-0.53787 0.06206,-0.08275 0.165499,-0.08275 0.06206,0 0.103436,0.103436 0.06206,0.08275 0.06206,0.31031 0.02069,0.206873 0.02069,0.248247 l 0.227561,2.503163 q 0.06206,0.599932 0.144811,1.841176 0.08275,1.24123 0.103436,1.36536 0,0.10343 0.02069,0.41374 0.02069,0.28963 0.186185,2.95829 0.165499,2.66866 0.268935,3.5789 0.04138,-0.1655 0.144811,-0.70337 0.124124,-0.53787 0.351684,-1.88254 0.248248,-1.34468 0.268935,-1.40674 0.124124,-0.78612 0.827492,-4.861516 L 63.05137,97.41705 q 0,-0.02069 0.02069,-0.227561 0.04138,-0.22756 0.165499,-0.248247 0.04137,0 0.103436,0.02069 0.08275,0.02069 0.103437,0.08275 0.02069,0.04138 0.103436,0.475808 0.248248,1.158489 0.475808,2.6066 l 0.455121,2.83416 q 0.165498,1.03436 0.53787,3.12378 0.372371,2.08942 0.434433,2.50316 l 0.165498,-2.37904 q 0.08275,-0.93093 0.124124,-1.9446 0.06206,-1.03437 0.124124,-1.65499 l 0.455121,-6.288933 q 0.04137,-0.827492 0.06206,-0.951616 0.04138,-0.124124 0.103437,-0.165498 0.02069,-0.02069 0.08275,-0.02069 0.06206,-0.02069 0.103437,0 z" />
      <path
         id="path2376"
         style="font-style:normal;font-variant:normal;font-weight:normal;font-stretch:normal;font-family:LiebeErikaW03-Regular;-inkscape-font-specification:LiebeErikaW03-Regular;letter-spacing:0.071104px;stroke-width:0.517185"
         d="m 74.644646,95.162134 q 0.08275,0 0.124124,0.186186 0.06206,0.165498 0.04138,0.682681 0,0.517182 0,0.537869 l -0.04138,5.66832 0.02069,6.66131 q 0.06206,0.41375 -0.144811,0.41375 -0.103436,0 -0.165498,-0.10344 -0.04137,-0.10344 -0.04137,-0.45512 0,-0.35168 0,-0.45512 l -0.04137,-4.05471 v -2.68935 q -0.330997,-0.0207 -3.020346,-0.0827 v 1.98598 l -0.04138,5.08908 q 0,0.0207 0,0.0621 0,0.0414 0,0.41374 0,0.35169 -0.186185,0.35169 -0.186186,-0.0207 -0.186186,-0.62062 l 0.04137,-5.27526 0.02069,-3.04103 -0.02069,-4.240901 q 0,-0.06206 0,-0.413746 0,-0.351684 0.04138,-0.475808 0.04138,-0.144811 0.124124,-0.144811 0.124124,0 0.144811,0.103436 0.04138,0.103437 0.04138,0.599932 l 0.02069,2.316978 v 2.9376 l 3.020346,0.0621 0.04137,-5.047703 q 0,-0.661994 0.02069,-0.76543 0.02069,-0.103437 0.06206,-0.144811 0.06206,-0.06206 0.124124,-0.06206 z" />
      <path
         id="path2378"
         style="font-style:normal;font-variant:normal;font-weight:normal;font-stretch:normal;font-family:LiebeErikaW03-Regular;-inkscape-font-specification:LiebeErikaW03-Regular;letter-spacing:0.071104px;stroke-width:0.517185"
         d="m 81.195077,108.83644 q 0,0.0207 0.02069,0.14481 0.02069,0.10344 0,0.20687 0,0.10344 -0.103437,0.12413 -0.08275,0.0207 -0.165498,-0.0414 -0.08275,-0.0828 -0.165498,-0.62062 l -0.930929,-5.13045 q -0.248247,0.0414 -0.848179,0.0827 -0.579244,0.0414 -1.489486,-0.0207 -0.08275,0.43444 -0.268935,1.4688 -0.186185,1.01368 -0.248247,1.42743 -0.186186,1.32398 -0.413746,2.33766 -0.08275,0.41375 -0.144811,0.47581 -0.04138,0.0621 -0.124124,0.0621 -0.06206,0 -0.103437,-0.0414 -0.04137,-0.0207 -0.06206,-0.10344 -0.02069,-0.0828 0,-0.20687 0.02069,-0.12413 0.06206,-0.24825 0.04138,-0.12412 0.04138,-0.14481 l 0.848179,-4.75808 0.53787,-3.55822 q 0.455121,-2.689345 0.558557,-3.247902 0.103437,-0.579244 0.206873,-1.117114 0.103437,-0.517182 0.165499,-0.661994 0.06206,-0.144811 0.165498,-0.144811 0.08275,0 0.144811,0.08275 0.08275,0.06206 0.103437,0.310309 0.04137,0.22756 0.06206,0.268935 0.22756,1.096427 0.434433,2.585912 0.206873,1.468799 0.248247,1.799795 0.330997,2.39973 0.579245,3.93059 0.268935,1.73773 0.579244,3.30997 z m -3.640965,-5.62695 q 0.413746,0.0621 1.096427,0.0621 0.682681,-0.0207 1.158489,-0.10344 -0.06206,-0.45512 -0.455121,-3.12378 -0.372371,-2.689352 -0.599932,-3.951278 -0.268935,0.972304 -0.558557,2.896222 z" />
      <path
         id="path2380"
         style="font-style:normal;font-variant:normal;font-weight:normal;font-stretch:normal;font-family:LiebeErikaW03-Regular;-inkscape-font-specification:LiebeErikaW03-Regular;letter-spacing:0.071104px;stroke-width:0.517185"
         d="m 84.463014,95.120759 q 0.330996,0.06206 0.661993,0.372372 0.330997,0.289622 0.496495,0.868866 0.186186,0.558557 0.144812,1.199864 0,0.06206 -0.02069,0.248247 0,0.165499 -0.02069,0.248248 -0.02069,0.06206 -0.06206,0.103436 -0.06206,0.06206 -0.186186,0.06206 -0.103436,-0.02069 -0.124123,-0.103436 -0.04138,-0.103437 0.02069,-0.455121 0.06206,-0.682681 -0.103437,-1.241238 -0.165498,-0.579244 -0.537869,-0.806804 -0.289623,-0.186186 -0.661994,-0.186186 -0.248248,0 -0.496495,0.124124 -0.496495,0.289622 -0.641306,0.848179 -0.124124,0.558557 -0.06206,1.055052 0.08275,0.496495 0.186185,0.84818 0.06206,0.22756 0.186186,0.620619 0.144811,0.372371 1.096427,2.730729 0.04137,0.0828 0.08275,0.18618 0.04138,0.10344 0.517183,1.32399 0.496495,1.22055 0.786117,2.23423 0.289622,0.99299 0.310309,1.69636 0.02069,0.55855 -0.124123,1.03436 -0.124124,0.47581 -0.413746,0.76543 -0.268935,0.26894 -0.53787,0.41375 -0.372372,0.18618 -0.806805,0.18618 -0.413746,0 -0.827492,-0.18618 -0.413746,-0.18619 -0.661993,-0.45512 -0.84818,-1.05506 -0.434434,-2.83416 0,-0.0207 0.02069,-0.1655 0.04137,-0.1655 0.08275,-0.26894 0.06206,-0.10343 0.165498,-0.10343 0.124124,0.0207 0.144811,0.16549 0.02069,0.14482 -0.02069,0.28963 -0.144811,0.43443 -0.165498,1.07574 0,0.6413 0.165498,1.01367 0.206873,0.55856 0.682681,0.86887 0.475808,0.28962 1.137801,0.20687 0.455121,-0.0621 0.744743,-0.39305 0.31031,-0.35169 0.434433,-0.91025 0.124124,-0.57924 0,-1.28261 -0.22756,-1.34467 -1.613609,-4.69602 L 83.13903,99.630589 q -0.31031,-0.827492 -0.496496,-1.448111 -0.165498,-0.641307 -0.124123,-1.386049 0.02069,-0.393059 0.206873,-0.806805 0.206873,-0.413746 0.45512,-0.599932 0.413746,-0.310309 0.951616,-0.310309 z" />
      <path
         id="path2382"
         style="font-style:normal;font-variant:normal;font-weight:normal;font-stretch:normal;font-family:LiebeErikaW03-Regular;-inkscape-font-specification:LiebeErikaW03-Regular;letter-spacing:0.071104px;stroke-width:0.517185"
         d="m 94.33601,95.203509 q 0.04137,0 0.08275,0.04137 0.06206,0.04138 0.04138,0.351684 0,0.289622 0,0.351684 0.04137,0.992991 0,2.585913 -0.02069,1.59293 -0.02069,1.90324 0.06206,2.99965 0.02069,7.30261 l 0.02069,0.91024 q 0,0.0414 0,0.26894 0.02069,0.20687 -0.02069,0.35168 -0.02069,0.12413 -0.124124,0.14481 -0.04138,0 -0.124124,-0.0207 -0.08275,-0.0207 -0.144811,-0.1655 -0.06206,-0.14481 -0.144811,-0.47581 -0.02069,-0.10344 -0.53787,-1.84117 -0.496495,-1.73773 -0.703368,-2.50316 -0.268935,-0.97231 -0.951616,-3.72372 -0.248247,-1.013679 -0.641306,-2.503164 -0.372372,-1.489486 -0.558557,-2.06873 -0.02069,0.744743 0,1.717046 0.02069,0.951615 0.02069,1.344674 v 6.164824 l 0.02069,3.43409 q 0,0.0414 0,0.26893 0,0.20688 -0.06206,0.26894 -0.04137,0.0827 -0.124123,0.0621 -0.165499,-0.0207 -0.165499,-0.55856 l -0.02069,-6.04069 v -3.309972 -3.06172 q 0,-0.06206 -0.02069,-0.393059 0,-0.330997 0.02069,-0.53787 0.02069,-0.22756 0.124124,-0.268934 0.103436,-0.04138 0.206873,0.02069 0.124124,0.06206 0.289622,0.558557 0.496495,1.634297 0.661994,2.379039 1.634296,6.557879 1.799795,7.095749 0.04137,0.16549 0.393058,1.48948 0.372372,1.32399 0.455121,1.55155 l -0.04138,-6.70269 0.02069,-3.206528 q 0,-0.186186 -0.02069,-1.117114 0,-0.930929 0.02069,-1.427424 0,-0.661994 0.22756,-0.641306 z" />
      <path
         id="path2384"
         style="font-style:normal;font-variant:normal;font-weight:normal;font-stretch:normal;font-family:LiebeErikaW03-Regular;-inkscape-font-specification:LiebeErikaW03-Regular;letter-spacing:0.071104px;stroke-width:0.517185"
         d="m 98.886887,95.079385 q 0.641306,-0.06206 1.034365,0.310309 0.413748,0.372372 0.661998,1.07574 0.35168,1.013678 0.4758,2.83416 0.14481,1.820486 0.10344,3.516836 0,1.13781 -0.1655,2.83416 -0.18618,1.90324 -0.76543,2.85485 -0.558555,0.95162 -1.468797,0.95162 -0.434433,0 -0.848179,-0.26894 -0.413746,-0.28962 -0.744743,-0.93093 -0.330997,-0.6413 -0.45512,-1.40673 -0.165499,-0.78612 -0.268935,-2.25492 -0.08275,-1.48948 0,-3.28928 0.186185,-3.020344 0.724055,-4.509829 0.268935,-0.724056 0.724056,-1.199864 0.475808,-0.475808 0.99299,-0.517182 z m 0.08275,0.372371 q -1.055052,0.165499 -1.468798,1.468798 -0.144811,0.434434 -0.330997,1.199864 -0.186185,0.76543 -0.330997,2.565222 -0.144811,1.7998 -0.06206,3.72372 0.103436,1.92392 0.45512,3.04103 0.186186,0.55856 0.434433,0.9723 0.268935,0.39306 0.558558,0.55856 0.310309,0.14481 0.558557,0.14481 0.413746,0 0.786117,-0.331 0.393059,-0.33099 0.66199,-1.15848 0.28962,-0.84818 0.41375,-1.90324 0.18618,-1.75842 0.18618,-3.02034 0,-1.92392 -0.14481,-3.661654 -0.12412,-1.75842 -0.41374,-2.461788 -0.20688,-0.599932 -0.517184,-0.868867 -0.31031,-0.268935 -0.786119,-0.268935 z" />
      <path
         id="path2386"
         style="font-style:normal;font-variant:normal;font-weight:normal;font-stretch:normal;font-family:LiebeErikaW03-Regular;-inkscape-font-specification:LiebeErikaW03-Regular;letter-spacing:0.071104px;stroke-width:0.517185"
         d="m 108.31413,95.203509 q 0.28963,-0.02069 0.43444,0 0.1655,0 0.18618,0.124123 0,0.06206 -0.0414,0.124124 -0.0207,0.04138 -0.14481,0.08275 -0.10344,0.02069 -0.26894,0.04138 -0.14481,0 -0.31031,0 -0.1655,-0.02069 -0.18618,-0.02069 h -1.03437 l 0.0207,7.468114 v 5.68901 q 0,0.0207 0,0.20687 0.0207,0.1655 -0.0207,0.31031 -0.0207,0.12412 -0.12412,0.12412 -0.0828,0 -0.14481,-0.0828 -0.0621,-0.0828 -0.0621,-0.53787 -0.0207,-0.45512 -0.0207,-1.32398 0.0207,-0.88956 0.0207,-1.24124 l -0.0414,-10.612584 q -0.12412,-0.02069 -0.84818,-0.02069 -0.10343,0 -0.47581,0.02069 -0.35168,0 -0.4758,-0.02069 -0.12413,-0.04137 -0.14482,-0.103436 0,-0.04137 0.0207,-0.124124 0.0414,-0.103436 0.1655,-0.103436 l 1.15849,0.02069 z" />
      <path
         id="path2388"
         style="font-style:normal;font-variant:normal;font-weight:normal;font-stretch:normal;font-family:LiebeErikaW03-Regular;-inkscape-font-specification:LiebeErikaW03-Regular;letter-spacing:0.071104px;stroke-width:0.517185"
         d="m 110.38673,95.203509 q 0.20688,0 0.18619,0.22756 -0.0207,0.22756 -0.0207,0.268935 v 2.916909 l -0.0207,7.426737 -0.0207,2.68935 q 0,0.31031 -0.0207,0.45512 -0.0207,0.14481 -0.12412,0.1655 -0.20688,0 -0.20688,-0.49649 0.0414,-1.32399 0.0414,-7.09575 l 0.0207,-2.58591 v -3.475466 q 0,-0.351684 0.0414,-0.413746 0.0621,-0.08275 0.12412,-0.08275 z" />
      <path
         id="path2390"
         style="font-style:normal;font-variant:normal;font-weight:normal;font-stretch:normal;font-family:LiebeErikaW03-Regular;-inkscape-font-specification:LiebeErikaW03-Regular;letter-spacing:0.071104px;stroke-width:0.517185"
         d="m 115.4868,95.203509 q 0.28962,-0.02069 0.43443,0 0.1655,0 0.18618,0.124123 0,0.06206 -0.0414,0.124124 -0.0207,0.04138 -0.14481,0.08275 -0.10344,0.02069 -0.26894,0.04138 -0.14481,0 -0.31031,0 -0.16549,-0.02069 -0.18618,-0.02069 h -1.03437 l 0.0207,7.468114 v 5.68901 q 0,0.0207 0,0.20687 0.0207,0.1655 -0.0207,0.31031 -0.0207,0.12412 -0.12412,0.12412 -0.0828,0 -0.14481,-0.0828 -0.0621,-0.0828 -0.0621,-0.53787 -0.0207,-0.45512 -0.0207,-1.32398 0.0207,-0.88956 0.0207,-1.24124 l -0.0414,-10.612584 q -0.12412,-0.02069 -0.84818,-0.02069 -0.10343,0 -0.47581,0.02069 -0.35168,0 -0.4758,-0.02069 -0.12413,-0.04137 -0.14481,-0.103436 0,-0.04137 0.0207,-0.124124 0.0414,-0.103436 0.1655,-0.103436 l 1.15849,0.02069 z" />
      <path
         id="path2392"
         style="font-style:normal;font-variant:normal;font-weight:normal;font-stretch:normal;font-family:LiebeErikaW03-Regular;-inkscape-font-specification:LiebeErikaW03-Regular;letter-spacing:0.071104px;stroke-width:0.517185"
         d="m 117.47665,95.203509 q 0.10343,0 0.16549,0.165498 0.0621,0.144811 0.0621,0.558557 0,0.413746 0,0.496495 v 3.889211 q -0.0207,0.91024 -0.0207,2.56523 0.0207,1.63429 0.0207,2.42041 -0.0414,2.13079 0.0207,3.68234 l 1.34468,0.0414 q 0.0828,0 0.47581,-0.0414 0.39305,-0.0414 0.55855,0 0.18619,0.0207 0.20688,0.10344 0.0207,0.0828 -0.0414,0.1655 -0.0414,0.0621 -0.49649,0.0621 l -1.55155,0.0207 q -0.0414,0 -0.26894,0 -0.22756,0.0207 -0.33099,0 -0.10344,0 -0.14481,-0.0207 -0.12413,-0.0828 -0.12413,-0.78612 -0.0207,-1.11711 -0.0207,-3.22722 0.0207,-2.13079 0.0207,-3.02034 l 0.0207,-5.295954 q 0,-0.372371 -0.0414,-0.972303 -0.0207,-0.620619 0,-0.703368 0.0414,-0.103436 0.14481,-0.103436 z" />
      <path
         id="path2394"
         style="font-style:normal;font-variant:normal;font-weight:normal;font-stretch:normal;font-family:LiebeErikaW03-Regular;-inkscape-font-specification:LiebeErikaW03-Regular;letter-spacing:0.071104px;stroke-width:0.517185"
         d="m 124.11111,95.203509 q 0.0621,0 0.31031,0 0.24825,-0.02069 0.331,0.02069 0.10344,0.04137 0.10344,0.165498 -0.0207,0.103437 -0.0828,0.124124 -0.0414,0.02069 -0.35169,0.02069 -2.15147,0 -2.66866,0.08275 l 0.0414,4.240896 q 0.72405,-0.06206 2.04804,-0.02069 0.28962,0.02069 0.331,0.08275 0.0414,0.04138 0.0414,0.08275 0,0.12413 -0.22756,0.1655 -0.20687,0.0414 -0.99299,0.0207 -0.45512,-0.0207 -1.17918,0.0207 0.0414,1.05505 0.0207,3.06172 0,1.98598 0,2.50316 0,0.26893 -0.0414,1.40674 -0.0207,1.1378 0,1.82048 l 2.4411,-0.0207 q 0.43443,0 0.53787,0.0414 0.10344,0.0414 0.12412,0.12413 0.0414,0.1655 -0.35168,0.1655 l -1.84117,0.0207 q -1.1378,0.0621 -1.19986,-0.0414 -0.0207,-0.0621 -0.0414,-1.15849 0,-1.11711 0.0207,-1.98598 0,-0.0414 0,-0.18619 0,-0.16549 0.0207,-2.17216 0.0207,-2.00667 -0.0207,-2.95829 l -0.0621,-4.592582 q 0,-0.06206 -0.0207,-0.434434 -0.0207,-0.372371 0.0414,-0.434433 0.0207,-0.02069 0.10344,-0.06206 0.0828,-0.04138 1.07574,-0.103436 z" />
      <path
         id="path2396"
         style="font-style:normal;font-variant:normal;font-weight:normal;font-stretch:normal;font-family:LiebeErikaW03-Regular;-inkscape-font-specification:LiebeErikaW03-Regular;letter-spacing:0.071104px;stroke-width:0.517185"
         d="m 126.1514,108.77438 q 0.0414,-0.14481 0.16549,-0.22756 0.14482,-0.10344 0.28963,-0.10344 0.18618,0 0.33099,0.14481 0.1655,0.14481 0.1655,0.37237 0,0.18619 -0.18618,0.331 -0.18619,0.14481 -0.41375,0.10344 -0.20687,-0.0621 -0.31031,-0.24825 -0.0827,-0.18619 -0.0414,-0.37237 z" />
    </g>
  </g>
</svg>
