<?xml version="1.0" encoding="UTF-8" standalone="no"?>
<!-- Created with Inkscape (http://www.inkscape.org/) -->

<svg
   width="163.63188mm"
   height="20.842072mm"
   viewBox="0 0 163.63188 20.842072"
   version="1.1"
   id="svg1"
   inkscape:version="1.4.3 (0d15f75, 2025-12-25)"
   sodipodi:docname="belle-sebastian-tour-support.svg"
   xmlns:inkscape="http://www.inkscape.org/namespaces/inkscape"
   xmlns:sodipodi="http://sodipodi.sourceforge.net/DTD/sodipodi-0.dtd"
   xmlns="http://www.w3.org/2000/svg"
   xmlns:svg="http://www.w3.org/2000/svg">
  <sodipodi:namedview
     id="namedview1"
     pagecolor="#ffffff"
     bordercolor="#000000"
     borderopacity="0.25"
     inkscape:showpageshadow="2"
     inkscape:pageopacity="0.0"
     inkscape:pagecheckerboard="0"
     inkscape:deskcolor="#d1d1d1"
     inkscape:document-units="mm"
     inkscape:zoom="1.4378367"
     inkscape:cx="367.91383"
     inkscape:cy="95.97752"
     inkscape:window-width="1150"
     inkscape:window-height="1032"
     inkscape:window-x="883"
     inkscape:window-y="76"
     inkscape:window-maximized="0"
     inkscape:current-layer="layer1" />
  <defs
     id="defs1" />
  <g
     inkscape:label="Layer 1"
     inkscape:groupmode="layer"
     id="layer1"
     transform="translate(-28.222,-113.90778)">
    <path
       style="font-weight:310;font-size:24.6944px;font-family:Knockout;-inkscape-font-specification:'Knockout weight=310';letter-spacing:-1.00542px;fill:#333333;stroke-width:2.775;stroke-linecap:square;stroke-linejoin:round"
       d="m 34.395578,127.93419 q 0,1.35819 -0.666749,2.14841 -0.666749,0.79022 -1.753303,0.79022 -1.679219,0 -2.222496,-1.60513 l -0.246944,1.38288 H 28.221977 V 114.2041 h 1.777997 v 6.22299 q 0.666749,-1.48166 2.197802,-1.48166 1.061859,0 1.62983,0.79022 0.567972,0.79022 0.567972,2.09902 z m -1.753303,-0.27164 v -5.43277 q 0,-1.65452 -1.284109,-1.65452 -0.642054,0 -1.01247,0.4198 -0.345722,0.41981 -0.345722,1.16064 v 5.58093 q 0,0.74084 0.370416,1.16064 0.395111,0.41981 0.963082,0.41981 1.308803,0 1.308803,-1.65453 z m 8.329049,-0.19755 q 0,1.58044 -0.765526,2.49413 -0.740832,0.889 -2.099025,0.889 -1.382886,0 -2.222496,-0.91369 -0.814915,-0.93839 -0.814915,-2.49414 v -5.06235 q 0,-1.55575 0.814915,-2.49414 0.83961,-0.93838 2.222496,-0.93838 1.358193,0 2.099025,0.93838 0.765526,0.9137 0.765526,2.49414 v 2.69169 h -4.148659 v 2.6423 q 0,1.50636 1.308803,1.50636 1.259414,0 1.259414,-1.50636 v -1.11125 h 1.580442 z m -1.580442,-3.556 v -1.80269 q 0,-1.53105 -1.259414,-1.53105 -1.308803,0 -1.308803,1.53105 v 1.80269 z m 4.106309,6.74157 H 41.694499 V 114.2041 h 1.802692 z m 2.77282,0 H 44.46732 V 114.2041 h 1.802691 z m 6.723924,-3.18557 q 0,1.58044 -0.765527,2.49413 -0.740832,0.889 -2.099024,0.889 -1.382886,0 -2.222496,-0.91369 -0.814915,-0.93839 -0.814915,-2.49414 v -5.06235 q 0,-1.55575 0.814915,-2.49414 0.83961,-0.93838 2.222496,-0.93838 1.358192,0 2.099024,0.93838 0.765527,0.9137 0.765527,2.49414 v 2.69169 h -4.14866 v 2.6423 q 0,1.50636 1.308804,1.50636 1.259414,0 1.259414,-1.50636 v -1.11125 h 1.580442 z m -1.580442,-3.556 v -1.80269 q 0,-1.53105 -1.259414,-1.53105 -1.308804,0 -1.308804,1.53105 v 1.80269 z m 15.201144,4.56847 q 0,1.21002 -0.567971,1.85208 -0.543277,0.61736 -1.555747,0.61736 -1.210026,0 -2.29658,-1.21003 -1.160637,1.21003 -2.889245,1.21003 -1.580441,0 -2.543523,-1.11125 -0.963082,-1.13594 -0.963082,-2.86455 0,-1.58044 0.691444,-2.81516 0.716137,-1.23472 2.099024,-2.39536 -0.716138,-2.02494 -0.716138,-3.87702 0,-1.7533 0.83961,-2.86455 0.839609,-1.11125 2.296579,-1.11125 1.358192,0 2.024941,0.96308 0.691443,0.96308 0.691443,2.51883 0,2.61761 -3.037411,4.96358 0.814915,3.21027 1.580441,4.56846 0.61736,-1.08655 0.987776,-2.37066 0.395111,-1.30881 0.395111,-2.32128 h 1.62983 q -0.02469,1.38289 -0.592665,3.16089 -0.543277,1.77799 -1.382887,3.03741 0.543277,0.79022 1.259415,0.79022 0.666749,0 0.666749,-0.81492 v -1.50636 h 1.382886 z M 61.97209,117.46376 q 0,-1.70391 -0.987776,-1.70391 -1.284109,0 -1.284109,2.09902 0,0.889 0.444499,2.93864 0.938387,-0.76553 1.382886,-1.65453 0.4445,-0.91369 0.4445,-1.67922 z m -0.83961,11.0631 q -1.061859,-1.60514 -2.000246,-4.96358 -1.382887,1.38289 -1.382887,3.1115 0,1.23472 0.518583,1.87677 0.543276,0.61736 1.481664,0.61736 0.814915,0 1.382886,-0.64205 z m 13.620732,-0.69145 q 0,1.28411 -0.814915,2.14841 -0.790221,0.86431 -2.123718,0.86431 -1.45697,0 -2.222496,-0.83961 -0.740832,-0.83961 -0.740832,-2.32127 v -0.66675 h 1.506358 v 0.76552 q 0,1.53106 1.407581,1.53106 1.333497,0 1.333497,-1.28411 0,-0.79022 -0.321027,-1.30881 -0.321027,-0.51858 -1.358192,-1.25941 -2.444745,-1.43228 -2.444745,-3.55599 0,-1.30881 0.79022,-2.12372 0.790221,-0.83961 2.07433,-0.83961 2.815162,0 2.815162,3.01271 v 0.66675 h -1.45697 v -0.81491 q 0,-1.23472 -1.333498,-1.23472 -0.592665,0 -0.913692,0.32103 -0.321028,0.29633 -0.321028,0.81491 0,0.69144 0.395111,1.23472 0.419805,0.51858 1.531053,1.23472 2.197801,1.3335 2.197801,3.65477 z m 6.328804,-0.37041 q 0,1.58044 -0.765526,2.49413 -0.740832,0.889 -2.099025,0.889 -1.382886,0 -2.222496,-0.91369 -0.814915,-0.93839 -0.814915,-2.49414 v -5.06235 q 0,-1.55575 0.814915,-2.49414 0.83961,-0.93838 2.222496,-0.93838 1.358193,0 2.099025,0.93838 0.765526,0.9137 0.765526,2.49414 v 2.69169 h -4.148659 v 2.6423 q 0,1.50636 1.308803,1.50636 1.259414,0 1.259414,-1.50636 v -1.11125 h 1.580442 z m -1.580442,-3.556 v -1.80269 q 0,-1.53105 -1.259414,-1.53105 -1.308803,0 -1.308803,1.53105 v 1.80269 z m 8.477217,4.02519 q 0,1.35819 -0.666748,2.14841 -0.666749,0.79022 -1.753303,0.79022 -1.679219,0 -2.222496,-1.60513 L 83.0893,130.65057 H 81.805191 V 114.2041 h 1.777997 v 6.22299 q 0.666749,-1.48166 2.197802,-1.48166 1.061859,0 1.62983,0.79022 0.567971,0.79022 0.567971,2.09902 z m -1.753302,-0.27164 v -5.43277 q 0,-1.65452 -1.284109,-1.65452 -0.642054,0 -1.01247,0.4198 -0.345722,0.41981 -0.345722,1.16064 v 5.58093 q 0,0.74084 0.370416,1.16064 0.395111,0.41981 0.963082,0.41981 1.308803,0 1.308803,-1.65453 z m 8.72416,3.18558 h -0.493888 q -1.210026,0 -1.358192,-1.23472 -0.83961,1.23472 -2.24719,1.23472 -1.135943,0 -1.777997,-0.76553 -0.642055,-0.76552 -0.642055,-2.07433 v -0.4198 q 0,-1.55575 1.160637,-2.44475 1.160637,-0.91369 3.136189,-1.48166 v -1.7533 q 0,-1.30881 -1.160637,-1.30881 -0.666749,0 -0.913693,0.34572 -0.222249,0.32103 -0.222249,1.03717 v 0.8643 h -1.654525 v -0.96308 q 0,-1.3088 0.716138,-2.12372 0.740832,-0.81491 2.099024,-0.81491 1.456969,0 2.148412,0.8643 0.691444,0.83961 0.691444,2.32128 v 6.76626 q 0,0.59267 0.518582,0.59267 z m -2.222496,-3.18558 v -2.54352 q -1.284109,0.29633 -1.950858,0.91369 -0.666748,0.59267 -0.666748,1.40758 v 0.54328 q 0,1.3088 1.086553,1.3088 0.592666,0 1.061859,-0.46919 0.469194,-0.49389 0.469194,-1.16064 z m 8.329077,0.17286 q 0,1.28411 -0.81492,2.14841 -0.790221,0.86431 -2.123719,0.86431 -1.456969,0 -2.222496,-0.83961 -0.740832,-0.83961 -0.740832,-2.32127 v -0.66675 h 1.506359 v 0.76552 q 0,1.53106 1.407581,1.53106 1.333497,0 1.333497,-1.28411 0,-0.79022 -0.321027,-1.30881 -0.321027,-0.51858 -1.358192,-1.25941 -2.444746,-1.43228 -2.444746,-3.55599 0,-1.30881 0.790221,-2.12372 0.790221,-0.83961 2.07433,-0.83961 2.815164,0 2.815164,3.01271 v 0.66675 h -1.456972 v -0.81491 q 0,-1.23472 -1.333498,-1.23472 -0.592665,0 -0.913693,0.32103 -0.321027,0.29633 -0.321027,0.81491 0,0.69144 0.395111,1.23472 0.419804,0.51858 1.531052,1.23472 2.197807,1.3335 2.197807,3.65477 z m 4.131,-7.13668 h -1.30881 v 6.51932 q 0,2.17311 0.4692,3.43252 h -1.778 q -0.49389,-1.18533 -0.49389,-3.43252 v -6.51932 h -1.11125 v -1.60514 h 1.23472 v -1.95085 l 1.67922,-0.61736 v 2.56821 h 1.30881 z m 2.05668,-3.30905 h -1.65452 v -2.02494 h 1.65452 z m 0.0741,13.26089 h -1.8027 v -11.55698 h 1.8027 z m 7.11903,0.19756 h -0.49389 q -1.21002,0 -1.35819,-1.23472 -0.83961,1.23472 -2.24719,1.23472 -1.13594,0 -1.778,-0.76553 -0.64205,-0.76552 -0.64205,-2.07433 v -0.4198 q 0,-1.55575 1.16064,-2.44475 1.16063,-0.91369 3.13618,-1.48166 v -1.7533 q 0,-1.30881 -1.16063,-1.30881 -0.66675,0 -0.9137,0.34572 -0.22225,0.32103 -0.22225,1.03717 v 0.8643 h -1.65452 v -0.96308 q 0,-1.3088 0.71614,-2.12372 0.74083,-0.81491 2.09902,-0.81491 1.45697,0 2.14841,0.8643 0.69145,0.83961 0.69145,2.32128 v 6.76626 q 0,0.59267 0.51858,0.59267 z m -2.2225,-3.18558 v -2.54352 q -1.2841,0.29633 -1.95085,0.91369 -0.66675,0.59267 -0.66675,1.40758 v 0.54328 q 0,1.3088 1.08655,1.3088 0.59267,0 1.06186,-0.46919 0.46919,-0.49389 0.46919,-1.16064 z m 8.99582,2.98802 h -1.80269 v -8.76651 q 0,-0.64205 -0.32102,-1.01247 -0.29634,-0.37041 -0.83961,-0.37041 -0.64206,0 -1.06186,0.66674 -0.39511,0.66675 -0.39511,1.30881 v 8.17384 h -1.80269 v -11.55698 h 1.53105 l 0.12347,1.90147 q 0.69144,-2.02494 2.24719,-2.02494 1.11125,0 1.70391,0.74083 0.61736,0.74084 0.61736,2.02495 z m 6.92852,-9.95184 h -1.3088 v 6.51932 q 0,2.17311 0.46919,3.43252 h -1.77799 q -0.49389,-1.18533 -0.49389,-3.43252 v -6.51932 h -1.11125 v -1.60514 h 1.23472 v -1.95085 l 1.67922,-0.61736 v 2.56821 h 1.3088 z m 6.27943,6.74157 q 0,1.55575 -0.83961,2.49414 -0.81491,0.91369 -2.1978,0.91369 -1.38289,0 -2.2225,-0.91369 -0.83961,-0.93839 -0.83961,-2.49414 v -5.06235 q 0,-1.55575 0.83961,-2.49414 0.83961,-0.93838 2.2225,-0.93838 1.38289,0 2.1978,0.93838 0.83961,0.93839 0.83961,2.49414 z m -1.7533,0.32103 v -5.7291 q 0,-0.64206 -0.34572,-1.03717 -0.32103,-0.4198 -0.93839,-0.4198 -0.61736,0 -0.96308,0.4198 -0.32103,0.39511 -0.32103,1.03717 v 5.7291 q 0,0.66675 0.32103,1.06186 0.34572,0.37041 0.96308,0.37041 0.61736,0 0.93839,-0.37041 0.34572,-0.39511 0.34572,-1.06186 z m 8.79825,2.88924 h -1.53105 l -0.12348,-1.62983 q -0.64205,1.85208 -2.24719,1.85208 -1.11124,0 -1.7286,-0.74083 -0.59267,-0.76553 -0.59267,-2.07433 v -8.96407 h 1.80269 v 8.8406 q 0,0.61736 0.32103,1.01247 0.32103,0.37042 0.83961,0.37042 0.64205,0 1.03716,-0.66675 0.41981,-0.66675 0.41981,-1.30881 v -8.24793 h 1.80269 z m 5.31636,-9.72959 q -2.51883,-0.22225 -2.51883,1.40758 v 8.32201 h -1.80269 v -11.55698 h 1.55575 l 0.12347,1.72861 q 0.69144,-2.07433 2.6423,-1.80269 z m 8.21266,6.91443 q 0,1.28411 -0.81492,2.14841 -0.79022,0.86431 -2.12372,0.86431 -1.45697,0 -2.22249,-0.83961 -0.74083,-0.83961 -0.74083,-2.32127 v -0.66675 h 1.50635 v 0.76552 q 0,1.53106 1.40759,1.53106 1.33349,0 1.33349,-1.28411 0,-0.79022 -0.32102,-1.30881 -0.32103,-0.51858 -1.3582,-1.25941 -2.44474,-1.43228 -2.44474,-3.55599 0,-1.30881 0.79022,-2.12372 0.79022,-0.83961 2.07433,-0.83961 2.81516,0 2.81516,3.01271 v 0.66675 h -1.45697 v -0.81491 q 0,-1.23472 -1.3335,-1.23472 -0.59266,0 -0.91369,0.32103 -0.32103,0.29633 -0.32103,0.81491 0,0.69144 0.39511,1.23472 0.41981,0.51858 1.53106,1.23472 2.1978,1.3335 2.1978,3.65477 z m 6.7733,2.81516 h -1.53105 l -0.12347,-1.62983 q -0.64206,1.85208 -2.24719,1.85208 -1.11125,0 -1.72861,-0.74083 -0.59267,-0.76553 -0.59267,-2.07433 v -8.96407 h 1.80269 v 8.8406 q 0,0.61736 0.32103,1.01247 0.32103,0.37042 0.83961,0.37042 0.64205,0 1.03716,-0.66675 0.41981,-0.66675 0.41981,-1.30881 v -8.24793 h 1.80269 z m 7.14375,-2.6423 q 0,1.23472 -0.61736,2.02494 -0.61736,0.76553 -1.55575,0.76553 -1.40758,0 -2.1978,-1.21003 v 5.16113 h -1.778 v -15.65625 h 1.38289 l 0.14817,1.38289 q 0.59266,-1.60514 2.22249,-1.60514 1.08656,0 1.72861,0.79023 0.66675,0.79022 0.66675,2.14841 z m -1.7533,-0.49389 v -5.43276 q 0,-1.65453 -1.28411,-1.65453 -0.54328,0 -0.93839,0.41981 -0.39511,0.4198 -0.39511,1.16063 v 5.58094 q 0,0.74083 0.34572,1.18533 0.37042,0.4198 0.98778,0.4198 1.28411,0 1.28411,-1.67922 z m 8.74884,0.49389 q 0,1.23472 -0.61736,2.02494 -0.61736,0.76553 -1.55574,0.76553 -1.40758,0 -2.1978,-1.21003 v 5.16113 h -1.778 v -15.65625 h 1.38289 l 0.14816,1.38289 q 0.59267,-1.60514 2.2225,-1.60514 1.08655,0 1.72861,0.79023 0.66674,0.79022 0.66674,2.14841 z m -1.7533,-0.49389 v -5.43276 q 0,-1.65453 -1.28411,-1.65453 -0.54327,0 -0.93838,0.41981 -0.39511,0.4198 -0.39511,1.16063 v 5.58094 q 0,0.74083 0.34572,1.18533 0.37041,0.4198 0.98777,0.4198 1.28411,0 1.28411,-1.67922 z m 8.55131,-0.0741 q 0,1.55575 -0.83961,2.49414 -0.81492,0.91369 -2.1978,0.91369 -1.38289,0 -2.2225,-0.91369 -0.83961,-0.93839 -0.83961,-2.49414 v -5.06235 q 0,-1.55575 0.83961,-2.49414 0.83961,-0.93838 2.2225,-0.93838 1.38288,0 2.1978,0.93838 0.83961,0.93839 0.83961,2.49414 z m -1.7533,0.32103 v -5.7291 q 0,-0.64206 -0.34572,-1.03717 -0.32103,-0.4198 -0.93839,-0.4198 -0.61736,0 -0.96308,0.4198 -0.32103,0.39511 -0.32103,1.03717 v 5.7291 q 0,0.66675 0.32103,1.06186 0.34572,0.37041 0.96308,0.37041 0.61736,0 0.93839,-0.37041 0.34572,-0.39511 0.34572,-1.06186 z m 6.92147,-6.84035 q -2.51883,-0.22225 -2.51883,1.40758 v 8.32201 h -1.80269 v -11.55698 h 1.55575 l 0.12347,1.72861 q 0.69145,-2.07433 2.6423,-1.80269 z m 3.98284,-0.22225 h -1.3088 v 6.51932 q 0,2.17311 0.46919,3.43252 h -1.77799 q -0.49389,-1.18533 -0.49389,-3.43252 v -6.51932 h -1.11125 v -1.60514 h 1.23472 v -1.95085 l 1.67922,-0.61736 v 2.56821 h 1.3088 z"
       id="text1"
       aria-label="belle &amp; sebastian tour support" />
  </g>
</svg>
