<?xml version="1.0" encoding="UTF-8" standalone="no"?>
<!-- Created with Inkscape (http://www.inkscape.org/) -->

<svg
   width="179.40102mm"
   height="117.77189mm"
   viewBox="0 0 179.40102 117.77189"
   version="1.1"
   id="svg1"
   xml:space="preserve"
   inkscape:version="1.4.3 (0d15f75, 2025-12-25)"
   sodipodi:docname="c-90.svg"
   xmlns:inkscape="http://www.inkscape.org/namespaces/inkscape"
   xmlns:sodipodi="http://sodipodi.sourceforge.net/DTD/sodipodi-0.dtd"
   xmlns="http://www.w3.org/2000/svg"
   xmlns:svg="http://www.w3.org/2000/svg"><sodipodi:namedview
     id="namedview1"
     pagecolor="#ffffff"
     bordercolor="#000000"
     borderopacity="0.25"
     inkscape:showpageshadow="2"
     inkscape:pageopacity="0.0"
     inkscape:pagecheckerboard="0"
     inkscape:deskcolor="#d1d1d1"
     inkscape:document-units="mm"
     inkscape:zoom="1.4770342"
     inkscape:cx="346.97909"
     inkscape:cy="169.93513"
     inkscape:window-width="1127"
     inkscape:window-height="1032"
     inkscape:window-x="1698"
     inkscape:window-y="111"
     inkscape:window-maximized="0"
     inkscape:current-layer="layer1" /><defs
     id="defs1" /><g
     inkscape:label="Layer 1"
     inkscape:groupmode="layer"
     id="layer1"
     transform="translate(219.45881,-14.481879)"><path
       style="fill:#000000"
       d="m -143.78797,132.19909 c -2.11006,-0.0443 -13.48053,-0.21821 -25.26771,-0.38641 -11.78719,-0.1682 -21.78844,-0.36703 -22.225,-0.44184 -1.40032,-0.23996 -3.25792,-0.32911 -12.44043,-0.59701 l -9.00083,-0.26261 -1.2421,-0.42322 c -0.68315,-0.23278 -1.70591,-0.87334 -2.27279,-1.42348 -1.459,-1.41591 -1.89906,-2.91131 -1.89906,-6.45323 v -2.90446 l -0.66146,-0.86721 -0.66146,-0.86722 V 103.56751 89.562619 l 0.52622,-0.66898 0.52622,-0.66898 0.0691,-34.23269 0.0691,-34.23269 0.67591,-1.31336 c 0.40516,-0.78726 1.1223,-1.62709 1.79025,-2.09654 l 1.11434,-0.78319 3.89829,-0.18619 c 8.16405,-0.38993 75.61833,-0.89695 119.407881,-0.89752 l 45.65959,-6e-4 1.09089,0.72169 c 0.59999,0.39692 1.42489,1.28989 1.83312,1.98437 l 0.74223,1.2627 0.16985,11.1125 c 0.0934,6.11187 0.25928,21.82812 0.36857,34.92499 l 0.19871,23.8125 0.55748,0.79375 0.55747,0.79375 0.0729,14.147171 0.0729,14.14716 -0.50816,0.68732 -0.50815,0.68731 -0.10175,3.42177 -0.10175,3.42177 -0.48544,0.92605 c -0.67903,1.29536 -1.69941,2.33386 -2.93856,2.99073 l -1.05834,0.56103 -10.31875,0.10239 c -6.14156,0.0609 -10.44626,0.20672 -10.63373,0.36011 -0.48881,0.39995 -64.801261,1.116 -77.075641,0.85815 z m -26.29959,-4.44908 0.89958,-0.89958 v -1.24355 -1.24354 l -0.88398,-0.88399 c -1.4825,-1.4825 -3.03753,-1.53229 -4.42803,-0.14178 -1.39051,1.39051 -1.34072,2.94553 0.14178,4.42803 l 0.88398,0.88399 h 1.24355 1.24354 z m 85.538211,0.22112 c 1.64706,-1.38591 1.54364,-3.88679 -0.20952,-5.06655 -1.72458,-1.16053 -3.83936,-0.45521 -4.64081,1.5478 l -0.43385,1.08429 0.29253,0.88634 c 0.70505,2.13633 3.32641,2.94933 4.99165,1.54812 z m -114.234511,-0.68694 c 1.33263,-0.39926 3.00598,-1.84614 3.7322,-3.22709 0.79782,-1.51709 0.79782,-4.11459 0,-5.63168 -1.09374,-2.0798 -3.40717,-3.53416 -5.62173,-3.53416 -3.00394,0 -5.74744,2.42344 -6.24155,5.51339 -0.0943,0.58978 -0.0206,1.68757 0.16545,2.46295 l 0.33559,1.39892 1.3489,1.34347 c 1.86193,1.85445 3.88221,2.39294 6.28114,1.6742 z m -4.16196,-2.04533 c -2.71246,-1.65404 -3.14514,-4.99229 -0.9337,-7.20373 1.81769,-1.81769 4.30893,-1.90122 6.23616,-0.2091 2.32793,2.04396 1.77508,6.16001 -1.00456,7.47904 -1.24133,0.58904 -3.27472,0.55772 -4.2979,-0.0662 z m 4.01421,-0.71848 c 2.57692,-1.22282 2.61714,-5.29007 0.0654,-6.60965 -2.5351,-1.31095 -5.59789,0.51955 -5.5592,3.32251 0.0398,2.88126 2.83043,4.55101 5.49383,3.28714 z m -2.91121,-1.9868 c -0.92613,-0.72849 -0.85677,-1.93832 0.15421,-2.68969 0.91934,-0.68326 1.93106,-0.4394 2.46561,0.59431 0.53749,1.03939 0.51197,1.246 -0.24774,2.00571 -0.79664,0.79664 -1.44228,0.82105 -2.37208,0.0897 z m 1.81199,-0.64976 c 0.53747,-0.53747 0.52397,-0.72721 -0.0914,-1.2841 l -0.50715,-0.45897 -0.55118,0.29498 c -0.67158,0.35942 -0.71913,1.21058 -0.0882,1.57809 0.62742,0.36543 0.75594,0.35194 1.23788,-0.13 z m 143.392371,5.38226 c 1.48532,-0.4435 3.72515,-2.64822 4.10478,-4.04045 1.06421,-3.90275 -1.39112,-7.69404 -5.33275,-8.2343 -2.35039,-0.32215 -5.03126,1.10815 -6.26779,3.34401 -0.87935,1.59002 -0.91306,4.1426 -0.0757,5.73195 1.47047,2.79101 4.56238,4.09728 7.57145,3.19879 z m -4.02282,-1.97187 c -0.48318,-0.2381 -1.19756,-0.8512 -1.5875,-1.36244 l -0.70898,-0.92953 v -1.78713 -1.78713 l 0.54551,-0.73066 c 0.96744,-1.29577 1.86269,-1.7803 3.50955,-1.89942 1.85403,-0.13411 2.85953,0.30062 3.92439,1.69672 l 0.73076,0.95808 0.0998,1.62188 0.0999,1.62189 -0.62479,0.91974 c -1.3717,2.01927 -3.87353,2.72028 -5.98863,1.678 z m 4.10682,-0.86724 c 2.29569,-1.39977 2.19995,-5.25939 -0.16076,-6.48016 -1.74299,-0.90133 -4.10415,-0.31519 -5.06263,1.25677 -1.04962,1.72143 -0.39626,4.42181 1.29167,5.3386 1.02066,0.55437 2.9251,0.49856 3.93172,-0.11521 z m -3.19262,-1.882 c -0.41735,-0.32829 -0.69714,-0.81096 -0.69714,-1.20265 0,-0.79809 1.09529,-1.95314 1.85208,-1.95314 0.69214,0 1.85208,1.13006 1.85208,1.80437 0,0.7668 -1.01581,1.89979 -1.70331,1.89979 -0.33361,0 -0.92029,-0.24676 -1.30371,-0.54837 z m 1.89577,-0.56288 c 0.47622,-0.47621 0.38274,-1.21647 -0.1925,-1.52432 -0.64622,-0.34585 -1.27452,-0.11078 -1.48616,0.55605 -0.31372,0.98845 0.93704,1.7099 1.67866,0.96827 z m -93.930081,2.26486 0.0764,-2.15368 -0.43623,-0.43624 -0.43623,-0.43623 -2.15369,0.0764 -2.15368,0.0764 -0.0773,2.20846 c -0.05,1.43047 0.0341,2.34265 0.23889,2.5894 0.24019,0.2894 0.86272,0.36271 2.59081,0.30508 l 2.27464,-0.0759 z m 50.05286,1.7742 c 0.32054,-0.59893 0.36244,-3.96621 0.0554,-4.44983 -0.15712,-0.24746 -0.8263,-0.28769 -2.64178,-0.15882 l -2.43137,0.17258 v 2.29753 c 0,1.26365 0.0794,2.37691 0.17639,2.47393 0.097,0.097 1.16439,0.17639 2.37194,0.17639 h 2.19556 z m 2.258141,-24.00007 47.09571,-0.16018 2.20796,-2.149921 2.20796,-2.14993 -0.0912,-33.55369 -0.0912,-33.5537 -1.20028,-1.10672 c -0.66016,-0.6087 -2.90944,-2.70152 -4.99842,-4.65072 l -3.79813,-3.544 -12.33179,0.16964 c -6.78249,0.0933 -38.644611,0.24494 -70.804711,0.33699 -32.16011,0.092 -59.22021,0.24129 -60.13357,0.33165 l -1.66065,0.1643 -4.35026,4.7625 -4.35025,4.7625 -0.008,33.22442 -0.008,33.22442 2.21219,2.159271 2.2122,2.15927 30.3977,-0.13296 c 16.71873,-0.0731 51.59077,-0.20504 77.493411,-0.29314 z m -107.909221,-1.08696 c -0.27201,-0.44012 -0.5076,-12.765781 -0.244,-12.765781 0.29094,0 0.49338,2.33626 0.76231,8.7974 0.12083,2.90326 0.0872,4.167191 -0.111,4.167191 -0.15645,0 -0.33974,-0.0895 -0.40731,-0.19881 z m 154.758361,-1.095361 c -0.25178,-0.40739 0.15252,-11.14125 0.41965,-11.14125 0.28886,0 0.28106,-0.19822 0.22905,5.82083 -0.0411,4.7629 -0.19803,6.049611 -0.6487,5.32042 z M -203.42431,87.710479 c -0.0877,-0.0877 -0.1595,-0.25872 -0.1595,-0.37998 0,-0.12127 6.05472,-0.22049 13.45494,-0.22049 7.40022,0 14.19174,-0.077 15.09228,-0.17114 l 1.63734,-0.17113 -1.68723,-0.71183 c -5.95048,-2.51046 -10.35024,-7.94806 -11.69368,-14.45207 -0.8864,-4.29135 -0.32724,-8.26008 1.76673,-12.53966 l 1.35932,-2.77813 2.40442,-2.38564 c 1.45184,-1.4405 3.03336,-2.72179 3.99192,-3.2341 l 1.5875,-0.84845 -15.80885,-0.007 c -8.70904,-0.004 -15.80886,-0.1098 -15.80886,-0.23585 0,-0.44299 13.76641,-0.56278 84.24254,-0.733 53.310441,-0.12876 71.098831,-0.0961 70.958861,0.1304 -0.1336,0.21617 -2.54341,0.30223 -8.4625,0.30223 -4.55165,0 -11.67477,0.0784 -15.82916,0.17419 l -7.55344,0.17419 1.888,1.23747 c 3.63523,2.38268 6.44908,6.00996 8.03249,10.35456 l 0.71077,1.95022 0.001,3.96875 0.001,3.96875 -0.60515,1.71979 c -2.32592,6.6101 -6.92663,11.20899 -13.26357,13.25834 l -1.45521,0.47061 17.75254,-0.15817 17.75254,-0.15817 0.19948,0.32276 c 0.10971,0.17751 0.15779,0.36081 0.10683,0.40731 -0.051,0.0465 -28.36998,0.21698 -62.931181,0.37881 -34.5612,0.16184 -68.39247,0.34639 -75.18061,0.41012 -6.78813,0.0637 -12.41383,0.0441 -12.50156,-0.0436 z m 40.60135,-1.52951 c 4.73203,-1.2237 9.3543,-4.76422 11.96683,-9.16623 2.80766,-4.73079 3.32601,-11.05511 1.31945,-16.09848 -1.65859,-4.16877 -5.11302,-7.99291 -9.02239,-9.98802 l -2.20339,-1.12448 h -6.50813 -6.50812 l -1.9049,0.94123 c -10.30076,5.0897 -13.78658,18.01945 -7.43411,27.57493 2.87182,4.31983 7.47683,7.32385 12.63878,8.24476 1.90964,0.34069 5.56277,0.1576 7.65598,-0.38371 z m -7.92483,-6.10425 c -2.1511,-0.57846 -3.9523,-1.65092 -5.7361,-3.41534 -2.0461,-2.02387 -3.18443,-4.28653 -3.59518,-7.14616 l -0.30404,-2.11667 0.43092,-2.09849 c 0.74115,-3.60929 2.51111,-6.33079 5.33735,-8.20674 7.42516,-4.92855 17.33803,-1.17799 19.57382,7.40581 1.1951,4.58828 -0.56567,9.93836 -4.26168,12.94911 -3.35815,2.73553 -7.50527,3.68796 -11.44509,2.62848 z m 5.76357,-0.65564 c 6.46536,-1.49051 10.84889,-8.48383 9.19439,-14.66836 -1.26441,-4.72635 -4.84912,-8.01606 -9.67456,-8.87842 l -1.8715,-0.33445 -1.8715,0.33445 c -6.64073,1.18677 -11.18735,7.42629 -10.04978,13.79175 1.20165,6.72405 7.81478,11.24387 14.27295,9.75503 z m -4.65724,-1.93949 c -7.88002,-2.57467 -9.60502,-13.04357 -2.88449,-17.50576 3.44727,-2.28885 7.43466,-2.25972 10.96,0.0801 2.82254,1.87334 4.16144,4.51587 4.13176,8.15464 l -0.0174,2.13491 -0.81498,1.74156 c -1.57691,3.36978 -4.7227,5.49887 -8.37836,5.67051 -1.12334,0.0528 -2.33088,-0.0584 -2.99652,-0.27594 z m 2.83473,-1.2195 v -0.79375 h -0.92604 -0.92604 v 0.79375 0.79375 h 0.92604 0.92604 z m 3.57188,-0.17046 c 0.7276,-0.3461 1.61013,-0.87101 1.96117,-1.16648 l 0.63824,-0.53721 -0.82879,-0.71657 -0.8288,-0.71657 0.68043,-1.12448 c 0.74841,-1.2368 1.00755,-1.33122 1.91305,-0.69698 0.36536,0.2559 0.7067,0.33113 0.85041,0.18742 0.43778,-0.43778 0.84295,-3.19938 0.65413,-4.4585 l -0.18515,-1.23473 -0.50912,0.15791 c -0.28001,0.0868 -0.73925,0.22923 -1.02054,0.31641 l -0.51142,0.15851 -0.68748,-1.35668 -0.68749,-1.35669 0.80036,-0.45547 c 0.4402,-0.25051 0.80112,-0.55045 0.80204,-0.66654 0.004,-0.56629 -2.77961,-2.54084 -4.16552,-2.95428 l -0.59531,-0.1776 v 0.92826 c 0,1.16907 -0.24374,1.31298 -1.84967,1.09211 l -1.29611,-0.17826 -0.0808,-0.96937 -0.0807,-0.96937 -0.66146,0.092 c -1.04621,0.14555 -3.27718,1.2885 -3.98432,2.04121 l -0.64577,0.6874 0.72263,0.5264 0.72263,0.52641 -0.661,1.30442 c -0.36355,0.71744 -0.72444,1.30443 -0.80198,1.30443 -0.0775,0 -0.50331,-0.18737 -0.94617,-0.41638 -0.44286,-0.22902 -0.85282,-0.36876 -0.91103,-0.31055 -0.0582,0.0582 -0.22692,0.7443 -0.37491,1.52465 -0.2423,1.27762 -0.18859,2.44406 0.17331,3.76426 l 0.12636,0.46094 0.76344,-0.3948 c 0.4199,-0.21713 0.82387,-0.39479 0.89772,-0.39479 0.0739,0 0.45774,0.55195 0.85308,1.22655 l 0.71881,1.22654 -0.42015,0.29481 c -0.23108,0.16215 -0.63882,0.43994 -0.90609,0.61731 l -0.48594,0.3225 1.22369,1.14572 c 0.67302,0.63015 1.70652,1.33539 2.29666,1.56721 l 1.07299,0.42148 0.17398,-1.02981 0.17399,-1.02981 h 1.14573 c 1.7283,0 1.98275,0.17406 1.98275,1.35627 v 1.03506 l 0.72761,-0.1725 c 0.40018,-0.0949 1.32292,-0.45569 2.05052,-0.80179 z m 3.77894,-3.11626 0.29201,-0.64088 -0.63935,-0.41892 -0.63935,-0.41892 -0.44089,0.67289 -0.44089,0.67288 0.49997,0.37851 c 0.71511,0.54137 1.03621,0.48375 1.3685,-0.24556 z m -14.3119,-0.49383 0.57955,-0.32223 -0.47209,-0.62586 -0.47209,-0.62586 -0.56251,0.30105 -0.5625,0.30104 0.29908,0.65641 c 0.33933,0.74475 0.39289,0.75894 1.19056,0.31545 z m 14.48007,-7.49255 c 0.50216,-0.19269 0.54327,-0.89543 0.0878,-1.50056 l -0.33073,-0.43939 -0.62673,0.4798 -0.62673,0.4798 0.30531,0.57048 c 0.32275,0.60307 0.51512,0.66927 1.19109,0.40987 z m -14.0834,-1.03446 0.3034,-0.66591 -0.50751,-0.38401 c -0.68838,-0.52087 -0.76005,-0.50347 -1.18321,0.2872 l -0.36823,0.68806 0.50638,0.37028 c 0.7045,0.51513 0.90094,0.46864 1.24917,-0.29562 z m 7.62275,-4.0966 v -0.79375 h -0.76291 -0.7629 l -0.12526,0.65524 c -0.15545,0.81319 -0.0403,0.93226 0.90142,0.93226 h 0.74965 z m 51.25849,26.81204 17.479121,-0.17546 -2.03546,-0.68444 c -1.119501,-0.37644 -2.736121,-1.10115 -3.592481,-1.61048 -1.75825,-1.04573 -4.78014,-3.76702 -5.72689,-5.15721 l -0.62966,-0.92459 -20.79995,-0.002 -20.79995,-0.002 -0.7461,1.07661 c -1.92657,2.78004 -6.1897,6.00873 -9.57526,7.25185 l -0.9954,0.3655 14.97145,0.0186 c 8.2343,0.0103 22.83706,-0.0603 32.45058,-0.15681 z m 25.519531,-1.01492 c 1.08033,-0.22138 3.04611,-0.93977 4.44906,-1.62589 l 2.51355,-1.22927 2.39712,-2.409 c 3.85708,-3.8762 5.67706,-8.12476 5.66876,-13.2331 -0.005,-3.00962 -0.52297,-5.25046 -1.84064,-7.96132 -1.88239,-3.87268 -4.85304,-6.87532 -8.61876,-8.71156 l -1.93948,-0.94573 -6.43246,0.006 -6.43246,0.006 -1.111181,0.50446 c -2.91335,1.32264 -6.26871,4.20886 -8.09947,6.96701 -3.55761,5.35977 -4.10458,12.22915 -1.43005,17.96008 3.75563,8.04752 12.319991,12.42599 20.876011,10.6727 z m -5.86969,-5.97596 c -3.6824,-0.61557 -7.516941,-3.48689 -9.186701,-6.87904 -4.55647,-9.25656 3.37062,-20.01177 13.472791,-18.27944 7.88667,1.35241 12.69994,9.72025 9.8133,17.06034 -2.24383,5.70555 -8.14305,9.09383 -14.09939,8.09814 z m 6.61459,-1.52023 c 7.7404,-3.03231 9.95071,-13.15695 4.19978,-19.23771 -1.63471,-1.72846 -4.32448,-3.15931 -6.79949,-3.61704 l -1.67366,-0.30953 -1.88112,0.32258 c -5.19716,0.89121 -9.162251,4.91459 -10.035211,10.18272 -0.90848,5.48254 2.51907,10.94987 8.116451,12.94663 l 1.32637,0.47316 2.64584,-0.0954 c 1.90352,-0.0686 3.0541,-0.25531 4.10104,-0.66544 z m -8.0104,-1.72827 c -1.64717,-0.69426 -1.97243,-0.90357 -3.32417,-2.13907 -2.402411,-2.19584 -3.440831,-7.06087 -2.191321,-10.26641 0.32189,-0.82578 0.48424,-0.86912 1.20719,-0.32231 0.713041,0.53932 1.135411,0.48594 1.496691,-0.18912 l 0.30912,-0.57759 -0.56793,-0.45988 c -0.31236,-0.25293 -0.715161,-0.51392 -0.895121,-0.57997 -0.58312,-0.21402 1.708381,-2.29244 3.502871,-3.17714 l 1.71338,-0.84472 2.25537,-4.1e-4 2.25536,-4.2e-4 1.71979,0.81953 c 2.15694,1.02783 3.81698,2.63194 4.72245,4.56332 l 0.70151,1.49632 -5e-5,2.64583 -6e-5,2.64583 -0.77027,1.57104 c -1.66505,3.39603 -4.49726,5.21563 -8.35775,5.36957 l -2.24895,0.0897 z m 4.17394,-0.82996 v -0.79375 l -0.8599,-0.0829 -0.85989,-0.0829 v 0.95956 0.95957 l 0.85989,-0.0829 0.8599,-0.0829 z m -0.9268,-1.4552 h 1.55631 l 0.0821,0.99218 0.0821,0.99219 0.6599,-0.0937 c 0.74868,-0.10633 2.4099,-0.90535 3.54324,-1.70424 l 0.76356,-0.53823 -0.88594,-0.72307 -0.88595,-0.72307 0.51926,-0.97247 c 0.75856,-1.42062 1.01373,-1.56285 1.94233,-1.08265 0.43978,0.22742 0.85946,0.41349 0.93261,0.41349 0.49358,0 0.92209,-4.37123 0.52894,-5.39577 l -0.15808,-0.41197 -0.79836,0.41285 c -0.92954,0.48068 -1.12069,0.35422 -1.81765,-1.20249 l -0.48318,-1.07921 0.71549,-0.44725 c 0.39352,-0.24599 0.76635,-0.48453 0.8285,-0.53009 0.427,-0.31302 -2.73367,-2.68896 -4.13023,-3.10477 l -0.57763,-0.17199 -0.0838,0.87212 -0.0838,0.87211 h -1.5875 -1.5875 l -0.0811,-0.97517 -0.0811,-0.97517 -1.00296,0.35386 c -1.34122,0.47321 -2.92158,1.32688 -3.72022,2.00957 l -0.65205,0.55738 0.65205,0.50107 c 0.35863,0.27559 0.74335,0.50372 0.85495,0.50696 0.11159,0.003 -0.0988,0.60119 -0.46748,1.3288 -0.70818,1.39751 -1.00558,1.54611 -1.836511,0.91762 -0.78128,-0.59093 -0.88024,-0.50341 -1.2062,1.06675 -0.22734,1.09508 -0.22633,1.82018 0.004,2.92997 l 0.30616,1.47476 0.4402,-0.18587 c 1.227611,-0.51833 1.545781,-0.43797 2.120161,0.53554 0.7592,1.28675 0.7193,1.63658 -0.24347,2.13445 l -0.81247,0.42015 0.33423,0.40272 c 0.55287,0.66617 2.55465,1.95274 3.60915,2.31965 l 0.98886,0.34407 0.0813,-1.02053 0.0814,-1.02053 z m 7.73503,-1.80325 0.44003,-0.74491 -0.71372,-0.41926 -0.71371,-0.41925 -0.50214,0.67049 -0.50215,0.6705 0.63444,0.48779 c 0.82326,0.63296 0.84022,0.6299 1.35725,-0.24536 z m -13.90066,-0.37471 c 0.23628,-0.18211 0.24225,-0.40513 0.0237,-0.88484 -0.33515,-0.73559 -0.78811,-0.81986 -1.272121,-0.23666 l -0.33588,0.40471 0.30461,0.66854 c 0.29549,0.64852 0.491311,0.65591 1.279721,0.0482 z m 14.34455,-7.59124 0.37295,-0.2361 -0.33183,-0.80111 -0.33184,-0.80111 -0.63643,0.28998 c -0.70618,0.32176 -0.76485,0.52903 -0.36254,1.28076 0.29668,0.55435 0.70339,0.63873 1.28969,0.26758 z m -6.59066,-5.17976 v -0.66146 h -0.92604 -0.92605 v 0.66146 0.66146 h 0.92605 0.92604 z m 8.99583,8.11121 c 0,-5.41373 -3.31134,-9.3323 -8.7592,-10.36547 -1.6113,-0.30558 -3.94836,0.0237 -5.73428,0.80801 -0.62261,0.27342 -1.83709,1.16964 -2.69884,1.99161 l -1.566811,1.49449 -0.80689,1.93824 c -0.4438,1.06604 -0.8069,2.11809 -0.8069,2.3379 0,0.21981 -0.13719,0.48444 -0.30488,0.58808 -0.51866,0.32055 -0.0168,-1.97518 0.82919,-3.79277 1.00849,-2.16679 2.965401,-4.10277 5.232831,-5.17687 l 1.78349,-0.84485 h 2.64583 2.64584 l 1.77888,0.84269 c 4.31756,2.04532 7.01177,6.65186 6.41751,10.97262 -0.27231,1.97993 -0.65577,1.51583 -0.65577,-0.79368 z m -39.161201,9.81431 c -0.002,-0.10914 -0.18555,-0.79375 -0.40885,-1.52136 -0.6048,-1.97078 -1.1726,-6.06856 -1.17316,-8.46666 -9.4e-4,-4.01358 1.06158,-8.65729 2.73738,-11.9636 0.38477,-0.75915 0.69958,-1.44376 0.69958,-1.52136 0,-0.0776 -4.93208,-0.14108 -10.96018,-0.14108 h -10.96018 l 1.2865,2.44739 c 0.70758,1.34607 1.61368,3.51896 2.01355,4.82865 l 0.72703,2.38125 c 0.52559,3.349599 0.48743,6.417323 0,9.26041 l -0.71065,2.31911 c -0.39086,1.2755 -0.71065,2.37683 -0.71065,2.44739 0,0.0706 3.92906,0.1283 8.73125,0.1283 4.80218,0 8.72996,-0.0893 8.72838,-0.19844 z m -12.69713,-9.45886 c 0,-1.4993 0.10676,-2.51354 0.26458,-2.51354 0.15782,0 0.26458,1.01424 0.26458,2.51354 0,1.49931 -0.10676,2.51355 -0.26458,2.51355 -0.15782,0 -0.26458,-1.01424 -0.26458,-2.51355 z m 3.83443,1.12448 c -0.22757,-1.83364 -0.0781,-3.43849 0.33275,-3.57347 0.24914,-0.0818 0.33073,0.51692 0.33073,2.42695 0,2.73682 -0.3838,3.40005 -0.66348,1.14652 z m 4.10307,-1.12448 c 0,-1.4993 0.10676,-2.51354 0.26458,-2.51354 0.15782,0 0.26458,1.01424 0.26458,2.51354 0,1.49931 -0.10676,2.51355 -0.26458,2.51355 -0.15782,0 -0.26458,-1.01424 -0.26458,-2.51355 z m 21.35687,-15.63665 c 0.49589,-0.37823 1.51644,-1.09261 2.2679,-1.5875 l 1.36628,-0.8998 h -25.41857 c -13.98021,0 -26.8681,0.0779 -28.63974,0.1732 l -3.22117,0.1732 1.2614,0.73648 c 0.69377,0.40507 1.61859,1.03722 2.05515,1.40479 l 0.79375,0.6683 24.31669,0.01 24.3167,0.01 z"
       id="path2-7"
       sodipodi:nodetypes="cssscssscccccccccsscsscsscsscccccccccsscssccccccsssccccssscsssssssscssssssssssssssssssssscssssssssssssscccssscccsssssssssssssssssscccccccssccssscssscsccccccsscssscccccccsccssssssssssssscssscssccssssscsscccsscccsssssssssscccssssssscsssssssscssssssscsssscccccccccsscccsssscsscccscscsscccsscccsssssscssscsscsscccsscsssscccccssscccccsssscccsssscsscssccccssccccssscccsscccccscscsscccsssccsssssssscssscsssssssscssscccsscccsscscccccccccccccsscccsssscsscssscccccccsscscsssccssscssccccscccccsscsscsccscccssscccccccccsssscssssscccssscssssscssccssscsssssssssssssscscsscsscccc" /><path
       id="path1-6"
       style="fill:#000000"
       d="m -152.57105,22.528857 c -0.92232,0.008 -1.69924,0.42688 -2.90525,1.37201 -1.00543,0.78795 -3.06562,4.659574 -4.03903,7.590234 l -0.45062,1.35754 -0.28577,1.283126 -0.22117,1.144116 c -0.55001,2.84582 -0.0388,6.586847 1.12344,8.219137 0.65773,0.9237 2.36805,1.774836 3.58325,1.782836 0.99036,0.007 3.25849,-0.798186 5.01468,-1.779736 1.37359,-0.76772 4.63954,-3.747127 4.12326,-3.761527 -0.1819,-0.005 -0.33073,0.109761 -0.33073,0.255281 0,0.14552 -0.12597,0.264584 -0.28008,0.264584 -0.1541,0 -0.19526,-0.137398 -0.0915,-0.305408 0.21063,-0.34079 -0.0971,-0.188544 -1.28571,0.634586 -1.22823,0.85057 -1.30441,0.402067 -0.15917,-0.936893 0.59718,-0.6982 1.02367,-1.331133 0.94827,-1.406633 -0.0755,-0.0755 -0.83797,0.555065 -1.69499,1.401465 -1.7037,1.68258 -3.03164,2.569278 -4.42247,2.953308 -0.91476,0.25258 -2.56818,0.0691 -2.56418,-0.284737 10e-4,-0.10646 -0.18823,-0.642285 -0.42065,-1.190625 -0.67215,-1.58598 -0.54338,-7.361917 -0.40721,-8.008297 l 0.17983,-0.992187 c 0.28321,-1.56522 1.49267,-3.174567 3.75068,-4.989877 l 0.49403,-0.396875 -0.66146,0.310059 c -0.36381,0.17054 -1.16748,0.796773 -1.78594,1.392163 -1.23796,1.19177 -1.54446,0.850471 -0.50333,-0.560689 1.31993,-1.78907 3.80242,-3.33726 4.89324,-3.05201 0.76842,0.20095 0.7187,0.456158 -0.15658,0.802018 l -0.7276,0.287321 0.84181,0.02791 c 0.59487,0.0199 0.89156,0.183569 1.01027,0.557589 0.24196,0.76235 1.09976,1.174129 1.38493,0.664559 0.16906,-0.3021 0.4104,-0.0476 1.00614,1.060917 1.4502,2.69838 2.34535,1.106077 0.94155,-1.674833 -0.91506,-1.81273 -2.25176,-3.033063 -3.96049,-3.615283 -0.7826,-0.26666 -1.38809,-0.409824 -1.94148,-0.405144 z m 50.36644,0.287838 c -1.07884,-7.5e-4 -2.35181,0.462059 -4.10983,1.388029 -1.58269,0.83362 -2.50208,1.559959 -3.81217,3.012219 -2.03073,2.25111 -3.06875,3.752499 -3.66386,5.300969 -0.23769,0.61846 -0.50488,1.124479 -0.59428,1.124479 -0.1998,0 -0.28141,0.860495 -0.32711,3.450435 l -0.0351,1.994711 0.54932,1.077453 c 0.30233,0.59262 1.16402,1.629929 1.91461,2.304769 l 1.36478,1.227315 h 1.10329 c 1.55206,0 4.49826,-1.480447 6.04924,-3.039607 0.69122,-0.69487 1.25677,-1.357245 1.25677,-1.471745 0,-0.11451 0.40651,-0.459322 0.90331,-0.766362 1.68786,-1.04316 3.840677,-5.423193 4.275187,-8.698693 0.27226,-2.05243 -0.449365,-4.114062 -1.928565,-5.511292 -0.982162,-0.92796 -1.866712,-1.39193 -2.945552,-1.39268 z m -16.57625,0.903821 -0.66146,0.04703 c -0.3638,0.0258 -1.19724,0.183996 -1.85209,0.351916 -0.65484,0.16792 -1.48828,0.300589 -1.85208,0.295589 -2.31824,-0.034 -6.99322,3.435545 -7.92251,5.879745 -0.15397,0.40499 -0.2763,1.115761 -0.2713,1.579231 l 0.009,0.842326 0.46819,-1.354956 c 0.47031,-1.3607 1.50805,-2.817602 2.50682,-3.519682 0.37268,-0.26197 0.26019,0.02039 -0.36845,0.926042 l -0.90434,1.302763 0.0253,1.681551 0.0253,1.682068 c 0.004,0.26803 0.0816,0.405669 0.0816,0.472839 v 0.439767 c 0,0.98524 1.30299,2.667397 2.50269,3.231327 1.857,0.87289 2.60977,0.755909 3.98684,-0.621151 0.65101,-0.65101 1.18339,-1.305858 1.18339,-1.455208 0,-0.14935 0.10778,-0.271818 0.23926,-0.271818 0.55994,0 0.85843,6.390117 0.45424,9.723437 h -5.2e-4 c -0.16603,1.36901 -0.14814,1.91823 0.0615,1.91823 0.31447,0 0.44315,-0.451144 0.7059,-2.471684 0.0873,-0.67154 0.19425,-1.189656 0.24443,-1.193726 h 5.1e-4 5.2e-4 c 1e-4,2e-5 0.001,4e-4 0.002,5.17e-4 h 5.2e-4 5.1e-4 5.2e-4 c 2.3e-4,1.22e-4 0.001,8.62e-4 0.002,0.001 2.8e-4,2.14e-4 7.8e-4,7.83e-4 0.001,10e-4 3e-4,2.5e-4 8e-4,7.74e-4 0.001,10e-4 0.1,0.10656 0.38041,2.003041 0.39481,2.670121 0.005,0.25466 0.11664,0.463021 0.24701,0.463021 0.13255,0 0.23701,-2.594629 0.23668,-5.886979 -7.1e-4,-7.04013 0.12941,-9.306905 0.5643,-9.830925 0.6156,-0.74175 1.59772,-6.507096 1.10846,-6.507096 -0.14211,0 -0.33393,0.238126 -0.42633,0.529166 -0.24023,0.75688 -0.61203,0.652963 -0.71003,-0.198437 z m 16.52612,0.132292 c 0.81336,0 2.17395,0.609294 2.655135,1.189074 0.74133,0.89325 0.121105,5.508786 -1.119825,8.335926 -2.11065,4.80858 -3.7583,6.999604 -6.16138,8.192264 -1.37322,0.68153 -2.77193,0.970119 -2.77193,0.572059 0,-0.16371 0.18365,-0.297657 0.40773,-0.297657 0.8389,0 2.65876,-1.17324 4.02353,-2.59364 2.8671,-2.98395 4.54895,-6.427033 5.402767,-11.060823 l 0.301273,-1.63556 -0.51831,-0.887801 -0.51884,-0.887801 -1.53944,0.06201 c -2.64849,0.10642 -5.33915,1.785978 -7.52977,4.700488 l -0.59635,0.79375 0.61444,-1.190625 c 1.00777,-1.95225 3.54705,-4.311564 5.20898,-4.840014 0.78069,-0.24824 1.74449,-0.451652 2.14199,-0.451652 z m -19.24069,1.531689 0.65888,0.299723 0.65836,0.30024 -0.18656,1.249537 c -0.82262,5.509724 -2.1861,6.763139 -2.1861,6.763139 l -0.5884,0.69377 c -0.31509,0.44251 -0.77296,0.906888 -1.01751,1.031978 -0.24454,0.1251 -0.6367,0.41429 -1.02572,0.50719 l -0.8336,0.05815 c -1.30161,-0.779607 -1.71417,-1.89206 -1.87333,-3.417362 -0.0769,-0.655564 0.0637,-3.458866 0.54318,-4.247286 0.62881,-1.034 2.60161,-2.292021 4.43022,-2.825151 z m 19.20865,0.06098 c 0.75932,7.7e-4 1.41538,0.133229 1.63504,0.397909 0.47401,0.57115 0.18155,3.213899 -0.64389,5.816699 -1.16127,3.66175 -3.7327,7.354411 -6.07249,8.719881 -0.60162,0.35109 -1.41262,0.758411 -1.80248,0.905371 l -0.709,0.267167 -0.8785,-0.592728 -0.87901,-0.592729 -0.0284,-1.576648 c -0.0414,-2.27522 0.34094,-5.375402 0.81753,-6.625952 0.50513,-1.32545 4.90793,-5.739639 6.30814,-6.324679 0.6314,-0.26378 1.49377,-0.395071 2.25309,-0.394291 z m 4.12378,1.967839 h 5.16e-4 5.17e-4 5.17e-4 5.17e-4 c 0.0182,-10e-4 0.03866,0.02351 0.06046,0.07751 0.0734,0.1819 0.0734,0.479559 0,0.661459 -0.0734,0.1819 -0.133325,0.0331 -0.133325,-0.330729 0,-0.25182 0.0288,-0.400814 0.0708,-0.408244 z m -13.5909,3.847827 c 0.15408,0 0.20669,0.119063 0.11679,0.264583 -0.0899,0.14552 -0.21589,0.264584 -0.28009,0.264584 -0.0642,0 -0.11679,-0.119064 -0.11679,-0.264584 0,-0.14552 0.12598,-0.264583 0.28009,-0.264583 z m -0.65836,1.177706 c 0.11502,-0.002 0.12553,0.22015 -0.0124,0.65474 -0.0958,0.30201 -0.34731,0.548804 -0.55914,0.548804 h -0.38499 l 0.43873,-0.669727 c 0.23379,-0.35675 0.41631,-0.532247 0.5178,-0.533817 z m -0.62373,1.544092 c 0.0101,-3.6e-4 0.0201,-4.9e-4 0.03,0 0.26321,0.0132 0.4344,0.327482 0.28163,0.806152 -0.10059,0.31518 -0.25438,1.499444 -0.34158,2.631364 l -0.15864,2.057755 -0.33073,-0.532784 c -0.44814,-0.72232 -0.42939,-4.008041 0.0264,-4.631241 0.16343,-0.22351 0.34128,-0.325816 0.493,-0.331246 z m -21.75268,2.664436 c -0.12667,4e-4 -0.24947,0.02869 -0.35192,0.09199 -0.16757,0.10357 -1.38002,-0.02515 -2.03605,0.02325 -1.45828,0.1075 -1.31568,0.485959 -1.31568,0.840259 0,0.29413 3.36414,0.386588 4.07934,0.112138 0.23018,-0.0883 0.41857,-0.313605 0.41857,-0.500745 0,-0.3173 -0.41427,-0.568111 -0.79426,-0.566891 z m -8.59844,0.609782 -0.48938,0.178801 c -0.65652,0.2401 -1.99088,1.306537 -2.00918,1.605587 -0.008,0.13169 0.2031,0.0424 0.46922,-0.198438 0.26612,-0.24084 0.60452,-0.438216 0.75241,-0.438216 0.14789,0 0.49586,-0.258405 0.77308,-0.574125 z m -16.21917,0.04444 h 5.2e-4 c 2.5e-4,-3.1e-5 7.8e-4,-5e-6 0.001,0 0.064,0.002 0.18185,0.46393 0.31574,1.27124 0.55055,3.31948 2.31883,5.216872 4.72375,5.068942 1.28511,-0.079 1.62007,0.112479 0.79323,0.453719 -0.84616,0.34919 -2.04213,0.54455 -2.70836,0.44235 -1.38079,-0.2118 -2.07648,-1.027874 -2.75332,-3.231844 -0.35443,-1.1541 -0.60411,-2.308675 -0.55501,-2.565735 0.0491,-0.25706 0.11118,-0.824852 0.13798,-1.261422 0.007,-0.11494 0.0218,-0.172323 0.0429,-0.176733 5e-4,-1.05e-4 0.001,-4.11e-4 0.002,-5.17e-4 z m 1.59112,2.128036 c 0.064,3.91e-4 0.20134,0.26083 0.3545,0.695048 0.2053,0.58208 0.49545,1.266694 0.64492,1.521354 0.14949,0.25466 0.16453,0.463021 0.0336,0.463021 -0.28965,0 -1.09663,-1.948136 -1.07073,-2.584856 0.002,-0.061 0.0146,-0.09135 0.0346,-0.09405 9.8e-4,-1.25e-4 0.002,-5.23e-4 0.003,-5.16e-4 z m 61.663418,49.991263 v 5.17e-4 c -0.76012,0.031 -1.826426,0.35056 -2.982246,0.91829 -1.988362,0.97665 -1.743072,1.837038 1.002006,3.517098 l 0.899686,0.550871 -0.788065,0.663009 c -0.43348,0.36474 -1.575693,0.998019 -2.538349,1.407149 -0.96264,0.40912 -1.75028,0.865798 -1.75028,1.014408 0,0.14861 0.19739,0.48784 0.43822,0.75396 0.24084,0.26612 0.75753,0.483691 1.14876,0.483691 0.87608,0 3.498697,-0.884711 4.667937,-1.574581 l 0.86713,-0.51108 0.910539,0.910539 c 0.868511,0.86846 1.482534,1.060621 2.947624,0.921391 0.83214,-0.0791 2.48349,-1.27159 3.05201,-2.204 0.91239,-1.49638 0.491994,-3.993208 -0.788066,-4.678268 -1.22692,-0.65663 -3.799475,-0.121017 -5.160925,1.074353 l -0.89762,0.788583 -1.215429,-0.856795 -1.21543,-0.856796 0.995288,-0.484208 c 0.54765,-0.26638 1.174647,-0.666575 1.393197,-0.888835 l 0.397392,-0.403592 -0.472323,-0.350883 c -0.1448,-0.10746 -0.350064,-0.169803 -0.604614,-0.189653 -0.0955,-0.007 -0.197852,-0.0092 -0.306442,-0.0052 z m -20.561018,0.590662 c -0.25872,-0.005 -0.4129,0.260952 -0.4129,0.785482 0,0.4391 -0.24502,1.929966 -0.54466,3.312976 -0.62308,2.87587 -0.60468,4.440873 0.0543,4.565613 0.30543,0.0578 0.57354,-0.277912 0.89606,-1.122412 0.25306,-0.66262 0.54377,-1.204578 0.64596,-1.204578 0.10219,0 0.88946,0.649523 1.74976,1.443323 0.86031,0.79381 1.64663,1.448208 1.74718,1.455208 0.8458,0.0552 -0.28043,-2.292591 -1.77198,-3.693831 l -0.67334,-0.63252 1.7632,-1.777152 c 1.23653,-1.24608 1.71372,-1.907072 1.5968,-2.211752 l -0.1664,-0.434598 -0.99477,0.733805 c -0.54704,0.40371 -1.45158,1.134523 -2.01022,1.623673 -0.55864,0.48916 -1.06996,0.834829 -1.13636,0.768429 -0.0664,-0.0664 0.0186,-0.674746 0.18914,-1.351856 l 0.31005,-1.230932 -0.47128,-0.520899 c -0.30456,-0.33654 -0.56928,-0.504179 -0.7705,-0.507979 z m 36.594148,0.01602 c -0.1377,-7.8e-4 -0.285119,0.230655 -0.402559,0.698665 -0.10042,0.40018 -0.447302,1.378824 -0.771012,2.174544 l -0.588595,1.446424 -0.424264,-1.015959 c -0.23349,-0.55883 -0.428048,-1.150002 -0.433048,-1.314132 -0.005,-0.16413 -0.197014,-0.536816 -0.427364,-0.827856 -0.31835,-0.40222 -0.451118,-0.442605 -0.552938,-0.168465 l -0.133842,0.360701 -0.224792,-0.360701 c -0.43955,-0.70451 -1.10305,0.171371 -2.13062,2.812231 -1.12123,2.88155 -1.158575,3.06494 -0.714685,3.50883 0.66429,0.66428 1.775426,-0.520065 2.359546,-2.514575 0.18113,-0.61847 0.406345,-1.124479 0.500745,-1.124479 0.0944,0 0.572517,0.828451 1.062467,1.841231 0.98719,2.04061 1.430079,2.395748 1.899109,1.522388 0.52346,-0.9747 1.468774,-5.382249 1.341004,-6.252849 -0.0765,-0.52135 -0.212562,-0.785158 -0.359152,-0.785998 z m -29.073678,0.198954 c -0.004,-1.2e-4 -0.009,2.43e-4 -0.0134,5.17e-4 -0.11245,0.007 -0.2293,0.137909 -0.33641,0.417029 -0.33713,0.87856 -1.29365,7.547395 -1.13998,7.947835 0.35591,0.92751 1.12096,-0.373619 1.73994,-2.957959 0.35945,-1.50072 0.59764,-1.800746 1.63401,-2.060856 l 0.68627,-0.172083 0.28267,0.746208 c 0.15535,0.41045 0.34768,1.215658 0.42788,1.789038 0.0802,0.57338 0.38957,1.285646 0.68729,1.583366 l 0.54106,0.541569 0.4594,-0.288355 c 0.33688,-0.21143 0.47703,-0.704306 0.52503,-1.848466 0.11049,-2.63218 0.29402,-3.278514 1.00718,-3.549654 1.18777,-0.45159 0.70511,-2.111499 -0.61392,-2.111499 -0.95039,0 -4.42138,1.697615 -4.9165,2.404505 l -0.43718,0.623734 v -1.09554 c 0,-1.175629 -0.25132,-1.961809 -0.5333,-1.969389 z m -31.35312,0.01033 c -0.30326,0.03988 -1.84137,5.742881 -2.12029,7.869287 l -0.17828,1.361158 0.48989,0.284737 c 0.6224,0.361764 0.83535,0.363134 2.45877,0.01499 1.50207,-0.32214 1.89582,-0.6979 1.2361,-1.18029 l -0.44804,-0.327628 -1.2237,0.367936 c -0.66768,0.20092 -1.23411,0.336474 -1.26607,0.302824 v -5.17e-4 l -5.2e-4,-5.17e-4 c -0.0237,-0.0366 0.0581,-0.550766 0.1819,-1.142566 l 0.2248,-1.075903 1.31723,-0.337447 c 0.86258,-0.22107 1.31671,-0.478048 1.31671,-0.744658 0,-0.31244 -0.1998,-0.373356 -0.85989,-0.262516 -0.47294,0.0794 -1.05463,0.221343 -1.29295,0.315743 l -0.43356,0.172083 0.4191,-1.418002 0.41961,-1.417484 1.84743,-0.517798 c 1.01612,-0.28461 1.89992,-0.679533 1.96422,-0.877983 l 0.11679,-0.360701 -1.86397,0.187069 -1.86448,0.187068 -0.0858,-0.694531 c -0.0474,-0.382 -0.20536,-0.69935 -0.35088,-0.70435 -9e-4,-3.6e-5 -0.002,-8e-5 -0.004,0 z m -22.00693,0.290939 -0.1664,3.373437 c -0.0917,1.85539 -0.28807,3.786658 -0.43615,4.291728 l -0.26923,0.91829 0.36949,0.369487 0.36897,0.369486 1.94406,-0.939478 1.94407,-0.93896 0.65784,-1.075904 c 0.36178,-0.59189 0.74683,-1.07642 0.85576,-1.07642 0.20708,0 0.0404,2.415719 -0.22582,3.274219 -0.0855,0.27569 2.2e-4,0.591044 0.19275,0.710034 0.50996,0.315178 0.65971,0.131884 1.0356,-1.265556 0.41815,-1.55458 0.44055,-1.578822 1.5999,-1.791622 l 0.94051,-0.172599 0.25011,0.991671 c 0.37112,1.47282 0.96896,1.518956 0.89866,0.06925 -0.0308,-0.63458 0.0366,-1.374477 0.14934,-1.643827 0.12117,-0.28936 0.0854,-0.563297 -0.0868,-0.669727 -0.1603,-0.0991 -0.46748,-0.831024 -0.68264,-1.626774 -0.58463,-2.16216 -1.03165,-3.166731 -1.40973,-3.166731 -0.18638,0 -0.339,0.189986 -0.339,0.422196 0,0.23221 -0.17051,0.738219 -0.37931,1.124479 -0.2088,0.38625 -0.58238,1.267824 -0.82992,1.959054 -0.547,1.52749 -1.04717,1.613888 -1.27021,0.219108 -0.0913,-0.57082 -0.48603,-1.417983 -0.87695,-1.882573 -0.74939,-0.8906 -2.62733,-1.842264 -3.63595,-1.842264 z m -20.83904,0.288871 c -0.39225,0.003 -0.84377,0.16231 -1.36064,0.47749 l -0.81907,0.499194 -0.19172,1.682585 c -0.10519,0.92525 -0.24306,2.336906 -0.30696,3.137276 -0.0639,0.80036 -0.17048,1.946001 -0.23668,2.545581 -0.0662,0.59958 -0.0356,1.17585 0.0682,1.28105 0.32058,0.32499 2.22282,-0.0567 2.944,-0.590653 1.01756,-0.75344 1.90956,-2.200844 1.82056,-2.953824 -0.0465,-0.39372 -0.41839,-0.890582 -0.91829,-1.226282 l -0.84077,-0.564307 0.63407,-1.031978 c 0.74781,-1.21705 0.81697,-2.128679 0.21239,-2.796729 -0.27985,-0.30921 -0.61286,-0.462333 -1.00511,-0.459403 z m 48.49317,0.01137 c -0.0517,0.002 -0.095,0.01704 -0.12248,0.04444 -0.27945,0.27945 -0.89318,3.093681 -1.10432,5.064291 l -0.22066,2.056205 0.36328,0.363285 c 0.38616,0.38616 1.69869,0.338891 4.3031,-0.155029 0.76816,-0.14568 1.44003,-0.2651 1.49293,-0.2651 0.0529,0 0.0961,-0.178595 0.0961,-0.396875 0,-0.47283 -0.16163,-0.479652 -2.78536,-0.114722 -1.11643,0.15523 -2.08364,0.228264 -2.14974,0.162264 -0.0661,-0.0661 0.0643,-1.175196 0.28991,-2.464966 0.48185,-2.75473 0.51923,-3.967261 0.1297,-4.208011 -0.097,-0.0599 -0.20621,-0.08978 -0.29248,-0.08578 z m -11.3683,0.19482 -0.35915,0.298173 c -0.19752,0.16392 -0.4416,1.069617 -0.54261,2.012797 l -0.18396,1.714624 -0.88574,-1.345138 c -0.98777,-1.49985 -1.54116,-2.117183 -1.89704,-2.117183 -0.276,0 -0.78628,0.948262 -0.92552,1.719792 -0.0525,0.29105 -0.25587,0.493168 -0.45217,0.449068 -0.58664,-0.13168 -0.78921,0.529197 -0.39533,1.290877 0.25031,0.4841 0.31759,1.147174 0.20877,2.066024 -0.0926,0.7812 -0.0557,1.353406 0.0879,1.353406 0.54985,0 0.87938,-0.707133 1.19011,-2.556433 0.17943,-1.06783 0.39204,-1.937182 0.47284,-1.932182 0.0808,0.005 0.62301,0.78503 1.2051,1.73271 1.17907,1.91961 2.08102,2.891269 2.46393,2.654619 0.14285,-0.0882 0.19497,-0.889933 0.11937,-1.831413 -0.0739,-0.92088 -3.7e-4,-2.298659 0.1633,-3.061829 0.21293,-0.99275 0.21688,-1.538452 0.014,-1.917712 z m -15.60525,0.387056 c 0.21735,-0.0106 0.60188,0.121581 1.17874,0.392741 1.57651,0.74105 2.02778,1.247991 2.02778,2.278931 0,0.86064 -0.95903,2.577872 -1.82004,3.259232 -0.23597,0.18673 -0.65322,0.469656 -0.92759,0.628386 l -0.49868,0.288354 0.185,-0.737422 c 0.17919,-0.71394 0.67399,-4.633949 0.67799,-5.371249 l 0.002,-0.362768 -0.39377,0.326595 -0.39378,0.326595 -0.16795,-0.4377 c -0.14743,-0.38419 -0.1161,-0.579705 0.13023,-0.591695 z m 18.3255,0.07183 c -0.33168,-0.005 -0.96546,2.370148 -1.24024,5.302518 l -0.1881,2.005046 0.36225,0.223759 c 0.2019,0.12479 0.46809,0.11848 0.601,-0.01447 0.26632,-0.26631 0.64981,-3.791106 0.67541,-6.208406 0.01,-0.91118 -0.0755,-1.306567 -0.21032,-1.308447 z m -32.52257,0.159163 c -0.01,-3.5e-4 -0.0192,-2.23e-4 -0.0289,5.17e-4 -0.33696,0.0255 -0.80437,0.697498 -1.40611,2.020548 l -0.52297,1.149801 -0.38447,-0.549321 c -0.21153,-0.30201 -0.56177,-0.972755 -0.77825,-1.490865 -0.43852,-1.04953 -0.90688,-1.004713 -0.90588,0.08682 8.8e-4,0.63469 0.35033,1.33473 1.36684,2.7373 l 0.31729,0.4377 -0.84233,1.711523 c -0.92251,1.87389 -1.00376,2.305594 -0.52244,2.786914 l 0.32039,0.32091 0.4377,-0.46612 c 0.24049,-0.25628 0.75244,-1.500564 1.13791,-2.764694 0.38548,-1.26414 1.05452,-3.046055 1.48673,-3.959965 0.54721,-1.15697 0.70143,-1.744505 0.50798,-1.934765 -0.0559,-0.055 -0.11695,-0.0839 -0.18345,-0.0863 z m 86.154434,1.218013 c 0.50039,0.0103 0.834574,0.303905 0.834574,0.833025 0,0.71055 -1.276277,2.135367 -2.293917,2.560567 -1.04317,0.43586 -0.966993,0.433428 -1.357023,0.04341 -0.17463,-0.17463 -0.315676,-0.680649 -0.313676,-1.124479 0.003,-0.58706 0.0696,-0.703704 0.24443,-0.427364 l 0.240295,0.379822 0.420646,-0.348816 c 0.23129,-0.19196 0.389183,-0.52462 0.350883,-0.73949 -0.0384,-0.21541 0.333894,-0.609886 0.829924,-0.879016 0.38363,-0.20815 0.743624,-0.303847 1.043864,-0.297657 z m -64.592444,0.191203 0.14987,0.524516 c 0.0825,0.28867 0.22829,0.911988 0.32349,1.384928 l 0.17312,0.859896 h -0.39636 c -0.21794,0 -0.57261,0.0677 -0.78807,0.150379 -0.65099,0.2498 -0.66523,-0.214733 -0.0486,-1.601453 z m 56.03276,3.384807 c 0.0279,-5.2e-4 0.04744,0.004 0.05684,0.01292 0.0515,0.0514 -0.178087,0.268758 -0.510047,0.482658 -0.80529,0.5189 -2.323373,1.028397 -2.323373,0.779797 0,-0.20427 2.357656,-1.267464 2.776576,-1.275374 z m -85.24906,0.733288 c 0.56162,-0.0128 0.55237,0.241967 0.0413,0.971517 -0.22574,0.32229 -0.64246,0.710193 -0.92604,0.861963 l -0.51573,0.275952 0.0263,-0.472322 c 0.0587,-1.05087 0.38602,-1.532622 1.09813,-1.615922 0.10373,-0.0121 0.19572,-0.01939 0.27595,-0.02119 z"
       sodipodi:nodetypes="ssccccscscsscsscssccccccsssscccsscsscscssscccccssssscsccscscccsccccssssssccsccccccccccccsssscccsscssssccccccccsscccsccsccscccsssccccccscsccccscsscsssssccscccscsccssssccsssccccssccsccscsscscsccssscsccsscccsssccccssscccccccccccsssssscccscccssccccsscccsscccscssssssscssscccsccccssccsscccsssccccccscssccccccccccsscccsccccccsssssccscssssssssscccccsscssccsccccccssssccsccsccccsscscssssccsscsssscccccccsscccccccscsccscccccccscsssssscsccssscsscscccscssscsccssccsscsscsssssscccsss" /></g></svg>
