<?xml version="1.0" encoding="UTF-8" standalone="no"?>
<!-- Created with Inkscape (http://www.inkscape.org/) -->

<svg
   width="87.492126mm"
   height="10.55155mm"
   viewBox="0 0 87.492126 10.55155"
   version="1.1"
   id="svg1"
   inkscape:version="1.4 (86a8ad7, 2024-10-11)"
   sodipodi:docname="maybeaghoststory.svg"
   xmlns:inkscape="http://www.inkscape.org/namespaces/inkscape"
   xmlns:sodipodi="http://sodipodi.sourceforge.net/DTD/sodipodi-0.dtd"
   xmlns="http://www.w3.org/2000/svg"
   xmlns:svg="http://www.w3.org/2000/svg">
  <sodipodi:namedview
     id="namedview1"
     pagecolor="#ffffff"
     bordercolor="#666666"
     borderopacity="1.0"
     inkscape:showpageshadow="2"
     inkscape:pageopacity="0.0"
     inkscape:pagecheckerboard="0"
     inkscape:deskcolor="#d1d1d1"
     inkscape:document-units="mm"
     inkscape:zoom="4.0668163"
     inkscape:cx="168.31348"
     inkscape:cy="75.857864"
     inkscape:window-width="3840"
     inkscape:window-height="1009"
     inkscape:window-x="-8"
     inkscape:window-y="-8"
     inkscape:window-maximized="1"
     inkscape:current-layer="layer1" />
  <defs
     id="defs1" />
  <g
     inkscape:label="Layer 1"
     inkscape:groupmode="layer"
     id="layer1"
     transform="translate(-63.829743,-134.47125)">
    <path
       style="font-size:10.5833px;line-height:1.25;font-family:'Fragment Core';-inkscape-font-specification:'Fragment Core';text-align:center;letter-spacing:0px;text-anchor:middle;stroke-width:0.264583"
       d="m 63.829743,142.05948 h 2.815158 l 0.08467,-0.15875 -0.116416,-0.10583 -1.132413,-0.0529 -0.07408,-0.0953 v -6.2759 l 0.0635,-0.0635 1.269996,1.72508 0.05292,0.0423 0.709081,0.99483 0.04233,0.0317 0.09525,0.13759 0.222249,0.22225 0.148167,-0.0423 1.746244,-2.33891 0.04233,-0.0318 0.539748,-0.71966 h 0.05292 v 6.41348 h -0.560915 l -0.709081,0.0529 v 0.26458 h 2.846908 l 0.08467,-0.16933 -0.148166,-0.14817 h -1.174746 v -6.82623 l 1.174746,-0.0423 0.148166,-0.14817 -0.08467,-0.15875 h -1.471079 l -2.582325,3.47132 -1.661578,-2.22249 -0.04233,-0.0317 -0.05292,-0.0952 -0.814914,-1.06891 -1.322912,-0.0529 -0.1905,0.0635 v 0.24342 l 1.206496,0.0423 v 6.82623 h -0.264582 l -0.941914,0.0529 z m 9.73663,0.10583 0.497415,0.0635 h 0.412749 l 0.486832,-0.15875 0.444498,-0.33866 0.0635,0.45508 h 0.253999 l 0.04233,-2.92099 -0.0635,-0.70908 -0.254,-0.45509 -0.264582,-0.26458 -0.539748,-0.17991 h -0.433916 l -0.539748,0.27516 -0.412749,0.40217 -0.169333,0.34925 v 0.3175 h 0.22225 l 0.380999,-0.70909 0.455081,-0.26458 h 0.592665 l 0.380999,0.17992 0.201083,0.30691 0.09525,0.40217 v 0.47625 l -0.306915,-0.127 -0.497415,-0.0741 -0.687915,0.10584 -0.613831,0.24341 -0.455082,0.45509 -0.179916,0.26458 -0.137583,0.41275 v 0.48683 l 0.09525,0.26458 0.328082,0.43392 z m -0.127,-0.40216 -0.402165,-0.27517 -0.179916,-0.37041 v -0.46567 l 0.306916,-0.52917 0.465665,-0.38099 0.687914,-0.20109 h 0.613832 l 0.349249,0.20109 0.137582,0.42333 v 0.6985 l -0.211666,0.55033 -0.338665,0.32808 -0.391582,0.127 h -0.677331 z m 3.608908,3.1644 0.09525,0.0952 h 0.264583 l 0.507998,-0.15875 0.465666,-0.46566 2.338909,-6.25473 0.99483,-0.0423 0.07408,-0.0741 v -0.0952 l -0.07408,-0.0953 h -2.24366 l -0.09525,0.0953 0.0635,0.16933 0.888998,0.0423 -1.31233,3.23849 -0.105833,-0.10584 -0.603248,-1.55574 -0.05292,-0.0847 -0.582082,-1.49224 0.857248,-0.0423 0.07408,-0.0741 v -0.0952 l -0.07408,-0.0953 h -2.24366 l -0.09525,0.0953 v 0.0952 l 0.09525,0.0741 1.015997,0.0423 1.523995,3.84174 -0.613831,1.94732 -0.232833,0.47625 -0.444498,0.254 -0.423332,0.0952 z m 6.805054,-2.74107 0.539748,0.0423 h 0.402166 l 0.634998,-0.23283 0.476248,-0.47625 0.402165,-0.77258 0.127,-0.77258 -0.127,-0.83608 -0.359832,-0.71967 -0.518581,-0.51858 -0.486832,-0.1905 h -0.825498 l -0.550331,0.26459 -0.391582,0.41274 -0.09525,0.127 h -0.09525 l -0.03175,-3.82057 -0.09525,-0.0741 h -1.21708 v 0.22225 l 0.09525,0.0741 h 0.89958 l 0.05292,7.04848 0.0635,0.127 1.005413,0.0952 z m -0.285749,-0.34925 h -0.582082 v -2.25424 l 0.232833,-0.66675 0.179916,-0.26458 0.518582,-0.52917 0.423332,-0.0952 h 0.486831 l 0.476249,0.20108 0.391582,0.39159 0.338666,0.73024 0.05292,0.55034 -0.05292,0.70908 -0.433916,0.80433 -0.402165,0.32808 -0.370416,0.127 -0.391582,0.0529 z m 5.132899,0.4445 h 0.709081 l 0.582081,-0.14817 0.455082,-0.29633 0.317499,-0.62442 v -0.37041 h -0.222249 l -0.232833,0.53975 -0.211666,0.29633 -0.455081,0.24342 -0.634998,0.0635 -0.423332,-0.0952 -0.370416,-0.1905 -0.529165,-0.508 -0.296332,-0.71967 v -0.83608 h 3.280823 l 0.137583,-0.14816 -0.0635,-0.78317 -0.201083,-0.41275 -0.317499,-0.31749 -0.455082,-0.22225 h -1.068913 l -0.571498,0.1905 -0.571498,0.47624 -0.338666,0.58209 -0.148166,0.41274 v 1.06892 l 0.0635,0.29633 0.349248,0.6985 0.455082,0.45508 z m -1.174746,-3.14324 0.253999,-0.49742 0.550331,-0.41275 0.539749,-0.15875 h 0.677331 l 0.476248,0.15875 0.264583,0.26459 0.158749,0.47625 v 0.29633 h -2.92099 z m 7.69406,3.02682 0.497415,0.0635 h 0.412749 l 0.486832,-0.15875 0.444498,-0.33866 0.0635,0.45508 h 0.253999 l 0.04233,-2.92099 -0.0635,-0.70908 -0.254,-0.45509 -0.264582,-0.26458 -0.539748,-0.17991 H 95.86538 l -0.539748,0.27516 -0.412749,0.40217 -0.169332,0.34925 v 0.3175 H 94.9658 l 0.380999,-0.70909 0.455082,-0.26458 h 0.592664 l 0.380999,0.17992 0.201083,0.30691 0.09525,0.40217 v 0.47625 l -0.306916,-0.127 -0.497415,-0.0741 -0.687915,0.10584 -0.613831,0.24341 -0.455082,0.45509 -0.179916,0.26458 -0.137583,0.41275 v 0.48683 l 0.09525,0.26458 0.328082,0.43392 z m -0.126999,-0.40216 -0.402166,-0.27517 -0.179916,-0.37041 v -0.46567 l 0.306916,-0.52917 0.465665,-0.38099 0.687914,-0.20109 h 0.613832 l 0.349249,0.20109 0.137583,0.42333 v 0.6985 l -0.211666,0.55033 -0.338666,0.32808 -0.391582,0.127 h -0.677331 z m 8.32906,0.22225 1.016,0.20108 h 0.81491 l 0.87842,-0.22225 0.43391,-0.20108 0.46567,-0.41275 0.0529,0.5715 0.15875,0.14816 0.15875,-0.14816 v -3.40783 l -0.0529,-0.3175 h -1.74625 l -0.0847,0.0952 v 0.0952 l 0.0847,0.0741 1.42875,0.0529 v 2.16958 l -0.23284,0.41275 -0.41275,0.41275 -0.83608,0.32808 h -1.33349 l -0.74083,-0.16933 -0.28575,-0.1905 -0.45508,-0.22225 -0.635,-0.635 -0.508,-0.75141 -0.254,-0.89958 -0.0529,-0.635 0.0741,-0.84667 0.28575,-0.77258 0.42333,-0.635 0.73025,-0.71966 0.92074,-0.4445 0.68792,-0.127 h 0.52916 l 0.74083,0.127 0.74083,0.35983 0.40217,0.41275 0.32808,0.48683 h 0.15875 l 0.0952,-0.0952 v -1.02658 l -0.0529,-0.40216 h -0.16934 l -0.0952,0.0952 -0.0529,0.71966 -0.43392,-0.45508 -0.73025,-0.35983 -0.89958,-0.17992 h -0.61383 l -0.53975,0.0847 -0.89958,0.35983 -0.71966,0.55033 -0.45508,0.45508 -0.53975,0.96309 -0.22225,0.99483 v 0.85724 l 0.0953,0.65617 0.35983,0.82549 0.40217,0.58209 0.70908,0.70908 z m 4.80482,0.0317 0.0952,0.0847 h 2.19074 l 0.0952,-0.0847 v -0.14817 l -0.0952,-0.0741 h -0.89958 v -2.33891 l 0.35983,-0.71967 0.53975,-0.53975 0.55033,-0.16933 h 0.39158 l 0.42333,0.13758 0.37042,0.42334 0.15875,0.45508 v 2.75166 l -0.9525,0.0423 -0.10583,0.0952 0.0953,0.16933 h 2.29657 v -0.23283 l -0.0741,-0.0741 h -0.89958 v -0.0529 l -0.0529,-2.64583 v -0.0529 l -0.13758,-0.48683 -0.127,-0.26459 -0.35983,-0.35983 -0.4445,-0.22225 H 110.809 l -0.5715,0.3175 -0.33866,0.27517 -0.24342,0.30691 -0.0423,-0.0529 -0.0318,-3.80999 -0.13758,-0.127 h -1.12183 l -0.0952,0.0741 v 0.14817 l 0.0952,0.0741 0.94191,0.0529 v 6.0219 l -0.0423,0.80433 -0.89958,0.0423 -0.0952,0.0847 z m 7.19664,0.20108 0.55033,0.0635 h 0.29634 l 0.60324,-0.17992 0.34925,-0.23283 0.40217,-0.39158 0.3175,-0.45508 0.22225,-0.762 v -0.56092 l -0.23284,-0.80433 -0.4445,-0.56091 -0.39158,-0.33867 -0.41275,-0.1905 -0.64558,-0.14816 -0.76199,0.15875 -0.52917,0.30691 -0.47625,0.48683 -0.32808,0.64558 -0.0952,0.70909 0.0952,0.75141 0.27517,0.5715 0.0847,0.0952 0.13758,0.1905 0.3175,0.29633 z m -0.22225,-0.45508 -0.58208,-0.4445 -0.27517,-0.51858 -0.12699,-0.4445 v -0.71967 l 0.17991,-0.59266 0.41275,-0.58208 0.58208,-0.33867 0.70908,-0.127 0.68792,0.20108 0.508,0.381 0.38099,0.56092 0.127,0.53975 v 0.58208 l -0.1905,0.67733 -0.35983,0.48683 -0.43391,0.3175 -0.49742,0.17992 h -0.58208 z m 4.96358,0.40216 0.56091,0.0635 0.51858,-0.0635 0.30692,-0.14816 0.26458,-0.27517 0.1905,-0.35983 v -0.80433 l -0.1905,-0.41275 -0.35983,-0.35983 -0.83608,-0.26459 h -0.0529 l -0.52916,-0.17991 -0.34925,-0.20109 -0.11642,-0.38099 v -0.22225 l 0.14817,-0.26459 0.39158,-0.26458 0.42333,-0.0635 0.58208,0.0635 0.381,0.26458 0.22225,0.58209 h 0.23283 v -0.3175 l -0.16933,-0.39159 -0.28575,-0.28574 -0.28575,-0.13759 -0.55033,-0.11641 -0.71966,0.11641 -0.46567,0.32808 -0.21166,0.32809 v 0.51858 l 0.0741,0.30691 0.42333,0.42334 1.38641,0.41275 0.41275,0.29633 0.127,0.34925 v 0.51858 l -0.16933,0.42333 -0.46567,0.22225 h -0.67733 l -0.33866,-0.0741 -0.46567,-0.46567 -0.14816,-0.32808 -0.0635,-0.64558 -0.0953,-0.0952 h -0.0847 l -0.13758,0.14816 v 1.60867 l 0.13758,0.13758 h 0.0847 l 0.0953,-0.0952 0.0423,-0.41275 0.26458,0.27517 z m 3.97931,0.0212 0.29633,0.0423 h 0.27517 l 0.40217,-0.16933 0.37041,-0.35983 0.26458,-0.53975 v -0.254 l -0.13758,-0.0635 -0.14817,0.0847 -0.29633,0.64558 -0.17991,0.16933 -0.26459,0.127 h -0.58208 l -0.29633,-0.13758 -0.21167,-0.40217 v -3.3549 h 1.97908 l 0.14817,-0.15875 -0.0741,-0.15875 -2.05316,-0.0423 v -0.635 l -0.0423,-0.22224 h -0.17992 l -0.0952,0.0952 v 0.76199 l -0.48683,0.0635 v 0.254 l 0.41275,0.0423 0.0741,0.0952 v 3.18558 l 0.0847,0.35983 0.15875,0.30692 0.39158,0.26458 z m 6.17007,-0.127 0.48683,0.127 h 0.68791 l 0.52917,-0.0635 0.6985,-0.34925 0.41274,-0.56092 0.23284,-0.65616 v -0.92075 l -0.15875,-0.63499 -0.35984,-0.48684 -0.46566,-0.34925 -2.12724,-0.69849 -0.51859,-0.37042 -0.20108,-0.4445 -0.0635,-0.48683 0.0741,-0.508 0.14816,-0.28575 0.30692,-0.3175 0.43391,-0.20108 0.65617,-0.0741 0.66674,0.0741 0.48684,0.254 0.35983,0.34925 0.254,0.71966 h 0.24341 v -1.48166 l -0.0847,-0.0741 h -0.0952 l -0.0952,0.0741 -0.0423,0.41275 -0.31749,-0.22225 -0.0317,-0.0423 -0.42334,-0.254 -0.70908,-0.11642 h -0.66675 l -0.45508,0.14817 -0.34925,0.16933 -0.0423,0.0529 -0.15875,0.0741 -0.40216,0.58208 -0.0847,0.55033 0.0529,0.74084 0.254,0.49741 0.52916,0.40217 0.74083,0.33866 h 0.0847 l 1.17474,0.35983 0.48684,0.26459 0.42333,0.41274 0.15875,0.60325 v 0.70908 l -0.16934,0.61384 -0.33866,0.45508 -0.39158,0.26458 -0.59267,0.15875 h -0.75141 l -0.56092,-0.1905 -0.41275,-0.3175 -0.29633,-0.40216 -0.3175,-1.016 h -0.23283 l -0.0952,0.0952 -0.0529,0.66675 0.0529,1.21708 0.0635,0.13758 h 0.15875 l 0.0741,-0.0953 0.0635,-0.84666 0.4445,0.59266 z m 4.95299,0.127 0.29633,0.0423 h 0.27516 l 0.40217,-0.16933 0.37042,-0.35983 0.26458,-0.53975 v -0.254 l -0.13759,-0.0635 -0.14816,0.0847 -0.29633,0.64558 -0.17992,0.16933 -0.26458,0.127 h -0.58208 l -0.29634,-0.13758 -0.21166,-0.40217 v -3.3549 h 1.97907 l 0.14817,-0.15875 -0.0741,-0.15875 -2.05316,-0.0423 v -0.635 l -0.0423,-0.22224 h -0.17991 l -0.0952,0.0952 v 0.76199 l -0.48683,0.0635 v 0.254 l 0.41275,0.0423 0.0741,0.0952 v 3.18558 l 0.0847,0.35983 0.15874,0.30692 0.39159,0.26458 z m 3.61949,0.0318 0.55033,0.0635 h 0.29633 l 0.60325,-0.17992 0.34925,-0.23283 0.40217,-0.39158 0.31749,-0.45508 0.22225,-0.762 v -0.56092 l -0.23283,-0.80433 -0.4445,-0.56091 -0.39158,-0.33867 -0.41275,-0.1905 -0.64558,-0.14816 -0.762,0.15875 -0.52916,0.30691 -0.47625,0.48683 -0.32808,0.64558 -0.0953,0.70909 0.0953,0.75141 0.27516,0.5715 0.0847,0.0952 0.13758,0.1905 0.3175,0.29633 z m -0.22225,-0.45508 -0.58208,-0.4445 -0.27517,-0.51858 -0.127,-0.4445 v -0.71967 l 0.17992,-0.59266 0.41275,-0.58208 0.58208,-0.33867 0.70908,-0.127 0.68792,0.20108 0.50799,0.381 0.381,0.56092 0.127,0.53975 v 0.58208 l -0.1905,0.67733 -0.35983,0.48683 -0.43391,0.3175 -0.49742,0.17992 h -0.58208 z m 3.42898,0.23283 0.10584,0.10583 h 2.28599 v -0.23283 l -0.0953,-0.0741 h -0.75141 l -0.14817,-0.0847 v -1.98966 l 0.0952,-0.71966 0.27516,-0.53975 0.45509,-0.43392 h 0.48683 l 0.3175,0.30692 0.16933,0.34925 0.11642,0.11641 0.15875,-0.0847 v -0.20109 l -0.24342,-0.48683 -0.48683,-0.37041 h -0.4445 l -0.43392,0.22225 -0.44449,0.44449 -0.0529,-0.44449 -0.0953,-0.0741 h -1.17475 l -0.0847,0.127 0.0953,0.16933 h 0.95249 v 3.67241 l -0.96308,0.0635 z m 4.48732,2.93157 0.0952,0.0952 h 0.26459 l 0.508,-0.15875 0.46566,-0.46566 2.33891,-6.25473 0.99483,-0.0423 0.0741,-0.0741 v -0.0952 l -0.0741,-0.0953 h -2.24366 l -0.0952,0.0953 0.0635,0.16933 0.889,0.0423 -1.31233,3.23849 -0.10583,-0.10584 -0.60325,-1.55574 -0.0529,-0.0847 -0.58208,-1.49224 0.85725,-0.0423 0.0741,-0.0741 v -0.0952 l -0.0741,-0.0953 h -2.24366 l -0.0952,0.0953 v 0.0952 l 0.0952,0.0741 1.01599,0.0423 1.524,3.84174 -0.61383,1.94732 -0.23283,0.47625 -0.4445,0.254 -0.42334,0.0952 z"
       id="text1"
       aria-label="Maybe a Ghost Story" />
  </g>
</svg>
