<?xml version="1.0" encoding="UTF-8" standalone="no"?>
<svg
   xmlns:dc="http://purl.org/dc/elements/1.1/"
   xmlns:cc="http://creativecommons.org/ns#"
   xmlns:rdf="http://www.w3.org/1999/02/22-rdf-syntax-ns#"
   xmlns:svg="http://www.w3.org/2000/svg"
   xmlns="http://www.w3.org/2000/svg"
   xmlns:sodipodi="http://sodipodi.sourceforge.net/DTD/sodipodi-0.dtd"
   xmlns:inkscape="http://www.inkscape.org/namespaces/inkscape"
   sodipodi:docname="pith.svg"
   inkscape:version="1.0 (4035a4fb49, 2020-05-01)"
   id="svg1633"
   version="1.1"
   viewBox="0 0 30.159168 14.24628"
   height="14.24628mm"
   width="30.159168mm">
  <defs
     id="defs1627" />
  <sodipodi:namedview
     inkscape:window-maximized="0"
     inkscape:window-y="0"
     inkscape:window-x="104"
     inkscape:window-height="1032"
     inkscape:window-width="1274"
     fit-margin-bottom="0"
     fit-margin-right="0"
     fit-margin-left="0"
     fit-margin-top="0"
     showgrid="false"
     inkscape:document-rotation="0"
     inkscape:current-layer="layer1"
     inkscape:document-units="mm"
     inkscape:cy="401.20782"
     inkscape:cx="148.42228"
     inkscape:zoom="0.35"
     inkscape:pageshadow="2"
     inkscape:pageopacity="0.0"
     borderopacity="1.0"
     bordercolor="#666666"
     pagecolor="#ffffff"
     id="base" />
  <metadata
     id="metadata1630">
    <rdf:RDF>
      <cc:Work
         rdf:about="">
        <dc:format>image/svg+xml</dc:format>
        <dc:type
           rdf:resource="http://purl.org/dc/dcmitype/StillImage" />
        <dc:title></dc:title>
      </cc:Work>
    </rdf:RDF>
  </metadata>
  <g
     transform="translate(-66.563273,-42.013765)"
     id="layer1"
     inkscape:groupmode="layer"
     inkscape:label="Layer 1">
    <path
       sodipodi:nodetypes="ssssssscssssssscssssssssssssssssssssssssssssssscsccsssccsssssssssssssssssssssssssssssssssssssssssssssssssssscssssssccsccsssssssssssssscsssssssccsssccssccsscsscssss"
       id="path2455"
       d="m 76.109596,55.784385 c -0.05854,-0.26159 -0.188904,-0.5646 -0.289695,-0.67335 -0.12342,-0.13317 -0.229322,-0.43759 -0.324335,-0.93229 -0.07759,-0.404 -0.180098,-0.93535 -0.227787,-1.18076 -0.0477,-0.24541 -0.09974,-1.28558 -0.115658,-2.31149 -0.02106,-1.35618 -0.07004,-2.07174 -0.179497,-2.62176 -0.17925,-0.90072 -0.199326,-1.67112 -0.04751,-1.82283 0.08798,-0.0879 0.149733,-0.0846 0.332557,0.0181 0.212556,0.11931 0.238843,0.20881 0.493355,1.67985 0.372276,2.15171 0.611174,3.66057 0.751734,4.74788 0.06574,0.50853 0.144278,1.03807 0.174532,1.17676 0.116453,0.53383 0.241964,2.15384 0.176003,2.27171 -0.03971,0.071 -0.190541,0.12384 -0.353287,0.12384 -0.276612,0 -0.286748,-0.0124 -0.390422,-0.47563 z m 5.950147,-0.42096 c -0.03081,-0.0308 -0.05769,-0.26723 -0.05969,-0.52534 -0.0019,-0.25812 -0.03942,-0.63951 -0.08314,-0.84755 -0.243511,-1.15896 -0.352791,-1.92474 -0.41982,-2.94188 -0.08001,-1.21413 -0.290644,-2.90687 -0.413136,-3.32014 -0.0411,-0.13869 -0.09891,-0.3959 -0.128443,-0.57157 -0.04717,-0.28057 -0.07614,-0.31271 -0.238226,-0.2643 -0.101488,0.0303 -0.373974,0.1835 -0.605522,0.34041 -0.231549,0.15694 -0.46505,0.28533 -0.518889,0.28533 -0.05384,0 -0.212191,0.0962 -0.351892,0.21372 -0.213728,0.17985 -0.279633,0.19772 -0.415675,0.11277 -0.119391,-0.0745 -0.274479,-0.0786 -0.592989,-0.0157 -0.34894,0.069 -0.431315,0.0635 -0.431315,-0.0288 0,-0.0627 0.05358,-0.11398 0.119077,-0.11398 0.06549,0 0.131685,-0.0367 0.147094,-0.0816 0.01541,-0.0449 0.111438,-0.0942 0.213396,-0.10967 0.101957,-0.0154 0.256233,-0.0922 0.342835,-0.17054 0.0866,-0.0784 0.189426,-0.1425 0.2285,-0.1425 0.03907,0 0.49166,-0.28368 1.005748,-0.63041 0.514088,-0.34671 0.975682,-0.6304 1.025764,-0.6304 0.05008,0 0.135765,-0.0539 0.190409,-0.11971 0.05464,-0.0658 0.342957,-0.23605 0.640697,-0.37824 0.29774,-0.14219 0.790295,-0.37745 1.094571,-0.52279 0.530641,-0.25348 0.583625,-0.26211 1.297984,-0.2114 0.867929,0.0616 1.426899,0.25036 1.426899,0.48183 0,0.23531 -0.262382,0.33004 -0.914105,0.33004 -0.323921,0 -0.612322,0.0378 -0.640895,0.0841 -0.02856,0.0462 -0.173506,0.084 -0.322081,0.084 -0.260314,0 -1.234879,0.34069 -1.800285,0.62934 -0.329334,0.16813 -0.335805,0.26631 -0.071,1.07752 0.277463,0.84998 0.693547,2.7967 0.842538,3.94194 0.117043,0.899641 0.149154,1.687181 0.137257,3.366001 l -0.0052,0.73547 h -0.322206 c -0.177217,0 -0.347427,-0.0253 -0.378245,-0.056 z m 9.488699,-0.36424 c -0.144009,-0.1658 -0.356722,-1.31565 -0.466492,-2.52161 -0.04839,-0.53165 -0.156292,-1.49616 -0.23978,-2.14339 l -0.151794,-1.17675 -0.317141,0.0103 c -0.174428,0.006 -0.474112,0.0576 -0.665967,0.11534 -1.100484,0.33127 -1.412759,0.44893 -1.616177,0.60894 -0.218361,0.17176 -0.223925,0.19708 -0.169805,0.77216 0.110855,1.1779 0.252298,2.09524 0.428655,2.77998 0.05953,0.23114 0.132181,0.61695 0.161447,0.85735 0.04715,0.38731 0.03316,0.4478 -0.12287,0.53131 -0.138608,0.0742 -0.221009,0.0648 -0.387173,-0.044 -0.117091,-0.0767 -0.191545,-0.18926 -0.167192,-0.25272 0.02414,-0.0629 0.01044,-0.126299 -0.03042,-0.14083 -0.04088,-0.0145 -0.08603,-0.22501 -0.100342,-0.46771 -0.01431,-0.2427 -0.04957,-0.44129 -0.07833,-0.44129 -0.04751,-1e-5 -0.104978,-0.2636 -0.210788,-0.96663 -0.02087,-0.1387 -0.07261,-0.44129 -0.114972,-0.67244 -0.04236,-0.23115 -0.102377,-0.64722 -0.133367,-0.92459 -0.03098,-0.27739 -0.110099,-0.61003 -0.175802,-0.73921 -0.08946,-0.17589 -0.09849,-0.30257 -0.03598,-0.50433 0.07903,-0.25507 0.265665,-2.93439 0.262422,-3.76736 -7.94e-4,-0.26742 0.05283,-0.457 0.17344,-0.61033 0.1331,-0.16921 0.168288,-0.31542 0.147095,-0.61125 -0.02435,-0.34003 -0.0058,-0.39234 0.147259,-0.41666 0.09631,-0.0153 0.181485,0.0182 0.189279,0.0746 0.0077,0.0564 0.05588,0.36717 0.106846,0.69078 0.12334,0.78302 0.123106,0.86927 -0.0069,2.50159 -0.0617,0.77489 -0.09068,1.43038 -0.06441,1.45665 0.02629,0.0263 0.382013,-0.0856 0.790533,-0.24862 0.657547,-0.2624 1.207814,-0.39543 1.749338,-0.42288 0.151608,-0.008 0.176987,-0.0866 0.232612,-0.72308 0.152256,-1.74223 0.534705,-3.78244 0.709039,-3.78244 0.0237,0 0.157193,0.0812 0.296619,0.18051 0.286689,0.20414 0.28474,0.078 0.03168,2.04692 -0.0713,0.55475 -0.13043,1.2423 -0.131401,1.52789 -0.0016,0.46188 -0.130426,0.67091 0.114652,0.72347 0.166836,0.0357 0.38086,0.1413 0.447123,0.14418 0.172522,0.007 0.08239,0.23491 0.04187,0.38426 -0.02168,0.0799 -0.181498,0.0488 -0.269189,0.078 -0.269341,0.0899 -0.296659,0.1295 -0.323454,0.46936 -0.08036,1.01947 0.34221,3.99368 0.654348,4.60552 0.203694,0.39926 0.218125,0.74271 0.04106,0.97705 -0.151919,0.201041 -0.586223,0.22554 -0.745597,0.042 z m 4.074982,0.006 c -0.172443,-0.3222 -0.06779,-0.96134 0.201501,-1.23064 0.168481,-0.16848 0.408247,-0.14889 0.666771,0.0545 0.286864,0.22564 0.310428,0.78273 0.04726,1.11729 -0.222057,0.2823 -0.776872,0.31799 -0.915535,0.0589 z m -27.546323,0.0264 c -0.11969,-0.0509 -0.46849,-0.96097 -0.651135,-1.69886 -0.158316,-0.63957 -0.164695,-1.07769 -0.03531,-2.42521 0.08851,-0.92186 0.08422,-1.04564 -0.043,-1.2398 -0.08456,-0.12905 -0.24817,-0.13931 -0.336501,-0.21569 -0.347163,-0.3002 -0.624943,-0.50136 -0.310804,-0.66947 0.22698,-0.12148 0.284004,-0.11128 0.499363,0.0894 l 0.189317,0.17638 -0.05692,-0.30338 c -0.03212,-0.1712 -0.01982,-0.34875 0.02821,-0.40752 0.114306,-0.13986 0.197781,-3.96458 0.104089,-4.76915 -0.04038,-0.34672 -0.04279,-0.66199 -0.0054,-0.70059 0.03742,-0.0386 0.184067,-0.0102 0.325862,0.0631 0.263379,0.1362 1.131621,0.13531 1.055757,-7.9e-4 -0.02313,-0.0417 -0.327757,-0.0821 -0.362429,-0.0706 -0.164254,-0.0616 -0.258123,-0.0756 -0.45816,-0.11278 -0.284029,0.0543 -0.487499,-0.12939 -0.502653,-0.45377 l -0.01302,-0.27909 0.462298,0.0295 c 0.254262,0.0162 0.500121,0.0591 0.546351,0.0953 0.04623,0.0362 0.257613,0.0863 0.469744,0.11145 0.423174,0.0501 1.237603,0.29109 1.395083,0.41282 0.05483,0.0424 0.192641,0.10281 0.306246,0.13427 0.314546,0.0871 1.128286,0.83132 1.437434,1.3146 0.69901,1.09272 0.890142,1.99322 0.558957,2.63345 -0.222625,0.43037 -0.882407,1.05153 -1.435708,1.35167 -0.650453,0.35283 -2.16678,1.09677 -2.543401,1.24785 -0.35419,0.14208 -0.366541,0.17474 -0.438132,1.15856 -0.108165,1.48647 -0.06383,2.57267 0.13379,3.2781 0.103609,0.36984 0.191001,0.80482 0.19421,0.96662 0.0051,0.25521 -0.02202,0.29634 -0.204306,0.3104 -0.115574,0.009 -0.255005,-0.003 -0.309848,-0.0262 z m 0.892806,-6.92166 c 0.178255,-0.0909 0.375324,-0.21515 0.437937,-0.27602 0.06261,-0.0609 0.295822,-0.21636 0.518251,-0.34555 0.222427,-0.12917 0.425051,-0.28865 0.450278,-0.35438 0.02522,-0.0658 0.08453,-0.11952 0.131787,-0.11952 0.147667,0 0.813257,-0.77246 1.010578,-1.17283 0.119025,-0.24151 0.188348,-0.53685 0.188348,-0.80244 0,-0.4509 -0.0433,-0.52598 -0.700616,-1.21504 l -0.364395,-0.38199 -0.916005,0.002 c -0.698174,7.9e-4 -0.944153,0.0311 -1.034408,0.12608 -0.09335,0.0982 -0.127677,0.59889 -0.162191,2.36629 -0.02408,1.23298 -0.02185,2.26369 0.0049,2.29047 0.0688,0.0688 0.07556,0.067 0.435524,-0.11664 z m 2.70504,-1.25369 c 0.17948,-0.17947 0.326327,-0.3686 0.326327,-0.42027 0,-0.17933 -0.148914,-0.0925 -0.262449,0.16394 -0.09532,0.17243 -0.919687,0.65524 -0.658924,0.67817 0.0544,0 0.415566,-0.24236 0.595046,-0.42184 z m 2.864886,-3.15263 c -0.253326,-0.37206 -0.187181,-0.69145 0.158936,-0.76748 0.134304,-0.0295 0.294442,-0.12538 0.355863,-0.21307 0.163577,-0.23354 0.647197,-0.19645 0.844214,0.0647 0.200485,0.26579 0.122509,0.59167 -0.158446,0.66219 -0.114869,0.0288 -0.208855,0.0815 -0.208855,0.11716 0,0.0357 -0.113473,0.11175 -0.252163,0.1692 -0.138689,0.0574 -0.252161,0.13769 -0.252161,0.1783 0,0.18156 -0.312083,0.0464 -0.487388,-0.21105 z"
       style="opacity:1;fill:#000000;stroke-width:0.0840539" />
  </g>
</svg>
