<?xml version="1.0" encoding="UTF-8" standalone="no"?>
<!-- Created with Inkscape (http://www.inkscape.org/) -->

<svg
   width="670.02197mm"
   height="70.134216mm"
   viewBox="0 0 670.02198 70.134216"
   version="1.1"
   id="svg1"
   xml:space="preserve"
   inkscape:version="1.4.3 (0d15f75, 2025-12-25)"
   sodipodi:docname="stories-for-the-starlit-sky-h.svg"
   xmlns:inkscape="http://www.inkscape.org/namespaces/inkscape"
   xmlns:sodipodi="http://sodipodi.sourceforge.net/DTD/sodipodi-0.dtd"
   xmlns:xlink="http://www.w3.org/1999/xlink"
   xmlns="http://www.w3.org/2000/svg"
   xmlns:svg="http://www.w3.org/2000/svg"><sodipodi:namedview
     id="namedview1"
     pagecolor="#ffffff"
     bordercolor="#666666"
     borderopacity="1.0"
     inkscape:showpageshadow="2"
     inkscape:pageopacity="0.0"
     inkscape:pagecheckerboard="0"
     inkscape:deskcolor="#d1d1d1"
     inkscape:document-units="mm"
     inkscape:zoom="0.35355339"
     inkscape:cx="459.61941"
     inkscape:cy="-233.34524"
     inkscape:window-width="3840"
     inkscape:window-height="1009"
     inkscape:window-x="-8"
     inkscape:window-y="-8"
     inkscape:window-maximized="1"
     inkscape:current-layer="layer11"
     showguides="false"
     showgrid="false"
     inkscape:export-bgcolor="#ffffff00"><inkscape:grid
       id="grid96"
       units="px"
       originx="-823.48221"
       originy="-338.50729"
       spacingx="0.26458333"
       spacingy="0.26458334"
       empcolor="#0099e5"
       empopacity="0.30196078"
       color="#0099e5"
       opacity="0.14901961"
       empspacing="5"
       dotted="false"
       gridanglex="30"
       gridanglez="30"
       visible="false" /><sodipodi:guide
       position="-823.48225,635.50731"
       orientation="0,793.70079"
       id="guide4"
       inkscape:locked="false" /><sodipodi:guide
       position="-613.48225,635.50731"
       orientation="1122.5197,0"
       id="guide5"
       inkscape:locked="false" /><sodipodi:guide
       position="-613.48225,338.5073"
       orientation="0,-793.70079"
       id="guide6"
       inkscape:locked="false" /><sodipodi:guide
       position="-823.48225,338.5073"
       orientation="-1122.5197,0"
       id="guide7"
       inkscape:locked="false" /></sodipodi:namedview><defs
     id="defs1"><linearGradient
       id="linearGradient3"
       inkscape:collect="always"><stop
         style="stop-color:#13aa13;stop-opacity:0.5"
         offset="0.4644886"
         id="stop1" /><stop
         style="stop-color:#89ef7d;stop-opacity:0;"
         offset="0.88028353"
         id="stop3" /></linearGradient><inkscape:path-effect
       effect="skeletal"
       id="path-effect5"
       is_visible="true"
       lpeversion="1"
       pattern="M 0,4.9921382 C 0,2.2364779 2.2364779,0 4.9921382,0 c 2.7556604,0 4.9921383,2.2364779 4.9921383,4.9921382 0,2.7556604 -2.2364779,4.9921383 -4.9921383,4.9921383 C 2.2364779,9.9842765 0,7.7477986 0,4.9921382 Z"
       copytype="single_stretched"
       prop_scale="1"
       scale_y_rel="false"
       spacing="0"
       normal_offset="0"
       tang_offset="0"
       prop_units="false"
       vertical_pattern="false"
       hide_knot="false"
       fuse_tolerance="0" /><inkscape:path-effect
       effect="skeletal"
       id="path-effect4"
       is_visible="true"
       lpeversion="1"
       pattern="M 0,4.9921382 C 0,2.2364779 2.2364779,0 4.9921382,0 c 2.7556604,0 4.9921383,2.2364779 4.9921383,4.9921382 0,2.7556604 -2.2364779,4.9921383 -4.9921383,4.9921383 C 2.2364779,9.9842765 0,7.7477986 0,4.9921382 Z"
       copytype="single_stretched"
       prop_scale="1"
       scale_y_rel="false"
       spacing="0"
       normal_offset="0"
       tang_offset="0"
       prop_units="false"
       vertical_pattern="false"
       hide_knot="false"
       fuse_tolerance="0" /><clipPath
       clipPathUnits="userSpaceOnUse"
       id="clipPath9"><rect
         style="display:inline;fill:#1a1a1a;stroke-width:1.01435;stroke-linecap:round;stroke-linejoin:round"
         id="rect9"
         width="156.61694"
         height="220.70941"
         x="-1898.9664"
         y="131.01503" /></clipPath><clipPath
       clipPathUnits="userSpaceOnUse"
       id="clipPath10"><rect
         style="display:inline;fill:#1a1a1a;stroke-width:1.01435;stroke-linecap:round;stroke-linejoin:round"
         id="rect10"
         width="156.61694"
         height="220.70941"
         x="-1898.9664"
         y="131.01501" /></clipPath><clipPath
       clipPathUnits="userSpaceOnUse"
       id="clipPath14"><rect
         style="display:inline;fill:#1a1a1a;stroke-width:1.01435;stroke-linecap:round;stroke-linejoin:round"
         id="rect14"
         width="156.61694"
         height="220.70941"
         x="-1898.9664"
         y="131.01503"
         inkscape:export-filename="sfass.png"
         inkscape:export-xdpi="129.73743"
         inkscape:export-ydpi="129.73743" /></clipPath><clipPath
       clipPathUnits="userSpaceOnUse"
       id="clipPath15"><rect
         style="display:inline;fill:#1a1a1a;stroke-width:1.01701;stroke-linecap:round;stroke-linejoin:round"
         id="rect15"
         width="157.02658"
         height="221.2867"
         x="1025.4775"
         y="57.833321" /></clipPath><clipPath
       clipPathUnits="userSpaceOnUse"
       id="clipPath16"><rect
         style="display:inline;fill:#1a1a1a;stroke-width:1.01701;stroke-linecap:round;stroke-linejoin:round"
         id="rect16"
         width="157.02658"
         height="221.2867"
         x="1025.4775"
         y="57.833321" /></clipPath><clipPath
       clipPathUnits="userSpaceOnUse"
       id="clipPath17"><rect
         style="display:inline;fill:#1a1a1a;stroke-width:1.01701;stroke-linecap:round;stroke-linejoin:round"
         id="rect17"
         width="157.02658"
         height="221.2867"
         x="1025.4775"
         y="57.833321" /></clipPath><clipPath
       clipPathUnits="userSpaceOnUse"
       id="clipPath1"><rect
         style="display:inline;fill:#1a1a1a;stroke-width:2.10491;stroke-linecap:round;stroke-linejoin:round"
         id="rect2"
         width="325"
         height="458.00003"
         x="1233.1305"
         y="-238.38646" /></clipPath><clipPath
       clipPathUnits="userSpaceOnUse"
       id="clipPath2"><rect
         style="display:inline;fill:#1a1a1a;stroke-width:2.10491;stroke-linecap:round;stroke-linejoin:round"
         id="rect3"
         width="325"
         height="458.00003"
         x="1233.1305"
         y="-238.38646" /></clipPath><clipPath
       clipPathUnits="userSpaceOnUse"
       id="clipPath3"><ellipse
         style="display:inline;opacity:0.298635;mix-blend-mode:screen;fill:url(#radialGradient3);stroke:none;stroke-width:1.61351;stroke-linecap:round;stroke-linejoin:round;stroke-dasharray:none;stroke-dashoffset:7.47025"
         id="ellipse3"
         cx="1396.6272"
         cy="121.33395"
         rx="224.69038"
         ry="126.48786" /></clipPath><radialGradient
       inkscape:collect="always"
       xlink:href="#linearGradient3"
       id="radialGradient3"
       gradientUnits="userSpaceOnUse"
       gradientTransform="matrix(2.4967816,-0.01714863,0.0184466,1.7791084,2184.916,-84.470838)"
       cx="-316.55402"
       cy="112.62738"
       fx="-316.55402"
       fy="112.62738"
       r="71.093689" /><clipPath
       clipPathUnits="userSpaceOnUse"
       id="clipPath3-0"><ellipse
         style="display:inline;opacity:0.298635;mix-blend-mode:screen;fill:url(#radialGradient3-8);stroke:none;stroke-width:1.61351;stroke-linecap:round;stroke-linejoin:round;stroke-dasharray:none;stroke-dashoffset:7.47025"
         id="ellipse3-7"
         cx="1396.6272"
         cy="121.33395"
         rx="224.69038"
         ry="126.48786" /></clipPath><radialGradient
       inkscape:collect="always"
       xlink:href="#linearGradient3"
       id="radialGradient3-8"
       gradientUnits="userSpaceOnUse"
       gradientTransform="matrix(2.4967816,-0.01714863,0.0184466,1.7791084,2184.916,-84.470838)"
       cx="-316.55402"
       cy="112.62738"
       fx="-316.55402"
       fy="112.62738"
       r="71.093689" /><clipPath
       clipPathUnits="userSpaceOnUse"
       id="clipPath1-4"><rect
         style="display:inline;fill:#1a1a1a;stroke-width:2.10491;stroke-linecap:round;stroke-linejoin:round"
         id="rect2-9"
         width="325"
         height="458.00003"
         x="1233.1305"
         y="-238.38646" /></clipPath><clipPath
       clipPathUnits="userSpaceOnUse"
       id="clipPath2-9"><rect
         style="display:inline;fill:#1a1a1a;stroke-width:2.10491;stroke-linecap:round;stroke-linejoin:round"
         id="rect3-6"
         width="325"
         height="458.00003"
         x="1233.1305"
         y="-238.38646" /></clipPath></defs><g
     inkscape:label="Layer 1"
     inkscape:groupmode="layer"
     id="layer1"
     style="display:inline"
     transform="translate(-823.48223,-338.5073)" /><g
     inkscape:groupmode="layer"
     id="layer6"
     inkscape:label="black bg"
     style="display:inline"
     transform="translate(-823.48223,-338.5073)" /><g
     inkscape:groupmode="layer"
     id="layer12"
     inkscape:label="faded stars"
     style="display:inline;opacity:0.368;mix-blend-mode:normal"
     transform="translate(-823.48223,-338.5073)" /><g
     inkscape:groupmode="layer"
     id="layer7"
     inkscape:label="gradients"
     style="display:inline"
     transform="translate(-823.48223,-338.5073)" /><g
     inkscape:groupmode="layer"
     id="layer10"
     inkscape:label="stars"
     style="display:inline"
     transform="translate(-823.48223,-338.5073)" /><g
     inkscape:groupmode="layer"
     id="layer3"
     inkscape:label="daniel kitson"
     style="display:inline"
     transform="translate(-823.48223,-338.5073)" /><g
     inkscape:groupmode="layer"
     id="layer2"
     inkscape:label="gavin osborn"
     style="display:inline"
     transform="translate(-823.48223,-338.5073)" /><g
     inkscape:groupmode="layer"
     id="layer8"
     inkscape:label="black foreground"
     style="display:inline"
     transform="translate(-823.48223,-338.5073)" /><g
     inkscape:groupmode="layer"
     id="layer9"
     inkscape:label="ball"
     style="display:inline"
     transform="translate(-823.48223,-338.5073)" /><g
     inkscape:groupmode="layer"
     id="layer4"
     inkscape:label="stories"
     style="display:inline"
     transform="translate(-823.48223,-338.5073)" /><g
     inkscape:groupmode="layer"
     id="layer5"
     inkscape:label="stories stars"
     style="display:inline"
     transform="translate(-823.48223,-338.5073)" /><g
     inkscape:groupmode="layer"
     id="layer11"
     inkscape:label="text"
     style="display:inline"
     transform="translate(-823.48223,-338.5073)"><g
       id="g101"
       transform="matrix(0.87374854,0,0,0.87374854,90.483809,20.68393)"><path
         style="color:#000000;display:inline;fill:#000000;fill-opacity:1;-inkscape-stroke:none"
         d="m 1098.809,393.16645 -1.0938,32.92968 1.6641,0.0566 1.0312,-31.02734 11.8731,9.45508 -7.6856,7.98242 0.7461,0.71875 -0.3379,0.58594 22.3418,12.82031 0.8282,-1.44336 -21.5625,-12.375 7.5625,-7.85547 -0.6856,-0.6582 0.459,-0.57617 -13.3145,-10.60352 -0.1679,0.21094 0.01,-0.16602 z"
         id="path84" /><path
         style="color:#000000;display:inline;fill:#000000;fill-opacity:1;-inkscape-stroke:none"
         d="m 1077.0433,391.20356 -11.414,16.1582 0.012,0.01 -0.7637,0.17383 3.6289,15.84179 0.3633,-0.082 -0.09,0.47071 21.8398,4.12304 0.3086,-1.63672 -20.9609,-3.95703 -3.2481,-14.17382 0.2696,0.18945 10.8515,-15.35938 16.7461,14.78516 -3.5879,18.93555 1.6368,0.31054 3.6289,-19.15429 -0.4141,-0.0781 0.5547,-0.62891 -17.7481,-15.66992 -0.4804,0.54297 z"
         id="path83" /><path
         style="color:#000000;display:inline;fill:#000000;fill-opacity:1;-inkscape-stroke:none"
         d="m 1067.8715,378.71332 -31.9629,13.62891 0.5293,1.24023 -0.877,0.008 0.3047,33.25977 1.6641,-0.0137 -0.1543,-16.84375 18.5234,2.63086 0.2344,-1.64844 -18.7715,-2.66797 -0.1348,-14.7168 31.625,-13.48632 -0.3281,-0.77149 0.9922,0.0312 z"
         id="path72-8"
         sodipodi:nodetypes="ccccccccccccccc" /><path
         id="path1-9-5-0"
         style="display:inline;stroke-width:4.09254;stroke-linecap:round;stroke-linejoin:round"
         inkscape:transform-center-x="0.013689729"
         inkscape:transform-center-y="0.002545087"
         d="m 1129.4027,427.25159 0.4896,1.05301 -0.9723,-0.63545 0.019,1.16097 -0.6296,-0.97578 -0.4553,1.0682 -0.1782,-1.1474 -0.8506,0.79073 0.3042,-1.12061 -1.0989,0.37653 0.7338,-0.90006 -1.157,-0.10277 1.0366,-0.52389 -1.0152,-0.56431 1.1602,-0.0571 -0.6979,-0.92826 1.0832,0.41951 -0.2598,-1.13172 0.8188,0.82362 0.2231,-1.1395 0.413,1.08531 0.6675,-0.95023 -0.064,1.15934 0.9965,-0.59667 -0.5306,1.03291 1.1532,-0.13994 -0.905,0.72788 1.1104,0.341 -1.123,0.29699 0.8757,0.76296 z" /><path
         id="path1-9-46-1"
         style="display:inline;stroke-width:4.09254;stroke-linecap:round;stroke-linejoin:round"
         inkscape:transform-center-x="0.013689729"
         inkscape:transform-center-y="0.002545087"
         d="m 1037.8384,410.01185 0.4895,1.05301 -0.9722,-0.63545 0.019,1.16097 -0.6296,-0.97578 -0.4553,1.0682 -0.1782,-1.1474 -0.8506,0.79073 0.3041,-1.12061 -1.0988,0.37653 0.7338,-0.90006 -1.157,-0.10277 1.0366,-0.52389 -1.0152,-0.56431 1.1602,-0.0571 -0.6979,-0.92826 1.0832,0.41951 -0.2598,-1.13172 0.8188,0.82362 0.2231,-1.1395 0.4129,1.08531 0.6676,-0.95023 -0.064,1.15934 0.9965,-0.59667 -0.5306,1.03291 1.1532,-0.13994 -0.9051,0.72788 1.1105,0.341 -1.123,0.29699 0.8757,0.76296 z" /><path
         id="path1-9-37-6"
         style="display:inline;stroke-width:4.09254;stroke-linecap:round;stroke-linejoin:round"
         inkscape:transform-center-x="0.013689729"
         inkscape:transform-center-y="0.002545087"
         d="m 1056.7076,412.91021 0.4896,1.05301 -0.9723,-0.63545 0.019,1.16097 -0.6296,-0.97578 -0.4553,1.0682 -0.1782,-1.1474 -0.8506,0.79073 0.3042,-1.12061 -1.0989,0.37653 0.7338,-0.90006 -1.157,-0.10277 1.0366,-0.52389 -1.0152,-0.56431 1.1602,-0.0571 -0.6979,-0.92826 1.0832,0.41951 -0.2598,-1.13172 0.8188,0.82362 0.2231,-1.1395 0.413,1.08531 0.6675,-0.95023 -0.064,1.15934 0.9965,-0.59667 -0.5306,1.03291 1.1532,-0.13994 -0.905,0.72788 1.1104,0.341 -1.123,0.29699 0.8757,0.76296 z" /><path
         id="path1-9-7-1"
         style="display:inline;stroke-width:4.09254;stroke-linecap:round;stroke-linejoin:round"
         inkscape:transform-center-x="0.013689729"
         inkscape:transform-center-y="0.002545087"
         d="m 1067.0359,408.93543 0.4895,1.05301 -0.9723,-0.63545 0.019,1.16097 -0.6297,-0.97578 -0.4553,1.0682 -0.1781,-1.1474 -0.8506,0.79073 0.3041,-1.12061 -1.0989,0.37653 0.7339,-0.90006 -1.1571,-0.10277 1.0366,-0.52389 -1.0152,-0.56431 1.1602,-0.0571 -0.6979,-0.92826 1.0832,0.41951 -0.2598,-1.13172 0.8188,0.82362 0.2232,-1.1395 0.4129,1.08531 0.6675,-0.95023 -0.064,1.15934 0.9965,-0.59667 -0.5305,1.03291 1.1531,-0.13994 -0.905,0.72788 1.1104,0.341 -1.1229,0.29699 0.8756,0.76296 z" /><path
         id="path1-9-50-8"
         style="display:inline;stroke-width:4.09254;stroke-linecap:round;stroke-linejoin:round"
         inkscape:transform-center-x="0.013689729"
         inkscape:transform-center-y="0.002545087"
         d="m 1101.2845,394.49392 0.4896,1.05301 -0.9723,-0.63545 0.019,1.16097 -0.6296,-0.97578 -0.4553,1.0682 -0.1782,-1.1474 -0.8506,0.79073 0.3042,-1.12061 -1.0989,0.37653 0.7338,-0.90006 -1.157,-0.10277 1.0366,-0.52389 -1.0152,-0.56431 1.1602,-0.0571 -0.6979,-0.92826 1.0832,0.41951 -0.2598,-1.13172 0.8188,0.82362 0.2231,-1.1395 0.413,1.08531 0.6675,-0.95023 -0.064,1.15934 0.9965,-0.59667 -0.5306,1.03291 1.1532,-0.13994 -0.905,0.72788 1.1104,0.341 -1.123,0.29699 0.8757,0.76296 z" /><path
         id="path1-9-29-4"
         style="display:inline;stroke-width:4.09254;stroke-linecap:round;stroke-linejoin:round"
         inkscape:transform-center-x="0.013689729"
         inkscape:transform-center-y="0.002545087"
         d="m 1106.769,414.17261 0.4896,1.05301 -0.9723,-0.63545 0.019,1.16097 -0.6296,-0.97578 -0.4553,1.0682 -0.1782,-1.1474 -0.8506,0.79073 0.3042,-1.12061 -1.0989,0.37653 0.7338,-0.90006 -1.157,-0.10277 1.0366,-0.52389 -1.0152,-0.56431 1.1602,-0.0571 -0.6979,-0.92826 1.0832,0.41951 -0.2598,-1.13172 0.8188,0.82362 0.2231,-1.1395 0.413,1.08531 0.6675,-0.95023 -0.064,1.15934 0.9965,-0.59667 -0.5306,1.03291 1.1532,-0.13994 -0.905,0.72788 1.1104,0.341 -1.123,0.29699 0.8757,0.76296 z" /><path
         id="path1-9-30-1"
         style="display:inline;stroke-width:4.09254;stroke-linecap:round;stroke-linejoin:round"
         inkscape:transform-center-x="0.013689729"
         inkscape:transform-center-y="0.002545087"
         d="m 1092.2314,427.89517 0.4896,1.05301 -0.9723,-0.63545 0.019,1.16097 -0.6296,-0.97578 -0.4553,1.0682 -0.1782,-1.1474 -0.8506,0.79073 0.3041,-1.12061 -1.0988,0.37653 0.7338,-0.90006 -1.157,-0.10277 1.0366,-0.52389 -1.0152,-0.56431 1.1602,-0.0571 -0.6979,-0.92826 1.0832,0.41951 -0.2598,-1.13172 0.8188,0.82362 0.2231,-1.1395 0.413,1.08531 0.6675,-0.95023 -0.064,1.15934 0.9965,-0.59667 -0.5306,1.03291 1.1532,-0.13994 -0.905,0.72788 1.1104,0.341 -1.123,0.29699 0.8757,0.76296 z" /><path
         id="path2-6-83-0"
         style="display:inline;stroke-width:0.55278;stroke-linecap:round;stroke-linejoin:round"
         inkscape:transform-center-x="-0.017927458"
         inkscape:transform-center-y="0.0027345719"
         d="m 1096.4961,408.63907 0.1594,0.56917 -0.4794,-0.34569 -0.01,0.59103 -0.3626,-0.46676 -0.1736,0.565 -0.2165,-0.55002 -0.3257,0.49321 -0.053,-0.58872 -0.4515,0.38146 0.1153,-0.57973 -0.5407,0.2388 0.274,-0.52376 -0.5861,0.0768 0.4104,-0.42537 -0.584,-0.0914 0.5137,-0.29252 -0.5346,-0.25225 0.5752,-0.13596 -0.4418,-0.39263 0.5902,0.0316 -0.3133,-0.5012 0.5574,0.19661 -0.1594,-0.56917 0.4795,0.34569 0.01,-0.59103 0.3626,0.46676 0.1736,-0.56501 0.2164,0.55002 0.3258,-0.49321 0.053,0.58872 0.4515,-0.38145 -0.1153,0.57972 0.5407,-0.2388 -0.2739,0.52377 0.5861,-0.0768 -0.4105,0.42537 0.584,0.0914 -0.5136,0.29251 0.5345,0.25225 -0.5752,0.13596 0.4418,0.39263 -0.5902,-0.0316 0.3133,0.5012 z" /><path
         id="path2-6-62-6-2"
         style="display:inline;stroke-width:0.55278;stroke-linecap:round;stroke-linejoin:round"
         inkscape:transform-center-x="-0.017927458"
         inkscape:transform-center-y="0.0027345719"
         d="m 1070.0415,424.1466 0.1594,0.56917 -0.4794,-0.34569 -0.01,0.59103 -0.3626,-0.46676 -0.1736,0.565 -0.2165,-0.55002 -0.3257,0.49321 -0.053,-0.58872 -0.4515,0.38146 0.1153,-0.57973 -0.5407,0.2388 0.274,-0.52376 -0.5861,0.0768 0.4104,-0.42537 -0.584,-0.0914 0.5137,-0.29252 -0.5346,-0.25225 0.5752,-0.13596 -0.4418,-0.39263 0.5902,0.0316 -0.3133,-0.5012 0.5574,0.19661 -0.1594,-0.56917 0.4795,0.34569 0.01,-0.59103 0.3626,0.46676 0.1736,-0.56501 0.2164,0.55002 0.3258,-0.49321 0.053,0.58872 0.4515,-0.38145 -0.1153,0.57972 0.5407,-0.2388 -0.2739,0.52377 0.5861,-0.0768 -0.4105,0.42537 0.584,0.0914 -0.5136,0.29251 0.5345,0.25225 -0.5752,0.13596 0.4418,0.39263 -0.5902,-0.0316 0.3133,0.5012 z" /><path
         id="path2-6-62-94-0"
         style="display:inline;stroke-width:0.55278;stroke-linecap:round;stroke-linejoin:round"
         inkscape:transform-center-x="-0.017927458"
         inkscape:transform-center-y="0.0027345719"
         d="m 1037.6174,428.01905 0.1594,0.56917 -0.4794,-0.34569 -0.01,0.59103 -0.3626,-0.46676 -0.1736,0.565 -0.2165,-0.55002 -0.3257,0.49321 -0.053,-0.58872 -0.4515,0.38146 0.1153,-0.57973 -0.5407,0.2388 0.274,-0.52376 -0.5861,0.0768 0.4104,-0.42537 -0.584,-0.0914 0.5137,-0.29252 -0.5346,-0.25225 0.5752,-0.13596 -0.4418,-0.39263 0.5902,0.0316 -0.3133,-0.5012 0.5574,0.19661 -0.1594,-0.56917 0.4795,0.34569 0.01,-0.59103 0.3626,0.46676 0.1736,-0.56501 0.2164,0.55002 0.3258,-0.49321 0.053,0.58872 0.4515,-0.38145 -0.1153,0.57972 0.5407,-0.2388 -0.2739,0.52377 0.5861,-0.0768 -0.4105,0.42537 0.584,0.0914 -0.5136,0.29251 0.5345,0.25225 -0.5752,0.13596 0.4418,0.39263 -0.5902,-0.0316 0.3133,0.5012 z" /><path
         id="path3-4-0-1"
         style="display:inline;stroke-width:2.124;stroke-linecap:round;stroke-linejoin:round"
         d="m 1069.6459,379.42172 a 1.2257435,1.2257435 0 0 1 -1.2258,1.22574 1.2257435,1.2257435 0 0 1 -1.2257,-1.22574 1.2257435,1.2257435 0 0 1 1.2257,-1.22575 1.2257435,1.2257435 0 0 1 1.2258,1.22575 z" /><path
         id="path3-2-5"
         style="display:inline;stroke-width:2.124;stroke-linecap:round;stroke-linejoin:round"
         d="m 1037.7676,393.087 a 1.2257435,1.2257435 0 0 1 -1.2258,1.22574 1.2257435,1.2257435 0 0 1 -1.2257,-1.22574 1.2257435,1.2257435 0 0 1 1.2257,-1.22574 1.2257435,1.2257435 0 0 1 1.2258,1.22574 z" /><path
         id="path3-54-0-0-2"
         style="display:inline;stroke-width:2.537;stroke-linecap:round;stroke-linejoin:round"
         d="m 1079.3073,392.06255 a 1.4640826,1.4640826 0 0 1 -1.4641,1.46409 1.4640826,1.4640826 0 0 1 -1.4641,-1.46409 1.4640826,1.4640826 0 0 1 1.4641,-1.46408 1.4640826,1.4640826 0 0 1 1.4641,1.46408 z" /><path
         id="path3-54-0-7-9"
         style="display:inline;stroke-width:2.537;stroke-linecap:round;stroke-linejoin:round"
         d="m 1114.8777,404.5761 a 1.4640826,1.4640826 0 0 1 -1.4641,1.46409 1.4640826,1.4640826 0 0 1 -1.464,-1.46409 1.4640826,1.4640826 0 0 1 1.464,-1.46408 1.4640826,1.4640826 0 0 1 1.4641,1.46408 z" /><path
         id="path3-54-0-2-6"
         style="display:inline;stroke-width:2.537;stroke-linecap:round;stroke-linejoin:round"
         d="m 1100.1062,426.20382 a 1.4640826,1.4640826 0 0 1 -1.464,1.46408 1.4640826,1.4640826 0 0 1 -1.4641,-1.46408 1.4640826,1.4640826 0 0 1 1.4641,-1.46408 1.4640826,1.4640826 0 0 1 1.464,1.46408 z" /></g><g
       id="g106"
       transform="matrix(0.87374854,0,0,0.87374854,144.21988,102.52862)"><path
         style="color:#000000;display:inline;fill:#000000;fill-opacity:1;-inkscape-stroke:none"
         d="m 1226.3884,317.19149 -1.666,0.0352 0.2871,13.85937 -35.8906,15.60547 0.664,1.52539 36.4082,-15.82813 -0.1953,-0.44921 0.6953,-0.0156 z"
         id="path97" /><path
         id="path1-9-1-1"
         style="display:inline;stroke-width:4.09254;stroke-linecap:round;stroke-linejoin:round"
         inkscape:transform-center-x="0.013689729"
         inkscape:transform-center-y="0.002545087"
         d="m 1190.3453,348.67344 0.4895,1.053 -0.9722,-0.63545 0.019,1.16097 -0.6296,-0.97578 -0.4553,1.0682 -0.1782,-1.1474 -0.8506,0.79073 0.3041,-1.12061 -1.0988,0.37653 0.7338,-0.90006 -1.157,-0.10277 1.0366,-0.52389 -1.0152,-0.56431 1.1602,-0.0571 -0.6979,-0.92827 1.0832,0.41951 -0.2598,-1.13172 0.8188,0.82362 0.2231,-1.13949 0.4129,1.0853 0.6676,-0.95023 -0.064,1.15934 0.9965,-0.59667 -0.5306,1.03291 1.1532,-0.13994 -0.9051,0.72789 1.1105,0.34099 -1.123,0.29699 0.8757,0.76296 z" /><g
         id="g104"><path
           style="color:#000000;display:inline;fill:#000000;fill-opacity:1;-inkscape-stroke:none"
           d="m 1246.7224,312.07821 -1.4805,0.75977 11.8633,23.125 1.4805,-0.75977 z"
           id="path96" /><path
           style="color:#000000;display:inline;fill:#000000;fill-opacity:1;-inkscape-stroke:none"
           d="m 1320.5525,302.67782 -9.6719,6.97461 0.9746,1.34961 0.502,-0.36133 17.998,8.19727 0.6895,-1.51563 -17.1309,-7.80273 7.6133,-5.49023 z"
           id="path95" /><path
           style="color:#000000;display:inline;fill:#000000;fill-opacity:1;-inkscape-stroke:none"
           d="m 1320.9861,289.24618 -0.3028,12.97852 1.6641,0.0391 0.3047,-12.97852 z"
           id="path94" /><path
           style="color:#000000;display:inline;fill:#000000;fill-opacity:1;-inkscape-stroke:none"
           d="m 1202.5486,286.06064 -2.6778,18.67968 0.5254,0.0762 -0.076,0.15235 23.8965,12.03906 0.75,-1.48633 -23.2793,-11.72851 2.5098,-17.4961 z"
           id="path93" /><path
           style="color:#000000;display:inline;fill:#000000;fill-opacity:1;-inkscape-stroke:none"
           d="m 1302.3337,280.41806 -0.2754,0.68945 -0.6933,0.01 0.6191,45.92773 1.666,-0.0234 -0.6015,-44.52734 17.6836,7.06445 0.6171,-1.54687 z"
           id="path92" /><path
           style="color:#000000;display:inline;fill:#000000;fill-opacity:1;-inkscape-stroke:none"
           d="m 1332.3122,280.2579 -1.6425,0.26953 5.8457,35.63477 1.0273,-0.16797 -0.041,0.21875 15.3731,2.84375 0.3046,-1.63672 -15.2324,-2.81836 z"
           id="path91" /><path
           style="color:#000000;display:inline;fill:#000000;fill-opacity:1;-inkscape-stroke:none"
           d="m 1272.5036,279.01571 -44.7988,3.63477 0.1348,1.66016 21.6777,-1.75977 -4.5293,28.03906 1.6445,0.26563 4.5957,-28.44336 21.4102,-1.73828 z"
           id="path90" /><path
           style="color:#000000;display:inline;fill:#000000;fill-opacity:1;-inkscape-stroke:none"
           d="m 1352.199,278.71689 -3.3379,29.93359 1.6543,0.18555 3.3398,-29.9336 z"
           id="path89" /><path
           style="color:#000000;display:inline;fill:#000000;fill-opacity:1;-inkscape-stroke:none"
           d="m 1365.1775,277.99228 -0.2578,1.64648 12.4688,1.94531 -7.4474,45.07032 1.6426,0.27148 7.4513,-45.08594 16.3008,2.54297 0.2578,-1.64648 z"
           id="path88" /><path
           id="path87"
           style="color:#000000;display:inline;fill:#000000;fill-opacity:1;-inkscape-stroke:none"
           d="m 1284.3339,272.10965 -1.6449,0.2558 0.1587,1.02113 -12.313,23.41407 -0.279,-0.13436 -0.7245,1.4981 0.2284,0.11111 -8.8377,16.80466 1.4743,0.77566 8.8635,-16.85582 16.8259,8.14472 2.8887,18.62109 1.4588,1.13636 -0.3436,-0.69091 0.6232,-0.0982 -8.1349,-52.43504 0.1328,-0.25425 -0.1876,-0.0997 z m -1.0459,4.05195 4.6632,29.23646 -15.908,-7.77214 z"
           sodipodi:nodetypes="ccccccccccccccccccccccc" /><path
           style="color:#000000;display:inline;fill:#000000;fill-opacity:1;-inkscape-stroke:none"
           d="m 1234.2243,270.53524 -31.0234,14.0879 0.6875,1.51562 31.0234,-14.08789 z"
           id="path85" /><path
           id="path1-9-9-1"
           style="display:inline;stroke-width:4.09254;stroke-linecap:round;stroke-linejoin:round"
           inkscape:transform-center-x="0.013689729"
           inkscape:transform-center-y="0.002545087"
           d="m 1365.5582,279.36688 0.4895,1.053 -0.9722,-0.63545 0.019,1.16097 -0.6296,-0.97578 -0.4553,1.0682 -0.1782,-1.1474 -0.8506,0.79073 0.3041,-1.12061 -1.0988,0.37653 0.7338,-0.90006 -1.157,-0.10277 1.0366,-0.52389 -1.0152,-0.56431 1.1602,-0.0571 -0.6979,-0.92827 1.0832,0.41951 -0.2598,-1.13172 0.8188,0.82362 0.2231,-1.13949 0.4129,1.0853 0.6676,-0.95023 -0.064,1.15934 0.9965,-0.59667 -0.5306,1.03291 1.1532,-0.13994 -0.9051,0.72789 1.1105,0.34099 -1.123,0.29699 0.8757,0.76296 z" /><path
           id="path1-9-0-3"
           style="display:inline;stroke-width:4.09254;stroke-linecap:round;stroke-linejoin:round"
           inkscape:transform-center-x="0.013689729"
           inkscape:transform-center-y="0.002545087"
           d="m 1350.8087,309.59915 0.4895,1.053 -0.9722,-0.63545 0.019,1.16097 -0.6296,-0.97578 -0.4553,1.0682 -0.1782,-1.1474 -0.8506,0.79073 0.3041,-1.12061 -1.0988,0.37653 0.7338,-0.90006 -1.157,-0.10277 1.0366,-0.52389 -1.0152,-0.56431 1.1602,-0.0571 -0.6979,-0.92827 1.0832,0.41951 -0.2598,-1.13172 0.8188,0.82362 0.2231,-1.13949 0.4129,1.0853 0.6676,-0.95023 -0.064,1.15934 0.9965,-0.59667 -0.5306,1.03291 1.1532,-0.13994 -0.9051,0.72789 1.1105,0.34099 -1.123,0.29699 0.8757,0.76296 z" /><path
           id="path1-9-2-7"
           style="display:inline;stroke-width:4.09254;stroke-linecap:round;stroke-linejoin:round"
           inkscape:transform-center-x="0.013689729"
           inkscape:transform-center-y="0.002545087"
           d="m 1338.2556,316.35889 0.4895,1.053 -0.9722,-0.63545 0.019,1.16097 -0.6296,-0.97578 -0.4553,1.0682 -0.1782,-1.1474 -0.8506,0.79073 0.3041,-1.12061 -1.0988,0.37653 0.7338,-0.90006 -1.157,-0.10277 1.0366,-0.52389 -1.0152,-0.56431 1.1602,-0.0571 -0.6979,-0.92827 1.0832,0.41951 -0.2598,-1.13172 0.8188,0.82362 0.2231,-1.13949 0.4129,1.0853 0.6676,-0.95023 -0.064,1.15934 0.9965,-0.59667 -0.5306,1.03291 1.1532,-0.13994 -0.9051,0.72789 1.1105,0.34099 -1.123,0.29699 0.8757,0.76296 z" /><path
           id="path1-9-8-2"
           style="display:inline;stroke-width:4.09254;stroke-linecap:round;stroke-linejoin:round"
           inkscape:transform-center-x="0.013689729"
           inkscape:transform-center-y="0.002545087"
           d="m 1313.6245,310.69528 0.4895,1.053 -0.9722,-0.63545 0.019,1.16097 -0.6296,-0.97578 -0.4553,1.0682 -0.1782,-1.1474 -0.8506,0.79073 0.3041,-1.12061 -1.0988,0.37653 0.7338,-0.90006 -1.157,-0.10277 1.0366,-0.52389 -1.0152,-0.56431 1.1602,-0.0571 -0.6979,-0.92827 1.0832,0.41951 -0.2598,-1.13172 0.8188,0.82362 0.2231,-1.13949 0.4129,1.0853 0.6676,-0.95023 -0.064,1.15934 0.9965,-0.59667 -0.5306,1.03291 1.1532,-0.13994 -0.9051,0.72789 1.1105,0.34099 -1.123,0.29699 0.8757,0.76296 z" /><path
           id="path1-9-3-8"
           style="display:inline;stroke-width:4.09254;stroke-linecap:round;stroke-linejoin:round"
           inkscape:transform-center-x="0.013689729"
           inkscape:transform-center-y="0.002545087"
           d="m 1322.5447,289.85211 0.4895,1.053 -0.9722,-0.63545 0.019,1.16097 -0.6296,-0.97578 -0.4553,1.0682 -0.1782,-1.1474 -0.8506,0.79073 0.3041,-1.12061 -1.0988,0.37653 0.7338,-0.90006 -1.157,-0.10277 1.0366,-0.52389 -1.0152,-0.56431 1.1602,-0.0571 -0.6979,-0.92827 1.0832,0.41951 -0.2598,-1.13172 0.8188,0.82362 0.2231,-1.13949 0.4129,1.0853 0.6676,-0.95023 -0.064,1.15934 0.9965,-0.59667 -0.5306,1.03291 1.1532,-0.13994 -0.9051,0.72789 1.1105,0.34099 -1.123,0.29699 0.8757,0.76296 z" /><path
           id="path1-9-39-0"
           style="display:inline;stroke-width:4.09254;stroke-linecap:round;stroke-linejoin:round"
           inkscape:transform-center-x="0.013689729"
           inkscape:transform-center-y="0.002545087"
           d="m 1289.9778,307.51911 0.4895,1.053 -0.9722,-0.63545 0.019,1.16097 -0.6296,-0.97578 -0.4553,1.0682 -0.1782,-1.1474 -0.8506,0.79073 0.3041,-1.12061 -1.0988,0.37653 0.7338,-0.90006 -1.157,-0.10277 1.0366,-0.52389 -1.0152,-0.56431 1.1602,-0.0571 -0.6979,-0.92827 1.0832,0.41951 -0.2598,-1.13172 0.8188,0.82362 0.2231,-1.13949 0.4129,1.0853 0.6676,-0.95023 -0.064,1.15934 0.9965,-0.59667 -0.5306,1.03291 1.1532,-0.13994 -0.9051,0.72789 1.1105,0.34099 -1.123,0.29699 0.8757,0.76296 z" /><path
           id="path1-9-57-7"
           style="display:inline;stroke-width:4.09254;stroke-linecap:round;stroke-linejoin:round"
           inkscape:transform-center-x="0.013689729"
           inkscape:transform-center-y="0.002545087"
           d="m 1272.0804,298.71404 0.4895,1.053 -0.9722,-0.63545 0.019,1.16097 -0.6296,-0.97578 -0.4553,1.0682 -0.1782,-1.1474 -0.8506,0.79073 0.3041,-1.12061 -1.0988,0.37653 0.7338,-0.90006 -1.157,-0.10277 1.0366,-0.52389 -1.0152,-0.56431 1.1602,-0.0571 -0.6979,-0.92827 1.0832,0.41951 -0.2598,-1.13172 0.8188,0.82362 0.2231,-1.13949 0.4129,1.0853 0.6676,-0.95023 -0.064,1.15934 0.9965,-0.59667 -0.5306,1.03291 1.1532,-0.13994 -0.9051,0.72789 1.1105,0.34099 -1.123,0.29699 0.8757,0.76296 z" /><path
           id="path1-9-87-2"
           style="display:inline;stroke-width:4.09254;stroke-linecap:round;stroke-linejoin:round"
           inkscape:transform-center-x="0.013689729"
           inkscape:transform-center-y="0.002545087"
           d="m 1371.9855,327.88462 0.4895,1.053 -0.9722,-0.63545 0.019,1.16097 -0.6296,-0.97578 -0.4553,1.0682 -0.1782,-1.1474 -0.8506,0.79073 0.3041,-1.12061 -1.0988,0.37653 0.7338,-0.90006 -1.157,-0.10277 1.0366,-0.52389 -1.0152,-0.56431 1.1602,-0.0571 -0.6979,-0.92827 1.0832,0.41951 -0.2598,-1.13172 0.8188,0.82362 0.2231,-1.13949 0.4129,1.0853 0.6676,-0.95023 -0.064,1.15934 0.9965,-0.59667 -0.5306,1.03291 1.1532,-0.13994 -0.9051,0.72789 1.1105,0.34099 -1.123,0.29699 0.8757,0.76296 z" /><path
           id="path1-9-08-5"
           style="display:inline;stroke-width:4.09254;stroke-linecap:round;stroke-linejoin:round"
           inkscape:transform-center-x="0.013689729"
           inkscape:transform-center-y="0.002545087"
           d="m 1262.3561,316.64158 0.4895,1.053 -0.9722,-0.63545 0.019,1.16097 -0.6297,-0.97578 -0.4553,1.0682 -0.1781,-1.1474 -0.8506,0.79073 0.3041,-1.12061 -1.0988,0.37653 0.7338,-0.90006 -1.1571,-0.10277 1.0367,-0.52389 -1.0153,-0.56431 1.1602,-0.0571 -0.6978,-0.92827 1.0831,0.41951 -0.2598,-1.13172 0.8189,0.82362 0.2231,-1.13949 0.4129,1.0853 0.6675,-0.95023 -0.064,1.15934 0.9964,-0.59667 -0.5305,1.03291 1.1531,-0.13994 -0.905,0.72789 1.1104,0.34099 -1.1229,0.29699 0.8757,0.76296 z" /><path
           id="path1-9-38-8"
           style="display:inline;stroke-width:4.09254;stroke-linecap:round;stroke-linejoin:round"
           inkscape:transform-center-x="0.013689729"
           inkscape:transform-center-y="0.002545087"
           d="m 1246.9289,312.35815 0.4896,1.053 -0.9723,-0.63545 0.019,1.16097 -0.6296,-0.97578 -0.4553,1.0682 -0.1782,-1.1474 -0.8506,0.79073 0.3042,-1.12061 -1.0989,0.37653 0.7338,-0.90006 -1.157,-0.10277 1.0366,-0.52389 -1.0152,-0.56431 1.1602,-0.0571 -0.6979,-0.92827 1.0832,0.41951 -0.2598,-1.13172 0.8188,0.82362 0.2231,-1.13949 0.413,1.0853 0.6675,-0.95023 -0.064,1.15934 0.9965,-0.59667 -0.5306,1.03291 1.1532,-0.13994 -0.905,0.72789 1.1104,0.34099 -1.123,0.29699 0.8757,0.76296 z" /><path
           id="path1-9-087-8"
           style="display:inline;stroke-width:4.09254;stroke-linecap:round;stroke-linejoin:round"
           inkscape:transform-center-x="0.013689729"
           inkscape:transform-center-y="0.002545087"
           d="m 1229.2414,284.40219 0.4895,1.053 -0.9722,-0.63545 0.019,1.16097 -0.6297,-0.97578 -0.4553,1.0682 -0.1781,-1.1474 -0.8506,0.79073 0.3041,-1.12061 -1.0988,0.37653 0.7338,-0.90006 -1.1571,-0.10277 1.0367,-0.52389 -1.0153,-0.56431 1.1602,-0.0571 -0.6978,-0.92827 1.0832,0.41951 -0.2599,-1.13172 0.8189,0.82362 0.2231,-1.13949 0.4129,1.0853 0.6675,-0.95023 -0.064,1.15934 0.9965,-0.59667 -0.5306,1.03291 1.1531,-0.13994 -0.905,0.72789 1.1105,0.34099 -1.123,0.29699 0.8757,0.76296 z" /><path
           id="path1-9-303-6"
           style="display:inline;stroke-width:4.09254;stroke-linecap:round;stroke-linejoin:round"
           inkscape:transform-center-x="0.013689729"
           inkscape:transform-center-y="0.002545087"
           d="m 1226.6084,317.90031 0.4895,1.053 -0.9722,-0.63545 0.019,1.16097 -0.6297,-0.97578 -0.4553,1.0682 -0.1781,-1.1474 -0.8506,0.79073 0.3041,-1.12061 -1.0988,0.37653 0.7338,-0.90006 -1.1571,-0.10277 1.0367,-0.52389 -1.0153,-0.56431 1.1602,-0.0571 -0.6978,-0.92827 1.0832,0.41951 -0.2599,-1.13172 0.8189,0.82362 0.2231,-1.13949 0.4129,1.0853 0.6675,-0.95023 -0.064,1.15934 0.9965,-0.59667 -0.5306,1.03291 1.1531,-0.13994 -0.905,0.72789 1.1105,0.34099 -1.123,0.29699 0.8757,0.76296 z" /><path
           id="path1-9-18-0"
           style="display:inline;stroke-width:4.09254;stroke-linecap:round;stroke-linejoin:round"
           inkscape:transform-center-x="0.013689729"
           inkscape:transform-center-y="0.002545087"
           d="m 1205.3626,287.05046 0.4896,1.053 -0.9723,-0.63545 0.019,1.16097 -0.6296,-0.97578 -0.4553,1.0682 -0.1782,-1.1474 -0.8506,0.79073 0.3042,-1.12061 -1.0989,0.37653 0.7338,-0.90006 -1.157,-0.10277 1.0366,-0.52389 -1.0152,-0.56431 1.1602,-0.0571 -0.6979,-0.92827 1.0832,0.41951 -0.2598,-1.13172 0.8188,0.82362 0.2231,-1.13949 0.413,1.0853 0.6675,-0.95023 -0.064,1.15934 0.9965,-0.59667 -0.5306,1.03291 1.1532,-0.13994 -0.905,0.72789 1.1104,0.34099 -1.123,0.29699 0.8757,0.76296 z" /><path
           id="path2-6-82"
           style="display:inline;stroke-width:0.55278;stroke-linecap:round;stroke-linejoin:round"
           inkscape:transform-center-x="-0.017927458"
           inkscape:transform-center-y="0.0027345719"
           d="m 1284.4855,273.3544 0.1594,0.56917 -0.4794,-0.34569 -0.01,0.59103 -0.3627,-0.46676 -0.1736,0.56501 -0.2164,-0.55003 -0.3258,0.49321 -0.053,-0.58872 -0.4515,0.38146 0.1153,-0.57973 -0.5407,0.2388 0.2739,-0.52376 -0.586,0.0768 0.4104,-0.42537 -0.584,-0.0914 0.5136,-0.29252 -0.5345,-0.25224 0.5752,-0.13597 -0.4418,-0.39262 0.5902,0.0316 -0.3133,-0.5012 0.5574,0.19661 -0.1594,-0.56917 0.4794,0.34569 0.01,-0.59103 0.3627,0.46676 0.1736,-0.565 0.2164,0.55002 0.3258,-0.49321 0.053,0.58872 0.4515,-0.38146 -0.1153,0.57973 0.5407,-0.2388 -0.2739,0.52376 0.586,-0.0768 -0.4104,0.42537 0.584,0.0914 -0.5136,0.29252 0.5345,0.25224 -0.5752,0.13597 0.4418,0.39262 -0.5902,-0.0316 0.3133,0.5012 z" /><path
           id="path2-6-8-2"
           style="display:inline;stroke-width:0.55278;stroke-linecap:round;stroke-linejoin:round"
           inkscape:transform-center-x="-0.017927458"
           inkscape:transform-center-y="0.0027345719"
           d="m 1292.9588,327.16961 0.1594,0.56917 -0.4794,-0.34569 -0.01,0.59103 -0.3627,-0.46676 -0.1736,0.56501 -0.2164,-0.55003 -0.3258,0.49321 -0.053,-0.58872 -0.4515,0.38146 0.1153,-0.57973 -0.5407,0.2388 0.2739,-0.52376 -0.586,0.0768 0.4104,-0.42537 -0.584,-0.0914 0.5136,-0.29252 -0.5345,-0.25224 0.5752,-0.13597 -0.4418,-0.39262 0.5902,0.0316 -0.3133,-0.5012 0.5574,0.19661 -0.1594,-0.56917 0.4794,0.34569 0.01,-0.59103 0.3627,0.46676 0.1736,-0.565 0.2164,0.55002 0.3258,-0.49321 0.053,0.58872 0.4515,-0.38146 -0.1153,0.57973 0.5407,-0.2388 -0.2739,0.52376 0.586,-0.0768 -0.4104,0.42537 0.584,0.0914 -0.5136,0.29252 0.5345,0.25224 -0.5752,0.13597 0.4418,0.39262 -0.5902,-0.0316 0.3133,0.5012 z" /><path
           id="path2-6-3-4"
           style="display:inline;stroke-width:0.55278;stroke-linecap:round;stroke-linejoin:round"
           inkscape:transform-center-x="-0.017927458"
           inkscape:transform-center-y="0.0027345719"
           d="m 1322.3093,304.02374 0.1594,0.56917 -0.4794,-0.34569 -0.01,0.59103 -0.3627,-0.46676 -0.1736,0.56501 -0.2164,-0.55003 -0.3258,0.49321 -0.053,-0.58872 -0.4515,0.38146 0.1153,-0.57973 -0.5407,0.2388 0.2739,-0.52376 -0.586,0.0768 0.4104,-0.42537 -0.584,-0.0914 0.5136,-0.29252 -0.5345,-0.25224 0.5752,-0.13597 -0.4418,-0.39262 0.5902,0.0316 -0.3133,-0.5012 0.5574,0.19661 -0.1594,-0.56917 0.4794,0.34569 0.01,-0.59103 0.3627,0.46676 0.1736,-0.565 0.2164,0.55002 0.3258,-0.49321 0.053,0.58872 0.4515,-0.38146 -0.1153,0.57973 0.5407,-0.2388 -0.2739,0.52376 0.586,-0.0768 -0.4104,0.42537 0.584,0.0914 -0.5136,0.29252 0.5345,0.25224 -0.5752,0.13597 0.4418,0.39262 -0.5902,-0.0316 0.3133,0.5012 z" /><path
           id="path2-6-1-3"
           style="display:inline;stroke-width:0.55278;stroke-linecap:round;stroke-linejoin:round"
           inkscape:transform-center-x="-0.017927458"
           inkscape:transform-center-y="0.0027345719"
           d="m 1354.5666,319.13728 0.1594,0.56917 -0.4794,-0.34569 -0.01,0.59103 -0.3627,-0.46676 -0.1736,0.56501 -0.2164,-0.55003 -0.3258,0.49321 -0.053,-0.58872 -0.4515,0.38146 0.1153,-0.57973 -0.5407,0.2388 0.2739,-0.52376 -0.586,0.0768 0.4104,-0.42537 -0.584,-0.0914 0.5136,-0.29252 -0.5345,-0.25224 0.5752,-0.13597 -0.4418,-0.39262 0.5902,0.0316 -0.3133,-0.5012 0.5574,0.19661 -0.1594,-0.56917 0.4794,0.34569 0.01,-0.59103 0.3627,0.46676 0.1736,-0.565 0.2164,0.55002 0.3258,-0.49321 0.053,0.58872 0.4515,-0.38146 -0.1153,0.57973 0.5407,-0.2388 -0.2739,0.52376 0.586,-0.0768 -0.4104,0.42537 0.584,0.0914 -0.5136,0.29252 0.5345,0.25224 -0.5752,0.13597 0.4418,0.39262 -0.5902,-0.0316 0.3133,0.5012 z" /><path
           id="path2-6-4-8"
           style="display:inline;stroke-width:0.55278;stroke-linecap:round;stroke-linejoin:round"
           inkscape:transform-center-x="-0.017927458"
           inkscape:transform-center-y="0.0027345719"
           d="m 1396.387,284.92262 0.1594,0.56917 -0.4794,-0.34569 -0.01,0.59103 -0.3627,-0.46676 -0.1736,0.56501 -0.2164,-0.55003 -0.3258,0.49321 -0.053,-0.58872 -0.4515,0.38146 0.1153,-0.57973 -0.5407,0.2388 0.2739,-0.52376 -0.586,0.0768 0.4104,-0.42537 -0.584,-0.0914 0.5136,-0.29252 -0.5345,-0.25224 0.5752,-0.13597 -0.4418,-0.39262 0.5902,0.0316 -0.3133,-0.5012 0.5574,0.19661 -0.1594,-0.56917 0.4794,0.34569 0.01,-0.59103 0.3627,0.46676 0.1736,-0.565 0.2164,0.55002 0.3258,-0.49321 0.053,0.58872 0.4515,-0.38146 -0.1153,0.57973 0.5407,-0.2388 -0.2739,0.52376 0.586,-0.0768 -0.4104,0.42537 0.584,0.0914 -0.5136,0.29252 0.5345,0.25224 -0.5752,0.13597 0.4418,0.39262 -0.5902,-0.0316 0.3133,0.5012 z" /><path
           id="path2-6-66-2"
           style="display:inline;stroke-width:0.55278;stroke-linecap:round;stroke-linejoin:round"
           inkscape:transform-center-x="-0.017927458"
           inkscape:transform-center-y="0.0027345719"
           d="m 1251.3008,282.92704 0.1594,0.56917 -0.4794,-0.34569 -0.01,0.59103 -0.3627,-0.46676 -0.1736,0.56501 -0.2164,-0.55003 -0.3258,0.49321 -0.053,-0.58872 -0.4515,0.38146 0.1153,-0.57973 -0.5407,0.2388 0.2739,-0.52376 -0.586,0.0768 0.4104,-0.42537 -0.584,-0.0914 0.5136,-0.29252 -0.5345,-0.25224 0.5752,-0.13597 -0.4418,-0.39262 0.5902,0.0316 -0.3133,-0.5012 0.5574,0.19661 -0.1594,-0.56917 0.4794,0.34569 0.01,-0.59103 0.3627,0.46676 0.1736,-0.565 0.2164,0.55002 0.3258,-0.49321 0.053,0.58872 0.4515,-0.38146 -0.1153,0.57973 0.5407,-0.2388 -0.2739,0.52376 0.586,-0.0768 -0.4104,0.42537 0.584,0.0914 -0.5136,0.29252 0.5345,0.25224 -0.5752,0.13597 0.4418,0.39262 -0.5902,-0.0316 0.3133,0.5012 z" /><path
           id="path3-23-5"
           style="display:inline;stroke-width:2.124;stroke-linecap:round;stroke-linejoin:round"
           d="m 1235.9884,271.30193 a 1.2257435,1.2257435 0 0 1 -1.2257,1.22574 1.2257435,1.2257435 0 0 1 -1.2258,-1.22574 1.2257435,1.2257435 0 0 1 1.2258,-1.22574 1.2257435,1.2257435 0 0 1 1.2257,1.22574 z" /><path
           id="path3-3-2"
           style="display:inline;stroke-width:2.124;stroke-linecap:round;stroke-linejoin:round"
           d="m 1202.1056,304.63942 a 1.2257435,1.2257435 0 0 1 -1.2257,1.22575 1.2257435,1.2257435 0 0 1 -1.2258,-1.22575 1.2257435,1.2257435 0 0 1 1.2258,-1.22574 1.2257435,1.2257435 0 0 1 1.2257,1.22574 z" /><path
           id="path3-6-2"
           style="display:inline;stroke-width:2.79151;stroke-linecap:round;stroke-linejoin:round"
           d="m 1227.4083,331.86617 a 1.6109575,1.6109575 0 0 1 -1.611,1.61096 1.6109575,1.6109575 0 0 1 -1.6109,-1.61096 1.6109575,1.6109575 0 0 1 1.6109,-1.61096 1.6109575,1.6109575 0 0 1 1.611,1.61096 z" /><path
           id="path3-7-4"
           style="display:inline;stroke-width:2.124;stroke-linecap:round;stroke-linejoin:round"
           d="m 1258.9224,335.36025 a 1.2257435,1.2257435 0 0 1 -1.2258,1.22574 1.2257435,1.2257435 0 0 1 -1.2257,-1.22574 1.2257435,1.2257435 0 0 1 1.2257,-1.22575 1.2257435,1.2257435 0 0 1 1.2258,1.22575 z" /><path
           id="path3-99-9"
           style="display:inline;stroke-width:2.537;stroke-linecap:round;stroke-linejoin:round"
           d="m 1379.9659,280.9081 a 1.4640826,1.4640826 0 0 1 -1.4641,1.46408 1.4640826,1.4640826 0 0 1 -1.4641,-1.46408 1.4640826,1.4640826 0 0 1 1.4641,-1.46408 1.4640826,1.4640826 0 0 1 1.4641,1.46408 z" /><path
           id="path3-88-8"
           style="display:inline;stroke-width:2.124;stroke-linecap:round;stroke-linejoin:round"
           d="m 1354.3694,278.44988 a 1.2257435,1.2257435 0 0 1 -1.2258,1.22574 1.2257435,1.2257435 0 0 1 -1.2257,-1.22574 1.2257435,1.2257435 0 0 1 1.2257,-1.22575 1.2257435,1.2257435 0 0 1 1.2258,1.22575 z" /><path
           id="path3-54-2"
           style="display:inline;stroke-width:2.124;stroke-linecap:round;stroke-linejoin:round"
           d="m 1332.5261,280.14666 a 1.2257435,1.2257435 0 0 1 -1.2257,1.22574 1.2257435,1.2257435 0 0 1 -1.2258,-1.22574 1.2257435,1.2257435 0 0 1 1.2258,-1.22575 1.2257435,1.2257435 0 0 1 1.2257,1.22575 z" /><path
           id="path3-54-1-8"
           style="display:inline;stroke-width:2.124;stroke-linecap:round;stroke-linejoin:round"
           d="m 1303.6625,281.55709 a 1.2257435,1.2257435 0 0 1 -1.2258,1.22574 1.2257435,1.2257435 0 0 1 -1.2257,-1.22574 1.2257435,1.2257435 0 0 1 1.2257,-1.22575 1.2257435,1.2257435 0 0 1 1.2258,1.22575 z" /><path
           id="path3-54-5-0"
           style="display:inline;stroke-width:2.124;stroke-linecap:round;stroke-linejoin:round"
           d="m 1331.6099,318.11699 a 1.2257435,1.2257435 0 0 1 -1.2258,1.22575 1.2257435,1.2257435 0 0 1 -1.2257,-1.22575 1.2257435,1.2257435 0 0 1 1.2257,-1.22574 1.2257435,1.2257435 0 0 1 1.2258,1.22574 z" /><path
           id="path3-54-0-4-1"
           style="display:inline;stroke-width:2.537;stroke-linecap:round;stroke-linejoin:round"
           d="m 1274.1608,280.0811 a 1.4640826,1.4640826 0 0 1 -1.4641,1.46409 1.4640826,1.4640826 0 0 1 -1.464,-1.46409 1.4640826,1.4640826 0 0 1 1.464,-1.46408 1.4640826,1.4640826 0 0 1 1.4641,1.46408 z" /><path
           id="path3-54-7-4"
           style="display:inline;stroke-width:2.124;stroke-linecap:round;stroke-linejoin:round"
           d="m 1304.0228,326.96422 a 1.2257435,1.2257435 0 0 1 -1.2257,1.22574 1.2257435,1.2257435 0 0 1 -1.2258,-1.22574 1.2257435,1.2257435 0 0 1 1.2258,-1.22574 1.2257435,1.2257435 0 0 1 1.2257,1.22574 z" /></g></g><g
       id="g103"
       transform="matrix(0.87374854,0,0,0.87374854,138.57729,103.90882)"><path
         id="path82"
         style="color:#000000;display:inline;fill:#000000;fill-opacity:1;-inkscape-stroke:none"
         d="m 1164.0558,288.91178 -0.787,0.97255 -0.9648,-0.9002 -15.8476,16.94935 0.7752,0.72657 -0.4238,0.44701 24.2404,22.95518 0.6759,-0.71468 0.664,0.2496 3.8122,-10.14047 -1.5585,-0.58601 -3.4102,9.07231 -22.4492,-21.25968 28.207,-4.90823 -0.055,-0.32039 0.1794,0.14676 1.0469,-1.29501 z m -0.7033,1.39372 12.3476,10.05571 -26.1457,4.63073 z" /><path
         style="color:#000000;display:inline;fill:#000000;fill-opacity:1;-inkscape-stroke:none"
         d="m 1121.8274,288.25356 -28.8066,2.05273 0.1172,1.66016 14.3476,-1.02149 2.6426,41.73828 1.6621,-0.10547 -2.6445,-41.75195 12.7988,-0.91211 z"
         id="path80" /><path
         style="color:#000000;display:inline;fill:#000000;fill-opacity:1;-inkscape-stroke:none"
         d="m 1127.7083,282.98793 -4.4219,46.54883 1.6582,0.1582 1.9043,-20.05273 10.7793,-4.09375 0.9492,9.45508 0.2246,16.99804 1.6641,-0.0215 -0.2246,-17.07031 -1.0586,-10.54883 -0.9668,0.0977 -0.3027,-0.79883 -10.8887,4.13477 2.3418,-24.64844 z"
         id="path79" /><path
         id="path1-1"
         style="display:inline;stroke-width:4.09254;stroke-linecap:round;stroke-linejoin:round"
         inkscape:transform-center-x="0.013689729"
         inkscape:transform-center-y="0.002545087"
         d="m 1112.2183,333.77629 0.4895,1.05301 -0.9722,-0.63545 0.019,1.16097 -0.6297,-0.97578 -0.4553,1.0682 -0.1781,-1.1474 -0.8506,0.79073 0.3041,-1.12061 -1.0988,0.37653 0.7338,-0.90006 -1.1571,-0.10278 1.0367,-0.52388 -1.0153,-0.56431 1.1602,-0.0571 -0.6978,-0.92826 1.0831,0.41951 -0.2598,-1.13172 0.8189,0.82362 0.2231,-1.1395 0.4129,1.08531 0.6675,-0.95023 -0.064,1.15934 0.9964,-0.59667 -0.5305,1.03291 1.1531,-0.13994 -0.905,0.72788 1.1104,0.341 -1.1229,0.29699 0.8757,0.76296 z" /><path
         id="path1-9-73"
         style="display:inline;stroke-width:4.09254;stroke-linecap:round;stroke-linejoin:round"
         inkscape:transform-center-x="0.013689729"
         inkscape:transform-center-y="0.002545087"
         d="m 1125.0536,330.3301 0.4895,1.05301 -0.9722,-0.63545 0.019,1.16097 -0.6297,-0.97578 -0.4553,1.0682 -0.1781,-1.1474 -0.8506,0.79073 0.3041,-1.12061 -1.0988,0.37653 0.7338,-0.90006 -1.1571,-0.10278 1.0367,-0.52388 -1.0153,-0.56431 1.1602,-0.0571 -0.6978,-0.92826 1.0831,0.41951 -0.2598,-1.13172 0.8189,0.82362 0.2231,-1.1395 0.4129,1.08531 0.6675,-0.95023 -0.064,1.15934 0.9964,-0.59667 -0.5305,1.03291 1.1531,-0.13994 -0.905,0.72788 1.1104,0.341 -1.1229,0.29699 0.8757,0.76296 z" /><path
         id="path1-9-27-8"
         style="display:inline;stroke-width:4.09254;stroke-linecap:round;stroke-linejoin:round"
         inkscape:transform-center-x="0.013689729"
         inkscape:transform-center-y="0.002545087"
         d="m 1094.362,292.54208 0.4895,1.05301 -0.9722,-0.63545 0.019,1.16097 -0.6297,-0.97578 -0.4553,1.0682 -0.1781,-1.1474 -0.8506,0.79073 0.3041,-1.12061 -1.0988,0.37653 0.7338,-0.90006 -1.1571,-0.10278 1.0367,-0.52388 -1.0153,-0.56431 1.1602,-0.0571 -0.6978,-0.92826 1.0831,0.41951 -0.2598,-1.13172 0.8189,0.82362 0.2231,-1.1395 0.4129,1.08531 0.6675,-0.95023 -0.064,1.15934 0.9964,-0.59667 -0.5305,1.03291 1.1531,-0.13994 -0.905,0.72788 1.1104,0.341 -1.1229,0.29699 0.8757,0.76296 z" /><path
         id="path1-9-92-4"
         style="display:inline;stroke-width:4.09254;stroke-linecap:round;stroke-linejoin:round"
         inkscape:transform-center-x="0.013689729"
         inkscape:transform-center-y="0.002545087"
         d="m 1122.8557,289.77763 0.4895,1.05301 -0.9722,-0.63545 0.019,1.16097 -0.6297,-0.97578 -0.4553,1.0682 -0.1781,-1.1474 -0.8506,0.79073 0.3041,-1.12061 -1.0988,0.37653 0.7338,-0.90006 -1.1571,-0.10278 1.0367,-0.52388 -1.0153,-0.56431 1.1602,-0.0571 -0.6978,-0.92826 1.0831,0.41951 -0.2598,-1.13172 0.8189,0.82362 0.2231,-1.1395 0.4129,1.08531 0.6675,-0.95023 -0.064,1.15934 0.9964,-0.59667 -0.5305,1.03291 1.1531,-0.13994 -0.905,0.72788 1.1104,0.341 -1.1229,0.29699 0.8757,0.76296 z" /><path
         id="path1-9-78-9"
         style="display:inline;stroke-width:4.09254;stroke-linecap:round;stroke-linejoin:round"
         inkscape:transform-center-x="0.013689729"
         inkscape:transform-center-y="0.002545087"
         d="m 1139.4384,305.16287 0.4895,1.05301 -0.9722,-0.63545 0.019,1.16097 -0.6297,-0.97578 -0.4553,1.0682 -0.1781,-1.1474 -0.8506,0.79073 0.3041,-1.12061 -1.0988,0.37653 0.7338,-0.90006 -1.1571,-0.10278 1.0367,-0.52388 -1.0153,-0.56431 1.1602,-0.0571 -0.6978,-0.92826 1.0831,0.41951 -0.2598,-1.13172 0.8189,0.82362 0.2231,-1.1395 0.4129,1.08531 0.6675,-0.95023 -0.064,1.15934 0.9964,-0.59667 -0.5305,1.03291 1.1531,-0.13994 -0.905,0.72788 1.1104,0.341 -1.1229,0.29699 0.8757,0.76296 z" /><path
         id="path1-9-16-7"
         style="display:inline;stroke-width:4.09254;stroke-linecap:round;stroke-linejoin:round"
         inkscape:transform-center-x="0.013689729"
         inkscape:transform-center-y="0.002545087"
         d="m 1148.6188,307.46008 0.4895,1.05301 -0.9722,-0.63545 0.019,1.16097 -0.6297,-0.97578 -0.4553,1.0682 -0.1781,-1.1474 -0.8506,0.79073 0.3041,-1.12061 -1.0988,0.37653 0.7338,-0.90006 -1.1571,-0.10278 1.0367,-0.52388 -1.0153,-0.56431 1.1602,-0.0571 -0.6978,-0.92826 1.0831,0.41951 -0.2598,-1.13172 0.8189,0.82362 0.2231,-1.1395 0.4129,1.08531 0.6675,-0.95023 -0.064,1.15934 0.9964,-0.59667 -0.5305,1.03291 1.1531,-0.13994 -0.905,0.72788 1.1104,0.341 -1.1229,0.29699 0.8757,0.76296 z" /><path
         id="path1-9-90-3"
         style="display:inline;stroke-width:4.09254;stroke-linecap:round;stroke-linejoin:round"
         inkscape:transform-center-x="0.013689729"
         inkscape:transform-center-y="0.002545087"
         d="m 1164.4066,290.46201 0.4895,1.05301 -0.9722,-0.63545 0.019,1.16097 -0.6297,-0.97578 -0.4553,1.0682 -0.1781,-1.1474 -0.8506,0.79073 0.3041,-1.12061 -1.0988,0.37653 0.7338,-0.90006 -1.1571,-0.10278 1.0367,-0.52388 -1.0153,-0.56431 1.1602,-0.0571 -0.6978,-0.92826 1.0831,0.41951 -0.2598,-1.13172 0.8189,0.82362 0.2231,-1.1395 0.4129,1.08531 0.6675,-0.95023 -0.064,1.15934 0.9964,-0.59667 -0.5305,1.03291 1.1531,-0.13994 -0.905,0.72788 1.1104,0.341 -1.1229,0.29699 0.8757,0.76296 z" /><path
         id="path1-9-75-2"
         style="display:inline;stroke-width:4.09254;stroke-linecap:round;stroke-linejoin:round"
         inkscape:transform-center-x="0.013689729"
         inkscape:transform-center-y="0.002545087"
         d="m 1176.7427,320.06759 0.4895,1.05301 -0.9722,-0.63545 0.019,1.16097 -0.6297,-0.97578 -0.4553,1.0682 -0.1781,-1.1474 -0.8506,0.79073 0.3041,-1.12061 -1.0988,0.37653 0.7338,-0.90006 -1.1571,-0.10278 1.0367,-0.52388 -1.0153,-0.56431 1.1602,-0.0571 -0.6978,-0.92826 1.0831,0.41951 -0.2598,-1.13172 0.8189,0.82362 0.2231,-1.1395 0.4129,1.08531 0.6675,-0.95023 -0.064,1.15934 0.9964,-0.59667 -0.5305,1.03291 1.1531,-0.13994 -0.905,0.72788 1.1104,0.341 -1.1229,0.29699 0.8757,0.76296 z" /><path
         id="path2-6-48-3"
         style="display:inline;stroke-width:0.55278;stroke-linecap:round;stroke-linejoin:round"
         inkscape:transform-center-x="-0.017927458"
         inkscape:transform-center-y="0.0027345719"
         d="m 1172.2762,330.28907 0.1595,0.56917 -0.4795,-0.34569 -0.01,0.59103 -0.3626,-0.46676 -0.1736,0.565 -0.2165,-0.55002 -0.3257,0.49321 -0.053,-0.58872 -0.4515,0.38146 0.1152,-0.57973 -0.5406,0.2388 0.2739,-0.52376 -0.5861,0.0768 0.4104,-0.42537 -0.5839,-0.0914 0.5136,-0.29252 -0.5346,-0.25225 0.5753,-0.13596 -0.4419,-0.39263 0.5903,0.0316 -0.3133,-0.5012 0.5574,0.19661 -0.1594,-0.56917 0.4794,0.34569 0.01,-0.59103 0.3626,0.46676 0.1736,-0.56501 0.2165,0.55002 0.3257,-0.49321 0.053,0.58872 0.4515,-0.38145 -0.1152,0.57972 0.5407,-0.2388 -0.274,0.52377 0.5861,-0.0768 -0.4104,0.42537 0.5839,0.0914 -0.5136,0.29251 0.5346,0.25225 -0.5753,0.13596 0.4419,0.39263 -0.5903,-0.0316 0.3134,0.5012 z" /><path
         id="path2-6-2-4"
         style="display:inline;stroke-width:0.55278;stroke-linecap:round;stroke-linejoin:round"
         inkscape:transform-center-x="-0.017927458"
         inkscape:transform-center-y="0.0027345719"
         d="m 1140.4199,333.90036 0.1595,0.56917 -0.4795,-0.34569 -0.01,0.59103 -0.3626,-0.46676 -0.1736,0.565 -0.2165,-0.55002 -0.3257,0.49321 -0.053,-0.58872 -0.4515,0.38146 0.1152,-0.57973 -0.5406,0.2388 0.2739,-0.52376 -0.5861,0.0768 0.4104,-0.42537 -0.5839,-0.0914 0.5136,-0.29252 -0.5346,-0.25225 0.5753,-0.13596 -0.4419,-0.39263 0.5903,0.0316 -0.3133,-0.5012 0.5574,0.19661 -0.1594,-0.56917 0.4794,0.34569 0.01,-0.59103 0.3626,0.46676 0.1736,-0.56501 0.2165,0.55002 0.3257,-0.49321 0.053,0.58872 0.4515,-0.38145 -0.1152,0.57972 0.5407,-0.2388 -0.274,0.52377 0.5861,-0.0768 -0.4104,0.42537 0.5839,0.0914 -0.5136,0.29251 0.5346,0.25225 -0.5753,0.13596 0.4419,0.39263 -0.5903,-0.0316 0.3134,0.5012 z" /><path
         id="path3-236-4"
         style="display:inline;stroke-width:2.124;stroke-linecap:round;stroke-linejoin:round"
         d="m 1127.5006,308.7815 a 1.2257435,1.2257435 0 0 1 -1.2257,1.22574 1.2257435,1.2257435 0 0 1 -1.2257,-1.22574 1.2257435,1.2257435 0 0 1 1.2257,-1.22574 1.2257435,1.2257435 0 0 1 1.2257,1.22574 z" /><path
         id="path3-55-8"
         style="display:inline;stroke-width:2.23862;stroke-linecap:round;stroke-linejoin:round"
         d="m 1178.196,300.58896 a 1.2918893,1.2918893 0 0 1 -1.2919,1.29189 1.2918893,1.2918893 0 0 1 -1.2919,-1.29189 1.2918893,1.2918893 0 0 1 1.2919,-1.29188 1.2918893,1.2918893 0 0 1 1.2919,1.29188 z" /><path
         id="path3-24-5"
         style="display:inline;stroke-width:2.124;stroke-linecap:round;stroke-linejoin:round"
         d="m 1129.7141,283.0398 a 1.2257435,1.2257435 0 0 1 -1.2257,1.22574 1.2257435,1.2257435 0 0 1 -1.2257,-1.22574 1.2257435,1.2257435 0 0 1 1.2257,-1.22574 1.2257435,1.2257435 0 0 1 1.2257,1.22574 z" /></g><g
       id="g102"
       transform="matrix(0.87374854,0,0,0.87374854,103.96583,47.837964)"><path
         style="color:#000000;display:inline;fill:#000000;fill-opacity:1;-inkscape-stroke:none"
         d="m 917.47417,369.88351 -1.6191,0.39258 6.0488,24.8496 -26.1641,5.81055 0.3614,1.625 27.0644,-6.00976 -0.1133,-0.51172 0.7422,-0.18164 z"
         id="path78" /><path
         style="color:#000000;display:inline;fill:#000000;fill-opacity:1;-inkscape-stroke:none"
         d="m 898.97027,351.75069 -0.5449,1.14649 -0.961,-0.73633 -14.5566,18.99609 0.1367,0.10547 -2.832,18.96289 1.1211,0.16797 -0.3711,0.42383 13.7637,12.04102 1.0957,-1.25391 -13.7637,-12.04102 -0.076,0.0879 2.6992,-18.07226 13.916,-18.16211 8.6817,4.1289 8.375,11.91016 1.3613,-0.95703 -8.627,-12.26953 z"
         id="path77" /><path
         style="color:#000000;display:inline;fill:#000000;fill-opacity:1;-inkscape-stroke:none"
         d="m 939.46827,350.6628 -1.5859,0.51172 3.3984,10.53516 -13.8339,5.37695 0.2597,0.66797 -0.5058,0.57617 20.2558,17.74024 1.0957,-1.25196 -19.0957,-16.72656 12.8321,-4.99023 -0.3204,-0.82422 1.129,-0.36524 z"
         id="path76" /><path
         style="color:#000000;display:inline;fill:#000000;fill-opacity:1;-inkscape-stroke:none"
         d="m 920.65387,345.51632 -0.2051,0.88476 -1.4414,0.19727 7.7461,56.2207 1.6484,-0.22656 -7.625,-55.33984 16.5879,3.84961 0.377,-1.6211 z"
         id="path75" /><path
         style="color:#000000;display:inline;fill:#000000;fill-opacity:1;-inkscape-stroke:none"
         d="m 946.29647,341.85226 -0.041,1.66406 5.9297,0.14062 -2.0938,31.08399 -4.1426,-1.63477 -0.6113,1.54883 9.6465,3.80664 0.6094,-1.54883 -3.877,-1.53125 2.1348,-31.68359 6.0097,0.14258 0.039,-1.66602 z"
         id="path74" /><path
         style="color:#000000;display:inline;fill:#000000;fill-opacity:1;-inkscape-stroke:none"
         d="m 849.53867,341.48507 -21.9961,23.27148 1.1289,1.06836 -0.1289,0.23633 20.9843,11.36133 1.3145,14.74414 -24.8184,12.80078 0.7637,1.48047 25.1641,-12.97852 -0.375,-0.72656 0.9804,-0.0879 -1.4121,-15.83984 -0.8379,0.0742 0.3926,-0.72656 -20.9336,-11.33399 20.9844,-22.19922 z"
         id="path73" /><path
         style="color:#000000;display:inline;fill:#000000;fill-opacity:1;-inkscape-stroke:none"
         d="m 895.56407,337.18233 -45.5918,20.57813 0.6855,1.51758 23.3574,-10.54297 -1.4062,44.79492 0.9804,1.39079 -0.3281,-0.77149 0.9922,0.0312 1.4395,-45.76953 -0.8985,-0.0273 21.4551,-9.6836 z"
         id="path72"
         sodipodi:nodetypes="cccccccccccc" /><path
         style="color:#000000;display:inline;fill:#000000;fill-opacity:1;-inkscape-stroke:none"
         d="m 1002.4195,336.84249 -14.69723,21.82422 9.0878,7.54297 -14.6054,12.67969 -18.8106,1.24804 -0.1289,-10.99023 11.918,-3.94336 5.7324,0.17187 0.051,-1.66406 -6.0273,-0.17969 -11.6953,3.86915 -0.1289,-10.97657 15.705,-5.02344 -0.5078,-1.58593 -15.8222,5.0625 0.1,0.3125 -1.1524,0.0137 0.3027,25.97656 1.1739,-0.0137 0.045,0.66992 19.914,-1.32226 16.5098,-14.33203 -9.4375,-7.83399 13.85553,-20.57617 z"
         id="path17-2-2" /><path
         id="path1-9-94-5"
         style="display:inline;stroke-width:4.09254;stroke-linecap:round;stroke-linejoin:round"
         inkscape:transform-center-x="0.013689729"
         inkscape:transform-center-y="0.002545087"
         d="m 827.27791,407.0934 0.48954,1.053 -0.97225,-0.63545 0.0187,1.16098 -0.62965,-0.97579 -0.45529,1.0682 -0.17817,-1.14739 -0.85059,0.79073 0.30411,-1.12061 -1.09883,0.37653 0.73382,-0.90007 -1.15706,-0.10277 1.03664,-0.52389 -1.01523,-0.5643 1.1602,-0.0571 -0.69786,-0.92827 1.08317,0.41952 -0.2598,-1.13172 0.81883,0.82361 0.22311,-1.13949 0.41293,1.08531 0.66752,-0.95023 -0.0644,1.15933 0.99649,-0.59666 -0.53058,1.0329 1.15316,-0.13993 -0.90501,0.72788 1.11042,0.34099 -1.12296,0.297 0.87568,0.76296 z" /><path
         id="path1-9-51-7"
         style="display:inline;stroke-width:4.09254;stroke-linecap:round;stroke-linejoin:round"
         inkscape:transform-center-x="0.013689729"
         inkscape:transform-center-y="0.002545087"
         d="m 896.69606,402.96863 0.48954,1.053 -0.97225,-0.63545 0.0187,1.16098 -0.62965,-0.97579 -0.45529,1.0682 -0.17817,-1.14739 -0.85059,0.79073 0.30411,-1.12061 -1.09883,0.37653 0.73382,-0.90007 -1.15706,-0.10277 1.03664,-0.52389 -1.01523,-0.5643 1.1602,-0.0571 -0.69786,-0.92827 1.08317,0.41952 -0.2598,-1.13172 0.81883,0.82361 0.22311,-1.13949 0.41293,1.08531 0.66752,-0.95023 -0.0644,1.15933 0.99649,-0.59666 -0.53058,1.0329 1.15316,-0.13993 -0.90501,0.72788 1.11042,0.34099 -1.12296,0.297 0.87568,0.76296 z" /><path
         id="path1-9-03-7"
         style="display:inline;stroke-width:4.09254;stroke-linecap:round;stroke-linejoin:round"
         inkscape:transform-center-x="0.013689729"
         inkscape:transform-center-y="0.002545087"
         d="m 928.31494,404.033 0.48954,1.053 -0.97225,-0.63545 0.0187,1.16098 -0.62965,-0.97579 -0.45529,1.0682 -0.17817,-1.14739 -0.85059,0.79073 0.30411,-1.12061 -1.09883,0.37653 0.73382,-0.90007 -1.15706,-0.10277 1.03664,-0.52389 -1.01523,-0.5643 1.1602,-0.0571 -0.69786,-0.92827 1.08317,0.41952 -0.2598,-1.13172 0.81883,0.82361 0.22311,-1.13949 0.41293,1.08531 0.66752,-0.95023 -0.0644,1.15933 0.99649,-0.59666 -0.53058,1.0329 1.15316,-0.13993 -0.90501,0.72788 1.11042,0.34099 -1.12296,0.297 0.87568,0.76296 z" /><path
         id="path1-9-54-2"
         style="display:inline;stroke-width:4.09254;stroke-linecap:round;stroke-linejoin:round"
         inkscape:transform-center-x="0.013689729"
         inkscape:transform-center-y="0.002545087"
         d="m 981.74114,365.58579 0.48954,1.053 -0.97225,-0.63545 0.0187,1.16098 -0.62965,-0.97579 -0.45529,1.0682 -0.17817,-1.14739 -0.85059,0.79073 0.30411,-1.12061 -1.09883,0.37653 0.73382,-0.90007 -1.15706,-0.10277 1.03664,-0.52389 -1.01523,-0.5643 1.1602,-0.0571 -0.69786,-0.92827 1.08317,0.41952 -0.2598,-1.13172 0.81883,0.82361 0.22311,-1.13949 0.41293,1.08531 0.66752,-0.95023 -0.0644,1.15933 0.99649,-0.59666 -0.53058,1.0329 1.15316,-0.13993 -0.90501,0.72788 1.11042,0.34099 -1.12296,0.297 0.87568,0.76296 z" /><path
         id="path1-9-49-9"
         style="display:inline;stroke-width:4.09254;stroke-linecap:round;stroke-linejoin:round"
         inkscape:transform-center-x="0.013689729"
         inkscape:transform-center-y="0.002545087"
         d="m 963.62864,356.71118 0.48954,1.053 -0.97225,-0.63545 0.0187,1.16098 -0.62965,-0.97579 -0.45529,1.0682 -0.17817,-1.14739 -0.85059,0.79073 0.30411,-1.12061 -1.09883,0.37653 0.73382,-0.90007 -1.15706,-0.10277 1.03664,-0.52389 -1.01523,-0.5643 1.1602,-0.0571 -0.69786,-0.92827 1.08317,0.41952 -0.2598,-1.13172 0.81883,0.82361 0.22311,-1.13949 0.41293,1.08531 0.66752,-0.95023 -0.0644,1.15933 0.99649,-0.59666 -0.53058,1.0329 1.15316,-0.13993 -0.90501,0.72788 1.11042,0.34099 -1.12296,0.297 0.87568,0.76296 z" /><path
         id="path1-9-32-7"
         style="display:inline;stroke-width:4.09254;stroke-linecap:round;stroke-linejoin:round"
         inkscape:transform-center-x="0.013689729"
         inkscape:transform-center-y="0.002545087"
         d="m 946.72964,374.90933 0.48954,1.053 -0.97225,-0.63545 0.0187,1.16098 -0.62965,-0.97579 -0.45529,1.0682 -0.17817,-1.14739 -0.85059,0.79073 0.30411,-1.12061 -1.09883,0.37653 0.73382,-0.90007 -1.15706,-0.10277 1.03664,-0.52389 -1.01523,-0.5643 1.1602,-0.0571 -0.69786,-0.92827 1.08317,0.41952 -0.2598,-1.13172 0.81883,0.82361 0.22311,-1.13949 0.41293,1.08531 0.66752,-0.95023 -0.0644,1.15933 0.99649,-0.59666 -0.53058,1.0329 1.15316,-0.13993 -0.90501,0.72788 1.11042,0.34099 -1.12296,0.297 0.87568,0.76296 z" /><path
         id="path1-9-162-9"
         style="display:inline;stroke-width:4.09254;stroke-linecap:round;stroke-linejoin:round"
         inkscape:transform-center-x="0.013689729"
         inkscape:transform-center-y="0.002545087"
         d="m 929.06454,369.14962 0.48954,1.053 -0.97225,-0.63545 0.0187,1.16098 -0.62965,-0.97579 -0.45529,1.0682 -0.17817,-1.14739 -0.85059,0.79073 0.30411,-1.12061 -1.09883,0.37653 0.73382,-0.90007 -1.15706,-0.10277 1.03664,-0.52389 -1.01523,-0.5643 1.1602,-0.0571 -0.69786,-0.92827 1.08317,0.41952 -0.2598,-1.13172 0.81883,0.82361 0.22311,-1.13949 0.41293,1.08531 0.66752,-0.95023 -0.0644,1.15933 0.99649,-0.59666 -0.53058,1.0329 1.15316,-0.13993 -0.90501,0.72788 1.11042,0.34099 -1.12296,0.297 0.87568,0.76296 z" /><path
         id="path1-9-391-7"
         style="display:inline;stroke-width:4.09254;stroke-linecap:round;stroke-linejoin:round"
         inkscape:transform-center-x="0.013689729"
         inkscape:transform-center-y="0.002545087"
         d="m 939.17784,351.70431 0.48954,1.053 -0.97225,-0.63545 0.0187,1.16098 -0.62965,-0.97579 -0.45529,1.0682 -0.17817,-1.14739 -0.85059,0.79073 0.30411,-1.12061 -1.09883,0.37653 0.73382,-0.90007 -1.15706,-0.10277 1.03664,-0.52389 -1.01523,-0.5643 1.1602,-0.0571 -0.69786,-0.92827 1.08317,0.41952 -0.2598,-1.13172 0.81883,0.82361 0.22311,-1.13949 0.41293,1.08531 0.66752,-0.95023 -0.0644,1.15933 0.99649,-0.59666 -0.53058,1.0329 1.15316,-0.13993 -0.90501,0.72788 1.11042,0.34099 -1.12296,0.297 0.87568,0.76296 z" /><path
         id="path1-9-929-7"
         style="display:inline;stroke-width:4.09254;stroke-linecap:round;stroke-linejoin:round"
         inkscape:transform-center-x="0.013689729"
         inkscape:transform-center-y="0.002545087"
         d="m 917.41884,370.39935 0.48954,1.053 -0.97225,-0.63545 0.0187,1.16098 -0.62965,-0.97579 -0.45529,1.0682 -0.17817,-1.14739 -0.85059,0.79073 0.30411,-1.12061 -1.09883,0.37653 0.73382,-0.90007 -1.15706,-0.10277 1.03664,-0.52389 -1.01523,-0.5643 1.1602,-0.0571 -0.69786,-0.92827 1.08317,0.41952 -0.2598,-1.13172 0.81883,0.82361 0.22311,-1.13949 0.41293,1.08531 0.66752,-0.95023 -0.0644,1.15933 0.99649,-0.59666 -0.53058,1.0329 1.15316,-0.13993 -0.90501,0.72788 1.11042,0.34099 -1.12296,0.297 0.87568,0.76296 z" /><path
         id="path1-9-82-0"
         style="display:inline;stroke-width:4.09254;stroke-linecap:round;stroke-linejoin:round"
         inkscape:transform-center-x="0.013689729"
         inkscape:transform-center-y="0.002545087"
         d="m 851.77581,359.30414 0.48954,1.053 -0.97225,-0.63545 0.0187,1.16098 -0.62965,-0.97579 -0.45529,1.0682 -0.17817,-1.14739 -0.85059,0.79073 0.30411,-1.12061 -1.09883,0.37653 0.73382,-0.90007 -1.15706,-0.10277 1.03664,-0.52389 -1.01523,-0.5643 1.1602,-0.0571 -0.69786,-0.92827 1.08317,0.41952 -0.2598,-1.13172 0.81883,0.82361 0.22311,-1.13949 0.41293,1.08531 0.66752,-0.95023 -0.0644,1.15933 0.99649,-0.59666 -0.53058,1.0329 1.15316,-0.13993 -0.90501,0.72788 1.11042,0.34099 -1.12296,0.297 0.87568,0.76296 z" /><path
         id="path1-9-509-9"
         style="display:inline;stroke-width:4.09254;stroke-linecap:round;stroke-linejoin:round"
         inkscape:transform-center-x="0.013689729"
         inkscape:transform-center-y="0.002545087"
         d="m 829.7814,365.92202 0.48954,1.053 -0.97225,-0.63545 0.0187,1.16098 -0.62965,-0.97579 -0.45529,1.0682 -0.17817,-1.14739 -0.85059,0.79073 0.30411,-1.12061 -1.09883,0.37653 0.73382,-0.90007 -1.15706,-0.10277 1.03664,-0.52389 -1.01523,-0.5643 1.1602,-0.0571 -0.69786,-0.92827 1.08317,0.41952 -0.2598,-1.13172 0.81883,0.82361 0.22311,-1.13949 0.41293,1.08531 0.66752,-0.95023 -0.0644,1.15933 0.99649,-0.59666 -0.53058,1.0329 1.15316,-0.13993 -0.90501,0.72788 1.11042,0.34099 -1.12296,0.297 0.87568,0.76296 z" /><path
         id="path1-9-277-6"
         style="display:inline;stroke-width:4.09254;stroke-linecap:round;stroke-linejoin:round"
         inkscape:transform-center-x="0.013689729"
         inkscape:transform-center-y="0.002545087"
         d="m 979.60994,351.89178 0.48954,1.053 -0.97225,-0.63545 0.0187,1.16098 -0.62965,-0.97579 -0.45529,1.0682 -0.17817,-1.14739 -0.85059,0.79073 0.30411,-1.12061 -1.09883,0.37653 0.73382,-0.90007 -1.15706,-0.10277 1.03664,-0.52389 -1.01523,-0.5643 1.1602,-0.0571 -0.69786,-0.92827 1.08317,0.41952 -0.2598,-1.13172 0.81883,0.82361 0.22311,-1.13949 0.41293,1.08531 0.66752,-0.95023 -0.0644,1.15933 0.99649,-0.59666 -0.53058,1.0329 1.15316,-0.13993 -0.90501,0.72788 1.11042,0.34099 -1.12296,0.297 0.87568,0.76296 z" /><path
         id="path2-6-20-9"
         style="display:inline;stroke-width:0.55278;stroke-linecap:round;stroke-linejoin:round"
         inkscape:transform-center-x="-0.017927458"
         inkscape:transform-center-y="0.0027345719"
         d="m 898.92511,353.40755 0.15942,0.56918 -0.47945,-0.34569 -0.007,0.59103 -0.36263,-0.46677 -0.1736,0.56501 -0.21645,-0.55002 -0.32575,0.49321 -0.0527,-0.58872 -0.45151,0.38145 0.11528,-0.57972 -0.54069,0.2388 0.27394,-0.52377 -0.58607,0.0768 0.4104,-0.42537 -0.58396,-0.0914 0.51362,-0.29251 -0.53455,-0.25225 0.57523,-0.13596 -0.44183,-0.39263 0.59023,0.0316 -0.31332,-0.5012 0.55742,0.19661 -0.15942,-0.56917 0.47945,0.34569 0.007,-0.59103 0.36264,0.46677 0.1736,-0.56501 0.21644,0.55002 0.32576,-0.49321 0.0527,0.58872 0.45151,-0.38145 -0.11528,0.57972 0.54069,-0.2388 -0.27394,0.52376 0.58607,-0.0768 -0.4104,0.42537 0.58396,0.0914 -0.51362,0.29251 0.53455,0.25225 -0.57523,0.13596 0.44183,0.39263 -0.59023,-0.0316 0.31332,0.50121 z" /><path
         id="path2-6-62-1-1"
         style="display:inline;stroke-width:0.483244;stroke-linecap:round;stroke-linejoin:round"
         inkscape:transform-center-x="-0.015673709"
         inkscape:transform-center-y="0.0023927269"
         d="m 942.65545,362.98897 0.13937,0.49757 -0.41914,-0.3022 -0.006,0.51668 -0.31702,-0.40805 -0.15176,0.49393 -0.18922,-0.48083 -0.28477,0.43117 -0.0461,-0.51467 -0.39471,0.33348 0.10078,-0.5068 -0.47268,0.20876 0.23948,-0.45788 -0.51234,0.0671 0.35878,-0.37186 -0.51051,-0.0799 0.44901,-0.25572 -0.4673,-0.22052 0.50286,-0.11886 -0.38625,-0.34324 0.51599,0.0276 -0.27391,-0.43815 0.4873,0.17188 -0.13936,-0.49758 0.41913,0.30221 0.006,-0.51668 0.31702,0.40804 0.15176,-0.49393 0.18922,0.48083 0.28477,-0.43116 0.0461,0.51466 0.39471,-0.33347 -0.10078,0.5068 0.47268,-0.20876 -0.23948,0.45788 0.51234,-0.0671 -0.35878,0.37186 0.51051,0.0799 -0.44901,0.25572 0.4673,0.22051 -0.50286,0.11886 0.38625,0.34324 -0.51599,-0.0276 0.27391,0.43816 z" /><path
         id="path2-6-62-4-3"
         style="display:inline;stroke-width:0.55278;stroke-linecap:round;stroke-linejoin:round"
         inkscape:transform-center-x="-0.017927458"
         inkscape:transform-center-y="0.0027345719"
         d="m 976.13781,365.45725 0.15942,0.56918 -0.47945,-0.34569 -0.007,0.59103 -0.36263,-0.46677 -0.1736,0.56501 -0.21645,-0.55002 -0.32575,0.49321 -0.0527,-0.58872 -0.45151,0.38145 0.11528,-0.57972 -0.54069,0.2388 0.27394,-0.52377 -0.58607,0.0768 0.4104,-0.42537 -0.58396,-0.0914 0.51362,-0.29251 -0.53455,-0.25225 0.57523,-0.13596 -0.44183,-0.39263 0.59023,0.0316 -0.31332,-0.5012 0.55742,0.19661 -0.15942,-0.56917 0.47945,0.34569 0.007,-0.59103 0.36264,0.46677 0.1736,-0.56501 0.21644,0.55002 0.32576,-0.49321 0.0527,0.58872 0.45151,-0.38145 -0.11528,0.57972 0.54069,-0.2388 -0.27394,0.52376 0.58607,-0.0768 -0.4104,0.42537 0.58396,0.0914 -0.51362,0.29251 0.53455,0.25225 -0.57523,0.13596 0.44183,0.39263 -0.59023,-0.0316 0.31332,0.50121 z" /><path
         id="path2-6-62-8-4"
         style="display:inline;stroke-width:0.55278;stroke-linecap:round;stroke-linejoin:round"
         inkscape:transform-center-x="-0.017927458"
         inkscape:transform-center-y="0.0027345719"
         d="m 963.41091,382.10519 0.15942,0.56918 -0.47945,-0.34569 -0.007,0.59103 -0.36263,-0.46677 -0.1736,0.56501 -0.21645,-0.55002 -0.32575,0.49321 -0.0527,-0.58872 -0.45151,0.38145 0.11528,-0.57972 -0.54069,0.2388 0.27394,-0.52377 -0.58607,0.0768 0.4104,-0.42537 -0.58396,-0.0914 0.51362,-0.29251 -0.53455,-0.25225 0.57523,-0.13596 -0.44183,-0.39263 0.59023,0.0316 -0.31332,-0.5012 0.55742,0.19661 -0.15942,-0.56917 0.47945,0.34569 0.007,-0.59103 0.36264,0.46677 0.1736,-0.56501 0.21644,0.55002 0.32576,-0.49321 0.0527,0.58872 0.45151,-0.38145 -0.11528,0.57972 0.54069,-0.2388 -0.27394,0.52376 0.58607,-0.0768 -0.4104,0.42537 0.58396,0.0914 -0.51362,0.29251 0.53455,0.25225 -0.57523,0.13596 0.44183,0.39263 -0.59023,-0.0316 0.31332,0.50121 z" /><path
         id="path2-6-62-0-2"
         style="display:inline;stroke-width:0.55278;stroke-linecap:round;stroke-linejoin:round"
         inkscape:transform-center-x="-0.017927458"
         inkscape:transform-center-y="0.0027345719"
         d="m 989.68251,359.62519 0.15942,0.56918 -0.47945,-0.34569 -0.007,0.59103 -0.36263,-0.46677 -0.1736,0.56501 -0.21645,-0.55002 -0.32575,0.49321 -0.0527,-0.58872 -0.45151,0.38145 0.11528,-0.57972 -0.54069,0.2388 0.27394,-0.52377 -0.58607,0.0768 0.4104,-0.42537 -0.58396,-0.0914 0.51362,-0.29251 -0.53455,-0.25225 0.57523,-0.13596 -0.44183,-0.39263 0.59023,0.0316 -0.31332,-0.5012 0.55742,0.19661 -0.15942,-0.56917 0.47945,0.34569 0.007,-0.59103 0.36264,0.46677 0.1736,-0.56501 0.21644,0.55002 0.32576,-0.49321 0.0527,0.58872 0.45151,-0.38145 -0.11528,0.57972 0.54069,-0.2388 -0.27394,0.52376 0.58607,-0.0768 -0.4104,0.42537 0.58396,0.0914 -0.51362,0.29251 0.53455,0.25225 -0.57523,0.13596 0.44183,0.39263 -0.59023,-0.0316 0.31332,0.50121 z" /><path
         id="path2-6-22-4"
         style="display:inline;stroke-width:0.55278;stroke-linecap:round;stroke-linejoin:round"
         inkscape:transform-center-x="-0.017927458"
         inkscape:transform-center-y="0.0027345719"
         d="m 998.69681,367.11521 0.15942,0.56918 -0.47945,-0.34569 -0.007,0.59103 -0.36263,-0.46677 -0.1736,0.56501 -0.21645,-0.55002 -0.32575,0.49321 -0.0527,-0.58872 -0.45151,0.38145 0.11528,-0.57972 -0.54069,0.2388 0.27394,-0.52377 -0.58607,0.0768 0.4104,-0.42537 -0.58396,-0.0914 0.51362,-0.29251 -0.53455,-0.25225 0.57523,-0.13596 -0.44183,-0.39263 0.59023,0.0316 -0.31332,-0.5012 0.55742,0.19661 -0.15942,-0.56917 0.47945,0.34569 0.007,-0.59103 0.36264,0.46677 0.1736,-0.56501 0.21644,0.55002 0.32576,-0.49321 0.0527,0.58872 0.45151,-0.38145 -0.11528,0.57972 0.54069,-0.2388 -0.27394,0.52376 0.58607,-0.0768 -0.4104,0.42537 0.58396,0.0914 -0.51362,0.29251 0.53455,0.25225 -0.57523,0.13596 0.44183,0.39263 -0.59023,-0.0316 0.31332,0.50121 z" /><path
         id="path3-17"
         style="display:inline;stroke-width:2.124;stroke-linecap:round;stroke-linejoin:round"
         d="m 851.39543,376.86839 a 1.2257435,1.2257435 0 0 1 -1.22574,1.22574 1.2257435,1.2257435 0 0 1 -1.22574,-1.22574 1.2257435,1.2257435 0 0 1 1.22574,-1.22574 1.2257435,1.2257435 0 0 1 1.22574,1.22574 z" /><path
         id="path3-1-5"
         style="display:inline;stroke-width:2.124;stroke-linecap:round;stroke-linejoin:round"
         d="m 852.63567,392.57222 a 1.2257435,1.2257435 0 0 1 -1.22575,1.22574 1.2257435,1.2257435 0 0 1 -1.22574,-1.22574 1.2257435,1.2257435 0 0 1 1.22574,-1.22575 1.2257435,1.2257435 0 0 1 1.22575,1.22575 z" /><path
         id="path3-4-0"
         style="display:inline;stroke-width:2.124;stroke-linecap:round;stroke-linejoin:round"
         d="m 874.38335,394.23839 a 1.2257435,1.2257435 0 0 1 -1.22575,1.22574 1.2257435,1.2257435 0 0 1 -1.22574,-1.22574 1.2257435,1.2257435 0 0 1 1.22574,-1.22575 1.2257435,1.2257435 0 0 1 1.22575,1.22575 z" /><path
         id="path3-9-3"
         style="display:inline;stroke-width:2.124;stroke-linecap:round;stroke-linejoin:round"
         d="m 882.50871,390.08449 a 1.2257435,1.2257435 0 0 1 -1.22574,1.22574 1.2257435,1.2257435 0 0 1 -1.22574,-1.22574 1.2257435,1.2257435 0 0 1 1.22574,-1.22575 1.2257435,1.2257435 0 0 1 1.22574,1.22575 z" /><path
         id="path3-0-3"
         style="display:inline;stroke-width:2.124;stroke-linecap:round;stroke-linejoin:round"
         d="m 885.09001,371.61888 a 1.2257435,1.2257435 0 0 1 -1.22574,1.22574 1.2257435,1.2257435 0 0 1 -1.22574,-1.22574 1.2257435,1.2257435 0 0 1 1.22574,-1.22574 1.2257435,1.2257435 0 0 1 1.22574,1.22574 z" /><path
         id="path3-54-0-3"
         style="display:inline;stroke-width:2.537;stroke-linecap:round;stroke-linejoin:round"
         d="m 949.16392,385.57026 a 1.4640826,1.4640826 0 0 1 -1.46408,1.46409 1.4640826,1.4640826 0 0 1 -1.46408,-1.46409 1.4640826,1.4640826 0 0 1 1.46408,-1.46408 1.4640826,1.4640826 0 0 1 1.46408,1.46408 z" /><path
         id="path3-81-7"
         style="display:inline;stroke-width:2.124;stroke-linecap:round;stroke-linejoin:round"
         d="m 983.43352,379.48341 a 1.2257435,1.2257435 0 0 1 -1.22574,1.22575 1.2257435,1.2257435 0 0 1 -1.22575,-1.22575 1.2257435,1.2257435 0 0 1 1.22575,-1.22574 1.2257435,1.2257435 0 0 1 1.22574,1.22574 z" /><path
         id="path3-00-3"
         style="display:inline;stroke-width:2.124;stroke-linecap:round;stroke-linejoin:round"
         d="m 963.65984,368.3773 a 1.2257435,1.2257435 0 0 1 -1.22575,1.22575 1.2257435,1.2257435 0 0 1 -1.22574,-1.22575 1.2257435,1.2257435 0 0 1 1.22574,-1.22574 1.2257435,1.2257435 0 0 1 1.22575,1.22574 z" /><path
         id="path3-20-0"
         style="display:inline;stroke-width:2.124;stroke-linecap:round;stroke-linejoin:round"
         d="m 956.50505,377.66966 a 1.2257435,1.2257435 0 0 1 -1.22574,1.22574 1.2257435,1.2257435 0 0 1 -1.22574,-1.22574 1.2257435,1.2257435 0 0 1 1.22574,-1.22574 1.2257435,1.2257435 0 0 1 1.22574,1.22574 z" /><path
         id="path3-93-0"
         style="display:inline;stroke-width:2.124;stroke-linecap:round;stroke-linejoin:round"
         d="m 923.98454,395.90156 a 1.2257435,1.2257435 0 0 1 -1.22574,1.22575 1.2257435,1.2257435 0 0 1 -1.22574,-1.22575 1.2257435,1.2257435 0 0 1 1.22574,-1.22574 1.2257435,1.2257435 0 0 1 1.22574,1.22574 z" /></g><g
       id="g105"
       transform="matrix(0.87374854,0,0,0.87374854,278.0343,-21.454738)"><path
         style="color:#000000;display:inline;fill:#000000;fill-opacity:1;-inkscape-stroke:none"
         d="m 1327.3666,464.68362 -12.3652,3.96485 0.5098,1.58593 12.3632,-3.96484 z"
         id="path101" /><path
         style="color:#000000;display:inline;fill:#000000;fill-opacity:1;-inkscape-stroke:none"
         d="m 1341.9506,440.34573 -14.4238,24.07617 1.4277,0.85547 14.4238,-24.07617 z"
         id="path100" /><path
         style="color:#000000;display:inline;fill:#000000;fill-opacity:1;-inkscape-stroke:none"
         d="m 1295.0893,429.418 -7.6153,57.32812 1.6524,0.22071 3.6582,-27.54883 23.6367,22.66016 1.1524,-1.20313 -23.7676,-22.7832 29.4726,-25.14649 -1.08,-1.26758 -29.0176,24.75977 3.5586,-26.80078 z"
         id="path99" /><path
         style="color:#000000;display:inline;fill:#000000;fill-opacity:1;-inkscape-stroke:none"
         d="m 1389.1343,419.73831 -45.7481,19.25977 -9.6661,-17.46485 -1.457,0.80664 9.9902,18.04493 1.0625,-0.5879 0.3711,0.87891 46.0919,-19.40234 z"
         id="path98" /><path
         id="path87-2"
         style="color:#000000;display:inline;fill:#000000;fill-opacity:1;-inkscape-stroke:none"
         d="m 1284.0951,417.02747 -23.5236,11.68559 0.2971,0.59738 -0.5038,0.86713 24.6424,14.34796 -23.7675,17.51573 0.9885,1.34152 24.7148,-18.21698 -0.4046,-0.55035 0.4883,-0.84026 -24.4161,-14.2167 22.9433,-11.39466 -0.3436,-0.69091 0.6232,-0.0982 z"
         sodipodi:nodetypes="ccccccccccccccc" /><path
         id="path1-9-26-8"
         style="display:inline;stroke-width:4.09254;stroke-linecap:round;stroke-linejoin:round"
         inkscape:transform-center-x="0.013689729"
         inkscape:transform-center-y="0.002545087"
         d="m 1297.1783,430.41926 0.4895,1.053 -0.9722,-0.63545 0.019,1.16097 -0.6296,-0.97578 -0.4553,1.0682 -0.1782,-1.1474 -0.8506,0.79073 0.3041,-1.12061 -1.0988,0.37653 0.7338,-0.90006 -1.157,-0.10277 1.0366,-0.52389 -1.0152,-0.56431 1.1602,-0.0571 -0.6979,-0.92827 1.0832,0.41951 -0.2598,-1.13172 0.8188,0.82362 0.2231,-1.13949 0.4129,1.0853 0.6676,-0.95023 -0.064,1.15934 0.9965,-0.59667 -0.5306,1.03291 1.1532,-0.13994 -0.9051,0.72789 1.1105,0.34099 -1.123,0.29699 0.8757,0.76296 z" /><path
         id="path1-9-31-6"
         style="display:inline;stroke-width:4.09254;stroke-linecap:round;stroke-linejoin:round"
         inkscape:transform-center-x="0.013689729"
         inkscape:transform-center-y="0.002545087"
         d="m 1325.0512,432.54587 0.4895,1.053 -0.9722,-0.63545 0.019,1.16097 -0.6296,-0.97578 -0.4553,1.0682 -0.1782,-1.1474 -0.8506,0.79073 0.3041,-1.12061 -1.0988,0.37653 0.7338,-0.90006 -1.157,-0.10277 1.0366,-0.52389 -1.0152,-0.56431 1.1602,-0.0571 -0.6979,-0.92827 1.0832,0.41951 -0.2598,-1.13172 0.8188,0.82362 0.2231,-1.13949 0.4129,1.0853 0.6676,-0.95023 -0.064,1.15934 0.9965,-0.59667 -0.5306,1.03291 1.1532,-0.13994 -0.9051,0.72789 1.1105,0.34099 -1.123,0.29699 0.8757,0.76296 z" /><path
         id="path1-9-4-2"
         style="display:inline;stroke-width:4.09254;stroke-linecap:round;stroke-linejoin:round"
         inkscape:transform-center-x="0.013689729"
         inkscape:transform-center-y="0.002545087"
         d="m 1333.9037,421.86033 0.4895,1.053 -0.9722,-0.63545 0.019,1.16097 -0.6296,-0.97578 -0.4553,1.0682 -0.1782,-1.1474 -0.8506,0.79073 0.3041,-1.12061 -1.0988,0.37653 0.7338,-0.90006 -1.157,-0.10277 1.0366,-0.52389 -1.0152,-0.56431 1.1602,-0.0571 -0.6979,-0.92827 1.0832,0.41951 -0.2598,-1.13172 0.8188,0.82362 0.2231,-1.13949 0.4129,1.0853 0.6676,-0.95023 -0.064,1.15934 0.9965,-0.59667 -0.5306,1.03291 1.1532,-0.13994 -0.9051,0.72789 1.1105,0.34099 -1.123,0.29699 0.8757,0.76296 z" /><path
         id="path1-9-6-2"
         style="display:inline;stroke-width:4.09254;stroke-linecap:round;stroke-linejoin:round"
         inkscape:transform-center-x="0.013689729"
         inkscape:transform-center-y="0.002545087"
         d="m 1317.4078,481.49392 0.4895,1.053 -0.9722,-0.63545 0.019,1.16097 -0.6296,-0.97578 -0.4553,1.0682 -0.1782,-1.1474 -0.8506,0.79073 0.3041,-1.12061 -1.0988,0.37653 0.7338,-0.90006 -1.157,-0.10277 1.0366,-0.52389 -1.0152,-0.56431 1.1602,-0.0571 -0.6979,-0.92827 1.0832,0.41951 -0.2598,-1.13172 0.8188,0.82362 0.2231,-1.13949 0.4129,1.0853 0.6676,-0.95023 -0.064,1.15934 0.9965,-0.59667 -0.5306,1.03291 1.1532,-0.13994 -0.9051,0.72789 1.1105,0.34099 -1.123,0.29699 0.8757,0.76296 z" /><path
         id="path1-9-80-3"
         style="display:inline;stroke-width:4.09254;stroke-linecap:round;stroke-linejoin:round"
         inkscape:transform-center-x="0.013689729"
         inkscape:transform-center-y="0.002545087"
         d="m 1287.2269,445.54431 0.4895,1.053 -0.9722,-0.63545 0.019,1.16097 -0.6296,-0.97578 -0.4553,1.0682 -0.1782,-1.1474 -0.8506,0.79073 0.3041,-1.12061 -1.0988,0.37653 0.7338,-0.90006 -1.157,-0.10277 1.0366,-0.52389 -1.0152,-0.56431 1.1602,-0.0571 -0.6979,-0.92827 1.0832,0.41951 -0.2598,-1.13172 0.8188,0.82362 0.2231,-1.13949 0.4129,1.0853 0.6676,-0.95023 -0.064,1.15934 0.9965,-0.59667 -0.5306,1.03291 1.1532,-0.13994 -0.9051,0.72789 1.1105,0.34099 -1.123,0.29699 0.8757,0.76296 z" /><path
         id="path2-1"
         style="display:inline;stroke-width:0.55278;stroke-linecap:round;stroke-linejoin:round"
         inkscape:transform-center-x="-0.017874596"
         inkscape:transform-center-y="0.0030711874"
         d="m 1343.8682,441.22924 0.077,0.52345 -0.4553,-0.26957 -0.088,0.52168 -0.3497,-0.39708 -0.2452,0.46885 -0.2099,-0.4857 -0.3781,0.37012 -0.049,-0.52679 -0.474,0.23516 0.1157,-0.51631 -0.5235,0.0772 0.2696,-0.45529 -0.5217,-0.0883 0.3971,-0.3497 -0.4689,-0.24524 0.4857,-0.20988 -0.3701,-0.37812 0.5268,-0.0495 -0.2351,-0.47399 0.5163,0.11569 -0.077,-0.52345 0.4553,0.26958 0.088,-0.52168 0.3497,0.39707 0.2453,-0.46885 0.2098,0.48571 0.3782,-0.37012 0.05,0.52679 0.474,-0.23516 -0.1157,0.51631 0.5234,-0.0772 -0.2696,0.45528 0.5217,0.0884 -0.397,0.3497 0.4688,0.24523 -0.4857,0.20989 0.3701,0.37811 -0.5268,0.0495 0.2352,0.47398 z" /><path
         id="path2-4-4"
         style="display:inline;stroke-width:0.55278;stroke-linecap:round;stroke-linejoin:round"
         inkscape:transform-center-x="-0.017874596"
         inkscape:transform-center-y="0.0030711874"
         d="m 1390.1745,422.06338 0.077,0.52345 -0.4553,-0.26957 -0.088,0.52168 -0.3497,-0.39708 -0.2452,0.46885 -0.2099,-0.4857 -0.3781,0.37012 -0.05,-0.52679 -0.474,0.23516 0.1157,-0.51631 -0.5235,0.0772 0.2696,-0.45529 -0.5217,-0.0883 0.3971,-0.3497 -0.4689,-0.24524 0.4857,-0.20988 -0.3701,-0.37812 0.5268,-0.0495 -0.2351,-0.47399 0.5163,0.11569 -0.077,-0.52345 0.4553,0.26958 0.088,-0.52168 0.3497,0.39707 0.2453,-0.46885 0.2098,0.48571 0.3782,-0.37012 0.05,0.52679 0.474,-0.23516 -0.1157,0.51631 0.5234,-0.0772 -0.2696,0.45528 0.5217,0.0884 -0.397,0.3497 0.4688,0.24523 -0.4857,0.20989 0.3701,0.37811 -0.5268,0.0495 0.2352,0.47398 z" /><path
         id="path2-6-80-0"
         style="display:inline;stroke-width:0.55278;stroke-linecap:round;stroke-linejoin:round"
         inkscape:transform-center-x="-0.017927458"
         inkscape:transform-center-y="0.0027345719"
         d="m 1261.8618,464.29629 0.1594,0.56917 -0.4794,-0.34569 -0.01,0.59103 -0.3627,-0.46676 -0.1736,0.56501 -0.2164,-0.55003 -0.3258,0.49321 -0.053,-0.58872 -0.4515,0.38146 0.1153,-0.57973 -0.5407,0.2388 0.2739,-0.52376 -0.586,0.0768 0.4104,-0.42537 -0.584,-0.0914 0.5136,-0.29252 -0.5345,-0.25224 0.5752,-0.13597 -0.4418,-0.39262 0.5902,0.0316 -0.3133,-0.5012 0.5574,0.19661 -0.1594,-0.56917 0.4794,0.34569 0.01,-0.59103 0.3627,0.46676 0.1736,-0.565 0.2164,0.55002 0.3258,-0.49321 0.053,0.58872 0.4515,-0.38146 -0.1153,0.57973 0.5407,-0.2388 -0.2739,0.52376 0.586,-0.0768 -0.4104,0.42537 0.584,0.0914 -0.5136,0.29252 0.5345,0.25224 -0.5752,0.13597 0.4418,0.39262 -0.5902,-0.0316 0.3133,0.5012 z" /><path
         id="path2-6-6-5"
         style="display:inline;stroke-width:0.55278;stroke-linecap:round;stroke-linejoin:round"
         inkscape:transform-center-x="-0.017927458"
         inkscape:transform-center-y="0.0027345719"
         d="m 1289.0461,487.78804 0.1594,0.56917 -0.4794,-0.34569 -0.01,0.59103 -0.3627,-0.46676 -0.1736,0.56501 -0.2164,-0.55003 -0.3258,0.49321 -0.053,-0.58872 -0.4515,0.38146 0.1153,-0.57973 -0.5407,0.2388 0.2739,-0.52376 -0.586,0.0768 0.4104,-0.42537 -0.584,-0.0914 0.5136,-0.29252 -0.5345,-0.25224 0.5752,-0.13597 -0.4418,-0.39262 0.5902,0.0316 -0.3133,-0.5012 0.5574,0.19661 -0.1594,-0.56917 0.4794,0.34569 0.01,-0.59103 0.3627,0.46676 0.1736,-0.565 0.2164,0.55002 0.3258,-0.49321 0.053,0.58872 0.4515,-0.38146 -0.1153,0.57973 0.5407,-0.2388 -0.2739,0.52376 0.586,-0.0768 -0.4104,0.42537 0.584,0.0914 -0.5136,0.29252 0.5345,0.25224 -0.5752,0.13597 0.4418,0.39262 -0.5902,-0.0316 0.3133,0.5012 z" /><path
         id="path2-6-7-6"
         style="display:inline;stroke-width:0.55278;stroke-linecap:round;stroke-linejoin:round"
         inkscape:transform-center-x="-0.017927458"
         inkscape:transform-center-y="0.0027345719"
         d="m 1328.7158,466.13935 0.1594,0.56917 -0.4794,-0.34569 -0.01,0.59103 -0.3627,-0.46676 -0.1736,0.56501 -0.2164,-0.55003 -0.3258,0.49321 -0.053,-0.58872 -0.4515,0.38146 0.1153,-0.57973 -0.5407,0.2388 0.2739,-0.52376 -0.586,0.0768 0.4104,-0.42537 -0.584,-0.0914 0.5136,-0.29252 -0.5345,-0.25224 0.5752,-0.13597 -0.4418,-0.39262 0.5902,0.0316 -0.3133,-0.5012 0.5574,0.19661 -0.1594,-0.56917 0.4794,0.34569 0.01,-0.59103 0.3627,0.46676 0.1736,-0.565 0.2164,0.55002 0.3258,-0.49321 0.053,0.58872 0.4515,-0.38146 -0.1153,0.57973 0.5407,-0.2388 -0.2739,0.52376 0.586,-0.0768 -0.4104,0.42537 0.584,0.0914 -0.5136,0.29252 0.5345,0.25224 -0.5752,0.13597 0.4418,0.39262 -0.5902,-0.0316 0.3133,0.5012 z" /><path
         id="path3-5-2"
         style="display:inline;stroke-width:2.49947;stroke-linecap:round;stroke-linejoin:round"
         d="m 1262.8913,429.51418 a 1.4424264,1.4424264 0 0 1 -1.4424,1.44243 1.4424264,1.4424264 0 0 1 -1.4424,-1.44243 1.4424264,1.4424264 0 0 1 1.4424,-1.44243 1.4424264,1.4424264 0 0 1 1.4424,1.44243 z" /><path
         id="path3-8-4"
         style="display:inline;stroke-width:2.4392;stroke-linecap:round;stroke-linejoin:round"
         d="m 1293.9675,457.93377 a 1.4076446,1.4076446 0 0 1 -1.4076,1.40764 1.4076446,1.4076446 0 0 1 -1.4077,-1.40764 1.4076446,1.4076446 0 0 1 1.4077,-1.40765 1.4076446,1.4076446 0 0 1 1.4076,1.40765 z" /><path
         id="path3-73-9"
         style="display:inline;stroke-width:2.124;stroke-linecap:round;stroke-linejoin:round"
         d="m 1316.1134,469.50683 a 1.2257435,1.2257435 0 0 1 -1.2258,1.22574 1.2257435,1.2257435 0 0 1 -1.2257,-1.22574 1.2257435,1.2257435 0 0 1 1.2257,-1.22575 1.2257435,1.2257435 0 0 1 1.2258,1.22575 z" /><path
         id="path2-6-8-2-6"
         style="display:inline;fill:#000000;stroke-width:0.55278;stroke-linecap:round;stroke-linejoin:round"
         inkscape:transform-center-x="-0.017927458"
         inkscape:transform-center-y="0.0027345719"
         d="m 1286.0796,418.43127 0.1594,0.56917 -0.4794,-0.34569 -0.01,0.59103 -0.3627,-0.46676 -0.1736,0.56501 -0.2164,-0.55003 -0.3258,0.49321 -0.053,-0.58872 -0.4515,0.38146 0.1153,-0.57973 -0.5407,0.2388 0.2739,-0.52376 -0.586,0.0768 0.4104,-0.42537 -0.584,-0.0914 0.5136,-0.29252 -0.5345,-0.25224 0.5752,-0.13597 -0.4418,-0.39262 0.5902,0.0316 -0.3133,-0.5012 0.5574,0.19661 -0.1594,-0.56917 0.4794,0.34569 0.01,-0.59103 0.3627,0.46676 0.1736,-0.565 0.2164,0.55002 0.3258,-0.49321 0.053,0.58872 0.4515,-0.38146 -0.1153,0.57973 0.5407,-0.2388 -0.2739,0.52376 0.586,-0.0768 -0.4104,0.42537 0.584,0.0914 -0.5136,0.29252 0.5345,0.25224 -0.5752,0.13597 0.4418,0.39262 -0.5902,-0.0316 0.3133,0.5012 z" /></g></g></svg>
