<?xml version="1.0" encoding="UTF-8" standalone="no"?>
<!-- Created with Inkscape (http://www.inkscape.org/) -->

<svg
   width="206.63414mm"
   height="101.08178mm"
   viewBox="0 0 206.63414 101.08178"
   version="1.1"
   id="svg1"
   xml:space="preserve"
   inkscape:version="1.4.3 (0d15f75, 2025-12-25)"
   sodipodi:docname="thrum-title.svg"
   xmlns:inkscape="http://www.inkscape.org/namespaces/inkscape"
   xmlns:sodipodi="http://sodipodi.sourceforge.net/DTD/sodipodi-0.dtd"
   xmlns="http://www.w3.org/2000/svg"
   xmlns:svg="http://www.w3.org/2000/svg"><sodipodi:namedview
     id="namedview1"
     pagecolor="#ffffff"
     bordercolor="#000000"
     borderopacity="0.25"
     inkscape:showpageshadow="2"
     inkscape:pageopacity="0.0"
     inkscape:pagecheckerboard="0"
     inkscape:deskcolor="#d1d1d1"
     inkscape:document-units="mm"
     inkscape:zoom="0.50835205"
     inkscape:cx="332.44678"
     inkscape:cy="-34.424962"
     inkscape:window-width="3840"
     inkscape:window-height="1009"
     inkscape:window-x="-8"
     inkscape:window-y="-8"
     inkscape:window-maximized="1"
     inkscape:current-layer="layer1" /><defs
     id="defs1" /><g
     inkscape:label="Layer 1"
     inkscape:groupmode="layer"
     id="layer1"
     transform="translate(-0.35177992,-172.73509)"><path
       style="font-size:96.8624px;font-family:'West Brown';-inkscape-font-specification:'West Brown';letter-spacing:-0.791852px;fill:#000000;stroke-width:13.6428;stroke-linecap:round;stroke-linejoin:round"
       d="M 20.861337,202.31088 H 14.74155 v -14.9751 H 6.6369799 v 14.9751 H 0.35177992 v 1.37272 H 6.6369799 v 55.53258 H 14.74155 V 203.6836 h 6.119787 z m 43.305872,56.9053 v -46.17317 c 0,-3.36939 -1.653997,-6.23962 -4.961988,-8.73545 -3.142591,-2.49586 -6.946787,-3.74377 -11.24717,-3.74377 -6.781387,0 -11.908768,2.24626 -14.885963,6.86358 v -34.69228 h -8.104585 v 86.48109 h 8.104585 v -47.79547 c 0.496191,-2.74543 2.315591,-5.11648 4.961988,-6.98837 2.811791,-1.74708 6.119783,-2.62064 9.923975,-2.62064 1.984793,0 3.969586,1.12314 5.623585,3.24461 1.819395,2.24625 2.646391,4.86689 2.646391,7.9867 v 46.17317 z m 24.119542,-58.40282 c -3.969592,0 -6.781385,0.99834 -8.60078,2.99503 v -1.49751 h -8.104579 v 56.9053 h 8.104579 v -52.16319 c 0.496199,-2.37106 2.150196,-3.99337 4.631188,-4.74211 -0.826997,0.74874 -1.157796,1.62229 -1.157796,2.37105 0,2.37106 1.653995,3.61897 5.127388,3.61897 3.307992,0 5.127388,-1.24791 5.127388,-3.61897 0,-2.62065 -1.819396,-3.86857 -5.127388,-3.86857 z m 40.659509,47.92028 v -45.7988 h -8.26999 v 45.7988 c 0,3.1198 -0.827,5.74043 -2.481,7.98669 -1.65398,2.12147 -3.47337,3.24462 -5.62357,3.24462 -4.135,0 -7.77379,-1.12315 -10.58557,-3.24462 -2.977199,-2.24626 -4.30041,-4.86689 -4.30041,-7.98669 v -45.7988 h -1.653982 v 45.7988 c 0,3.49418 1.488587,6.36439 4.796582,8.86023 3.308,2.49587 7.11218,3.74377 11.74338,3.74377 4.46577,0 8.26998,-1.2479 11.57797,-3.74377 3.14259,-2.49584 4.79659,-5.36605 4.79659,-8.86023 z m 78.03966,-35.31625 c 0,-3.36939 -1.65398,-6.3644 -4.96198,-8.73546 -3.308,-2.49585 -7.11219,-3.74377 -11.41259,-3.74377 -7.93916,0 -13.23195,2.87023 -15.87836,8.48588 -2.31557,-5.61565 -7.60837,-8.48588 -15.38215,-8.48588 -6.78139,0 -11.90877,2.37106 -14.88596,6.98837 v -5.61565 h -8.10458 v 56.9053 h 8.10458 v -47.2963 c 0.4962,-2.74543 2.3156,-5.11649 4.962,-6.98837 2.81178,-1.74709 6.11977,-2.74543 9.92396,-2.74543 2.1502,0 4.13499,1.12314 5.78899,3.2446 1.654,2.24626 2.481,4.86691 2.481,7.98671 v 60.39948 h 8.10457 v -61.52261 c 0.3308,-2.87022 1.9848,-5.24127 4.79659,-7.11317 2.8118,-1.99667 6.11977,-2.99501 10.08936,-2.99501 2.1502,0 3.96961,1.12314 5.62359,3.36939 1.65402,2.24627 2.481,4.86689 2.481,7.86192 v 45.79879 h 8.26998 z"
       id="text1-6-3"
       aria-label="thrum"
       sodipodi:nodetypes="ccccccccccccccscscccccccscsccscccccccsssssccscsssccssscsscscscccccccscsccccsssccs" /></g></svg>
